<svg xmlns="http://www.w3.org/2000/svg" viewBox="0 0 637 321"><defs><style>.cls-1{isolation:isolate;}.cls-2{opacity:0.11;}.cls-3,.cls-5{fill:#adadad;}.cls-3,.cls-4{mix-blend-mode:overlay;}</style></defs><title>bg-row-circle-pattern</title><g class="cls-1"><g id="Layer_3" data-name="Layer 3"><g class="cls-2"><path class="cls-3" d="M254.56-22.24l-.32-.6q-.47-.82-1-1.74l-.15-.25H224.4c2.52,3.45,4.35,6.35,5.44,8.17.81,1.32,1.51,2.6,2.17,3.79.32.59.64,1.17,1,1.72l1.21,2.45,2.76,6,8.33-3.68A119.15,119.15,0,0,1,253.13,21a114.38,114.38,0,0,1,1.42,23.8c0,1.85-.17,3.43-.29,4.69,0,.59-.1,1.11-.12,1.51L254,53l-.29,2.12c-.07.46-.13,1-.21,1.56-.16,1.26-.36,2.83-.76,4.74a113.65,113.65,0,0,1-6.52,22.83,118.73,118.73,0,0,1-13.61,25l-7.33-5.4-2.66,3.61-3.05,3.78c-.42.47-.86,1-1.3,1.47-.9,1-1.86,2.12-3,3.32a112,112,0,0,1-27.05,20.79,113.73,113.73,0,0,1-16.73,7.46,120.34,120.34,0,0,1-15.38,4.13c-3.74.68-7.46,1.19-11.06,1.52l-4.61.31.61,9.05c-1.72.08-3.45.14-5.21.15a122.2,122.2,0,0,1-30.62-3.84,117.78,117.78,0,0,1-15.29-5.12c-1.76-.67-3.48-1.47-5.29-2.33-.71-.33-1.43-.67-2-.91-.75-.4-1.51-.8-2.28-1.19s-1.66-.85-2.47-1.29l4-8.18-.34-.18-3.24-1.91c-1.06-.6-2.52-1.56-3.81-2.43l-.29-.19c-1.34-.83-2.93-2-4.78-3.36l-.28-.21a112.54,112.54,0,0,1-23.8-24.47A110.43,110.43,0,0,1,30.16,73.32a106.53,106.53,0,0,1-2.86-10.9l-.07-.33c-.19-.79-.3-1.46-.38-2l-.32-1.91-9,1.53A118.62,118.62,0,0,1,24.63-4.66l8.42,3.41L33.77-3c.19-.49.44-1.13.8-1.86l.15-.32A109.4,109.4,0,0,1,46.15-24.83H17.42c-1.66,3-3.23,6.14-4.76,9.5C12-14,11.58-12.92,11.23-12l-.68,1.69L19-6.93a124.75,124.75,0,0,0-7.41,67.68l-9,1.53.3,1.79c.16.93.36,2.1.68,3.49A129.76,129.76,0,0,0,7,80.65a134.55,134.55,0,0,0,18.58,37.28,135.43,135.43,0,0,0,29.17,29.91l.27.21c2.09,1.53,4.06,3,6.09,4.27,1.69,1.12,3.46,2.28,5.16,3.24l3,1.8c1.19.68,1.85,1,1.85,1l4-8.17c.8.42,1.59.84,2.38,1.24l2.37,1.23,2.08,1c1.84.86,3.74,1.75,5.6,2.46a124.91,124.91,0,0,0,16,5.36A136.57,136.57,0,0,0,122,164.78a119.13,119.13,0,0,0,13.87.71c1.88,0,3.73-.08,5.58-.17l.61,9.13,4.75-.32.27,0c4.42-.4,9-1,13.51-1.87l.25,0a142.59,142.59,0,0,0,18.69-5,136.65,136.65,0,0,0,20.24-9,135.91,135.91,0,0,0,33-25.36c1.35-1.4,2.57-2.77,3.69-4.06l1.33-1.49,2.57-3.15,4.44-5.86-7.33-5.4A124.61,124.61,0,0,0,251.82,86.5a118.43,118.43,0,0,0,6.85-23.94c.06-.26.1-.49.14-.74V18.27a124.27,124.27,0,0,0-8-27.1l8-3.54v-.88l-1.59-3.62Z"/><g class="cls-4"><path class="cls-5" d="M224.93,31.64c0-.29-.07-.58-.1-.88q-.14-1.11-.24-2.25a57.48,57.48,0,0,0-1.24-8L223,18.7c-.22-1.12-.45-2.24-.72-3.38l-2.38-7.64A14.12,14.12,0,0,0,219.22,6c-.12-.29-.24-.57-.36-.87L216.28-1l-1.85-3.44c-.29-.53-.58-1.06-.86-1.59-.52-1-1-1.94-1.6-2.91s-1.32-2-2-2.92c-1.18-1.78-2.3-3.46-3.52-5q-1.05-1.25-2-2.46c-1.21-1.48-2.36-2.87-3.54-4.17l-1.34-1.32h-1.18l1.93,1.89c1.14,1.27,2.28,2.66,3.49,4.13.66.81,1.34,1.63,2,2.46,1.19,1.55,2.3,3.22,3.47,5,.65,1,1.3,1.95,2,2.9s1,1.9,1.56,2.86L213.7-4l1.83,3.4,2.56,6.08c.11.3.24.59.37.89a12.48,12.48,0,0,1,.6,1.56l2.38,7.62c.25,1.11.48,2.22.71,3.33.13.61.25,1.23.39,1.85a57.44,57.44,0,0,1,1.22,7.88c.08.76.16,1.51.25,2.24,0,.3.06.6.09.9a11.86,11.86,0,0,1,.13,1.55l.13,8.24L223.75,49a19.87,19.87,0,0,1-.37,2.71c-.07.34-.13.69-.19,1l-.61,3.4c-.07.38-.14.75-.2,1.12-.11.64-.22,1.27-.36,1.83l-2,7.2.8.23,2.05-7.22c.14-.59.25-1.23.37-1.9.06-.36.13-.73.2-1.11l.62-3.41c0-.33.11-.67.18-1a19.23,19.23,0,0,0,.38-2.81l.61-7.51-.12-8.28A14.5,14.5,0,0,0,224.93,31.64Z"/><path class="cls-5" d="M220.15,5l-3.07,1.29-2-4.79A19.3,19.3,0,0,0,213.89-1L210-8.14,212.76-10l.39.59,3.64,6.72A22,22,0,0,1,218.14.23Z"/><path class="cls-5" d="M226.13,31.08l-3.32.37-.64-5.81a14.5,14.5,0,0,0-.32-2.11l-1.55-7.4a3.83,3.83,0,0,0-.13-.45l3.13-1.15a6.54,6.54,0,0,1,.25.86l1.55,7.4a17.21,17.21,0,0,1,.38,2.5Z"/><path class="cls-5" d="M224.4,57.78l-3.28-.59.46-2.52c.08-.5.19-1.1.31-1.75.22-1.13.47-2.41.59-3.67l.6-7.45a3.73,3.73,0,0,0,0-.45l1.63-.08,1-1.39a2.18,2.18,0,0,1,.65,2.23l-.61,7.43a38.43,38.43,0,0,1-.63,4c-.11.6-.22,1.16-.3,1.67Z"/></g><g class="cls-4"><path class="cls-5" d="M207.84,91.89a89.11,89.11,0,0,1-20.13,20.27l-4.43,3c-.27.17-.52.35-.78.52-.48.33-1,.66-1.46,1l-6.93,3.74c-1,.52-2.05.95-3.05,1.36l-1.64.68-1.63.69c-1,.41-2,.84-2.95,1.19l-4.51,1.4c-.53.15-1,.31-1.54.48a22.28,22.28,0,0,1-2.8.77l-4.07.84-1.36.29c-.83.18-1.63.35-2.41.48l-3.46.38-2.23.25c-1.23.14-2.39.28-3.4.31l-4.91.08v-.84l4.9-.07c1,0,2.06-.16,3.32-.31l2.24-.25,3.43-.38c.75-.12,1.54-.29,2.35-.46l1.38-.29,4.07-.85a20.57,20.57,0,0,0,2.7-.74c.51-.17,1-.34,1.56-.49l4.49-1.4c.95-.33,1.89-.73,2.89-1.16l1.63-.68c.53-.24,1.08-.46,1.64-.69,1-.41,2-.83,3-1.33l6.91-3.73c.47-.28.93-.6,1.4-.92l.78-.52,4.43-3c14.11-10,22.64-23.6,25.65-29L216.22,76c.56-1.27,1-2.49,1.45-3.56.22-.58.43-1.12.64-1.62l1.32-3.36c.24-.74.35-1.17.35-1.18l.81.2s-.11.45-.38,1.26l-1.33,3.39c-.21.5-.41,1-.64,1.61-.42,1.08-.89,2.31-1.47,3.62l-3.35,6.51A93.79,93.79,0,0,1,207.84,91.89Z"/><path class="cls-5" d="M210.5,90.25l-2.79-1.82,1.39-2.15c.23-.38.54-.83.86-1.32a23.23,23.23,0,0,0,1.94-3.28l3-5.79c.17-.33.32-.62.42-.85l.24-.6,3.1,1.21-.26.67c-.15.33-.33.69-.55,1.11l-2.94,5.71a26.31,26.31,0,0,1-2.17,3.67c-.29.44-.57.86-.81,1.25Z"/><path class="cls-5" d="M204.38,98.33l-.44.55c-.13.14-.22.26-.32.38a10.28,10.28,0,0,1-1,1.16l-6.07,6.16L192.44,110l-2.13-2.56,4-3.32,6-6c.3-.31.54-.61.74-.86s.27-.35.38-.48l.41-.5Z"/><path class="cls-5" d="M184.26,116l-2.12,1.43c-1,.57-2,1.14-3.19,1.76l-4.56,2.45c-.63.33-1.22.57-1.77.8l-.74.31-2.4,1-1.29-3.06,2.36-1,.81-.34a15.54,15.54,0,0,0,1.49-.66l4.52-2.44c1.12-.6,2.16-1.16,3-1.64l2-1.37Z"/><path class="cls-5" d="M159.93,127.12l-2.45.76-8.62,1.82c-.73.11-1.35.18-1.92.24l-3.39.37-.37-3.31,3.41-.38c.53-.05,1.1-.11,1.69-.2l8.37-1.76,2.29-.72Z"/></g><g class="cls-4"><path class="cls-5" d="M134.15,129.57l-1.48,0a23.25,23.25,0,0,1-3.46-.12l-5.6-.45a24.21,24.21,0,0,1-3.46-.49l-3.77-.68a47,47,0,0,1-6.69-1.59l-1.72-.49a49.48,49.48,0,0,1-6.92-2.39l-2.18-.86-2.35-.92-8.12-4.19-7.85-5.1-7.29-5.86L66.75,100l-1.64-2-1.49-1.81a47.65,47.65,0,0,1-4.43-5.85c-.33-.48-.66-1-1-1.46a48.22,48.22,0,0,1-3.6-5.88L52.78,79.7a25.54,25.54,0,0,1-1.55-3.15l-2.17-5.17a25.27,25.27,0,0,1-1.18-3.24l-.44-1.42.79-.25.45,1.43A22.44,22.44,0,0,0,49.83,71L52,76.24a23.4,23.4,0,0,0,1.5,3.06l1.82,3.38a47.08,47.08,0,0,0,3.55,5.79l1,1.48a47.11,47.11,0,0,0,4.37,5.77c.5.59,1,1.2,1.5,1.81l1.61,1.94,6.44,6.36L81,111.64l7.77,5.06,8,4.14,2.32.91,2.18.86a48,48,0,0,0,6.82,2.35l1.74.5a47.33,47.33,0,0,0,6.59,1.57l3.79.68a22,22,0,0,0,3.37.47l5.62.46a23.34,23.34,0,0,0,3.36.12l1.49,0Z"/><path class="cls-5" d="M124.79,130.36l-2.55-.2-8.68-1.54c-.71-.16-1.32-.34-1.88-.5l-.79-.22-2.49-.71.91-3.2,2.46.69.84.24c.5.15,1,.3,1.6.43l8.45,1.51,2.4.19Z"/><path class="cls-5" d="M98.84,123.85l-2.39-.94c-1-.44-2.09-1-3.25-1.62l-1.92-1-1.18-.6a31.16,31.16,0,0,1-4-2.27l-2.07-1.35,1.81-2.79,2.15,1.4a28.86,28.86,0,0,0,3.61,2l1.18.61,1.94,1c1.09.57,2.13,1.11,3,1.5l2.32.91Z"/><path class="cls-5" d="M77.93,107.54l-2.09,2.6-2-1.61a29.9,29.9,0,0,1-3.33-3l-.92-.91q-.8-.8-1.56-1.53c-.94-.92-1.81-1.78-2.5-2.53l-1.68-2,2.57-2.13,1.63,2c.59.65,1.42,1.46,2.31,2.32.51.51,1,1,1.57,1.56l.92.91a29.73,29.73,0,0,0,3,2.74Z"/><path class="cls-5" d="M60.48,88.59l-2.77,1.86-1.43-2.12-.47-.7c-.33-.48-.69-1-1-1.58l-4.13-7.68-1.06-2.51,3.07-1.29,1,2.37,4,7.47c.27.45.59.91.88,1.34l.5.74Z"/></g><g class="cls-4"><path class="cls-5" d="M44.09,31.05c.06-.59.1-1.18.14-1.78.08-1.07.16-2.17.34-3.24L46,18.31c.12-.55.28-1.09.44-1.63l.25-.91,1.46-5.12C53.23-5.89,63.49-18.22,67.65-22.74l2.07-2.09H68.55l-1.5,1.51c-4.21,4.58-14.56,17-19.74,33.73l-1.46,5.14c-.08.3-.17.6-.25.89-.17.56-.33,1.12-.46,1.71l-1.4,7.73c-.18,1.12-.26,2.24-.34,3.33,0,.59-.08,1.18-.14,1.77s-.09,1.17-.14,1.75c-.1,1.05-.19,2.13-.21,3.2L43,40.65c0,.54,0,1.07,0,1.6a21.13,21.13,0,0,0,.14,2.88l.46,4.15c.06.47.11.94.16,1.4.09.83.17,1.64.3,2.44l.7,3.39c.17.77.32,1.5.46,2.19.25,1.21.48,2.36.76,3.34l1.46,4.68.79-.25L46.78,61.8c-.27-.94-.49-2-.74-3.26-.14-.7-.29-1.44-.46-2.2L44.88,53c-.12-.76-.21-1.56-.3-2.38q-.06-.69-.15-1.41L44,45a19.34,19.34,0,0,1-.13-2.78c0-.54,0-1.09,0-1.62l-.07-4.7c0-1,.11-2,.21-3.12C44,32.22,44.05,31.63,44.09,31.05Z"/><path class="cls-5" d="M47.06,57.34,43.8,58l-.69-3.33c-.12-.57-.25-1.17-.36-1.81l-1-8.71,0-2.71,3.33-.05,0,2.56L46,52.41c.09.49.21,1.06.33,1.58Z"/><path class="cls-5" d="M45.3,31.61,42,31.33l.2-2.55c0-.29,0-.55.07-.83,0-.6.09-1.24.2-1.91l.92-5.13c.23-1.28.44-2.48.65-3.46l.72-2.58,3.21.91-.7,2.46c-.17.84-.38,2-.6,3.25l-.92,5.1c-.08.54-.12,1.09-.16,1.6,0,.31,0,.61-.07.89Z"/><path class="cls-5" d="M51,6.46l-3.1-1.22L49.8.41l4-7.84a12.16,12.16,0,0,1,.8-1.3c.09-.14.17-.26.23-.37l.42-.64,2.8,1.81-.39.59-.3.46a8.81,8.81,0,0,0-.59,1l-4,7.7Z"/></g><g class="cls-4"><path class="cls-5" d="M215.6-24.83h-.52A101.26,101.26,0,0,1,230.15,1.89a104.1,104.1,0,0,1,6.67,40.5,105.21,105.21,0,0,1-3.58,23.29A102.3,102.3,0,0,1,223.61,89a95,95,0,0,1-6.14,9.59,111.69,111.69,0,0,1-9.81,11.71,101,101,0,0,1-10.33,9.24c-1.25,1-2.65,2-4,3l-1.53,1.08-1.84,1.2c-1.37.89-2.77,1.8-4.29,2.63a103.39,103.39,0,0,1-55.85,13.79A102.85,102.85,0,0,1,33.46,17c.3-1.61.73-3.23,1.15-4.8.18-.66.35-1.32.51-2s.42-1.35.61-2c.49-1.58,1-3.22,1.62-4.83A99.77,99.77,0,0,1,42.86-9.09a111.41,111.41,0,0,1,8.11-13c.67-.92,1.35-1.82,2-2.71h-.53c-.62.8-1.24,1.63-1.85,2.46A113.28,113.28,0,0,0,42.49-9.29,101.68,101.68,0,0,0,37,3.31c-.64,1.62-1.14,3.27-1.63,4.87-.19.6-.37,1.2-.61,2s-.34,1.31-.51,2c-.42,1.58-.86,3.22-1.15,4.83a103.24,103.24,0,0,0,96.73,124.7,103.86,103.86,0,0,0,56.07-13.85c1.52-.83,2.93-1.75,4.3-2.64L192,124c.51-.38,1-.74,1.54-1.1,1.37-1,2.78-2,4-3A101.26,101.26,0,0,0,208,110.58a111.51,111.51,0,0,0,9.85-11.75A97.16,97.16,0,0,0,224,89.19a102.79,102.79,0,0,0,9.66-23.4,105.43,105.43,0,0,0,3.59-23.39,104.54,104.54,0,0,0-6.69-40.66A101.42,101.42,0,0,0,215.6-24.83Z"/><path class="cls-5" d="M210.84-22.83a97,97,0,0,1,15,26.34,99.52,99.52,0,0,1,6.37,38.7,101,101,0,0,1-3.42,22.28,98.24,98.24,0,0,1-9.21,22.27,92.14,92.14,0,0,1-5.84,9.13,106.34,106.34,0,0,1-9.39,11.2,96.86,96.86,0,0,1-9.89,8.85c-1.19,1-2.47,1.88-3.82,2.83-.53.38-1.06.75-1.45,1L187.44,121c-1.35.88-2.62,1.71-4,2.47A98.91,98.91,0,0,1,130,136.65,98.27,98.27,0,0,1,38,17.92c.28-1.5.67-3,1.08-4.52.19-.68.37-1.36.5-1.89l.58-1.87c.48-1.57.94-3.06,1.53-4.59A97.53,97.53,0,0,1,46.92-7a107.51,107.51,0,0,1,7.74-12.44c1.36-1.88,2.79-3.68,4.25-5.41h-.55c-1.38,1.65-2.74,3.38-4,5.16a107.2,107.2,0,0,0-7.78,12.5A98.7,98.7,0,0,0,41.25,4.9c-.6,1.55-1.06,3-1.54,4.62-.19.62-.38,1.24-.59,1.89s-.31,1.21-.49,1.9c-.42,1.56-.81,3-1.08,4.52A98.66,98.66,0,0,0,130,137.06a99.32,99.32,0,0,0,53.64-13.26c1.42-.77,2.69-1.6,4-2.49l1.8-1.16,1.45-1c1.36-1,2.63-1.86,3.83-2.85a97.47,97.47,0,0,0,9.94-8.89,107.36,107.36,0,0,0,9.42-11.25A91.82,91.82,0,0,0,220,87a99,99,0,0,0,9.24-22.36,101.21,101.21,0,0,0,3.44-22.37,100.2,100.2,0,0,0-6.4-38.87,97.75,97.75,0,0,0-15.09-26.45c-.47-.59-.94-1.17-1.42-1.74h-.55C209.76-24.18,210.3-23.51,210.84-22.83Z"/></g><g class="cls-4"><path class="cls-5" d="M216.86.33l17.5-7.77,2.21,5.17,1.2,3.1c.17.5.35,1,.53,1.56.5,1.47,1,2.8,1.39,4.28a111.12,111.12,0,0,1,2.86,51.91,117.26,117.26,0,0,1-4,15.36l-.06.19c-1.25,3.57-2.65,7.07-4.16,10.38l-.1.2-1.52,3.15-17.24-8.34,1.47-3c1.24-2.72,2.39-5.6,3.43-8.57a98.46,98.46,0,0,0,3.34-12.74,95,95,0,0,0,1.49-15.07,92.78,92.78,0,0,0-3.86-27.95c-.37-1.27-.74-2.34-1.1-3.38l-.05-.15c-.18-.52-.36-1-.53-1.54l-1.47-3.75-1.33-3m-.55-.21,1.5,3.37,1.46,3.73c.17.49.34,1,.52,1.53.37,1.06.76,2.19,1.15,3.51a92.39,92.39,0,0,1,3.84,27.82,94.1,94.1,0,0,1-1.48,15A99.74,99.74,0,0,1,220,67.77c-1,2.94-2.18,5.81-3.42,8.53l-1.65,3.42,18,8.7,1.71-3.53.1-.2c1.51-3.33,2.91-6.83,4.17-10.42l.07-.2a118.63,118.63,0,0,0,4-15.42,111.4,111.4,0,0,0-2.87-52.1c-.45-1.54-.94-3-1.4-4.3-.18-.54-.36-1-.52-1.55L237-2.43,234.58-8,216.31.12Z"/><path class="cls-5" d="M102.94,124.18l1.11.41.12,0c.39.15.88.33,1.47.5l.26.08a88.58,88.58,0,0,0,9,2.41A91.74,91.74,0,0,0,143,129.2a93.16,93.16,0,0,0,27.33-7.09l.26-.11c1.73-.77,3.22-1.44,4.37-2.06l.25-.12c1.16-.58,2.46-1.24,3.31-1.75l2.63-1.51,10.76,15.86c-.24.16-.6.39-1.09.67l-2.53,1.45c-1.39.83-3,1.65-4.41,2.36-1.74.92-3.57,1.73-5.5,2.6l-.26.11A111.36,111.36,0,0,1,145,148.25a110.54,110.54,0,0,1-34.1-1.9,103.63,103.63,0,0,1-10.73-2.87c-1.07-.32-2-.63-2.75-.93l-1-.37,6.55-18m-.25-.53-6.83,18.78,1.4.51c.72.27,1.65.61,2.77.94a107.34,107.34,0,0,0,10.76,2.88,110.87,110.87,0,0,0,34.24,1.9A111.94,111.94,0,0,0,178.31,140l.25-.11c1.95-.87,3.79-1.69,5.54-2.62,1.49-.74,3.05-1.54,4.42-2.36l2.53-1.45c1-.57,1.46-.91,1.46-.91L181.29,116l-.27.17-2.69,1.53c-.85.52-2.14,1.17-3.28,1.74l-.26.13c-1.14.62-2.63,1.28-4.35,2.05l-.26.11a92.57,92.57,0,0,1-27.2,7,90.82,90.82,0,0,1-28-1.57,83.82,83.82,0,0,1-9-2.4l-.27-.08c-.64-.19-1.16-.38-1.57-.53l-1.5-.55Z"/><path class="cls-5" d="M26.74,12.69l18.4,5.4-.58,2.85c-.23,1-.46,2.5-.64,3.69l0,.28c-.23,1.29-.4,2.92-.59,4.82l0,.27a91.64,91.64,0,0,0,12,54.34,90.57,90.57,0,0,0,5.13,7.86l.17.23c.35.52.68.94.95,1.27l.07.09.7.89-15,11.87-.67-.85c-.51-.64-1.1-1.39-1.76-2.35A105.72,105.72,0,0,1,38.69,94,110.73,110.73,0,0,1,24.2,28l0-.26c.22-2.12.42-4.12.76-6.07.24-1.62.52-3.34.87-4.92l.56-2.73c.14-.62.25-1.08.32-1.37m-.28-.51s-.18.57-.45,1.79l-.56,2.74c-.35,1.56-.62,3.29-.87,4.93-.34,1.95-.54,4-.76,6.09l0,.27A111,111,0,0,0,38.33,94.19a105.9,105.9,0,0,0,6.13,9.41c.67,1,1.28,1.75,1.76,2.36l.93,1.18L62.84,94.75l-1-1.22c-.27-.34-.62-.78-1-1.33L60.71,92a88.32,88.32,0,0,1-5.11-7.83A91.14,91.14,0,0,1,45.41,58,92.63,92.63,0,0,1,43.67,30l0-.26c.19-1.89.36-3.52.59-4.8l0-.28c.18-1.19.41-2.68.63-3.67l.6-2.91c0-.21.08-.33.08-.32h0L26.46,12.18Z"/></g><g class="cls-4"><path class="cls-5" d="M248.71,2.4a136.1,136.1,0,0,0-6.24-15.87c-1.92-3.93-4-7.74-6.26-11.36h-1.47a129.8,129.8,0,0,1,6.6,11.9,131.45,131.45,0,0,1,6.17,15.7,131.91,131.91,0,0,1,4,17A132.14,132.14,0,0,1,253,37.08a131.49,131.49,0,0,1-1,16.83,120.32,120.32,0,0,1-7.56,28.87,115.52,115.52,0,0,1-9.64,18.84c-.85,1.46-1.69,2.66-2.37,3.62-.35.5-.65.93-.9,1.31l-1.19,1.74,1,.71,1.2-1.76c.25-.38.55-.8.88-1.28.69-1,1.55-2.2,2.42-3.69a115.74,115.74,0,0,0,9.72-19,121.25,121.25,0,0,0,7.65-29.18,134.31,134.31,0,0,0,1-17,134.74,134.74,0,0,0-1.5-17.53A134.28,134.28,0,0,0,248.71,2.4Z"/><path class="cls-5" d="M256.17,3.75l-.61-2.12A130.83,130.83,0,0,0,248-17.67c-1.15-2.37-2.44-4.79-3.8-7.16h-8.73a112.14,112.14,0,0,1,5.8,10.46,122.88,122.88,0,0,1,7.15,18.1l.6,2.09c.47,1.65.87,3.06,1.1,4.17l.58,2.46,7.29-1.72-.55-2.35C257.13,7.1,256.69,5.55,256.17,3.75Z"/><path class="cls-5" d="M252,85.62l1-2.57c.14-.4.31-.85.49-1.34.52-1.38,1.15-3.1,1.71-5a118.71,118.71,0,0,0,3.66-14.51V26.41l-5.85.5.22,2.63c.12,1,.18,2.48.24,4.19l.08,2.09a123.76,123.76,0,0,1-1.16,19.54A112.64,112.64,0,0,1,248,74.48c-.51,1.78-1.09,3.36-1.57,4.62-.19.54-.38,1-.51,1.42l-.83,2.2Z"/></g><g class="cls-4"><path class="cls-5" d="M231.36,109l-1.28,1.68c-.29.36-.6.78-1,1.24-.72,1-1.62,2.16-2.78,3.47a115.38,115.38,0,0,1-15,15.14A121.41,121.41,0,0,1,186,146.89a134.22,134.22,0,0,1-15.86,6.24,135.12,135.12,0,0,1-17.13,4,134.88,134.88,0,0,1-17.53,1.49,134.4,134.4,0,0,1-17-1A121.84,121.84,0,0,1,89.26,150a116.81,116.81,0,0,1-19-9.73c-1.48-.86-2.7-1.72-3.69-2.42-.48-.33-.9-.63-1.28-.87l-1.75-1.21.71-1L66,136c.37.24.81.55,1.3.89,1,.68,2.17,1.52,3.63,2.38a114.83,114.83,0,0,0,18.84,9.63,120.24,120.24,0,0,0,28.86,7.57,133.42,133.42,0,0,0,16.84,1,132,132,0,0,0,17.35-1.48,133.57,133.57,0,0,0,17-4,134.23,134.23,0,0,0,15.7-6.17,120.44,120.44,0,0,0,25.07-16.17,114.6,114.6,0,0,0,14.89-15c1.14-1.28,2-2.46,2.72-3.4.37-.49.69-.91,1-1.27l1.27-1.67Z"/><path class="cls-5" d="M215.56,135.87l-2.1,1.7-1.16.91c-1.15.92-2.59,2.06-4.35,3.26a119.71,119.71,0,0,1-17.76,10.63,130.12,130.12,0,0,1-19.3,7.61l-2.13.61c-1.79.52-3.34,1-4.63,1.23l-2.35.55-1.71-7.3,2.46-.57c1.1-.23,2.52-.64,4.16-1.11l2.1-.6a124.16,124.16,0,0,0,18.1-7.14,112.93,112.93,0,0,0,16.73-10c1.64-1.12,2.95-2.16,4-3l1.23-1,1.78-1.44Z"/><path class="cls-5" d="M146.25,164.85l-2.51.21c-1.21.15-2.82.2-4.68.27l-2.13.08a131.28,131.28,0,0,1-20.82-1.22,121.12,121.12,0,0,1-20.29-4.62c-1.92-.55-3.64-1.19-5-1.7l-1.33-.49-2.59-1,2.93-6.89,2.18.82,1.42.52c1.27.47,2.84,1,4.62,1.57a114.59,114.59,0,0,0,19.12,4.36,124.76,124.76,0,0,0,19.54,1.15l2.1-.08c1.7-.06,3.18-.11,4.19-.23l2.62-.23Z"/></g><g class="cls-4"><path class="cls-5" d="M61.32,132.55c-1-.71-2.12-1.59-3.41-2.73a114.57,114.57,0,0,1-15-14.89A120.33,120.33,0,0,1,26.75,89.87a132.11,132.11,0,0,1-6.17-15.7,134,134,0,0,1-4-17A134,134,0,0,1,15.1,39.86a133.33,133.33,0,0,1,1-16.83A120.32,120.32,0,0,1,23.64-5.84a115.52,115.52,0,0,1,9.64-18.84l.09-.15H31.89a117.78,117.78,0,0,0-9.4,18.51,121.8,121.8,0,0,0-7.65,29.19,136.09,136.09,0,0,0-1,17,134.89,134.89,0,0,0,1.5,17.53,134.32,134.32,0,0,0,4,17.13A134.11,134.11,0,0,0,25.62,90.4,121.41,121.41,0,0,0,42,115.74a117.64,117.64,0,0,0,15.14,15c1.31,1.15,2.51,2.05,3.47,2.77l1.25.95,1.67,1.28.76-1-1.66-1.27C62.23,133.23,61.8,132.91,61.32,132.55Z"/><path class="cls-5" d="M42.3,115.06,36.66,120,35,117.88c-.29-.38-.59-.75-.91-1.16-.92-1.15-2.07-2.59-3.26-4.35A119.75,119.75,0,0,1,20.14,94.61a130.83,130.83,0,0,1-7.61-19.3l-.61-2.13c-.51-1.79-1-3.34-1.22-4.63l-.55-2.35,7.29-1.71L18,67c.23,1.11.63,2.52,1.11,4.16l.59,2.1a125.23,125.23,0,0,0,7.15,18.1A112.93,112.93,0,0,0,36.9,108c1.11,1.64,2.16,3,3,4,.36.44.68.85,1,1.23Z"/><path class="cls-5" d="M15.14,50l-7.47.65-.22-2.51c-.14-1.2-.2-2.81-.27-4.68L7.1,41.35A132.63,132.63,0,0,1,8.33,20.54,119.7,119.7,0,0,1,13,.25c.55-1.92,1.19-3.64,1.7-5,.18-.48.35-.93.49-1.33l1-2.59L23-5.76l-.83,2.17c-.13.4-.32.89-.51,1.43C21.2-.9,20.62.68,20.11,2.46a113.38,113.38,0,0,0-4.36,19.12,123.7,123.7,0,0,0-1.16,19.53l.08,2.1c.06,1.71.12,3.18.24,4.19Z"/></g><g class="cls-4"><path class="cls-5" d="M248,9.32l-1.45-5.19c-.33-1.1-.72-2.25-1.12-3.44-.22-.63-.44-1.27-.68-2-.47-1.3-1-2.64-1.54-4l-.78-2c-1.11-2.53-2.05-4.57-3-6.42l-5.32,2.61c.87,1.77,1.78,3.74,2.8,6.07l.75,1.9c.52,1.3,1,2.58,1.44,3.75.23.68.45,1.34.68,2,.38,1.11.74,2.18,1,3.17l1.23,4.32.86,3.63c.41,1.65.59,2.68.62,2.87l1.19,1.91,1.74-2.4,2.92-.51c-.06-.31-.27-1.48-.71-3.26Z"/></g><g class="cls-4"><path class="cls-5" d="M38.27,106.74a117.64,117.64,0,0,0,12.27,14.53l4.21-4.18a111.37,111.37,0,0,1-11.65-13.8Z"/><path class="cls-5" d="M17.5,54.12a117.61,117.61,0,0,0,8.38,30.51l5.46-2.32a111.75,111.75,0,0,1-8-29Z"/><path class="cls-5" d="M25.68,11.46,19.92,10c-.5,2-1,4.11-1.35,6.2l5.82,1.11C24.77,15.36,25.2,13.38,25.68,11.46Z"/><path class="cls-5" d="M60,129.78c1.63,1.32,3.33,2.62,5,3.86l3.49-4.79c-1.62-1.18-3.23-2.42-4.78-3.68Z"/><path class="cls-5" d="M244.32,56.07a106.43,106.43,0,0,1-2.23,10.67l5.75,1.47A111.53,111.53,0,0,0,250.18,57c.39-2.48.71-5,.94-7.47l-5.9-.55C245,51.29,244.7,53.68,244.32,56.07Z"/><path class="cls-5" d="M251.48,32.32c0-1.31-.12-2-.12-2l-5.89.68c0,.07.06.57.08,1.47,0,.41,0,.89,0,1.43,0,.83.08,1.84.11,3l5.92-.12c0-1.22-.07-2.27-.1-3.15C251.51,33.15,251.49,32.7,251.48,32.32Z"/><path class="cls-5" d="M227.66,99.36a116.25,116.25,0,0,1-11.28,14.52l4.38,4a123.17,123.17,0,0,0,8.67-10.65c1.09-1.5,2.16-3.06,3.2-4.64A123.3,123.3,0,0,0,238.8,91.9l-5.28-2.71C231.72,92.7,229.75,96.13,227.66,99.36Z"/><path class="cls-5" d="M156.44,147.87c-.73.15-1.46.29-2.2.42l1,5.84c.78-.14,1.55-.29,2.32-.45a114.46,114.46,0,0,0,16.06-4.5l-2-5.57A109.77,109.77,0,0,1,156.44,147.87Z"/><path class="cls-5" d="M98.85,150.7A117.71,117.71,0,0,0,130,156l.19-5.92a112.11,112.11,0,0,1-29.61-5Z"/><path class="cls-5" d="M182.78,138.94l2.58,5.34c1.89-.91,3.79-1.89,5.64-2.92l-2.87-5.19C186.38,137.14,184.58,138.08,182.78,138.94Z"/></g><g class="cls-4"><path class="cls-5" d="M227.74,56.65a1.46,1.46,0,0,1-1.2-1.73h0a1.47,1.47,0,0,1,1.73-1.2h0a1.47,1.47,0,0,1,1.21,1.73h0a1.57,1.57,0,0,1-.25.63h0A1.47,1.47,0,0,1,227.74,56.65Zm.77-4.22a1.52,1.52,0,0,1-1.22-1.75h0A1.5,1.5,0,0,1,229,49.46h0a1.51,1.51,0,0,1,1.21,1.75h0a1.45,1.45,0,0,1-.26.61h0A1.55,1.55,0,0,1,228.51,52.43Zm.93-8.6A1.52,1.52,0,0,1,228,42.27h0a1.54,1.54,0,0,1,1.57-1.44h0A1.55,1.55,0,0,1,231,42.4h0a1.57,1.57,0,0,1-.28.81h0A1.52,1.52,0,0,1,229.44,43.83Zm0-10.06a1.49,1.49,0,0,1-1.6-1.39h0a1.47,1.47,0,0,1,1.38-1.61h0a1.5,1.5,0,0,1,1.6,1.39h0a1.38,1.38,0,0,1-.27,1h0A1.53,1.53,0,0,1,229.44,33.77Zm-.33-4.31a1.49,1.49,0,0,1-1.67-1.32h0a1.51,1.51,0,0,1,1.33-1.66h0a1.49,1.49,0,0,1,1.65,1.32h0a1.52,1.52,0,0,1-.27,1.06h0A1.48,1.48,0,0,1,229.11,29.46Zm-1.22-8.54a1.51,1.51,0,0,1-1.78-1.18h0A1.47,1.47,0,0,1,227.28,18h0a1.5,1.5,0,0,1,1.78,1.15h0a1.59,1.59,0,0,1-.27,1.2h0A1.53,1.53,0,0,1,227.89,20.92Zm-2.38-9.79a1.49,1.49,0,0,1-1.88-1h0a1.48,1.48,0,0,1,1-1.88h0a1.46,1.46,0,0,1,1.88,1h0a1.48,1.48,0,0,1-.21,1.33h0A1.49,1.49,0,0,1,225.51,11.13ZM224.17,7a1.5,1.5,0,0,1-1.91-.89h0a1.5,1.5,0,0,1,.87-1.93h0a1.5,1.5,0,0,1,1.94.89h0a1.49,1.49,0,0,1-.2,1.39h0A1.51,1.51,0,0,1,224.17,7ZM221-1a1.51,1.51,0,0,1-2-.72h0a1.5,1.5,0,0,1,.72-2h0a1.51,1.51,0,0,1,2,.72h0a1.5,1.5,0,0,1-.15,1.51h0A1.43,1.43,0,0,1,221-1Zm-4.53-9a1.51,1.51,0,0,1-2.09-.44h0a1.5,1.5,0,0,1,.44-2.08h0a1.52,1.52,0,0,1,2.09.44h0a1.54,1.54,0,0,1-.06,1.71h0A1.49,1.49,0,0,1,216.45-10Zm-2.37-3.62A1.47,1.47,0,0,1,212-14h0a1.47,1.47,0,0,1,.41-2.07h0a1.48,1.48,0,0,1,2.08.41h0a1.5,1.5,0,0,1,0,1.73h0A1.4,1.4,0,0,1,214.08-13.61Zm-5-7a1.51,1.51,0,0,1-2.12-.2h0a1.51,1.51,0,0,1,.21-2.12h0a1.48,1.48,0,0,1,2.1.19h0a1.49,1.49,0,0,1,.07,1.85h0A1.37,1.37,0,0,1,209.07-20.61Z"/></g><g class="cls-4"><path class="cls-5" d="M218.63,82.63a1.5,1.5,0,0,1-.66-2h0a1.5,1.5,0,0,1,2-.66h0a1.49,1.49,0,0,1,.65,2h0a.82.82,0,0,1-.12.2h0A1.49,1.49,0,0,1,218.63,82.63Zm2.05-3.81a1.49,1.49,0,0,1-.81-1.94l0,0a1.48,1.48,0,0,1,1.94-.81h0a1.53,1.53,0,0,1,.82,2h0a2.14,2.14,0,0,1-.17.3h0A1.47,1.47,0,0,1,220.68,78.82Z"/><path class="cls-5" d="M210.36,98.18a1.51,1.51,0,0,1-2.12.22h0a1.5,1.5,0,0,1-.23-2.1h0a1.51,1.51,0,0,1,2.11-.24h0a1.52,1.52,0,0,1,.29,2.06h0Zm3-6.7a1.51,1.51,0,0,1-.44-2.09h0A1.5,1.5,0,0,1,215,89h0a1.49,1.49,0,0,1,.44,2.07h0l-.05.07h0A1.51,1.51,0,0,1,213.36,91.48Zm-5.72,10.06a1.49,1.49,0,0,1-2.1.23h0a1.49,1.49,0,0,1-.23-2.1h0a1.5,1.5,0,0,1,2.11-.25h0a1.51,1.51,0,0,1,.27,2h0Zm-7.1,7.42a1.5,1.5,0,0,1-2.13-.09h0a1.48,1.48,0,0,1,.07-2.11h0a1.51,1.51,0,0,1,2.11.07h0a1.51,1.51,0,0,1,.13,1.92h0C200.67,108.81,200.59,108.89,200.54,109Zm-6.63,5.72a1.51,1.51,0,0,1-2.11-.23h0a1.53,1.53,0,0,1,.24-2.12h0a1.49,1.49,0,0,1,2.11.25h0a1.52,1.52,0,0,1,0,1.81h0A1.33,1.33,0,0,1,193.91,114.68Zm-3.5,2.66a1.52,1.52,0,0,1-2.1-.34h0a1.52,1.52,0,0,1,.35-2.1h0a1.5,1.5,0,0,1,2.11.33h0a1.52,1.52,0,0,1,0,1.77h0A1.24,1.24,0,0,1,190.41,117.34Zm-8.58,5.53a1.49,1.49,0,0,1-2.05-.55h0a1.49,1.49,0,0,1,.55-2h0a1.51,1.51,0,0,1,2,.55h0a1.52,1.52,0,0,1-.08,1.63h0A1.56,1.56,0,0,1,181.83,122.87Zm-7.84,4a1.52,1.52,0,0,1-2-.76h0a1.49,1.49,0,0,1,.75-2h0a1.5,1.5,0,0,1,2,.76h0a1.48,1.48,0,0,1-.16,1.48h0A1.63,1.63,0,0,1,174,126.85Zm-4.06,1.68a1.5,1.5,0,0,1-1.94-.86h0a1.5,1.5,0,0,1,.86-1.94h0a1.48,1.48,0,0,1,1.93.86h0a1.49,1.49,0,0,1-.16,1.42h0A1.55,1.55,0,0,1,169.93,128.53Zm-9.69,3.21a1.49,1.49,0,0,1-1.85-1.05h0a1.48,1.48,0,0,1,1.05-1.85h0a1.53,1.53,0,0,1,1.85,1h0a1.56,1.56,0,0,1-.25,1.28h0A1.56,1.56,0,0,1,160.24,131.74Zm-8.52,2a1.48,1.48,0,0,1-1.76-1.17h0a1.51,1.51,0,0,1,1.16-1.78h0a1.52,1.52,0,0,1,1.79,1.17h0a1.61,1.61,0,0,1-.26,1.19h0A1.53,1.53,0,0,1,151.72,133.72Zm-4.39.73a1.5,1.5,0,0,1-1.65-1.33h0a1.52,1.52,0,0,1,1.34-1.66h0a1.49,1.49,0,0,1,1.65,1.32h0a1.58,1.58,0,0,1-.29,1.05h0A1.49,1.49,0,0,1,147.33,134.45Z"/></g><g class="cls-4"><path class="cls-5" d="M123,134.54a1.5,1.5,0,0,1-.34-2.09h0a1.5,1.5,0,0,1,2.1-.34h0a1.49,1.49,0,0,1,.33,2.1h0A1.49,1.49,0,0,1,123,134.54Zm-3.65-.29a1.5,1.5,0,0,1-1.22-1.75h0a1.51,1.51,0,0,1,1.73-1.23h0a1.52,1.52,0,0,1,1.23,1.73h0a1.89,1.89,0,0,1-.26.65h0A1.56,1.56,0,0,1,119.38,134.25Z"/><path class="cls-5" d="M109.16,132.09h0a1.49,1.49,0,0,1-1-1.85h0a1.49,1.49,0,0,1,1.85-1h0a1.48,1.48,0,0,1,1,1.85h0a1.46,1.46,0,0,1-.23.49h0A1.48,1.48,0,0,1,109.16,132.09Zm-8.37-2.61a1.52,1.52,0,0,1-.85-2h0a1.49,1.49,0,0,1,1.94-.84h0a1.52,1.52,0,0,1,.85,2h0a1.57,1.57,0,0,1-.19.33h0A1.48,1.48,0,0,1,100.79,129.48Zm-4-1.6a1.46,1.46,0,0,1-.85-1.93h0a1.48,1.48,0,0,1,1.94-.87h0a1.52,1.52,0,0,1,.85,2h0a1.57,1.57,0,0,1-.19.33h0A1.46,1.46,0,0,1,96.78,127.88Zm-9.25-4.46a1.51,1.51,0,0,1-.58-2h0a1.5,1.5,0,0,1,2-.59h0a1.53,1.53,0,0,1,.62,2h0c0,.06-.07.13-.1.16h0A1.52,1.52,0,0,1,87.53,123.42ZM80,118.9a1.51,1.51,0,0,1-.42-2.08h0a1.51,1.51,0,0,1,2.08-.42h0a1.52,1.52,0,0,1,.43,2.08h0l0,0h0A1.51,1.51,0,0,1,80,118.9Zm-3.59-2.5a1.5,1.5,0,0,1-.34-2.09h0a1.51,1.51,0,0,1,2.1-.34h0a1.51,1.51,0,0,1,.32,2.11h0A1.48,1.48,0,0,1,76.45,116.4Zm0,0h0Zm-5.79-6.57a1.52,1.52,0,0,1-2.12.08h0a1.5,1.5,0,0,1-.08-2.12h0a1.49,1.49,0,0,1,2.12-.08h0a1.49,1.49,0,0,1,.21,2h0A1.66,1.66,0,0,1,70.64,109.82Zm-6.15-6.06a1.52,1.52,0,0,1-2.13-.1h0a1.52,1.52,0,0,1,.14-2.13h0a1.48,1.48,0,0,1,2.1.12h0a1.49,1.49,0,0,1,.11,1.88h0Zm-2.87-3.22a1.52,1.52,0,0,1-2.12-.21h0a1.49,1.49,0,0,1,.23-2.11h0a1.49,1.49,0,0,1,2.1.2h0a1.49,1.49,0,0,1,.05,1.83h0A1,1,0,0,1,61.62,100.54Zm-6.15-8a1.48,1.48,0,0,1-2.07-.41h0a1.47,1.47,0,0,1,.41-2.08h0a1.47,1.47,0,0,1,2.08.41h0a1.54,1.54,0,0,1,0,1.73h0A1.65,1.65,0,0,1,55.47,92.56Zm-4.56-7.33a1.47,1.47,0,0,1-2-.6h0a1.44,1.44,0,0,1,.6-2h0a1.48,1.48,0,0,1,2,.58h0a1.53,1.53,0,0,1-.12,1.61h0A1.5,1.5,0,0,1,50.91,85.23Zm-2-3.78a1.49,1.49,0,0,1-2-.63h0a1.5,1.5,0,0,1,.61-2h0a1.5,1.5,0,0,1,2,.63h0a1.52,1.52,0,0,1-.11,1.6h0A1.82,1.82,0,0,1,48.87,81.45Z"/></g><g class="cls-4"><path class="cls-5" d="M41,59.55a1.5,1.5,0,0,1-1.77-1.15h0v0h0a1.47,1.47,0,0,1,1.16-1.78h0a1.5,1.5,0,0,1,1.77,1.16h0A1.52,1.52,0,0,1,41.94,59h0A1.57,1.57,0,0,1,41,59.55Zm-.87-4.24a1.52,1.52,0,0,1-1.79-1.16h0a1.49,1.49,0,0,1,1.17-1.77h0a1.51,1.51,0,0,1,1.78,1.16h0a1.52,1.52,0,0,1-.27,1.19h0A1.44,1.44,0,0,1,40.16,55.31Z"/><path class="cls-5" d="M40.56,19.23a1.47,1.47,0,0,0-1.74,1.19A1.5,1.5,0,0,0,40,22.18a1.53,1.53,0,0,0,1.48-.6,1.44,1.44,0,0,0,.26-.62A1.48,1.48,0,0,0,40.56,19.23Z"/><path class="cls-5" d="M39.11,29.2a1.46,1.46,0,0,0-1.61,1.36,1.48,1.48,0,0,0,1.36,1.61,1.5,1.5,0,0,0,1.34-.62,1.42,1.42,0,0,0,.28-.74A1.47,1.47,0,0,0,39.11,29.2Z"/><path class="cls-5" d="M38.56,36.48a1.5,1.5,0,0,0,1.31-.62,1.64,1.64,0,0,0,.29-.79,1.51,1.51,0,1,0-1.6,1.41Z"/><path class="cls-5" d="M42.62,10.85a1.48,1.48,0,0,0-1.85,1,1.51,1.51,0,0,0,2.67,1.29,1.71,1.71,0,0,0,.23-.49A1.49,1.49,0,0,0,42.62,10.85Z"/><path class="cls-5" d="M38.72,42.13a1.49,1.49,0,0,0-1.48,1.51,1.5,1.5,0,0,0,2.72.85,1.45,1.45,0,0,0,.28-.89A1.46,1.46,0,0,0,38.72,42.13Z"/><path class="cls-5" d="M44,6.74A1.5,1.5,0,0,0,43,9.59,1.52,1.52,0,0,0,44.69,9a1.39,1.39,0,0,0,.21-.4A1.49,1.49,0,0,0,44,6.74Z"/><path class="cls-5" d="M47.86-2.54a1.47,1.47,0,0,0-2,.72,1.47,1.47,0,0,0,.72,2,1.49,1.49,0,0,0,1.85-.49,1.81,1.81,0,0,0,.16-.25A1.49,1.49,0,0,0,47.86-2.54Z"/></g><g class="cls-4"><path class="cls-5" d="M254.09,5a1.18,1.18,0,1,0,.64,2.27,1.12,1.12,0,0,0,.64-.44A1.18,1.18,0,0,0,254.09,5Z"/><path class="cls-5" d="M253.8,4a1.21,1.21,0,0,0,.63-.44,1.19,1.19,0,0,0,.19-1A1.19,1.19,0,1,0,253.8,4Z"/></g><g class="cls-4"><path class="cls-5" d="M258.81,29.45a1.12,1.12,0,0,0-.49-.07,1.18,1.18,0,0,0,.19,2.36,1.32,1.32,0,0,0,.3-.07Z"/><path class="cls-5" d="M258.23,28.35a1.14,1.14,0,0,0,.58-.22V26.21A1.13,1.13,0,0,0,258,26a1.18,1.18,0,0,0,.19,2.36Z"/><path class="cls-5" d="M255.84,65a1.18,1.18,0,0,0,1.2-.45,1.51,1.51,0,0,0,.2-.45,1.21,1.21,0,0,0-.92-1.41,1.19,1.19,0,0,0-1.4.92A1.16,1.16,0,0,0,255.84,65Z"/><path class="cls-5" d="M257.1,58.31a1.17,1.17,0,0,0,1.13-.48,1.29,1.29,0,0,0,.23-.52v0a1.19,1.19,0,0,0-2.34-.38h0A1.21,1.21,0,0,0,257.1,58.31Z"/><path class="cls-5" d="M255.07,68.29a1.13,1.13,0,0,0,1.23-.45,1.42,1.42,0,0,0,.2-.41,1.19,1.19,0,1,0-1.43.86Z"/><path class="cls-5" d="M258.37,47.05a1.07,1.07,0,0,0,.44-.07V44.75a.94.94,0,0,0-.29-.06,1.18,1.18,0,0,0-.15,2.36Z"/><path class="cls-5" d="M258.65,40.25l.16,0V37.92l-.14,0a1.18,1.18,0,1,0,0,2.35Z"/><path class="cls-5" d="M258.12,50.44a1.16,1.16,0,0,0,.69-.16v-2a1.29,1.29,0,0,0-.49-.16,1.19,1.19,0,0,0-1.27,1.07A1.17,1.17,0,0,0,258.12,50.44Z"/><path class="cls-5" d="M243.08,98.8a1.16,1.16,0,0,0,1.52-.34l.08-.12h0a1.17,1.17,0,1,0-2-1.14A1.16,1.16,0,0,0,243.08,98.8Z"/><path class="cls-5" d="M246.22,92.77a1.16,1.16,0,0,0,1.46-.38l.12-.18a1.19,1.19,0,0,0-2.15-1A1.21,1.21,0,0,0,246.22,92.77Z"/><path class="cls-5" d="M241.42,101.78a1.2,1.2,0,0,0,1.55-.34s0-.08.06-.1a1.16,1.16,0,0,0-.44-1.61,1.18,1.18,0,1,0-1.17,2Z"/><path class="cls-5" d="M252.93,75.93a1.16,1.16,0,0,0,1.3-.43,1.27,1.27,0,0,0,.17-.35,1.18,1.18,0,0,0-.78-1.48,1.21,1.21,0,0,0-1.49.8A1.17,1.17,0,0,0,252.93,75.93Z"/><path class="cls-5" d="M250.7,82.36a1.16,1.16,0,0,0,1.36-.41,1,1,0,0,0,.15-.29,1.18,1.18,0,1,0-1.51.7Z"/><path class="cls-5" d="M249.45,85.53a1.2,1.2,0,0,0,1.4-.41,1.23,1.23,0,0,0,.14-.25,1.21,1.21,0,0,0-.66-1.55,1.19,1.19,0,0,0-1.54.68A1.17,1.17,0,0,0,249.45,85.53Z"/></g><g class="cls-4"><path class="cls-5" d="M230.69,119h0a1.17,1.17,0,0,1-1.66.13h0a1.19,1.19,0,0,1-.15-1.67h0a1.19,1.19,0,0,1,1.67-.12h0a1.18,1.18,0,0,1,.19,1.59h0Zm-2.2,2.61a1.19,1.19,0,0,1-1.67.12h0a1.18,1.18,0,0,1-.14-1.66h0a1.2,1.2,0,0,1,1.67-.15h0a1.21,1.21,0,0,1,.2,1.6h0Z"/><path class="cls-5" d="M222.56,127.87a1.19,1.19,0,0,1-1.67,0h0a1.2,1.2,0,0,1,0-1.69h0a1.2,1.2,0,0,1,1.68,0h0a1.17,1.17,0,0,1,.09,1.51h0A.61.61,0,0,1,222.56,127.87Zm-5,4.7a1.15,1.15,0,0,1-1.66-.12h0a1.17,1.17,0,0,1,.12-1.66h0a1.18,1.18,0,0,1,1.67.1h0a1.19,1.19,0,0,1,.06,1.48h0A.71.71,0,0,1,217.55,132.57ZM215,134.79a1.17,1.17,0,0,1-1.67-.12h0a1.16,1.16,0,0,1,.12-1.66h0a1.17,1.17,0,0,1,1.66.12h0a1.19,1.19,0,0,1,.07,1.47h0A1.66,1.66,0,0,1,215,134.79Zm-6.3,5a1.18,1.18,0,0,1-1.65-.25h0a1.17,1.17,0,0,1,.25-1.65h0a1.18,1.18,0,0,1,1.65.25h0a1.22,1.22,0,0,1,0,1.4h0A1,1,0,0,1,208.7,139.77Zm-5.63,3.92a1.18,1.18,0,0,1-1.65-.33h0a1.18,1.18,0,0,1,.35-1.64h0a1.18,1.18,0,0,1,1.63.34h0a1.19,1.19,0,0,1,0,1.34h0A1,1,0,0,1,203.07,143.69Zm-2.9,1.85h0a1.19,1.19,0,0,1-1.63-.38h0a1.19,1.19,0,0,1,.39-1.63h0a1.18,1.18,0,0,1,1.62.38h0a1.18,1.18,0,0,1-.05,1.32h0A1,1,0,0,1,200.17,145.54Zm-7,4v0h0a1.16,1.16,0,0,1-1.59-.47h0a1.19,1.19,0,0,1,.48-1.61h0a1.21,1.21,0,0,1,1.61.49h0a1.19,1.19,0,0,1-.09,1.25h0A1.22,1.22,0,0,1,193.21,149.53Zm-6.14,3.05h0a1.19,1.19,0,0,1-1.57-.58h0a1.2,1.2,0,0,1,.58-1.58h0a1.19,1.19,0,0,1,1.57.59h0a1.2,1.2,0,0,1-.12,1.19h0A1.22,1.22,0,0,1,187.07,152.58ZM183.93,154a1.18,1.18,0,0,1-1.55-.63h0a1.17,1.17,0,0,1,.61-1.55h0a1.17,1.17,0,0,1,1.56.63h0a1.16,1.16,0,0,1-.13,1.15h0A1.29,1.29,0,0,1,183.93,154Zm-7.44,2.94h0a1.19,1.19,0,0,1-1.51-.73h0a1.17,1.17,0,0,1,.7-1.51h0a1.18,1.18,0,0,1,1.52.71h0a1.19,1.19,0,0,1-.16,1.1h0A1.29,1.29,0,0,1,176.49,156.91ZM169.94,159a1.18,1.18,0,0,1-1.46-.81h0a1.2,1.2,0,0,1,.82-1.47h0a1.2,1.2,0,0,1,1.46.82h0a1.19,1.19,0,0,1-.18,1h0A1.16,1.16,0,0,1,169.94,159Zm-3.27.94h0a1.18,1.18,0,0,1-1.45-.83h0a1.17,1.17,0,0,1,.8-1.45h0a1.2,1.2,0,0,1,1.47.82h0a1.19,1.19,0,0,1-.19,1h0A1.16,1.16,0,0,1,166.67,160Z"/></g><g class="cls-4"><path class="cls-5" d="M145.45,163.74a1.18,1.18,0,0,1-1.27-1.08h0a1.16,1.16,0,0,1,1.07-1.28h0a1.17,1.17,0,0,1,1.27,1.08h0a1.1,1.1,0,0,1-.22.79h0A1.19,1.19,0,0,1,145.45,163.74Zm-3.39.28a1.18,1.18,0,0,1-1.28-1.07h0a1.18,1.18,0,0,1,1.08-1.29h0a1.16,1.16,0,0,1,1.28,1.07h0a1.1,1.1,0,0,1-.22.79h0A1.19,1.19,0,0,1,142.06,164Z"/><path class="cls-5" d="M133.43,164.27h0a1.19,1.19,0,0,1-1.17-1.2h0a1.18,1.18,0,0,1,1.2-1.17h0a1.17,1.17,0,0,1,1.16,1.2h0a1.11,1.11,0,0,1-.22.68h0A1.27,1.27,0,0,1,133.43,164.27Zm-6.86-.22a1.19,1.19,0,0,1-1.11-1.26h0a1.19,1.19,0,0,1,1.26-1.1h0a1.18,1.18,0,0,1,1.11,1.25h0a1.29,1.29,0,0,1-.23.62h0A1.23,1.23,0,0,1,126.57,164.05Zm-3.42-.22a1.2,1.2,0,0,1-1.08-1.29h0a1.17,1.17,0,0,1,1.29-1.07h0a1.17,1.17,0,0,1,1.06,1.29h0a1.16,1.16,0,0,1-.21.58h0A1.21,1.21,0,0,1,123.15,163.83Zm-8-1a1.19,1.19,0,0,1-1-1.36h0a1.17,1.17,0,0,1,1.34-1h0a1.16,1.16,0,0,1,1,1.33h0a1.16,1.16,0,0,1-.2.51h0A1.22,1.22,0,0,1,115.2,162.88Zm-6.75-1.21a1.19,1.19,0,0,1-.92-1.41h0a1.19,1.19,0,0,1,1.39-.92h0a1.19,1.19,0,0,1,.92,1.4h0a1.25,1.25,0,0,1-.19.46h0A1.21,1.21,0,0,1,108.45,161.67Zm-3.37-.75a1.18,1.18,0,0,1-.87-1.42h0a1.17,1.17,0,0,1,1.42-.88h0a1.2,1.2,0,0,1,.89,1.42h0a1.48,1.48,0,0,1-.2.42h0A1.2,1.2,0,0,1,105.08,160.92Zm-7.71-2.1a1.18,1.18,0,0,1-.79-1.47h0a1.18,1.18,0,0,1,1.48-.79h0a1.18,1.18,0,0,1,.78,1.48h0a1,1,0,0,1-.17.35h0A1.2,1.2,0,0,1,97.37,158.82Zm-6.52-2.19h0a1.18,1.18,0,0,1-.68-1.52h0a1.17,1.17,0,0,1,1.51-.7h0a1.15,1.15,0,0,1,.69,1.51h0a1.3,1.3,0,0,1-.14.29h0A1.17,1.17,0,0,1,90.85,156.63Zm-3.21-1.22h0a1.19,1.19,0,0,1-.65-1.54h0a1.19,1.19,0,0,1,1.54-.65h0a1.18,1.18,0,0,1,.67,1.54h0A2.2,2.2,0,0,1,89,155h0A1.16,1.16,0,0,1,87.64,155.41Zm-7.33-3.19a1.18,1.18,0,0,1-.57-1.57h0a1.18,1.18,0,0,1,1.58-.56h0a1.18,1.18,0,0,1,.57,1.56h0a1.57,1.57,0,0,1-.12.19h0A1.17,1.17,0,0,1,80.31,152.22Zm-6.14-3.11a1.2,1.2,0,0,1-.46-1.61h0a1.16,1.16,0,0,1,1.61-.46h0a1.18,1.18,0,0,1,.47,1.59h0a.57.57,0,0,1-.08.13h0A1.2,1.2,0,0,1,74.17,149.11Zm-3-1.65a1.2,1.2,0,0,1-.45-1.62h0a1.17,1.17,0,0,1,1.61-.44h0A1.2,1.2,0,0,1,72.8,147h0l-.08.11h0A1.17,1.17,0,0,1,71.19,147.46Z"/></g><g class="cls-4"><path class="cls-5" d="M55.2,135a1.2,1.2,0,0,1-1.68.13h0a1.18,1.18,0,0,1-.13-1.66h0a1.17,1.17,0,0,1,1.66-.14h0a1.17,1.17,0,0,1,.2,1.59h0Zm-2.6-2.21a1.19,1.19,0,0,1-1.68.14h0a1.2,1.2,0,0,1-.15-1.67h0a1.18,1.18,0,0,1,1.67-.15h0a1.19,1.19,0,0,1,.2,1.61h0Z"/><path class="cls-5" d="M46.32,127a1.19,1.19,0,0,1-1.68,0h0a1.18,1.18,0,0,1,0-1.66h0a1.17,1.17,0,0,1,1.67,0h0a1.19,1.19,0,0,1,.12,1.51h0C46.42,126.92,46.36,127,46.32,127Zm-4.7-4.93A1.18,1.18,0,0,1,40,122h0a1.17,1.17,0,0,1,.11-1.66h0a1.16,1.16,0,0,1,1.68.11h0a1.19,1.19,0,0,1,.06,1.46h0A1.8,1.8,0,0,1,41.62,122.1Zm-2.23-2.57a1.18,1.18,0,0,1-1.67-.11h0a1.19,1.19,0,0,1,.12-1.67h0a1.18,1.18,0,0,1,1.66.12h0a1.16,1.16,0,0,1,.07,1.47h0A1.62,1.62,0,0,1,39.39,119.53Zm-5-6.17a1.18,1.18,0,0,1-1.66-.24h0a1.19,1.19,0,0,1,.25-1.66h0a1.18,1.18,0,0,1,1.65.26h0a1.19,1.19,0,0,1,0,1.4h0A.82.82,0,0,1,34.4,113.36Zm-3.95-5.54a1.16,1.16,0,0,1-1.63-.33h0a1.18,1.18,0,0,1,.34-1.64h0a1.18,1.18,0,0,1,1.63.34h0a1.17,1.17,0,0,1,0,1.34h0A.89.89,0,0,1,30.45,107.82ZM28.6,105a1.2,1.2,0,0,1-1.63-.4h0a1.19,1.19,0,0,1,.37-1.62h0a1.19,1.19,0,0,1,1.64.38h0a1.19,1.19,0,0,1-.05,1.32h0A1.44,1.44,0,0,1,28.6,105Zm-4-6.85a1.2,1.2,0,0,1-1.6-.49h0a1.19,1.19,0,0,1,.48-1.6h0a1.19,1.19,0,0,1,1.61.48h0A1.19,1.19,0,0,1,25,97.79h0A1.25,1.25,0,0,1,24.59,98.14ZM21.5,92.07a1.19,1.19,0,0,1-1.56-.57h0a1.19,1.19,0,0,1,.59-1.58h0a1.18,1.18,0,0,1,1.56.58h0A1.2,1.2,0,0,1,22,91.69h0A1,1,0,0,1,21.5,92.07ZM20.1,89a1.17,1.17,0,0,1-1.55-.63h0a1.19,1.19,0,0,1,.62-1.55h0a1.16,1.16,0,0,1,1.54.63h0a1.15,1.15,0,0,1-.12,1.16h0A1.12,1.12,0,0,1,20.1,89Zm-3-7.36a1.2,1.2,0,0,1-1.51-.7h0a1.18,1.18,0,0,1,.71-1.52h0a1.19,1.19,0,0,1,1.52.71h0a1.17,1.17,0,0,1-.15,1.09h0A1.16,1.16,0,0,1,17.13,81.62Zm-2.19-6.44a1.19,1.19,0,0,1-1.46-.82h0a1.17,1.17,0,0,1,.8-1.45h0a1.18,1.18,0,0,1,1.47.82h0a1.13,1.13,0,0,1-.17,1h0A1.18,1.18,0,0,1,14.94,75.18ZM14,71.91a1.17,1.17,0,0,1-1.45-.81h0a1.17,1.17,0,0,1,.82-1.46h0a1.18,1.18,0,0,1,1.45.8h0a1.16,1.16,0,0,1-.17,1h0A1.08,1.08,0,0,1,14,71.91Z"/></g><g class="cls-4"><path class="cls-5" d="M10.05,50.94a1.17,1.17,0,0,1-1.28-1.07h0A1.19,1.19,0,0,1,9.86,48.6h0a1.19,1.19,0,0,1,1.28,1.07h0a1.22,1.22,0,0,1-.23.8h0A1.12,1.12,0,0,1,10.05,50.94Zm-.28-3.39a1.17,1.17,0,0,1-1.28-1.07h0a1.17,1.17,0,0,1,1.09-1.27h0a1.18,1.18,0,0,1,1.28,1.07h0a1.32,1.32,0,0,1-.23.8h0A1.12,1.12,0,0,1,9.77,47.55Z"/><path class="cls-5" d="M11,18.63a1.17,1.17,0,0,0-1.34,1h0a1.19,1.19,0,0,0,1,1.35,1.21,1.21,0,0,0,1.16-.48A1.27,1.27,0,0,0,12,20,1.18,1.18,0,0,0,11,18.63Z"/><path class="cls-5" d="M12.25,12a1.18,1.18,0,0,0-.48,2.31A1.13,1.13,0,0,0,13,13.8a1.21,1.21,0,0,0,.21-.46h0A1.18,1.18,0,0,0,12.25,12Z"/><path class="cls-5" d="M13,8.64a1.18,1.18,0,0,0-.55,2.3,1.2,1.2,0,0,0,1.24-.46,1.63,1.63,0,0,0,.2-.42A1.2,1.2,0,0,0,13,8.64Z"/><path class="cls-5" d="M9.44,36.68a1.19,1.19,0,0,0,0,2.37,1.22,1.22,0,0,0,1-.49,1.19,1.19,0,0,0-1-1.88Z"/><path class="cls-5" d="M9.72,29.88a1.18,1.18,0,1,0-.15,2.36,1.19,1.19,0,0,0,1.26-1.1A1.19,1.19,0,0,0,9.72,29.88Z"/><path class="cls-5" d="M10,26.49a1.19,1.19,0,1,0,.84,1.88,1.17,1.17,0,0,0,.22-.59A1.2,1.2,0,0,0,10,26.49Z"/><path class="cls-5" d="M15.17,1a1.18,1.18,0,1,0-.69,2.26,1.16,1.16,0,0,0,1.3-.44A1,1,0,0,0,16,2.48,1.18,1.18,0,0,0,15.17,1Z"/></g><g class="cls-4"><path class="cls-5" d="M226.59-5.88,223.3-12c-.19-.35-.37-.7-.56-1-.34-.66-.69-1.3-1.08-1.94L216.3-22.9l-1.6-1.93h-1.34l2.11,2.55,5.32,7.9c.37.59.7,1.22,1,1.85.18.35.37.71.56,1l3.27,6.06a115.21,115.21,0,0,1,8.68,27.88,115.11,115.11,0,0,1,.43,29.17l-1.22,6.8c-.08.4-.14.79-.21,1.19-.12.7-.24,1.4-.4,2.06l-2.59,9.13-2.14,5.45c-.26.62-.5,1.25-.73,1.86a24.65,24.65,0,0,1-1.32,3.07L222,89.27l-5.73,8.83.87.56,5.75-8.87,4.18-8.11a24.92,24.92,0,0,0,1.38-3.19c.22-.6.46-1.22.72-1.84l2.16-5.5,2.61-9.2c.17-.71.29-1.43.42-2.15.07-.39.13-.78.21-1.18l1.23-6.84a116.7,116.7,0,0,0-.43-29.49A116.44,116.44,0,0,0,226.59-5.88Z"/><path class="cls-5" d="M237.81,57.78l-4.07-.73.54-3a53.38,53.38,0,0,0,.79-6.89l.07-.88c.86-7.48,0-17.1-.87-23.87-1.25-6.57-3.43-16-6.55-22.76l-.36-.86a52.92,52.92,0,0,0-2.85-6.22L223-10.21l3.65-2,1.45,2.68a53.51,53.51,0,0,1,3.08,6.69l.33.79c3.27,7.09,5.53,16.85,6.85,23.77.92,7.12,1.8,17.1.9,24.92l-.06.81a54.74,54.74,0,0,1-.87,7.4Z"/></g><g class="cls-4"><path class="cls-5" d="M217.11,98.7l-6.6,8.19-6.46,6.55a26.42,26.42,0,0,1-2.59,2.29c-.51.4-1,.81-1.52,1.25l-4.53,3.74-7.95,5.36c-.63.4-1.28.74-1.93,1.09-.35.18-.7.36-1,.55l-6.1,3.29a116.44,116.44,0,0,1-28.17,8.78,116.24,116.24,0,0,1-29.49.43L113.89,139l-1.17-.21c-.72-.12-1.45-.25-2.15-.42l-9.2-2.61-5.5-2.16c-.63-.26-1.24-.49-1.84-.72a26.39,26.39,0,0,1-3.19-1.37l-8.12-4.18-8.86-5.76.56-.87,8.82,5.73,8.08,4.16a23.83,23.83,0,0,0,3.07,1.32c.62.23,1.24.47,1.87.74l5.44,2.13,9.13,2.59c.67.16,1.36.28,2.07.4l1.18.21,6.8,1.23a115.66,115.66,0,0,0,29.18-.43,115.61,115.61,0,0,0,27.87-8.69l6.06-3.26,1-.57c.63-.33,1.26-.67,1.86-1l7.9-5.32,4.47-3.7c.5-.44,1-.85,1.53-1.27a23.92,23.92,0,0,0,2.51-2.2l6.42-6.51,6.57-8.16Z"/><path class="cls-5" d="M184.69,131.07,182,132.52a54.41,54.41,0,0,1-6.67,3.08l-.82.34c-7.08,3.26-16.84,5.53-23.77,6.84-7.11.92-17.09,1.81-24.91.91l-.81-.06a53.14,53.14,0,0,1-7.41-.88l-2.88-.51.73-4.08,3,.54a52.93,52.93,0,0,0,6.88.8l.89.06c7.48.87,17.09,0,23.86-.87,6.58-1.25,16-3.43,22.76-6.54l.89-.38a52.49,52.49,0,0,0,6.2-2.84l2.77-1.5Z"/></g><g class="cls-4"><path class="cls-5" d="M74.46,120.72l-.65.81-8.19-6.6-6.54-6.45a25.3,25.3,0,0,1-2.29-2.6c-.41-.51-.82-1-1.26-1.51l-3.74-4.53-5.36-8C46,91.25,45.7,90.6,45.35,90c-.18-.35-.37-.69-.56-1L41.5,82.82a116.79,116.79,0,0,1-8.77-28.18,116.61,116.61,0,0,1-.44-29.48l1.23-6.84q.12-.6.21-1.17c.13-.73.25-1.45.42-2.16l2.61-9.2L38.92.29c.26-.62.5-1.23.72-1.84A24.92,24.92,0,0,1,41-4.74l4.18-8.11L51-21.72l.87.56-5.73,8.82L41.93-4.25a25.53,25.53,0,0,0-1.32,3.07c-.23.61-.47,1.24-.73,1.86L37.74,6.12l-2.58,9.14c-.16.66-.29,1.36-.41,2.06-.07.39-.13.79-.21,1.19l-1.22,6.8a115.11,115.11,0,0,0,.43,29.17,115,115,0,0,0,8.68,27.87l3.27,6.06.56,1.06c.34.63.67,1.25,1,1.85l5.32,7.9,3.7,4.48c.44.5.86,1,1.27,1.53a24.89,24.89,0,0,0,2.21,2.5l6.51,6.43Z"/><path class="cls-5" d="M45.09,87.15l-3.65,2L40,86.43a51.94,51.94,0,0,1-3.09-6.69L36.58,79c-3.27-7.09-5.53-16.85-6.85-23.77-.92-7.12-1.8-17.1-.9-24.92l.06-.81a54.74,54.74,0,0,1,.87-7.4l.52-2.89,4.08.73-.54,3a51.43,51.43,0,0,0-.8,6.88l-.07.89c-.86,7.48,0,17.1.87,23.86,1.26,6.58,3.43,16,6.55,22.76l.36.87a51.11,51.11,0,0,0,2.86,6.22Z"/></g></g></g></g></svg>