<?xml version="1.0" encoding="utf-8"?>
<!-- Generator: Adobe Illustrator 23.0.1, SVG Export Plug-In . SVG Version: 6.00 Build 0)  -->
<svg version="1.1" id="Layer_1" xmlns="http://www.w3.org/2000/svg" xmlns:xlink="http://www.w3.org/1999/xlink" x="0px" y="0px"
	 viewBox="0 0 70 70" style="enable-background:new 0 0 70 70;" xml:space="preserve">
<style type="text/css">
	.st0{clip-path:url(#SVGID_2_);}
	.st1{fill:#FE214F;}
</style>
<g>
	<defs>
		<rect id="SVGID_1_" width="70" height="70"/>
	</defs>
	<clipPath id="SVGID_2_">
		<use xlink:href="#SVGID_1_"  style="overflow:visible;"/>
	</clipPath>
	<g class="st0">
		<path class="st1" d="M70,57.1c-0.7,1.7-2,2.2-3.8,2.2c-3.7,0-7.4,0-11.1,0c-0.6,0-1,0.1-1.4,0.6c-0.6,0.7-1.3,1.3-1.9,1.9
			c-1.1,1-2.3,1.1-3.4,0.2c-0.5-0.4-0.9-0.7-1.4-1.1c-0.3-0.3-0.6-0.3-1-0.1c-1.7,1-3.5,1.7-5.3,2.2c-0.4,0.1-0.6,0.4-0.6,0.8
			c0,0.5-0.1,1.1-0.1,1.6c-0.1,1.5-1.1,2.4-2.6,2.4c-1.5,0-2.9,0-4.4,0c-1.5,0-2.5-1-2.6-2.5c0-0.5-0.1-1.1-0.1-1.6
			c0-0.4-0.2-0.7-0.6-0.8c-1.9-0.5-3.7-1.3-5.3-2.2c-0.4-0.2-0.7-0.2-1,0.1c-0.5,0.4-1,0.8-1.5,1.2c-1,0.8-2.3,0.7-3.2-0.2
			c-0.7-0.7-1.4-1.4-2.1-2.1c-0.4-0.4-0.7-0.5-1.3-0.5c-3.7,0-7.5,0-11.2,0c-1.7,0-3.1-0.5-3.8-2.2c0-2.2,0-4.5,0-6.7
			c0.4-0.4,0.8-0.8,1.4-0.5c0.6,0.3,0.7,0.8,0.7,1.4c0,1.5,0,3.1,0,4.6c0,0.9,0.3,1.2,1.2,1.2c3.4,0,6.9,0,10.3,0
			c0.5,0,0.7-0.1,0.7-0.6c0-0.8,0.6-1.3,1.1-1.9c1-1.2,1-1.2,0.3-2.5c-0.8-1.4-1.3-2.9-1.8-4.5c-0.1-0.4-0.3-0.7-0.8-0.7
			c-0.6,0-1.2-0.1-1.8-0.2c-1.4-0.2-2.2-1.1-2.3-2.5c0-1.5,0-3,0-4.5c0-1.4,0.9-2.3,2.3-2.5c0.6-0.1,1.3-0.2,1.9-0.2
			c0.4,0,0.6-0.2,0.7-0.6c0.5-1.9,1.3-3.8,2.3-5.5c0.2-0.3,0.1-0.6-0.1-0.9c-0.4-0.5-0.8-1-1.2-1.5c-0.9-1.1-0.8-2.4,0.2-3.4
			c1.1-1.1,2.1-2.1,3.2-3.2c1-1,2.3-1.1,3.4-0.2c0.5,0.4,0.9,0.7,1.4,1.1c0.3,0.3,0.6,0.4,1,0.1c1.7-1,3.5-1.7,5.3-2.2
			c0.4-0.1,0.6-0.4,0.6-0.8c0-0.6,0.1-1.1,0.1-1.7c0.1-1.4,1.1-2.4,2.6-2.4c1.5,0,3,0,4.4,0c1.4,0,2.4,0.9,2.6,2.3
			c0.1,0.6,0.1,1.1,0.1,1.7c0,0.5,0.2,0.8,0.7,0.9c1.9,0.5,3.6,1.2,5.3,2.2c0.4,0.2,0.7,0.2,1.1-0.1c0.5-0.4,1-0.8,1.5-1.2
			c1-0.8,2.2-0.7,3.1,0.1c1.2,1.1,2.4,2.3,3.5,3.5c0.8,0.8,0.8,2.1,0.1,3.1c-0.4,0.6-0.8,1.1-1.3,1.6c-0.3,0.3-0.3,0.6-0.1,0.9
			c1,1.7,1.7,3.5,2.2,5.3c0.1,0.4,0.3,0.6,0.8,0.6c0.6,0,1.2,0.1,1.8,0.2c1.4,0.2,2.3,1.1,2.3,2.5c0.1,1.5,0.1,3,0,4.5
			c0,1.4-0.9,2.3-2.3,2.5c-0.6,0.1-1.3,0.2-1.9,0.2c-0.4,0-0.6,0.2-0.7,0.6c-0.5,1.9-1.2,3.7-2.2,5.3c-0.2,0.4-0.2,0.7,0.1,1
			c0.4,0.4,0.8,0.9,1.1,1.4c0.3,0.4,0.6,0.8,0.6,1.2c0,0.7,0.3,0.7,0.9,0.7c3.3,0,6.7,0,10,0c1.1,0,1.4-0.3,1.4-1.4
			c0-7.7,0-15.4,0-23.1c0-3.2,0-6.3,0-9.5c0-0.6,0-1.1,0.6-1.4c0.6-0.3,1,0.1,1.5,0.4C70,33.8,70,45.5,70,57.1z M18.6,30.5
			c0,0.4-0.1,0.8-0.3,1.1c-1.1,1.8-1.8,3.7-2.4,5.7c-0.3,1-0.9,1.6-1.9,1.7c-0.7,0.1-1.4,0.2-2.1,0.2c-0.4,0-0.6,0.2-0.6,0.6
			c0,1.3,0,2.7,0,4c0,0.4,0.2,0.6,0.6,0.6c0.5,0,1.1,0.1,1.6,0.1c1.3,0.1,2.1,0.7,2.5,1.9c0.5,1.9,1.2,3.7,2.2,5.4
			c0.6,1.1,0.5,2.1-0.3,3c-0.4,0.5-0.8,1-1.2,1.4c-0.2,0.3-0.2,0.5,0,0.8c1,0.9,1.9,1.9,2.9,2.9c0.3,0.3,0.6,0.3,0.9,0
			c0.5-0.4,1-0.9,1.5-1.3c0.8-0.6,1.7-0.8,2.6-0.2c1.8,1,3.8,1.8,5.8,2.4c1,0.3,1.6,1.1,1.7,2.1c0.1,0.6,0.1,1.3,0.2,1.9
			c0,0.4,0.3,0.6,0.7,0.6c1.3,0,2.6,0,3.9,0c0.5,0,0.7-0.2,0.7-0.6c0.1-0.6,0.1-1.2,0.2-1.8c0.1-1.2,0.7-2,1.9-2.3
			c1.9-0.5,3.7-1.3,5.5-2.3c1-0.6,2-0.5,2.9,0.2c0.5,0.4,1,0.8,1.4,1.2c0.4,0.3,0.6,0.3,1,0c0.9-0.9,1.8-1.9,2.8-2.8
			c0.3-0.3,0.3-0.6,0-0.9c-0.4-0.5-0.8-0.9-1.2-1.4c-0.7-0.9-0.9-1.8-0.3-2.8c1-1.8,1.8-3.7,2.3-5.7c0.3-1,0.9-1.6,1.9-1.7
			c0.7-0.1,1.4-0.2,2.1-0.2c0.4,0,0.6-0.2,0.6-0.6c0-1.3,0-2.7,0-4c0-0.4-0.2-0.6-0.6-0.6c-0.5,0-1.1-0.1-1.6-0.1
			c-1.3-0.1-2.1-0.7-2.5-1.9c-0.5-1.9-1.2-3.7-2.2-5.4c-0.6-1.1-0.5-2.1,0.3-3c0.4-0.5,0.8-1,1.2-1.4c0.2-0.3,0.2-0.5,0-0.8
			c-1-0.9-1.9-1.9-2.8-2.9c-0.3-0.3-0.6-0.3-0.9,0c-0.5,0.4-1,0.9-1.5,1.3c-0.8,0.6-1.7,0.8-2.6,0.2c-1.8-1-3.8-1.8-5.8-2.4
			c-1-0.3-1.6-1.1-1.7-2.1c-0.1-0.6-0.1-1.3-0.2-1.9c0-0.4-0.3-0.6-0.7-0.6c-1.3,0-2.6,0-3.9,0c-0.5,0-0.7,0.2-0.7,0.6
			c-0.1,0.6-0.1,1.1-0.2,1.7c-0.1,1.3-0.7,2-1.9,2.4c-1.9,0.5-3.7,1.2-5.3,2.2c-1,0.6-2.1,0.5-3-0.3c-0.5-0.4-1-0.8-1.4-1.2
			c-0.3-0.3-0.6-0.3-0.9,0c-0.9,1-1.9,1.9-2.9,2.9c-0.3,0.3-0.3,0.5,0,0.8c0.4,0.4,0.8,0.9,1.1,1.4C18.3,29.2,18.5,29.8,18.6,30.5z"
			/>
		<path class="st1" d="M70,18.5c-0.3,0.2-0.5,0.5-0.9,0.5c-0.6,0.1-1.2-0.4-1.2-1.1c0-1.3,0-2.5,0-3.8c0-0.5-0.2-0.7-0.7-0.7
			c-0.2,0-0.3,0-0.5,0c-21.2,0-42.3,0-63.5,0c-1.3,0-1.2-0.1-1.2,1.2c0,10.2,0,20.4,0,30.6c0,0.2,0,0.5,0,0.7c0,0.6-0.1,1.1-0.7,1.3
			c-0.6,0.2-1.1,0-1.4-0.5c0-14,0-28,0-42c0.6-1.6,1.7-2.2,3.4-2.2c21,0,42.1,0,63.1,0c1.7,0,2.8,0.7,3.4,2.2
			C70,9.3,70,13.9,70,18.5z M35,11.2c6.4,0,12.9,0,19.3,0c4.3,0,8.5,0,12.8,0c0.6,0,0.8-0.2,0.8-0.8c0-1.5,0-3,0-4.5
			c0-1-0.2-1.2-1.3-1.2c-21.1,0-42.2,0-63.3,0c-1,0-1.2,0.2-1.2,1.3c0,1.4,0,2.9,0,4.3c0,1,0,1,1,1C13.7,11.2,24.4,11.2,35,11.2z"/>
		<path class="st1" d="M19.8,41.8c0,7.6,5.5,14,12.9,15.1C41,58.2,48.9,52.4,50,44.1c0.7-5-0.8-9.4-4.3-13c-0.1-0.1-0.2-0.2-0.3-0.3
			c-0.5-0.5-0.5-1.1,0-1.6c0.4-0.4,1.1-0.5,1.6,0c0.5,0.5,1,1,1.5,1.6c8.5,10.3,2.7,26-10.5,28.2c-9.6,1.6-18.9-5.1-20.1-14.7
			C16.5,35,22.7,26.5,32,24.8c3.4-0.6,6.8-0.2,10,1.2c0.2,0.1,0.3,0.1,0.5,0.2c0.6,0.4,0.8,0.9,0.6,1.5c-0.3,0.6-0.8,0.8-1.5,0.5
			c-1.1-0.5-2.2-0.9-3.4-1.2c-8.6-1.8-16.9,4-18.2,12.7C19.9,40.4,19.9,41.2,19.8,41.8z"/>
		<path class="st1" d="M31.7,47.4c-0.5,0-0.9-0.3-1-0.8c-0.2-1.2-0.9-1.5-2.1-1.3c-0.6,0.1-1.1,0-1.7,0c-0.4,0-0.7,0.2-0.8,0.6
			c-0.1,0.2-0.2,0.5-0.3,0.7c-0.3,0.7-0.8,1-1.4,0.8c-0.6-0.2-0.9-0.8-0.6-1.6c0.7-1.8,1.3-3.5,2-5.3c0.4-1,0.8-2,1.2-3.1
			c0.2-0.6,0.6-1,1.3-1c0.7,0,1.1,0.4,1.3,1.1c1,2.7,2.1,5.5,3.1,8.2C33,46.6,32.5,47.4,31.7,47.4z M28.2,40.3
			c-0.2,0.5-0.4,1-0.5,1.4c-0.6,1.5-0.5,1.6,1.1,1.4c0.4,0,0.4-0.2,0.3-0.5C28.8,41.8,28.5,41.1,28.2,40.3z"/>
		<path class="st1" d="M34.9,41.9c0-1.3,0-2.6,0-4c0-1.2,0.4-1.6,1.6-1.6c0.9,0,1.7-0.1,2.6,0.1c1.8,0.3,3.2,1.9,3.1,3.6
			c-0.1,1.8-1.4,3.3-3.3,3.5c-0.1,0-0.2,0-0.3,0c-1.4,0.1-1.4,0.1-1.4,1.6c0,0.4,0,0.8,0,1.2c0,0.6-0.5,1-1,1.1c-0.5,0-1-0.3-1.1-1
			c-0.2-0.9,0-1.9-0.1-2.8C34.8,43.1,34.9,42.5,34.9,41.9z M37.1,39.9c0,1.5,0,1.5,1.3,1.4c0.9-0.1,1.5-0.7,1.5-1.5
			c-0.1-0.9-0.8-1.3-2.1-1.3C36.7,38.6,37.3,39.4,37.1,39.9C37.1,39.9,37.1,39.9,37.1,39.9z"/>
		<path class="st1" d="M46.4,41.9c0,1.4,0,2.8,0,4.2c0,0.9-0.4,1.4-1.1,1.4c-0.6,0-1.1-0.5-1.1-1.3c0-2.8,0-5.6,0-8.5
			c0-0.8,0.5-1.3,1.1-1.3c0.6,0,1.1,0.5,1.1,1.3C46.4,39.1,46.4,40.5,46.4,41.9z"/>
		<path class="st1" d="M63.9,9.1c-0.6,0-0.9,0-1.3-0.1c-0.5-0.2-0.8-0.5-0.8-1.1c0-0.5,0.3-0.9,0.8-1c0.7-0.2,1.5-0.2,2.2,0
			c0.5,0.1,0.8,0.5,0.8,1c0,0.5-0.3,0.9-0.8,1C64.5,9.1,64.1,9,63.9,9.1z"/>
		<path class="st1" d="M51.6,9c-0.3,0-0.6,0-0.9,0c-0.6-0.1-1.1-0.5-1.1-1.1c0-0.6,0.5-1,1.1-1.1c0.6,0,1.1,0,1.7,0
			c0.6,0,1,0.5,1,1.1c0,0.6-0.4,1.1-1,1.1C52.2,9.1,51.9,9,51.6,9C51.6,9,51.6,9,51.6,9z"/>
		<path class="st1" d="M57.7,6.8c0.3,0,0.6,0,0.9,0.1c0.5,0.1,0.9,0.5,0.9,1c0,0.6-0.3,1-0.9,1.1c-0.7,0.1-1.4,0.1-2.1,0
			c-0.6-0.1-0.9-0.5-0.8-1.1c0-0.6,0.4-0.9,0.9-1C57,6.8,57.3,6.8,57.7,6.8z"/>
	</g>
</g>
</svg>
