<?xml version="1.0" encoding="utf-8"?>
<!-- Generator: Adobe Illustrator 23.0.1, SVG Export Plug-In . SVG Version: 6.00 Build 0)  -->
<svg version="1.1" xmlns="http://www.w3.org/2000/svg" xmlns:xlink="http://www.w3.org/1999/xlink" x="0px" y="0px"
	 viewBox="0 0 50 50" style="enable-background:new 0 0 50 50;" xml:space="preserve">
<style type="text/css">
	.st0{display:none;}
	.st1{display:inline;}
	.st2{clip-path:url(#SVGID_2_);}
	.st3{fill:#F70D39;}
	.st4{clip-path:url(#SVGID_4_);}
</style>
<g id="Emblem" class="st0">
	<g class="st1">
		<defs>
			<rect id="SVGID_1_" x="0" width="50" height="50"/>
		</defs>
		<clipPath id="SVGID_2_">
			<use xlink:href="#SVGID_1_"  style="overflow:visible;"/>
		</clipPath>
		<g class="st2">
			<path class="st3" d="M24.71,50c-0.11-0.09-0.25-0.17-0.34-0.28c-1.21-1.6-2.95-2.36-4.76-3c-2.11-0.76-4.31-1.26-6.41-2.05
				c-2.81-1.07-5.46-2.4-7.54-4.64c-2.29-2.46-3.17-5.39-2.89-8.71c0.28-3.4,1.53-6.5,2.84-9.59c0.21-0.49,0.64-0.68,1.06-0.5
				c0.42,0.17,0.6,0.6,0.4,1.11c-0.6,1.51-1.23,3.01-1.72,4.57c-0.55,1.74-0.99,3.51-1.03,5.35C4.25,35.5,5.57,38.1,8.1,40.11
				c2.25,1.79,4.87,2.86,7.59,3.71c1.99,0.62,4.01,1.14,5.93,1.96c1.17,0.5,2.28,1.13,3.2,2.03c0.2,0.2,0.35,0.23,0.57,0.01
				c1.2-1.17,2.69-1.87,4.24-2.45c2.01-0.75,4.11-1.24,6.14-1.95c2.52-0.88,4.92-1.98,6.93-3.8c2.45-2.21,3.43-4.98,3.13-8.24
				c-0.28-3.03-1.36-5.81-2.5-8.58c-0.1-0.24-0.21-0.48-0.28-0.73c-0.12-0.42,0.02-0.75,0.42-0.93c0.39-0.18,0.73-0.07,0.99,0.28
				c0.05,0.06,0.09,0.14,0.12,0.21c1.13,2.69,2.21,5.39,2.7,8.29c0.6,3.57,0.04,6.88-2.36,9.71c-1.68,1.98-3.84,3.29-6.18,4.34
				c-2.14,0.97-4.41,1.57-6.65,2.26c-1.77,0.55-3.53,1.14-5.05,2.27c-0.58,0.43-0.94,1.08-1.53,1.5C25.23,50,24.97,50,24.71,50z"/>
			<path class="st3" d="M39.94,0c0.94,0.34,1.47,1.15,2.1,1.85c1.24,1.38,2.47,2.77,3.7,4.16c1.11,1.27,0.84,2.97-0.63,3.77
				c-1.63,0.88-2.38,2.31-2.7,4.06c-0.25,1.38,0.15,2.64,0.59,3.91c0.07,0.22,0.16,0.43,0.22,0.64c0.12,0.41-0.07,0.8-0.45,0.97
				c-0.36,0.16-0.83,0.03-0.99-0.37c-1.37-3.23-1.88-6.54,1.3-9.71c0.36-0.36,0.79-0.62,1.22-0.88c0.57-0.34,0.68-0.84,0.23-1.34
				c-1.53-1.73-3.07-3.45-4.62-5.17c-0.38-0.42-0.74-0.43-1.31-0.06c-1.26,0.82-2.62,1.36-4.1,1.63c-2.41,0.44-4.72,0.04-7-0.77
				C26.9,2.47,26.3,2.22,25.73,1.9c-0.45-0.25-0.84-0.22-1.29,0.01c-2.18,1.11-4.49,1.74-6.94,1.71c-2.1-0.02-4.04-0.61-5.81-1.74
				c-0.77-0.49-1.01-0.46-1.63,0.23c-1.43,1.6-2.86,3.2-4.29,4.81c-0.55,0.62-0.5,1.09,0.15,1.49c2.83,1.72,4.13,4.86,3.35,8.06
				c-0.2,0.81-0.46,1.59-0.77,2.37c-0.23,0.58-0.63,0.81-1.08,0.64c-0.47-0.18-0.62-0.63-0.4-1.23c0.33-0.92,0.71-1.83,0.8-2.81
				c0.17-1.89-0.3-3.58-1.69-4.95c-0.3-0.3-0.67-0.51-1.04-0.72C3.64,8.96,3.35,7.26,4.46,6.01C5.93,4.35,7.4,2.7,8.86,1.04
				C9.26,0.59,9.7,0.23,10.25,0c0.42,0,0.85,0,1.27,0c0.39,0.16,0.76,0.37,1.12,0.59c1.47,0.91,3.08,1.36,4.81,1.43
				c2.27,0.08,4.38-0.54,6.37-1.57c0.87-0.45,1.69-0.47,2.55,0c0.79,0.43,1.62,0.76,2.48,1.02c3.17,0.96,6.2,0.74,9.04-1.08
				c0.24-0.16,0.52-0.26,0.78-0.39C39.1,0,39.52,0,39.94,0z"/>
			<path class="st3" d="M5.42,32.82c0-2.7,0.72-4.92,1.53-7.12c0.95-2.58,2.15-5.06,3.05-7.66c0.74-2.15,0.92-4.32,0.13-6.5
				c-0.44-1.23-1.1-2.32-2.02-3.25C7.27,7.43,7.24,6.79,8.02,5.9c0.65-0.75,1.31-1.49,1.99-2.22c0.52-0.56,1.09-0.68,1.77-0.35
				c4.05,1.98,8.1,1.68,12.14,0.01c0.83-0.35,1.53-0.36,2.37-0.01c3.47,1.46,7.02,1.88,10.65,0.63c0.49-0.17,0.96-0.4,1.44-0.61
				c0.74-0.34,1.3-0.25,1.85,0.35c0.71,0.77,1.4,1.54,2.08,2.33c0.61,0.71,0.59,1.43-0.06,2.09c-1.93,1.97-2.84,4.33-2.66,7.08
				c0.1,1.51,0.63,2.92,1.17,4.32c1.01,2.63,2.23,5.17,3.09,7.86c0.59,1.84,1,3.7,0.94,5.65c-0.09,2.68-1.35,4.7-3.4,6.3
				c-2.23,1.74-4.82,2.74-7.49,3.56c-2.02,0.62-4.07,1.16-6,2.03c-0.68,0.31-1.34,0.66-1.98,1.05c-0.48,0.3-0.99,0.36-1.48,0.05
				c-2.19-1.38-4.64-2.12-7.09-2.84c-2.6-0.76-5.15-1.63-7.45-3.12c-1.68-1.09-3.11-2.42-3.89-4.32
				C5.56,34.72,5.38,33.63,5.42,32.82z M7.01,32.48c0.03,0.45,0.04,0.91,0.1,1.36c0.27,1.82,1.31,3.16,2.71,4.25
				c2.19,1.7,4.75,2.61,7.36,3.39c2.35,0.71,4.75,1.32,6.89,2.55c0.76,0.43,1.29,0.43,2.04,0c2.16-1.23,4.57-1.85,6.94-2.56
				c2.41-0.72,4.75-1.58,6.85-3.02c2.62-1.8,3.64-4.25,3.17-7.38c-0.37-2.41-1.24-4.64-2.14-6.88c-0.84-2.08-1.78-4.12-2.44-6.27
				c-0.47-1.53-0.68-3.08-0.48-4.67c0.28-2.25,1.21-4.21,2.75-5.87c0.23-0.24,0.23-0.42,0.01-0.66c-0.48-0.51-0.95-1.03-1.39-1.57
				c-0.23-0.28-0.42-0.3-0.74-0.15c-1.58,0.74-3.25,1.16-4.98,1.27c-2.8,0.18-5.47-0.38-8.04-1.47c-0.36-0.15-0.65-0.16-1.01-0.01
				c-2.04,0.86-4.15,1.41-6.38,1.49c-2.33,0.09-4.57-0.31-6.69-1.3c-0.28-0.13-0.47-0.12-0.68,0.13C10.4,5.65,9.93,6.19,9.44,6.71
				c-0.23,0.24-0.22,0.42,0,0.66c0.6,0.65,1.11,1.36,1.53,2.14c1.57,2.9,1.62,5.9,0.56,8.97c-0.88,2.56-2.04,5-2.99,7.53
				C7.76,28.1,7.04,30.21,7.01,32.48z"/>
			<path class="st3" d="M25.06,37.82C17.7,37.81,11.69,31.77,11.7,24.4c0.01-7.35,6.07-13.39,13.42-13.38
				c7.38,0.01,13.4,6.07,13.38,13.46C38.48,31.84,32.45,37.83,25.06,37.82z M25.09,36.21c6.52,0,11.79-5.24,11.8-11.73
				c0.01-6.53-5.26-11.84-11.75-11.85c-6.52-0.01-11.82,5.27-11.83,11.78C13.3,30.94,18.56,36.21,25.09,36.21z"/>
			<path class="st3" d="M19.61,20.48c0.72,0,1.43-0.03,2.15,0.01c0.51,0.03,0.75-0.13,0.9-0.63c0.41-1.4,0.89-2.79,1.35-4.18
				c0.23-0.69,0.56-0.97,1.12-0.96c0.53,0.01,0.86,0.29,1.08,0.96c0.47,1.44,0.95,2.87,1.4,4.32c0.12,0.37,0.3,0.51,0.7,0.5
				c1.51-0.02,3.03-0.01,4.54-0.01c0.68,0,1.1,0.25,1.25,0.72c0.17,0.52,0,0.95-0.58,1.37c-1.23,0.9-2.47,1.81-3.71,2.7
				c-0.28,0.2-0.36,0.39-0.24,0.73c0.46,1.35,0.89,2.72,1.34,4.08c0.04,0.12,0.08,0.25,0.12,0.37c0.18,0.61,0.05,1.06-0.37,1.35
				c-0.42,0.29-0.85,0.27-1.36-0.09c-1.24-0.89-2.49-1.78-3.71-2.7c-0.35-0.26-0.58-0.27-0.93-0.01c-1.2,0.9-2.42,1.77-3.63,2.64
				c-0.6,0.43-1.04,0.46-1.48,0.13c-0.41-0.31-0.52-0.75-0.3-1.41c0.47-1.46,0.93-2.91,1.42-4.36c0.12-0.36,0.05-0.55-0.26-0.76
				c-1.24-0.87-2.45-1.77-3.68-2.66c-0.58-0.42-0.76-0.84-0.59-1.37c0.15-0.5,0.57-0.74,1.29-0.74
				C18.14,20.48,18.87,20.48,19.61,20.48z M28.86,29.44c0.04-0.03,0.07-0.05,0.11-0.08c-0.37-1.14-0.74-2.28-1.11-3.42
				c-0.25-0.77-0.14-1.12,0.51-1.6c0.85-0.62,1.71-1.24,2.56-1.86c0.13-0.1,0.3-0.17,0.39-0.39c-1.27,0-2.49,0-3.7,0
				c-0.74,0-1.07-0.24-1.3-0.93c-0.34-1.02-0.67-2.04-1.01-3.05c-0.05-0.14-0.04-0.33-0.25-0.43c-0.06,0.17-0.13,0.33-0.19,0.5
				c-0.33,1-0.64,2.01-0.98,3.01c-0.23,0.68-0.57,0.91-1.27,0.91c-1.11,0.01-2.21,0-3.32,0.01c-0.13,0-0.29-0.07-0.41,0.1
				c0.78,0.57,1.55,1.14,2.33,1.7c1.45,1.04,1.45,1.04,0.9,2.71c-0.3,0.92-0.59,1.84-0.89,2.78c0.24,0.03,0.35-0.11,0.47-0.2
				c0.83-0.6,1.66-1.2,2.49-1.81c0.75-0.55,1.08-0.54,1.83,0C26.97,28.07,27.91,28.75,28.86,29.44z"/>
		</g>
	</g>
</g>
<g id="Logotypes" class="st0">
	<g class="st1">
		<path class="st3" d="M4.99,0.01C5.5,0.33,5.44,0.84,5.4,1.32C5.37,1.78,5.51,1.95,6,1.94C7.09,1.9,8.18,1.92,9.27,1.93
			c0.61,0,0.92,0.27,0.92,0.76c0,0.5-0.31,0.77-0.92,0.77C8.15,3.46,7.03,3.47,5.91,3.45c-0.39-0.01-0.55,0.12-0.5,0.5
			c0,0.03,0,0.07,0,0.1C5.4,5.32,5.32,5.42,4.05,5.4c-0.47-0.01-0.6,0.14-0.6,0.61c0.01,5.45,0.01,10.9,0,16.35
			c0,0.42,0.1,0.58,0.54,0.57c0.47-0.01,0.78,0.27,0.8,0.74c0.03,0.88,0.03,1.76,0,2.63c-0.02,0.5-0.32,0.77-0.83,0.77
			c-0.37,0-0.52,0.09-0.52,0.49c0.01,5.52,0.01,11.03,0,16.55c0,0.36,0.11,0.48,0.48,0.48c1.45,0.02,1.46,0.03,1.47,1.47
			c0,0.36,0.12,0.48,0.48,0.48c5.52-0.01,11.03-0.01,16.55,0c0.34,0,0.49-0.09,0.5-0.46c0-0.61,0.29-0.88,0.91-0.89
			c0.78-0.01,1.56-0.01,2.34,0c0.59,0.01,0.9,0.29,0.89,0.86c-0.01,0.45,0.2,0.49,0.57,0.49c3.16-0.01,6.31-0.01,9.47,0
			c0.18,0,0.36-0.01,0.54,0.01c0.41,0.05,0.67,0.36,0.66,0.77c-0.02,0.41-0.23,0.67-0.64,0.73c-0.17,0.03-0.36,0.02-0.54,0.02
			c-3.16,0-6.31,0.01-9.47-0.01c-0.4,0-0.6,0.07-0.58,0.53c0.02,0.5-0.28,0.8-0.78,0.82c-0.86,0.03-1.72,0.03-2.59,0
			c-0.5-0.02-0.8-0.32-0.78-0.81c0.02-0.46-0.18-0.53-0.58-0.53c-5.45,0.01-10.9,0.01-16.35,0c-0.48,0-0.63,0.15-0.59,0.61
			c0.03,0.48,0.09,1-0.42,1.31c-1.56,0-3.12-0.01-4.69,0.01C0.06,50,0,49.94,0,49.7c0.01-1.56,0.01-3.12,0.01-4.69
			c0.35-0.55,0.9-0.43,1.41-0.42c0.37,0.01,0.51-0.1,0.51-0.49c-0.01-5.52-0.01-11.03,0-16.55c0-0.36-0.12-0.48-0.48-0.48
			c-0.54,0-0.85-0.27-0.86-0.78c-0.03-0.86-0.03-1.72,0-2.59c0.02-0.5,0.32-0.79,0.81-0.78c0.46,0.02,0.53-0.18,0.53-0.58
			C1.92,16.9,1.92,11.45,1.94,6c0-0.48-0.15-0.63-0.61-0.59C0.84,5.44,0.33,5.49,0.01,4.99C0.01,3.42,0.01,1.86,0,0.3
			C0,0.06,0.06,0,0.3,0C1.86,0.01,3.42,0.01,4.99,0.01z M2.72,1.51c-1.21,0-1.21,0-1.21,1.19c0,0.02,0,0.03,0,0.05
			c0,1.13,0,1.13,1.13,1.13c1.24,0,1.24,0,1.24-1.22C3.88,1.51,3.88,1.51,2.72,1.51z M3.88,47.27c0-1.14,0-1.14-1.12-1.14
			c-1.25,0-1.25,0-1.25,1.25c0,1.12,0,1.12,1.14,1.12C3.88,48.49,3.88,48.49,3.88,47.27z M2.71,24.46c-0.4-0.08-0.56,0.08-0.55,0.5
			c0.01,0.36,0.01,0.63,0.5,0.61c0.38-0.02,0.57-0.09,0.55-0.52C3.2,24.7,3.23,24.36,2.71,24.46z M25.54,47.32
			c0.08-0.41-0.1-0.55-0.5-0.54c-0.37,0.01-0.62,0.03-0.6,0.51c0.01,0.39,0.11,0.56,0.53,0.54C25.32,47.82,25.64,47.83,25.54,47.32z
			"/>
		<path class="st3" d="M45.01,49.99c-0.51-0.32-0.45-0.83-0.42-1.31c0.03-0.46-0.11-0.63-0.59-0.61c-0.96,0.04-1.92,0.01-2.88,0.01
			c-0.6,0-0.92-0.27-0.92-0.76c0-0.49,0.31-0.76,0.92-0.77c0.99-0.01,1.98-0.01,2.98,0c0.34,0,0.52-0.07,0.5-0.46
			c-0.09-1.33,0.12-1.59,1.5-1.5c0.34,0.02,0.45-0.12,0.45-0.45c-0.01-5.53-0.01-11.06,0-16.59c0-0.37-0.14-0.47-0.49-0.47
			c-0.56,0-0.84-0.29-0.86-0.84c-0.02-0.81-0.02-1.63,0-2.44c0.01-0.58,0.3-0.87,0.88-0.87c0.37,0,0.47-0.14,0.47-0.49
			c-0.01-5.51-0.01-11.03,0-16.54c0-0.35-0.1-0.51-0.47-0.48c-1.41,0.09-1.56-0.21-1.48-1.47c0.02-0.35-0.1-0.49-0.47-0.49
			c-5.53,0.01-11.06,0.01-16.59,0c-0.34,0-0.45,0.11-0.46,0.45c-0.01,0.61-0.29,0.89-0.9,0.9c-0.78,0.02-1.56,0.02-2.34,0
			c-0.6-0.01-0.91-0.29-0.9-0.85c0.01-0.43-0.18-0.51-0.55-0.5c-2.98,0.01-5.95,0.01-8.93,0.01c-0.16,0-0.33,0.01-0.49,0
			c-0.46-0.03-0.78-0.35-0.77-0.78c0.01-0.41,0.31-0.71,0.75-0.75c0.16-0.01,0.33-0.01,0.49-0.01c2.98,0,5.95-0.01,8.93,0.01
			c0.4,0,0.59-0.08,0.58-0.53c-0.02-0.5,0.28-0.8,0.78-0.81c0.86-0.03,1.72-0.03,2.59,0c0.51,0.02,0.78,0.32,0.78,0.87
			c0,0.36,0.12,0.48,0.48,0.48c5.51-0.01,11.03-0.01,16.54,0c0.4,0,0.5-0.14,0.49-0.51c-0.01-0.51-0.13-1.06,0.42-1.41
			c1.56,0,3.12,0.01,4.69-0.01C49.94,0,50,0.06,50,0.3c-0.01,1.56-0.01,3.12-0.01,4.69c-0.35,0.55-0.9,0.43-1.41,0.42
			c-0.37-0.01-0.51,0.1-0.51,0.49c0.01,5.52,0.01,11.03,0,16.55c0,0.36,0.12,0.48,0.48,0.48c0.54,0,0.85,0.27,0.86,0.78
			c0.03,0.86,0.03,1.72,0,2.59c-0.02,0.5-0.32,0.79-0.82,0.78c-0.46-0.02-0.53,0.18-0.53,0.58c0.01,5.45,0.01,10.9,0,16.35
			c0,0.48,0.15,0.63,0.61,0.59c0.48-0.03,0.99-0.09,1.31,0.42c0,1.56-0.01,3.12,0.01,4.69c0,0.24-0.06,0.3-0.3,0.3
			C48.14,49.99,46.58,49.99,45.01,49.99z M47.31,3.88c1.19,0,1.19,0,1.19-1.17c0-0.02,0-0.03,0-0.05c0-1.15,0-1.15-1.16-1.15
			c-1.21,0-1.21,0-1.21,1.2C46.12,3.88,46.12,3.88,47.31,3.88z M48.49,47.32c0-1.2,0-1.2-1.16-1.2c-1.21,0-1.21,0-1.21,1.19
			c0,1.18,0,1.18,1.18,1.18C48.49,48.49,48.49,48.49,48.49,47.32z M24.97,3.2c0.39,0.06,0.61-0.03,0.6-0.5
			c-0.01-0.4-0.13-0.54-0.53-0.54c-0.38,0.01-0.62,0.04-0.6,0.52C24.45,3.08,24.54,3.28,24.97,3.2z M47.82,25.03
			c0.06-0.39-0.03-0.61-0.5-0.6c-0.4,0.01-0.55,0.12-0.54,0.53c0.01,0.37,0.04,0.62,0.52,0.6C47.69,25.55,47.9,25.46,47.82,25.03z"
			/>
		<path class="st3" d="M25,7.8c1.45,0,2.9-0.01,4.34,0c1.15,0.01,1.82,0.49,2.2,1.57c3.61,10.28,7.22,20.56,10.82,30.85
			c0.42,1.19-0.13,1.97-1.39,1.97c-2.62,0.01-5.24,0.01-7.86,0c-1.13,0-1.79-0.47-2.18-1.53c-0.62-1.66-1.24-3.32-1.83-4.99
			c-0.13-0.36-0.31-0.5-0.71-0.5c-2.26,0.02-4.52,0.02-6.79,0c-0.39,0-0.57,0.12-0.71,0.49c-0.59,1.64-1.21,3.26-1.81,4.9
			c-0.44,1.19-1.06,1.63-2.31,1.63c-2.55,0-5.11,0-7.66,0c-1.4,0-1.92-0.75-1.46-2.06c2.78-7.9,5.55-15.81,8.32-23.71
			c0.83-2.36,1.66-4.73,2.49-7.09c0.37-1.05,1.05-1.53,2.18-1.53C22.1,7.8,23.55,7.8,25,7.8z M22.64,9.4c-0.63,0-1.27,0.02-1.9-0.01
			c-0.44-0.02-0.7,0.14-0.82,0.57c-0.13,0.44-0.3,0.86-0.45,1.29c-2.14,6.11-4.29,12.21-6.43,18.32c-1.23,3.5-2.45,7-3.68,10.5
			C9.2,40.5,9.29,40.62,9.73,40.6c0.81-0.03,1.63-0.02,2.44,0c0.34,0.01,0.54-0.13,0.66-0.46c0.14-0.41,0.29-0.83,0.47-1.23
			c0.19-0.41,0.61-0.55,0.98-0.39c0.38,0.16,0.56,0.53,0.45,0.96c-0.06,0.23-0.15,0.47-0.24,0.69c-0.12,0.29-0.07,0.42,0.27,0.42
			c0.75-0.01,1.5-0.01,2.25,0c0.28,0,0.45-0.13,0.55-0.39c0.58-1.56,1.15-3.11,1.74-4.66c0.09-0.25,0.05-0.36-0.24-0.36
			c-0.49,0.01-0.98,0.05-1.46-0.01c-0.86-0.1-1.46,0.07-1.65,1.05c-0.1,0.49-0.58,0.67-1,0.52c-0.43-0.15-0.61-0.58-0.44-1.09
			c0.13-0.39,0.28-0.76,0.42-1.14c0.29-0.78,0.46-0.92,1.28-0.92c4.3,0,8.59,0,12.89,0c0.79,0,0.98,0.15,1.25,0.9
			c0.68,1.86,1.38,3.72,2.05,5.59c0.14,0.38,0.36,0.54,0.76,0.53c0.78-0.02,1.56,0,2.34-0.01c0.58,0,0.58,0,0.39-0.56
			c-1.74-4.96-3.48-9.91-5.22-14.87c-0.51-1.44-1.02-2.88-1.51-4.33c-0.2-0.61,0.19-1.17,0.75-1.11c0.45,0.05,0.65,0.37,0.79,0.77
			c0.84,2.41,1.69,4.82,2.53,7.23c1.45,4.13,2.89,8.26,4.32,12.39c0.13,0.38,0.32,0.51,0.71,0.49c0.58-0.03,1.17-0.01,1.76-0.01
			c0.8,0,0.81,0,0.55-0.74c-2.64-7.53-5.29-15.07-7.93-22.6c-0.85-2.42-1.71-4.85-2.55-7.28c-0.15-0.42-0.37-0.6-0.82-0.58
			c-0.67,0.03-1.33,0.02-2,0c-0.37-0.01-0.45,0.09-0.32,0.45c0.51,1.41,1,2.82,1.49,4.23c0.34,0.98,0.7,1.96,1.02,2.95
			c0.14,0.42-0.06,0.8-0.45,0.96c-0.38,0.16-0.78,0.01-0.98-0.39c-0.09-0.17-0.15-0.36-0.21-0.55c-0.82-2.35-1.65-4.69-2.47-7.05
			C25.2,9.58,24.97,9.37,24.5,9.4C23.88,9.43,23.26,9.4,22.64,9.4z"/>
		<path class="st3" d="M22.65,30.3c-1.66,0-3.32,0-4.98,0c-0.92,0-1.23-0.44-0.92-1.32c1.68-4.84,3.37-9.67,5.05-14.51
			c0.14-0.39,0.32-0.72,0.8-0.73c0.5-0.02,0.71,0.32,0.85,0.73c1.69,4.83,3.39,9.66,5.08,14.5c0.32,0.91,0,1.33-0.96,1.33
			C25.93,30.3,24.29,30.3,22.65,30.3z M22.67,17c-0.08,0.07-0.1,0.08-0.1,0.09c-1.31,3.76-2.63,7.51-3.95,11.27
			c-0.1,0.28,0.01,0.35,0.26,0.34c0.72-0.01,1.43-0.02,2.15,0.01c0.41,0.02,0.61-0.13,0.74-0.52c0.75-2.2,1.53-4.39,2.29-6.58
			c0.05-0.15,0.11-0.3,0.05-0.47C23.64,19.78,23.16,18.41,22.67,17z M25.07,23.86c-0.04,0-0.08,0.01-0.12,0.01
			c-0.52,1.5-1.04,3-1.57,4.5c-0.1,0.28,0.03,0.35,0.27,0.35c0.89,0,1.79-0.01,2.68,0c0.31,0,0.42-0.1,0.3-0.41
			c-0.17-0.46-0.32-0.92-0.48-1.38C25.79,25.9,25.43,24.88,25.07,23.86z"/>
	</g>
</g>
<g id="Monograms" class="st0">
	<g class="st1">
		<path class="st3" d="M7.08,37.37c0-1.44-0.01-2.87,0.01-4.31c0.01-0.43-0.13-0.73-0.43-1.02C4.63,30.03,2.61,28,0.6,25.98
			c-0.79-0.79-0.79-1.17-0.01-1.95c2.03-2.03,4.06-4.07,6.1-6.09c0.29-0.28,0.41-0.58,0.41-0.98c-0.01-2.89-0.01-5.78-0.01-8.67
			c0-0.95,0.25-1.21,1.19-1.21c2.87,0,5.75-0.01,8.62,0.01c0.44,0,0.76-0.12,1.08-0.44C19.97,4.61,22,2.6,24.02,0.58
			c0.77-0.77,1.18-0.77,1.96,0.01c2.02,2.02,4.04,4.03,6.05,6.06c0.3,0.3,0.6,0.43,1.03,0.43c2.86-0.02,5.71-0.01,8.57-0.01
			c1.06,0,1.29,0.22,1.29,1.27c0,2.86,0.01,5.71-0.01,8.57c0,0.45,0.14,0.76,0.45,1.07c2.02,1.99,4.02,4,6.03,6.01
			c0.81,0.81,0.81,1.18,0,1.99c-2.02,2.02-4.03,4.04-6.06,6.05c-0.3,0.3-0.42,0.61-0.42,1.03c0.02,2.89,0.01,5.78,0.01,8.67
			c0,0.91-0.27,1.18-1.17,1.18c-2.91,0-5.82,0.01-8.73-0.01c-0.39,0-0.66,0.12-0.93,0.39c-2.04,2.05-4.08,4.09-6.13,6.14
			c-0.76,0.76-1.15,0.75-1.91-0.01c-2.02-2.02-4.04-4.03-6.05-6.06c-0.31-0.31-0.62-0.45-1.07-0.45c-2.89,0.02-5.78,0.01-8.67,0.01
			c-0.9,0-1.16-0.27-1.17-1.18C7.08,40.28,7.08,38.83,7.08,37.37z M13.61,8.85c-1.37,0-2.73,0.02-4.1-0.01
			C9.01,8.83,8.84,8.97,8.85,9.49c0.02,2.64-0.01,5.29,0.02,7.93c0.01,0.64-0.18,1.1-0.63,1.55c-1.86,1.82-3.7,3.68-5.54,5.52
			c-0.5,0.5-0.5,0.5-0.02,0.98c1.86,1.86,3.7,3.72,5.58,5.56c0.42,0.42,0.62,0.85,0.61,1.45c-0.03,2.66,0,5.32-0.02,7.98
			c-0.01,0.55,0.17,0.68,0.7,0.68c2.68-0.03,5.36,0,8.04-0.02c0.54,0,0.94,0.17,1.32,0.55c1.89,1.92,3.81,3.81,5.71,5.73
			c0.31,0.32,0.49,0.31,0.8,0c1.91-1.93,3.84-3.84,5.75-5.77c0.35-0.35,0.72-0.51,1.22-0.51c2.71,0.02,5.43,0,8.14,0.02
			c0.48,0,0.64-0.13,0.64-0.63c-0.02-2.66,0-5.32-0.02-7.98c-0.01-0.61,0.17-1.07,0.61-1.5c1.86-1.83,3.7-3.68,5.54-5.52
			c0.52-0.52,0.52-0.52,0.02-1.02c-1.84-1.84-3.68-3.7-5.54-5.53c-0.44-0.43-0.64-0.87-0.63-1.5c0.03-2.66,0-5.32,0.02-7.98
			c0-0.52-0.17-0.65-0.67-0.65c-2.7,0.02-5.39,0-8.09,0.02c-0.52,0-0.91-0.16-1.27-0.53c-1.89-1.92-3.82-3.81-5.71-5.73
			c-0.33-0.34-0.52-0.33-0.84,0c-1.9,1.93-3.84,3.84-5.75,5.77c-0.34,0.34-0.7,0.5-1.18,0.49C16.31,8.84,14.96,8.85,13.61,8.85z"/>
		<path class="st3" d="M39.51,34.95c0,1.14,0,2.27,0,3.41c0,0.88-0.27,1.15-1.14,1.15c-2.2,0-4.4,0.02-6.6-0.01
			c-0.55-0.01-0.92,0.16-1.3,0.55c-1.51,1.55-3.05,3.07-4.58,4.6c-0.71,0.71-1.08,0.7-1.79,0c-1.54-1.54-3.1-3.08-4.62-4.64
			c-0.35-0.36-0.7-0.52-1.21-0.51c-2.22,0.03-4.43,0.01-6.65,0.01c-0.87,0-1.14-0.28-1.14-1.15c0-2.27-0.01-4.54,0.01-6.81
			c0-0.37-0.11-0.63-0.37-0.89c-1.58-1.56-3.14-3.13-4.71-4.7c-0.8-0.8-0.8-1.12,0.02-1.94c1.55-1.56,3.1-3.12,4.67-4.66
			c0.27-0.27,0.39-0.55,0.39-0.93c-0.02-2.25-0.01-4.51-0.01-6.76c0-0.91,0.26-1.18,1.16-1.18c2.23,0,4.47-0.01,6.7,0.01
			c0.45,0,0.76-0.14,1.07-0.45c1.57-1.59,3.15-3.17,4.74-4.75c0.63-0.63,1.05-0.63,1.67,0c1.58,1.58,3.17,3.15,4.73,4.75
			c0.33,0.33,0.66,0.46,1.12,0.45c2.23-0.02,4.47-0.01,6.7-0.01c0.83,0,1.11,0.28,1.11,1.12c0,2.29,0.01,4.58,0,6.87
			c0,0.35,0.1,0.6,0.35,0.84c1.59,1.57,3.17,3.16,4.75,4.74c0.77,0.77,0.77,1.12-0.02,1.9c-1.57,1.57-3.13,3.14-4.71,4.7
			c-0.26,0.26-0.38,0.52-0.37,0.89C39.53,32.68,39.51,33.81,39.51,34.95z M12.27,33.98c0,1.01,0,2.02,0,3.03
			c0,0.71,0,0.71,0.74,0.71c1.99,0,3.97,0.02,5.96-0.01c0.56-0.01,0.97,0.18,1.36,0.57c1.41,1.45,2.86,2.86,4.28,4.3
			c0.3,0.31,0.48,0.34,0.8,0.01c1.45-1.48,2.93-2.94,4.39-4.41c0.32-0.33,0.67-0.47,1.13-0.47c2.08,0.02,4.15-0.01,6.23,0.02
			c0.47,0,0.61-0.13,0.61-0.6c-0.02-2.08,0-4.15-0.02-6.23c0-0.46,0.14-0.81,0.47-1.13c1.48-1.46,2.93-2.94,4.41-4.39
			c0.32-0.32,0.31-0.49-0.01-0.8c-1.46-1.43-2.88-2.89-4.34-4.31c-0.39-0.38-0.54-0.78-0.54-1.32c0.02-2,0.01-4.01,0.01-6.01
			c0-0.69,0-0.69-0.71-0.69c-1.99,0-3.97-0.02-5.96,0.01c-0.58,0.01-1-0.18-1.4-0.59c-1.4-1.43-2.84-2.83-4.24-4.27
			c-0.32-0.33-0.5-0.36-0.84-0.01c-1.45,1.49-2.93,2.94-4.39,4.41c-0.31,0.31-0.64,0.45-1.08,0.45c-2.09-0.02-4.19,0-6.28-0.01
			c-0.44,0-0.58,0.13-0.58,0.57c0.02,2.08,0,4.15,0.02,6.23c0,0.48-0.14,0.84-0.49,1.18c-1.48,1.46-2.93,2.94-4.41,4.39
			c-0.31,0.3-0.29,0.47,0.01,0.76c1.43,1.4,2.83,2.84,4.27,4.24c0.44,0.43,0.66,0.87,0.63,1.49C12.23,32.07,12.27,33.03,12.27,33.98
			z"/>
		<path class="st3" d="M32.13,35.56c-0.73,0-1.45,0.02-2.18-0.01c-0.41-0.02-0.7,0.13-0.98,0.41c-0.99,1.01-2,2.01-3,3.01
			c-0.75,0.75-1.13,0.75-1.87,0.02c-1.03-1.03-2.06-2.05-3.08-3.09c-0.24-0.25-0.49-0.36-0.84-0.35c-1.49,0.01-2.98,0.01-4.47,0
			c-0.93,0-1.26-0.33-1.26-1.24c-0.01-1.42-0.02-2.84,0.01-4.26c0.01-0.5-0.12-0.86-0.49-1.22c-1.03-0.98-2.02-2-3.02-3
			c-0.63-0.63-0.64-1.05-0.01-1.67c1.04-1.04,2.07-2.09,3.13-3.12c0.27-0.27,0.4-0.55,0.39-0.93c-0.02-1.44-0.01-2.87-0.01-4.31
			c0-1.06,0.31-1.37,1.35-1.38c1.44,0,2.87-0.01,4.31,0.01c0.38,0,0.67-0.11,0.94-0.38c1.04-1.07,2.1-2.11,3.16-3.16
			c0.58-0.58,1.02-0.58,1.6-0.01c1.07,1.06,2.14,2.12,3.19,3.2c0.24,0.25,0.5,0.35,0.84,0.35c1.49-0.01,2.98-0.01,4.47,0
			c0.92,0,1.25,0.34,1.26,1.25c0.01,1.44,0.02,2.87,0,4.31c-0.01,0.42,0.11,0.73,0.42,1.03C36.98,22,37.96,23,38.95,24
			c0.8,0.8,0.8,1.18-0.01,2c-1,1.01-2,2.01-3.01,3.01c-0.26,0.26-0.37,0.52-0.37,0.89c0.02,1.47,0.01,2.94,0,4.42
			c0,0.92-0.33,1.25-1.25,1.25C33.58,35.57,32.86,35.56,32.13,35.56z M33.71,24.99c0-1.05-0.01-2.09,0.01-3.14
			c0.01-0.35-0.1-0.6-0.35-0.85c-1.46-1.45-2.92-2.9-4.37-4.37c-0.24-0.25-0.49-0.36-0.84-0.36c-2.11,0.01-4.22,0.01-6.33,0
			c-0.33,0-0.57,0.1-0.8,0.33c-1.46,1.48-2.93,2.94-4.4,4.4c-0.25,0.25-0.34,0.51-0.34,0.85c0.01,2.09,0.01,4.19,0,6.28
			c0,0.35,0.1,0.6,0.35,0.84c1.46,1.45,2.92,2.9,4.37,4.37c0.24,0.24,0.49,0.36,0.84,0.36c2.11-0.01,4.22-0.01,6.33,0
			c0.33,0,0.57-0.1,0.8-0.33c1.46-1.48,2.93-2.94,4.4-4.4c0.25-0.25,0.34-0.51,0.33-0.85C33.7,27.08,33.71,26.03,33.71,24.99z
			 M26.79,14.41c-0.59-0.58-1.07-1.05-1.55-1.52c-0.12-0.12-0.24-0.24-0.4-0.07c-0.51,0.5-1.01,1.01-1.59,1.59
			C24.46,14.41,25.54,14.41,26.79,14.41z M14.41,23.2c-0.58,0.59-1.05,1.07-1.52,1.55c-0.14,0.14-0.22,0.27-0.04,0.45
			c0.5,0.49,0.99,0.99,1.56,1.56C14.41,25.54,14.41,24.45,14.41,23.2z M35.59,23.2c0,1.25,0,2.34,0,3.54
			c0.58-0.58,1.09-1.08,1.59-1.59c0.13-0.13,0.06-0.25-0.05-0.37C36.66,24.29,36.18,23.8,35.59,23.2z M26.7,35.7
			c-0.03-0.04-0.05-0.07-0.08-0.11c-1.09,0-2.17,0-3.41,0c0.59,0.58,1.1,1.07,1.59,1.56c0.15,0.15,0.27,0.11,0.41-0.02
			C25.71,36.65,26.21,36.18,26.7,35.7z M16.3,18.51c0.74-0.74,1.5-1.5,2.23-2.22c-0.55,0-1.2,0-1.86,0c-0.23,0-0.37,0.09-0.37,0.34
			C16.3,17.3,16.3,17.97,16.3,18.51z M31.42,16.29c0.77,0.77,1.53,1.53,2.28,2.28c0-0.6,0-1.27,0-1.94c0-0.25-0.14-0.34-0.37-0.34
			C32.68,16.29,32.02,16.29,31.42,16.29z M18.61,33.7c-0.77-0.77-1.54-1.54-2.31-2.31c0,0.64,0,1.33,0,2.01
			c0,0.19,0.12,0.29,0.31,0.29C17.29,33.7,17.97,33.7,18.61,33.7z M31.38,33.7c0.66,0,1.34,0,2.03,0c0.19,0,0.3-0.11,0.3-0.3
			c0-0.68,0-1.37,0-2.01C32.92,32.16,32.16,32.92,31.38,33.7z"/>
	</g>
</g>
<g id="Brand_Marks" class="st0">
	<g class="st1">
		<path class="st3" d="M50,18.82c0,4.09,0,8.19,0,12.28c-0.31,0.91-0.9,1.51-1.86,1.67c-0.35,0.06-0.72,0.05-1.07,0.03
			c-0.43-0.03-0.57,0.16-0.56,0.58c0.05,1.23,0.06,2.45,0.11,3.68c0.02,0.38-0.12,0.6-0.45,0.77c-1.64,0.87-3.26,1.78-4.9,2.65
			c-0.41,0.22-0.69,0.51-0.91,0.92c-0.87,1.65-1.76,3.28-2.63,4.93c-0.15,0.29-0.32,0.45-0.68,0.44c-1.9-0.07-3.8-0.11-5.7-0.19
			c-0.38-0.01-0.69,0.05-1.01,0.25c-1.6,1.01-3.22,1.98-4.81,3c-0.39,0.25-0.68,0.23-1.06-0.01c-1.61-1.02-3.24-2.02-4.86-3.02
			c-0.22-0.14-0.45-0.23-0.73-0.22c-1.95,0.07-3.9,0.11-5.85,0.19c-0.41,0.02-0.61-0.15-0.79-0.49c-0.88-1.66-1.78-3.31-2.66-4.97
			c-0.18-0.35-0.43-0.59-0.77-0.78c-1.62-0.87-3.23-1.77-4.86-2.62c-0.44-0.23-0.6-0.51-0.57-1c0.06-1.11,0.08-2.22,0.1-3.34
			c0.02-0.76,0-0.8-0.75-0.75C1.45,32.88,0.52,32.4,0,31.19c0-4.13,0-8.25,0-12.38c0.35-0.76,0.85-1.35,1.71-1.55
			c0.4-0.09,0.81-0.07,1.22-0.05c0.42,0.02,0.58-0.14,0.56-0.57c-0.05-1.19-0.06-2.39-0.11-3.58c-0.02-0.45,0.12-0.71,0.53-0.93
			c1.63-0.86,3.24-1.76,4.86-2.62c0.38-0.2,0.64-0.47,0.84-0.85c0.88-1.66,1.78-3.31,2.66-4.97c0.14-0.26,0.28-0.46,0.62-0.44
			c1.93,0.06,3.87,0.1,5.8,0.17c0.36,0.01,0.66-0.04,0.97-0.23c1.61-1.01,3.24-2,4.86-3.02c0.35-0.22,0.62-0.23,0.97,0
			c1.62,1.03,3.27,2.03,4.9,3.05c0.27,0.17,0.55,0.24,0.88,0.23c1.9-0.07,3.8-0.12,5.71-0.19c0.4-0.02,0.62,0.14,0.8,0.49
			c0.87,1.65,1.76,3.28,2.63,4.93c0.2,0.38,0.46,0.65,0.84,0.85c1.64,0.87,3.26,1.78,4.9,2.65c0.37,0.2,0.5,0.44,0.49,0.85
			c-0.05,1.14-0.08,2.29-0.1,3.43c-0.02,0.76,0,0.8,0.75,0.75C48.55,17.12,49.48,17.61,50,18.82z M25.03,18.82
			c-7.47,0-14.94,0-22.41,0c-0.93,0-1.11,0.18-1.11,1.12c0,3.34,0,6.68,0,10.02c0,1.07,0.15,1.22,1.2,1.23c6.4,0,12.79,0,19.19,0
			c0.2,0,0.39,0,0.59,0.01c0.13,0.01,0.29,0.02,0.33,0.16c0.11,0.42,0.14,0.86,0,1.25c-0.12,0.32-0.49,0.18-0.75,0.18
			c-3.79,0.01-7.58,0.01-11.38,0.01c-0.58,0-0.58,0.02-0.29,0.53c3.39,5.99,10.06,9.38,16.79,8.42c5.47-0.78,9.61-3.62,12.42-8.41
			c0.31-0.52,0.29-0.53-0.33-0.53c-3.76,0-7.52,0-11.28,0c-0.18,0-0.36,0-0.54-0.01c-0.19-0.01-0.31-0.11-0.32-0.3
			c-0.01-0.33-0.01-0.65,0-0.98c0-0.2,0.14-0.29,0.32-0.3c0.21-0.01,0.42-0.02,0.63-0.02c6.43,0,12.86,0,19.29,0
			c0.93,0,1.11-0.18,1.12-1.12c0-3.34,0-6.68,0-10.02c0-1.07-0.15-1.22-1.2-1.22C39.87,18.82,32.45,18.82,25.03,18.82z M24.99,17.21
			c4.77,0,9.54,0,14.31,0c0.6,0,0.6-0.01,0.33-0.51C35.16,8.73,25.11,5.79,17.1,10.1c-0.83,0.45-0.68,0.62-1.26-0.35
			c-0.34-0.57-0.34-0.58,0.22-0.88c4.8-2.6,9.8-3.09,14.95-1.3c4.69,1.63,8.15,4.74,10.41,9.19c0.17,0.34,0.37,0.49,0.75,0.47
			c0.72-0.03,1.43-0.02,2.15,0c0.41,0.01,0.59-0.11,0.6-0.55c0-0.85,0.02-1.7,0.09-2.55c0.04-0.55-0.14-0.86-0.64-1.11
			c-1.42-0.73-2.81-1.52-4.22-2.26c-0.44-0.23-0.74-0.55-0.97-0.99c-0.76-1.45-1.55-2.88-2.3-4.33c-0.2-0.38-0.43-0.55-0.87-0.54
			c-1.74,0.06-3.48,0.08-5.22,0.14c-0.33,0.01-0.6-0.06-0.87-0.23c-1.49-0.93-3-1.85-4.48-2.79c-0.3-0.19-0.54-0.19-0.84,0
			c-1.47,0.93-2.96,1.84-4.44,2.77c-0.3,0.19-0.6,0.26-0.96,0.25C17.45,4.96,15.73,4.94,14,4.88c-0.44-0.02-0.68,0.15-0.87,0.53
			c-0.74,1.42-1.52,2.82-2.25,4.25c-0.27,0.52-0.63,0.87-1.14,1.14c-1.43,0.75-2.83,1.54-4.26,2.3C5.12,13.29,4.98,13.52,5,13.91
			c0.05,0.93,0.08,1.86,0.09,2.8c0.01,0.39,0.18,0.51,0.54,0.5c0.72-0.02,1.43-0.03,2.15,0c0.42,0.02,0.64-0.15,0.82-0.52
			c1.19-2.39,2.83-4.43,4.9-6.1c0.95-0.76,0.74-0.67,1.41,0.18c0.27,0.35,0.24,0.56-0.12,0.83c-1.8,1.37-3.25,3.06-4.38,5.03
			c-0.32,0.56-0.32,0.57,0.31,0.57C15.48,17.21,20.23,17.21,24.99,17.21z M17.91,45.12c0-0.04,0-0.07,0-0.11
			c0.31,0,0.62,0.04,0.93-0.01c0.64-0.1,1.16,0.14,1.68,0.47c1.34,0.86,2.72,1.68,4.06,2.54c0.3,0.19,0.54,0.19,0.84,0
			c1.49-0.94,2.99-1.86,4.48-2.79c0.27-0.17,0.54-0.24,0.87-0.23c1.74,0.06,3.48,0.07,5.22,0.14c0.44,0.02,0.68-0.15,0.87-0.53
			c0.77-1.48,1.58-2.94,2.35-4.42c0.21-0.4,0.49-0.67,0.88-0.88c1.5-0.79,2.98-1.62,4.47-2.41c0.29-0.15,0.45-0.34,0.43-0.69
			c-0.04-0.98-0.07-1.96-0.09-2.94c-0.01-0.33-0.15-0.47-0.48-0.46c-0.62,0.01-1.24,0.05-1.85-0.01c-0.69-0.07-1.02,0.21-1.34,0.82
			c-3.65,7.12-11.72,11.1-19.53,9.57c-5.93-1.16-10.3-4.49-13.11-9.88c-0.19-0.37-0.42-0.52-0.83-0.51c-0.71,0.03-1.43,0.02-2.15,0
			c-0.37-0.01-0.53,0.13-0.53,0.51C5.07,34.22,5.05,35.14,5,36.05c-0.03,0.44,0.14,0.68,0.52,0.88c1.47,0.78,2.92,1.59,4.39,2.36
			c0.39,0.21,0.67,0.48,0.87,0.88c0.77,1.48,1.58,2.94,2.35,4.42c0.2,0.38,0.44,0.54,0.88,0.53C15.31,45.1,16.61,45.12,17.91,45.12z
			"/>
		<path class="st3" d="M34.62,25.37c0-1.18,0.02-2.35-0.01-3.53c-0.01-0.48,0.15-0.62,0.62-0.61c0.94,0.02,0.94,0,0.94,0.92
			c0,1.96-0.01,3.93,0.01,5.89c0.01,0.48-0.13,0.64-0.63,0.66c-0.63,0.03-1-0.17-1.32-0.73c-0.67-1.17-1.42-2.3-2.15-3.46
			c-0.17,0.13-0.1,0.29-0.1,0.42c-0.01,1.11-0.01,2.23,0,3.34c0.01,0.38-0.13,0.52-0.51,0.52c-1.21-0.01-1.03,0.06-1.04-1.01
			c-0.01-1.98,0.01-3.96-0.01-5.94c0-0.44,0.14-0.58,0.58-0.6c0.64-0.04,1.04,0.15,1.37,0.74c0.66,1.18,1.42,2.3,2.14,3.45
			C34.55,25.39,34.59,25.38,34.62,25.37z"/>
		<path class="st3" d="M5.54,24.97c0-1.06,0.01-2.13,0-3.19c-0.01-0.39,0.13-0.56,0.54-0.55c0.68,0.02,1.37-0.01,2.05,0.01
			c1.45,0.04,2.43,1.45,1.97,2.83c-0.11,0.33-0.1,0.54,0.13,0.83c0.61,0.77,0.72,1.64,0.27,2.53c-0.43,0.86-1.13,1.33-2.1,1.34
			c-0.76,0.01-1.53-0.02-2.29,0.01c-0.43,0.01-0.57-0.16-0.56-0.57C5.55,27.13,5.54,26.05,5.54,24.97z M7.94,25.59
			c-0.22,0.04-0.59-0.12-0.71,0.18c-0.16,0.41-0.16,0.88,0,1.29c0.12,0.3,0.49,0.16,0.75,0.16c0.78,0.01,1.18-0.3,1.17-0.85
			C9.13,25.82,8.78,25.59,7.94,25.59z M7.71,23.99c0.59,0,0.91-0.23,0.91-0.59c0-0.37-0.29-0.54-0.87-0.56
			c-0.43-0.01-0.61,0.14-0.61,0.59C7.14,23.91,7.35,24.04,7.71,23.99z"/>
		<path class="st3" d="M15.07,26.6c0,0.57-0.01,1.14,0,1.71c0.01,0.34-0.14,0.45-0.47,0.46c-1.14,0.04-1.14,0.05-1.14-1.07
			c0-1.93,0-3.86,0-5.79c0-0.65,0.03-0.67,0.65-0.68c0.6,0,1.2-0.01,1.81,0c1.08,0.03,2,0.75,2.27,1.76
			c0.26,1.01-0.16,2.04-1.13,2.58c-0.39,0.22-0.35,0.36-0.1,0.64c0.41,0.46,0.8,0.95,1.2,1.42c0.17,0.2,0.16,0.34-0.03,0.54
			c-0.86,0.86-0.85,0.86-1.64-0.06c-0.44-0.52-0.88-1.04-1.32-1.57C15.14,26.57,15.1,26.59,15.07,26.6z M15.07,23.48
			c0,0.77,0.04,0.83,0.56,0.83c0.67,0,1.05-0.28,1.03-0.75c-0.01-0.46-0.38-0.69-1.02-0.72C15.09,22.81,15.03,23.12,15.07,23.48z"/>
		<path class="st3" d="M38.93,24.91c0-1.05,0.01-2.09-0.01-3.14c-0.01-0.4,0.13-0.56,0.53-0.54c0.6,0.02,1.2,0,1.8,0.01
			c1.43,0.01,2.45,0.72,2.93,2.07c0.38,1.07,0.38,2.15-0.02,3.22c-0.5,1.34-1.53,2.05-2.95,2.06c-0.6,0-1.2-0.01-1.8,0
			c-0.36,0.01-0.49-0.13-0.49-0.49C38.94,27.04,38.93,25.97,38.93,24.91z M42.85,24.9c-0.01-0.18,0-0.36-0.03-0.54
			c-0.13-1.05-0.83-1.64-1.87-1.58c-0.27,0.02-0.44,0.12-0.44,0.4c0,1.14,0,2.29,0,3.43c0,0.22,0.09,0.36,0.34,0.4
			c0.76,0.13,1.47-0.25,1.79-0.98C42.81,25.68,42.87,25.3,42.85,24.9z"/>
		<path class="st3" d="M24.27,21.26c0.55-0.14,0.78,0.12,0.95,0.6c0.72,1.98,1.46,3.95,2.22,5.92c0.17,0.45,0.13,0.67-0.36,0.82
			c-1,0.33-0.87,0.44-1.25-0.58c-0.29-0.76-0.29-0.76-1.12-0.77c-0.07,0-0.13,0.01-0.19,0c-1.02-0.16-1.78,0.07-1.96,1.26
			c-0.05,0.34-0.29,0.37-0.59,0.25c-1.22-0.49-1.07-0.28-0.65-1.4c0.68-1.84,1.4-3.66,2.07-5.5C23.55,21.41,23.74,21.09,24.27,21.26
			z M24.35,24.1c-0.04,0-0.08,0.01-0.11,0.01c-0.15,0.39-0.31,0.79-0.46,1.18c-0.1,0.25-0.01,0.37,0.26,0.37c0.2-0.01,0.39,0,0.59,0
			c0.19,0,0.27-0.09,0.2-0.28C24.67,24.95,24.51,24.52,24.35,24.1z"/>
		<path class="st3" d="M24.96,32.8c-0.77,0-0.77,0-0.77-0.85c0-0.74,0.02-0.76,0.82-0.76c0.78,0,0.79,0.01,0.79,0.84
			C25.8,32.8,25.8,32.8,24.96,32.8z"/>
		<path class="st3" d="M30.9,11.74c0,0.81,0,0.81-0.79,0.81c-0.75,0-0.75,0-0.75-0.81c0-0.81,0-0.81,0.79-0.81
			C30.9,10.93,30.9,10.93,30.9,11.74z"/>
		<path class="st3" d="M32.29,13.23c0-0.82,0-0.82,0.78-0.82c0.76,0,0.76,0,0.76,0.8c0,0.82,0,0.82-0.78,0.82
			C32.29,14.02,32.29,14.02,32.29,13.23z"/>
	</g>
</g>
<g id="Abstract_Logos" class="st0">
	<g class="st1">
		<path class="st3" d="M32.71,0c3.68,0,7.36,0,11.04,0c1.14,0.23,2.21,0.62,3.17,1.3c1.72,1.22,2.69,2.91,3.08,4.95
			c0,3.68,0,7.36,0,11.04c-0.02,0.06-0.04,0.12-0.05,0.19c-0.67,3.7-3.96,6.21-7.59,6.12c-3.09-0.07-6.18-0.16-9.27,0.06
			c-3.8,0.27-6.56,2.2-8.37,5.51c-0.94,1.72-1.15,3.6-1.15,5.53c0.01,2.7,0,5.4,0,8.1c0,1.53-0.48,2.91-1.36,4.15
			c-1.21,1.71-2.9,2.66-4.93,3.05c-3.68,0-7.36,0-11.04,0c-1.14-0.23-2.21-0.62-3.17-1.3C1.36,47.48,0.39,45.79,0,43.75
			c0-3.68,0-7.36,0-11.04c0.02-0.06,0.04-0.12,0.05-0.19c0.67-3.7,3.96-6.21,7.59-6.12c3.09,0.07,6.18,0.16,9.27-0.06
			c3.8-0.27,6.56-2.2,8.37-5.51c0.94-1.72,1.15-3.6,1.15-5.53c-0.01-2.7,0-5.4,0-8.1c0-1.53,0.48-2.91,1.36-4.15
			C29,1.35,30.68,0.39,32.71,0z M28.32,21.63c0.17,0.08,0.28-0.01,0.39-0.06c1.75-0.73,3.57-1.04,5.47-1.02
			c2.67,0.03,5.33,0.01,8,0.01c0.52,0,1.04-0.04,1.55-0.17c2.07-0.56,3.29-2.21,3.3-4.51c0.01-2.75,0.01-5.5,0-8.25
			c0-0.47-0.04-0.94-0.17-1.4c-0.57-2.04-2.19-3.25-4.43-3.27c-2.8-0.02-5.6-0.03-8.39,0c-1.85,0.02-3.29,0.79-4.14,2.5
			c-0.36,0.72-0.45,1.49-0.45,2.28c-0.01,2.8-0.01,5.6,0,8.39c0.01,1.33-0.18,2.62-0.57,3.89C28.7,20.57,28.5,21.1,28.32,21.63z
			 M21.68,28.36c-0.15-0.06-0.25,0.01-0.35,0.05c-1.78,0.75-3.64,1.06-5.57,1.03c-2.65-0.03-5.3-0.01-7.95-0.01
			c-0.52,0-1.04,0.04-1.54,0.18c-2.07,0.57-3.28,2.22-3.29,4.52c-0.01,2.73-0.01,5.47,0,8.2c0,0.47,0.05,0.95,0.17,1.4
			c0.54,2.04,2.16,3.28,4.4,3.3c2.81,0.03,5.63,0.03,8.44,0c1.85-0.02,3.29-0.8,4.14-2.51c0.36-0.72,0.44-1.49,0.44-2.28
			c0.01-2.77,0.02-5.53,0-8.3c-0.01-1.51,0.24-2.97,0.7-4.41C21.38,29.13,21.61,28.77,21.68,28.36z"/>
		<path class="st3" d="M0,17.29c0-3.68,0-7.36,0-11.04c0.23-1.14,0.62-2.22,1.3-3.17C2.52,1.36,4.21,0.39,6.25,0
			c3.68,0,7.36,0,11.04,0c0.06,0.02,0.12,0.04,0.19,0.06c3.63,0.69,6.09,3.66,6.1,7.34c0.01,2.98,0.01,5.95,0,8.93
			c-0.02,3.96-3.28,7.23-7.25,7.25c-3.04,0.01-6.08,0-9.12,0c-1.53,0-2.91-0.48-4.15-1.36C1.34,21,0.39,19.32,0,17.29z M2.97,11.46
			c0,1.64,0,2.98,0,4.31c0,0.5,0.04,1.01,0.17,1.5c0.57,2.07,2.22,3.28,4.51,3.3c2.73,0.01,5.47,0.01,8.2,0
			c0.47,0,0.95-0.05,1.4-0.17c2.09-0.55,3.3-2.22,3.31-4.55c0.01-2.72,0.01-5.44,0-8.15c0-0.49-0.04-0.98-0.17-1.45
			c-0.55-1.98-2.01-3.2-4.24-3.24C13,2.94,9.84,2.84,6.68,3.07C4.92,3.19,3.23,4.94,3.05,6.7C2.88,8.39,3.03,10.08,2.97,11.46z"/>
		<path class="st3" d="M43.75,50c-3.68,0-7.36,0-11.04,0c-0.06-0.02-0.12-0.04-0.19-0.06c-3.63-0.69-6.09-3.66-6.1-7.34
			c-0.01-2.98-0.01-5.95,0-8.93c0.02-3.96,3.28-7.23,7.25-7.25c3.04-0.01,6.08,0,9.12,0c1.53,0,2.91,0.48,4.15,1.36
			c1.71,1.21,2.66,2.9,3.05,4.93c0,3.68,0,7.36,0,11.04c-0.23,1.14-0.62,2.22-1.3,3.17C47.48,48.64,45.79,49.61,43.75,50z
			 M38.58,29.43c-1.65,0-3,0-4.36,0c-0.5,0-1.01,0.04-1.5,0.17c-2.06,0.56-3.28,2.2-3.29,4.47c-0.02,2.77-0.01,5.53,0,8.3
			c0,0.45,0.05,0.92,0.17,1.35c0.54,2.05,2.16,3.28,4.4,3.3c2.81,0.03,5.63,0.03,8.45,0c1.85-0.02,3.28-0.81,4.14-2.52
			c0.31-0.61,0.43-1.28,0.43-1.94c-0.02-3.12,0.14-6.25-0.08-9.37c-0.13-1.82-1.86-3.5-3.68-3.68
			C41.6,29.35,39.94,29.49,38.58,29.43z"/>
	</g>
</g>
<g id="Mascots" class="st0">
	<g class="st1">
		<defs>
			<rect id="SVGID_3_" x="0" width="50" height="50"/>
		</defs>
		<clipPath id="SVGID_4_">
			<use xlink:href="#SVGID_3_"  style="overflow:visible;"/>
		</clipPath>
		<g class="st4">
			<path class="st3" d="M10.35,50c-1.01-0.43-1.41-1.21-1.39-2.29c0.04-2.32,1.37-4.17,3.58-4.87c0.37-0.12,0.49-0.3,0.54-0.68
				c0.35-2.77,0.77-5.54,1.29-8.28c0.02-0.12,0.09-0.25-0.03-0.4c-0.36,0.2-0.61,0.52-0.87,0.82c-0.66,0.75-1.19,1.58-1.64,2.47
				c-1.05,2.12-3.31,2.94-5.27,1.95c-1.79-0.9-2.55-3-1.73-4.92c0.73-1.7,1.72-3.25,2.94-4.64c0.62-0.71,1.3-1.37,2.03-1.97
				c0.54-0.44,0.95-0.45,1.28-0.06c0.32,0.38,0.22,0.86-0.31,1.3c-0.8,0.67-1.53,1.41-2.2,2.21c-0.21,0.25-0.25,0.4,0.06,0.61
				c1.02,0.7,2.03,1.42,3.03,2.14c0.24,0.17,0.39,0.14,0.57-0.07c0.74-0.83,1.57-1.56,2.49-2.18c0.17-0.12,0.26-0.27,0.31-0.47
				c0.38-1.71,0.8-3.42,1.27-5.11c0.03-0.12,0.13-0.26,0.01-0.36c-0.12-0.11-0.25,0.01-0.36,0.06c-0.68,0.34-1.37,0.69-2.04,1.04
				c-0.55,0.29-0.98,0.21-1.23-0.23c-0.24-0.43-0.08-0.85,0.47-1.15c1.1-0.6,2.22-1.16,3.38-1.63c0.24-0.09,0.48-0.18,0.6-0.46
				c0.19-0.43,0.2-0.72-0.27-1.04c-1.75-1.22-2.97-2.85-3.63-4.89c-0.1-0.32-0.24-0.42-0.59-0.4c-0.98,0.08-1.95-0.06-2.86-0.46
				c-1.19-0.52-1.66-1.42-1.35-2.68c0.57-2.31,2-4.02,3.88-5.38c0.9-0.65,1.89-1.14,2.96-1.48c0.55-0.18,0.58-0.26,0.39-0.82
				c-0.38-1.12-0.61-2.26-0.47-3.45c0.11-0.97,0.43-1.8,1.4-2.24c0.39,0,0.78,0,1.17,0c0.6,0.26,1.08,0.66,1.47,1.17
				c0.47,0.62,0.95,1.24,1.42,1.86c0.16,0.21,0.32,0.26,0.59,0.19c2.5-0.65,5.01-0.67,7.51,0c0.29,0.08,0.46,0.01,0.63-0.21
				c0.4-0.54,0.8-1.06,1.2-1.6C31.03,0.82,31.53,0.3,32.23,0c0.39,0,0.78,0,1.17,0c1.42,0.66,1.46,1.96,1.45,3.24
				c-0.01,0.83-0.22,1.64-0.5,2.43c-0.21,0.59-0.18,0.64,0.41,0.84c2.35,0.78,4.24,2.17,5.64,4.22c0.54,0.79,0.95,1.63,1.17,2.56
				c0.29,1.24-0.08,2.08-1.21,2.68c-0.92,0.49-1.92,0.6-2.94,0.54c-0.38-0.02-0.54,0.08-0.66,0.44c-0.68,2.04-1.92,3.68-3.69,4.9
				c-0.33,0.23-0.36,0.42-0.27,0.8c0.16,0.65,0.51,0.98,1.14,1.15c0.74,0.2,1.46,0.45,2.16,0.76c0.51,0.22,0.74,0.08,0.97-0.39
				c0.46-0.92,0.95-1.82,1.48-2.7c0.81-1.36,2.35-2.08,3.86-1.85c1.54,0.24,2.78,1.37,3.17,2.88c0.24,0.92,0.14,1.82-0.3,2.65
				c-0.65,1.24-1.28,2.49-2.03,3.68c-1.65,2.62-4.06,3.85-7.17,3.62c-0.73-0.05-0.73-0.07-0.59,0.68c0.2,1.09,0.4,2.17,0.59,3.26
				c0.09,0.54-0.13,0.92-0.58,1.02c-0.47,0.1-0.86-0.17-0.96-0.74c-0.53-2.98-1.11-5.95-1.86-8.88c-0.38-1.48-0.81-2.95-1.27-4.41
				c-0.12-0.37-0.27-0.43-0.64-0.29c-3.87,1.52-7.74,1.51-11.6-0.03c-0.39-0.16-0.48,0.03-0.58,0.33c-0.83,2.55-1.5,5.15-2.06,7.78
				c-0.84,3.93-1.49,7.89-1.97,11.88c-0.1,0.86-0.23,1-1.09,1.17c-1.92,0.38-3.01,1.78-2.91,3.73c0.02,0.37,0.18,0.54,0.54,0.54
				c2.72,0,5.44,0,8.15,0c0.29,0,0.4-0.13,0.44-0.4c0.25-1.51,0.53-3.01,0.78-4.52c0.19-1.16,0.69-1.6,1.88-1.61
				c1.79,0,3.58-0.01,5.37,0c1.09,0,1.61,0.46,1.8,1.52c0.26,1.49,0.53,2.98,0.77,4.47c0.06,0.4,0.22,0.54,0.63,0.54
				c2.59-0.02,5.18-0.01,7.76-0.01c0.67,0,0.75-0.08,0.75-0.77c0-1.86-1.05-3.13-2.88-3.5c-0.87-0.17-0.95-0.23-1.08-1.11
				c-0.14-0.96-0.26-1.93-0.37-2.9c-0.06-0.51,0.25-0.91,0.7-0.95c0.42-0.04,0.78,0.28,0.85,0.77c0.11,0.72,0.21,1.45,0.29,2.17
				c0.03,0.31,0.13,0.49,0.46,0.59c2.45,0.79,3.8,2.78,3.64,5.35c-0.06,0.91-0.57,1.49-1.39,1.84c-3.35,0-6.71,0-10.06,0
				c-0.43-0.29-0.66-0.68-0.74-1.2c-0.26-1.59-0.56-3.17-0.82-4.75c-0.06-0.38-0.23-0.48-0.58-0.48c-1.63,0.01-3.25,0.01-4.88,0
				c-0.37,0-0.51,0.13-0.57,0.49c-0.24,1.51-0.53,3.01-0.77,4.52c-0.1,0.58-0.25,1.11-0.81,1.42C17.06,50,13.7,50,10.35,50z
				 M25.34,22.64c0.53,0.03,1.38-0.07,2.23-0.22c2.21-0.4,4.24-1.23,5.8-2.89c3.58-3.8,3.07-9.7-1.08-12.87
				c-1.75-1.34-3.75-2.06-5.94-2.27c-3.26-0.31-6.25,0.37-8.84,2.44c-4.63,3.7-4.25,10.82,0.75,14.01
				C20.31,22.15,22.6,22.63,25.34,22.64z M37.21,30.93c1.91-0.09,3.69-1.11,4.86-3.17c0.15-0.26,0.16-0.41-0.13-0.58
				c-1.06-0.6-2.11-1.22-3.15-1.86c-0.36-0.22-0.52-0.14-0.71,0.21c-0.44,0.79-1.02,0.99-1.89,0.7c-0.63-0.21-1.26-0.44-1.89-0.65
				c-0.16-0.06-0.35-0.22-0.5-0.1c-0.18,0.15,0,0.37,0.04,0.54c0.26,1.07,0.56,2.14,0.82,3.21C35.04,30.84,35.13,30.92,37.21,30.93z
				 M6.08,35.32c-0.01,1.02,0.59,1.85,1.54,2.14c0.95,0.29,2-0.07,2.53-0.9c0.25-0.4,0.43-0.84,0.69-1.24
				c0.2-0.32,0.14-0.51-0.16-0.72c-0.81-0.55-1.6-1.12-2.39-1.69c-0.9-0.64-0.91-0.64-1.42,0.32C6.5,33.89,6.09,34.53,6.08,35.32z
				 M44.11,23.73c0-1.28-0.63-2.16-1.57-2.46c-0.96-0.3-1.98,0.02-2.55,0.85c-0.29,0.41-0.5,0.87-0.76,1.31
				c-0.1,0.17-0.08,0.3,0.1,0.4c1.13,0.67,2.27,1.34,3.4,2.01c0.13,0.08,0.29,0.14,0.38-0.03C43.53,25.06,44.08,24.37,44.11,23.73z
				 M36.34,9.01c0.76,1.81,1.16,3.66,0.91,5.62c-0.02,0.17,0.07,0.28,0.25,0.29c0.77,0.04,1.53,0.01,2.23-0.38
				c0.28-0.16,0.43-0.37,0.34-0.72C39.52,11.67,38.16,10.16,36.34,9.01z M13.72,8.98c-1.4,0.83-2.49,1.96-3.25,3.4
				c-0.21,0.4-0.38,0.82-0.48,1.27c-0.11,0.49,0.05,0.81,0.53,1c0.62,0.25,1.26,0.3,1.91,0.28c0.34-0.01,0.35-0.23,0.32-0.47
				c-0.06-0.53-0.07-1.07-0.03-1.6C12.82,11.5,13.16,10.23,13.72,8.98z M17.22,1.58c-0.27,0.01-0.34,0.23-0.39,0.46
				c-0.23,0.95-0.03,1.87,0.21,2.79c0.05,0.19,0.13,0.29,0.34,0.14c0.52-0.36,1.08-0.67,1.66-0.93c0.19-0.09,0.24-0.19,0.1-0.37
				c-0.46-0.59-0.9-1.19-1.36-1.79C17.65,1.71,17.48,1.58,17.22,1.58z M33.28,2.85c-0.01-0.14-0.01-0.39-0.06-0.63
				c-0.05-0.24-0.04-0.55-0.36-0.63c-0.3-0.08-0.49,0.14-0.65,0.34c-0.43,0.55-0.83,1.12-1.28,1.66c-0.22,0.27-0.13,0.37,0.13,0.49
				c0.52,0.24,1.03,0.5,1.48,0.84c0.29,0.21,0.37,0.1,0.45-0.19C33.15,4.14,33.26,3.56,33.28,2.85z"/>
			<path class="st3" d="M25,38.01c-1.8,0-3.61,0-5.41,0c-1.27,0-1.85-0.87-1.33-2.01c1.01-2.25,2.04-4.5,3.05-6.76
				c0.3-0.67,0.79-1.1,1.52-1.11c0.74-0.01,1.23,0.42,1.53,1.09c0.39,0.89,0.81,1.78,1.2,2.67c0.13,0.3,0.21,0.37,0.49,0.11
				c1.13-1.04,2.73-0.84,3.57,0.47c0.73,1.15,1.44,2.32,2.12,3.5c0.59,1.01,0,2.02-1.17,2.03C28.7,38.02,26.85,38.01,25,38.01z
				 M22.86,29.76c-0.08,0.11-0.12,0.15-0.15,0.2c-0.92,2.01-1.83,4.02-2.75,6.03c-0.17,0.37,0.02,0.41,0.32,0.41
				c1.71,0,3.41-0.01,5.12,0c0.4,0,0.44-0.12,0.28-0.46c-0.47-1-0.92-2.01-1.37-3.02C23.83,31.9,23.36,30.86,22.86,29.76z
				 M28.7,36.41c0.48,0,0.8,0,1.13,0c0.19,0,0.29-0.06,0.17-0.26c-0.59-0.97-1.16-1.95-1.78-2.9c-0.29-0.44-0.83-0.42-1.16-0.01
				c-0.36,0.44-0.64,0.9-0.22,1.48c0.12,0.17,0.2,0.38,0.26,0.58C27.35,36.18,27.84,36.71,28.7,36.41z"/>
			<path class="st3" d="M25.27,27.68c0-1.31,1.11-2.41,2.39-2.38c1.29,0.02,2.35,1.1,2.35,2.39c0,1.3-1.1,2.4-2.4,2.38
				C26.32,30.03,25.26,28.97,25.27,27.68z M28.4,27.68c0-0.45-0.31-0.77-0.75-0.79c-0.45-0.01-0.79,0.32-0.79,0.79
				c0,0.44,0.32,0.78,0.75,0.79C28.05,28.49,28.41,28.14,28.4,27.68z"/>
			<path class="st3" d="M30.01,16.69c0,2.47-2.56,3.98-4.57,2.81c-0.33-0.19-0.55-0.17-0.88,0.01c-1.18,0.65-2.34,0.53-3.38-0.28
				c-1-0.77-1.37-1.83-1.09-3.08c0.12-0.53,0.48-0.81,0.92-0.74c0.47,0.07,0.7,0.46,0.62,1.03c-0.11,0.8,0.15,1.38,0.75,1.71
				c0.6,0.33,1.19,0.22,1.83-0.32c0.55-0.47,1.04-0.5,1.57-0.02c0.56,0.51,1.17,0.7,1.87,0.34c0.72-0.38,0.83-1.02,0.74-1.75
				c-0.09-0.72,0.47-1.19,1.06-0.92c0.31,0.14,0.44,0.42,0.5,0.74C29.97,16.41,30,16.62,30.01,16.69z"/>
			<path class="st3" d="M24.99,15.86c-1.46-0.01-2.9-1.58-2.74-3.03c0.08-0.76,0.55-1.24,1.23-1.5c0.99-0.39,2-0.39,3-0.02
				c1.1,0.41,1.54,1.35,1.17,2.47C27.23,15,26.14,15.86,24.99,15.86z M25.06,12.62c-0.68,0-1.14,0.13-1.18,0.39
				c-0.08,0.48,0.25,0.79,0.57,1.06c0.33,0.29,0.69,0.31,1.07,0.05c0.39-0.27,0.78-0.9,0.64-1.13c-0.23-0.36-0.63-0.35-1-0.37
				C25.12,12.62,25.09,12.63,25.06,12.62z"/>
			<path class="st3" d="M29.19,10.29c0-0.21-0.03-0.43,0.01-0.63c0.07-0.41,0.35-0.64,0.74-0.65c0.38-0.02,0.66,0.19,0.76,0.57
				c0.13,0.49,0.12,1,0.01,1.5c-0.09,0.4-0.39,0.6-0.79,0.57c-0.41-0.02-0.66-0.27-0.72-0.67C29.16,10.75,29.18,10.52,29.19,10.29
				C29.19,10.29,29.19,10.29,29.19,10.29z"/>
			<path class="st3" d="M19.3,10.3c0-0.19-0.01-0.39,0-0.58c0.04-0.44,0.31-0.67,0.73-0.71c0.38-0.04,0.74,0.25,0.78,0.65
				c0.04,0.45,0.04,0.91,0,1.36c-0.03,0.39-0.4,0.66-0.79,0.63c-0.41-0.03-0.66-0.26-0.7-0.67C19.29,10.75,19.31,10.52,19.3,10.3
				C19.31,10.3,19.3,10.3,19.3,10.3z"/>
		</g>
	</g>
</g>
<g id="Combination">
	<g>
		<path class="st3" d="M18.75,0c1.54,0.24,3.08,0.53,4.52,1.15c6.01,2.59,9.55,7.12,10.62,13.57c0.07,0.4-0.05,0.9,0.22,1.17
			c0.27,0.26,0.77,0.15,1.17,0.22c7.09,1.21,11.77,5.24,14.06,12.04c0.32,0.95-0.17,1.66-1.01,1.57c-0.5-0.05-0.77-0.37-0.91-0.83
			c-0.36-1.22-0.84-2.4-1.51-3.49c-2.59-4.22-6.36-6.64-11.26-7.3c-0.58-0.08-0.65-0.02-0.72,0.66c-0.29,2.84-1.23,5.45-2.86,7.79
			c-2.87,4.14-6.82,6.56-11.8,7.33c-1.24,0.19-1.24,0.17-1.08,1.42c0.83,6.1,5.99,11.41,12.1,12.43c5.03,0.84,9.41-0.51,13.12-3.97
			c1.87-1.74,3.14-3.89,3.9-6.33c0.06-0.2,0.12-0.41,0.21-0.6c0.22-0.45,0.68-0.69,1.12-0.58c0.52,0.13,0.83,0.52,0.8,1.07
			c-0.03,0.54-0.24,1.05-0.44,1.54c-2.46,6.13-6.93,9.8-13.44,10.98c-0.3,0.05-0.61,0.1-0.91,0.15c-1.14,0-2.28,0-3.42,0
			c-0.29-0.05-0.57-0.11-0.86-0.15c-7.61-1.2-13.48-7.34-14.32-14.96c-0.12-1.06,0.1-0.81-0.95-0.96C8.4,32.98,3.74,29.36,1.1,23.14
			c-0.6-1.4-0.86-2.89-1.1-4.39c0-1.17,0-2.34,0-3.52c0.06-0.34,0.11-0.67,0.17-1.01C1.48,7.61,5.3,3.14,11.63,0.82
			c1.17-0.43,2.39-0.61,3.6-0.82C16.41,0,17.58,0,18.75,0z M1.99,16.96c0.03,0.55,0.06,1.02,0.09,1.49c0,0.06,0,0.13,0.01,0.19
			c0.8,5.63,3.76,9.66,8.91,12.07c1.39,0.65,2.89,0.99,4.41,1.18c0.41,0.05,0.6-0.07,0.63-0.5c0.04-0.67,0.15-1.32,0.3-1.97
			c1.57-7.06,7.18-12.26,14.34-13.32c1.3-0.19,1.3-0.19,1.1-1.48C30.53,6.51,22.71,0.85,14.6,2.2C7.53,3.37,2.07,9.38,1.99,16.96z
			 M18.5,31.92c0.51-0.08,1.03-0.15,1.54-0.26c6.4-1.4,11.05-6.5,11.85-12.99c0.07-0.54-0.03-0.63-0.59-0.56
			c-4.5,0.6-8.07,2.75-10.68,6.47c-1.42,2.04-2.23,4.32-2.52,6.79C18.07,31.67,18.05,31.96,18.5,31.92z"/>
		<path class="st3" d="M50,33.4c-0.19,0.27-0.39,0.52-0.74,0.6c-0.49,0.11-0.97-0.13-1.17-0.58c-0.19-0.43-0.05-0.94,0.33-1.22
			c0.39-0.29,0.94-0.26,1.3,0.09c0.1,0.1,0.18,0.23,0.28,0.34C50,32.88,50,33.14,50,33.4z"/>
		<path class="st3" d="M34.58,33.44c1.23,1.23,2.44,2.43,3.64,3.64c0.45,0.45,0.9,0.89,1.34,1.35c0.5,0.52,0.52,1.12,0.08,1.56
			c-0.42,0.41-1.03,0.38-1.52-0.1c-1.58-1.57-3.15-3.15-4.73-4.72c-0.09-0.09-0.15-0.22-0.35-0.23c0,0.6,0,1.2,0,1.79
			c-0.01,0.72-0.35,1.16-0.94,1.2c-0.62,0.04-1.08-0.36-1.1-1.09c-0.04-1.48-0.04-2.96,0-4.44c0.02-0.73,0.44-1.06,1.18-1.07
			c1.43-0.01,2.86-0.01,4.3,0c0.68,0,1.14,0.42,1.14,1.01c0,0.59-0.45,1-1.13,1.01c-0.6,0.01-1.2,0.01-1.8,0.02
			C34.66,33.36,34.65,33.38,34.58,33.44z"/>
		<path class="st3" d="M16.51,15.21c0-0.47-0.01-0.89,0-1.31c0.01-0.28,0.02-0.56,0.07-0.82c0.1-0.49,0.55-0.82,1.03-0.79
			c0.51,0.03,0.95,0.41,0.96,0.93c0.02,1.58,0.02,3.16,0,4.73c-0.01,0.51-0.36,0.85-0.9,0.94c-0.6,0.1-1.2,0.04-1.8,0.05
			c-0.76,0.01-1.53,0.01-2.29,0c-0.24,0-0.49-0.02-0.73-0.06c-0.56-0.1-0.9-0.53-0.87-1.06c0.03-0.53,0.43-0.93,0.99-0.95
			c0.66-0.02,1.33,0,2,0c-0.02-0.23-0.18-0.31-0.29-0.41c-1.55-1.56-3.1-3.11-4.66-4.66c-0.33-0.33-0.48-0.7-0.35-1.15
			c0.11-0.38,0.39-0.6,0.76-0.68c0.45-0.1,0.78,0.11,1.08,0.42c1.49,1.5,2.99,2.99,4.49,4.48C16.14,14.99,16.23,15.16,16.51,15.21z"
			/>
	</g>
</g>
</svg>
