<?xml version="1.0" encoding="utf-8"?>
<!-- Generator: Adobe Illustrator 23.0.1, SVG Export Plug-In . SVG Version: 6.00 Build 0)  -->
<svg version="1.1" id="Layer_1" xmlns="http://www.w3.org/2000/svg" xmlns:xlink="http://www.w3.org/1999/xlink" x="0px" y="0px"
	 viewBox="0 0 70 70" style="enable-background:new 0 0 70 70;" xml:space="preserve">
<style type="text/css">
	.st0{clip-path:url(#SVGID_2_);}
	.st1{fill:#FE214F;}
</style>
<g>
	<defs>
		<rect id="SVGID_1_" width="70" height="70"/>
	</defs>
	<clipPath id="SVGID_2_">
		<use xlink:href="#SVGID_1_"  style="overflow:visible;"/>
	</clipPath>
	<g class="st0">
		<path class="st1" d="M13.8,35c0-9,0-17.9,0-26.9c0-4.1,2.6-7.2,6.6-8C20.9,0,21.4,0,21.8,0c9,0,18,0,27,0c4.5,0,8,3.5,8,8
			c0,18,0,36,0,54c0,4.5-3.5,8-7.9,8c-9,0-18,0-27,0c-4.5,0-7.9-3.5-7.9-8C13.8,53,13.8,44,13.8,35z M54.4,35c0-8.9,0-17.7,0-26.6
			c0-3.6-2.4-6-5.9-6c-8.8,0-17.6,0-26.3,0c-3.5,0-5.9,2.4-5.9,5.9c0,17.8,0,35.6,0,53.4c0,3.5,2.4,5.9,5.9,5.9c8.8,0,17.6,0,26.3,0
			c0.9,0,1.7-0.1,2.5-0.5c2.4-1.1,3.4-3.1,3.4-5.6C54.4,52.7,54.4,43.8,54.4,35z"/>
		<path class="st1" d="M18.3,34.9c0-8.5,0.1-17,0-25.5c0-2.8,2.2-5.1,4.9-4.9c0.8,0.1,1.6,0,2.4,0c1.6,0,1.8,0.3,1.8,1.8
			c0,0.5,0,0.9,0,1.4c0,0.9,0.4,1.3,1.3,1.3c4.3,0,8.7,0,13,0c0.9,0,1.3-0.4,1.3-1.3c0-0.7,0-1.3,0-2c0-0.8,0.4-1.2,1.2-1.2
			c1.3,0,2.5,0,3.8,0c2.1,0.1,4,2,4.1,4.1c0,0.2,0,0.4,0,0.6c0,17.2,0,34.4,0,51.6c0,2.3-1.4,4.1-3.6,4.6c-0.3,0.1-0.7,0.1-1,0.1
			c-8.2,0-16.4,0-24.7,0c-2.7,0-4.6-1.9-4.6-4.6C18.3,52.2,18.3,43.6,18.3,34.9z M20.7,35c0,8.5,0,17,0,25.4c0,1.8,0.9,2.7,2.7,2.7
			c1.9,0,3.8,0,5.7,0c6.1,0,12.1,0,18.2,0c1,0,1.8-0.3,2.3-1.1c0.3-0.5,0.4-1.1,0.4-1.6c0-16.9,0-33.9,0-50.8c0-0.2,0-0.4,0-0.6
			c-0.1-1.1-0.8-1.9-1.9-2.1c-0.7-0.1-1.4,0-2.1-0.1c-0.3,0-0.4,0.2-0.4,0.4c0,0.3,0,0.6,0,0.8c-0.1,1.7-1.5,3.2-3.2,3.2
			c-4.7,0-9.3,0-14,0c-1.6,0-3-1.4-3.2-3C25,6.9,25,6.9,23.6,6.9c-2.1,0-2.9,0.8-2.9,2.9C20.7,18.2,20.7,26.6,20.7,35z"/>
		<path class="st1" d="M35.3,6.9c-1.6,0-3.3,0-4.9,0c-0.5,0-0.8-0.2-0.7-0.7c0-1.9-0.2-1.6,1.6-1.6c3,0,6,0,8.9,0
			c0.7,0,0.9,0.2,0.9,0.9c-0.1,1.7,0.2,1.5-1.5,1.5C38.1,6.9,36.7,6.9,35.3,6.9z"/>
		<path class="st1" d="M35.3,36.1c3.6,0,7.2,0,10.8,0c1.3,0,1.6,0.3,1.6,1.6c0,4.2,0,8.4,0,12.7c0,1.3-0.3,1.6-1.6,1.6
			c-7.3,0-14.5,0-21.8,0c-1.2,0-1.6-0.3-1.6-1.5c0-4.3,0-8.5,0-12.8c0-1.2,0.4-1.5,1.6-1.5C28.1,36.1,31.7,36.1,35.3,36.1z
			 M35.3,49.6c3.1,0,6.2,0,9.4,0c0.5,0,0.7-0.1,0.7-0.7c0-3.2,0-6.5,0-9.7c0-0.6-0.2-0.8-0.8-0.8c-6.2,0-12.4,0-18.7,0
			c-0.6,0-0.8,0.2-0.8,0.8c0,3.2,0,6.4,0,9.7c0,0.6,0.2,0.8,0.8,0.8C29.1,49.6,32.2,49.6,35.3,49.6z"/>
		<path class="st1" d="M33.1,15.8c2.2,0,4.3,0,6.5,0c1.1,0,1.6,0.6,1.4,1.7c-0.7,2.8-1.4,5.7-2.1,8.5c-0.2,0.9-0.6,1.1-1.5,1.1
			c-2.8,0-5.7,0-8.5,0c-0.9,0-1.3-0.3-1.5-1.2c-0.7-2.8-1.4-5.6-2.1-8.5c-0.3-1.2,0.2-1.7,1.4-1.7C28.8,15.8,30.9,15.8,33.1,15.8z
			 M33.1,18.1c-1.5,0-3.1,0-4.6,0c-0.5,0-0.7,0.1-0.5,0.7c0.5,1.8,0.9,3.6,1.3,5.4c0.1,0.5,0.3,0.6,0.8,0.6c1.9,0,3.8,0,5.8,0
			c0.5,0,0.7-0.2,0.8-0.6c0.4-1.8,0.9-3.6,1.3-5.4c0.1-0.5,0-0.7-0.5-0.7C36.1,18.2,34.6,18.1,33.1,18.1z"/>
		<path class="st1" d="M33.8,30.5c-1.9,0-3.8,0-5.7,0c-0.6,0-0.8-0.2-0.8-0.8c0-1.9-0.2-1.6,1.6-1.6c3.1,0,6.1,0,9.2,0
			c0.6,0,0.9-0.2,1.1-0.8C40,24,41,20.6,41.9,17.2c0.3-1.2,0.6-1.4,1.8-1.4c1.1,0,2.3,0,3.4,0c0.5,0,0.7,0.2,0.7,0.7
			c0,2,0.2,1.6-1.6,1.7c-2,0-2,0-2.5,2c-0.8,3-1.7,6.1-2.5,9.1c-0.3,1.1-0.6,1.3-1.7,1.3C37.5,30.5,35.7,30.5,33.8,30.5z"/>
		<path class="st1" d="M35.3,54.1c1.9,0,3.4,1.5,3.4,3.5c0,1.9-1.5,3.4-3.5,3.4c-1.9,0-3.4-1.5-3.4-3.5
			C31.9,55.6,33.4,54.1,35.3,54.1z M36.3,57.5c0-0.5-0.5-1-1.1-1c-0.5,0-1,0.5-1,1.1c0,0.5,0.5,1,1.1,1
			C35.8,58.6,36.4,58.1,36.3,57.5z"/>
		<path class="st1" d="M32,32.8c0,1.1,0,1.2-1.2,1.1c-1.3,0-1.1,0.1-1.1-1.3c0-1.1,0-1.1,1.3-1.1C32,31.6,32,31.6,32,32.8z"/>
		<path class="st1" d="M37.6,31.6c1.2,0,1.2,0,1.2,1.2c0,1.2,0,1.2-1.3,1.2c-1.1,0-1.1,0-1.1-1.3C36.4,31.6,36.4,31.6,37.6,31.6z"/>
		<path class="st1" d="M35.3,47.4c-2.4,0-4.7,0-7.1,0c-0.6,0-0.9-0.2-0.8-0.8c0.1-1.8-0.2-1.5,1.5-1.5c4.5,0,9,0,13.4,0
			c0.7,0,0.9,0.2,0.9,0.9c-0.1,1.7,0.2,1.4-1.5,1.5C39.6,47.5,37.5,47.4,35.3,47.4z"/>
		<path class="st1" d="M33,42.9c-1.6,0-3.2,0-4.9,0c-0.6,0-0.8-0.1-0.8-0.8c0.1-1.8-0.2-1.6,1.6-1.6c3,0,6,0,8.9,0
			c0.7,0,0.9,0.2,0.9,0.9c-0.1,1.7,0.2,1.5-1.5,1.5C35.8,43,34.4,42.9,33,42.9z"/>
		<path class="st1" d="M42.1,40.6c1.2,0,1.2,0,1.2,1.2c0,1.2,0,1.2-1.3,1.2c-1.1,0-1.1,0-1.1-1.2C40.9,40.6,40.9,40.6,42.1,40.6z"/>
	</g>
</g>
</svg>
