<?xml version="1.0" encoding="utf-8"?>
<!-- Generator: Adobe Illustrator 23.0.1, SVG Export Plug-In . SVG Version: 6.00 Build 0)  -->
<svg version="1.1" xmlns="http://www.w3.org/2000/svg" xmlns:xlink="http://www.w3.org/1999/xlink" x="0px" y="0px"
	 viewBox="0 0 50 50" style="enable-background:new 0 0 50 50;" xml:space="preserve">
<style type="text/css">
	.st0{display:none;}
	.st1{display:inline;}
	.st2{fill:#F70D39;}
	.st3{clip-path:url(#SVGID_2_);}
	.st4{clip-path:url(#SVGID_4_);}
</style>
<g id="Search_Ads" class="st0">
	<g class="st1">
		<path class="st2" d="M6.14,42.58c-1.16,0-2.26,0-3.36,0c-0.58,0-1.16,0.01-1.74-0.01C0.27,42.55,0,42.28,0,41.51c0-3,0-6,0-9
			C0,22.09,0,11.66,0,1.24C0,0.16,0.16,0,1.25,0c15.83,0,31.66,0,47.49,0C49.84,0,50,0.16,50,1.24c0,13.34,0,26.67,0,40.01
			c0,1.13-0.2,1.33-1.36,1.33c-11.3,0-22.61,0-33.91-0.01c-0.6,0-1.01,0.18-1.42,0.6c-1.98,2.02-3.98,4.01-5.99,6
			c-1.43,1.41-3.7,0.97-4.43-0.85c-0.45-1.11-0.17-2.11,0.64-2.95c0.73-0.76,1.49-1.49,2.23-2.24C5.88,42.99,6.06,42.88,6.14,42.58z
			 M15.64,40.94c0.19,0.01,0.32,0.02,0.46,0.02c10.58,0,21.17,0,31.75,0.01c0.45,0,0.61-0.12,0.6-0.59
			c-0.01-10.27-0.01-20.53,0-30.8c0-0.43-0.13-0.57-0.57-0.57c-15.25,0.01-30.51,0.01-45.76,0c-0.47,0-0.59,0.16-0.59,0.61
			c0.01,10.25,0.01,20.5,0,30.75c0,0.51,0.18,0.62,0.64,0.61c1.72-0.02,3.44-0.02,5.16,0c0.4,0,0.69-0.11,0.97-0.4
			c1.13-1.15,2.28-2.29,3.42-3.43c1.08-1.08,1.08-1.09,2.23-0.07c0.23,0.2,0.38,0.18,0.57-0.03c0.33-0.34,0.65-0.7,1.01-1
			c0.34-0.29,0.34-0.5,0.07-0.86c-1.59-2.16-2.16-4.59-1.65-7.22c0.93-4.8,5.4-7.98,10.25-7.33c5.9,0.79,9.5,6.94,7.3,12.45
			c-2.24,5.61-9.09,7.58-13.97,4.01c-0.35-0.25-0.58-0.31-0.88,0.05c-0.29,0.35-0.63,0.66-0.96,0.97c-0.27,0.25-0.25,0.43,0,0.69
			c0.9,0.93,0.89,0.99,0.02,1.97C15.7,40.8,15.69,40.84,15.64,40.94z M25,1.55c-7.6,0-15.2,0-22.8-0.01c-0.5,0-0.67,0.12-0.66,0.64
			c0.03,1.49,0.01,2.98,0.01,4.47c0,0.75,0,0.75,0.76,0.75c5.13,0,10.25,0,15.38,0c10.02,0,20.05,0,30.07,0c0.7,0,0.7,0,0.7-0.7
			c0-1.47,0-2.95,0-4.42c0-0.74,0-0.74-0.76-0.74C40.13,1.55,32.57,1.55,25,1.55z M15.41,29.73c0.01,4.25,3.34,7.57,7.59,7.56
			c4.21-0.01,7.56-3.39,7.55-7.63c-0.01-4.16-3.42-7.51-7.62-7.5C18.72,22.17,15.4,25.51,15.41,29.73z M5.43,48.36
			c0.41,0.03,0.69-0.24,0.97-0.51c2.31-2.31,4.62-4.61,6.92-6.92c0.36-0.36,0.97-0.67,0.98-1.11c0.01-0.48-0.67-0.75-0.98-1.16
			c-0.31-0.4-0.53-0.33-0.87,0.01c-2.52,2.54-5.05,5.07-7.58,7.6c-0.15,0.15-0.29,0.3-0.41,0.48c-0.23,0.36-0.22,0.73-0.01,1.09
			C4.66,48.21,4.98,48.38,5.43,48.36z"/>
		<path class="st2" d="M25.01,17.23c-5.44,0-10.88,0-16.32,0c-1.03,0-1.28-0.24-1.28-1.26c0-1-0.01-2,0-3
			c0.01-0.84,0.31-1.14,1.16-1.14c10.95,0,21.9,0,32.85,0c0.87,0,1.16,0.3,1.18,1.18c0.01,1.03,0.01,2.07,0,3.1
			c-0.01,0.85-0.29,1.12-1.16,1.12C35.96,17.23,30.48,17.23,25.01,17.23z M24.94,15.62c4.89,0,9.79,0,14.68,0
			c1.36,0,1.36,0,1.36-1.36c0-0.81,0-0.81-0.84-0.81c-9.89,0-19.79,0-29.68,0c-1.44,0-1.44,0-1.43,1.43c0,0.74,0,0.74,0.76,0.74
			C14.84,15.62,19.89,15.62,24.94,15.62z"/>
		<path class="st2" d="M32.31,4.52c-0.01,1.13-0.93,2.05-2.04,2.05c-1.13-0.01-2.05-0.96-2.03-2.11c0.02-1.11,0.97-2.04,2.08-2.01
			C31.44,2.46,32.32,3.37,32.31,4.52z"/>
		<path class="st2" d="M38.52,4.54c-0.01,1.12-0.96,2.05-2.06,2.03c-1.14-0.02-2.04-0.97-2.01-2.13c0.02-1.09,0.95-2,2.04-2
			C37.63,2.44,38.53,3.37,38.52,4.54z"/>
		<path class="st2" d="M40.66,4.51c0-1.12,0.9-2.06,2.02-2.07c1.14-0.02,2.06,0.91,2.06,2.08c-0.01,1.12-0.93,2.05-2.04,2.05
			C41.58,6.57,40.66,5.64,40.66,4.51z"/>
		<path class="st2" d="M28.02,29.82c0.02-0.73-0.14-1.42-0.4-2.1c-0.22-0.55-0.05-1.01,0.4-1.18c0.43-0.17,0.83,0.04,1.06,0.59
			c0.43,1.05,0.65,2.14,0.48,3.28c-0.08,0.5-0.39,0.79-0.83,0.76c-0.42-0.03-0.69-0.34-0.71-0.82
			C28.01,30.17,28.02,29.99,28.02,29.82z"/>
	</g>
</g>
<g id="Display_Ads" class="st0">
	<g class="st1">
		<defs>
			<rect id="SVGID_1_" width="50" height="50"/>
		</defs>
		<clipPath id="SVGID_2_">
			<use xlink:href="#SVGID_1_"  style="overflow:visible;"/>
		</clipPath>
		<g class="st3">
			<path class="st2" d="M0.1,37.5c0.36-0.32,0.78-0.42,1.26-0.42c6.31,0.01,12.63,0.01,18.94,0.01c0.96,0,1.05,0.07,1.32,0.99
				c0.11,0.37,0.37,0.58,0.75,0.58c1.76,0.01,3.52,0.01,5.27,0c0.43,0,0.67-0.26,0.76-0.69c0.14-0.69,0.38-0.88,1.07-0.88
				c2.59,0,5.18,0,7.76,0c0.4,0,0.74,0.11,0.91,0.51c0.13,0.32,0.05,0.61-0.19,0.85c-0.23,0.23-0.52,0.24-0.82,0.24
				c-1.61,0-3.22,0-4.83,0c-0.67,0-1.33,0.01-2,0c-0.29-0.01-0.47,0.09-0.62,0.35c-0.48,0.82-1.21,1.24-2.18,1.23
				c-1.68-0.01-3.35-0.01-5.03,0c-0.95,0.01-1.66-0.41-2.14-1.21c-0.17-0.28-0.35-0.37-0.66-0.37c-5.88,0.01-11.75,0.01-17.63,0
				c-0.43,0-0.59,0.13-0.55,0.56c0.04,0.39-0.03,0.78,0.07,1.16c0.16,0.59,0.58,0.95,1.18,0.99c0.19,0.01,0.39,0.01,0.59,0.01
				c14.45,0,28.9,0,43.35,0c0.13,0,0.26,0,0.39,0c0.84-0.03,1.32-0.47,1.42-1.31c0.16-1.41,0.16-1.41-1.24-1.41
				c-1.89,0-3.78,0-5.66,0c-0.15,0-0.29,0-0.44,0c-0.54-0.04-0.87-0.34-0.87-0.8c0-0.46,0.33-0.77,0.87-0.79
				c0.72-0.02,1.43-0.01,2.15-0.01c0.83,0,1.66-0.02,2.49,0.01c0.48,0.02,0.61-0.17,0.61-0.62c-0.02-1.27-0.01-2.54-0.01-3.81
				c0-5.37,0-10.74,0-16.11c0-0.71,0-0.71-0.7-0.71c-13.8,0-27.6,0-41.4,0c-0.69,0-0.69,0-0.69,0.72c0,5.66,0,11.33,0,16.99
				c0,0.31-0.01,0.62-0.07,0.92c-0.09,0.4-0.38,0.61-0.79,0.59c-0.4-0.03-0.66-0.27-0.71-0.68c-0.02-0.16-0.01-0.32-0.01-0.49
				c0-7.73,0.03-15.46-0.02-23.19C1.99,8.8,3.46,7.36,5.32,7.37c13.12,0.04,26.23,0.04,39.35,0c1.95-0.01,3.34,1.49,3.33,3.33
				c-0.04,8.54-0.02,17.09-0.02,25.63c0,0.75,0,0.75,0.73,0.76c0.99,0.01,1.32,0.34,1.32,1.32c0,0.49-0.03,0.98,0.01,1.46
				c0.14,1.8-1.34,3.15-3.13,3.15C32.82,42.99,18.72,43,4.63,43c-0.42,0-0.85-0.02-1.27,0c-1.52,0.1-2.61-0.5-3.26-1.89
				C0.1,39.91,0.1,38.7,0.1,37.5z M24.95,14.25c6.79,0,13.57,0,20.36,0c1.2,0,1.06,0.15,1.09-1.1c0.01-0.47-0.14-0.61-0.61-0.61
				c-2.81,0.02-5.63,0.01-8.45,0.01c-4.47,0-8.95,0-13.42,0c-1.36,0-2.43-0.97-2.56-2.26c-0.11-1.05-0.44-1.35-1.51-1.35
				c-1.95,0-3.91,0-5.86,0c-0.99,0-1.32,0.3-1.45,1.25c-0.19,1.49-1.17,2.36-2.67,2.36c-1.77,0.01-3.55,0-5.32,0
				c-1.01,0-0.95-0.13-0.95,0.94c0,0.77,0,0.77,0.79,0.77C11.25,14.25,18.1,14.25,24.95,14.25z M34.96,11c3.55,0,7.09,0,10.64,0
				c0.8,0,0.96-0.22,0.73-1c-0.08-0.29-0.26-0.52-0.48-0.72C45.46,8.96,45,8.92,44.52,8.92c-6.98,0-13.96,0-20.94,0
				c-0.78,0-0.78,0-0.7,0.74c0.12,1.08,0.4,1.34,1.49,1.34C27.9,11,31.43,11,34.96,11z M6.94,11c0.86,0,1.72,0,2.58,0
				c1.1,0,1.38-0.25,1.5-1.33c0.02-0.14,0.05-0.29,0.09-0.43c0.07-0.23,0.01-0.33-0.25-0.33C8.93,8.93,7,8.9,5.07,8.94
				C4.19,8.96,3.65,9.6,3.6,10.45c-0.02,0.43,0.14,0.57,0.56,0.56C5.09,10.98,6.01,11,6.94,11z"/>
			<path class="st2" d="M35.15,35.09c-2.55,0-5.11,0-7.66,0c-1.1,0-1.51-0.39-1.51-1.49c-0.01-2.47,0-4.95,0-7.42
				c0-2.28,0-4.56,0-6.83c0-0.26,0.02-0.52,0.06-0.78c0.08-0.53,0.4-0.84,0.92-0.95c0.21-0.04,0.42-0.05,0.63-0.05
				c5.08,0,10.15,0,15.23,0c0.29,0,0.59,0,0.86,0.13c0.55,0.25,0.7,0.71,0.7,1.28c-0.01,4.54,0,9.08,0,13.62c0,0.34,0,0.68,0,1.03
				c0,1.1-0.36,1.47-1.45,1.47C40.33,35.09,37.74,35.09,35.15,35.09z M35.23,19.17c-2.36,0-4.72,0.01-7.08-0.01
				c-0.43,0-0.6,0.1-0.59,0.57c0.02,4.43,0.01,8.85,0,13.28c0,0.42,0.11,0.56,0.55,0.56c4.72-0.01,9.44-0.02,14.16,0
				c0.47,0,0.57-0.16,0.57-0.59c-0.01-4.41-0.01-8.82,0-13.23c0-0.44-0.11-0.59-0.57-0.59C39.92,19.18,37.58,19.17,35.23,19.17z"/>
			<path class="st2" d="M14.64,18.33c2.47,0,4.94,0,7.41,0c0.18,0,0.36-0.01,0.53,0.02c0.4,0.08,0.64,0.33,0.66,0.74
				c0.02,0.38-0.2,0.65-0.56,0.76c-0.2,0.06-0.42,0.07-0.63,0.07c-4.91,0-9.82,0-14.73,0c-0.21,0-0.43-0.01-0.63-0.06
				c-0.4-0.1-0.6-0.38-0.58-0.79c0.02-0.42,0.27-0.65,0.67-0.72c0.16-0.03,0.32-0.02,0.49-0.02C9.73,18.33,12.19,18.33,14.64,18.33z
				"/>
			<path class="st2" d="M14.67,31.28c-2.46,0-4.91,0-7.37,0c-0.16,0-0.33,0.01-0.49-0.01c-0.4-0.06-0.65-0.29-0.68-0.71
				c-0.03-0.41,0.17-0.7,0.57-0.79c0.23-0.06,0.48-0.07,0.73-0.07c4.85,0,9.7,0,14.55,0c0.21,0,0.42,0.01,0.63,0.06
				c0.42,0.09,0.66,0.36,0.65,0.79c-0.01,0.4-0.33,0.7-0.77,0.74c-0.16,0.01-0.33,0.01-0.49,0.01
				C19.55,31.28,17.11,31.28,14.67,31.28z"/>
			<path class="st2" d="M14.65,22.14c2.46,0,4.91,0,7.37,0c0.15,0,0.29-0.01,0.44,0c0.45,0.03,0.76,0.31,0.79,0.71
				c0.03,0.39-0.25,0.74-0.68,0.82c-0.24,0.04-0.49,0.06-0.73,0.06c-4.8,0-9.6,0-14.4,0c-0.24,0-0.49-0.01-0.73-0.07
				c-0.43-0.1-0.63-0.4-0.59-0.83c0.04-0.41,0.3-0.63,0.71-0.68c0.16-0.02,0.33-0.01,0.49-0.01C9.77,22.14,12.21,22.14,14.65,22.14z
				"/>
			<path class="st2" d="M14.65,27.48c-2.54,0-5.08,0-7.61,0c-0.56,0-0.86-0.24-0.91-0.68c-0.05-0.45,0.23-0.8,0.68-0.85
				c0.16-0.02,0.33-0.01,0.49-0.01c4.93,0,9.86,0,14.79,0c0.13,0,0.26,0,0.39,0c0.46,0.03,0.79,0.36,0.78,0.77
				c-0.01,0.41-0.33,0.74-0.8,0.75c-0.42,0.02-0.85,0.01-1.27,0.01C19.01,27.48,16.83,27.48,14.65,27.48z"/>
			<path class="st2" d="M11.92,35.08c-1.56,0-3.12,0-4.69,0c-0.19,0-0.4,0-0.58-0.06c-0.34-0.11-0.54-0.35-0.54-0.73
				c0.01-0.39,0.2-0.65,0.58-0.75c0.17-0.04,0.35-0.06,0.53-0.06c3.14,0,6.28,0,9.42,0c0.08,0,0.16,0,0.24,0.01
				c0.55,0.05,0.91,0.39,0.89,0.85c-0.02,0.44-0.38,0.74-0.92,0.74C15.21,35.09,13.57,35.08,11.92,35.08z"/>
			<path class="st2" d="M35.84,28.81c0-0.88-0.01-1.76,0-2.64c0.01-0.62,0.16-0.79,0.77-0.84c0.76-0.07,1.53-0.06,2.29,0.07
				c0.98,0.17,1.57,0.84,1.66,1.83c0.09,1.06,0.09,2.11,0,3.17c-0.09,1.02-0.65,1.66-1.64,1.85c-0.79,0.15-1.59,0.11-2.38,0.07
				c-0.5-0.02-0.68-0.27-0.69-0.82C35.83,30.6,35.84,29.7,35.84,28.81z M37.43,28.77c0,0.58,0,1.17,0,1.75
				c0,0.16-0.01,0.32,0.2,0.39c0.78,0.25,1.38-0.17,1.39-0.99c0.01-0.7,0.01-1.4,0-2.09c0-0.91-0.32-1.19-1.22-1.14
				c-0.27,0.01-0.38,0.11-0.38,0.38C37.44,27.64,37.43,28.21,37.43,28.77z"/>
			<path class="st2" d="M35.41,31.61c-0.04,0.46-0.38,0.58-0.73,0.67c-0.33,0.08-0.61,0.02-0.78-0.32
				c-0.03-0.06-0.03-0.13-0.06-0.18c-0.13-0.28-0.03-0.76-0.38-0.84c-0.53-0.13-1.1-0.08-1.65-0.02c-0.15,0.02-0.18,0.17-0.22,0.3
				c-0.05,0.17-0.09,0.35-0.14,0.52c-0.16,0.54-0.41,0.68-0.94,0.53c-0.55-0.15-0.72-0.43-0.56-0.97c0.53-1.76,1.06-3.51,1.6-5.27
				c0.17-0.54,0.5-0.76,1.1-0.75c0.58,0.01,0.88,0.21,1.05,0.75c0.54,1.75,1.08,3.51,1.62,5.26C35.36,31.39,35.38,31.5,35.41,31.61z
				 M32.69,27.58c-0.04,0-0.08,0-0.11,0.01c-0.11,0.42-0.23,0.83-0.34,1.25c-0.22,0.83-0.16,0.9,0.7,0.81
				c0.22-0.02,0.29-0.1,0.23-0.3C33.01,28.76,32.85,28.17,32.69,27.58z"/>
			<path class="st2" d="M41.58,21.01c-0.49,0.47-0.27,1.02-0.03,1.63c0.11,0.27-0.14,0.55-0.42,0.7c-0.29,0.15-0.59,0.1-0.82-0.11
				c-0.27-0.25-0.46-0.25-0.74,0c-0.32,0.28-0.69,0.27-1.01-0.03c-0.3-0.27-0.35-0.71-0.06-1.05c0.24-0.28,0.23-0.47-0.01-0.74
				c-0.27-0.32-0.26-0.7,0.05-1.01c0.3-0.31,0.68-0.35,1.01-0.08c0.29,0.24,0.5,0.27,0.79,0c0.23-0.22,0.53-0.22,0.82-0.08
				C41.42,20.38,41.55,20.61,41.58,21.01z"/>
		</g>
	</g>
</g>
<g id="Email_Promotions">
	<g>
		<path class="st2" d="M13.73,50c-4.34,0-8.69,0-13.03,0c-0.69,0-0.69,0-0.69-0.7c0-5.37,0-10.74-0.01-16.11
			c0-0.44,0.15-0.71,0.49-0.96c2.1-1.59,4.17-3.21,6.27-4.81c0.33-0.25,0.38-0.35-0.02-0.61c-1.25-0.8-1.9-1.95-1.9-3.45
			c0-1.11-0.01-2.21,0-3.32c0.02-2.15,1.8-3.94,3.96-3.94c2.08,0,4.16-0.04,6.18-0.61c2.02-0.56,3.89-1.46,5.57-2.73
			c0.25-0.19,0.42-0.4,0.54-0.7c0.44-1.17,1.57-1.8,2.77-1.58c1.17,0.22,1.98,1.2,1.98,2.44c0.01,1.44,0.01,2.89,0,4.33
			c0,0.35,0.09,0.53,0.45,0.65c1.73,0.59,2.78,2.07,2.78,3.84c0,1.81-1.04,3.27-2.8,3.88c-0.33,0.12-0.43,0.28-0.42,0.62
			c0.01,1.61,0,3.22-0.03,4.83c0,0.2,0.07,0.31,0.21,0.42c0.24,0.18,0.46,0.4,0.72,0.55c0.61,0.34,0.73,0.83,0.73,1.5
			c-0.03,5.25-0.02,10.5-0.02,15.75c0,0.69,0,0.69-0.69,0.69C22.42,50,18.07,50,13.73,50z M14.57,31.7c0,1.04,0,2.08,0,3.12
			c0,0.68,0,0.68-0.65,0.68c-1.17,0-2.35-0.02-3.52,0.01c-0.46,0.01-0.64-0.16-0.73-0.6c-0.38-2.02-0.81-4.04-1.19-6.06
			c-0.08-0.44-0.2-0.44-0.52-0.19c-1.76,1.37-3.53,2.73-5.3,4.09c-0.48,0.37-0.48,0.37-0.04,0.78c2.07,1.91,4.14,3.82,6.21,5.73
			c0.73,0.67,0.74,0.7,1.43,0.02c0.46-0.46,0.94-0.67,1.6-0.63c0.97,0.05,1.95,0.07,2.92,0c1.13-0.08,2.13,0.05,2.85,1.04
			c0.16,0.22,0.35,0.2,0.55,0c0.35-0.34,0.71-0.67,1.07-1c1.9-1.75,3.8-3.5,5.69-5.25c0.11-0.1,0.34-0.19,0.23-0.39
			c-0.08-0.13-0.25-0.23-0.4-0.28c-0.09-0.03-0.22,0.05-0.32,0.1c-1.43,0.58-2.81,0-3.36-1.43c-0.08-0.21-0.17-0.39-0.36-0.53
			c-1.71-1.32-3.61-2.24-5.68-2.83c-0.34-0.1-0.48-0.03-0.47,0.36C14.59,29.52,14.57,30.61,14.57,31.7z M24.26,48.29
			c-0.02-0.2-0.17-0.28-0.27-0.37c-2.65-2.45-5.3-4.89-7.94-7.34c-0.21-0.19-0.42-0.24-0.69-0.24c-1.04,0.01-2.08,0.02-3.12-0.01
			c-0.4-0.01-0.69,0.11-0.98,0.38c-2.42,2.25-4.85,4.48-7.28,6.72c-0.28,0.25-0.54,0.52-0.88,0.85
			C10.23,48.29,17.24,48.29,24.26,48.29z M20.94,21.77c0-2.21,0-4.43,0-6.64c0-0.36-0.06-0.46-0.41-0.24
			c-2.66,1.71-5.59,2.64-8.74,2.87c-0.34,0.03-0.46,0.14-0.46,0.49c0.01,2.35,0.01,4.69,0,7.04c0,0.37,0.12,0.48,0.49,0.51
			c3.11,0.23,6.01,1.15,8.65,2.82c0.12,0.08,0.24,0.25,0.39,0.16c0.14-0.09,0.07-0.28,0.07-0.42
			C20.95,26.16,20.94,23.96,20.94,21.77z M1.72,47.14c0.1-0.07,0.16-0.09,0.2-0.14c2.03-1.87,4.06-3.75,6.1-5.61
			C8.3,41.13,8.2,41,7.98,40.79c-1.25-1.14-2.49-2.29-3.73-3.44c-0.82-0.76-1.64-1.51-2.53-2.32C1.72,39.1,1.72,43.08,1.72,47.14z
			 M25.75,35.09c-0.08,0.04-0.12,0.05-0.14,0.07c-2.06,1.9-4.11,3.8-6.18,5.69c-0.27,0.25-0.13,0.37,0.06,0.55
			c1.19,1.09,2.36,2.19,3.55,3.28c0.88,0.81,1.77,1.62,2.71,2.49C25.75,43.1,25.75,39.12,25.75,35.09z M24.16,21.79
			c0-2.82,0-5.64,0-8.46c0-0.75-0.26-1.15-0.75-1.16c-0.51-0.01-0.78,0.4-0.78,1.18c0,5.62,0,11.24,0,16.86
			c0,0.75,0.26,1.15,0.75,1.16c0.51,0.01,0.78-0.4,0.78-1.18C24.17,27.4,24.16,24.59,24.16,21.79z M9.67,21.82c0-1.19,0-2.38,0-3.57
			c0-0.22,0.02-0.45-0.31-0.46c-0.86-0.03-1.64,0.15-2.22,0.84c-0.15,0.17-0.39,0.38-0.31,0.6c0.09,0.22,0.39,0.09,0.59,0.1
			c0.7,0.02,0.71,0.01,0.7,0.68C8.12,21.14,8.25,21.02,7.15,21c-0.47-0.01-0.66,0.11-0.64,0.61c0.04,1.08-0.1,0.93,0.95,0.94
			c0.67,0.01,0.67,0,0.67,0.66c0.01,0.99,0.01,1-0.97,1.01c-0.42,0-0.41,0.15-0.22,0.44c0.52,0.79,1.28,1.08,2.19,1.12
			c0.41,0.02,0.56-0.1,0.55-0.53C9.65,24.1,9.67,22.96,9.67,21.82z M12.89,30.71c0-0.87-0.01-1.74,0.01-2.61
			c0.01-0.35-0.13-0.5-0.45-0.52c-0.65-0.05-1.3-0.07-1.95-0.14c-0.44-0.04-0.54,0.11-0.46,0.53c0.33,1.57,0.63,3.15,0.96,4.72
			c0.24,1.16,0.24,1.14,1.42,1.13c0.39,0,0.48-0.15,0.48-0.51C12.88,32.45,12.89,31.58,12.89,30.71z M25.85,21.76
			c0,0.6,0,1.2,0,1.81c0,0.26,0.04,0.41,0.34,0.24c0.78-0.45,1.18-1.15,1.18-2.02c0-0.87-0.41-1.57-1.19-2.02
			c-0.23-0.13-0.33-0.08-0.33,0.2C25.85,20.55,25.85,21.15,25.85,21.76z"/>
		<path class="st2" d="M46.78,8.36c0,0.99,0.01,1.98,0,2.97c-0.01,1.28-0.96,2.32-2.17,2.42c-1.37,0.11-2.51-0.74-2.7-2.07
			c-0.05-0.35-0.16-0.38-0.47-0.36c-1.65,0.14-2.77-0.91-2.78-2.56c0-1.04-0.01-2.08,0-3.12c0.01-1.38,1.06-2.42,2.43-2.42
			c1.4,0,2.46,1.03,2.47,2.44c0.01,1.73,0,3.46,0,5.18c0,0.8,0.25,1.2,0.76,1.21c0.52,0.01,0.78-0.41,0.78-1.24
			c0-1.64,0.01-3.29,0-4.93c-0.02-1.95-1.13-3.51-2.84-4.01c-2.52-0.74-4.9,0.94-5.1,3.7c-0.1,1.3-0.11,2.61,0.05,3.92
			c0.21,1.66,1.62,3.1,3.27,3.29c0.54,0.06,0.69,0.26,0.68,0.79c-0.03,1.11-0.03,1.13-1.15,0.9c-2.68-0.55-4.55-2.82-4.57-5.55
			c-0.01-1.12-0.01-2.25,0-3.37C35.47,2.47,38,0,41.11,0c3.11,0,5.64,2.47,5.67,5.54C46.79,6.48,46.78,7.42,46.78,8.36z M41.88,7.28
			c0-0.49,0.01-0.97,0-1.46c-0.02-0.54-0.34-0.9-0.76-0.9c-0.43,0-0.75,0.36-0.76,0.9c-0.02,0.97-0.02,1.95,0,2.92
			c0.01,0.54,0.33,0.9,0.76,0.9c0.43,0,0.75-0.36,0.76-0.9C41.89,8.26,41.88,7.77,41.88,7.28z"/>
		<path class="st2" d="M32.22,41.12c0-4.95,3.93-8.91,8.86-8.91c4.97,0,8.92,3.94,8.92,8.9c0,4.94-3.95,8.89-8.89,8.89
			C36.18,50,32.22,46.05,32.22,41.12z M48.32,41.09c-0.12-4.07-3.18-7.15-7.23-7.18c-3.93-0.03-7.21,3.26-7.17,7.18
			c0.04,4.07,3.14,7.2,7.2,7.2C45.17,48.29,48.22,45.14,48.32,41.09z"/>
		<path class="st2" d="M41.06,29.06c-1.68,0-3.35-0.01-5.03,0.01c-0.46,0.01-0.6-0.14-0.6-0.6c0.02-3.39,0.02-6.77,0-10.16
			c0-0.46,0.14-0.6,0.6-0.6c3.39,0.02,6.77,0.02,10.16,0c0.46,0,0.6,0.14,0.6,0.6c-0.02,3.39-0.02,6.77,0,10.16
			c0,0.46-0.14,0.61-0.6,0.6C44.48,29.05,42.77,29.06,41.06,29.06z M45.1,23.43c0-1.17-0.01-2.35,0.01-3.52
			c0.01-0.4-0.12-0.52-0.52-0.52c-2.31,0.01-4.63,0.01-6.94,0c-0.38,0-0.54,0.09-0.53,0.5c0.02,2.33,0.01,4.66,0,7
			c0,0.37,0.12,0.5,0.49,0.49c2.33-0.01,4.66-0.02,6.99,0c0.41,0,0.51-0.15,0.51-0.53C45.09,25.72,45.1,24.57,45.1,23.43z"/>
		<path class="st2" d="M32.94,14.9c-0.01,0.18-0.13,0.27-0.22,0.36c-0.96,0.96-1.92,1.91-2.87,2.88c-0.23,0.24-0.4,0.22-0.62-0.01
			c-1.09-1.13-1.02-0.73-0.04-1.75c0.75-0.78,1.54-1.53,2.3-2.31c0.26-0.27,0.45-0.27,0.69,0.01c0.18,0.22,0.4,0.4,0.6,0.61
			C32.85,14.76,32.9,14.84,32.94,14.9z"/>
		<path class="st2" d="M31.88,29.72c-0.18,0-0.26-0.12-0.35-0.21c-0.96-0.96-1.91-1.92-2.88-2.87c-0.23-0.23-0.24-0.39-0.01-0.62
			c1.14-1.09,0.74-1.02,1.75-0.05c0.78,0.75,1.53,1.54,2.31,2.3c0.26,0.26,0.3,0.45,0.01,0.69C32.41,29.2,32.2,29.53,31.88,29.72z"
			/>
		<path class="st2" d="M32.22,22.62c-0.4,0-0.8-0.01-1.2,0c-0.3,0.01-0.42-0.12-0.41-0.42c0.02-1.54-0.17-1.23,1.17-1.26
			c0.57-0.01,1.14,0.01,1.71,0c0.3-0.01,0.42,0.12,0.41,0.42c-0.02,1.54,0.17,1.23-1.17,1.26C32.56,22.62,32.39,22.62,32.22,22.62
			C32.22,22.62,32.22,22.62,32.22,22.62z"/>
		<path class="st2" d="M37.05,41.1c0-0.65-0.01-1.31,0-1.96c0.02-1.46,1.43-2.52,2.79-1.99c1.54,0.6,3.03,1.35,4.44,2.22
			c1.23,0.76,1.23,2.7,0,3.46c-1.41,0.87-2.9,1.62-4.44,2.22c-1.36,0.53-2.77-0.53-2.79-1.99C37.04,42.41,37.05,41.76,37.05,41.1z
			 M38.73,41.08C38.73,41.08,38.73,41.08,38.73,41.08c0,0.54-0.01,1.07,0,1.61c0.01,0.71,0.31,0.9,0.96,0.58
			c1.11-0.55,2.21-1.11,3.32-1.66c0.21-0.11,0.44-0.22,0.44-0.49c0-0.28-0.22-0.39-0.43-0.5c-1.15-0.57-2.3-1.16-3.46-1.72
			c-0.51-0.25-0.81-0.08-0.83,0.49C38.72,39.94,38.73,40.51,38.73,41.08z"/>
		<path class="st2" d="M41.06,22.62c-0.65,0-1.31-0.01-1.96,0c-0.32,0.01-0.45-0.12-0.44-0.44c0.02-1.49-0.16-1.22,1.15-1.24
			c1.09-0.02,2.18,0.01,3.27-0.01c0.37-0.01,0.5,0.13,0.5,0.5c-0.03,1.42,0.16,1.16-1.15,1.19C41.96,22.63,41.51,22.62,41.06,22.62
			C41.06,22.62,41.06,22.62,41.06,22.62z"/>
		<path class="st2" d="M41.16,24.16c0.65,0,1.31,0.01,1.96,0c0.32-0.01,0.45,0.12,0.44,0.44c-0.02,1.5,0.16,1.22-1.15,1.24
			c-1.09,0.02-2.18-0.01-3.27,0.01c-0.37,0.01-0.5-0.12-0.5-0.49c0.03-1.42-0.16-1.16,1.15-1.19
			C40.25,24.15,40.71,24.16,41.16,24.16C41.16,24.16,41.16,24.16,41.16,24.16z"/>
	</g>
</g>
<g id="Streaming_Ads" class="st0">
	<g class="st1">
		<path class="st2" d="M0,28.32c0-8.33,0-16.67,0-25C0.47,1.58,1.58,0.47,3.32,0C13.35,0,23.37,0,33.4,0
			c0.06,0.03,0.12,0.05,0.18,0.08c2.06,0.73,3.05,2.04,3.16,4.21c0.02,0.45,0.17,0.39,0.46,0.21c1.29-0.82,2.57-1.65,3.89-2.42
			c1.84-1.08,4.14-0.13,4.69,1.89c0.12,0.44,0.14,0.9,0.14,1.35c0,5.17,0,10.34,0,15.51c0,0.67,0.01,1.33,0,2
			c0,0.33,0.13,0.47,0.46,0.47c0.36,0,0.71-0.02,1.07,0.07c1.34,0.34,2.13,1.24,2.56,2.51c0,7.19,0,14.39,0,21.58
			c-0.41,1.28-1.26,2.13-2.54,2.54c-8.3,0-16.6,0-24.9,0c-0.98-0.32-1.77-0.87-2.25-1.82c-0.33-0.64-0.38-1.34-0.38-2.04
			c0-4.52,0-9.05,0-13.57c0-0.81-0.01-0.82-0.81-0.82c-4.8,0-9.6,0-14.4,0c-0.49,0-0.98-0.02-1.45-0.13
			C1.5,31.18,0.47,30.03,0,28.32z M18.31,1.7c-3.37,0-6.74,0-10.1,0c-1.27,0-2.54-0.01-3.81,0C3.1,1.73,2.17,2.36,1.85,3.44
			C1.72,3.86,1.7,4.3,1.7,4.74c0,7.39,0,14.77,0,22.16c0,0.31,0.02,0.62,0.06,0.92c0.17,1.22,1.13,2.11,2.36,2.11
			c5.09,0.02,10.19,0.01,15.28,0.01c0.35,0,0.51-0.12,0.51-0.48c-0.01-0.8-0.01-1.59,0-2.39c0.01-0.35-0.14-0.43-0.48-0.41
			c-0.88,0.04-1.75,0.07-2.63-0.05c-5.98-0.87-10.08-6.32-9.24-12.28c0.89-6.29,6.94-10.47,13.14-9.08c4.92,1.1,8.5,5.53,8.48,10.58
			c-0.01,2.63-0.86,4.98-2.55,7.01c-0.09,0.11-0.28,0.2-0.22,0.35c0.08,0.18,0.29,0.1,0.44,0.1c2.49,0,4.98,0,7.47,0.01
			c0.44,0,0.61-0.13,0.6-0.59c-0.03-0.98-0.01-1.95-0.01-2.93c0-5.17,0-10.35,0-15.52c0-1.17-0.66-2.11-1.69-2.42
			c-0.42-0.13-0.86-0.15-1.3-0.15C27.39,1.7,22.85,1.7,18.31,1.7z M35,25.04c-3.76,0-7.52,0-11.27,0c-1.39,0-2.01,0.62-2.01,1.99
			c0,6.43,0,12.85,0,19.28c0,1.35,0.62,1.99,1.96,1.99c7.53,0,15.07,0,22.6,0c1.41,0,2.02-0.62,2.02-2.04c0-6.39,0-12.79,0-19.18
			c0-1.44-0.62-2.04-2.07-2.04C42.48,25.04,38.74,25.04,35,25.04z M27.43,15.82c-0.01-0.48-0.04-0.94-0.1-1.41
			c-0.71-4.99-5.69-8.54-10.62-7.58c-5.02,0.98-8.15,5.44-7.39,10.5c0.75,5.04,5.97,8.58,10.91,7.4c0.28-0.07,0.5-0.21,0.69-0.42
			c0.57-0.6,1.27-0.97,2.11-1c0.42-0.02,0.75-0.16,1.05-0.42C26.27,21.04,27.38,18.68,27.43,15.82z M44.11,13.82
			c0-2.91-0.01-5.83,0-8.74c0-0.63-0.14-1.18-0.72-1.49c-0.57-0.31-1.12-0.18-1.66,0.16c-1.5,0.95-3,1.89-4.51,2.82
			c-0.34,0.21-0.49,0.46-0.49,0.86c0.01,5.08,0.01,10.15,0.01,15.23c0,0.61,0.03,0.63,0.64,0.64c2.03,0,4.07,0,6.1,0
			c0.6,0,0.63-0.03,0.63-0.64C44.11,19.71,44.11,16.76,44.11,13.82z"/>
		<path class="st2" d="M5.83,3.29c1.42,0,2.58,1.17,2.56,2.58C8.38,7.23,7.21,8.39,5.86,8.39C4.44,8.4,3.28,7.24,3.29,5.82
			C3.29,4.41,4.42,3.29,5.83,3.29z M5.85,5.1C5.42,5.09,5.11,5.37,5.1,5.8C5.08,6.24,5.4,6.6,5.82,6.6c0.4,0,0.78-0.37,0.78-0.77
			C6.6,5.43,6.27,5.11,5.85,5.1z"/>
		<path class="st2" d="M31.15,31.61c0.63,0,1.27,0,1.9,0c0.32,0,0.62,0.03,0.87,0.25c0.18,0.16,0.36,0.1,0.54,0.02
			c1.14-0.49,2.27-0.98,3.41-1.46c0.28-0.12,0.36-0.31,0.4-0.6c0.19-1.31,0.94-2.12,2.13-2.34c1.49-0.28,2.91,0.87,2.97,2.42
			c0.03,0.71,0.02,1.43,0,2.15c-0.01,0.33,0.11,0.49,0.42,0.61c1.85,0.68,2.91,2.16,2.91,4.02c0,1.82-1.08,3.31-2.9,3.98
			c-0.31,0.11-0.44,0.27-0.43,0.6c0.02,0.67,0.01,1.33,0,2c-0.02,1.25-0.81,2.25-1.98,2.53c-1.19,0.28-2.35-0.29-2.9-1.44
			c-0.13-0.26-0.28-0.46-0.55-0.57c-1.35-0.57-2.69-1.14-4.03-1.73c-0.37-0.16-0.54-0.13-0.52,0.32c0.02,0.54,0.02,1.07,0,1.61
			c-0.03,1.21-0.72,1.9-1.93,1.93c-0.6,0.01-1.2,0.06-1.8-0.06c-0.83-0.17-1.37-0.8-1.39-1.65c-0.02-0.73-0.01-1.46,0-2.2
			c0.01-0.29-0.09-0.49-0.36-0.62c-0.41-0.21-0.74-0.53-0.96-0.95c-0.15-0.29-0.36-0.38-0.67-0.37c-0.39,0.02-0.78,0-1.16-0.11
			c-1.05-0.29-1.81-1.24-1.83-2.32c-0.02-0.62-0.01-1.24,0-1.85c0.03-1.37,1.06-2.43,2.43-2.5c0.21-0.01,0.42-0.01,0.63,0
			c0.25,0.01,0.42-0.07,0.56-0.3c0.56-0.96,1.41-1.4,2.52-1.36C30.01,31.62,30.58,31.61,31.15,31.61z M38.26,37.11
			c0-1.45-0.01-2.9,0-4.34c0-0.4-0.1-0.54-0.51-0.36c-1.04,0.46-2.09,0.91-3.14,1.34c-0.3,0.13-0.4,0.32-0.4,0.64
			c0.01,1.79,0.01,3.58,0,5.37c0,0.34,0.1,0.54,0.43,0.67c1.05,0.43,2.1,0.88,3.14,1.34c0.37,0.16,0.49,0.08,0.49-0.32
			C38.25,40,38.26,38.56,38.26,37.11z M32.42,36.69c0-0.91-0.01-1.82,0-2.73c0.01-0.4-0.16-0.56-0.55-0.55
			c-0.86,0.02-1.72,0-2.58,0.01c-0.59,0.01-0.86,0.24-0.86,0.82c-0.02,1.63-0.02,3.25,0,4.88c0.01,0.55,0.27,0.8,0.83,0.81
			c0.88,0.01,1.76-0.01,2.63,0.01c0.41,0.01,0.55-0.17,0.54-0.56C32.41,38.48,32.42,37.58,32.42,36.69z M41.59,36.72
			c0-1.24,0-2.47,0-3.71c0-1.01,0.01-2.02-0.01-3.02c-0.01-0.46-0.33-0.75-0.74-0.75c-0.41,0-0.72,0.3-0.76,0.74
			c-0.01,0.13-0.01,0.26-0.01,0.39c0,4.2,0,8.39,0,12.59c0,0.16-0.01,0.33,0.02,0.49c0.07,0.4,0.41,0.69,0.79,0.65
			c0.4-0.04,0.66-0.27,0.7-0.69c0.02-0.18,0.02-0.36,0.02-0.54C41.59,40.82,41.59,38.77,41.59,36.72z M43.39,36.68
			c0,0.6,0.01,1.2,0,1.8c-0.01,0.39,0.13,0.41,0.43,0.23c1.47-0.88,1.46-3.25-0.02-4.09c-0.27-0.16-0.42-0.15-0.41,0.22
			C43.4,35.45,43.39,36.06,43.39,36.68z M26.62,36.7c0-0.41,0-0.81,0-1.22c0-0.17-0.04-0.32-0.23-0.38
			c-0.68-0.25-1.31,0.15-1.35,0.88c-0.02,0.4-0.01,0.81-0.01,1.22c0.01,0.82,0.38,1.14,1.2,1.06c0.26-0.02,0.39-0.13,0.38-0.39
			C26.62,37.48,26.62,37.09,26.62,36.7z M31.61,42.93c-0.02-1.28,0.23-1.21-1.09-1.2c-0.02,0-0.03,0-0.05,0
			c-0.26,0-0.39,0.14-0.39,0.39c0,0.54,0,1.07,0,1.61c0,0.23,0.12,0.34,0.36,0.37c1.04,0.14,1.16,0.05,1.16-0.98
			C31.61,43.06,31.61,43,31.61,42.93z"/>
		<path class="st2" d="M14.92,15.81c0-1.01,0-2.02,0-3.02c0-0.76,0.21-1.42,0.93-1.8c0.7-0.36,1.34-0.2,1.97,0.22
			c1.55,1.04,3.11,2.07,4.66,3.11c1.2,0.81,1.21,2.2,0.02,3.01c-1.59,1.08-3.19,2.13-4.78,3.19c-0.6,0.4-1.22,0.52-1.88,0.16
			c-0.65-0.36-0.91-0.95-0.91-1.66C14.92,17.96,14.93,16.88,14.92,15.81z M16.85,12.73c-0.19,0.1-0.14,0.28-0.14,0.42
			c0,1.81,0.01,3.61,0.01,5.42c0,0.13-0.06,0.3,0.06,0.37c0.15,0.09,0.27-0.07,0.38-0.15c1.32-0.89,2.64-1.79,3.97-2.67
			c0.32-0.21,0.38-0.33,0.02-0.57c-1.34-0.87-2.66-1.76-3.99-2.64C17.07,12.86,16.97,12.8,16.85,12.73z"/>
	</g>
</g>
<g id="Remarketing_Ads" class="st0">
	<g class="st1">
		<path class="st2" d="M0,26.65c0-4.35,0-8.7,0-13.05c0-1.79,1-2.78,2.81-2.79c0.28,0,0.56-0.02,0.83,0
			c0.42,0.04,0.53-0.14,0.53-0.54c-0.01-2.2-0.01-4.4-0.01-6.6c0-0.93,0.25-1.18,1.16-1.18c5.36,0,10.71,0,16.07,0
			c0.89,0,1.15,0.26,1.15,1.14c0,2.18,0.02,4.37-0.01,6.55c-0.01,0.51,0.16,0.65,0.65,0.64c1.25-0.03,2.5-0.01,3.74-0.01
			c0.26,0,0.53,0.05,0.54-0.36c0.01-0.45-0.28-0.39-0.56-0.4c-0.35,0-0.69,0.01-1.04,0c-0.56-0.02-0.89-0.32-0.89-0.87
			c-0.02-1.11-0.02-2.22,0-3.33c0.01-0.53,0.33-0.83,0.85-0.86c0.4-0.02,0.8-0.02,1.2,0c0.29,0.01,0.43-0.08,0.45-0.41
			c0.06-1.14,0.2-1.26,1.34-1.26c1.3,0,2.6-0.06,3.9,0.02c1.24,0.07,2.35-0.36,3.49-0.71c2.72-0.83,5.43-1.67,8.15-2.5
			c1.07-0.33,1.5-0.01,1.5,1.11c0,1.06,0.02,2.12-0.01,3.17C45.82,4.87,45.97,5,46.42,4.99c1.37-0.01,2.28,0.62,2.64,1.75
			c0.51,1.64-0.66,3.27-2.38,3.3c-0.1,0-0.21,0-0.31,0c-0.26,0-0.53-0.05-0.54,0.37c-0.01,0.45,0.29,0.39,0.56,0.39
			c0.38,0,0.76,0,1.14,0c1.36,0.03,2.45,1.09,2.45,2.46c0.01,8.93,0.01,17.86,0,26.78c0,1.4-1.11,2.45-2.56,2.45
			c-6.1,0.01-12.2,0-18.3,0c-0.77,0-0.77,0-0.77,0.76c0,0.4,0.02,0.8,0,1.2c-0.02,0.37,0.14,0.48,0.49,0.47
			c1.42-0.01,2.84-0.01,4.26,0c0.79,0,1.07,0.28,1.07,1.06c0.01,1.01,0.01,2.01,0,3.02C34.18,49.69,33.88,50,33.2,50
			c-5.46,0-10.92,0-16.38,0c-0.71,0-1-0.3-1-1.02c-0.01-0.99-0.01-1.98,0-2.96c0-0.79,0.28-1.07,1.06-1.07
			c1.4,0,2.81-0.02,4.21,0.01c0.44,0.01,0.59-0.14,0.56-0.57c-0.03-0.41-0.04-0.83,0-1.25c0.05-0.53-0.18-0.63-0.66-0.63
			c-2.58,0.02-5.16,0.01-7.75,0.01c-3.5,0-7,0-10.5,0C1.02,42.51,0,41.48,0,39.75C0,35.39,0,31.02,0,26.65z M24.96,37.44
			c7.52,0,15.04,0,22.57,0c0.74,0,0.74,0,0.74-0.73c0-7.59,0-15.19,0-22.78c0-0.21,0.01-0.42-0.02-0.62
			c-0.05-0.33-0.21-0.6-0.56-0.69c-0.56-0.14-1.19-0.22-1.68,0c-0.39,0.18-0.09,0.79-0.16,1.21c-0.02,0.14,0,0.28-0.01,0.42
			c-0.05,0.5-0.42,0.82-0.92,0.79c-0.2-0.01-0.41-0.07-0.61-0.13c-3.35-1.03-6.69-2.06-10.03-3.08c-0.88-0.27-1.01-0.17-1.13,0.73
			c-0.18,1.32-0.36,2.64-0.56,3.96c-0.13,0.82-0.38,1.03-1.21,1.03c-0.64,0-1.28,0-1.92,0c-0.91,0-1.16-0.25-1.16-1.19
			c0-1.11-0.01-2.22,0.01-3.33c0.01-0.36-0.12-0.49-0.48-0.48c-1.59,0.01-3.19,0.02-4.78,0c-0.4,0-0.5,0.15-0.5,0.52
			c0.02,1.14,0.01,2.29,0,3.43c0,0.75-0.29,1.05-1.04,1.05c-5.44,0-10.88,0-16.33,0c-0.71,0-1.01-0.3-1.01-1.02
			c-0.01-0.97,0-1.94,0-2.91c-0.01-1.23,0.17-1.05-1.09-1.06c-1.11-0.01-1.33,0.23-1.34,1.34c0,7.61,0,15.22,0,22.83
			c0,0.72,0,0.72,0.7,0.72C9.95,37.44,17.45,37.44,24.96,37.44z M13.3,15.8c2.32,0,4.65-0.01,6.97,0.01c0.4,0,0.55-0.11,0.54-0.53
			c-0.01-3.5-0.01-7.01,0-10.51c0-0.44-0.15-0.56-0.57-0.56c-4.59,0.01-9.19,0.01-13.78,0c-0.42,0-0.57,0.12-0.57,0.56
			c0.02,3.49,0.02,6.97,0,10.46c0,0.47,0.15,0.59,0.6,0.58C8.76,15.79,11.03,15.8,13.3,15.8z M25.02,39.18c-7.47,0-14.94,0-22.41,0
			c-0.16,0-0.31,0.01-0.47,0c-0.28-0.02-0.4,0.09-0.41,0.39c-0.04,0.85,0.3,1.2,1.22,1.2c14.7,0,29.4,0,44.09,0
			c0.19,0,0.39,0,0.57-0.05c0.49-0.13,0.72-0.58,0.65-1.21c-0.07-0.56-0.51-0.32-0.77-0.32C40,39.18,32.51,39.18,25.02,39.18z
			 M44.1,7.52c0-1.65-0.01-3.29,0.01-4.94c0-0.39-0.05-0.53-0.49-0.39c-2.67,0.84-5.35,1.66-8.04,2.47C35.17,4.8,35,4.98,35.01,5.43
			c0.03,1.38,0.03,2.77,0,4.16c-0.01,0.44,0.13,0.64,0.56,0.77c2.68,0.81,5.36,1.63,8.04,2.47c0.4,0.13,0.51,0.06,0.5-0.37
			C44.09,10.82,44.1,9.17,44.1,7.52z M25,48.26c2.31,0,4.61-0.01,6.92,0.01c0.4,0,0.6-0.1,0.54-0.53c-0.02-0.12,0-0.24,0-0.36
			c0-0.71,0-0.71-0.72-0.71c-4.4,0-8.81,0-13.21,0c-1.11,0-0.95-0.15-0.99,1.01c-0.02,0.46,0.14,0.59,0.59,0.59
			C20.42,48.25,22.71,48.26,25,48.26z M33.28,7.55c0-0.66-0.01-1.32,0.01-1.98c0.01-0.37-0.09-0.53-0.49-0.53
			c-1.04,0.02-2.08,0.02-3.12,0c-0.36-0.01-0.49,0.12-0.49,0.48c0.02,1.32,0.01,2.64,0,3.95c0,0.34,0.09,0.51,0.47,0.5
			c1.06-0.02,2.11-0.01,3.17,0c0.33,0,0.47-0.11,0.46-0.45C33.27,8.87,33.28,8.21,33.28,7.55z M25,44.93c0.4,0,0.8-0.01,1.2,0
			c0.31,0.01,0.44-0.1,0.43-0.42c-0.01-0.54-0.01-1.07,0-1.61c0.01-0.29-0.13-0.4-0.41-0.39c-0.81,0.01-1.63,0.01-2.44,0
			c-0.28,0-0.41,0.1-0.41,0.4c0.01,0.54,0.01,1.08,0,1.61c-0.01,0.32,0.13,0.43,0.44,0.42C24.2,44.92,24.6,44.93,25,44.93z
			 M30.03,13.72c0,0.54,0,1.07,0,1.61c0,0.26,0.01,0.48,0.37,0.48c0.29,0,0.49-0.04,0.53-0.39c0.11-0.92,0.24-1.85,0.4-2.77
			c0.18-1.03,0.16-0.93-0.9-0.93c-0.29,0-0.41,0.11-0.4,0.4C30.04,12.65,30.03,13.18,30.03,13.72z M46.3,6.72
			c-0.42-0.11-0.54,0.19-0.45,0.56c0.09,0.36-0.39,1.03,0.48,1.03c0.65,0,1.07-0.31,1.07-0.8C47.4,7.04,47,6.73,46.3,6.72z
			 M27.46,7.57c0-0.18-0.01-0.32,0-0.46c0.02-0.34-0.17-0.46-0.45-0.38c-0.64,0.19-0.2,0.72-0.3,1.09
			c-0.06,0.23-0.04,0.49,0.33,0.49C27.71,8.32,27.36,7.81,27.46,7.57z"/>
		<path class="st2" d="M15.02,20.8c3.5,0,7,0,10.5,0c0.93,0,1.18,0.25,1.18,1.16c0,4.25,0,8.49,0,12.74c0,0.89-0.26,1.16-1.14,1.16
			c-7.03,0-14.07,0-21.1,0c-0.86,0-1.13-0.26-1.13-1.11c0-4.28,0-8.56,0-12.84c0-0.84,0.27-1.1,1.13-1.1
			C7.98,20.8,11.5,20.8,15.02,20.8z M15,34.11c3.12,0,6.24-0.01,9.36,0.01c0.48,0,0.62-0.14,0.62-0.62
			c-0.02-3.22-0.01-6.45-0.01-9.67c0-0.15,0.07-0.36-0.06-0.44c-0.17-0.11-0.31,0.09-0.45,0.18c-2.84,1.74-5.68,3.47-8.5,5.24
			c-0.68,0.43-1.22,0.41-1.9-0.01c-2.82-1.77-5.66-3.5-8.49-5.24c-0.13-0.08-0.26-0.25-0.41-0.18c-0.18,0.09-0.09,0.31-0.09,0.47
			c0,3.21,0.01,6.41-0.01,9.62c0,0.49,0.12,0.66,0.64,0.65C8.79,34.1,11.9,34.11,15,34.11z M22.66,22.57c-5.15,0-10.16,0-15.29,0
			c2.54,1.56,4.97,3.06,7.4,4.56c0.19,0.12,0.35,0.09,0.53-0.02c0.41-0.26,0.82-0.51,1.24-0.77C18.54,25.11,20.55,23.87,22.66,22.57
			z"/>
		<path class="st2" d="M36.68,19.13c2.41,0,4.82,0,7.22,0c0.82,0,1.1,0.27,1.1,1.08c0,0.61,0.01,1.21,0,1.82
			c-0.01,0.31,0.12,0.42,0.43,0.43c1.09,0.04,1.24,0.21,1.24,1.31c0,3.08,0,6.17,0,9.25c0,0.89-0.26,1.16-1.14,1.16
			c-4.54,0-9.08,0-13.62,0c-0.86,0-1.12-0.27-1.13-1.11c0-0.59-0.01-1.18,0-1.77c0.01-0.34-0.12-0.47-0.46-0.45
			c-0.36,0.02-0.73,0.01-1.09,0c-0.62-0.02-0.95-0.31-0.95-0.92c-0.01-3.29-0.01-6.59,0-9.88c0-0.63,0.33-0.92,1-0.92
			C31.76,19.13,34.22,19.13,36.68,19.13z M38.73,24.2c-1.89,0-3.78,0.01-5.67-0.01c-0.4,0-0.55,0.11-0.54,0.53
			c0.02,2.39,0.02,4.79,0,7.18c0,0.44,0.15,0.56,0.57,0.56c3.76-0.01,7.52-0.01,11.29,0c0.42,0,0.57-0.12,0.57-0.56
			c-0.02-2.38-0.02-4.75,0-7.13c0-0.47-0.15-0.59-0.6-0.58C42.47,24.21,40.6,24.2,38.73,24.2z M37.23,22.46c1.68,0,3.36,0.01,5.04,0
			c1.12,0,0.96,0.15,1.01-0.99c0.02-0.5-0.16-0.61-0.63-0.61c-1.8,0.02-3.6,0.01-5.41,0.01c-2.24,0-4.47,0-6.71,0
			c-0.28,0-0.52,0-0.51,0.39c0.01,2.5,0.01,4.99,0,7.49c0,0.26,0.11,0.36,0.37,0.37c0.4,0.01,0.39-0.24,0.39-0.51
			c0-1.68,0-3.36,0-5.04c0-0.82,0.27-1.1,1.08-1.1C33.66,22.46,35.44,22.46,37.23,22.46z"/>
		<path class="st2" d="M11.71,6.65c0.24-0.01,0.44,0.1,0.64,0.2c1.49,0.74,2.97,1.48,4.46,2.23c0.4,0.2,0.75,0.44,0.74,0.96
			c-0.01,0.5-0.35,0.72-0.73,0.91c-1.49,0.74-2.97,1.49-4.46,2.22c-0.94,0.47-1.53,0.11-1.53-0.93c0-1.54-0.01-3.08,0-4.62
			C10.82,7,11.17,6.64,11.71,6.65z M12.56,9.99c0,0.23,0.01,0.45,0,0.68c-0.01,0.32,0.13,0.35,0.38,0.22
			c0.45-0.23,0.89-0.46,1.35-0.68c0.3-0.14,0.27-0.27-0.01-0.4c-0.27-0.13-0.53-0.26-0.79-0.39C12.56,8.95,12.55,8.95,12.56,9.99z"
			/>
		<path class="st2" d="M40.41,25.79c0.81,0,1.63,0.01,2.44,0c0.35-0.01,0.5,0.11,0.49,0.48c-0.03,1.52,0.17,1.25-1.21,1.26
			c-1.38,0.02-2.77-0.01-4.15,0.01c-0.39,0-0.56-0.11-0.55-0.53c0.04-1.44-0.17-1.19,1.21-1.21C39.24,25.78,39.82,25.79,40.41,25.79
			z"/>
		<path class="st2" d="M41.28,29.12c0.55,0,1.11,0.01,1.66,0c0.28,0,0.41,0.12,0.4,0.4c-0.01,1.65,0.18,1.3-1.23,1.33
			c-0.85,0.02-1.7-0.01-2.54,0.01c-0.33,0-0.46-0.12-0.46-0.46c0.02-1.56-0.18-1.25,1.24-1.28C40.65,29.11,40.97,29.12,41.28,29.12
			C41.28,29.12,41.28,29.12,41.28,29.12z"/>
		<path class="st2" d="M35.82,30.85c-0.43,0-0.86-0.01-1.3,0c-0.28,0.01-0.41-0.12-0.4-0.4c0.01-1.65-0.18-1.3,1.23-1.33
			c0.57-0.01,1.14,0.01,1.71,0c0.33-0.01,0.46,0.12,0.46,0.46c-0.02,1.55,0.18,1.25-1.24,1.28C36.13,30.86,35.97,30.86,35.82,30.85
			C35.82,30.86,35.82,30.86,35.82,30.85z"/>
		<path class="st2" d="M34.98,27.53c-0.87,0-0.87,0-0.87-0.87c0-0.87,0-0.87,0.87-0.87c0.87,0,0.87,0,0.87,0.92
			C35.85,27.53,35.85,27.53,34.98,27.53z"/>
	</g>
</g>
<g id="Local_Service_Ads" class="st0">
	<g class="st1">
		<path class="st2" d="M20.31,0c1.11,0.19,2.21,0.39,3.25,0.84c4.27,1.86,6.76,5.14,7.62,9.69c0.14,0.75,0.2,1.52,0.17,2.28
			c-0.01,0.41,0.13,0.48,0.49,0.33c1.07-0.44,2.14-0.87,3.21-1.29c0.35-0.14,0.7-0.27,1.06-0.37c0.75-0.22,1.35,0.19,1.4,0.97
			c0.15,2.18,0.07,4.36,0.06,6.54c-0.01,0.86-0.01,1.72-0.04,2.59c-0.01,0.36,0.21,0.41,0.47,0.5c1.71,0.56,2.87,1.69,3.45,3.39
			c0.93,2.75-0.61,5.78-3.38,6.63c-0.43,0.13-0.55,0.33-0.54,0.75c0.04,1.53,0.06,3.06,0.07,4.59c0,1.35,0.04,2.7-0.05,4.05
			c-0.07,1.1-0.68,1.53-1.7,1.13c-3.55-1.38-7.09-2.78-10.63-4.15c-2.33-0.91-4.65-1.85-7.01-2.69c-0.66-0.23-1.32-0.31-2.01-0.29
			c-0.4,0.01-0.54,0.13-0.53,0.54c0.02,1.11,0.01,2.21,0.01,3.32c0,2.13,0,4.26,0,6.39c0,2.07-1.13,3.59-3.13,4.21
			c-0.08,0.02-0.15,0.06-0.23,0.08c-0.55,0-1.11,0-1.66,0c-2.47-0.83-3.43-2.17-3.43-4.79c0-3.05-0.01-6.11,0.01-9.16
			c0-0.4-0.11-0.58-0.52-0.65c-0.92-0.16-1.68-0.63-2.08-1.46C4.32,33.27,3.86,33,3.19,32.92c-0.08-0.01-0.16-0.05-0.24-0.06
			C1.48,32.61,0.47,31.82,0,30.37c0-2.18,0-4.36,0-6.54c0.43-1.39,1.35-2.22,2.79-2.48c0.35-0.06,0.69-0.19,1.04-0.25
			c0.28-0.05,0.44-0.2,0.56-0.46c0.59-1.24,1.56-1.92,2.97-1.92c0.13,0,0.29,0.06,0.42-0.09c-0.12-0.23-0.23-0.46-0.35-0.69
			c-0.86-1.75-1.31-3.61-1.27-5.56c0.04-2.19,0.65-4.23,1.78-6.11c1.38-2.31,3.15-4.21,5.69-5.29c1.15-0.49,2.35-0.74,3.56-0.97
			C18.23,0,19.27,0,20.31,0z M35.34,27.05c0-4.13,0-8.26,0-12.39c0-0.54-0.01-0.55-0.51-0.35c-1.06,0.41-2.11,0.86-3.18,1.23
			c-0.57,0.2-0.88,0.52-1.08,1.1c-1.63,4.84-6.21,8.22-11.31,8.39c-0.41,0.01-0.48,0.17-0.48,0.53c0.01,2.5,0.02,5.01,0,7.51
			c0,0.43,0.15,0.62,0.54,0.77c5.14,1.98,10.28,3.98,15.41,5.98c0.61,0.24,0.61,0.23,0.61-0.42C35.34,35.28,35.34,31.16,35.34,27.05
			z M6.29,27.05c0,1.68-0.01,3.35,0,5.03c0.01,0.81,0.4,1.19,1.21,1.2c2.85,0,5.69-0.01,8.54,0.01c0.43,0,0.56-0.13,0.56-0.56
			c-0.02-2.46-0.02-4.91,0-7.37c0-0.39-0.15-0.54-0.51-0.61c-2.13-0.45-4.08-1.34-5.62-2.87c-0.87-0.86-1.73-1.08-2.86-0.98
			c-1,0.09-1.33,0.35-1.33,1.38C6.28,23.86,6.28,25.46,6.29,27.05z M13.47,41c0-1.66-0.01-3.32,0.01-4.98
			c0.01-0.43-0.14-0.57-0.56-0.56c-1.02,0.03-2.05,0.02-3.07,0c-0.31,0-0.43,0.1-0.43,0.42c0.01,3.29-0.01,6.57,0.02,9.86
			c0.01,1.27,0.9,2.11,2.1,2.09c1.17-0.02,1.94-0.86,1.95-2.15C13.47,44.12,13.47,42.56,13.47,41z M26.51,13.6
			c-0.71,0-1.43,0.01-2.14,0c-0.28,0-0.41,0.09-0.42,0.39c-0.03,1.1-0.14,2.2-0.35,3.29c-0.04,0.23,0.03,0.39,0.25,0.46
			c0.89,0.31,1.66,0.81,2.39,1.39c0.22,0.17,0.37,0.14,0.53-0.07c1.19-1.49,1.96-3.16,2.24-5.06c0.05-0.32-0.05-0.4-0.35-0.4
			C27.94,13.61,27.23,13.6,26.51,13.6z M10.96,11.4c0.71,0,1.43,0,2.14,0c0.22,0,0.44-0.01,0.44-0.31c-0.01-1.11,0.16-2.2,0.31-3.29
			c0.04-0.27-0.04-0.47-0.32-0.57c-0.82-0.29-1.54-0.76-2.22-1.3c-0.27-0.22-0.43-0.17-0.64,0.09c-1.17,1.47-1.9,3.12-2.21,4.97
			C8.41,11.3,8.51,11.4,8.81,11.4C9.53,11.39,10.24,11.4,10.96,11.4z M26.57,11.4c0.7,0,1.4-0.01,2.09,0
			c0.32,0.01,0.44-0.11,0.39-0.44c-0.31-1.83-1.03-3.47-2.19-4.93c-0.24-0.31-0.42-0.29-0.71-0.06c-0.65,0.52-1.36,0.95-2.14,1.24
			c-0.27,0.1-0.4,0.26-0.35,0.55c0.17,1.06,0.3,2.12,0.33,3.19c0.01,0.35,0.19,0.47,0.54,0.46C25.2,11.38,25.88,11.4,26.57,11.4z
			 M10.93,13.6c-0.65,0-1.3,0.03-1.95-0.01c-0.47-0.03-0.54,0.14-0.47,0.56c0.3,1.8,1.02,3.41,2.15,4.84
			c0.21,0.27,0.38,0.27,0.63,0.06c0.66-0.53,1.38-0.98,2.18-1.27c0.27-0.1,0.41-0.25,0.36-0.55c-0.17-1.06-0.3-2.12-0.33-3.19
			c-0.01-0.35-0.19-0.47-0.53-0.46C12.3,13.62,11.62,13.6,10.93,13.6z M18.75,13.6c-0.89,0-1.79,0-2.68,0
			c-0.25,0-0.38,0.05-0.36,0.36c0.04,0.84,0.13,1.68,0.24,2.52c0.04,0.31,0.18,0.43,0.49,0.37c1.55-0.33,3.09-0.32,4.64,0
			c0.3,0.06,0.44-0.04,0.49-0.36c0.11-0.82,0.18-1.65,0.23-2.47c0.02-0.34-0.1-0.42-0.4-0.41C20.51,13.61,19.63,13.6,18.75,13.6z
			 M18.73,11.4c0.89,0,1.79,0,2.68,0c0.21,0,0.38-0.01,0.37-0.31c-0.02-0.88-0.14-1.75-0.27-2.62c-0.04-0.28-0.2-0.38-0.48-0.32
			c-1.53,0.31-3.06,0.32-4.6,0c-0.33-0.07-0.47,0.05-0.51,0.39c-0.09,0.76-0.15,1.52-0.22,2.28c-0.05,0.51,0.13,0.6,0.58,0.58
			C17.1,11.38,17.92,11.4,18.73,11.4z M4.09,27.1c0-0.93,0-1.85,0-2.78c0-1.15,0-1.15-1.12-0.76c-0.64,0.22-0.8,0.43-0.81,1.1
			c-0.02,1.01-0.06,2.01-0.07,3.02c0,0.66-0.04,1.33,0.06,1.99c0.08,0.48,0.32,0.77,0.76,0.91c0.17,0.06,0.34,0.1,0.52,0.14
			c0.65,0.16,0.66,0.15,0.67-0.51C4.09,29.18,4.09,28.14,4.09,27.1z M18.75,6.23c0.61-0.07,1.24-0.14,1.87-0.22
			c0.24-0.03,0.39-0.13,0.3-0.43c-0.28-0.92-0.59-1.83-1.13-2.63c-0.73-1.07-1.31-1.08-2.04-0.02c-0.55,0.8-0.87,1.7-1.16,2.62
			c-0.09,0.3,0.03,0.43,0.31,0.46C17.5,6.09,18.11,6.16,18.75,6.23z M18.76,18.77c-0.63,0.07-1.26,0.14-1.88,0.21
			c-0.22,0.03-0.38,0.11-0.3,0.38c0.31,1.03,0.65,2.04,1.32,2.91c0.59,0.77,1.13,0.76,1.72-0.02c0.65-0.85,0.99-1.85,1.3-2.86
			c0.09-0.3-0.08-0.38-0.31-0.41C19.99,18.91,19.38,18.84,18.76,18.77z M37.53,27.05c0,0.84,0,1.69,0,2.53
			c0,0.27,0.08,0.37,0.34,0.23c1.05-0.59,1.63-1.47,1.65-2.68c0.01-1.22-0.55-2.14-1.61-2.75c-0.27-0.15-0.38-0.07-0.37,0.23
			C37.54,25.43,37.53,26.24,37.53,27.05z M22.17,2.75C22.49,3.56,22.8,4.24,23,4.96c0.05,0.16,0.13,0.25,0.32,0.16
			c0.47-0.23,0.92-0.48,1.34-0.79c0.16-0.11,0.18-0.22,0-0.34C23.93,3.49,23.14,3.09,22.17,2.75z M15.28,2.74
			c-0.94,0.31-1.7,0.74-2.42,1.23c-0.22,0.15-0.19,0.28,0.01,0.4c0.42,0.25,0.84,0.49,1.25,0.73c0.2,0.12,0.29,0.04,0.34-0.16
			C14.67,4.22,14.95,3.53,15.28,2.74z M22.22,22.25c0.96-0.31,1.73-0.74,2.46-1.25c0.18-0.12,0.14-0.24-0.01-0.34
			c-0.44-0.27-0.89-0.53-1.35-0.78c-0.11-0.06-0.22-0.05-0.26,0.1C22.84,20.73,22.57,21.45,22.22,22.25z M15.35,22.26
			c-0.41-0.79-0.66-1.49-0.89-2.19c-0.07-0.21-0.19-0.23-0.37-0.14c-0.43,0.2-0.82,0.45-1.21,0.71c-0.2,0.13-0.22,0.25,0,0.39
			C13.59,21.52,14.36,21.93,15.35,22.26z"/>
		<path class="st2" d="M50,27.54c-0.34,0.48-0.79,0.65-1.38,0.63c-0.89-0.04-1.78,0-2.68-0.01c-0.71-0.01-1.19-0.43-1.2-1.07
			c-0.01-0.57,0.47-1.09,1.13-1.11c1-0.03,2.01-0.02,3.02,0c0.49,0.01,0.86,0.27,1.11,0.68C50,26.95,50,27.25,50,27.54z"/>
		<path class="st2" d="M43.71,23.01c-0.42-0.03-0.74-0.21-0.94-0.6c-0.2-0.4-0.19-0.82,0.11-1.14c0.78-0.83,1.57-1.64,2.41-2.41
			c0.44-0.4,1.06-0.31,1.45,0.1c0.38,0.4,0.43,1.03,0.03,1.46c-0.75,0.81-1.51,1.61-2.35,2.33C44.22,22.93,43.99,23.03,43.71,23.01z
			"/>
		<path class="st2" d="M47,34.5c-0.03,0.42-0.24,0.73-0.61,0.93c-0.36,0.18-0.74,0.19-1.05-0.07c-0.92-0.75-1.74-1.61-2.52-2.5
			c-0.34-0.38-0.26-0.97,0.08-1.34c0.36-0.4,0.9-0.48,1.37-0.2c0.3,0.18,0.52,0.44,0.76,0.68c0.52,0.51,1.04,1.03,1.55,1.55
			C46.83,33.81,47.02,34.11,47,34.5z"/>
	</g>
</g>
<g id="Social_Media_Ads" class="st0">
	<g class="st1">
		<path class="st2" d="M50,41.93c-0.46,2.05-1.38,3.85-2.9,5.32c-4.86,4.69-13.03,3.13-15.78-3.04c-0.19-0.43-0.37-0.55-0.84-0.41
			c-3.64,1.06-7.29,1.03-10.93-0.03c-0.35-0.1-0.5-0.06-0.66,0.29c-1.56,3.39-4.21,5.39-7.9,5.85c-2.87,0.36-5.44-0.49-7.64-2.4
			c-0.43-0.37-0.5-0.85-0.21-1.2c0.32-0.39,0.76-0.39,1.24,0.03c1.56,1.36,3.4,2.09,5.45,2.08c4.07-0.02,7.19-2.72,8.08-6.29
			c1.21-4.85-2.11-9.62-7.08-10.23c-4.57-0.56-8.82,2.9-9.19,7.46c-0.12,1.48,0.11,2.88,0.7,4.23c0.16,0.36,0.17,0.7-0.12,0.99
			c-0.23,0.23-0.52,0.26-0.82,0.16c-0.33-0.11-0.45-0.41-0.57-0.69c-1.07-2.56-1.11-5.13-0.05-7.69c0.99-2.39,2.69-4.13,5.05-5.19
			c0.42-0.19,0.49-0.39,0.36-0.82c-1.05-3.62-1.05-7.26,0.01-10.88c0.12-0.42,0.04-0.6-0.35-0.78c-3.37-1.6-5.35-4.27-5.77-7.96
			C-0.47,5.95,2.58,1.54,7.18,0.23C7.45,0.15,7.71,0.08,7.98,0c1.27,0,2.54,0,3.81,0c0.06,0.02,0.12,0.05,0.18,0.07
			c3.22,0.8,5.55,2.69,6.93,5.72c0.15,0.33,0.34,0.35,0.65,0.26c3.69-1.07,7.38-1.07,11.06,0.01c0.34,0.1,0.49,0.04,0.63-0.29
			c0.48-1.14,1.18-2.13,2.05-3.01c1.42-1.43,3.14-2.29,5.08-2.75c1.27,0,2.54,0,3.81,0c0.15,0.05,0.31,0.1,0.46,0.14
			c1.88,0.47,3.48,1.41,4.81,2.81c1.33,1.4,2.13,3.09,2.55,4.96c0,1.21,0,2.41,0,3.62c-0.01,0.03-0.03,0.06-0.04,0.09
			c-0.77,3.35-2.7,5.75-5.85,7.16c-0.34,0.15-0.25,0.34-0.18,0.58c1.07,3.7,1.07,7.41-0.01,11.11c-0.11,0.37-0.01,0.51,0.32,0.65
			c1.3,0.57,2.42,1.38,3.37,2.44c1.23,1.37,1.96,2.98,2.38,4.74C50,39.52,50,40.72,50,41.93z M7.02,24.96
			c-0.03,0.93,0.05,1.92,0.21,2.9c0.12,0.71,0.28,1.4,0.47,2.09c0.1,0.37,0.23,0.53,0.67,0.45c1.01-0.2,2.04-0.18,3.06,0
			c5.41,0.93,8.99,5.87,8.17,11.3c-0.05,0.33,0.02,0.48,0.33,0.57c3.44,0.98,6.87,0.98,10.3,0c0.29-0.08,0.38-0.21,0.32-0.52
			c-0.19-1.08-0.19-2.17,0-3.26c0.95-5.34,5.92-8.9,11.28-8.07c0.36,0.06,0.5-0.04,0.59-0.36c0.97-3.42,0.98-6.84,0-10.26
			c-0.08-0.3-0.21-0.41-0.55-0.35c-1.93,0.33-3.79,0.07-5.58-0.72c-3.84-1.69-6.48-5.87-5.74-10.57c0.06-0.4-0.09-0.51-0.41-0.6
			c-1.05-0.29-2.12-0.51-3.21-0.61c-2.37-0.22-4.71-0.04-7,0.64c-0.31,0.09-0.39,0.23-0.33,0.56c0.32,1.81,0.09,3.57-0.59,5.27
			c-0.36,0.9-0.84,1.73-1.45,2.48c-0.23,0.29-0.52,0.44-0.9,0.32c-0.33-0.11-0.5-0.36-0.54-0.69c-0.04-0.3,0.15-0.52,0.32-0.74
			c1.46-1.94,1.96-4.11,1.59-6.5c-0.68-4.36-5.12-7.49-9.47-6.75C4.38,2.23,1.2,6.05,1.64,10.47c0.25,2.5,1.37,4.51,3.41,5.95
			c2.73,1.92,5.64,2.06,8.64,0.64c0.64-0.3,1.09-0.24,1.31,0.23c0.22,0.46,0,0.87-0.62,1.19c-1.9,0.96-3.91,1.31-6.01,0.98
			c-0.39-0.06-0.55,0.01-0.66,0.39C7.25,21.49,6.98,23.17,7.02,24.96z M32.02,9.72c0.01,4.62,3.66,8.26,8.3,8.25
			c4.59-0.01,8.19-3.67,8.23-8.28c0.04-4.21-3.33-8.27-8.26-8.27C35.16,1.43,31.9,5.67,32.02,9.72z M48.54,40.14
			c0-4.6-3.64-8.26-8.23-8.27c-4.63-0.01-8.24,3.64-8.3,8.26c-0.05,4.01,3.12,8.25,8.24,8.28C45.22,48.44,48.62,44.36,48.54,40.14z"
			/>
		<path class="st2" d="M7.16,40.03c0-0.93-0.01-1.85,0-2.78c0.01-0.96,0.82-1.44,1.65-0.97c1.61,0.91,3.22,1.84,4.81,2.78
			c0.86,0.51,0.85,1.44-0.01,1.94c-1.6,0.94-3.2,1.87-4.81,2.78c-0.83,0.47-1.62-0.02-1.64-0.98c0-0.03,0-0.07,0-0.1
			C7.16,41.82,7.16,40.93,7.16,40.03z M12.17,40.04c-1.11-0.64-2.14-1.24-3.16-1.83c-0.24-0.14-0.31-0.05-0.31,0.2
			c0.01,1.09,0,2.18,0,3.27c0,0.27,0.11,0.31,0.33,0.18C10.04,41.27,11.05,40.69,12.17,40.04z"/>
		<path class="st2" d="M31.17,24.01c0,1.86,0,3.71,0,5.57c0,0.18,0.01,0.36-0.03,0.53c-0.09,0.37-0.33,0.6-0.72,0.62
			c-0.39,0.02-0.71-0.17-0.76-0.54c-0.06-0.53-0.41-0.74-0.81-0.93c-0.28-0.13-0.56-0.27-0.82-0.43c-0.4-0.24-0.54-0.67-0.36-1.05
			c0.19-0.4,0.62-0.53,1.08-0.34c0.83,0.34,0.83,0.34,0.83-0.57c0-2.07-0.01-4.14,0.01-6.2c0-0.4-0.08-0.49-0.46-0.29
			c-1.46,0.77-3,1.34-4.6,1.75c-0.36,0.09-0.5,0.26-0.49,0.64c0.03,0.85,0.02,1.69,0,2.54c-0.01,0.32,0.11,0.47,0.41,0.55
			c0.47,0.12,0.94,0.26,1.4,0.42c0.47,0.16,0.67,0.53,0.55,0.95c-0.11,0.42-0.46,0.62-0.95,0.55c-0.11-0.02-0.23-0.04-0.33-0.09
			c-0.91-0.47-1.87-0.23-2.81-0.21c-0.31,0.01-0.33,0.2-0.31,0.43c0.07,1.35,0.14,2.7,0.22,4.04c0.04,0.61-0.23,1.04-0.73,1.08
			c-0.48,0.04-0.8-0.35-0.83-0.98c-0.06-1.33-0.14-2.66-0.2-4c-0.02-0.38-0.14-0.57-0.58-0.59c-1-0.04-1.58-0.6-1.62-1.6
			c-0.04-1.24-0.04-2.48,0-3.71c0.03-1.02,0.66-1.56,1.67-1.57c0.86,0,1.74-0.09,2.59,0.02c1.51,0.2,2.84-0.32,4.19-0.85
			c0.87-0.34,1.7-0.74,2.51-1.2c0.21-0.12,0.34-0.26,0.38-0.52c0.11-0.56,0.44-0.82,0.89-0.76c0.42,0.05,0.68,0.39,0.68,0.93
			C31.17,20.14,31.17,22.08,31.17,24.01z M22.44,23.98c0-0.47-0.01-0.94,0-1.41c0.01-0.29-0.09-0.46-0.42-0.45
			c-0.6,0.01-1.2,0.01-1.8,0c-0.26,0-0.39,0.08-0.39,0.36c0.01,1.01,0.01,2.01,0,3.02c0,0.27,0.12,0.38,0.38,0.37
			c0.6-0.01,1.2-0.01,1.8,0c0.32,0.01,0.44-0.13,0.43-0.44C22.44,24.95,22.44,24.46,22.44,23.98z"/>
		<path class="st2" d="M7.9,14.77c-1.2-0.04-2.35-0.32-3.42-0.88c-0.39-0.2-0.68-0.48-0.56-0.96c0.12-0.47,0.49-0.61,0.93-0.63
			c0.23-0.01,0.46-0.01,0.68-0.03c0.14-0.02,0.33-0.01,0.39-0.15c0.07-0.17-0.12-0.25-0.21-0.34c-0.67-0.67-1.07-1.47-1.25-2.39
			C4.26,8.35,4.4,7.34,4.75,6.36C5.05,5.51,5.73,5.4,6.29,6.1c0.55,0.68,1.23,1.15,2.06,1.4c0.28,0.08,0.42,0.07,0.52-0.26
			c0.59-1.82,2.38-2.55,4.06-1.66c0.25,0.13,0.45,0.14,0.68-0.01c0.15-0.1,0.31-0.19,0.47-0.27c0.29-0.14,0.57-0.14,0.83,0.06
			c0.27,0.21,0.38,0.48,0.3,0.82c-0.08,0.33-0.16,0.69-0.37,0.95c-0.46,0.56-0.49,1.21-0.56,1.87C13.91,12.33,11.21,14.76,7.9,14.77
			z M7.8,13.15c0.55,0.06,1-0.03,1.43-0.15c2.24-0.62,3.56-2.53,3.52-5.06c-0.01-0.6-0.52-1.12-1.13-1.15
			c-0.63-0.03-1.19,0.43-1.26,1.05c-0.02,0.14-0.01,0.29-0.01,0.44c-0.02,0.67-0.3,0.94-0.96,0.95C8.28,9.23,7.28,8.89,6.36,8.29
			c-0.1-0.07-0.2-0.22-0.34-0.14C5.9,8.23,5.96,8.4,5.96,8.52c0.01,0.8,0.28,1.49,0.83,2.07c0.38,0.4,0.86,0.64,1.32,0.91
			c0.58,0.35,0.61,0.93,0.09,1.36C8.09,12.95,7.98,13.02,7.8,13.15z"/>
		<path class="st2" d="M38.84,12.63c0-0.6-0.01-1.21,0-1.81c0.01-0.34-0.13-0.47-0.46-0.46c-0.23,0.01-0.46-0.01-0.68-0.06
			c-0.4-0.09-0.63-0.36-0.61-0.77c0.02-0.43,0.29-0.67,0.71-0.75c0.03-0.01,0.06,0,0.1-0.01c0.94-0.08,0.93-0.08,0.94-1.04
			c0-0.5-0.04-1.01,0.07-1.51c0.29-1.31,1.38-2.22,2.71-2.24c0.31,0,0.62-0.01,0.93,0c0.48,0.02,0.8,0.32,0.82,0.74
			c0.02,0.41-0.26,0.75-0.75,0.81c-0.34,0.05-0.68,0.03-1.02,0.05c-0.7,0.04-1.14,0.49-1.16,1.19c-0.01,0.52,0.01,1.04-0.01,1.56
			c-0.01,0.31,0.1,0.45,0.43,0.44c0.24-0.01,0.49-0.02,0.73,0.02C42,8.85,42.25,9.1,42.28,9.5c0.02,0.4-0.2,0.69-0.59,0.79
			c-0.22,0.06-0.45,0.09-0.68,0.07c-0.46-0.04-0.59,0.16-0.58,0.6c0.02,1.04,0.01,2.08,0.01,3.13c0,0.13,0,0.26,0,0.39
			c-0.02,0.59-0.35,0.98-0.82,0.96c-0.45-0.01-0.76-0.38-0.78-0.95C38.83,13.86,38.84,13.25,38.84,12.63
			C38.84,12.63,38.84,12.63,38.84,12.63z"/>
		<path class="st2" d="M40.28,45.38c-1.03,0-2.05,0.01-3.08,0c-1.3-0.01-2.17-0.88-2.17-2.19c-0.01-2.04-0.01-4.07,0-6.11
			c0.01-1.3,0.88-2.19,2.17-2.2c2.05-0.02,4.1-0.02,6.15,0c1.3,0.01,2.17,0.9,2.17,2.2c0.01,2.04,0.01,4.07,0,6.11
			c-0.01,1.33-0.88,2.19-2.22,2.19C42.3,45.38,41.29,45.38,40.28,45.38z M40.3,36.47c-0.99,0-1.98,0-2.98,0
			c-0.57,0-0.7,0.13-0.7,0.69c-0.01,1.99-0.01,3.97,0,5.96c0,0.54,0.12,0.66,0.67,0.66c1.98,0.01,3.97,0.01,5.95,0
			c0.55,0,0.67-0.12,0.67-0.66c0.01-1.99,0.01-3.97,0-5.96c0-0.56-0.12-0.68-0.69-0.69C42.26,36.47,41.28,36.47,40.3,36.47z"/>
		<path class="st2" d="M40.3,37.89c1.26,0,2.26,1.02,2.24,2.27c-0.02,1.24-1.07,2.28-2.28,2.26c-1.24-0.02-2.25-1.06-2.23-2.3
			C38.04,38.84,39.02,37.88,40.3,37.89z M40.28,39.45c-0.36,0-0.69,0.33-0.69,0.69c0,0.36,0.32,0.68,0.69,0.68
			c0.37,0,0.7-0.32,0.69-0.68C40.97,39.78,40.64,39.45,40.28,39.45z"/>
	</g>
</g>
<g id="Google_Shopping_Ads" class="st0">
	<g class="st1">
		<defs>
			<rect id="SVGID_3_" width="50" height="50"/>
		</defs>
		<clipPath id="SVGID_4_">
			<use xlink:href="#SVGID_3_"  style="overflow:visible;"/>
		</clipPath>
		<g class="st4">
			<path class="st2" d="M50,43.55c-0.49,1.16-1.35,1.62-2.61,1.61c-4.98-0.04-9.96-0.02-14.94-0.02c-0.18,0-0.36,0.01-0.54-0.01
				c-0.43-0.04-0.73-0.37-0.72-0.77c0.01-0.39,0.3-0.7,0.71-0.74c0.18-0.02,0.36-0.01,0.54-0.01c4.95,0,9.89,0,14.84,0
				c1.02,0,1.23-0.21,1.23-1.23c0-9.28,0-18.55,0-27.83c0-0.66,0-0.66-0.68-0.66c-2.36,0-4.72,0-7.08,0c-0.16,0-0.33,0.01-0.49-0.02
				c-0.4-0.09-0.62-0.37-0.62-0.77c0.01-0.41,0.25-0.66,0.65-0.73c0.16-0.03,0.32-0.02,0.49-0.02c2.38,0,4.75-0.01,7.13,0.01
				c0.47,0,0.61-0.14,0.6-0.61c-0.03-1.32-0.01-2.64-0.01-3.95c0-1.02-0.21-1.23-1.22-1.23c-8.89,0-17.77,0-26.66,0
				c-5.96,0-11.91,0-17.87,0c-1.05,0-1.25,0.2-1.25,1.26c0,1.32,0.02,2.64-0.01,3.95c-0.01,0.45,0.12,0.59,0.58,0.58
				c2.88-0.02,5.76-0.01,8.64-0.01c8.76,0,17.51,0,26.27,0c0.2,0,0.39-0.01,0.59,0.01c0.41,0.05,0.69,0.36,0.69,0.75
				c0,0.38-0.29,0.71-0.69,0.76c-0.21,0.02-0.42,0.01-0.63,0.01c-11.55,0-23.11,0-34.66,0c-0.76,0-0.76,0-0.76,0.77
				c0,9.19,0,18.39,0,27.58c0,0.15,0,0.29,0,0.44c0.03,0.62,0.29,0.89,0.9,0.92c0.18,0.01,0.36,0,0.54,0c8.53,0,17.06,0,25.58,0
				c0.2,0,0.39-0.01,0.59,0.01c0.4,0.04,0.69,0.37,0.7,0.75c0,0.38-0.29,0.72-0.68,0.76c-0.19,0.02-0.39,0.01-0.59,0.01
				c-8.64,0-17.28-0.01-25.92,0.02c-1.27,0-2.13-0.45-2.61-1.61c0-12.3,0-24.61,0-36.91c0.48-1.17,1.35-1.61,2.61-1.61
				c14.92,0.02,29.85,0.02,44.77,0c1.27,0,2.13,0.45,2.61,1.61C50,18.95,50,31.25,50,43.55z"/>
			<path class="st2" d="M25.03,19.99c4.56,0,9.11,0,13.67,0c1.59,0,2.51,0.91,2.52,2.51c0.01,3.73,0.01,7.45,0,11.18
				c0,1.49-0.8,2.37-2.28,2.53c-0.19,0.02-0.39,0.02-0.58,0.02c-6.56,0-13.12,0-19.67,0c-0.28,0-0.56,0.01-0.82-0.08
				c-0.37-0.12-0.58-0.39-0.56-0.77c0.02-0.4,0.26-0.66,0.66-0.73c0.19-0.03,0.39-0.02,0.58-0.02c6.66,0,13.31,0,19.97,0
				c0.94,0,1.11-0.17,1.11-1.11c0-3.65,0-7.29,0-10.94c0-0.86-0.16-1.02-1.03-1.02c-9.06,0-18.13,0-27.19,0
				c-0.87,0-1.02,0.16-1.02,1.03c0,3.66,0,7.32,0,10.98c0,0.84,0.2,1.04,1.03,1.04c1.17,0,2.34,0,3.51,0c0.62,0,0.99,0.29,1,0.76
				c0.01,0.45-0.35,0.81-0.92,0.81c-1.33,0.02-2.67,0.06-4-0.03c-1.43-0.1-2.22-1.03-2.22-2.47c-0.01-3.25-0.01-6.51,0-9.76
				c0-0.67-0.06-1.33,0.05-2c0.19-1.22,1.05-1.97,2.29-1.97C15.76,19.99,20.39,19.99,25.03,19.99z"/>
			<path class="st2" d="M22.44,28.16c0-1.14,0-2.28,0-3.42c0-0.76,0.28-1.04,1.03-1.04c0.6-0.01,1.2,0,1.81,0
				c1.67,0.01,2.89,0.84,3.48,2.41c0.58,1.53,0.54,3.07-0.2,4.54c-0.68,1.36-1.84,2.02-3.35,2.06c-0.57,0.01-1.14,0.02-1.71,0.01
				c-0.72-0.01-1.05-0.33-1.06-1.05C22.44,30.5,22.44,29.33,22.44,28.16z M24.05,28.21C24.05,28.21,24.05,28.21,24.05,28.21
				c0,0.58,0,1.17,0,1.75c0,1.18,0,1.17,1.2,1.16c0.91-0.01,1.54-0.43,1.93-1.24c0.43-0.89,0.45-1.83,0.24-2.76
				c-0.29-1.29-0.99-1.82-2.31-1.83c-0.18,0-0.36,0.01-0.54,0c-0.39-0.04-0.55,0.11-0.54,0.53C24.06,26.62,24.05,27.41,24.05,28.21z
				"/>
			<path class="st2" d="M17.43,23.5c0.4,0,0.66,0.35,0.83,0.81c0.66,1.77,1.33,3.53,1.99,5.3c0.24,0.64,0.49,1.27,0.73,1.92
				c0.19,0.52,0.04,0.92-0.4,1.09c-0.46,0.19-0.85-0.01-1.07-0.54C19,30.85,19,30.85,17.69,30.85c-0.6,0-1.2,0.01-1.81,0
				c-0.29,0-0.46,0.1-0.54,0.38c-0.09,0.28-0.2,0.55-0.31,0.82c-0.23,0.55-0.59,0.74-1.06,0.57c-0.46-0.17-0.62-0.57-0.41-1.13
				c0.81-2.15,1.63-4.29,2.45-6.43c0.13-0.33,0.25-0.67,0.39-1C16.56,23.69,16.87,23.5,17.43,23.5z M17.35,26.37
				c-0.05,0-0.1-0.01-0.14-0.01c-0.33,0.88-0.67,1.75-1,2.63c-0.08,0.2,0.03,0.27,0.21,0.27c0.57,0,1.14,0,1.71,0
				c0.24,0,0.28-0.1,0.2-0.31C18,28.09,17.67,27.23,17.35,26.37z"/>
			<path class="st2" d="M33.3,23.5c0.99-0.02,1.79,0.31,2.53,0.82c0.45,0.31,0.57,0.8,0.31,1.18c-0.25,0.36-0.71,0.42-1.17,0.13
				c-0.68-0.43-1.38-0.74-2.21-0.48c-0.38,0.12-0.67,0.32-0.72,0.76c-0.04,0.47,0.24,0.67,0.62,0.81c0.59,0.23,1.18,0.47,1.77,0.7
				c0.15,0.06,0.3,0.13,0.45,0.2c1.18,0.59,1.82,1.62,1.66,2.68c-0.18,1.15-1.14,2.12-2.39,2.33c-1.43,0.25-2.67-0.18-3.74-1.13
				c-0.46-0.41-0.51-0.88-0.18-1.24c0.33-0.36,0.78-0.34,1.25,0.07c0.73,0.64,1.55,0.95,2.52,0.7c0.57-0.15,0.93-0.53,0.96-0.98
				c0.04-0.56-0.35-0.83-0.77-1.02c-0.73-0.33-1.47-0.61-2.21-0.9c-0.97-0.38-1.5-1.08-1.51-2.12c-0.01-1.07,0.56-1.8,1.5-2.26
				C32.4,23.55,32.88,23.47,33.3,23.5z"/>
			<path class="st2" d="M13.79,9.37c0.01,0.7-0.55,1.28-1.25,1.3c-0.69,0.02-1.3-0.57-1.31-1.25c-0.01-0.67,0.58-1.28,1.26-1.31
				C13.17,8.09,13.78,8.68,13.79,9.37z"/>
			<path class="st2" d="M5.17,10.67c-0.69,0-1.27-0.59-1.27-1.28c0-0.67,0.62-1.28,1.3-1.27c0.69,0.01,1.27,0.6,1.27,1.29
				C6.46,10.09,5.86,10.67,5.17,10.67z"/>
			<path class="st2" d="M8.87,10.67c-0.7,0.01-1.28-0.55-1.29-1.25C7.58,8.71,8.14,8.12,8.83,8.11c0.69-0.01,1.28,0.57,1.29,1.26
				C10.12,10.09,9.57,10.66,8.87,10.67z"/>
		</g>
	</g>
</g>
</svg>
