<?xml version="1.0" encoding="utf-8"?>
<!-- Generator: Adobe Illustrator 23.0.1, SVG Export Plug-In . SVG Version: 6.00 Build 0)  -->
<svg version="1.1" xmlns="http://www.w3.org/2000/svg" xmlns:xlink="http://www.w3.org/1999/xlink" x="0px" y="0px"
	 viewBox="0 0 50 50" style="enable-background:new 0 0 50 50;" xml:space="preserve">
<style type="text/css">
	.st0{display:none;}
	.st1{display:inline;}
	.st2{clip-path:url(#SVGID_2_);}
	.st3{fill:#F70D39;}
	.st4{clip-path:url(#SVGID_4_);}
	.st5{clip-path:url(#SVGID_6_);}
</style>
<g id="Brochures" class="st0">
	<g class="st1">
		<defs>
			<rect id="SVGID_1_" width="50" height="50"/>
		</defs>
		<clipPath id="SVGID_2_">
			<use xlink:href="#SVGID_1_"  style="overflow:visible;"/>
		</clipPath>
		<g class="st2">
			<path class="st3" d="M18.58,50c-0.31-0.14-0.64-0.25-0.92-0.44c-0.84-0.57-1.14-1.42-1.14-2.4c0-3.3,0-6.6,0-9.9
				c0-0.72,0-0.73-0.73-0.73c-3.4,0-6.79,0-10.19,0c-0.27,0-0.56-0.01-0.82-0.07c-0.41-0.08-0.61-0.38-0.59-0.78
				c0.02-0.4,0.26-0.66,0.67-0.72c0.18-0.03,0.36-0.02,0.54-0.02c3.49,0,6.99,0,10.48,0c0.64,0,0.64,0,0.64-0.65
				c0-0.33-0.02-0.65,0.01-0.97c0.04-0.42-0.12-0.57-0.55-0.56c-2.29,0.02-4.58,0.01-6.88,0.01c-1.28,0-2.57,0-3.85,0
				c-0.71,0-1.07-0.27-1.07-0.78c0-0.5,0.36-0.76,1.09-0.76c3.54,0,7.09-0.01,10.63,0.01c0.49,0,0.68-0.14,0.63-0.63
				c-0.03-0.31-0.03-0.62,0-0.93c0.04-0.43-0.15-0.56-0.56-0.56c-3.23,0.01-6.47,0.01-9.7,0.01c-0.16,0-0.33,0-0.49,0
				c-1.07-0.03-1.61-0.56-1.62-1.64c-0.01-1.33,0-2.67,0-4c0-0.67-0.01-1.33,0-2c0.02-1.12,0.55-1.64,1.66-1.64c3.33,0,6.66,0,10,0
				c0.72,0,0.72,0,0.72-0.73c-0.01-1.25,0.15-1.09-1.09-1.09c-3.17-0.01-6.34,0-9.51,0c-1.27,0-1.78-0.5-1.78-1.77
				c0-1.92,0-3.84,0-5.75c0-1.23,0.53-1.76,1.75-1.76c3.3,0,6.6-0.01,9.9,0.01c0.48,0,0.71-0.07,0.77-0.63
				c0.14-1.51,1.02-2.49,2.43-3c2.59-0.95,5.19-1.89,7.78-2.84c0.58-0.21,1.16-0.43,1.74-0.65c-0.12-0.13-0.26-0.06-0.38-0.06
				c-8.06,0-16.13,0-24.19,0c-1.17,0-1.52,0.35-1.52,1.51c0,12.73,0,25.46,0,38.18c0,1.12,0.37,1.49,1.49,1.49c3.17,0,6.34,0,9.51,0
				c0.79,0,1.18,0.27,1.16,0.79c-0.02,0.5-0.39,0.75-1.16,0.75c-3.25,0-6.5,0-9.75,0c-1.81,0-2.85-0.99-2.93-2.8
				c-0.01-0.18,0-0.36,0-0.54c0-12.53,0-25.07,0-37.6c0-0.29,0.01-0.59,0.04-0.88c0.18-1.53,1.18-2.44,2.71-2.44
				c9.22,0,18.43,0,27.65,0c1.63,0,2.72,1.07,2.76,2.71c0.02,0.76,0,1.53,0,2.29c0,0.75,0,0.76,0.73,0.76c2.55,0,5.1,0.01,7.66-0.01
				c0.44,0,0.76,0.14,1.08,0.44c1.48,1.44,2.96,2.87,4.47,4.27c0.48,0.44,0.94,0.9,1.42,1.33c0.3,0.27,0.43,0.6,0.43,1
				c0,0.13,0,0.26,0,0.39c0,11.2,0,22.4,0,33.6c0,0.44-0.01,0.88-0.13,1.31c-0.27,1.01-0.97,1.58-1.92,1.89
				C37.96,50,28.27,50,18.58,50z M18.22,27.91c0,6.32,0,12.65,0,18.97c0,0.18,0,0.36,0,0.54c0.03,0.55,0.32,0.91,0.86,1.03
				c0.24,0.05,0.48,0.05,0.73,0.05c8.87,0,17.75,0,26.62,0c0.13,0,0.26,0,0.39,0c0.78-0.05,1.28-0.58,1.28-1.36
				c0-11.09,0-22.17,0.01-33.26c0-0.45-0.16-0.55-0.57-0.54c-0.97,0.02-1.95-0.01-2.93,0.01c-1.57,0.03-3.02-1.29-2.93-2.97
				c0.04-0.81-0.02-1.63,0.02-2.44c0.02-0.5-0.15-0.63-0.64-0.63c-7.12,0.01-14.24,0.01-21.36,0.01c-1.15,0-1.49,0.34-1.49,1.48
				C18.22,15.17,18.22,21.54,18.22,27.91z M11.14,10.33c-1.62,0-3.25,0.01-4.87-0.01c-0.39,0-0.54,0.1-0.54,0.52
				c0.02,1.69,0.02,3.38,0,5.07c0,0.41,0.14,0.53,0.54,0.52c3.23-0.01,6.46-0.01,9.69,0c0.41,0,0.58-0.11,0.57-0.55
				c-0.02-1.67-0.02-3.34,0-5.02c0.01-0.44-0.15-0.55-0.57-0.55C14.35,10.34,12.75,10.33,11.14,10.33z M11.09,27.54
				c1.62,0,3.25-0.01,4.87,0.01c0.41,0,0.58-0.1,0.57-0.54c-0.02-1.67-0.02-3.34,0-5.02c0.01-0.43-0.15-0.55-0.57-0.55
				c-3.23,0.01-6.46,0.01-9.69,0c-0.39,0-0.55,0.1-0.54,0.52c0.02,1.69,0.02,3.38,0,5.06c0,0.41,0.14,0.53,0.53,0.52
				C7.87,27.53,9.48,27.54,11.09,27.54z M21.92,5.72c0.01,0.02,0.02,0.04,0.04,0.06c1.59,0,3.18,0,4.77,0c1.69,0,3.38,0,5.07,0
				c0.21,0,0.5,0.07,0.51-0.28c0.01-1.01,0.01-2.01-0.01-3.02c-0.01-0.38-0.23-0.5-0.6-0.34c-0.42,0.18-0.84,0.34-1.27,0.49
				C27.58,3.66,24.75,4.69,21.92,5.72z M43.4,8.52c0,0.83-0.03,1.57,0.01,2.31c0.02,0.48,0.38,0.84,0.9,0.87
				c0.8,0.05,1.61,0.01,2.41,0.01c0.02-0.04,0.05-0.07,0.07-0.11C45.59,10.7,44.68,9.49,43.4,8.52z"/>
			<path class="st3" d="M43.83,26.73c0-0.14,0-0.29,0-0.43c0-2.86,0-5.72,0-8.58c0-0.64-0.01-0.65-0.66-0.65c-4.75,0-9.49,0-14.24,0
				c-0.26,0-0.51,0-0.77-0.09c-0.31-0.12-0.47-0.35-0.48-0.67c-0.01-0.31,0.13-0.56,0.45-0.69c0.26-0.11,0.53-0.14,0.81-0.14
				c4.79,0,9.59-0.01,14.38,0c1.58,0,2.2,0.65,2.2,2.24c0,3.2,0,6.4,0,9.6c0,1.45-0.66,2.11-2.12,2.11c-6.86,0-13.72,0-20.57,0
				c-1.16,0-1.85-0.44-2.07-1.32c-0.05-0.2-0.06-0.42-0.06-0.63c0-3.35,0-6.7,0-10.04c0-1.17,0.53-1.78,1.68-1.92
				c0.82-0.1,1.66-0.07,2.48-0.02c0.54,0.03,0.87,0.39,0.85,0.82c-0.02,0.45-0.37,0.74-0.92,0.75c-0.65,0.01-1.3,0.01-1.95,0
				c-0.29,0-0.46,0.08-0.46,0.41c0,3.07,0,6.14,0.01,9.21c0,0.04,0.03,0.08,0.07,0.18c0.21-0.25,0.39-0.47,0.58-0.69
				c1.59-1.84,3.18-3.68,4.78-5.52c1.03-1.18,2.51-1.36,3.48-0.41c0.43,0.42,0.84,0.86,1.22,1.32c0.72,0.88,1.48,1.73,2.23,2.58
				c0.23,0.26,0.37,0.22,0.57-0.02c0.44-0.52,0.91-1.01,1.36-1.53c0.8-0.91,2.12-1.03,3.07-0.28c0.8,0.63,1.31,1.52,2.02,2.24
				c0.69,0.7,1.29,1.49,1.95,2.22C43.75,26.76,43.79,26.74,43.83,26.73z M28,27.84c0.97,0,1.95-0.06,2.92,0.02
				c0.86,0.06,1.51-0.14,1.96-0.9c0.21-0.34,0.49-0.65,0.77-0.94c0.21-0.23,0.18-0.41-0.01-0.63c-1.1-1.28-2.19-2.56-3.3-3.83
				c-0.37-0.42-0.75-0.41-1.11,0c-0.48,0.53-0.94,1.07-1.42,1.6c-1.14,1.26-2.22,2.58-3.33,3.87c-0.13,0.15-0.25,0.3-0.39,0.43
				c-0.09,0.09-0.27,0.15-0.23,0.28c0.05,0.18,0.25,0.1,0.38,0.1C25.5,27.84,26.75,27.84,28,27.84z M34.32,27.79
				c0.2,0.02,0.27,0.04,0.35,0.04c2.45,0,4.9,0,7.35,0c0.12,0,0.28,0.06,0.35-0.09c0.05-0.1-0.06-0.17-0.13-0.24
				c-1.06-1.2-2.13-2.4-3.18-3.61c-0.56-0.64-0.85-0.66-1.4-0.02c-0.63,0.72-1.21,1.48-1.88,2.17
				C35.28,26.56,34.85,27.15,34.32,27.79z"/>
			<path class="st3" d="M33.11,34.51c-3.71,0-7.41,0-11.12,0c-0.78,0-1.17-0.26-1.17-0.79c0-0.52,0.41-0.81,1.17-0.81
				c7.41,0,14.82,0,22.23,0c0.02,0,0.03,0,0.05,0c0.71,0.01,1.13,0.31,1.12,0.81c0,0.52-0.38,0.79-1.12,0.79
				C40.56,34.52,36.84,34.51,33.11,34.51z"/>
			<path class="st3" d="M33.09,38.52c-3.69,0-7.38,0-11.07,0c-0.82,0-1.21-0.27-1.2-0.81c0.02-0.52,0.42-0.78,1.19-0.78
				c7.39,0,14.79,0,22.18,0c0.78,0,1.22,0.31,1.2,0.83c-0.02,0.52-0.4,0.77-1.2,0.77C40.5,38.52,36.8,38.52,33.09,38.52z"/>
			<path class="st3" d="M30.08,42.52c-2.68,0-5.36,0-8.04,0c-0.16,0-0.33,0.01-0.49-0.01c-0.43-0.06-0.69-0.31-0.72-0.73
				c-0.02-0.43,0.23-0.7,0.64-0.8c0.17-0.04,0.35-0.04,0.53-0.04c5.39,0,10.78,0,16.18,0c0.19,0,0.39,0.01,0.58,0.06
				c0.37,0.11,0.57,0.38,0.55,0.77c-0.02,0.39-0.24,0.64-0.61,0.73c-0.19,0.05-0.39,0.03-0.58,0.03
				C35.44,42.52,32.76,42.52,30.08,42.52z"/>
		</g>
	</g>
</g>
<g id="Booklet" class="st0">
	<g class="st1">
		<defs>
			<rect id="SVGID_3_" x="0" width="50" height="50"/>
		</defs>
		<clipPath id="SVGID_4_">
			<use xlink:href="#SVGID_3_"  style="overflow:visible;"/>
		</clipPath>
		<g class="st4">
			<path class="st3" d="M50,14.26c0,9.73,0,19.47,0,29.2c-0.27,0.61-0.76,0.86-1.4,0.88c-0.21,0.01-0.42,0.01-0.63,0.01
				c-6.02,0-12.03,0-18.05-0.01c-0.46,0-0.84,0.07-1.18,0.42c-0.35,0.36-0.84,0.48-1.34,0.48c-1.59,0-3.19,0-4.78,0
				c-0.5,0-0.99-0.12-1.34-0.48c-0.34-0.36-0.73-0.42-1.18-0.42c-5.02,0.01-10.05,0.01-15.07,0.01c-1.15,0-2.31,0-3.46,0
				c-0.68,0-1.25-0.2-1.54-0.88c0-9.73,0-19.47,0-29.2c0.27-0.61,0.76-0.86,1.4-0.88c0.2-0.01,0.39,0,0.59-0.01
				c0.59-0.01,0.63-0.05,0.64-0.65c0.01-0.68-0.02-1.37,0.01-2.05c0.04-0.92,0.49-1.36,1.41-1.41c0.41-0.02,0.81-0.02,1.22-0.01
				C5.59,9.27,5.74,9.13,5.74,8.8c-0.01-0.52-0.01-1.04,0-1.56c0.02-1.08,0.48-1.61,1.55-1.78c2.29-0.37,4.58-0.52,6.9-0.32
				c3.79,0.33,7.29,1.46,10.42,3.65c0.5,0.35,0.98,0.49,1.57,0.49c6.43-0.01,12.85-0.01,19.28-0.01c1.33,0,1.91,0.58,1.92,1.9
				c0.01,0.57,0.01,1.14,0,1.71c-0.01,0.35,0.14,0.51,0.49,0.5c0.24-0.01,0.49,0,0.73,0.01C49.24,13.4,49.73,13.65,50,14.26z
				 M25.81,25.52c0,4.65,0,9.31,0,13.96c0,0.71,0,0.71,0.71,0.71c6.18,0,12.37,0,18.55,0c0.7,0,0.7,0,0.7-0.71
				c0-9.29,0-18.59,0-27.88c0-0.73,0-0.73-0.73-0.73c-6.17,0-12.34,0-18.51,0c-0.73,0-0.73,0-0.73,0.74
				C25.8,16.25,25.81,20.89,25.81,25.52z M7.35,21.66c0,4.67,0,9.34,0,14.01c0,0.6,0.08,0.67,0.59,0.59
				c2.34-0.37,4.69-0.46,7.05-0.16c3.09,0.4,6,1.31,8.67,2.93c0.14,0.08,0.27,0.25,0.43,0.18c0.2-0.09,0.11-0.32,0.11-0.48
				c0-9.24,0-18.49,0.01-27.73c0-0.42-0.14-0.69-0.48-0.93c-1.25-0.87-2.59-1.57-4.01-2.1c-3.73-1.4-7.57-1.62-11.48-1.05
				c-0.9,0.13-0.88,0.05-0.88,1.07C7.35,12.54,7.35,17.1,7.35,21.66z M24.89,41.75c-6.82,0-13.64,0-20.46,0
				c-0.23,0-0.46,0.01-0.68-0.02c-0.55-0.05-0.93-0.4-1.05-0.93c-0.08-0.34-0.08-0.68-0.08-1.02c0-8.02,0-16.05,0-24.07
				c0-0.31,0.13-0.72-0.44-0.74C1.57,14.95,1.5,15,1.5,15.66c0,8.71,0,17.41,0,26.12c0,1.05-0.08,0.97,0.98,0.97
				c5.96,0,11.91,0,17.87,0c0.68,0,1.29,0.15,1.76,0.67c0.18,0.2,0.42,0.23,0.67,0.23c1.48,0,2.96,0,4.44,0
				c0.23,0,0.46-0.02,0.63-0.2c0.51-0.57,1.17-0.7,1.9-0.7c6.02,0.01,12.04,0.01,18.06,0.01c0.67,0,0.68,0,0.68-0.69
				c0-8.8,0-17.61,0-26.41c0-0.07-0.01-0.13,0-0.2c0.03-0.37-0.16-0.48-0.5-0.48c-0.33,0.01-0.64,0-0.62,0.46
				c0.01,0.18,0,0.36,0,0.54c0,7.88,0,15.75,0,23.63c0,0.33,0.01,0.65-0.07,0.97c-0.16,0.69-0.67,1.13-1.38,1.17
				c-0.23,0.01-0.46,0.01-0.68,0.01C38.46,41.75,31.68,41.75,24.89,41.75z M22.45,40.2c-0.16-0.11-0.21-0.14-0.26-0.17
				c-0.59-0.35-1.21-0.63-1.84-0.89c-3.2-1.33-6.53-1.78-9.98-1.55c-1.04,0.07-2.06,0.3-3.1,0.34c-0.85,0.03-1.42-0.48-1.52-1.32
				c-0.03-0.24-0.02-0.49-0.02-0.73c0-8.04,0-16.07,0-24.11c0-0.18,0-0.36-0.01-0.54c0-0.12-0.03-0.25-0.14-0.29
				c-0.38-0.12-0.79-0.12-1.15-0.02c-0.32,0.09-0.2,0.44-0.2,0.69c-0.01,9.29,0,18.58,0,27.87c0,0.72,0,0.73,0.74,0.73
				c5.63,0,11.26,0,16.89,0C22.01,40.2,22.17,40.2,22.45,40.2z"/>
			<path class="st3" d="M35.81,13.86c2.18,0,4.36,0,6.54,0c0.26,0,0.52,0.02,0.78,0.06c0.58,0.1,0.93,0.47,0.94,1.07
				c0.02,1.3,0.02,2.6,0,3.9c-0.01,0.61-0.4,0.98-1.01,1.06c-0.24,0.03-0.49,0.05-0.73,0.05c-2.57,0-5.14,0-7.71,0
				c-0.26,0-0.52-0.01-0.78-0.06c-0.41-0.07-0.63-0.36-0.63-0.76c0-0.4,0.25-0.67,0.65-0.74c0.19-0.04,0.39-0.03,0.58-0.03
				c2.46,0,4.91,0,7.37,0c0.63,0,0.67-0.04,0.67-0.66c0-0.6-0.01-1.2,0-1.81c0-0.35-0.15-0.49-0.5-0.49c-4.17,0.01-8.33,0-12.5,0
				c-0.3,0-0.46,0.1-0.45,0.43c0.01,0.7,0.01,1.4,0,2.1c0,0.31,0.13,0.44,0.44,0.44c0.36-0.01,0.72-0.01,1.07,0.01
				c0.47,0.03,0.79,0.36,0.79,0.77c0,0.39-0.29,0.71-0.74,0.76c-0.73,0.08-1.46,0.09-2.19-0.02c-0.52-0.07-0.89-0.47-0.9-1
				c-0.02-1.33-0.02-2.67,0-4c0.01-0.54,0.35-0.91,0.88-1.01c0.27-0.05,0.55-0.07,0.82-0.07C31.42,13.86,33.61,13.86,35.81,13.86z"
				/>
			<path class="st3" d="M35.75,32.25c-2.34,0-4.68,0-7.03,0c-0.23,0-0.46,0.01-0.68-0.07c-0.34-0.13-0.53-0.36-0.53-0.73
				c0-0.37,0.19-0.61,0.53-0.73c0.2-0.07,0.41-0.07,0.63-0.07c4.73,0,9.47,0,14.2,0c0.8,0,1.21,0.29,1.2,0.83
				c-0.02,0.52-0.41,0.78-1.2,0.78C40.49,32.25,38.12,32.25,35.75,32.25z"/>
			<path class="st3" d="M35.79,26.73c2.34,0,4.68,0,7.03,0c0.18,0,0.36-0.01,0.54,0.02c0.41,0.07,0.69,0.31,0.71,0.74
				c0.02,0.43-0.23,0.7-0.65,0.78c-0.22,0.04-0.45,0.06-0.68,0.06c-4.65,0-9.3,0-13.95,0c-0.23,0-0.46-0.02-0.68-0.07
				c-0.38-0.08-0.58-0.34-0.59-0.73c-0.01-0.4,0.21-0.65,0.57-0.75c0.2-0.05,0.42-0.05,0.63-0.05
				C31.07,26.73,33.43,26.73,35.79,26.73z"/>
			<path class="st3" d="M35.76,24.4c-2.26,0-4.52,0-6.78,0c-0.28,0-0.55-0.01-0.83-0.06c-0.43-0.07-0.65-0.35-0.64-0.79
				c0.02-0.42,0.27-0.65,0.66-0.72c0.17-0.03,0.36-0.02,0.54-0.02c4.72,0,9.43,0,14.15,0c0.18,0,0.36-0.01,0.53,0.02
				c0.42,0.08,0.67,0.34,0.67,0.77c-0.01,0.41-0.24,0.67-0.65,0.73c-0.29,0.04-0.58,0.06-0.87,0.06
				C40.28,24.41,38.02,24.4,35.76,24.4z"/>
			<path class="st3" d="M35.74,36.16c-2.31,0-4.62,0-6.93,0c-0.18,0-0.36,0.01-0.54-0.01c-0.46-0.05-0.75-0.33-0.77-0.74
				c-0.02-0.42,0.22-0.72,0.69-0.81c0.21-0.04,0.42-0.05,0.63-0.05c4.62,0,9.24,0,13.85,0c0.26,0,0.52,0.02,0.77,0.07
				c0.38,0.07,0.6,0.33,0.61,0.72c0.01,0.41-0.22,0.67-0.61,0.77c-0.19,0.05-0.39,0.04-0.58,0.04
				C40.49,36.17,38.12,36.16,35.74,36.16z"/>
			<path class="st3" d="M12.34,14.06c-1.14,0-2.04,0.05-2.93,0.13c-0.3,0.03-0.59-0.02-0.8-0.26c-0.39-0.44-0.16-1.12,0.44-1.25
				c0.48-0.1,0.96-0.15,1.45-0.18c4.28-0.23,8.33,0.51,12.01,2.83c0.1,0.06,0.19,0.12,0.28,0.2c0.34,0.29,0.42,0.72,0.2,1.05
				c-0.22,0.34-0.64,0.46-1.03,0.25c-0.63-0.34-1.23-0.73-1.88-1.04C17.67,14.63,15.16,14.08,12.34,14.06z"/>
			<path class="st3" d="M12.11,18.87c-0.91-0.04-1.82,0.08-2.73,0.11C8.8,19,8.47,18.75,8.43,18.3c-0.04-0.46,0.27-0.79,0.86-0.86
				c4.66-0.54,9.08,0.15,13.13,2.63c0.68,0.41,0.86,0.85,0.58,1.29c-0.28,0.45-0.75,0.46-1.41,0.05c-2.21-1.38-4.62-2.13-7.19-2.44
				C13.63,18.88,12.87,18.89,12.11,18.87z"/>
			<path class="st3" d="M11.55,22.05c4.1,0.04,7.66,0.81,10.88,2.84c0.15,0.09,0.3,0.2,0.43,0.32c0.29,0.29,0.35,0.63,0.12,0.97
				c-0.23,0.34-0.56,0.42-0.94,0.29c-0.11-0.04-0.2-0.1-0.3-0.16c-2.99-1.89-6.28-2.66-9.79-2.66c-0.83,0-1.65,0.07-2.48,0.14
				c-0.6,0.05-1-0.21-1.05-0.68c-0.05-0.48,0.3-0.82,0.9-0.88C10.18,22.16,11.04,22.09,11.55,22.05z"/>
			<path class="st3" d="M14.54,27.01c2.82,0.31,5.62,1.19,8.14,2.85c0.43,0.29,0.55,0.72,0.33,1.09c-0.24,0.4-0.72,0.52-1.19,0.22
				c-1.86-1.19-3.88-1.96-6.05-2.37c-0.53-0.1-1.06-0.16-1.59-0.25c-0.54-0.1-0.81-0.42-0.75-0.9
				C13.49,27.21,13.81,26.99,14.54,27.01z"/>
			<path class="st3" d="M10.51,26.91c0.34-0.01,0.65,0.02,0.88,0.31c0.35,0.45,0.13,1.09-0.46,1.21c-0.55,0.11-1.12,0.16-1.69,0.18
				c-0.43,0.02-0.77-0.3-0.81-0.69c-0.05-0.41,0.22-0.78,0.68-0.86C9.57,26.98,10.04,26.96,10.51,26.91z"/>
		</g>
	</g>
</g>
<g id="Flyer">
	<g>
		<defs>
			<rect id="SVGID_5_" width="50" height="50"/>
		</defs>
		<clipPath id="SVGID_6_">
			<use xlink:href="#SVGID_5_"  style="overflow:visible;"/>
		</clipPath>
		<g class="st5">
			<path class="st3" d="M7.13,50c-0.93-0.4-1.28-1.14-1.26-2.11c0.01-0.6,0-1.2,0.04-1.8c0.04-0.51,0.4-0.82,0.82-0.79
				c0.43,0.03,0.71,0.37,0.72,0.88c0.01,0.59,0.01,1.17,0,1.76c-0.01,0.39,0.14,0.56,0.54,0.56c3.78-0.01,7.55-0.01,11.33,0
				c0.34,0,0.49-0.19,0.65-0.42c1.95-2.77,3.89-5.54,5.84-8.31c3.33-4.74,6.67-9.47,10-14.21c0.08-0.12,0.17-0.24,0.27-0.35
				c0.31-0.3,0.66-0.36,1.02-0.11c0.35,0.25,0.44,0.62,0.23,0.99c-0.2,0.37-0.46,0.71-0.71,1.05c-4.9,6.96-9.8,13.92-14.69,20.88
				c-0.09,0.12-0.29,0.24-0.19,0.41c0.07,0.13,0.27,0.06,0.41,0.06c1.73,0,3.45-0.01,5.18,0.01c0.38,0,0.62-0.11,0.85-0.43
				c3.71-5.32,7.44-10.64,11.17-15.96c1.05-1.49,2.09-2.99,3.14-4.48c0.13-0.19,0.27-0.36,0.27-0.61c0-2.8,0-5.6,0-8.42
				c-0.19,0.03-0.24,0.19-0.31,0.3c-1.08,1.53-2.16,3.06-3.23,4.59c-0.07,0.11-0.15,0.22-0.24,0.31c-0.31,0.3-0.66,0.34-1.02,0.12
				c-0.35-0.22-0.45-0.66-0.22-1.03c0.38-0.59,0.79-1.15,1.19-1.73c1.2-1.7,2.39-3.41,3.6-5.11c0.17-0.24,0.24-0.48,0.24-0.77
				c-0.01-4.38,0-8.76,0-13.13c0-0.61-0.05-0.66-0.68-0.66c-11.31,0-22.62,0-33.93,0c-0.65,0-0.68,0.03-0.68,0.76
				c0,13.46,0,26.92,0,40.38c0,0.21,0.01,0.43-0.02,0.63c-0.07,0.41-0.33,0.65-0.73,0.65c-0.4,0.01-0.69-0.2-0.77-0.61
				c-0.05-0.25-0.06-0.52-0.06-0.78c0-13.41,0-26.82-0.01-40.23c0-1.02,0.23-1.87,1.27-2.3c11.98,0,23.96,0,35.94,0
				c0.93,0.4,1.28,1.14,1.26,2.11c0,0.2,0,0.39,0,0.59c0,12.89,0,25.77,0,38.66c0,2.16-0.01,4.33,0,6.49
				c0.01,0.98-0.31,1.75-1.26,2.16C31.09,50,19.11,50,7.13,50z M42.74,35.83c-0.03-0.01-0.06-0.02-0.09-0.03
				c-2.92,4.2-5.85,8.4-8.82,12.67c0.25,0.01,0.4,0.02,0.54,0.02c2.55,0,5.11,0,7.66,0c0.68,0,0.71-0.03,0.71-0.73
				c0-3.84,0-7.68,0-11.52C42.74,36.12,42.74,35.98,42.74,35.83z M42.73,30.06c-0.16,0.21-0.26,0.33-0.35,0.46
				c-2.72,3.89-5.45,7.78-8.17,11.67c-1.36,1.94-2.72,3.89-4.08,5.84c-0.09,0.12-0.28,0.25-0.19,0.41c0.07,0.14,0.27,0.06,0.41,0.06
				c0.36,0.01,0.72-0.02,1.07,0.01c0.35,0.03,0.56-0.11,0.76-0.4c3.44-4.96,6.89-9.9,10.34-14.86c0.09-0.13,0.21-0.26,0.21-0.43
				C42.73,31.94,42.73,31.05,42.73,30.06z"/>
			<path class="st3" d="M32.64,18.43c0,0.93,0.01,1.85,0,2.78c-0.01,0.79-0.48,1.12-1.23,0.85c-0.81-0.29-1.61-0.61-2.42-0.9
				c-0.15-0.05-0.31-0.19-0.46-0.07c-0.16,0.13-0.03,0.3,0,0.45c0.07,0.33,0.16,0.66,0.23,1c0.11,0.52-0.11,0.93-0.55,1.03
				c-0.45,0.11-0.83-0.14-0.97-0.66c-0.12-0.45-0.25-0.91-0.32-1.37c-0.07-0.41-0.26-0.64-0.65-0.82c-1.03-0.48-1.53-1.49-1.39-2.66
				c0.12-0.99,0.89-1.85,1.92-2.11c0.09-0.02,0.19-0.06,0.29-0.05c1.39,0.17,2.62-0.39,3.84-0.91c1.31-0.56,1.82-0.15,1.74,1.19
				C32.6,16.93,32.64,17.68,32.64,18.43z M31.04,18.43c0-0.47-0.01-0.94,0-1.42c0-0.27-0.09-0.33-0.36-0.25
				c-1.17,0.35-1.17,0.35-1.17,1.55c0,0.08,0,0.16,0,0.24c0,1.18,0,1.17,1.12,1.54c0.33,0.11,0.41,0,0.41-0.3
				C31.04,19.34,31.04,18.88,31.04,18.43z M27.93,18.42C27.93,18.42,27.92,18.42,27.93,18.42c-0.01-0.23,0-0.45-0.01-0.68
				c0-0.19-0.08-0.29-0.29-0.32c-0.51-0.06-1.02,0.26-1.18,0.75c-0.13,0.41,0.01,0.73,0.3,1c0.27,0.26,0.63,0.32,0.95,0.2
				c0.38-0.14,0.15-0.54,0.21-0.81C27.94,18.52,27.93,18.47,27.93,18.42z"/>
			<path class="st3" d="M20.81,31.47c-2.59,0-5.18,0-7.76,0c-0.1,0-0.2,0-0.29,0c-0.81,0-1.22-0.28-1.21-0.81
				c0.01-0.51,0.43-0.79,1.19-0.79c2.25,0,4.49,0,6.74,0c3.12,0,6.25,0,9.37,0c0.23,0,0.45-0.01,0.68,0.06
				c0.37,0.12,0.57,0.37,0.57,0.76c-0.01,0.39-0.23,0.64-0.6,0.74c-0.19,0.05-0.39,0.04-0.58,0.04
				C26.21,31.47,23.51,31.47,20.81,31.47z"/>
			<path class="st3" d="M27.2,7.2c2.54,0,5.08,0,7.61,0c0.18,0,0.36-0.01,0.53,0.03c0.37,0.09,0.59,0.35,0.61,0.73
				c0.01,0.39-0.19,0.66-0.57,0.75c-0.22,0.06-0.45,0.07-0.68,0.07c-5.04,0-10.09,0-15.13,0c-0.8,0-1.21-0.3-1.19-0.84
				c0.02-0.52,0.39-0.75,1.2-0.75C22.12,7.2,24.66,7.2,27.2,7.2z"/>
			<path class="st3" d="M19.87,33.67c2.38,0,4.75,0,7.13,0c0.19,0,0.4,0,0.58,0.05c0.35,0.1,0.55,0.35,0.56,0.71
				c0.01,0.37-0.18,0.61-0.52,0.75c-0.2,0.08-0.41,0.08-0.62,0.08c-4.78,0-9.57,0-14.35,0c-0.18,0-0.36-0.01-0.53-0.06
				c-0.37-0.11-0.57-0.38-0.56-0.76c0.01-0.41,0.26-0.66,0.65-0.74c0.17-0.04,0.36-0.02,0.53-0.02
				C15.12,33.67,17.5,33.67,19.87,33.67z"/>
			<path class="st3" d="M16.82,6.84c0,1.9-1.56,3.44-3.46,3.43c-1.85-0.01-3.43-1.6-3.41-3.44c0.01-0.51,0.12-1,0.35-1.46
				c0.23-0.49,0.65-0.68,1.07-0.5c0.42,0.18,0.59,0.61,0.38,1.11c-0.33,0.78-0.26,1.49,0.32,2.12c0.53,0.58,1.33,0.74,2.06,0.43
				c0.7-0.29,1.11-0.93,1.1-1.74c-0.01-0.78-0.45-1.42-1.17-1.69C13.92,5.06,13.78,5.04,13.64,5c-0.5-0.12-0.77-0.47-0.71-0.89
				C13,3.65,13.38,3.4,13.9,3.47C15.54,3.66,16.83,5.15,16.82,6.84z"/>
			<path class="st3" d="M28.6,5c-2.03,0-4.07,0-6.1,0c-0.76,0-1.18-0.28-1.19-0.79C21.3,3.69,21.72,3.4,22.52,3.4
				c4.08,0,8.17,0,12.25,0c0.79,0,1.17,0.26,1.18,0.78C35.97,4.72,35.57,5,34.76,5C32.71,5,30.65,5,28.6,5z"/>
			<path class="st3" d="M18.41,39c-1.9,0-3.8,0-5.71,0c-0.16,0-0.33,0.01-0.49-0.02c-0.41-0.06-0.63-0.32-0.66-0.72
				c-0.03-0.39,0.25-0.72,0.66-0.78c0.14-0.02,0.29-0.02,0.44-0.02c3.82,0,7.64,0,11.46,0c0.11,0,0.23,0,0.34,0.01
				c0.46,0.04,0.78,0.37,0.76,0.79c-0.01,0.4-0.32,0.71-0.76,0.74C24.12,39.01,23.78,39,23.43,39C21.76,39,20.08,39,18.41,39z"/>
			<path class="st3" d="M17.4,20.13c-1.55,0-3.09,0-4.64,0c-0.16,0-0.33,0-0.49-0.02c-0.43-0.07-0.74-0.4-0.74-0.78
				c0-0.41,0.32-0.73,0.79-0.78c0.11-0.01,0.23-0.01,0.34-0.01c3.16,0,6.31,0,9.47,0c0.19,0,0.4,0.01,0.58,0.06
				c0.35,0.11,0.54,0.37,0.53,0.73c0,0.36-0.19,0.61-0.54,0.73c-0.22,0.08-0.45,0.07-0.68,0.07C20.5,20.13,18.95,20.13,17.4,20.13z"
				/>
			<path class="st3" d="M17.38,16.33c-1.58,0-3.16,0-4.74,0c-0.18,0-0.36,0-0.53-0.05c-0.35-0.1-0.55-0.36-0.56-0.72
				c-0.01-0.36,0.17-0.63,0.52-0.75c0.18-0.06,0.38-0.08,0.57-0.08c3.16,0,6.31,0,9.47,0c0.18,0,0.36,0.01,0.53,0.06
				c0.39,0.1,0.63,0.36,0.61,0.77c-0.02,0.43-0.28,0.68-0.7,0.75c-0.16,0.03-0.32,0.02-0.49,0.02
				C20.51,16.33,18.94,16.33,17.38,16.33z"/>
			<path class="st3" d="M17.42,23.92c-1.5,0-2.99,0-4.49,0c-0.26,0-0.52-0.01-0.78-0.07c-0.41-0.08-0.62-0.38-0.6-0.78
				c0.02-0.4,0.26-0.66,0.66-0.73c0.14-0.02,0.29-0.01,0.44-0.01c3.17,0,6.34,0,9.52,0c0.13,0,0.26-0.01,0.39,0.01
				c0.4,0.06,0.66,0.3,0.69,0.71c0.03,0.41-0.18,0.69-0.57,0.8c-0.23,0.06-0.48,0.07-0.73,0.07C20.45,23.92,18.93,23.92,17.42,23.92
				z"/>
			<path class="st3" d="M16.89,42.8c-1.45,0-2.9,0-4.34,0c-0.63,0-0.99-0.28-1-0.76c-0.02-0.47,0.34-0.82,0.95-0.82
				c2.94-0.01,5.89-0.01,8.83,0c0.63,0,0.97,0.34,0.95,0.82c-0.02,0.48-0.38,0.76-1,0.76C19.82,42.81,18.36,42.8,16.89,42.8z"/>
			<path class="st3" d="M15.97,46.6c-1.11,0-2.21,0-3.32,0c-0.21,0-0.42,0-0.62-0.09c-0.31-0.15-0.49-0.39-0.48-0.73
				c0.01-0.32,0.19-0.55,0.48-0.68C12.24,45,12.47,45,12.7,45c2.16,0,4.33,0,6.49,0c0.11,0,0.23,0,0.34,0.01
				c0.49,0.05,0.81,0.39,0.8,0.82c-0.01,0.42-0.33,0.74-0.8,0.76c-0.54,0.03-1.07,0.01-1.61,0.01C17.27,46.6,16.62,46.6,15.97,46.6z
				"/>
			<path class="st3" d="M34.41,16.83c-0.47-0.04-0.76-0.22-0.85-0.62c-0.09-0.4,0.06-0.71,0.44-0.87c0.25-0.1,0.53-0.18,0.8-0.2
				c0.4-0.04,0.69,0.16,0.81,0.55c0.12,0.4-0.04,0.72-0.39,0.89C34.95,16.71,34.64,16.76,34.41,16.83z"/>
			<path class="st3" d="M34.62,19.25c-0.29,0-0.58-0.03-0.82-0.23c-0.34-0.29-0.36-0.8-0.05-1.12c0.38-0.39,1.4-0.36,1.73,0.06
				c0.28,0.35,0.21,0.85-0.16,1.11C35.11,19.21,34.87,19.25,34.62,19.25z"/>
			<path class="st3" d="M34.66,21.72c-0.14-0.03-0.38-0.07-0.61-0.16c-0.4-0.16-0.59-0.46-0.5-0.89c0.09-0.41,0.37-0.61,0.78-0.59
				c0.26,0.01,0.52,0.06,0.76,0.15c0.4,0.14,0.61,0.44,0.53,0.87C35.55,21.52,35.21,21.75,34.66,21.72z"/>
		</g>
	</g>
</g>
</svg>
