<?xml version="1.0" encoding="utf-8"?>
<!-- Generator: Adobe Illustrator 23.0.1, SVG Export Plug-In . SVG Version: 6.00 Build 0)  -->
<svg version="1.1" xmlns="http://www.w3.org/2000/svg" xmlns:xlink="http://www.w3.org/1999/xlink" x="0px" y="0px"
	 viewBox="0 0 50 50" style="enable-background:new 0 0 50 50;" xml:space="preserve">
<style type="text/css">
	.st0{display:none;}
	.st1{display:inline;}
	.st2{clip-path:url(#SVGID_2_);}
	.st3{fill:#F70D39;}
	.st4{clip-path:url(#SVGID_4_);}
</style>
<g id="Android_App" class="st0">
	<g class="st1">
		<defs>
			<rect id="SVGID_1_" x="0" width="50" height="50"/>
		</defs>
		<clipPath id="SVGID_2_">
			<use xlink:href="#SVGID_1_"  style="overflow:visible;"/>
		</clipPath>
		<g class="st2">
			<path class="st3" d="M37.4,0c1.75,0.63,2.46,1.62,2.46,3.48c0,14.35,0,28.69,0,43.04c0,1.86-0.7,2.85-2.46,3.48
				c-8.2,0-16.41,0-24.61,0c-1.76-0.63-2.46-1.62-2.46-3.48c0-14.35,0-28.69,0-43.04c0-1.86,0.71-2.86,2.46-3.48c1.33,0,2.67,0,4,0
				c0.35,0.26,0.53,0.59,0.37,1.01c-0.15,0.42-0.51,0.49-0.92,0.49c-0.86-0.01-1.72-0.01-2.59,0c-1.11,0.01-1.72,0.63-1.73,1.73
				c0,0.78,0,1.56,0,2.34c0,0.76,0,0.76,0.74,0.76c6.12,0,12.23,0,18.35,0c2.24,0,4.49-0.01,6.73,0.01c0.37,0,0.53-0.1,0.52-0.5
				c-0.02-0.93-0.01-1.85-0.01-2.78c0-0.59-0.27-1.03-0.77-1.32c-0.36-0.21-0.77-0.24-1.18-0.24c-5.42,0-10.83,0-16.25,0
				c-0.42,0-0.79-0.07-0.95-0.52C18.96,0.54,19.16,0.23,19.53,0C25.49,0,31.45,0,37.4,0z M38.26,25.01c0-5.47,0-10.94,0-16.4
				c0-0.68,0-0.68-0.67-0.68c-8.33,0-16.66,0-25,0c-0.66,0-0.67,0-0.67,0.68c0,10.92,0,21.84,0,32.76c0,0.7,0,0.7,0.69,0.7
				c8.32,0,16.63,0,24.95,0c0.69,0,0.69,0,0.69-0.71C38.26,35.91,38.26,30.46,38.26,25.01z M25.1,43.67c-0.68,0-1.37,0-2.05,0
				c-3.51,0-7.03,0-10.54,0c-0.3,0-0.6-0.04-0.59,0.42c0.02,0.98-0.01,1.95,0.01,2.93c0.01,0.67,0.46,1.2,1.11,1.39
				c0.27,0.08,0.54,0.09,0.82,0.09c7.48,0,14.96,0,22.44,0c0.13,0,0.26,0,0.39-0.01c0.97-0.08,1.55-0.69,1.56-1.66
				c0.01-0.83,0-1.66,0-2.49c0-0.68,0-0.68-0.67-0.68C33.43,43.67,29.27,43.67,25.1,43.67z"/>
			<path class="st3" d="M27.1,4.71c-0.62,0-1.24,0.01-1.85,0c-0.55-0.01-0.9-0.3-0.93-0.74c-0.03-0.44,0.35-0.84,0.88-0.84
				c1.28-0.02,2.57-0.02,3.85,0c0.58,0.01,0.89,0.36,0.86,0.84C29.89,4.43,29.56,4.71,29,4.71C28.36,4.72,27.73,4.71,27.1,4.71z"/>
			<path class="st3" d="M22.01,4.93c-0.57,0-1.03-0.45-1.03-1.01c0-0.53,0.51-1.02,1.05-1.01c0.53,0.01,0.99,0.47,1,1
				C23.04,4.48,22.59,4.93,22.01,4.93z"/>
			<path class="st3" d="M25.11,23.5c1.43,0,2.86,0,4.3,0c1.21,0,1.97,0.77,1.98,1.99c0,0.42,0.01,0.85,0,1.27
				c-0.01,0.6-0.28,0.91-0.78,0.91c-0.49-0.01-0.75-0.32-0.75-0.93c0-0.36-0.01-0.72,0-1.07c0.01-0.43-0.17-0.63-0.61-0.63
				c-2.77,0.01-5.53,0-8.3,0c-0.4,0-0.6,0.17-0.6,0.59c0,1.56,0.01,3.12,0,4.69c0,0.4,0.19,0.55,0.57,0.55c2.78,0,5.56,0,8.35,0
				c0.37,0,0.57-0.12,0.6-0.53c0.04-0.52,0.35-0.79,0.82-0.76c0.44,0.03,0.69,0.32,0.71,0.83c0.03,0.87-0.33,1.52-1.12,1.88
				c-0.27,0.12-0.34,0.29-0.34,0.57c0.01,0.81,0.01,1.63,0,2.44c-0.02,1.15-0.83,2-1.97,2.09c-1.04,0.08-2-0.66-2.2-1.74
				c-0.16-0.84-0.04-1.69-0.07-2.53c-0.02-0.58-0.47-0.87-0.99-0.62c-0.19,0.09-0.16,0.27-0.16,0.42c-0.01,0.75,0.02,1.5-0.01,2.25
				c-0.06,1.73-1.7,2.75-3.15,1.97c-0.68-0.37-1.07-0.95-1.08-1.73c-0.02-0.83-0.02-1.66,0-2.49c0.01-0.31-0.08-0.5-0.39-0.64
				c-0.73-0.34-1.08-0.95-1.08-1.76c0-1.69-0.01-3.38,0-5.08c0.01-1.12,0.79-1.9,1.9-1.91C22.18,23.5,23.65,23.5,25.11,23.5z
				 M22.92,33.99c0-0.41,0-0.81,0-1.22c0-0.39-0.3-0.32-0.53-0.32c-0.23,0.01-0.57-0.12-0.58,0.31c-0.01,0.83-0.01,1.66,0.01,2.48
				c0.01,0.32,0.21,0.56,0.56,0.55c0.35-0.02,0.52-0.25,0.52-0.59C22.93,34.8,22.92,34.39,22.92,33.99z M27.27,33.98
				c0,0.39,0,0.78,0,1.17c0,0.35,0.15,0.63,0.52,0.64c0.4,0.01,0.57-0.28,0.58-0.64c0.02-0.78,0-1.56,0.01-2.33
				c0.01-0.41-0.28-0.37-0.53-0.36c-0.26,0.01-0.59-0.09-0.58,0.36C27.28,33.2,27.27,33.59,27.27,33.98z"/>
			<path class="st3" d="M25.08,22.78c-1.19,0-2.38,0-3.56,0c-2.05,0-2.67-0.66-2.71-2.72c-0.03-1.56,0.38-2.96,1.33-4.19
				c0.34-0.44,0.72-0.85,1.19-1.15c0.3-0.2,0.33-0.39,0.14-0.68c-0.09-0.15-0.16-0.32-0.2-0.49c-0.07-0.37,0.06-0.68,0.42-0.84
				c0.38-0.16,0.8-0.09,0.93,0.27c0.29,0.79,0.8,0.73,1.45,0.58c0.85-0.21,1.72-0.14,2.56,0.1c0.35,0.1,0.56,0.04,0.69-0.3
				c0.04-0.1,0.1-0.2,0.16-0.3c0.26-0.4,0.67-0.53,1.05-0.34c0.35,0.18,0.57,0.63,0.33,1c-0.39,0.61-0.13,0.88,0.33,1.28
				c1.45,1.24,2.19,2.84,2.18,4.76c0,0.29,0,0.59,0,0.88c-0.01,1.27-0.87,2.13-2.16,2.14C27.84,22.78,26.46,22.78,25.08,22.78z
				 M25.08,21.18c1.32,0,2.63,0,3.95,0c0.68,0,0.81-0.14,0.82-0.84c0.01-0.39-0.03-0.78-0.07-1.17c-0.39-3.51-4.48-5.35-7.37-3.32
				c-1.57,1.11-2.12,2.69-2.07,4.54c0.02,0.63,0.16,0.78,0.78,0.78C22.44,21.18,23.76,21.18,25.08,21.18z"/>
			<path class="st3" d="M32.29,26.99c0-0.44,0-0.88,0-1.32c0.01-1.2,0.87-2.14,1.98-2.17c1.23-0.04,2.19,0.78,2.25,2.01
				c0.05,0.97,0.05,1.95,0,2.92c-0.06,1.2-1.05,2.09-2.18,2.05c-1.17-0.04-2.04-0.98-2.05-2.23C32.29,27.83,32.29,27.41,32.29,26.99
				z M34.94,27.01C34.94,27.01,34.94,27.01,34.94,27.01c0-0.45,0-0.91,0-1.36c0-0.35-0.19-0.57-0.53-0.58
				c-0.35,0-0.52,0.24-0.52,0.58c0,0.88-0.01,1.75,0,2.63c0,0.35,0.15,0.61,0.55,0.59c0.36-0.02,0.5-0.26,0.5-0.6
				C34.94,27.85,34.94,27.43,34.94,27.01z"/>
			<path class="st3" d="M17.9,26.98c0,0.44,0,0.88,0,1.32c-0.01,1.21-0.9,2.15-2.06,2.18c-1.14,0.03-2.12-0.86-2.18-2.07
				c-0.05-0.96-0.04-1.92,0-2.88c0.05-1.22,1.01-2.06,2.23-2.03c1.12,0.03,1.99,0.96,2,2.16C17.91,26.1,17.9,26.54,17.9,26.98z
				 M16.31,27.01C16.31,27.01,16.31,27.01,16.31,27.01c0-0.45,0-0.91,0-1.36c0-0.34-0.18-0.58-0.53-0.57
				c-0.34,0.01-0.52,0.24-0.52,0.58c0,0.88,0,1.75,0,2.63c0,0.34,0.15,0.58,0.51,0.59c0.4,0.02,0.54-0.25,0.54-0.6
				C16.32,27.85,16.31,27.43,16.31,27.01z"/>
			<path class="st3" d="M37.32,10.3c0,0.24,0.03,0.49-0.01,0.73c-0.06,0.42-0.32,0.68-0.75,0.7c-0.41,0.01-0.69-0.22-0.77-0.61
				c-0.11-0.56-0.11-1.13,0.01-1.69c0.09-0.4,0.39-0.59,0.79-0.57c0.41,0.02,0.66,0.27,0.72,0.67C37.35,9.78,37.32,10.05,37.32,10.3
				z"/>
			<path class="st3" d="M35.09,10.53c0,0.06,0,0.13,0,0.19c-0.01,0.64-0.3,1.01-0.8,1.01c-0.47,0-0.77-0.36-0.79-0.98
				c-0.01-0.26,0-0.52,0.04-0.77c0.07-0.44,0.42-0.72,0.8-0.7c0.42,0.02,0.71,0.34,0.75,0.81C35.09,10.24,35.08,10.38,35.09,10.53
				C35.08,10.53,35.09,10.53,35.09,10.53z"/>
			<path class="st3" d="M32.84,10.75c0,0.6-0.3,0.98-0.78,0.99c-0.49,0.01-0.82-0.4-0.82-1.01c0-0.59,0.31-0.97,0.79-0.99
				C32.54,9.73,32.84,10.11,32.84,10.75z"/>
			<path class="st3" d="M25.12,45.29c0.37,0,0.75-0.01,1.12,0c0.47,0.02,0.8,0.33,0.82,0.74c0.02,0.4-0.29,0.79-0.75,0.82
				c-0.81,0.04-1.62,0.04-2.43,0c-0.46-0.02-0.76-0.41-0.75-0.81c0.02-0.41,0.34-0.72,0.82-0.74
				C24.34,45.27,24.73,45.29,25.12,45.29z"/>
			<path class="st3" d="M23.77,18.74c-0.01,0.16,0.01,0.33-0.03,0.48c-0.09,0.37-0.33,0.6-0.71,0.62c-0.39,0.02-0.66-0.17-0.77-0.54
				c-0.1-0.31-0.11-0.64-0.05-0.96c0.08-0.47,0.41-0.77,0.81-0.75c0.44,0.02,0.73,0.35,0.75,0.86
				C23.76,18.54,23.76,18.64,23.77,18.74C23.76,18.74,23.76,18.74,23.77,18.74z"/>
			<path class="st3" d="M26.45,18.71c0-0.15-0.02-0.29,0-0.44c0.06-0.4,0.31-0.65,0.71-0.68c0.4-0.03,0.68,0.19,0.79,0.58
				c0.1,0.33,0.09,0.67,0.02,1.01c-0.1,0.44-0.42,0.7-0.83,0.65c-0.43-0.05-0.66-0.31-0.7-0.74C26.43,18.97,26.44,18.84,26.45,18.71
				C26.44,18.71,26.44,18.71,26.45,18.71z"/>
		</g>
	</g>
</g>
<g id="iOS_App">
	<g>
		<defs>
			<rect id="SVGID_3_" x="0" width="50" height="50"/>
		</defs>
		<clipPath id="SVGID_4_">
			<use xlink:href="#SVGID_3_"  style="overflow:visible;"/>
		</clipPath>
		<g class="st4">
			<path class="st3" d="M17.19,50c-2.05-0.44-3.57-1.68-4.88-3.21c-3.76-4.38-6.2-9.41-7.22-15.09c-0.64-3.57-0.66-7.14,0.56-10.6
				c1.72-4.87,5.08-7.96,10.23-8.96c2.05-0.4,4.01,0.02,5.92,0.74c0.75,0.28,1.49,0.55,2.23,0.86c0.91,0.37,1.78,0.36,2.7,0
				c1.53-0.6,3.05-1.24,4.66-1.6c2.66-0.59,5.24-0.25,7.73,0.81c1.95,0.83,3.54,2.11,4.77,3.83c0.58,0.8,0.5,1.31-0.31,1.89
				c-2.06,1.46-3.6,3.31-4.17,5.81c-1.03,4.44,1.02,8.69,5.11,10.71c1.04,0.52,1.18,0.84,0.81,1.93c-1.32,3.82-3.39,7.2-6.08,10.2
				c-1.32,1.47-2.94,2.45-4.95,2.68c-0.39,0-0.78,0-1.17,0c-1.42-0.19-2.72-0.73-4.02-1.27c-1.89-0.78-3.82-0.82-5.75-0.16
				c-1.43,0.49-2.77,1.21-4.29,1.43C18.42,50,17.81,50,17.19,50z M17.74,14.08c-0.5,0.04-1.01,0.04-1.5,0.13
				c-3.47,0.63-6.06,2.52-7.74,5.6c-1.69,3.09-1.96,6.44-1.6,9.86c0.3,2.85,1.07,5.58,2.22,8.21c1.35,3.08,3.2,5.85,5.49,8.3
				c1.62,1.73,3.53,2.23,5.76,1.3c0.53-0.22,1.05-0.43,1.58-0.64c2.01-0.79,4.07-1.09,6.21-0.59c1.06,0.24,2.04,0.67,3.03,1.08
				c0.93,0.39,1.89,0.61,2.89,0.55c1.36-0.08,2.46-0.75,3.35-1.71c2.42-2.62,4.31-5.58,5.61-8.91c0.11-0.29,0.06-0.44-0.2-0.59
				c-0.72-0.41-1.39-0.91-2.01-1.46c-2.98-2.7-4.13-6.08-3.68-10.02c0.35-3.06,1.86-5.51,4.22-7.45c0.31-0.26,0.29-0.43,0.03-0.69
				c-2.63-2.6-5.8-3.49-9.4-2.87c-1.67,0.29-3.21,1.06-4.8,1.63c-1.03,0.37-2.06,0.5-3.1,0.15c-0.99-0.33-1.96-0.71-2.93-1.06
				C20.05,14.48,18.93,14.14,17.74,14.08z"/>
			<path class="st3" d="M34.47,0c0.79,0.52,0.7,1.35,0.67,2.11C35,4.96,33.93,7.42,31.95,9.46c-1.83,1.88-4.03,2.99-6.71,2.97
				c-0.81-0.01-1.19-0.37-1.25-1.18c-0.23-3.43,1.17-6.19,3.6-8.48c1.58-1.48,3.5-2.33,5.61-2.77C33.63,0,34.05,0,34.47,0z
				 M26.07,9.87c-0.1,0.39,0.06,0.46,0.38,0.37c0.12-0.03,0.26-0.04,0.38-0.08c2.58-0.71,4.28-2.43,5.41-4.78
				c0.37-0.78,0.61-1.61,0.73-2.47c0.09-0.63-0.02-0.71-0.61-0.52c-0.62,0.2-1.21,0.46-1.78,0.79C28,4.69,26.53,6.95,26.07,9.87z"/>
			<path class="st3" d="M8.09,27.84c-0.06-1.15,0.03-2.13,0.2-3.11c0.11-0.66,0.6-1.07,1.16-1.01c0.59,0.07,1.01,0.61,0.91,1.28
				c-0.63,4.19,0.27,8.14,1.93,11.96c0.47,1.07,1.03,2.1,1.66,3.09c0.08,0.12,0.16,0.25,0.22,0.38c0.33,0.63,0.21,1.22-0.33,1.52
				c-0.52,0.3-1.08,0.13-1.46-0.45c-2.24-3.43-3.65-7.17-4.19-11.23c-0.05-0.35-0.09-0.71-0.11-1.07
				C8.08,28.69,8.09,28.19,8.09,27.84z"/>
			<path class="st3" d="M9.42,21.21c0.11-0.46,0.32-0.97,0.76-1.34c0.35-0.3,0.85-0.28,1.22,0c0.37,0.27,0.51,0.73,0.36,1.17
				c-0.12,0.34-0.28,0.67-0.51,0.94c-0.3,0.35-0.67,0.51-1.13,0.34C9.65,22.13,9.42,21.79,9.42,21.21z"/>
		</g>
	</g>
</g>
</svg>
