<?xml version="1.0" encoding="utf-8"?>
<!-- Generator: Adobe Illustrator 23.0.1, SVG Export Plug-In . SVG Version: 6.00 Build 0)  -->
<svg version="1.1" id="Layer_1" xmlns="http://www.w3.org/2000/svg" xmlns:xlink="http://www.w3.org/1999/xlink" x="0px" y="0px"
	 viewBox="0 0 70 70" style="enable-background:new 0 0 70 70;" xml:space="preserve">
<style type="text/css">
	.st0{clip-path:url(#SVGID_2_);}
	.st1{fill:#FE214F;}
</style>
<g>
	<defs>
		<rect id="SVGID_1_" width="70" height="70"/>
	</defs>
	<clipPath id="SVGID_2_">
		<use xlink:href="#SVGID_1_"  style="overflow:visible;"/>
	</clipPath>
	<g class="st0">
		<path class="st1" d="M0,29.7c0-7.1,0-14.2,0-21.3C0,5.1,2.1,3,5.4,3c13.1,0,26.2,0,39.2,0c3.4,0,5.5,2.6,5.4,5.4
			c-0.1,9.1,0,18.2,0,27.3c0,0.2,0,0.5,0,0.7c-0.1,0.9-0.7,1.5-1.5,1.6c-0.8,0.1-1.5-0.4-1.8-1.2c-0.1-0.4-0.1-0.9-0.1-1.3
			c0-6,0-12,0-18c0-1.1,0-1.1-1.1-1.1c-13.6,0-27.2,0-40.9,0c-1.1,0-1.1,0-1.1,1.1c0,11.1,0,22.1,0,33.2c0,1.7,0.5,2.1,2.1,2.1
			c4.5,0,9,0,13.5,0c0.3,0,0.5,0,0.8,0c1.1,0.1,1.8,0.7,1.9,1.7c0,1-0.7,1.8-1.9,1.8c-5,0-10,0-15.1,0c-2.7,0-4.8-2.3-4.8-5
			C0,44.1,0,36.9,0,29.7z M15.9,6.5c-3.5,0-7.1,0-10.6,0c-1.2,0-1.8,0.6-1.8,1.8c0,1.3,0,2.6,0,3.9c0,0.6,0.2,0.8,0.8,0.8
			c6.3,0,12.6,0,19,0c0.5,0,0.8-0.2,1-0.6c0.8-1.7,1.7-3.4,2.6-5.1c0.3-0.6,0.1-0.7-0.5-0.7C22.9,6.5,19.4,6.5,15.9,6.5z M37.1,13
			c2.9,0,5.7,0,8.6,0c0.6,0,0.8-0.2,0.8-0.8c0-1.3,0-2.6,0-4c0-1.1-0.6-1.7-1.8-1.7c-4.3,0-8.6,0-12.9,0c-0.6,0-0.8,0.2-1.1,0.7
			c-0.8,1.7-1.7,3.3-2.5,5C27.9,13,27.9,13,28.7,13C31.5,13,34.3,13,37.1,13z"/>
		<path class="st1" d="M46.6,39.6c6,0,12.1,0,18.1,0c3.2,0,5.3,2.1,5.3,5.3c0,5.4,0,10.8,0,16.2c0,3.1-2.1,5.3-5.2,5.3
			c-12.1,0-24.1,0-36.2,0c-3.1,0-5.3-2.2-5.3-5.3c0-5.4,0-10.7,0-16.1c0-3.2,2.1-5.3,5.3-5.3C34.6,39.6,40.6,39.6,46.6,39.6z
			 M46.7,43.1c-6,0-12,0-17.9,0c-1.4,0-1.9,0.5-1.9,1.9c0,5.3,0,10.5,0,15.8c0,1.5,0.5,2,2,2c11.9,0,23.8,0,35.7,0c1.4,0,2-0.5,2-2
			c0-5.2,0-10.5,0-15.7c0-1.6-0.4-2-2.1-2C58.5,43.1,52.6,43.1,46.7,43.1z"/>
		<path class="st1" d="M25,32.9c5.2,0,10.5,0,15.7,0c0.2,0,0.4,0,0.5,0c1.3,0,2.1,0.7,2.1,1.8c0,1-0.8,1.7-2.1,1.7
			c-7.8,0-15.6,0-23.5,0c-3,0-6.1,0-9.1,0c-0.7,0-1.4-0.2-1.8-0.8c-0.7-1.1,0-2.4,1.3-2.6c0.3,0,0.6,0,0.9,0
			C14.4,32.9,19.7,32.9,25,32.9z"/>
		<path class="st1" d="M14.2,39.6c1.8,0,3.7,0,5.5,0c1.2,0,2,0.7,2,1.7c0,1-0.8,1.8-2,1.8c-2.1,0-4.2,0-6.2,0c-1.7,0-3.3,0-5,0
			c-1.4,0-2.2-1.1-1.9-2.2c0.2-0.8,0.8-1.2,1.8-1.2C10.4,39.6,12.3,39.6,14.2,39.6z"/>
		<path class="st1" d="M14.2,49.7c-1.9,0-3.7,0-5.6,0c-1.2,0-2-0.7-2-1.7c0-0.9,0.8-1.7,1.9-1.8c3.8,0,7.5,0,11.3,0
			c1.2,0,2,0.8,1.9,1.8c0,1-0.8,1.7-2,1.7C17.9,49.7,16.1,49.7,14.2,49.7z"/>
		<path class="st1" d="M36.7,23.2c-1.6,0-3.1,0-4.7,0c-1.3,0-2.1-0.7-2-1.8c0-0.9,0.6-1.6,1.6-1.6c3.4,0,6.9,0,10.3,0
			c0.9,0,1.5,0.7,1.6,1.5c0.1,0.7-0.4,1.5-1.1,1.8c-0.4,0.1-0.8,0.2-1.2,0.2C39.6,23.2,38.1,23.2,36.7,23.2
			C36.7,23.2,36.7,23.2,36.7,23.2z"/>
		<path class="st1" d="M36.7,29.7c-1.6,0-3.2,0-4.8,0c-1.1,0-1.8-0.6-1.9-1.6c-0.1-1,0.5-1.7,1.6-1.9c0.3,0,0.6,0,0.9,0
			c2.8,0,5.7,0,8.5,0c0.3,0,0.7,0,1,0.1c0.9,0.2,1.5,1,1.4,1.8c-0.1,0.9-0.8,1.5-1.7,1.6C40,29.7,38.3,29.7,36.7,29.7
			C36.7,29.7,36.7,29.7,36.7,29.7z"/>
		<path class="st1" d="M11.6,29.7c-0.5,0-0.9-0.2-1.2-0.6c-1.1-1-2.1-2.1-3.1-3.1c-0.8-0.8-0.8-1.8,0-2.6c1-1.1,2.1-2.1,3.2-3.2
			c0.8-0.7,1.8-0.7,2.5-0.1c0.7,0.7,0.7,1.7-0.1,2.5c-0.4,0.5-0.9,0.9-1.4,1.4c-0.5,0.4-0.6,0.8,0,1.3c0.6,0.5,1.1,1.1,1.6,1.7
			c0.5,0.6,0.5,1.2,0.2,1.9C12.9,29.5,12.4,29.7,11.6,29.7z"/>
		<path class="st1" d="M21.8,19.7c0.5,0,0.9,0.2,1.2,0.6c1,1,2.1,2.1,3.1,3.1c0.8,0.8,0.8,1.8,0,2.6c-1,1.1-2.1,2.1-3.2,3.2
			c-0.8,0.7-1.8,0.7-2.5,0c-0.7-0.7-0.7-1.7,0.1-2.5c0.5-0.5,1-1,1.5-1.5c0.4-0.3,0.4-0.6,0-0.9c-0.6-0.5-1.2-1.1-1.7-1.7
			c-0.5-0.6-0.6-1.2-0.3-1.9C20.4,20,21,19.7,21.8,19.7z"/>
		<path class="st1" d="M16,27.9c-1.4,0-2.3-1.3-1.8-2.4c0.5-1.1,1.2-2.2,1.9-3.2c0.5-0.8,1.5-0.9,2.2-0.5c0.8,0.5,1.1,1.4,0.7,2.2
			c-0.5,1.1-1.2,2.1-1.8,3.1C17,27.6,16.5,27.8,16,27.9z"/>
		<path class="st1" d="M35,9.8c0,0.9-0.8,1.7-1.7,1.7c-0.9,0-1.7-0.8-1.7-1.7c0-0.9,0.8-1.7,1.7-1.7C34.3,8,35,8.8,35,9.8z"/>
		<path class="st1" d="M40,9.8c0,0.9-0.8,1.7-1.7,1.7c-0.9,0-1.7-0.8-1.7-1.8c0-0.9,0.8-1.7,1.8-1.7C39.3,8,40,8.8,40,9.8z"/>
		<path class="st1" d="M45,9.8c0,0.9-0.8,1.7-1.7,1.7c-0.9,0-1.7-0.8-1.7-1.7c0-0.9,0.8-1.7,1.7-1.7C44.2,8,45,8.8,45,9.8z"/>
		<path class="st1" d="M53.3,44.6c1.1,0,2.1,0,3.2,0c1.1,0,1.8,0.7,1.9,1.7c0,0.9-0.7,1.8-1.8,1.8c-1.3,0.1-2.6,0.1-3.9,0
			c-0.7,0-1,0.2-1,1c0,2.1,0,2.1,2.1,2.1c0.8,0,1.7,0,2.5,0c1.3,0,2,0.7,2.1,2c0,2,0,4.1,0,6.1c0,1.3-0.7,2-2.1,2c-2,0-4.1,0-6.1,0
			c-1.2,0-2-0.7-2-1.8c0-1,0.8-1.7,2-1.7c1.3,0,2.6,0,3.9,0c0.6,0,0.8-0.2,0.8-0.7c0-0.5,0-1.1,0-1.6c0-0.6-0.2-0.8-0.8-0.8
			c-1.3,0-2.6,0-4,0c-1.2,0-1.9-0.7-1.9-1.9c0-2.1,0-4.1,0-6.2c0-1.2,0.7-1.9,2-1.9c0.1,0,0.1,0,0.2,0
			C51.3,44.6,52.3,44.6,53.3,44.6z"/>
		<path class="st1" d="M45,53c0,2.1,0,4.3,0,6.4c0,1.3-0.7,2-2,2c-2.1,0-4.1,0-6.2,0c-1.3,0-2-0.7-2-2c0-1,0-2,0-3
			c0-1,0.6-1.7,1.5-1.8c1-0.1,1.7,0.4,1.9,1.4c0,0.2,0.1,0.4,0.1,0.6c0,1.4,0,1.2,1.3,1.2c2,0,1.8,0.3,1.8-1.8c0-2.4,0-4.7,0-7.1
			c0-0.7-0.2-0.9-0.9-0.9c-1.2,0-2.5,0-3.7,0c-1.3,0-2-0.8-2-1.8c0-0.9,0.6-1.6,1.6-1.6c2.3,0,4.6,0,6.9,0c1,0,1.6,0.7,1.6,1.8
			C45,48.6,45,50.8,45,53z"/>
	</g>
</g>
</svg>
