<?xml version="1.0" encoding="utf-8"?>
<!-- Generator: Adobe Illustrator 23.0.1, SVG Export Plug-In . SVG Version: 6.00 Build 0)  -->
<svg version="1.1" id="Layer_1" xmlns="http://www.w3.org/2000/svg" xmlns:xlink="http://www.w3.org/1999/xlink" x="0px" y="0px"
	 viewBox="0 0 50 50" style="enable-background:new 0 0 50 50;" xml:space="preserve">
<style type="text/css">
	.st0{fill:#F70D39;}
</style>
<g>
	<path class="st0" d="M50,2.44c0,15.04,0,30.08,0,45.12c-0.39,1.24-1.18,2.07-2.44,2.44c-15.04,0-30.08,0-45.12,0
		C1.18,49.63,0.39,48.8,0,47.56C0,32.52,0,17.48,0,2.44C0.39,1.2,1.18,0.37,2.44,0c1.82,0,3.65,0,5.47,0
		c0.57,0.38,0.77,0.79,0.6,1.29c-0.15,0.47-0.53,0.7-1.21,0.7c-1.3,0-2.6-0.01-3.9,0C2.48,2,2.06,2.41,2.06,3.34
		c-0.01,1.27,0,2.54,0,3.81c0,0.86,0.01,1.72,0,2.59c0,0.35,0.15,0.51,0.5,0.49c0.15-0.01,0.29,0,0.44,0c14.67,0,29.35,0,44.02,0
		c0.15,0,0.29-0.01,0.44,0c0.36,0.02,0.5-0.15,0.5-0.49c-0.01-2.18,0-4.36-0.01-6.54c-0.01-0.72-0.39-1.11-1.1-1.18
		c-0.21-0.02-0.42-0.01-0.63-0.01c-9.88,0-19.75,0-29.63,0c-0.71,0-1.09-0.22-1.24-0.72C15.19,0.79,15.37,0.4,15.92,0
		c10.55,0,21.09,0,31.64,0C48.82,0.37,49.61,1.2,50,2.44z M25.02,12.31c-7.31,0-14.61,0-21.92,0c-0.18,0-0.36,0.01-0.54,0
		c-0.34-0.01-0.52,0.13-0.51,0.49c0.01,0.15,0,0.29,0,0.44c0,11.02,0,22.04,0,33.05c0,0.21,0,0.42,0.01,0.63
		c0.04,0.57,0.32,0.88,0.87,1.03c0.27,0.07,0.55,0.05,0.83,0.05c14.16,0,28.32,0,42.48,0c0.24,0,0.49,0,0.73-0.04
		c0.63-0.11,0.93-0.47,0.97-1.1c0.01-0.18,0.01-0.36,0.01-0.54c0-11.05,0-22.1,0-33.15c0-0.88,0-0.88-0.91-0.88
		C39.7,12.3,32.36,12.31,25.02,12.31z"/>
	<path class="st0" d="M12.3,0c0.43,0.24,0.69,0.58,0.63,1.11c-0.04,0.39-0.26,0.66-0.61,0.81c-0.44,0.19-0.94,0.04-1.22-0.34
		c-0.28-0.38-0.26-0.9,0.05-1.26C11.26,0.19,11.4,0.1,11.52,0C11.78,0,12.04,0,12.3,0z"/>
	<path class="st0" d="M14.22,7.16c-2.28,0-4.56,0-6.84,0c-0.18,0-0.36,0.01-0.54-0.01C6.29,7.09,5.89,6.69,5.85,6.17
		C5.82,5.67,6.18,5.22,6.73,5.1c0.19-0.04,0.39-0.04,0.58-0.04c4.59,0,9.18,0,13.77,0c0.24,0,0.49,0,0.73,0.07
		c0.45,0.15,0.75,0.53,0.76,0.97c0,0.46-0.32,0.88-0.79,1c-0.2,0.05-0.42,0.05-0.63,0.05C18.84,7.16,16.53,7.16,14.22,7.16z"/>
	<path class="st0" d="M38.88,6.1c0.01,0.54-0.48,1.04-1.02,1.04c-0.54,0.01-1.03-0.47-1.04-1.02c-0.01-0.54,0.47-1.04,1.02-1.04
		C38.38,5.08,38.87,5.55,38.88,6.1z"/>
	<path class="st0" d="M31.56,6.11c0-0.55,0.48-1.03,1.03-1.02c0.55,0.01,1.03,0.49,1.02,1.03c0,0.55-0.49,1.03-1.03,1.03
		C32.04,7.14,31.56,6.65,31.56,6.11z"/>
	<path class="st0" d="M42.09,6.11c0-0.54,0.5-1.03,1.04-1.02c0.54,0.01,1.03,0.5,1.02,1.04c-0.01,0.54-0.5,1.03-1.04,1.02
		C42.57,7.13,42.08,6.64,42.09,6.11z"/>
	<path class="st0" d="M17.04,15c3.51,0,7.03,0,10.54,0c1.05,0,1.36,0.31,1.36,1.38c0,5.24,0,10.48,0,15.72c0,1.16-0.33,1.5-1.52,1.5
		c-5.84,0-11.68,0-17.52,0c-1.14,0-2.28,0.01-3.42,0c-1.12-0.01-1.44-0.35-1.44-1.47c0-5.25,0-10.51,0-15.76
		c0-1.07,0.3-1.36,1.36-1.36C9.95,14.99,13.5,15,17.04,15z M7.07,28.79c0.03,0.01,0.07,0.02,0.1,0.03c0.09-0.13,0.18-0.26,0.27-0.4
		c1.65-2.59,3.3-5.19,4.94-7.79c0.23-0.36,0.49-0.66,0.94-0.69c0.5-0.03,0.81,0.25,1.06,0.65c1.21,1.91,2.43,3.82,3.63,5.73
		c0.21,0.34,0.33,0.37,0.56,0.01c0.73-1.19,1.49-2.37,2.24-3.55c0.68-1.06,1.46-1.07,2.14,0c1.16,1.82,2.32,3.65,3.48,5.48
		c0.1,0.16,0.15,0.36,0.35,0.43c0.09-0.08,0.07-0.19,0.07-0.28c0-3.61-0.01-7.22,0.01-10.83c0-0.52-0.27-0.57-0.68-0.57
		c-6.15,0.01-12.3,0-18.45,0.01c-0.67,0-0.67,0-0.67,0.69c0,3.48,0,6.96,0,10.44C7.07,28.37,7.07,28.58,7.07,28.79z M13.38,31.51
		c1.63,0,3.25,0,4.88,0c0.15,0,0.36,0.08,0.44-0.1c0.07-0.15-0.08-0.27-0.16-0.39c-1.61-2.54-3.22-5.09-4.84-7.63
		c-0.29-0.45-0.33-0.45-0.61-0.01c-1.62,2.55-3.25,5.11-4.86,7.67c-0.07,0.12-0.24,0.23-0.15,0.38c0.09,0.14,0.27,0.07,0.41,0.07
		C10.12,31.51,11.75,31.51,13.38,31.51z M23.64,31.51c0.65,0,1.3-0.01,1.95,0c0.36,0.01,0.39-0.11,0.21-0.39
		c-1.22-1.92-2.44-3.84-3.65-5.76c-0.19-0.31-0.32-0.3-0.51,0c-0.63,1.01-1.26,2.01-1.91,3c-0.16,0.24-0.14,0.44,0.01,0.67
		c0.46,0.71,0.92,1.42,1.36,2.14c0.16,0.25,0.36,0.34,0.65,0.34C22.37,31.5,23,31.51,23.64,31.51z"/>
	<path class="st0" d="M44.96,41.46c0,2.29-1.83,4.09-4.14,4.09c-2.25-0.01-4.09-1.86-4.1-4.11c-0.01-2.24,1.9-4.14,4.15-4.13
		C43.14,37.3,44.96,39.16,44.96,41.46z M40.88,39.39c-1.14-0.01-2.06,0.89-2.08,2.01c-0.01,1.14,0.87,2.04,2.02,2.06
		c1.14,0.01,2.07-0.88,2.09-2C42.93,40.34,42,39.4,40.88,39.39z"/>
	<path class="st0" d="M5.04,41.4c0.01-2.26,1.86-4.1,4.1-4.1c2.26,0,4.13,1.89,4.13,4.15c0,2.27-1.86,4.11-4.15,4.1
		C6.84,45.54,5.03,43.7,5.04,41.4z M9.16,43.46c1.15-0.01,2.04-0.91,2.04-2.05c-0.01-1.13-0.93-2.03-2.07-2.03
		c-1.13,0-2.07,0.95-2.05,2.06C7.09,42.57,8.02,43.47,9.16,43.46z"/>
	<path class="st0" d="M30.24,45.54c-2.24-0.01-4.1-1.88-4.09-4.12c0.01-2.25,1.92-4.15,4.15-4.13c2.27,0.02,4.12,1.9,4.11,4.16
		C34.39,43.73,32.54,45.55,30.24,45.54z M32.31,41.42c0-1.15-0.9-2.04-2.04-2.03c-1.15,0.01-2.03,0.9-2.02,2.05
		c0,1.16,0.88,2.02,2.04,2.02C31.46,43.46,32.31,42.59,32.31,41.42z"/>
	<path class="st0" d="M19.68,45.54c-2.27-0.01-4.1-1.88-4.08-4.16c0.02-2.23,1.91-4.09,4.14-4.08c2.24,0.01,4.13,1.92,4.12,4.16
		C23.83,43.73,21.97,45.55,19.68,45.54z M17.69,41.43c0,1.17,0.86,2.03,2.03,2.03c1.17,0,2.03-0.87,2.03-2.03
		c0-1.15-0.89-2.04-2.04-2.04C18.58,39.38,17.69,40.28,17.69,41.43z"/>
	<path class="st0" d="M38.53,20.38c1.74,0,3.48,0,5.22,0c0.46,0,0.83,0.15,1.06,0.57c0.19,0.35,0.16,0.69-0.05,1.02
		c-0.21,0.34-0.54,0.47-0.91,0.49c-0.32,0.02-0.65,0.01-0.98,0.01c-3.11,0-6.21,0-9.32,0c-0.24,0-0.49-0.01-0.73-0.05
		c-0.54-0.11-0.85-0.52-0.83-1.04c0.02-0.51,0.38-0.91,0.92-0.97c0.32-0.04,0.65-0.02,0.97-0.02
		C35.44,20.38,36.98,20.38,38.53,20.38C38.53,20.38,38.53,20.38,38.53,20.38z"/>
	<path class="st0" d="M38.43,27.86c-1.72,0-3.45,0-5.17,0c-0.37,0-0.71-0.06-0.98-0.34c-0.51-0.53-0.28-1.43,0.43-1.67
		c0.27-0.09,0.54-0.09,0.82-0.09c3.28,0,6.57,0,9.85,0c0.23,0,0.46,0.01,0.68,0.05c0.55,0.1,0.91,0.55,0.88,1.06
		c-0.03,0.51-0.45,0.93-1,0.96c-0.52,0.03-1.04,0.01-1.56,0.01C41.06,27.87,39.74,27.86,38.43,27.86z"/>
	<path class="st0" d="M38.44,31.22c1.79,0,3.58-0.01,5.37,0c0.86,0.01,1.36,0.73,1.02,1.45c-0.15,0.31-0.39,0.52-0.74,0.57
		c-0.29,0.04-0.58,0.06-0.87,0.06c-3.15,0-6.31,0-9.46,0c-0.26,0-0.52-0.01-0.78-0.04c-0.63-0.08-0.99-0.49-0.97-1.07
		c0.03-0.57,0.44-0.96,1.08-0.96C34.86,31.21,36.65,31.22,38.44,31.22z"/>
	<path class="st0" d="M38.48,15c1.79,0,3.58,0,5.36,0c0.45,0,0.78,0.18,0.98,0.59c0.18,0.38,0.12,0.73-0.13,1.05
		c-0.21,0.28-0.51,0.39-0.85,0.39c-3.59,0-7.18,0-10.78,0c-0.65,0-1.07-0.42-1.07-1.01c0-0.6,0.41-1.01,1.07-1.01
		C34.87,14.99,36.68,15,38.48,15z"/>
</g>
</svg>
