<?xml version="1.0" encoding="utf-8"?>
<!-- Generator: Adobe Illustrator 23.0.1, SVG Export Plug-In . SVG Version: 6.00 Build 0)  -->
<svg version="1.1" id="Layer_1" xmlns="http://www.w3.org/2000/svg" xmlns:xlink="http://www.w3.org/1999/xlink" x="0px" y="0px"
	 viewBox="0 0 50 50" style="enable-background:new 0 0 50 50;" xml:space="preserve">
<style type="text/css">
	.st0{fill:#F70D39;}
</style>
<g>
	<path class="st0" d="M0,2c0.61-1.37,1.64-2,3.16-2C15.18,0.02,27.2,0.01,39.22,0.01c1.57,0,2.69,0.85,3.07,2.28
		c0.07,0.26,0.07,0.52,0.07,0.78c0,6.66,0,13.33,0,19.99c0,0.23,0.01,0.46-0.09,0.67c-0.19,0.42-0.63,0.66-1.08,0.57
		c-0.47-0.08-0.75-0.37-0.83-0.84c-0.03-0.19-0.02-0.39-0.02-0.59c0-3.88-0.01-7.75,0.01-11.63c0-0.46-0.11-0.62-0.59-0.62
		c-12.43,0.01-24.86,0.01-37.29,0c-0.44,0-0.58,0.12-0.58,0.58c0.01,7.79,0.01,15.57,0.01,23.36c0,1.08,0.33,1.42,1.39,1.42
		c8.16,0,16.32,0,24.48,0c0.58,0,0.6-0.02,0.44-0.58c-0.45-1.55-0.91-3.09-1.33-4.65c-0.12-0.44-0.31-0.59-0.77-0.58
		c-6.65,0.02-13.29,0.01-19.94,0.01c-0.18,0-0.36,0-0.54,0c-0.67-0.03-1.06-0.4-1.06-1.08c-0.01-4.9-0.01-9.81,0-14.71
		c0-0.73,0.4-1.09,1.2-1.09c4.43,0,8.86,0,13.29,0c3.49,0,6.97,0,10.46,0c0.99,0,1.31,0.33,1.31,1.32c0,3.89,0,7.79,0,11.68
		c0,0.76,0,0.76,0.75,0.97c4.38,1.26,8.76,2.52,13.14,3.79c1.07,0.31,1.29,1.15,0.51,1.94c-0.59,0.6-1.18,1.21-1.8,1.79
		c-0.29,0.27-0.26,0.44,0.01,0.7c1.93,1.91,3.85,3.84,5.78,5.77c0.1,0.1,0.21,0.21,0.31,0.31c0.63,0.66,0.64,1.17-0.01,1.81
		c-2.2,2.2-4.4,4.4-6.6,6.6c-0.36,0-0.72,0-1.08,0c-0.19-0.17-0.4-0.34-0.58-0.52c-1.95-1.94-3.9-3.89-5.84-5.85
		c-0.3-0.31-0.49-0.37-0.81-0.02c-0.56,0.61-1.16,1.19-1.76,1.77c-0.77,0.76-1.61,0.54-1.92-0.5c-0.61-2.08-1.22-4.15-1.79-6.24
		C29.01,38.14,28.79,38,28.28,38c-8.36,0.02-16.71,0-25.07,0.02c-1.53,0-2.59-0.61-3.21-2C0,24.68,0,13.34,0,2z M21.09,8.61
		c6.22,0,12.44,0,18.67,0.01c0.43,0,0.6-0.1,0.59-0.57c-0.03-1.55-0.01-3.09-0.01-4.64c0-1.03-0.35-1.38-1.39-1.38
		c-11.89,0-23.78,0-35.67,0c-1.04,0-1.38,0.34-1.39,1.37c0,1.51,0,3.03,0,4.54c0,0.66,0,0.66,0.68,0.66
		C8.74,8.61,14.92,8.61,21.09,8.61z M17.69,15.33c-3.49,0-6.97,0-10.46,0c-0.65,0-0.65,0-0.65,0.63c0,3.84,0,7.69,0,11.53
		c0,0.67,0,0.67,0.67,0.67c5.94,0,11.89,0,17.83,0c0.95,0,0.95,0,0.79-0.91c-0.15-0.83,0.44-1.41,1.26-1.24
		c0.4,0.08,0.79,0.19,1.18,0.32c0.39,0.14,0.5,0.07,0.5-0.37c-0.02-3.35-0.02-6.71,0-10.06c0-0.49-0.16-0.59-0.62-0.59
		C24.7,15.34,21.19,15.33,17.69,15.33z M42.34,47.58c0.18-0.03,0.27-0.18,0.38-0.29c1.46-1.46,2.92-2.93,4.39-4.38
		c0.33-0.33,0.35-0.51,0.01-0.84c-2.01-1.98-3.99-3.97-5.98-5.97c-0.69-0.69-0.7-1.19-0.02-1.88c0.41-0.42,0.82-0.84,1.25-1.24
		c0.28-0.26,0.27-0.37-0.12-0.48c-4.47-1.28-8.94-2.57-13.41-3.87c-0.35-0.1-0.46-0.06-0.35,0.34c0.49,1.67,0.97,3.34,1.45,5.02
		c0.81,2.8,1.62,5.6,2.42,8.4c0.1,0.35,0.19,0.45,0.48,0.14c0.36-0.4,0.75-0.76,1.14-1.14c0.83-0.83,1.26-0.83,2.09,0
		c1.97,1.97,3.94,3.94,5.91,5.9C42.08,47.39,42.17,47.54,42.34,47.58z"/>
	<path class="st0" d="M9,34.1c-1.04,0-2.08,0-3.12,0c-0.73,0-1.19-0.4-1.19-1.01c0-0.61,0.45-1.01,1.18-1.01c2.11,0,4.23,0,6.34,0
		c0.72,0,1.19,0.4,1.19,1.01c0,0.6-0.47,1.01-1.19,1.01C11.15,34.1,10.08,34.1,9,34.1z"/>
	<path class="st0" d="M40.35,27.21c0-0.58,0.46-1.01,1.04-1c0.55,0.02,0.98,0.46,0.97,1.01c0,0.57-0.46,1.01-1.04,1
		C40.76,28.21,40.34,27.77,40.35,27.21z"/>
	<path class="st0" d="M17.26,33.11c-0.01,0.57-0.48,1.01-1.05,0.98c-0.54-0.02-0.98-0.49-0.97-1.03c0.01-0.54,0.47-0.98,1.01-0.98
		C16.83,32.08,17.27,32.53,17.26,33.11z"/>
	<path class="st0" d="M29.38,6.33c-2.22,0-4.43,0-6.65,0c-0.7,0-1.12-0.34-1.17-0.91c-0.05-0.56,0.32-1.02,0.88-1.09
		c0.14-0.02,0.29-0.01,0.44-0.01c4.33,0,8.67,0,13,0c0.13,0,0.26,0,0.39,0.01c0.55,0.06,0.92,0.49,0.91,1.03
		c-0.01,0.52-0.38,0.93-0.91,0.97c-0.37,0.03-0.75,0.01-1.12,0.01C33.22,6.34,31.3,6.34,29.38,6.33z"/>
	<path class="st0" d="M6.02,6.33c-0.56,0.01-1.03-0.45-1.04-1c0-0.55,0.47-1.01,1.03-1.01c0.54,0,0.99,0.44,1.01,0.98
		C7.05,5.85,6.58,6.32,6.02,6.33z"/>
	<path class="st0" d="M10.45,4.32c0.57,0,1.01,0.44,1.01,1.02c0,0.57-0.45,1.01-1.03,1C9.88,6.32,9.46,5.89,9.45,5.34
		C9.45,4.76,9.88,4.32,10.45,4.32z"/>
	<path class="st0" d="M14.89,6.33c-0.56-0.01-1.03-0.48-1.01-1.03c0.02-0.56,0.49-1,1.06-0.98c0.54,0.02,0.98,0.47,0.99,1.01
		C15.93,5.88,15.46,6.34,14.89,6.33z"/>
	<path class="st0" d="M18.64,21.72c0-1.09,0-2.18,0-3.27c0-0.85,0.38-1.22,1.21-1.24c1.13-0.03,2.25-0.02,3.27,0.59
		c1.56,0.94,2.38,2.34,2.29,4.13c-0.09,1.92-1.11,3.29-2.9,4.04c-0.97,0.41-1.98,0.32-2.99,0.27c-0.54-0.03-0.87-0.49-0.88-1.11
		C18.64,24,18.64,22.86,18.64,21.72z M20.72,21.72c0,0.68,0.01,1.36,0,2.05c-0.01,0.35,0.07,0.49,0.47,0.43
		c1.28-0.2,2.16-1.19,2.15-2.48c-0.01-1.25-0.9-2.24-2.16-2.43c-0.35-0.05-0.48,0.03-0.47,0.38C20.73,20.36,20.72,21.04,20.72,21.72
		z"/>
	<path class="st0" d="M13.38,17.22c0.46,0.01,0.76,0.25,0.92,0.67c0.15,0.39,0.28,0.8,0.42,1.2c0.61,1.82,1.23,3.63,1.84,5.45
		c0.06,0.17,0.12,0.34,0.15,0.51c0.09,0.49-0.17,0.96-0.62,1.15c-0.45,0.19-0.98,0.04-1.22-0.41c-0.18-0.34-0.41-0.41-0.74-0.4
		c-0.37,0.02-0.75,0.02-1.12,0c-0.52-0.02-0.99-0.05-1.31,0.55c-0.21,0.39-0.79,0.43-1.19,0.21c-0.42-0.23-0.64-0.68-0.5-1.16
		c0.26-0.86,0.55-1.7,0.83-2.55c0.48-1.45,0.97-2.9,1.46-4.35C12.51,17.5,12.87,17.21,13.38,17.22z M13.41,21.64
		c-0.03-0.01-0.07-0.02-0.1-0.03c-0.11,0.32-0.22,0.63-0.32,0.95c-0.27,0.84-0.48,0.82,0.63,0.81c0.27,0,0.35-0.1,0.26-0.36
		C13.71,22.56,13.57,22.1,13.41,21.64z"/>
</g>
</svg>
