<?xml version="1.0" encoding="utf-8"?>
<!-- Generator: Adobe Illustrator 23.0.1, SVG Export Plug-In . SVG Version: 6.00 Build 0)  -->
<svg version="1.1" id="Layer_1" xmlns="http://www.w3.org/2000/svg" xmlns:xlink="http://www.w3.org/1999/xlink" x="0px" y="0px"
	 viewBox="0 0 50 50" style="enable-background:new 0 0 50 50;" xml:space="preserve">
<style type="text/css">
	.st0{fill:#F70D39;}
</style>
<g>
	<path class="st0" d="M14.99,50c-3.55,0-7.1,0-10.66,0c-2.57,0-4.33-1.75-4.33-4.28c0-0.48-0.01-0.95,0-1.43
		c0.02-0.58,0.32-0.88,0.9-0.9c0.4-0.01,0.8-0.01,1.2,0c0.29,0.01,0.41-0.12,0.4-0.4c-0.01-0.29,0-0.58,0-0.87
		c0-5.16,0-10.33,0-15.49c0-1.04,0.21-1.24,1.29-1.24c2.3,0,4.61,0,6.91,0c0.16,0,0.31-0.01,0.47,0.01c0.5,0.04,0.86,0.41,0.84,0.87
		c-0.01,0.44-0.36,0.8-0.83,0.82c-0.59,0.03-1.18,0.01-1.77,0.01c-1.54,0-3.08,0.01-4.63-0.01c-0.39,0-0.55,0.08-0.55,0.51
		c0.01,5.1,0.01,10.19,0,15.29c0,0.37,0.11,0.51,0.5,0.51c6.86-0.01,13.72-0.01,20.58,0c0.41,0,0.49-0.17,0.48-0.52
		c-0.01-2.37-0.01-4.74,0-7.11c0-0.17-0.01-0.34,0.02-0.51c0.08-0.45,0.39-0.68,0.83-0.71c0.41-0.04,0.81,0.3,0.87,0.72
		c0.03,0.17,0.02,0.34,0.02,0.51c0,2.3,0,4.6,0,6.9c0,0.71,0,0.71,0.75,0.71c0.29,0,0.59-0.01,0.88,0.01
		c0.52,0.03,0.84,0.32,0.86,0.84c0.02,0.72,0.04,1.44-0.01,2.15c-0.16,1.96-1.98,3.61-3.99,3.62C22.34,50.01,18.67,50,14.99,50
		C14.99,50,14.99,50,14.99,50z M15.02,45.09c-4.17,0-8.35,0-12.52,0c-0.16,0-0.31,0-0.47,0c-0.19,0-0.28,0.1-0.29,0.29
		c-0.09,1.42,0.63,2.56,1.98,2.83c0.47,0.09,0.93,0.07,1.4,0.08c0.69,0,0.69,0,0.71-0.65c0.02-0.63,0.33-0.98,0.87-0.98
		c0.54,0,0.89,0.36,0.85,0.99c-0.03,0.53,0.16,0.65,0.68,0.65c4.43-0.02,8.87-0.01,13.3-0.01c0.86,0,0.86,0,0.94-0.83
		c0.05-0.48,0.38-0.79,0.85-0.8c0.47-0.01,0.82,0.3,0.88,0.76c0.11,0.87,0.11,0.87,1.01,0.87c0.17,0,0.35,0,0.52,0
		c1.52-0.06,2.51-1.04,2.56-2.54c0.02-0.65,0.01-0.66-0.64-0.66C23.44,45.09,19.23,45.09,15.02,45.09z"/>
	<path class="st0" d="M5.84,35.82c0.05-0.85,0.51-1.61,1.42-2.06c0.45-0.23,0.62-0.48,0.57-1.02c-0.11-1.36,0.5-2.41,1.69-3.11
		c0.47-0.28,0.94-0.58,1.44-0.82c2.5-1.23,4.45-3.17,6.6-4.86c2.3-1.81,4.55-3.68,6.82-5.53c0.81-0.65,1.31-0.55,1.83,0.35
		c0.21,0.36,0.42,0.71,0.61,1.07c0.24,0.48,0.1,0.95-0.33,1.2c-0.4,0.23-0.93,0.13-1.17-0.32c-0.29-0.55-0.53-0.38-0.88-0.09
		c-3.12,2.55-6.25,5.08-9.39,7.61c-0.31,0.25-0.39,0.44-0.16,0.8c0.6,0.97,1.17,1.97,1.74,2.96c0.35,0.6,0.26,1.1-0.21,1.38
		c-0.48,0.28-0.96,0.1-1.32-0.5c-0.56-0.94-1.13-1.88-1.66-2.84c-0.21-0.38-0.41-0.41-0.77-0.19c-0.74,0.45-1.5,0.85-2.24,1.29
		c-0.9,0.53-1.12,1.39-0.61,2.28c0.5,0.88,1.01,1.75,1.54,2.61c0.53,0.87,1.42,1.09,2.33,0.59c0.38-0.21,0.76-0.41,1.12-0.64
		c2.44-1.6,5.27-2.31,7.96-3.35c2.43-0.94,4.89-1.83,7.34-2.71c0.4-0.14,0.41-0.27,0.21-0.61c-1.03-1.72-2.03-3.45-3.05-5.18
		c-0.1-0.18-0.21-0.35-0.3-0.54c-0.25-0.5-0.13-0.96,0.28-1.21c0.44-0.27,0.94-0.16,1.25,0.34c0.58,0.95,1.14,1.91,1.7,2.87
		c0.76,1.3,1.52,2.6,2.28,3.9c0.46,0.79,0.29,1.27-0.57,1.59c-3.84,1.42-7.68,2.84-11.53,4.26c-0.63,0.23-0.63,0.23-0.29,0.82
		c0.37,0.64,0.74,1.27,1.11,1.91c0.72,1.27,0.33,2.75-0.9,3.47c-1.23,0.71-2.74,0.31-3.5-0.95c-0.45-0.75-0.9-1.5-1.32-2.26
		c-0.21-0.38-0.38-0.48-0.78-0.22c-0.96,0.61-2,0.73-3.08,0.34c-0.19-0.07-0.42-0.14-0.55-0.28c-0.46-0.5-0.86-0.3-1.36-0.03
		C7.92,39.12,5.82,37.93,5.84,35.82z M19.77,39.38c-0.01-0.07,0-0.16-0.04-0.23c-0.52-0.9-1.04-1.81-1.58-2.7
		c-0.17-0.28-0.39-0.07-0.53,0.04c-0.28,0.21-0.76,0.19-0.81,0.67c0,0.01,0.01,0.03,0.02,0.05c0.53,0.88,1.04,1.77,1.58,2.64
		c0.2,0.31,0.55,0.36,0.88,0.24C19.59,39.96,19.74,39.72,19.77,39.38z M8.36,36.73c0.36,0,0.96-0.36,0.96-0.57
		c0-0.22-0.64-1.14-0.79-1.13c-0.4,0.02-0.96,0.6-0.96,0.96C7.58,36.4,7.94,36.73,8.36,36.73z"/>
	<path class="st0" d="M42.46,0.82c1.65,0,3.29-0.01,4.94,0c1.53,0.01,2.59,1.03,2.59,2.53c0.01,3.24,0.01,6.48,0,9.71
		c0,1.5-1.06,2.55-2.57,2.55c-3.29,0.01-6.58,0.01-9.87,0c-1.54,0-2.59-1.03-2.6-2.53c-0.01-1.6,0-3.2,0-4.81
		c0-0.42,0.18-0.74,0.58-0.87c0.35-0.12,0.68-0.04,0.94,0.25c0.19,0.21,0.21,0.46,0.21,0.72c0,1.45,0,2.9,0,4.35
		c0,0.92,0.28,1.19,1.21,1.19c3.05,0,6.1,0,9.15,0c0.94,0,1.21-0.27,1.22-1.18c0-3,0-6,0-9c0-0.93-0.27-1.2-1.2-1.2
		c-3.07,0-6.13,0-9.2,0c-0.9,0-1.17,0.28-1.18,1.17c0,0.36,0,0.72,0,1.07C36.67,5.44,36.36,5.8,35.8,5.8
		c-0.54-0.01-0.85-0.36-0.85-1c-0.01-0.53-0.01-1.06,0-1.58c0.02-1.31,1.09-2.37,2.42-2.39C39.06,0.81,40.76,0.82,42.46,0.82z"/>
	<path class="st0" d="M42.48,26.19c1.63,0,3.26,0,4.88,0c1.57,0,2.61,1.02,2.62,2.56c0.01,1.55,0,3.1,0,4.65
		c0,0.68-0.31,1.04-0.86,1.04c-0.56,0-0.87-0.36-0.87-1.03c0-1.45,0-2.9,0-4.35c0-0.88-0.28-1.16-1.19-1.16c-3.07,0-6.13,0-9.2,0
		c-0.9,0-1.19,0.28-1.19,1.16c0,3.02,0,6.03,0,9.05c0,0.89,0.28,1.17,1.17,1.17c3.08,0,6.17,0,9.25,0c0.86,0,1.14-0.29,1.15-1.15
		c0-0.43-0.01-0.85,0.01-1.28c0.02-0.51,0.36-0.84,0.85-0.84c0.49-0.01,0.85,0.32,0.87,0.82c0.02,0.65,0.03,1.3-0.01,1.94
		c-0.07,1.15-1.11,2.19-2.29,2.2c-3.48,0.03-6.96,0.03-10.45,0c-1.22-0.01-2.28-1.09-2.29-2.3c-0.02-3.41-0.02-6.82,0-10.23
		c0.01-1.23,1.14-2.25,2.43-2.26C39.09,26.18,40.79,26.19,42.48,26.19z"/>
	<path class="st0" d="M11.72,15.61c0,2.1,0,4.19,0,6.29c0,0.81-0.28,1.08-1.08,1.09c-3.19,0-6.37,0-9.56,0
		c-0.79,0-1.07-0.28-1.08-1.04c0-4.24,0-8.48,0-12.73c0-0.74,0.29-1.03,1.03-1.03c3.22,0,6.44,0,9.66,0c0.74,0,1.02,0.29,1.02,1.04
		C11.73,11.35,11.72,13.48,11.72,15.61z M9.99,15.64c0-1.74-0.01-3.48,0.01-5.22c0-0.4-0.11-0.54-0.53-0.53
		c-2.41,0.02-4.82,0.01-7.23,0c-0.39,0-0.5,0.14-0.5,0.51c0.01,3.46,0.01,6.92,0,10.38c0,0.37,0.11,0.51,0.5,0.51
		c2.41-0.01,4.82-0.02,7.23,0c0.42,0,0.53-0.14,0.53-0.54C9.98,19.05,9.99,17.34,9.99,15.64z"/>
	<path class="st0" d="M20.83,14.8c-4.17,0-7.51-3.27-7.52-7.35c0-4.15,3.3-7.45,7.47-7.45c4.24,0,7.57,3.25,7.57,7.41
		C28.36,11.53,25.03,14.8,20.83,14.8z M26.62,7.42c-0.09-3.2-2.48-5.64-5.74-5.7c-3.2-0.06-5.81,2.49-5.8,5.68
		c0.01,3.13,2.41,5.61,5.75,5.67C23.96,13.14,26.58,10.53,26.62,7.42z"/>
	<path class="st0" d="M42.41,36.9c-1.87-0.01-3.32-1.48-3.31-3.35c0.01-1.87,1.5-3.28,3.44-3.27c1.86,0.01,3.3,1.5,3.28,3.37
		C45.81,35.49,44.32,36.91,42.41,36.9z M44.08,33.57c0-0.8-0.79-1.58-1.61-1.57c-0.87,0.02-1.61,0.72-1.62,1.55
		c-0.01,0.85,0.73,1.6,1.61,1.62C43.3,35.2,44.08,34.43,44.08,33.57z"/>
	<path class="st0" d="M40.76,10.46c0-0.32-0.01-0.65,0-0.97c0.01-0.31-0.12-0.41-0.43-0.42c-0.9-0.03-1.22-0.26-1.23-0.83
		c-0.01-0.58,0.32-0.84,1.24-0.87c0.32-0.01,0.43-0.12,0.42-0.43c-0.02-0.48-0.02-0.95,0.21-1.4c0.46-0.9,1.18-1.41,2.21-1.45
		c0.57-0.02,1.14-0.01,1.71,0c0.56,0.01,0.91,0.33,0.92,0.83c0.01,0.52-0.34,0.86-0.93,0.87c-0.48,0.01-0.97-0.01-1.45,0.01
		c-0.71,0.03-1.14,0.67-0.93,1.35c0.05,0.16,0.16,0.21,0.31,0.21c0.19,0,0.38-0.01,0.57,0.01c0.45,0.05,0.76,0.38,0.77,0.82
		c0.01,0.46-0.3,0.81-0.77,0.87c-0.89,0.11-0.89,0.11-0.89,0.99c0,0.48,0.01,0.95-0.01,1.43c-0.02,0.53-0.38,0.87-0.89,0.86
		c-0.48-0.01-0.81-0.34-0.83-0.86C40.76,11.14,40.77,10.8,40.76,10.46C40.77,10.46,40.77,10.46,40.76,10.46z"/>
	<path class="st0" d="M34.39,24.62c-0.79,0-1.15-0.29-1.2-0.77c-0.05-0.45,0.24-0.83,0.76-0.94c1.34-0.28,2.67-0.55,4.01-0.8
		c0.67-0.13,1.1,0.13,1.21,0.65c0.11,0.56-0.19,0.96-0.87,1.1C36.93,24.14,35.55,24.4,34.39,24.62z"/>
	<path class="st0" d="M29.17,18.07c-0.69,0.01-1.15-0.72-0.75-1.3c0.82-1.16,1.7-2.28,2.58-3.39c0.29-0.37,0.82-0.39,1.17-0.13
		c0.36,0.26,0.49,0.76,0.22,1.14c-0.84,1.14-1.71,2.27-2.58,3.39C29.66,17.98,29.43,18.08,29.17,18.07z"/>
	<path class="st0" d="M31.71,21.35c-0.45,0-0.73-0.19-0.87-0.54c-0.14-0.37-0.07-0.72,0.24-0.97c0.52-0.42,1.07-0.81,1.61-1.21
		c0.55-0.41,1.1-0.83,1.66-1.22c0.5-0.35,1.03-0.28,1.33,0.13c0.28,0.39,0.2,0.9-0.27,1.25c-1.06,0.8-2.13,1.57-3.19,2.36
		C32.06,21.28,31.87,21.36,31.71,21.35z"/>
	<path class="st0" d="M5.86,16.44c-0.54,0-1.07,0.01-1.61,0c-0.58-0.01-0.93-0.36-0.92-0.88c0.01-0.49,0.36-0.82,0.92-0.82
		c1.07-0.01,2.14-0.01,3.21,0c0.56,0.01,0.91,0.33,0.92,0.82c0.01,0.52-0.34,0.86-0.92,0.88C6.93,16.45,6.4,16.44,5.86,16.44z"/>
	<path class="st0" d="M5.86,19.71c-0.54,0-1.07,0.01-1.61,0c-0.56-0.01-0.91-0.33-0.92-0.83c-0.01-0.52,0.34-0.87,0.92-0.87
		C5.33,18,6.4,18,7.47,18.01c0.56,0.01,0.91,0.33,0.92,0.83c0.01,0.52-0.34,0.86-0.92,0.87C6.93,19.72,6.39,19.71,5.86,19.71z"/>
	<path class="st0" d="M6.67,13.16c-0.29,0-0.59,0.02-0.88,0C5.32,13.12,5,12.78,5,12.32c0-0.46,0.31-0.83,0.78-0.85
		c0.6-0.03,1.21-0.03,1.81,0c0.48,0.02,0.79,0.38,0.8,0.84c0,0.46-0.31,0.81-0.78,0.85C7.3,13.18,6.99,13.16,6.67,13.16z"/>
	<path class="st0" d="M18.31,7.42c0-0.78-0.01-1.57,0-2.35c0.01-0.8,0.61-1.2,1.34-0.85c1.62,0.77,3.24,1.56,4.83,2.38
		c0.77,0.39,0.76,1.24-0.02,1.64c-1.58,0.81-3.18,1.59-4.79,2.35c-0.75,0.36-1.35-0.04-1.36-0.87C18.3,8.95,18.31,8.18,18.31,7.42z
		 M20.04,7.39c0,1.05,0.01,1.06,0.95,0.58c0.34-0.18,0.93-0.23,0.94-0.59C21.93,7.11,21.34,7,21,6.83
		C20.05,6.35,20.04,6.36,20.04,7.39z"/>
</g>
</svg>
