<?xml version="1.0" encoding="utf-8"?>
<!-- Generator: Adobe Illustrator 23.0.1, SVG Export Plug-In . SVG Version: 6.00 Build 0)  -->
<svg version="1.1" id="Layer_1" xmlns="http://www.w3.org/2000/svg" xmlns:xlink="http://www.w3.org/1999/xlink" x="0px" y="0px"
	 viewBox="0 0 70 70" style="enable-background:new 0 0 70 70;" xml:space="preserve">
<style type="text/css">
	.st0{clip-path:url(#SVGID_2_);}
	.st1{fill:#FE214F;}
</style>
<g>
	<defs>
		<rect id="SVGID_1_" width="70" height="70"/>
	</defs>
	<clipPath id="SVGID_2_">
		<use xlink:href="#SVGID_1_"  style="overflow:visible;"/>
	</clipPath>
	<g class="st0">
		<path class="st1" d="M0,4.8c0.7-1.6,2-2.1,3.7-2.1c6.7,0.1,13.4,0,20.1,0c2.1,0,3.7,0.9,4.7,2.7c0.3,0.6,0.7,1.1,0.9,1.7
			c0.2,0.5,0.6,0.7,1.2,0.7c5.8,0,11.6,0,17.4,0c0.3,0,0.6,0,0.9,0.1c0.6,0.1,0.9,0.5,0.8,1.1c0,0.6-0.4,0.9-0.9,1
			c-0.3,0.1-0.6,0-1,0C33,10,18.1,10,3.1,10c-1,0-1,0-1,1c0,15.9,0,31.9,0,47.8c0,1.3,0,1.3,1.3,1.3c10.4,0,20.7,0,31.1,0
			c1,0,1,0,1-1c0-3.2,0-6.4,0-9.6c0-1.5,0.8-2.4,2.3-2.5c0.6-0.1,1.2-0.1,1.8-0.1c1,0,1,0,1-0.9c0-0.8,0-1.6,0-2.5
			c0-1.4,0.7-2.1,2.1-2.1c2.1,0,4.2,0,6.3,0c1.3,0,2,0.7,2,2c0,0.9,0,1.9,0,2.8c0,0.5,0.2,0.7,0.7,0.7c0.7,0,1.4,0,2.1,0
			c0.5,0,0.7-0.2,0.7-0.7c0-0.9,0-1.8,0-2.7c0-1.3,0.7-2,2.1-2.1c0.8,0,1.6,0,2.4,0c0.4,0,0.6-0.2,0.6-0.6c0-0.1,0-0.3,0-0.4
			c0-9.7,0-19.4,0-29.1c0-1.2,0-1.3-1.3-1.3c-1.6,0-3.2,0-4.8,0c-0.2,0-0.4,0-0.5,0c-0.8,0-1.2-0.5-1.3-1.1c0-0.7,0.5-1.1,1.3-1.1
			c0.4,0,0.9,0,1.3,0c1.5,0,3,0,4.4,0c1.8,0,3,1.1,3.1,3c0,0.3,0,0.5,0,0.8c0,9.6,0,19.2,0,28.8c0,1,0,1,1.1,1
			c1.3,0,2.1,0.7,2.1,2.1c0,0.9,0,1.7,0,2.6c0,0.6,0.2,0.9,0.8,0.9c0.4,0,0.9,0,1.3,0c1.3,0,2.3,0.4,2.9,1.6c0,2.7,0,5.4,0,8.1
			c-0.3,0.5-0.8,0.8-1.4,0.6c-0.6-0.2-0.7-0.7-0.7-1.3c0-2,0-3.9,0-5.9c0-0.9,0-0.9-0.9-0.9c-9.5,0-18.9,0-28.4,0
			c-0.9,0-0.9,0-0.9,0.9c0,4.8,0,9.6,0,14.3c0,0.9,0,1,1,1c4.5,0,9,0,13.5,0c4.9,0,9.9,0,14.8,0c1,0,1,0,1-1c0-1.3,0-2.5,0-3.8
			c0-0.6,0.1-1.1,0.7-1.4c0.6-0.3,1,0.1,1.4,0.5c0,2.1,0,4.1,0,6.2c-0.5,1.2-1.4,1.7-2.7,1.7c-9.7,0-19.4,0-29.1,0
			c-0.2,0-0.4,0-0.5,0c-1.2-0.1-2.1-1-2.2-2.2c0-0.7,0-1.3,0-2c0-1,0-1-1-1c-10.4,0-20.9,0-31.3,0c-1.5,0-2.6-0.5-3.3-2
			C0,41.9,0,23.3,0,4.8z M8.4,7.8c1.9,0,3.8,0,5.7,0c0.2,0,0.6,0.2,0.5-0.4c-0.5-1.6-1.6-2.5-3.3-2.5c-2.3,0-4.7,0-7,0
			c-2.1,0-2.1,0-2.1,2.2c0,0.6,0.2,0.7,0.7,0.7C4.7,7.8,6.5,7.8,8.4,7.8z M45.8,46.9c0.8,0,1.6,0,2.4,0c0.4,0,0.6-0.1,0.6-0.6
			c0-0.7,0-1.4,0-2.1c0-0.5-0.2-0.6-0.6-0.6c-1.6,0-3.1,0-4.7,0c-0.5,0-0.6,0.2-0.6,0.7c0,0.7,0,1.3,0,2c0,0.5,0.2,0.7,0.7,0.7
			C44.3,46.9,45,46.9,45.8,46.9z M59.7,46.9c0.8,0,1.5,0,2.3,0c0.5,0,0.7-0.1,0.7-0.7c0-0.7,0-1.3,0-2c0-0.5-0.2-0.7-0.6-0.7
			c-1.6,0-3.1,0-4.7,0c-0.5,0-0.6,0.2-0.6,0.7c0,0.7,0,1.3,0,2c0,0.5,0.2,0.7,0.6,0.7C58.2,46.9,58.9,46.9,59.7,46.9z M18.9,7.8
			c0.7,0,1.2,0,1.7,0c0.3,0,0.4-0.1,0.2-0.4c-0.7-1.6-1.8-2.6-3.7-2.5c-1.4,0.1-1.3,0-0.8,1.2C16.9,7.4,17.6,8.2,18.9,7.8z
			 M25.1,7.8c0.7,0,1.2,0,1.6,0c0.4,0,0.4-0.2,0.3-0.5c-0.8-1.5-1.3-2.5-3.5-2.4C22,5,22,4.9,22.7,6.2C23.2,7.4,23.9,8.2,25.1,7.8z"
			/>
		<path class="st1" d="M17.8,34.5c0,5.8,0,11.6,0,17.4c0,0.4,0,0.8-0.1,1.2c-0.2,1-0.9,1.6-1.8,1.6c-3.3,0-6.6,0-9.8,0
			c-1.1,0-1.8-0.8-1.9-1.9c-0.1-1.1,0-2.1,0-3.2c0-0.8,0.5-1.2,1.1-1.2c0.6,0,1.1,0.5,1.1,1.3c0,0.8,0,1.5,0,2.3
			c0,0.4,0.1,0.7,0.6,0.7c2.7,0,5.3,0,8,0c0.6,0,0.6-0.3,0.6-0.8c0-5,0-9.9,0-14.9c0-6.5,0-13,0-19.5c0-0.9,0-0.9-0.9-0.9
			c-2.4,0-4.9,0-7.3,0c-1,0-1,0-1,1c0,9.1,0,18.1,0,27.2c0,0.3,0,0.6-0.1,0.9c-0.1,0.5-0.5,0.8-1,0.9c-0.5,0-0.9-0.3-1.1-0.8
			c-0.1-0.3-0.1-0.5-0.1-0.8c0-9.4,0-18.8,0-28.2c0-1.7,0.7-2.4,2.4-2.4c2.9,0,5.8,0,8.7,0c1.9,0,2.5,0.7,2.5,2.6
			C17.8,22.7,17.8,28.6,17.8,34.5z"/>
		<path class="st1" d="M37.7,14.2c4.5,0,8.9,0,13.4,0c0.3,0,0.7,0,1,0.1c1.1,0.2,1.8,0.8,1.8,2c0,1.8,0,3.6,0,5.5
			c0,1.2-0.7,1.9-1.8,2c-0.4,0-0.8,0.1-1.2,0.1c-8.9,0-17.7,0-26.6,0c-0.4,0-0.8,0-1.2-0.1c-1-0.1-1.6-0.8-1.7-1.8
			c0-1.9,0-3.8,0-5.7c0-1,0.6-1.7,1.6-1.8c0.4-0.1,0.8-0.1,1.2-0.1C28.7,14.2,33.2,14.2,37.7,14.2z M37.5,21.6c4.4,0,8.9,0,13.3,0
			c0.6,0,0.8-0.2,0.8-0.8c0-1.1,0-2.2,0-3.3c0-1,0-1-1-1c-5.9,0-11.8,0-17.8,0c-2.9,0-5.7,0-8.6,0c-0.6,0-0.8,0.2-0.7,0.7
			c0,1.2,0,2.4,0,3.6c0,0.7,0.2,0.8,0.9,0.8C28.8,21.5,33.2,21.6,37.5,21.6z"/>
		<path class="st1" d="M37.8,30.1c-4.8,0-9.6,0-14.3,0c-0.3,0-0.6,0-0.8-0.1c-0.5-0.1-0.8-0.5-0.8-1c0-0.5,0.2-0.9,0.7-1.1
			c0.3-0.1,0.6-0.1,0.9-0.1c9.6,0,19.2,0,28.8,0c0.1,0,0.2,0,0.3,0c0.8,0,1.4,0.5,1.4,1.1c0,0.7-0.5,1.1-1.4,1.1
			C47.6,30.1,42.7,30.1,37.8,30.1z"/>
		<path class="st1" d="M52.8,61.3c-1.9,0-3.9,0-5.8,0c-0.8,0-1.3-0.4-1.3-1c0-0.7,0.5-1.1,1.3-1.1c3.9,0,7.7,0,11.6,0
			c0.8,0,1.3,0.4,1.3,1c0,0.7-0.5,1.1-1.3,1.1C56.6,61.3,54.7,61.3,52.8,61.3z"/>
	</g>
</g>
</svg>
