<?xml version="1.0" encoding="utf-8"?>
<!-- Generator: Adobe Illustrator 23.0.1, SVG Export Plug-In . SVG Version: 6.00 Build 0)  -->
<svg version="1.1" id="Layer_1" xmlns="http://www.w3.org/2000/svg" xmlns:xlink="http://www.w3.org/1999/xlink" x="0px" y="0px"
	 viewBox="0 0 70 70" style="enable-background:new 0 0 70 70;" xml:space="preserve">
<style type="text/css">
	.st0{fill:#FE214F;}
</style>
<g>
	<path class="st0" d="M70,63.8c0,2,0,4.1,0,6.1c-0.4,0-0.9,0-1.3,0.1c-0.5,0-0.7-0.2-0.7-0.7c0-0.8,0-1.5,0-2.3c0-1.1,0-1.1-1-1.1
		c-7.7,0-15.4,0-23.1,0c-0.6,0-1.2-0.1-1.8-0.3c-3.8-1.5-7.6-3-11.4-4.5c-0.4-0.1-0.7-0.3-1.1-0.4c-0.1-0.1-0.3-0.1-0.3-0.3
		c0-0.2,0.2-0.2,0.3-0.2c0.2-0.1,0.4-0.2,0.6-0.2c4-1.6,8-3.2,12-4.8c0.6-0.2,1.2-0.3,1.8-0.3c7.6,0,15.3,0,22.9,0
		c1.1,0,1.1,0,1.1-1.1c0-14.3,0-28.6,0-43c0-1.1,0-1.1-1.1-1.1c-16.8,0-33.6,0-50.4,0c-0.1,0-0.3,0-0.4,0c-0.5,0-0.7,0.2-0.7,0.7
		c0,3.8,0,7.7,0,11.5c0,0.2,0,0.5,0.2,0.6c0.5,0.2,0.9,0.2,1.4,0c0.4-0.1,0.3-0.5,0.3-0.8c0-3,0-6,0-8.9c0-1.1,0-1.1,1.1-1.1
		c15.5,0,31.1,0,46.6,0c1.1,0,1.1,0,1.1,1.1c0,5.5,0,11,0,16.5c0,0.1,0,0.2,0,0.3c0,0.5-0.2,0.8-0.8,0.8c-0.2,0-0.5,0-0.8,0
		c-12.2,0-24.4,0-36.6,0c-0.3,0-0.5,0-0.8,0c-0.2,0-0.4,0-0.4,0.2c-0.2,0.5-0.2,1,0,1.4c0.1,0.4,0.5,0.2,0.9,0.2c3.8,0,7.6,0,11.3,0
		c1,0,1,0,1,1c0,4.2,0,8.4,0,12.6c0,0.9,0,0.9-0.9,0.9c-3.7,0-7.5,0-11.2,0c-0.2,0-0.4,0-0.5,0c-0.4,0-0.6,0.2-0.6,0.6
		c0,0.2,0,0.4,0,0.6c0,6.3,0,12.5,0,18.8c0,1.6-0.9,2.9-2.4,3.2c-0.5,0.1-1,0.1-1.5,0.1c-6.4,0-12.8,0-19.1,0
		c-1.9,0-3.3-0.7-3.8-2.6c0-14.1,0-28.1,0-42.2c0.7-2,1.6-2.6,3.8-2.6c2.8,0,5.5,0,8.3,0c1.2,0,1.2,0,1.2-1.1c0-6.8,0-13.5,0-20.3
		c0-0.4,0-0.7,0-1.1C32,0,50.7,0,69.4,0C69.9,0,70,0.1,70,0.6c0,18.8,0,37.6,0,56.3c-0.4,0-0.7,0-1.1,0c-7.2,0-14.5,0-21.7,0
		c-0.3,0-0.5,0-0.8,0c-0.1,0-0.4-0.1-0.4,0.1c0,0.1,0.1,0.2,0.2,0.3c0.7,0.7,1.3,1.5,2,2.2c0.5,0.5,0.5,0.8,0,1.3
		c-0.8,0.8-1.6,1.7-2.4,2.6c0.3,0.2,0.6,0.1,0.9,0.1c7.4,0,14.8,0,22.3,0C69.3,63.7,69.6,63.8,70,63.8z M41.8,13.8
		c-7.1,0-14.1,0-21.2,0c-0.5,0-1,0-1,0.7c0,2.4,0,4.8,0,7.2c0,0.5,0.2,0.7,0.7,0.7c1.1,0,2.2,0,3.3,0c1.9,0,3.2,1.4,3.3,3.3
		c0,0.4,0,0.8,0,1.2c0,0.9,0,0.9,0.9,0.9c11.8,0,23.5,0,35.3,0c0.9,0,0.9,0,0.9-0.9c0-4,0-8.1,0-12.1c0-1.1,0-1.1-1.1-1.1
		C55.8,13.8,48.8,13.8,41.8,13.8z M24.7,44.2c0-3.5,0-7,0-10.5c0-0.6-0.2-0.9-0.8-0.9c-6.9,0-13.9,0-20.8,0c-0.7,0-0.9,0.2-0.9,0.9
		c0,2.3,0,4.7,0,7c0,4.7,0,9.3,0,14c0,0.9,0,0.9,0.9,0.9c0.9,0,1.8,0,2.7,0c0.6,0,0.8-0.2,0.8-0.8c0-1.8,0-3.6,0-5.4
		c0-2.4,1-4.3,3-5.7c0.5-0.3,0.5-0.5,0.1-0.9c-1.8-1.9-1.7-5,0.1-7c1.8-1.9,4.9-2.2,6.9-0.6c2.4,1.9,2.8,5.2,0.8,7.6
		c-0.2,0.3-0.5,0.5,0,0.8c2.2,1.5,3.2,3.7,3.1,6.3c0,1.6,0,3.3,0,4.9c0,0.6,0.2,0.8,0.8,0.8c0.8,0,1.5,0,2.3,0c0.9,0,0.9,0,0.9-0.9
		C24.7,51.2,24.7,47.7,24.7,44.2z M41.8,2C33.4,2,25,2,16.7,2c-0.2,0-0.4,0-0.6,0c-0.4,0-0.6,0.2-0.6,0.6c0,1.4,0,2.8,0,4.2
		c0,0.4,0.2,0.6,0.6,0.6c0.3,0,0.5,0,0.8,0c16.6,0,33.3,0,49.9,0c0.2,0,0.4,0,0.6,0c0.5,0,0.7-0.2,0.7-0.7c0-1.2,0-2.5,0-3.7
		c0-1,0-1-1-1C58.6,2,50.2,2,41.8,2z M13.5,57.8c-3.5,0-6.9,0-10.4,0c-0.6,0-0.9,0.2-0.9,0.8c0,2.6,0,5.1,0,7.7c0,1,0.3,1.3,1.3,1.3
		c6.6,0,13.2,0,19.8,0c1,0,1.2-0.3,1.3-1.2c0-0.2,0-0.5,0-0.7c0-2.3,0-4.6,0-7c0-0.9,0-0.9-0.9-0.9C20.3,57.8,16.9,57.8,13.5,57.8z
		 M32.3,34.3c-1.6,0-3.1,0-4.7,0c-0.5,0-0.8,0.2-0.8,0.7c0,2.9,0,5.7,0,8.6c0,0.5,0.2,0.7,0.7,0.7c3.2,0,6.4,0,9.6,0
		c0.6,0,0.8-0.2,0.8-0.8c0-2.8,0-5.7,0-8.5c0-0.5-0.2-0.8-0.8-0.8C35.5,34.3,33.9,34.3,32.3,34.3z M13.5,30.6c3.5,0,6.9,0,10.4,0
		c0.4,0,0.8,0,0.8-0.6c0-1.3,0-2.7,0-4c0-0.9-0.4-1.2-1.2-1.2c-6.7,0-13.3,0-20,0c-0.9,0-1.2,0.3-1.2,1.2c0,1.2,0,2.5,0,3.7
		c0,0.9,0,0.9,0.9,0.9C6.6,30.6,10,30.6,13.5,30.6z M13.7,55.7c1.3,0,2.7,0,4,0c0.5,0,0.7-0.2,0.7-0.7c0-1.9,0-3.8,0-5.7
		c-0.1-2.5-2.2-4.5-4.7-4.5c-2.5,0-4.7,1.9-4.8,4.4c-0.1,2,0,3.9-0.1,5.9c0,0.5,0.3,0.7,0.8,0.7C11,55.7,12.3,55.7,13.7,55.7z
		 M13.6,42.5c1.7,0,3-1.4,3-3c0-1.6-1.4-2.9-3-2.9c-1.7,0-3,1.3-3,3C10.7,41.2,11.9,42.5,13.6,42.5z M40.2,60.3c0,0.5,0,1,0,1.4
		c0,0.5,0.1,0.8,0.6,0.9c0.5,0.2,1.1,0.4,1.6,0.6c0.4,0.2,0.6,0.1,0.9-0.2c0.7-0.8,1.4-1.6,2.1-2.3c0.3-0.3,0.3-0.6,0-0.9
		c-0.7-0.7-1.3-1.4-1.9-2.1c-0.4-0.5-0.8-0.5-1.4-0.3C39.8,58.5,40.3,57.8,40.2,60.3z M35,60.4c0.6,0.2,1,0.4,1.4,0.6
		c1.6,0.7,1.8,0.5,1.5-1.2c0,0,0-0.1,0-0.1c0-0.2-0.2-0.3-0.4-0.2C36.8,59.6,36,60,35,60.4z"/>
	<path class="st0" d="M54.7,46.6c-3.5,0-6.9,0-10.4,0c-0.9,0-1,0-1-0.9c0-4.2,0-8.4,0-12.6c0-0.9,0.1-1,1-1c7,0,13.9,0,20.9,0
		c0.9,0,0.9,0.1,0.9,0.9c0,4.2,0,8.5,0,12.7c0,0.9-0.1,0.9-0.9,0.9C61.7,46.6,58.2,46.6,54.7,46.6z M54.8,34.3c-2.8,0-5.6,0-8.4,0
		c-0.6,0-0.9,0.2-0.9,0.8c0,2.8,0,5.6,0,8.5c0,0.7,0.3,0.8,0.9,0.8c5.6,0,11.1,0,16.7,0c0.7,0,0.9-0.2,0.9-0.9c0-2.8,0-5.6,0-8.3
		c0-0.7-0.2-0.9-0.9-0.9C60.3,34.3,57.6,34.3,54.8,34.3z"/>
	<path class="st0" d="M49.7,49.8c0,1.1,0,1.1-1.2,1.1c-1.1,0-1.1,0-1.1-1.1c0-1.1,0-1.1,1.2-1.1C49.7,48.6,49.7,48.6,49.7,49.8z"/>
	<path class="st0" d="M53.8,49.8c0,1.1,0,1.1-1.1,1.1c-1.1,0-1.1,0-1.1-1.1c0-1.1,0-1.1,1.1-1.1C53.8,48.6,53.8,48.6,53.8,49.8z"/>
	<path class="st0" d="M56.8,50.9c-1.1,0-1.1,0-1.1-1.2c0-1.1,0-1.1,1.1-1.1c1,0,1,0,1,1.2C57.9,50.9,57.9,50.9,56.8,50.9z"/>
	<path class="st0" d="M59.8,49.8c0-1.1,0-1.1,1.1-1.1c1.1,0,1.1,0,1.1,1.1c0,1.1,0,1.1-1.1,1.1C59.8,50.9,59.8,50.9,59.8,49.8z"/>
	<path class="st0" d="M53.1,26.3c-2.6,0-5.1,0-7.7,0c-1,0-1,0-1-1c0-0.2,0-0.3,0-0.5c-0.1-0.6,0.2-0.8,0.8-0.8c5.3,0,10.6,0,15.8,0
		c0.6,0,0.8,0.2,0.8,0.8c0,1.5,0,1.5-1.4,1.5C58,26.3,55.5,26.3,53.1,26.3z"/>
	<path class="st0" d="M49.7,22.2c-2.3,0-4.7,0-7,0c-1,0-1,0-1-1c0-0.1,0-0.3,0-0.4c-0.1-0.7,0.2-0.9,0.9-0.9c4.8,0,9.6,0,14.3,0
		c0.6,0,1,0.2,0.9,0.9c0,0.2,0,0.3,0,0.5c0,0.9-0.1,0.9-0.9,0.9C54.4,22.2,52.1,22.2,49.7,22.2z"/>
	<path class="st0" d="M55,18.1c-2,0-3.9,0-5.9,0c-0.9,0-0.9,0-0.9-0.9c0-1.3,0-1.3,1.3-1.3c3.8,0,7.6,0,11.4,0
		c0.3,0,0.8-0.1,0.9,0.3c0.1,0.6,0.2,1.2-0.1,1.8c-0.1,0.2-0.5,0.2-0.7,0.2C59,18.1,57,18.1,55,18.1z"/>
	<path class="st0" d="M41.5,24c1,0,1.1,0,1.1,1.1c0,1.1,0,1.1-1.2,1.1c-1.1,0-1.1,0-1.1-1.2C40.3,24,40.3,24,41.5,24z"/>
	<path class="st0" d="M37.3,24c1.1,0,1.1,0,1.1,1.2c0,1.1,0,1.1-1.1,1.1c-1.1,0-1.1,0-1.1-1.1C36.2,24,36.2,24,37.3,24z"/>
	<path class="st0" d="M61.8,21.1c0,1.1,0,1.1-1.2,1.1c-1.1,0-1.1,0-1.1-1.1c0-1.1,0-1.1,1.1-1.1C61.8,19.9,61.8,19.9,61.8,21.1z"/>
	<path class="st0" d="M48.6,5.8c-5.5,0-11,0-16.5,0c-0.3,0-0.8,0.2-1-0.3C31,5,31,4.4,31.2,3.8c0.1-0.1,0.2-0.1,0.4-0.2
		c0.2,0,0.5,0,0.7,0c10.9,0,21.8,0,32.7,0c0.4,0,0.9-0.2,1.1,0.2c0.2,0.5,0.1,1.1,0,1.7c-0.1,0.3-0.4,0.2-0.6,0.2c-1,0-2.1,0-3.1,0
		C57.7,5.8,53.1,5.8,48.6,5.8z"/>
	<path class="st0" d="M26.9,5.8c-1.1,0-1.1,0-1.1-1c0-1.1,0-1.1,1.1-1.1c1.1,0,1.1,0,1.1,1.1C28.1,5.8,28.1,5.8,26.9,5.8z"/>
	<path class="st0" d="M22.9,5.8c-1.2,0-1.2,0-1.2-1.1c0-1.1,0-1.1,1.1-1.1c1.2,0,1.2,0,1.2,1.1C24,5.8,24,5.8,22.9,5.8z"/>
	<path class="st0" d="M18.7,5.8c-1.1,0-1.1,0-1.1-1.1c0-1.1,0-1.1,1.1-1.1c1.1,0,1.1,0,1.1,1.1C19.9,5.8,19.9,5.8,18.7,5.8z"/>
	<path class="st0" d="M13.7,65.9c-1.8,0-3.2-1.4-3.2-3.1c0-1.7,1.4-3.1,3.1-3.1c1.8,0,3.2,1.4,3.2,3.1
		C16.8,64.5,15.4,65.9,13.7,65.9z M14.6,62.8c0-0.5-0.4-0.9-0.9-0.8c-0.5,0-0.9,0.4-0.9,0.9c0,0.5,0.4,0.9,0.9,0.9
		C14.2,63.7,14.6,63.2,14.6,62.8z"/>
	<path class="st0" d="M15.7,28.7c-1.6,0-3.2,0-4.8,0c-0.6,0-0.8-0.2-0.8-0.8c0,0,0,0,0-0.1c0-1.3,0-1.3,1.3-1.3c3,0,6,0,8.9,0
		c0.7,0,0.9,0.1,0.9,0.9c-0.1,1.5,0.1,1.3-1.3,1.3C18.5,28.8,17.1,28.7,15.7,28.7z"/>
	<path class="st0" d="M7.1,26.6c1.1,0,1.1,0,1.1,1.1c0,1.1,0,1.1-1.1,1.1c-1.1,0-1.1,0-1.1-1.1C6,26.6,6,26.6,7.1,26.6z"/>
</g>
</svg>
