<?xml version="1.0" encoding="utf-8"?>
<!-- Generator: Adobe Illustrator 23.0.1, SVG Export Plug-In . SVG Version: 6.00 Build 0)  -->
<svg version="1.1" id="Layer_1" xmlns="http://www.w3.org/2000/svg" xmlns:xlink="http://www.w3.org/1999/xlink" x="0px" y="0px"
	 viewBox="0 0 70 70" style="enable-background:new 0 0 70 70;" xml:space="preserve">
<style type="text/css">
	.st0{fill:#FE214F;}
</style>
<g>
	<path class="st0" d="M0,56c0-13.9,0-27.8,0-41.6c0.6-2.5,2.7-4.6,6.1-4.5c4.3,0.1,8.6,0,12.9,0c0.8,0,1.2-0.2,1.5-0.9
		c2.9-5.7,9-9.6,16.2-8.9c6,0.6,10.4,3.7,13.1,9.1c0.3,0.5,0.6,0.7,1.2,0.7c4.4,0,8.8,0,13.3,0c0.4,0,0.8,0,1.2,0.1
		c2.4,0.5,3.8,2,4.4,4.3c0,13.9,0,27.8,0,41.6c-1,3.2-2.8,4.4-6.1,4.4c-6.6,0-13.3,0-19.9,0c-0.6,0-0.9,0.2-0.9,0.8
		c0,1.7,0,3.4,0,5.1c0,0.7,0.2,0.9,0.9,0.8c1.3,0,2.5,0,3.8,0c1,0,1.6,0.5,1.7,1.4c0,0.9-0.6,1.4-1.6,1.4c-8.5,0-17,0-25.6,0
		c-1,0-1.6-0.5-1.6-1.4c0-0.9,0.6-1.4,1.7-1.4c1.1,0,2.2,0,3.3,0c1,0,1,0,1-1c0-1.6,0-3.2,0-4.8c0-1,0-1-1-1c-6.6,0-13.3,0-19.9,0
		c-0.4,0-0.9,0-1.3-0.1C2,59.8,0.6,58.3,0,56z M34.9,49.6c10.5,0,20.9,0,31.4,0c0.6,0,0.9-0.1,0.9-0.8c0-11,0-22,0-33
		c0-2-1.1-3.1-3.1-3.1c-4.1,0-8.1,0-12.2,0c-0.7,0-0.7,0.2-0.6,0.8c0.4,2.1,0.4,4.1,0,6.2c-1.7,8.5-9.8,14.6-18.9,13.1
		c-9.2-1.6-15-10-13.5-19.3c0.1-0.6-0.1-0.8-0.7-0.8c-4.1,0-8.1,0-12.2,0c-2.3,0-3.3,1-3.3,3.3c0,10.8,0,21.7,0,32.5
		c0,1.1,0,1.1,1.1,1.1C14.2,49.6,24.6,49.6,34.9,49.6z M35,52.5c-10.3,0-20.7,0-31,0c-0.2,0-0.4,0-0.6,0c-0.4,0-0.6,0.2-0.6,0.6
		c0,0.6,0,1.2,0,1.8c0.1,1.6,1.1,2.6,2.7,2.7c0.2,0,0.5,0,0.7,0c19.2,0,38.4,0,57.6,0c0.2,0,0.4,0,0.6,0c1.6-0.1,2.7-1.1,2.8-2.8
		c0-0.4,0-0.8,0-1.2c0-1.1,0-1.1-1-1.1C55.8,52.5,45.4,52.5,35,52.5z M34.8,67.2c1.6,0,3.1,0,4.7,0c0.5,0,0.7-0.2,0.7-0.7
		c0-1.8,0-3.6,0-5.3c0-0.5-0.2-0.7-0.7-0.7c-3.1,0-6.2,0-9.3,0c-0.6,0-0.8,0.2-0.8,0.7c0,1.8,0,3.5,0,5.3c0,0.6,0.2,0.8,0.8,0.7
		C31.8,67.1,33.3,67.2,34.8,67.2z M48.7,16.3c0-0.2-0.1-0.7-0.1-1.1c-0.2-1.9-0.8-3.7-1.7-5.4c-0.2-0.4-0.5-0.5-0.9-0.2
		c-0.4,0.4-0.8,0.7-1.2,1c-0.5,0.3-0.6,0.7-0.5,1.2c0.5,2.8,0.5,5.5,0.1,8.3c-0.2,1.2-0.2,2.1,1,2.7c0.2,0.1,0.4,0.3,0.5,0.4
		c0.4,0.4,0.7,0.3,0.9-0.2C48.1,21.1,48.7,18.9,48.7,16.3z M21.5,16.7c0,0.3,0,0.9,0.1,1.5c0.2,1.8,0.8,3.5,1.7,5
		c0.2,0.4,0.4,0.5,0.8,0.2c0.4-0.4,0.8-0.7,1.2-1c0.5-0.3,0.6-0.7,0.5-1.3c-0.5-2.8-0.6-5.7-0.1-8.5c0.2-1.1,0.1-1.9-1-2.4
		c-0.2-0.1-0.4-0.3-0.6-0.5c-0.4-0.5-0.7-0.3-1,0.2C22.1,11.9,21.6,14.1,21.5,16.7z M33.7,16.6c0-0.7,0-1.4,0-2.1
		c0-0.5-0.2-0.7-0.6-0.8c-1.3-0.2-2.6-0.5-3.9-1c-0.4-0.1-0.5,0-0.6,0.4c-0.3,2.3-0.3,4.5,0,6.8c0,0.4,0.2,0.5,0.5,0.4
		c1.3-0.5,2.6-0.8,4-1c0.4-0.1,0.6-0.3,0.6-0.7C33.7,17.9,33.7,17.2,33.7,16.6z M41.9,16.6c-0.1-1.2-0.2-2.3-0.3-3.4
		c0-0.4-0.2-0.5-0.6-0.4c-1.3,0.5-2.6,0.8-3.9,1c-0.4,0.1-0.6,0.3-0.6,0.7c0,1.4,0,2.7,0,4.1c0,0.5,0.2,0.7,0.7,0.8
		c1.3,0.2,2.6,0.5,3.8,1c0.4,0.2,0.6,0,0.6-0.4C41.7,18.8,41.9,17.6,41.9,16.6z M36.6,7c0,1.1,0,2.1,0,3.2c0,0.4,0.1,0.6,0.6,0.6
		c1.1-0.2,2.2-0.5,3.3-0.9c0.4-0.2,0.5-0.5,0.3-0.9c-0.5-1.4-1.1-2.8-2.1-4c-0.4-0.6-0.9-1.1-1.5-1.5c-0.4-0.3-0.6-0.2-0.6,0.3
		C36.6,4.9,36.6,6,36.6,7z M33.7,26c0-1,0-2.1,0-3.1c0-0.5-0.2-0.7-0.7-0.6c-1,0.2-1.9,0.4-2.9,0.8c-0.6,0.2-0.8,0.5-0.5,1.1
		c0.4,1,0.8,2,1.4,2.9c0.5,0.9,1.2,1.7,2.1,2.3c0.2,0.1,0.3,0.3,0.5,0.2c0.2-0.1,0.1-0.4,0.1-0.6C33.7,28,33.7,27,33.7,26z
		 M36.6,25.9c0,1,0,2,0,2.9c0,0.2-0.1,0.6,0.1,0.7c0.3,0.1,0.5-0.2,0.7-0.3c1.8-1.4,2.7-3.4,3.4-5.4c0.1-0.4-0.1-0.6-0.4-0.7
		c-1-0.4-2.1-0.7-3.2-0.9c-0.5-0.1-0.6,0.2-0.6,0.6C36.6,23.9,36.6,24.9,36.6,25.9z M33.7,7.1c0-1,0-2,0-2.9c0-0.2,0.1-0.6-0.1-0.7
		c-0.3-0.1-0.5,0.2-0.7,0.3c-1.8,1.4-2.7,3.4-3.4,5.4c-0.1,0.4,0.1,0.6,0.4,0.7c1,0.4,2,0.7,3.1,0.9c0.6,0.1,0.7-0.1,0.7-0.6
		C33.7,9.1,33.7,8.1,33.7,7.1z M28,5.1c-0.8,0.3-1.5,0.9-2.1,1.4c-0.2,0.2-0.4,0.4-0.2,0.6c0.3,0.3,0.5,0.7,1,0.7
		c0.1,0,0.2-0.1,0.2-0.2C27.3,6.8,27.7,5.9,28,5.1z M42.2,5.1c0.3,0.8,0.7,1.5,1,2.3c0.1,0.2,0.1,0.5,0.3,0.5
		c0.4-0.1,0.7-0.4,0.9-0.7c0.2-0.2,0.1-0.3-0.1-0.5C43.8,6,43.1,5.5,42.2,5.1z M28,28c-0.3-0.8-0.7-1.6-1-2.3
		c-0.1-0.2-0.1-0.5-0.3-0.4c-0.4,0.1-0.7,0.4-0.9,0.7c-0.1,0.2-0.1,0.3,0.1,0.5C26.5,27,27.2,27.6,28,28z M42.2,28
		c0.9-0.4,1.6-0.9,2.3-1.6c0.2-0.2,0.1-0.4-0.1-0.5c-0.3-0.2-0.5-0.6-0.9-0.6c-0.1,0-0.1,0.1-0.2,0.2C43,26.2,42.6,27.1,42.2,28z"/>
	<path class="st0" d="M35,35.6c8.7,0,17.4,0,26.1,0c1.5,0,2,0.4,2,1.9c0,2.5,0,4.9,0,7.4c0,1.3-0.5,1.7-1.7,1.7
		c-17.5,0-35.1,0-52.6,0c-1.3,0-1.8-0.5-1.8-1.8c0-2.5,0-5.1,0-7.6c0-1.2,0.5-1.7,1.7-1.7C17.4,35.6,26.2,35.6,35,35.6z M35,43.9
		c8.1,0,16.1,0,24.2,0c1,0,1,0,1-1.1c0-1.1,0-2.1,0-3.2c0-1.1,0-1.1-1.1-1.1c-16.1,0-32.2,0-48.3,0c-0.1,0-0.3,0-0.4,0
		c-0.5,0-0.7,0.2-0.7,0.7c0,1.2,0,2.5,0,3.7c0,1,0,1,1,1C18.8,43.9,26.9,43.9,35,43.9z"/>
</g>
</svg>
