<svg xmlns="http://www.w3.org/2000/svg" width="40" height="40" viewBox="0 0 40 40"><defs><style>.cls-1{fill:#fe214f;}</style></defs><title>Alexa Skills Development</title><g id="Alexa_Skills_Development" data-name="Alexa Skills Development"><path class="cls-1" d="M19.31483,9.90084a.61457.61457,0,1,0,.61457-.61457A.61457.61457,0,0,0,19.31483,9.90084Z"/><path class="cls-1" d="M21.66864,8.77618a.6187.6187,0,0,0,.4345-1.04908,3.07791,3.07791,0,0,0-4.3476,0,.61457.61457,0,0,0,.86913.869,1.848,1.848,0,0,1,2.60946,0A.61276.61276,0,0,0,21.66864,8.77618Z"/><path class="cls-1" d="M23.40787,7.03694a.61887.61887,0,0,0,.43389-1.05,5.5532,5.5532,0,0,0-7.825,0,.61472.61472,0,0,0,.86784.87084,4.31978,4.31978,0,0,1,6.0893,0,.61257.61257,0,0,0,.43394.17915Z"/><path class="cls-1" d="M25.14711,5.2977A.61868.61868,0,0,0,25.581,4.248a8.01449,8.01449,0,0,0-11.3035,0,.61457.61457,0,0,0,.86789.87023,6.78327,6.78327,0,0,1,9.56783,0,.61186.61186,0,0,0,.43389.17951Z"/><path class="cls-1" d="M13.9055,33.30107a15.99124,15.99124,0,0,1-3.54879-1.10254.6146.6146,0,0,0-.52091,1.11336,17.20307,17.20307,0,0,0,3.82608,1.19368.61457.61457,0,1,0,.26508-1.20022L13.9055,33.301Z"/><path class="cls-1" d="M19.9294,37.55655c6.25677,0,12.906-1.72307,12.906-4.91657V17.89027c-.19617-6.5206-25.61613-6.52152-25.812,0V32.64C7.0234,35.83348,13.67263,37.55655,19.9294,37.55655Zm0-1.22914c-6.88154,0-11.67685-1.94334-11.67685-3.68743V27.45355c4.52545,3.62216,18.82831,3.6221,23.3537,0V32.64C31.60625,34.38407,26.81094,36.32741,19.9294,36.32741ZM8.64544,20.369c5.2796,3.29035,17.8509,3.36588,22.96081-.28688v5.183c0,1.74409-4.79531,3.68743-11.67685,3.68743S8.25255,27.00921,8.25255,25.26512v-5.183C8.38161,20.178,8.5063,20.27622,8.64544,20.369Zm11.284-6.16612c6.88154,0,11.67685,1.94334,11.67685,3.68743S26.81094,21.5777,19.9294,21.5777,8.25255,19.63436,8.25255,17.89027,13.04786,14.20284,19.9294,14.20284Z"/><path class="cls-1" d="M19.9294,20.34855A.61457.61457,0,0,0,20.544,19.734V16.04656a.61457.61457,0,1,0-1.22914,0V19.734A.61457.61457,0,0,0,19.9294,20.34855Z"/><path class="cls-1" d="M22.38768,19.11941a.61458.61458,0,0,0,.61458-.61457V17.2757a.61458.61458,0,0,0-1.22915,0v1.22914A.61457.61457,0,0,0,22.38768,19.11941Z"/><path class="cls-1" d="M17.47111,19.11941a.61458.61458,0,0,0,.61458-.61457V17.2757a.61458.61458,0,0,0-1.22915,0v1.22914A.61457.61457,0,0,0,17.47111,19.11941Z"/></g></svg>