<svg xmlns="http://www.w3.org/2000/svg" width="40" height="40" viewBox="0 0 40 40"><defs><style>.cls-1{fill:#fe214f;}</style></defs><title>Chatbot Integration</title><g id="Chatbot_Integration" data-name="Chatbot Integration"><path class="cls-1" d="M34.62735,10.68416h-6.1035a.5286.5286,0,1,0,0,1.0572h6.1035a.5286.5286,0,0,0,0-1.0572Z"/><path class="cls-1" d="M28.52385,9.26794H33.081a.52861.52861,0,0,0,0-1.05721H28.52385a.52861.52861,0,0,0,0,1.05721Z"/><path class="cls-1" d="M18.64037,18.05461H13.252a3.57019,3.57019,0,0,0-3.56735,3.565v5.428A3.57025,3.57025,0,0,0,13.252,30.61274H26.39211a3.57035,3.57035,0,0,0,3.56742-3.56509v-5.428a3.57025,3.57025,0,0,0-3.56742-3.565H21.06974a.5286.5286,0,1,0,0,1.0572h5.32237a2.51183,2.51183,0,0,1,2.51022,2.50775v5.428a2.51185,2.51185,0,0,1-2.51022,2.50782H13.252a2.51184,2.51184,0,0,1-2.51015-2.50782v-5.428A2.51182,2.51182,0,0,1,13.252,19.11181h5.38834a.5286.5286,0,1,0,0-1.0572Z"/><path class="cls-1" d="M38.04289,10.21272V9.98507a5.75681,5.75681,0,0,0-5.75336-5.747H30.08421a5.764,5.764,0,0,0-5.42492,3.83136,21.26218,21.26218,0,0,0-2.22364-.3679c.00141-.03242.00211-.06485.00211-.098a2.61555,2.61555,0,0,0-5.23109,0q0,.05075.00211.10149a18.28206,18.28206,0,0,0-8.04607,2.77487,10.41608,10.41608,0,0,0-4.95411,8.944v1.03718A2.907,2.907,0,0,0,2.70406,21.618a5.071,5.071,0,0,0,.0012,5.3001,2.84649,2.84649,0,0,0,2.40344,1.303h1.585v.11228a6.29869,6.29869,0,0,0,6.27562,6.28195h.012l5.67583-.00775a.5286.5286,0,0,0-.00071-1.0572h-.0007l-5.67654.00775a5.23984,5.23984,0,0,1-5.22827-5.22475v-.63813l.00014-.00275-.00014-.00275V20.87508a7.56652,7.56652,0,0,1,7.56116-7.55483h4.503l.006.00029.006-.00029h4.50523a7.67513,7.67513,0,0,1,.95853.05991,5.80844,5.80844,0,0,0,.8958,1.05015l.01268,1.72465a.62192.62192,0,0,0,.24668.542.60554.60554,0,0,0,.36157.117.76426.76426,0,0,0,.2643-.05l.01621-.00635,1.95371-.79078.01691-.007h1.01068a7.51546,7.51546,0,0,1,1.82374,4.88857v.00077l.00008.0012.00028.02488v6.81062l-.00036.00684.00036.00683v.634a5.24113,5.24113,0,0,1-5.21912,5.22476h-.00987l-5.568-.00775h-.00071a.5286.5286,0,0,0-.0007,1.0572l5.568.00775h.012a6.29871,6.29871,0,0,0,6.27562-6.282v-.11227h1.58481a2.8465,2.8465,0,0,0,2.40344-1.303,5.07114,5.07114,0,0,0,.0012-5.30017,2.91056,2.91056,0,0,0-1.47473-1.14643V19.42382a10.48073,10.48073,0,0,0-.75977-3.997A5.75069,5.75069,0,0,0,38.04289,10.21272ZM6.69372,27.16387H5.1087c-1.439,0-2.09439-1.5032-2.09439-2.89969a3.72133,3.72133,0,0,1,.56293-2.05033,1.77483,1.77483,0,0,1,1.53146-.83618h1.585ZM19.29245,12.263H15.31209a8.6265,8.6265,0,0,0-8.6,8.05742H5.2658v-.89657a9.40331,9.40331,0,0,1,4.4833-8.0644,17.28784,17.28784,0,0,1,7.71763-2.61974,2.623,2.623,0,0,0,1.82572,1.42186Zm.52916-3.104h-.00134a1.55912,1.55912,0,0,1-1.55641-1.54985V7.60348a1.55832,1.55832,0,0,1,3.11663,0V7.607a1.56014,1.56014,0,0,1-1.55888,1.552Zm4.51065,3.104H20.34965v-2.1015a2.62441,2.62441,0,0,0,1.82867-1.42532,20.56617,20.56617,0,0,1,2.22153.358,5.71308,5.71308,0,0,0-.06907.89087v.22765a5.68245,5.68245,0,0,0,.38553,2.05872c-.1275-.00564-.25507-.00846-.384-.00846Zm8.5992,8.05742a8.5566,8.5566,0,0,0-1.52575-4.36067h.88382a5.7384,5.7384,0,0,0,1.41383-.17549,9.39351,9.39351,0,0,1,.7048,3.63958v.89658Zm3.13545,1.89338a3.72157,3.72157,0,0,1,.56292,2.05033c0,1.39656-.65539,2.89969-2.09438,2.89969H32.95063V21.37753h1.58482A1.77516,1.77516,0,0,1,36.06691,22.21378Zm-1.8131-7.74195a4.62668,4.62668,0,0,1-1.0283.33689,4.705,4.705,0,0,1-.936.09374h-3.2752c-.01974,0-.03877,0-.05639.00071h-.0007a.7134.7134,0,0,0-.33337.09232l-1.37155.55539L27.24246,14.247a.53913.53913,0,0,0-.12264-.394l-.0007-.0007a.49533.49533,0,0,0-.03665-.04017.36874.36874,0,0,0-.03031-.02749,4.73569,4.73569,0,0,1-1.10935-1.37084,4.6473,4.6473,0,0,1-.55468-2.20109V9.98507a4.70808,4.70808,0,0,1,.043-.63432,4.59666,4.59666,0,0,1,.26078-1.02407,4.70174,4.70174,0,0,1,4.39238-3.03142H32.2896a4.69832,4.69832,0,0,1,4.69616,4.68981v.22765a4.69491,4.69491,0,0,1-2.73195,4.25911Z"/><path class="cls-1" d="M17.94678,26.43046a.5286.5286,0,0,0-.0117.74751,2.67443,2.67443,0,0,0,3.862,0,.52864.52864,0,0,0-.75921-.73582,1.61723,1.61723,0,0,1-2.34353,0A.52886.52886,0,0,0,17.94678,26.43046Z"/><path class="cls-1" d="M13.27684,23.07892a2.16487,2.16487,0,1,0,2.16486-2.1636A2.16667,2.16667,0,0,0,13.27684,23.07892Zm3.27253,0A1.10767,1.10767,0,1,1,15.4417,21.9726,1.10826,1.10826,0,0,1,16.54937,23.07892Z"/><path class="cls-1" d="M26.59305,23.07892a2.16589,2.16589,0,1,0-2.16486,2.1636A2.16667,2.16667,0,0,0,26.59305,23.07892Zm-3.2745,0a1.10865,1.10865,0,1,1,1.10964,1.10632A1.10927,1.10927,0,0,1,23.31855,23.07892Z"/></g></svg>