<?xml version="1.0" encoding="utf-8"?>
<!-- Generator: Adobe Illustrator 18.1.1, SVG Export Plug-In . SVG Version: 6.00 Build 0)  -->
<svg version="1.1" id="Layer_1" xmlns="http://www.w3.org/2000/svg" xmlns:xlink="http://www.w3.org/1999/xlink" x="0px" y="0px"
	 viewBox="-285 377 40 40" enable-background="new -285 377 40 40" xml:space="preserve">
<title>Comprehensive Solutions</title>
<g id="Comprehensive_Solutions">
	<path fill="#FFFFFF" d="M-257.1,385.1h3.5v1.2h-3.5V385.1z"/>
	<path fill="#FFFFFF" d="M-258,382l3.2-1.3l0.4,1.1l-3.2,1.3L-258,382z"/>
	<path fill="#FFFFFF" d="M-276.1,381.7l0.4-1.1l3.2,1.3l-0.4,1.1L-276.1,381.7z"/>
	<path fill="#FFFFFF" d="M-276.8,385h3.5v1.2h-3.5V385z"/>
	<path fill="#FFFFFF" d="M-250.2,398.3h2.9v1.2h-2.9V398.3z"/>
	<path fill="#FFFFFF" d="M-250.2,401.8h1.2v5.8h1.2v-6.9h-2.3V401.8z"/>
	<path fill="#FFFFFF" d="M-249.1,408.7h1.2v1.2h-1.2V408.7z"/>
	<path fill="#FFFFFF" d="M-247.9,390.2h-1.2v5.8h-1.2v1.2h2.3V390.2z"/>
	<path fill="#FFFFFF" d="M-249.1,387.9h1.2v1.2h-1.2V387.9z"/>
	<path fill="#FFFFFF" d="M-254.6,392l0.7-1.4l-3-3l-1.4,0.7c-0.1-0.1-0.3-0.2-0.4-0.3c1.3-3.6-0.5-7.6-4.1-8.9
		c-1-0.4-2.1-0.5-3.2-0.4c-3.8,0.4-6.5,3.9-6.1,7.7c0.1,0.5,0.2,1.1,0.4,1.6c-0.1,0.1-0.3,0.2-0.4,0.3l-1.4-0.7l-3,3l0.7,1.4
		c-0.9,1.3-1.5,2.8-1.8,4.3l-1.4,0.5v4.3l1.4,0.5c0.3,1.5,0.9,3,1.8,4.3l-0.7,1.4l3,3l1.4-0.7c0.6,0.4,1.3,0.7,1.9,1l-0.2,0.1v1.5
		c0,0.6,0.5,1.2,1.2,1.2h2.3c0,0.6,0.5,1.2,1.2,1.2h1.2c0.6,0,1.2-0.5,1.2-1.2h2.3c0.6,0,1.2-0.5,1.2-1.2v-1.5l-0.2-0.1
		c0.7-0.3,1.3-0.6,1.9-1l1.4,0.7l3-3l-0.7-1.4c0.9-1.3,1.5-2.8,1.8-4.3l1.4-0.5v-4.3l-1.4-0.5C-253.1,394.7-253.7,393.3-254.6,392
		L-254.6,392z M-270.9,384.7c0.4-2.5,2.5-4.5,5-4.8c0.2,0,0.4,0,0.7,0c1.4,0,2.8,0.5,3.8,1.5c2.4,2.1,2.6,5.8,0.5,8.1
		c-0.2,0.2-0.4,0.4-0.7,0.6c-0.8,0.6-1.2,1.5-1.3,2.4h-0.6v-2.9h1.7v-2.9h-0.6c-0.3,0-0.6-0.3-0.6-0.6c0-0.3,0.3-0.6,0.6-0.6
		c0,0,0,0,0,0h0.6v-2.9h-1.7c0-1-0.8-1.7-1.7-1.7c-1,0-1.7,0.8-1.7,1.7h-1.7v2.9h0.6c0.3,0,0.6,0.3,0.6,0.6c0,0.3-0.3,0.6-0.6,0.6
		c0,0,0,0,0,0h-0.6v2.9h1.7v2.9h-0.6c-0.1-1-0.6-1.9-1.3-2.5C-270.5,388.8-271.2,386.7-270.9,384.7L-270.9,384.7z M-266.9,405
		c-3.4-1-5.3-4.5-4.4-7.8c0.4-1.5,1.4-2.8,2.6-3.6v1.9c0,1,0.8,1.7,1.7,1.7V405z M-266.9,396c-0.3,0-0.6-0.3-0.6-0.6v-1.7h4.6v1.7
		c0,0.3-0.3,0.6-0.6,0.6H-266.9z M-267.5,384.6v-0.7h1.7v-1.2c0-0.3,0.3-0.6,0.6-0.6c0.3,0,0.6,0.3,0.6,0.6v1.2h1.7v0.7
		c-0.9,0.3-1.4,1.3-1.1,2.2c0.2,0.5,0.6,0.9,1.1,1.1v0.7h-4.6v-0.7c0.9-0.3,1.4-1.3,1.1-2.2C-266.6,385.1-267,384.7-267.5,384.6
		L-267.5,384.6z M-264.6,389.7v2.9h-1.2v-2.9H-264.6z M-261.8,395.4v-1.9c2.9,1.9,3.8,5.8,1.9,8.8c-0.8,1.3-2.1,2.2-3.6,2.6v-7.8
		C-262.5,397.2-261.8,396.4-261.8,395.4z M-272.1,408.2l-0.3,0.2l-0.9,0.4l-1.9-1.9l0.6-1.2l-0.2-0.3c-0.9-1.3-1.6-2.9-1.8-4.5
		l-0.1-0.3l-1.3-0.4v-2.6l1.3-0.4l0.1-0.3c0.3-1.6,0.9-3.1,1.8-4.5l0.2-0.3l-0.6-1.2l1.9-1.9l1.2,0.6l0.3-0.2
		c0.2-0.1,0.4-0.2,0.5-0.3c0.4,0.7,1,1.4,1.6,1.9c0.4,0.3,0.7,0.8,0.8,1.3c-3.7,2-5,6.5-3.1,10.2c0.6,1.1,1.5,2.1,2.6,2.8h0
		c-0.6,0-1.2,0.5-1.2,1.2v1.5l1.2,0.6v1.2c-0.9-0.3-1.7-0.8-2.5-1.3L-272.1,408.2z M-269.3,412.2v-0.8l1.2-0.6v-3l-1.2-0.6v-0.8h2.3
		v5.8L-269.3,412.2z M-265.8,413.3v-16.2h1.2v16.2L-265.8,413.3z M-261.2,412.2h-2.3v-5.8h2.3v0.8l-1.2,0.6v3l1.2,0.6L-261.2,412.2z
		 M-252.5,400.2l-1.3,0.4l-0.1,0.3c-0.3,1.6-0.9,3.1-1.8,4.5l-0.2,0.3l0.6,1.2l-1.9,1.9l-1.2-0.6l-0.3,0.2c-0.8,0.5-1.6,1-2.5,1.3
		v-1.2l1.2-0.6v-1.5c0-0.6-0.5-1.2-1.2-1.2h0c3.5-2.2,4.6-6.8,2.3-10.3c-0.7-1.1-1.7-2-2.8-2.6c0.1-0.5,0.4-1,0.8-1.3
		c0.7-0.5,1.2-1.2,1.6-1.9c0.2,0.1,0.4,0.2,0.5,0.3l0.3,0.2l1.2-0.6l1.9,1.9l-0.6,1.2l0.2,0.3c0.9,1.3,1.6,2.9,1.8,4.5l0.1,0.3
		l1.3,0.4V400.2z"/>
	<path fill="#FFFFFF" d="M-283.1,398.3h2.9v1.2h-2.9V398.3z"/>
	<path fill="#FFFFFF" d="M-282.5,407.5h1.2v-5.8h1.2v-1.2h-2.3V407.5z"/>
	<path fill="#FFFFFF" d="M-282.5,408.7h1.2v1.2h-1.2V408.7z"/>
	<path fill="#FFFFFF" d="M-281.4,390.2h-1.2v6.9h2.3V396h-1.2V390.2z"/>
	<path fill="#FFFFFF" d="M-282.5,387.9h1.2v1.2h-1.2V387.9z"/>
</g>
</svg>
