<?xml version="1.0" encoding="utf-8"?>
<!-- Generator: Adobe Illustrator 18.1.1, SVG Export Plug-In . SVG Version: 6.00 Build 0)  -->
<svg version="1.1" id="Layer_1" xmlns="http://www.w3.org/2000/svg" xmlns:xlink="http://www.w3.org/1999/xlink" x="0px" y="0px"
	 viewBox="-285 377 40 40" enable-background="new -285 377 40 40" xml:space="preserve">
<title>Constant Support</title>
<g id="Constant_Support">
	<path fill="#FFFFFF" d="M-249.9,381.7h-4.6c-0.3,0-0.5,0.2-0.5,0.5s0.2,0.5,0.5,0.5c0,0,0,0,0,0h4.6c0.3,0,0.5-0.2,0.5-0.5
		C-249.4,381.9-249.6,381.7-249.9,381.7z"/>
	<path fill="#FFFFFF" d="M-257.1,382.7h0.6c0.3,0,0.5-0.2,0.5-0.5s-0.2-0.5-0.5-0.5c0,0,0,0,0,0h-0.6c-0.3,0-0.5,0.2-0.5,0.5
		S-257.4,382.7-257.1,382.7C-257.1,382.7-257.1,382.7-257.1,382.7z"/>
	<path fill="#FFFFFF" d="M-257.1,385.2h7.2c0.3,0,0.5-0.2,0.5-0.5c0-0.3-0.2-0.5-0.5-0.5h-7.2c-0.3,0-0.5,0.2-0.5,0.5
		C-257.6,384.9-257.4,385.2-257.1,385.2z"/>
	<path fill="#FFFFFF" d="M-255.2,410.2c0-2.1-0.7-4.2-2-5.8l0.1-1.8c0.1-1.2-0.8-2.2-2-2.3c0,0-0.1,0-0.1,0h-5.8
		c-0.3-0.2-0.4-0.5-0.4-0.8V398c0.8-0.5,1.5-1.2,2-2h1c1.2,0,2.1-1,2.1-2.1v-3.9c0-0.7-0.4-1.2-1-1.5v-2.8c0-1.3-1-2.3-2.3-2.3h-0.1
		c0,0-0.1,0-0.1-0.1c0-1.3-1-2.3-2.3-2.3h-5.6c-2.8,0-5,2.2-5,5v2.4c-0.6,0.3-1,0.9-1,1.5v2c0,0.9,0.8,1.7,1.7,1.7h0.7
		c0.2,1.5,0.9,2.8,2,3.8c0.3,0.2,0.5,0.4,0.8,0.6v1.5c0,0.3-0.2,0.6-0.4,0.8h-5.8c-1.2,0-2.1,1-2.1,2.1c0,0,0,0.1,0,0.1l0.1,1.8
		c-1.3,1.7-2,3.7-2,5.8v2c-0.6,0.7-0.6,1.7,0.1,2.3c0.3,0.3,0.7,0.4,1.1,0.4h24.9c0.9,0,1.7-0.7,1.7-1.7c0-0.4-0.1-0.8-0.4-1.1
		L-255.2,410.2z M-256.3,410.2v1.4c-0.1,0-0.1,0-0.2,0h-1.1l0.3-5.5C-256.6,407.4-256.3,408.8-256.3,410.2L-256.3,410.2z
		 M-261.4,389.7c0,0.1,0.1,0.2,0.1,0.3v2c0,0.4-0.3,0.6-0.6,0.6h-0.6v-2l0.3-0.1C-261.9,390.3-261.6,390.1-261.4,389.7z
		 M-264.9,395.8h-1.3c-0.2,0-0.4-0.2-0.4-0.4c0-0.2,0.2-0.4,0.4-0.4c0,0,0,0,0,0h1.3c0.2,0,0.4,0.2,0.4,0.4
		C-264.5,395.6-264.7,395.8-264.9,395.8C-264.9,395.8-264.9,395.8-264.9,395.8z M-262.4,395h-0.5c0.1-0.4,0.3-0.9,0.3-1.3h0.7
		c0.2,0,0.4,0,0.6-0.1v0.4C-261.3,394.5-261.8,395-262.4,395z M-275.5,386.1c0-2.2,1.8-4,4-4h5.6c0.7,0,1.2,0.5,1.2,1.2
		c0,0.6,0.5,1.1,1.1,1.1h0.1c0.7,0,1.2,0.5,1.2,1.2v3.4c0,0.2-0.1,0.4-0.3,0.5l-1.1,0.4c0,0-0.1,0-0.1,0c0,0,0,0,0,0l0-2.1
		c0-1.3-1.1-2.4-2.5-2.4c-0.3,0-0.7,0.1-1,0.2c-1.1,0.3-2.2,0.3-3.3,0c-1.2-0.5-2.7,0-3.2,1.3c-0.1,0.3-0.2,0.6-0.2,1l0,2.1
		c0,0,0,0.1-0.1,0.1c0,0,0,0,0,0l-1.1-0.4c-0.2-0.1-0.3-0.3-0.3-0.5L-275.5,386.1L-275.5,386.1z M-276.4,391.9v-2
		c0-0.1,0-0.2,0.1-0.3c0.2,0.4,0.5,0.7,0.9,0.8l0.3,0.1v2h-0.6C-276.1,392.6-276.4,392.3-276.4,391.9z M-274.1,393
		c0-0.7,0-1.4,0-2.1c0,0,0.1,0,0.1,0c0.6,0,1.1-0.5,1.1-1.1c0,0,0,0,0,0l0-2.1c0-0.9,0.8-1.6,2.1-1.2c1.3,0.4,2.6,0.4,3.9,0
		c1.2-0.4,2.1,0.3,2.1,1.2l0,2.1c0,0.6,0.5,1.1,1.1,1.1c0,0,0.1,0,0.1,0v2.1c0,0.4-0.1,0.9-0.2,1.3c-0.3-0.3-0.6-0.4-1-0.4h-1.3
		c-0.8,0-1.4,0.6-1.4,1.4c0,0.8,0.6,1.4,1.4,1.4c0,0,0,0,0,0h0.7c-0.9,0.7-2.1,1.2-3.3,1.2C-271.7,398-274,395.8-274.1,393
		L-274.1,393z M-271.3,399.5v-0.9c0.8,0.3,1.6,0.5,2.4,0.5h0l0,0c0.8,0,1.6-0.2,2.4-0.5v0.9c0,0.3,0.1,0.6,0.2,0.8h-5.1
		C-271.3,400.1-271.3,399.8-271.3,399.5L-271.3,399.5z M-280.5,406.2l0.1,1.5c0,0.3,0.3,0.5,0.6,0.5c0.3,0,0.5-0.3,0.5-0.6l0,0
		l-0.3-5.1c0-0.6,0.4-1.1,1-1.1c0,0,0,0,0.1,0h19.3c0.6,0,1.1,0.5,1.1,1.1c0,0,0,0,0,0.1l-0.5,9.1h-8.3c0.1-0.6,0.4-1.2,0.8-1.6l0,0
		c1.4-1.5,1.2-3.9-0.3-5.3c-0.2-0.2-0.4-0.3-0.6-0.5c-0.4-0.2-0.9-0.1-1.1,0.3c-0.1,0.1-0.1,0.3-0.1,0.4v2.4c0,0.1-0.1,0.2-0.2,0.2
		h-0.9c-0.1,0-0.2-0.1-0.2-0.2v-2.4c0-0.4-0.4-0.8-0.8-0.8c-0.1,0-0.3,0-0.4,0.1c-1.8,1-2.4,3.3-1.4,5.1c0.1,0.2,0.3,0.4,0.5,0.6
		l0,0c0.4,0.5,0.7,1,0.8,1.6h-8.3l-0.1-1.6c0-0.3-0.3-0.5-0.6-0.5c-0.3,0-0.5,0.3-0.5,0.6l0,0l0.1,1.5h-1.1c-0.1,0-0.1,0-0.2,0v-1.4
		C-281.5,408.8-281.1,407.4-280.5,406.2L-280.5,406.2z M-269.8,411.6c-0.1-0.9-0.5-1.7-1.1-2.3l0,0c-1-1.1-0.9-2.8,0.2-3.8
		c0,0,0.1-0.1,0.1-0.1v1.9c0,0.7,0.6,1.3,1.3,1.3h0.9c0.7,0,1.3-0.6,1.3-1.3v-1.9c1.1,0.9,1.3,2.6,0.4,3.8c0,0-0.1,0.1-0.1,0.1l0,0
		c-0.6,0.7-1,1.5-1.1,2.3H-269.8z M-256.5,413.9h-24.9c-0.3,0-0.6-0.3-0.6-0.6s0.3-0.6,0.6-0.6h24.9c0.3,0,0.6,0.3,0.6,0.6
		S-256.1,413.9-256.5,413.9L-256.5,413.9z"/>
	<path fill="#FFFFFF" d="M-247.6,382.7c0.3,0,0.5-0.2,0.5-0.5v-1c0-1.1-0.9-2.1-2.1-2.1h-8.9c-1.1,0-2.1,0.9-2.1,2.1v4.4
		c0,1.1,0.9,2.1,2.1,2.1c0.2,0,0.4,0.2,0.4,0.4v2.7c0,0.5,0.4,0.9,0.9,0.9c0.3,0,0.6-0.2,0.7-0.4l2-3.4c0.1-0.1,0.2-0.2,0.3-0.2h4.5
		c1.1,0,2.1-0.9,2.1-2.1v-0.9c0-0.3-0.2-0.5-0.5-0.5c-0.3,0-0.5,0.2-0.5,0.5c0,0,0,0,0,0v0.9c0,0.6-0.4,1-1,1h-4.5
		c-0.5,0-1,0.3-1.2,0.7l-1.7,2.8V388c0-0.8-0.6-1.4-1.4-1.4c-0.6,0-1-0.4-1-1v-4.4c0-0.6,0.4-1,1-1h8.9c0.6,0,1,0.4,1,1v1
		C-248.1,382.4-247.9,382.7-247.6,382.7L-247.6,382.7z"/>
</g>
</svg>
