<svg id="Development" xmlns="http://www.w3.org/2000/svg" width="40" height="40" viewBox="0 0 40 40"><defs><style>.cls-1{fill:#fe214f;}</style></defs><title>Development</title><g id="Page-1"><g id="_086---Development-Review" data-name="086---Development-Review"><path id="Shape" class="cls-1" d="M5.80993,35.02718H31.95844l2.98142,2.98143a2.47013,2.47013,0,0,0,3.49277-3.49276L35.4512,31.53442V5.38591A3.70887,3.70887,0,0,0,31.746,1.68075H5.80993A3.70888,3.70888,0,0,0,2.10477,5.38591V31.322a3.70888,3.70888,0,0,0,3.70516,3.70516ZM3.33985,31.322V10.32615H34.2162V30.334A2.45158,2.45158,0,0,0,32.82,29.78438l-2.02-2.02a1.18547,1.18547,0,0,0-.20009-.49773l-.633-.8849a8.646,8.646,0,0,0,.8676-2.08538l1.06523-.17477a1.23517,1.23517,0,0,0,1.02884-1.07449,9.34518,9.34518,0,0,0,0-1.98414,1.22879,1.22879,0,0,0-1.02631-1.06459l-1.06711-.17534a8.6436,8.6436,0,0,0-.86825-2.08661l.63176-.88186a1.235,1.235,0,0,0-.029-1.487,8.936,8.936,0,0,0-.665-.73054,9.96743,9.96743,0,0,0-.746-.67931,1.22639,1.22639,0,0,0-1.47092-.01917l-.88186.63668a8.64559,8.64559,0,0,0-2.08538-.8676l-.17476-1.06524a1.23138,1.23138,0,0,0-1.0745-1.02883,9.34518,9.34518,0,0,0-1.98414,0,1.22877,1.22877,0,0,0-1.06458,1.0263L20.24717,13.707a8.6432,8.6432,0,0,0-2.08661.86825l-.88186-.63176a1.235,1.235,0,0,0-1.487.029c-.24149.19763-.48725.42175-.72439.65955a8.84346,8.84346,0,0,0-.6793.74472,1.23068,1.23068,0,0,0-.02468,1.47772l.636.88186a8.64542,8.64542,0,0,0-.8676,2.08538l-1.06524.17476a1.23138,1.23138,0,0,0-1.02883,1.0745,9.31484,9.31484,0,0,0,0,1.98595,1.22891,1.22891,0,0,0,1.02572,1.06277l1.06712.17535a8.64654,8.64654,0,0,0,.86883,2.08661l-.62677.875a1.23865,1.23865,0,0,0,.0241,1.49379c.19763.24149.42175.48724.665.73054.21182.21182.44216.42175.746.6793a1.22639,1.22639,0,0,0,1.47092.01918l.88186-.63668a8.64559,8.64559,0,0,0,2.08538.8676l.17476,1.06524a1.23138,1.23138,0,0,0,1.0745,1.02883,9.34518,9.34518,0,0,0,1.98414,0,1.22877,1.22877,0,0,0,1.06458-1.0263l.17535-1.06712a8.6432,8.6432,0,0,0,2.08661-.86825l.88186.63176a1.22587,1.22587,0,0,0,.49773.19945l1.99522,1.99767a2.43609,2.43609,0,0,0,.57184,1.42034H5.80993A2.4701,2.4701,0,0,1,3.33985,31.322Zm27.54844-.85775a2.50348,2.50348,0,0,0-.37052.494L29.455,29.90169c.16116-.14387.31182-.28281.44831-.41871.14944-.14944.27854-.30322.41372-.45577l1.07138,1.07139a2.31923,2.31923,0,0,0-.50012.36566Zm-14.62981-4.3912a7.43313,7.43313,0,0,1-1.0208-2.45221.61755.61755,0,0,0-.50331-.47675l-1.46788-.22042a8.39555,8.39555,0,0,1-.04631-.86456,8.15455,8.15455,0,0,1,.04443-.8417l1.46969-.24149a.61761.61761,0,0,0,.50331-.47675,7.43033,7.43033,0,0,1,1.0208-2.454.61759.61759,0,0,0-.01607-.69472l-.88923-1.20107a7.77026,7.77026,0,0,1,.58421-.636,7.49568,7.49568,0,0,1,.62373-.56381l1.21655.87136a.61761.61761,0,0,0,.69472.01607,7.43307,7.43307,0,0,1,2.4522-1.0208.61753.61753,0,0,0,.47675-.50331l.2192-1.46788a8.03666,8.03666,0,0,1,1.7056,0l.24149,1.46969a.61763.61763,0,0,0,.47675.50331,7.43253,7.43253,0,0,1,2.45279,1.01646.61762.61762,0,0,0,.69472-.01607l1.20106-.88924q.33748.27822.64595.58914a6.629,6.629,0,0,1,.55577.6175l-.87136,1.21655a.61741.61741,0,0,0-.01542.69284,7.43313,7.43313,0,0,1,1.0208,2.45221.61755.61755,0,0,0,.50331.47675l1.46788.2192a8.39553,8.39553,0,0,1,.04631.86579,8.15435,8.15435,0,0,1-.04443.84169l-1.46969.24149a.61761.61761,0,0,0-.50331.47675,7.43038,7.43038,0,0,1-1.0208,2.454.61761.61761,0,0,0,.01607.69471l.88924,1.20107c-.17043.2087-.36683.42363-.58291.64037a8.19482,8.19482,0,0,1-.62373.56381L27.19,28.30167a.61734.61734,0,0,0-.69284-.01787A7.43313,7.43313,0,0,1,24.045,29.3046a.61753.61753,0,0,0-.47675.5033l-.22042,1.46788a8.03675,8.03675,0,0,1-1.70561,0L21.4007,29.8061a.61762.61762,0,0,0-.47676-.50331,7.43233,7.43233,0,0,1-2.45466-1.01892.61762.61762,0,0,0-.69472.01606l-1.19426.89539c-.22108-.18525-.43659-.37854-.64718-.58913a7.49732,7.49732,0,0,1-.5638-.62373l.87136-1.21655a.61769.61769,0,0,0,.0178-.69283Zm21.301,11.06236a1.264,1.264,0,0,1-1.74635,0l-4.05158-4.051a1.23527,1.23527,0,1,1,1.74693-1.74693l4.051,4.05158a1.2351,1.2351,0,0,1,0,1.74634ZM5.80993,2.91583H31.74605a2.47009,2.47009,0,0,1,2.47008,2.47008V9.09107H3.33985V5.38591A2.47009,2.47009,0,0,1,5.80993,2.91583Z"/><path id="Shape-2" data-name="Shape" class="cls-1" d="M6.42743,7.856A1.85258,1.85258,0,1,0,4.57485,6.00341,1.85262,1.85262,0,0,0,6.42743,7.856Zm0-2.47008a.61751.61751,0,1,1-.6175.6175A.61751.61751,0,0,1,6.42743,5.38591Z"/><path id="Shape-3" data-name="Shape" class="cls-1" d="M11.36767,7.856A1.85258,1.85258,0,1,0,9.51509,6.00341,1.85258,1.85258,0,0,0,11.36767,7.856Zm0-2.47008a.61751.61751,0,1,1-.6175.6175A.61751.61751,0,0,1,11.36767,5.38591Z"/><path id="Shape-4" data-name="Shape" class="cls-1" d="M16.30791,7.856a1.85258,1.85258,0,1,0-1.85258-1.85258A1.85263,1.85263,0,0,0,16.30791,7.856Zm0-2.47008a.61751.61751,0,1,1-.61751.6175A.61751.61751,0,0,1,16.30791,5.38591Z"/><path id="Shape-5" data-name="Shape" class="cls-1" d="M26.18831,7.856h4.94023a1.85258,1.85258,0,0,0,0-3.70516H26.18831a1.85258,1.85258,0,1,0,0,3.70516Zm0-2.47008h4.94023a.61751.61751,0,0,1,0,1.235H26.18831a.61751.61751,0,1,1,0-1.235Z"/><path id="Shape-6" data-name="Shape" class="cls-1" d="M8.89759,11.56115a.61752.61752,0,0,0-.61751.61751V31.93953a.61751.61751,0,0,0,1.235,0V12.17873a.61758.61758,0,0,0-.6175-.61758Z"/><path id="Shape-7" data-name="Shape" class="cls-1" d="M6.42743,12.17873h-1.235a.6175.6175,0,0,0,0,1.235H6.42751a.6175.6175,0,1,0-.00008-1.235Z"/><path id="Shape-8" data-name="Shape" class="cls-1" d="M11.36767,13.41373h3.08766a.6175.6175,0,0,0,0-1.235H11.36767a.6175.6175,0,0,0,0,1.235Z"/><path id="Shape-9" data-name="Shape" class="cls-1" d="M6.42743,15.26631h-1.235a.61751.61751,0,0,0,0,1.235H6.42751a.61751.61751,0,1,0-.00008-1.235Z"/><path id="Shape-10" data-name="Shape" class="cls-1" d="M11.36767,16.50139h.6175a.61751.61751,0,0,0,0-1.235h-.6175a.61751.61751,0,0,0,0,1.235Z"/><path id="Shape-11" data-name="Shape" class="cls-1" d="M6.42743,18.354h-1.235a.6175.6175,0,1,0,0,1.235H6.42751a.6175.6175,0,1,0-.00008-1.235Z"/><path id="Shape-12" data-name="Shape" class="cls-1" d="M11.36767,19.58905h.6175a.61751.61751,0,0,0,0-1.235h-.6175a.61751.61751,0,0,0,0,1.235Z"/><path id="Shape-13" data-name="Shape" class="cls-1" d="M6.42743,21.44162h-1.235a.61751.61751,0,0,0,0,1.235H6.42751a.61751.61751,0,1,0-.00008-1.235Z"/><path id="Shape-14" data-name="Shape" class="cls-1" d="M6.42743,24.52921h-1.235a.6175.6175,0,0,0,0,1.235H6.42751a.6175.6175,0,1,0-.00008-1.235Z"/><path id="Shape-15" data-name="Shape" class="cls-1" d="M11.36767,25.76429h.6175a.61751.61751,0,0,0,0-1.235h-.6175a.61751.61751,0,0,0,0,1.235Z"/><path id="Shape-16" data-name="Shape" class="cls-1" d="M6.42743,27.61687h-1.235a.6175.6175,0,0,0,0,1.235H6.42751a.6175.6175,0,1,0-.00008-1.235Z"/><path id="Shape-17" data-name="Shape" class="cls-1" d="M11.36767,28.85194h1.23508a.6175.6175,0,0,0,0-1.235H11.36767a.6175.6175,0,1,0,0,1.235Z"/><path id="Shape-18" data-name="Shape" class="cls-1" d="M6.42743,30.70452h-1.235a.61751.61751,0,0,0,0,1.235H6.42751a.61751.61751,0,1,0-.00008-1.235Z"/><path id="Shape-19" data-name="Shape" class="cls-1" d="M13.83775,30.70452H11.36767a.61751.61751,0,0,0,0,1.235h2.47008a.61751.61751,0,0,0,0-1.235Z"/><path id="Shape-20" data-name="Shape" class="cls-1" d="M22.48315,28.23437a6.17524,6.17524,0,1,0-6.17524-6.17524A6.17525,6.17525,0,0,0,22.48315,28.23437Zm0-11.11548a4.94024,4.94024,0,1,1-4.94024,4.94024A4.94022,4.94022,0,0,1,22.48315,17.11889Z"/><path id="Shape-21" data-name="Shape" class="cls-1" d="M20.81148,23.73079a.61752.61752,0,0,0,.87318-.87317l-.79842-.79849.79849-.79849a.61752.61752,0,0,0-.87317-.87318l-1.23508,1.23508a.61755.61755,0,0,0,0,.87317Z"/><path id="Shape-22" data-name="Shape" class="cls-1" d="M23.28164,23.73079a.61755.61755,0,0,0,.87317,0l1.23508-1.23507a.61756.61756,0,0,0,0-.87318l-1.23508-1.23507a.61752.61752,0,0,0-.87317.87317l.79849.79849-.79849.79849a.6174.6174,0,0,0,0,.87317Z"/></g></g></svg>