<?xml version="1.0" encoding="utf-8"?>
<!-- Generator: Adobe Illustrator 18.1.1, SVG Export Plug-In . SVG Version: 6.00 Build 0)  -->
<svg version="1.1" id="Layer_1" xmlns="http://www.w3.org/2000/svg" xmlns:xlink="http://www.w3.org/1999/xlink" x="0px" y="0px"
	 viewBox="-285 377 40 40" enable-background="new -285 377 40 40" xml:space="preserve">
<title>Experienced Personnel</title>
<g id="Experienced_Personnel">
	<path fill="#FFFFFF" d="M-265.3,389.5c1.3,0,2.5-0.7,3.3-1.7c0.8-1,1.3-2.3,1.3-3.5c0-2.4-2-4.4-4.4-4.4c-0.1,0-0.1,0-0.2,0
		c-2.4-0.1-4.5,1.7-4.6,4.2c0,0.1,0,0.1,0,0.2c0,1.3,0.5,2.5,1.3,3.5C-267.8,388.8-266.6,389.4-265.3,389.5z M-265.3,381.2
		c1.7-0.1,3.1,1.1,3.3,2.8c0,0.1,0,0.1,0,0.2c0,2.2-1.8,4-3.3,4c-1.8,0-3.3-2.2-3.3-4c0-1.7,1.4-3,3.1-3
		C-265.4,381.2-265.3,381.2-265.3,381.2z"/>
	<path fill="#FFFFFF" d="M-270.7,395.9l-0.5,6.7c0,0.4,0.3,0.7,0.6,0.7h0c0.4,0,0.6-0.3,0.7-0.6l0.5-6.7c0-0.4-0.3-0.7-0.6-0.7
		C-270.4,395.3-270.7,395.5-270.7,395.9L-270.7,395.9L-270.7,395.9z"/>
	<path fill="#FFFFFF" d="M-256.2,403.3c0.4,0,0.7-0.4,0.6-0.7c0,0-0.7-5.1-0.8-6.8c-0.2-3.1-2.1-5.5-5-6c-1.3-0.2-2.6-0.3-3.9-0.3
		c-1.3,0-2.7,0.1-4,0.3c-1.4,0.2-2.6,0.9-3.5,1.9c-0.9,1.1-1.4,2.6-1.5,4c-0.1,1.7-0.7,6.8-0.7,6.8c0,0.4,0.2,0.7,0.6,0.7
		c0.4,0,0.7-0.2,0.7-0.6c0,0,0,0,0,0l0,0c0,0,0.7-5.1,0.7-6.9c0.1-2.4,1.6-4.4,3.8-4.7c1.3-0.2,2.5-0.2,3.8-0.3
		c1.2,0,2.4,0.1,3.7,0.3c1,0.2,2,0.7,2.7,1.5c0.7,0.9,1.1,2.1,1.1,3.2c0.1,1.7,0.8,6.9,0.8,6.9
		C-256.8,403.1-256.5,403.3-256.2,403.3z"/>
	<path fill="#FFFFFF" d="M-260.5,395.3c-0.4,0-0.6,0.3-0.6,0.7l0,0l0.5,6.7c0,0.4,0.3,0.6,0.7,0.6h0c0.4,0,0.6-0.3,0.6-0.7l-0.5-6.7
		C-259.8,395.5-260.2,395.3-260.5,395.3C-260.5,395.3-260.5,395.3-260.5,395.3L-260.5,395.3L-260.5,395.3z"/>
	<path fill="#FFFFFF" d="M-261,409.4l3.2-3.1c0.3-0.3,0.3-0.7,0-0.9c-0.1-0.1-0.2-0.2-0.4-0.2l-4.5-0.6l-2-4
		c-0.2-0.3-0.6-0.5-0.9-0.3c-0.1,0.1-0.2,0.2-0.3,0.3l-2,4l-4.5,0.6c-0.4,0.1-0.6,0.4-0.6,0.8c0,0.1,0.1,0.3,0.2,0.4l3.2,3.1
		l-0.8,4.4c-0.1,0.4,0.2,0.7,0.5,0.8c0.1,0,0.3,0,0.4-0.1l4-2.1l4,2.1c0.3,0.2,0.7,0,0.9-0.3c0.1-0.1,0.1-0.3,0.1-0.4L-261,409.4z
		 M-265.5,411.1c-0.8,0.4-3.1,1.6-3.1,1.6l0.6-3.4c0-0.2,0-0.4-0.2-0.6l-2.5-2.4l3.5-0.5c0.2,0,0.4-0.2,0.5-0.4l1.5-3.1l1.5,3.1
		c0.1,0.2,0.3,0.3,0.5,0.4l3.5,0.5l-2.5,2.4c-0.2,0.2-0.2,0.4-0.2,0.6l0.6,3.4c0,0-2.3-1.2-3.1-1.6
		C-265.1,411-265.3,411-265.5,411.1L-265.5,411.1z"/>
	<path fill="#FFFFFF" d="M-246.8,407.1l-3.3-0.5l-1.5-2.9c-0.2-0.3-0.6-0.5-0.9-0.3c-0.1,0.1-0.2,0.2-0.3,0.3l-1.5,2.9l-3.3,0.5
		c-0.4,0.1-0.6,0.4-0.6,0.8c0,0.1,0.1,0.3,0.2,0.4l2.4,2.3l-0.6,3.2c-0.1,0.4,0.2,0.7,0.5,0.8c0.1,0,0.3,0,0.4-0.1l2.9-1.5l2.9,1.5
		c0.3,0.2,0.7,0,0.9-0.3c0.1-0.1,0.1-0.3,0.1-0.4l-0.6-3.2l2.4-2.3c0.3-0.3,0.3-0.7,0-0.9C-246.5,407.2-246.6,407.2-246.8,407.1
		L-246.8,407.1z M-252.4,411.7c-0.5,0.3-2,1.1-2,1.1l0.4-2.3c0-0.2,0-0.4-0.2-0.6l-1.6-1.6l2.3-0.3c0.2,0,0.4-0.2,0.5-0.4l1-2l1,2
		c0.1,0.2,0.3,0.3,0.5,0.4l2.3,0.3l-1.6,1.6c-0.2,0.2-0.2,0.4-0.2,0.6l0.4,2.3c0,0-1.5-0.8-2-1.1
		C-252,411.5-252.2,411.5-252.4,411.7L-252.4,411.7z"/>
	<path fill="#FFFFFF" d="M-272.9,407.1l-3.3-0.5l-1.5-2.9c-0.2-0.3-0.6-0.5-0.9-0.3c-0.1,0.1-0.2,0.2-0.3,0.3l-1.5,2.9l-3.3,0.5
		c-0.4,0.1-0.6,0.4-0.6,0.8c0,0.1,0.1,0.3,0.2,0.4l2.4,2.3l-0.6,3.2c-0.1,0.4,0.2,0.7,0.5,0.8c0.1,0,0.3,0,0.4-0.1l2.9-1.5l2.9,1.5
		c0.3,0.2,0.7,0,0.9-0.3c0.1-0.1,0.1-0.3,0.1-0.4l-0.6-3.2l2.4-2.3c0.3-0.3,0.3-0.7,0-0.9C-272.7,407.2-272.8,407.2-272.9,407.1
		L-272.9,407.1z M-278.6,411.7l-2,1.1l0.4-2.3c0-0.2,0-0.4-0.2-0.6l-1.6-1.6l2.3-0.3c0.2,0,0.4-0.2,0.5-0.4l1-2l1,2
		c0.1,0.2,0.3,0.3,0.5,0.4l2.3,0.3l-1.6,1.6c-0.2,0.2-0.2,0.4-0.2,0.6l0.4,2.3l-2-1.1C-278.1,411.5-278.4,411.5-278.6,411.7
		L-278.6,411.7z"/>
</g>
</svg>
