<svg xmlns="http://www.w3.org/2000/svg" width="40" height="40" viewBox="0 0 40 40"><defs><style>.cls-1{fill:#fe214f;}</style></defs><title>IoT Solutions Integration</title><g id="IoT_Solutions_Integration" data-name="IoT Solutions Integration"><path class="cls-1" d="M24.69326,14.33946a.72509.72509,0,0,1-.51415-.21293,8.3408,8.3408,0,0,0-11.78242,0,.72682.72682,0,0,1-1.028-1.02774,9.79607,9.79607,0,0,1,13.83846,0,.7268.7268,0,0,1-.51387,1.24067Z"/><path class="cls-1" d="M27.18,11.85272a.72436.72436,0,0,1-.51614-.21492l-.0088-.0088a.72673.72673,0,1,1,1.02348-1.032l.01732.017A.7268.7268,0,0,1,27.18,11.85272Z"/><path class="cls-1" d="M9.3958,11.85272a.7268.7268,0,0,1-.51387-1.24067,13.161,13.161,0,0,1,7.913-3.81259,13.3666,13.3666,0,0,1,8.42947,1.8647A.72682.72682,0,1,1,24.46557,9.904a11.80886,11.80886,0,0,0-14.5559,1.73581A.724.724,0,0,1,9.3958,11.85272Z"/><path class="cls-1" d="M18.28776,29.76212a9.75361,9.75361,0,0,1-6.91909-2.86149.72682.72682,0,0,1,1.028-1.02775,8.3408,8.3408,0,0,0,11.78242,0,.72682.72682,0,0,1,1.028,1.02775A9.75425,9.75425,0,0,1,18.28776,29.76212Z"/><path class="cls-1" d="M18.29656,33.28313a13.32962,13.32962,0,0,1-7.32934-2.192.72691.72691,0,0,1,.80119-1.21314,11.8829,11.8829,0,0,0,14.89772-1.51833.72672.72672,0,0,1,1.02774,1.02774,13.32285,13.32285,0,0,1-8.13165,3.83558C19.14061,33.263,18.71788,33.28313,18.29656,33.28313Z"/><path class="cls-1" d="M9.42107,29.62556a.72434.72434,0,0,1-.51075-.20981l-.03066-.03037a.72683.72683,0,1,1,1.03228-1.02349l.01959.01959a.7268.7268,0,0,1-.51046,1.24408Z"/><path class="cls-1" d="M18.27754,22.686a2.68619,2.68619,0,1,1,2.686-2.68632A2.6895,2.6895,0,0,1,18.27754,22.686Zm0-3.91876A1.23258,1.23258,0,1,0,19.51,19.99971,1.23394,1.23394,0,0,0,18.27754,18.76727Z"/><path class="cls-1" d="M4.562,27.11356a2.68908,2.68908,0,0,1-2.68633-2.686V15.57218a2.68619,2.68619,0,1,1,5.37237,0v8.85533A2.689,2.689,0,0,1,4.562,27.11356Zm0-12.7741a1.23419,1.23419,0,0,0-1.23273,1.23272v8.85533a1.23258,1.23258,0,0,0,2.46516,0V15.57218A1.23412,1.23412,0,0,0,4.562,14.33946Z"/><path class="cls-1" d="M33.58522,27.11356A2.36235,2.36235,0,0,1,31.22539,24.754V17.65719H30.4418a2.35955,2.35955,0,0,1,0-4.7191h6.28655a2.35955,2.35955,0,0,1,0,4.7191h-.78358V24.754A2.3623,2.3623,0,0,1,33.58522,27.11356ZM30.4418,14.3917a.90595.90595,0,0,0,0,1.81189h1.51039a.72675.72675,0,0,1,.7268.7268V24.754a.90609.90609,0,0,0,1.81218,0V16.93039a.72674.72674,0,0,1,.7268-.7268h1.51038a.90595.90595,0,1,0,0-1.81189Z"/><path class="cls-1" d="M18.27754,26.21272a6.213,6.213,0,1,1,6.213-6.213A6.22,6.22,0,0,1,18.27754,26.21272Zm0-10.97243A4.75942,4.75942,0,1,0,23.037,19.99971,4.76469,4.76469,0,0,0,18.27754,15.24029Z"/></g></svg>