<?xml version="1.0" encoding="utf-8"?>
<!-- Generator: Adobe Illustrator 18.1.1, SVG Export Plug-In . SVG Version: 6.00 Build 0)  -->
<svg version="1.1" id="Layer_1" xmlns="http://www.w3.org/2000/svg" xmlns:xlink="http://www.w3.org/1999/xlink" x="0px" y="0px"
	 viewBox="-285 377 40 40" enable-background="new -285 377 40 40" xml:space="preserve">
<title>Performance Ready</title>
<g id="Performance_Ready">
	<path fill="#FFFFFF" d="M-253.1,378.6v1.2h4.5l-9.3,9.3l-4.2-4.2l-8.5,8.5c-0.7-3.6-4.2-5.9-7.7-5.2c-3.6,0.7-5.9,4.2-5.2,7.7
		c0.7,3.6,4.2,5.9,7.7,5.2c3-0.6,5.2-3.1,5.3-6.2l8.3-8.3l4.2,4.2l10.1-10.1v4.5h1.2v-6.5L-253.1,378.6z M-276.9,400
		c-3,0-5.3-2.4-5.3-5.3c0-3,2.4-5.3,5.3-5.3c3,0,5.3,2.4,5.3,5.3C-271.6,397.6-274,400-276.9,400z"/>
	<path fill="#FFFFFF" d="M-276.3,392.8c0.3,0,0.6,0.3,0.6,0.6h1.2c0-1-0.8-1.8-1.8-1.8v-1.2h-1.2v1.2h-1.8v1.8c0,1,0.8,1.8,1.8,1.8
		h1.2c0.3,0,0.6,0.3,0.6,0.6v0.6h-1.8c-0.3,0-0.6-0.3-0.6-0.6h-1.2c0,1,0.8,1.8,1.8,1.8v1.2h1.2v-1.2h1.8v-1.8c0-1-0.8-1.8-1.8-1.8
		h-1.2c-0.3,0-0.6-0.3-0.6-0.6v-0.6H-276.3z"/>
	<path fill="#FFFFFF" d="M-247.8,386.9h-4.8v11.9h-2.4v-7.1h-4.8v7.1h-2.4v-5.9h-4.8v6.5c-7,1.9-11.9,8.2-11.9,15.5v0.6h32.1v-0.6
		c0-6.5-4-12.4-10-14.9h10v-1.2h-1.2V386.9z M-251.4,388.1h2.4v10.7h-2.4V388.1z M-258.5,392.8h2.4v5.9h-2.4V392.8z M-251.4,414.2
		h-7.2c-0.1-0.8-0.4-1.5-0.9-2.1l3.7-6.2C-253.1,407.9-251.5,411-251.4,414.2z M-262.6,403.5c1.3,0,2.6,0.2,3.8,0.7l-3.9,6.5
		c-2,0-3.8,1.5-4.1,3.6h-7.1C-273.6,408.2-268.6,403.5-262.6,403.5z M-263.2,402.4c-1.8,0.1-3.5,0.5-5.1,1.4l-1.2-2.1
		c2-1,4.1-1.6,6.3-1.7L-263.2,402.4L-263.2,402.4z M-256.4,403.6c0.3,0.2,0.4,0.5,0.2,0.8l-4.2,6.9c-0.3-0.2-0.7-0.4-1.1-0.5l4.2-7
		C-257,403.6-256.7,403.5-256.4,403.6z M-262.6,411.9c1.4,0,2.6,1,2.9,2.4h-5.8C-265.3,412.9-264.1,411.9-262.6,411.9z
		 M-256.2,402.4c-0.2-0.1-0.3-0.1-0.5-0.1c-0.6,0-1.2,0.3-1.5,0.8c-1.2-0.5-2.5-0.7-3.8-0.8V400c2.2,0.1,4.4,0.7,6.3,1.7
		L-256.2,402.4z M-265.6,394h2.4v4.8c-0.8,0-1.6,0.1-2.4,0.3V394z M-270.6,402.3l1.2,2.1c-1.5,1-2.8,2.2-3.7,3.7l-2.1-1.2
		C-274,405-272.4,403.5-270.6,402.3L-270.6,402.3z M-275.8,407.9l2.1,1.2c-0.8,1.6-1.3,3.3-1.4,5.1h-2.4
		C-277.4,412-276.8,409.9-275.8,407.9z M-250.2,414.2c-0.1-1.8-0.6-3.5-1.4-5.1l2.1-1.2c1,2,1.6,4.1,1.7,6.3L-250.2,414.2z
		 M-250.1,406.9l-2.1,1.2c-0.8-1.2-1.8-2.3-2.9-3.2c0.3-0.6,0.2-1.2-0.1-1.7l0.5-0.9C-252.8,403.5-251.3,405-250.1,406.9
		L-250.1,406.9z"/>
	<path fill="#FFFFFF" d="M-271.4,413.2c0.1-0.4,0.2-0.7,0.3-1.1l-1.1-0.4c-0.1,0.4-0.2,0.8-0.3,1.3L-271.4,413.2z"/>
	<path fill="#FFFFFF" d="M-262.6,405.9v-1.2c-3.9,0-7.4,2.2-9.1,5.7l1.1,0.5C-269.2,407.9-266.1,405.9-262.6,405.9z"/>
</g>
</svg>
