<?xml version="1.0" encoding="utf-8"?>
<!-- Generator: Adobe Illustrator 18.1.1, SVG Export Plug-In . SVG Version: 6.00 Build 0)  -->
<svg version="1.1" id="Layer_1" xmlns="http://www.w3.org/2000/svg" xmlns:xlink="http://www.w3.org/1999/xlink" x="0px" y="0px"
	 viewBox="-285 377 40 40" enable-background="new -285 377 40 40" xml:space="preserve">
<title>Safety Precautions</title>
<g id="Safety_Precautions">
	<path fill="#FFFFFF" d="M-246.6,404.3c0-0.3-0.3-0.6-0.6-0.6h-1.7v1.2h1.2l0.1,1.1c0,0.7-0.5,1.2-1.2,1.3c0,0,0,0,0,0
		c0,0,0,0-0.1,0v1.2c1.3,0,2.4-1.1,2.4-2.4c0,0,0-0.1,0-0.1L-246.6,404.3z"/>
	<path fill="#FFFFFF" d="M-281.6,406.2V405h10.3v-1.2h-7.9v-16.4c0-1,0.8-1.8,1.8-1.8v17h1.2v-20.6c0-1,0.8-1.8,1.8-1.8h19.4
		c1,0,1.8,0.8,1.8,1.8v10.9h1.2v-7.3c1,0,1.8,0.8,1.8,1.8v9.1h1.2v-9.1c0-1.7-1.4-3-3-3v-2.4c0-1.7-1.4-3-3-3h-19.4
		c-1.7,0-3,1.4-3,3v2.4c-1.7,0-3,1.4-3,3v16.4h-1.8c-0.3,0-0.6,0.3-0.6,0.6v1.8c0,1.3,1.1,2.4,2.4,2.4h10.9v-1.2h-10.9
		C-281.1,407.4-281.6,406.8-281.6,406.2z"/>
	<path fill="#FFFFFF" d="M-259.8,394.1c-4.4,0-7.9,3.5-7.9,7.9c0,4.4,3.5,7.9,7.9,7.9c4.1,0,7.5-3.2,7.9-7.3h0v-0.6
		C-251.9,397.6-255.5,394.1-259.8,394.1z M-259.8,408.6c-3.7,0-6.7-3-6.7-6.7c0-3.7,3-6.7,6.7-6.7c3.7,0,6.7,3,6.7,6.7l0,0
		C-253.1,405.6-256.1,408.6-259.8,408.6C-259.8,408.6-259.8,408.6-259.8,408.6z"/>
	<path fill="#FFFFFF" d="M-275,381.3h1.2v1.2h-1.2V381.3z"/>
	<path fill="#FFFFFF" d="M-272.5,381.3h1.2v1.2h-1.2V381.3z"/>
	<path fill="#FFFFFF" d="M-270.1,381.3h1.2v1.2h-1.2V381.3z"/>
	<path fill="#FFFFFF" d="M-275,383.7h20.6v1.2H-275V383.7z"/>
	<path fill="#FFFFFF" d="M-251.1,407.4c3-4.8,1.5-11.2-3.3-14.2c-4.8-3-11.2-1.5-14.2,3.3c-3,4.8-1.5,11.2,3.3,14.2
		c3.3,2.1,7.6,2.1,10.9,0l3.9,3.9c0.9,0.9,2.4,0.9,3.3,0c0.9-0.9,0.9-2.4,0-3.3L-251.1,407.4z M-259.8,411c-5,0-9.1-4.1-9.1-9.1
		c0-5,4.1-9.1,9.1-9.1c5,0,9.1,4.1,9.1,9.1l0,0C-250.7,407-254.8,411-259.8,411L-259.8,411z M-248.8,414.1c-0.3,0-0.6-0.1-0.8-0.3
		l-3.8-3.8c0.6-0.5,1.1-1,1.6-1.6l3.8,3.8c0.4,0.4,0.4,1.1,0,1.6C-248.2,413.9-248.5,414.1-248.8,414.1L-248.8,414.1z"/>
	<path fill="#FFFFFF" d="M-256.8,401.3v-0.6c0-1.7-1.4-3-3-3c-1.1,0-2.1,0.6-2.6,1.5l1,0.6c0.5-0.9,1.6-1.2,2.5-0.7
		c0.6,0.3,0.9,0.9,0.9,1.6v0.6h-4.8c-0.3,0-0.6,0.3-0.6,0.6v3.6c0,0.3,0.3,0.6,0.6,0.6h6.1c0.3,0,0.6-0.3,0.6-0.6v-3.6
		C-256.2,401.6-256.4,401.3-256.8,401.3L-256.8,401.3z M-257.4,405h-4.8v-2.4h4.8V405z"/>
	<path fill="#FFFFFF" d="M-271.3,389.8v-1.2c0-1-0.8-1.8-1.8-1.8c-1,0-1.8,0.8-1.8,1.8v1.2c0,1,0.8,1.8,1.8,1.8
		C-272.1,391.6-271.3,390.8-271.3,389.8C-271.3,389.8-271.3,389.8-271.3,389.8z M-273.7,389.8v-1.2c0-0.3,0.3-0.6,0.6-0.6
		c0.3,0,0.6,0.3,0.6,0.6v1.2c0,0.3-0.3,0.6-0.6,0.6C-273.5,390.4-273.7,390.1-273.7,389.8L-273.7,389.8z"/>
	<path fill="#FFFFFF" d="M-267.7,388.6v1.2c0,1,0.8,1.8,1.8,1.8c1,0,1.8-0.8,1.8-1.8v-1.2c0-1-0.8-1.8-1.8-1.8
		C-266.9,386.8-267.7,387.6-267.7,388.6z M-265.3,388.6v1.2c0,0.3-0.3,0.6-0.6,0.6c-0.3,0-0.6-0.3-0.6-0.6v-1.2
		c0-0.3,0.3-0.6,0.6-0.6C-265.5,388-265.3,388.3-265.3,388.6z"/>
	<path fill="#FFFFFF" d="M-258.1,390.1l1,0.6c0.2-0.3,0.2-0.6,0.2-0.9v-1.2c0-1-0.8-1.8-1.8-1.8c-1,0-1.8,0.8-1.8,1.8v1.2
		c0,0.3,0.1,0.6,0.2,0.9l1-0.6c-0.1-0.1-0.1-0.2-0.1-0.3v-1.2c0-0.3,0.3-0.6,0.6-0.6c0.3,0,0.6,0.3,0.6,0.6v1.2
		C-258,389.9-258,390-258.1,390.1z"/>
	<path fill="#FFFFFF" d="M-270.1,387.4h1.2v3.6h-1.2V387.4z"/>
	<path fill="#FFFFFF" d="M-262.8,387.4h1.2v3.6h-1.2V387.4z"/>
	<path fill="#FFFFFF" d="M-274.3,392.8h1.2v3.6h-1.2V392.8z"/>
	<path fill="#FFFFFF" d="M-271.9,392.8h1.2v3.6h-1.2V392.8z"/>
	<path fill="#FFFFFF" d="M-275,400.7c0,1,0.8,1.8,1.8,1.8c1,0,1.8-0.8,1.8-1.8c0,0,0,0,0,0v-1.2c0-1-0.8-1.8-1.8-1.8
		c-1,0-1.8,0.8-1.8,1.8V400.7z M-273.7,399.5c0-0.3,0.3-0.6,0.6-0.6c0.3,0,0.6,0.3,0.6,0.6v1.2c0,0.3-0.3,0.6-0.6,0.6
		c-0.3,0-0.6-0.3-0.6-0.6l0,0V399.5z"/>
	<path fill="#FFFFFF" d="M-255.6,387.4h1.2v3.6h-1.2V387.4z"/>
</g>
</svg>
