<?xml version="1.0" encoding="utf-8"?>
<!-- Generator: Adobe Illustrator 18.1.1, SVG Export Plug-In . SVG Version: 6.00 Build 0)  -->
<svg version="1.1" id="Layer_1" xmlns="http://www.w3.org/2000/svg" xmlns:xlink="http://www.w3.org/1999/xlink" x="0px" y="0px"
	 viewBox="-285 377 40 40" enable-background="new -285 377 40 40" xml:space="preserve">
<title>Service Quality &amp;amp; User-Centricity</title>
<g id="Service_Quality_User-Centricity">
	<path fill="#FFFFFF" d="M-245.7,393.8h-1.4l-2,1.1c-0.2-0.1-0.5-0.2-0.7-0.3l-2.6-0.6v-0.3c1.1-0.8,1.8-2.1,1.8-3.5v-1.1
		c0-2.3-1.8-4.3-4.1-4.4c-0.1,0-0.2,0-0.3,0l0.7-1.6l-3.2-3.2l-1.9,1.2c-0.7-0.4-1.5-0.7-2.3-0.9l-0.5-2.2h-4.6l-0.5,2.2
		c-0.8,0.2-1.6,0.5-2.3,0.9l-1.9-1.2l-3.2,3.2l0.7,1.6c0,0,0,0-0.1,0c-2.4-0.1-4.3,1.8-4.4,4.1c0,0,0,0.1,0,0.1v1.2
		c0,1.4,0.7,2.7,1.8,3.5v0.3l-1.7,0.4l-3-1.8h-2v12.6l6,2h1.2l0.1-0.5l1.8,1.1c0,1,0.8,1.8,1.8,1.8c0,1,0.8,1.8,1.8,1.8
		c0,1,0.8,1.8,1.8,1.8c0,1,0.9,1.9,2,1.8c0.4,0,0.7-0.1,1-0.3l0.5,0.5c0.3,0.3,0.8,0.5,1.2,0.5h0.1c1,0,1.8-0.8,1.9-1.8
		c1,0,1.8-0.8,1.8-1.8c1,0,1.8-0.8,1.8-1.8c1,0,1.8-0.9,1.8-1.9c0-0.1,0-0.1,0-0.2l11-5.5L-245.7,393.8z M-251.8,389.1v1.1
		c0,1.1-0.6,2.1-1.5,2.6l-0.3,0.2l0,1.9l3,0.8l-6.7,3.5v-1.6c0-0.8-0.3-1.6-0.9-2.1l2.1-0.5V393l-0.3-0.2c-0.9-0.5-1.5-1.5-1.5-2.6
		v-1.2c0-1.7,1.4-3,3-3c0,0,0.1,0,0.1,0C-253.1,386-251.8,387.4-251.8,389.1z M-263.7,398.7l-2.8-0.9c-1.3-0.4-2.6-0.5-3.9-0.2
		l-0.3,0.1v-0.2c0-0.8,0.6-1.6,1.4-1.8l3.5-0.9V393l-0.3-0.2c-0.9-0.5-1.5-1.5-1.5-2.6v-1.2c0-1.7,1.4-3,3-3c0,0,0.1,0,0.1,0
		c1.7,0.1,3,1.5,2.9,3.2v1.1c0,1.1-0.6,2.1-1.5,2.6l-0.3,0.2l0,1.9l3.5,0.9c0.8,0.2,1.4,0.9,1.4,1.8v2.3l-0.2,0.1h-0.4l-3.7-1.1
		C-263.1,398.7-263.4,398.7-263.7,398.7z M-270.6,387.1c1.7-3.3,5.7-4.6,9-2.9c1.2,0.6,2.2,1.6,2.9,2.8c-0.3,0.6-0.4,1.2-0.4,1.9
		v1.2c0,1.4,0.7,2.7,1.8,3.5v0.3l-2.4,0.6l-2.4-0.6v-0.3c1.1-0.8,1.8-2.1,1.8-3.5v-1.1c0-2.3-1.8-4.3-4.1-4.4
		c-2.4-0.1-4.3,1.8-4.4,4.1c0,0,0,0.1,0,0.1v1.2c0,1.4,0.7,2.7,1.8,3.5v0.3l-2.4,0.6l-2.4-0.6v-0.3c1.1-0.8,1.8-2.1,1.8-3.5v-1.1
		C-270.1,388.4-270.2,387.7-270.6,387.1z M-273.4,383.4l1.9-1.9l1.7,1.1l0.3-0.2c0.8-0.5,1.7-0.9,2.6-1.1l0.4-0.1l0.4-2h2.7l0.4,2
		l0.4,0.1c0.9,0.2,1.8,0.6,2.6,1.1l0.3,0.2l1.7-1.1l1.9,1.9l-0.7,1.6c-0.5,0.2-0.9,0.5-1.3,0.9c0,0,0,0.1-0.1,0.1
		c-2.3-3.7-7.2-4.8-10.9-2.5c-1,0.6-1.9,1.5-2.5,2.5c-0.4-0.4-0.8-0.7-1.3-1L-273.4,383.4z M-275.6,394.9V393l-0.3-0.2
		c-0.9-0.5-1.5-1.5-1.5-2.6v-1.2c0-1.7,1.4-3,3-3c0,0,0.1,0,0.1,0c1.7,0.1,3,1.5,2.9,3.2v1.1c0,1.1-0.6,2.1-1.5,2.6l-0.3,0.2l0,1.9
		l2.1,0.5c-0.6,0.6-0.9,1.3-0.9,2.1v0.5l-1.9,0.4l0-0.2l0-1.1l-3.2-1.9L-275.6,394.9z M-282.3,393.8h0.4l4.4,2.6l-2.2,8.8l-2.6-0.9
		L-282.3,393.8z M-277.3,406l-1.2-0.4l2.1-8.6l1.4,0.8v0.2L-277.3,406L-277.3,406z M-273.1,407.7c0-0.2,0.1-0.4,0.2-0.5l1.1-1.1
		c0.3-0.3,0.7-0.3,1,0c0.3,0.3,0.3,0.7,0,1l-1.1,1.1c-0.3,0.3-0.7,0.3-1,0C-273.1,408.1-273.1,407.9-273.1,407.7z M-271.3,409.6
		c0-0.2,0.1-0.4,0.2-0.5l1.1-1.1c0.3-0.3,0.7-0.3,1,0c0.3,0.3,0.3,0.7,0,1l-1.1,1.1c-0.3,0.3-0.7,0.3-1,0
		C-271.2,409.9-271.3,409.7-271.3,409.6z M-269.5,411.4c0-0.2,0.1-0.4,0.2-0.5l1.1-1.1c0.3-0.3,0.7-0.3,1,0c0.3,0.3,0.3,0.7,0,1
		l-1.1,1.1c-0.3,0.3-0.7,0.3-1,0C-269.4,411.7-269.5,411.6-269.5,411.4z M-267,413.9c-0.4,0-0.7-0.3-0.7-0.7c0-0.2,0.1-0.4,0.2-0.5
		l1.1-1.1c0.3-0.3,0.7-0.3,1,0c0.3,0.3,0.3,0.7,0,1l-1.1,1.1C-266.6,413.8-266.8,413.9-267,413.9z M-264,414.5h-0.1
		c-0.2,0-0.3-0.1-0.4-0.2l-0.5-0.4l0.5-0.5c0.2-0.2,0.3-0.4,0.4-0.6l0.6,0.5c0.3,0.2,0.3,0.6,0.1,0.9
		C-263.7,414.4-263.8,414.5-264,414.5L-264,414.5z M-258.6,409h-0.1c-0.2,0-0.3-0.1-0.4-0.2l-3.3-2.8l-0.8,0.9l3.2,2.7
		c0.3,0.2,0.3,0.6,0.1,0.9c-0.1,0.1-0.3,0.2-0.5,0.2h-0.1c-0.1,0-0.3-0.1-0.4-0.1l-3.3-2.8l-0.8,0.9l3.2,2.7
		c0.3,0.2,0.3,0.6,0.1,0.9c-0.1,0.1-0.3,0.2-0.5,0.2c-0.2,0-0.5-0.1-0.6-0.2l-1.4-1.1c-0.3-0.6-0.9-1-1.6-1.1c0-1-0.8-1.8-1.8-1.8
		c0-1-0.8-1.8-1.8-1.8c0-1-0.9-1.9-2-1.8c-0.5,0-0.9,0.2-1.3,0.6l-1.1,1.1c-0.1,0.1-0.1,0.1-0.2,0.2l-1.9-1.1l1.6-5.7l4.1-0.9
		c1.1-0.2,2.2-0.2,3.3,0.1l0.9,0.3l-3,1.5c-0.7,0.3-1.1,1.1-1.1,1.8v0.1c0,1.1,0.9,2,2,2c0.4,0,0.7-0.1,1.1-0.3l2.3-1.4
		c0.5-0.3,1.1-0.2,1.5,0.1l5.1,4.6c0.3,0.2,0.3,0.7,0,0.9C-258.2,408.9-258.4,409-258.6,409L-258.6,409z M-246.9,401.9l-10.3,5.1
		c0,0-0.1-0.1-0.1-0.1l-5.1-4.6c-0.8-0.7-2-0.8-2.9-0.3l-2.3,1.4c-0.4,0.2-0.9,0.1-1.1-0.3c-0.1-0.1-0.1-0.3-0.1-0.4v-0.1
		c0-0.3,0.2-0.6,0.5-0.7l3.4-1.7c0.6-0.3,1.3-0.4,1.9-0.2l3.8,1.1l0.9,0l11.4-6L-246.9,401.9z"/>
</g>
</svg>
