<svg id="Service_Support" data-name="Service Support" xmlns="http://www.w3.org/2000/svg" width="40" height="40" viewBox="0 0 40 40"><defs><style>.cls-1{fill:#fe214f;}</style></defs><title>Service Support</title><path class="cls-1" d="M35.29942,27.70046,25.94768,30.9816a1.25531,1.25531,0,0,1-.42581.07044h-.14568a2.59888,2.59888,0,0,0-.23827-1.97963l-.0478-.08657a3.1301,3.1301,0,0,0-2.69925-1.58521H19.749a3.891,3.891,0,0,1-2.48606-.92055,5.12,5.12,0,0,0-3.2701-1.19588h-.30993A9.19648,9.19648,0,0,0,8.37079,27.038a1.222,1.222,0,0,0-1.00655-.53087H2.47216a1.22445,1.22445,0,0,0-1.223,1.223v8.56118a1.22444,1.22444,0,0,0,1.223,1.223H7.36423a1.21584,1.21584,0,0,0,.94-.45017A6.13676,6.13676,0,0,0,12.07708,38.126H25.35884a4.07834,4.07834,0,0,0,2.17312-.63628l9.46761-6.06759a2.08083,2.08083,0,0,0,.90056-1.35353,2.14746,2.14746,0,0,0-.35293-1.64226A1.98062,1.98062,0,0,0,35.29942,27.70046ZM7.36416,36.29138h-4.892V27.73027H7.36423v8.56111Zm29.335-6.45363a.84118.84118,0,0,1-.36188.55594l-9.461,6.06337a2.85159,2.85159,0,0,1-1.51741.4458H12.07708c-2.33793,0-3.248-.91934-3.48988-1.2317V28.57645c1.49355-2.03668,5.05983-2.06921,5.09566-2.06921h.30993a3.89453,3.89453,0,0,1,2.48606.9116,5.11469,5.11469,0,0,0,3.2701,1.20483h2.64192a1.87364,1.87364,0,0,1,1.6315.95875l.0478.08657a1.364,1.364,0,0,1-.03074,1.38305h-3.01a5.00086,5.00086,0,0,0-2.87059.916l-.36668.25741a.61131.61131,0,1,0,.70227,1.00081l.36547-.25619a3.78227,3.78227,0,0,1,2.16953-.69511H25.522a2.4751,2.4751,0,0,0,.83843-.1421l9.33805-3.27634a.74719.74719,0,0,1,.854.28127A.91492.91492,0,0,1,36.69917,29.83775Z"/><path class="cls-1" d="M4.30668,34.45686a.64456.64456,0,0,0,.43419-.17736.70676.70676,0,0,0,.12842-.20187.61223.61223,0,0,0,.04894-.23232.61153.61153,0,0,0-1.04567-.4342.61156.61156,0,0,0,.43412,1.04575Z"/><path class="cls-1" d="M26.93237,8.77362A1.83452,1.83452,0,1,0,25.09786,6.9391,1.83457,1.83457,0,0,0,26.93237,8.77362Zm0-2.446a.61148.61148,0,1,1-.61148.61148A.61144.61144,0,0,1,26.93237,6.32762Z"/><path class="cls-1" d="M24.48637,19.78072h4.89207a.61142.61142,0,0,0,.61156-.61155v-2.446a.61142.61142,0,0,0-.61156-.61155H28.767V10.60813a.61142.61142,0,0,0-.61155-.61155h-3.669a.61142.61142,0,0,0-.61155.61155v2.446a.61142.61142,0,0,0,.61155.61156h.61149v2.446h-.61149a.61142.61142,0,0,0-.61155.61155v2.446a.6113.6113,0,0,0,.61155.61148Zm.61149-2.446h.61148a.61142.61142,0,0,0,.61155-.61155v-3.669a.61142.61142,0,0,0-.61155-.61155h-.61148v-1.223h2.446V16.7231a.61142.61142,0,0,0,.61156.61155h.61148v1.223h-3.669v-1.223Z"/><path class="cls-1" d="M20.20578,21.15123v3.52156a.61148.61148,0,0,0,.99129.4792l2.68965-2.13041a11.02256,11.02256,0,1,0-3.68094-1.87035ZM18.22945,7.9961a9.7737,9.7737,0,1,1,5.717,13.76482.615.615,0,0,0-.56791.10277l-1.94975,1.54457V20.84488a.61093.61093,0,0,0-.2526-.495A9.7794,9.7794,0,0,1,18.22945,7.9961Z"/></svg>