<svg id="Systems_Analysis" data-name="Systems Analysis" xmlns="http://www.w3.org/2000/svg" width="40" height="40" viewBox="0 0 40 40"><defs><style>.cls-1{fill:#fe214f;}</style></defs><title>Systems Analysis</title><g id="Page-1"><path id="Shape" class="cls-1" d="M36.85274,1.24016H3.14726A1.935,1.935,0,0,0,1.27473,3.22629V30.46281a1.93494,1.93494,0,0,0,1.87253,1.98613H13.99668l-1.24835,2.4967h-2.111a1.87253,1.87253,0,0,0,0,3.74506H29.36263a1.87253,1.87253,0,0,0,0-3.74506h-2.111l-1.24835-2.4967H36.85274a1.935,1.935,0,0,0,1.87253-1.98613V3.22629A1.935,1.935,0,0,0,36.85274,1.24016ZM2.52308,3.22629a.69722.69722,0,0,1,.62418-.73778H27.49011v24.967H2.52308ZM26.86593,36.194h2.4967a.62418.62418,0,1,1,0,1.24835H10.63737a.62418.62418,0,1,1,0-1.24835ZM14.144,34.94564l1.24835-2.4967h9.21532l1.24835,2.4967Zm23.33293-4.48283a.69722.69722,0,0,1-.62418.73778H3.14726a.69722.69722,0,0,1-.62418-.73778V28.70389H37.47692Zm0-3.00727H28.73846V2.48851h8.11428a.69722.69722,0,0,1,.62418.73778Z"/><path class="cls-1" d="M15.0066,26.20718A11.21956,11.21956,0,0,0,24.63388,9.20027,1.86129,1.86129,0,0,0,22.2901,6.43705a11.22892,11.22892,0,1,0-7.2835,19.77013Zm8.08245-11.85933a8.11429,8.11429,0,0,0-7.45828-7.45827V5.01705A9.89877,9.89877,0,0,1,21.42,7.33649a1.84885,1.84885,0,0,0-.17165.7696,1.87253,1.87253,0,0,0,1.87253,1.87253,1.84416,1.84416,0,0,0,.48311-.07116,9.8995,9.8995,0,0,1,1.36694,4.44039Zm-13.7,4.9934a.62418.62418,0,1,1-.62418.62418A.62418.62418,0,0,1,9.389,19.34125Zm0-1.24835a1.86015,1.86015,0,0,0-.45128.06242,6.81414,6.81414,0,0,1,.03183-6.45522L10.54062,12.75a4.99341,4.99341,0,1,0,5.09015-2.72827V8.13793a6.86593,6.86593,0,0,1-.62417,13.7,6.78854,6.78854,0,0,1-3.87613-1.19655A1.86192,1.86192,0,0,0,9.389,18.0929Zm2.4967-5.195a3.7603,3.7603,0,1,1,0-.00125Zm2.4967-2.88a4.99781,4.99781,0,0,0-3.154,1.6884L9.6699,10.66521a6.85908,6.85908,0,0,1,4.71252-2.52042Zm9.36263-1.91185a.62418.62418,0,1,1-.62417-.62417A.62417.62417,0,0,1,23.74505,8.10609ZM6.69944,9.43247a9.97121,9.97121,0,0,1,7.683-4.4279V6.89644A8.10367,8.10367,0,0,0,7.88413,18.86126a1.86129,1.86129,0,0,0,2.42617,2.727A8.10429,8.10429,0,0,0,23.08905,15.5962h1.87252A9.9806,9.9806,0,1,1,6.69944,9.43247Z"/><path class="cls-1" d="M31.85934,13.72367H34.356a1.87252,1.87252,0,0,0,1.87252-1.87252V5.60939A1.87252,1.87252,0,0,0,34.356,3.73687h-2.4967a1.87252,1.87252,0,0,0-1.87253,1.87252v6.24176A1.87252,1.87252,0,0,0,31.85934,13.72367Zm3.12087-3.74505h-3.745V7.48192h3.745Zm-.62417,2.4967h-2.4967a.62417.62417,0,0,1-.62418-.62417V11.227h3.745v.62418A.62417.62417,0,0,1,34.356,12.47532Zm-2.4967-7.4901H34.356a.62417.62417,0,0,1,.62417.62417v.62418h-3.745V5.60939A.62417.62417,0,0,1,31.85934,4.98522Z"/><path class="cls-1" d="M30.611,16.22038h.62418a.62418.62418,0,0,0,0-1.24836H30.611a.62418.62418,0,0,0,0,1.24836Z"/><path class="cls-1" d="M35.60439,14.972H33.73186a.62418.62418,0,0,0,0,1.24836h1.87253a.62418.62418,0,0,0,0-1.24836Z"/><path class="cls-1" d="M30.611,18.0929h.62418a.62418.62418,0,1,0,0-1.24835H30.611a.62418.62418,0,0,0,0,1.24835Z"/><path class="cls-1" d="M35.60439,16.84455H33.73186a.62418.62418,0,0,0,0,1.24835h1.87253a.62418.62418,0,0,0,0-1.24835Z"/><path class="cls-1" d="M30.611,19.96543h.62418a.62418.62418,0,1,0,0-1.24835H30.611a.62418.62418,0,0,0,0,1.24835Z"/><path class="cls-1" d="M35.60439,18.71708H33.73186a.62418.62418,0,0,0,0,1.24835h1.87253a.62418.62418,0,0,0,0-1.24835Z"/><path class="cls-1" d="M30.611,26.20718h4.99341a.62417.62417,0,0,0,.62417-.62417V21.838a.62418.62418,0,1,0-1.24835,0v3.12087H33.73186V23.08631a.62418.62418,0,1,0-1.24835,0v1.87252H31.23516v-.62417a.62418.62418,0,1,0-1.24835,0V25.583A.62417.62417,0,0,0,30.611,26.20718Z"/></g></svg>