<svg xmlns="http://www.w3.org/2000/svg" width="40" height="40" viewBox="0 0 40 40"><defs><style>.cls-1{fill:#fe214f;}</style></defs><title>Vehicle Tracking Systems</title><g id="Vehicle_Tracking_Systems" data-name="Vehicle Tracking Systems"><path class="cls-1" d="M7.62519,29.08313a1.76055,1.76055,0,1,0,1.76055,1.76055A1.76056,1.76056,0,0,0,7.62519,29.08313Zm0,2.3474a.58685.58685,0,1,1,.58685-.58685A.58685.58685,0,0,1,7.62519,31.43053Z"/><path class="cls-1" d="M31.68607,29.08313a1.76055,1.76055,0,1,0,1.76055,1.76055A1.76055,1.76055,0,0,0,31.68607,29.08313Zm0,2.3474a.58685.58685,0,1,1,.58685-.58685A.58685.58685,0,0,1,31.68607,31.43053Z"/><path class="cls-1" d="M9.38574,24.97518H11.1463a.58686.58686,0,0,0,0-1.17371H9.38574a.58686.58686,0,0,0,0,1.17371Z"/><path class="cls-1" d="M36.96772,7.95651h-4.9178a7.043,7.043,0,0,0-13.63841,0H13.4937a.58685.58685,0,0,0-.58685.58685v6.45535H6.45149a.58928.58928,0,0,0-.48855.26115l-1.1715,1.75762L4.7907,17.019,1.26813,22.30207a.59179.59179,0,0,0-.0983.3257v8.21591a.58685.58685,0,0,0,.58685.58685H4.154a3.52037,3.52037,0,0,0,6.94244,0H28.21485a3.52037,3.52037,0,0,0,6.94244,0h1.81043a.58686.58686,0,0,0,.58686-.58685V8.54336A.58686.58686,0,0,0,36.96772,7.95651ZM5.59175,17.933h4.96769v4.10795H2.85336ZM2.34354,25.562h1.1737a.58685.58685,0,1,1,0,1.1737H2.34354Zm5.28165,7.62906a2.34741,2.34741,0,1,1,2.3474-2.34741A2.34741,2.34741,0,0,1,7.62519,33.19109Zm5.28166-2.93426H11.09641a3.52037,3.52037,0,0,0-6.94244,0H2.34354v-2.3474h1.1737a1.76055,1.76055,0,1,0,0-3.5211H2.34354V23.21462H11.1463a.58685.58685,0,0,0,.58685-.58685V17.34612a.58685.58685,0,0,0-.58685-.58685H6.37447l.391-.58685h6.14139ZM25.23071,3.84855a5.87533,5.87533,0,0,1,5.86851,5.86851c0,2.53666-3.89082,7.81612-5.86851,10.23321C23.253,17.53391,19.3622,12.25519,19.3622,9.71706A5.87533,5.87533,0,0,1,25.23071,3.84855Zm6.45536,29.34254a2.34741,2.34741,0,1,1,2.3474-2.34741A2.3474,2.3474,0,0,1,31.68607,33.19109Zm4.6948-2.93426H35.15729a3.52037,3.52037,0,0,0-6.94244,0H14.08055V25.562H36.38087Zm0-5.8685H14.08055V9.13021h4.13289c-.01613.19366-.02494.38952-.02494.58685,0,1.5999,1.12089,4.03753,3.33111,7.24467C23.132,19.3018,24.7671,21.22814,24.784,21.24721a.58586.58586,0,0,0,.89348,0c.01687-.01908,1.652-1.94541,3.26436-4.28548,2.21022-3.20714,3.33111-5.64477,3.33111-7.24467,0-.19733-.0088-.39319-.02494-.58685h4.13289Z"/><path class="cls-1" d="M25.23071,10.89076a2.34741,2.34741,0,1,0-2.3474-2.3474A2.3474,2.3474,0,0,0,25.23071,10.89076Zm0-3.5211a1.1737,1.1737,0,1,1-1.1737,1.1737A1.1737,1.1737,0,0,1,25.23071,7.36966Z"/></g></svg>