<svg id="Wireframing_Designing" data-name="Wireframing  Designing" xmlns="http://www.w3.org/2000/svg" width="40" height="40" viewBox="0 0 40 40"><defs><style>.cls-1{fill:#fe214f;}</style></defs><title>Wireframing  Designing</title><g id="Page-1"><path id="Shape" class="cls-1" d="M36.85537,1.22466H19.43266a1.86672,1.86672,0,0,0-1.86672,1.86672V8.69154H3.87666a2.489,2.489,0,0,0-2.489,2.489V29.8477a2.489,2.489,0,0,0,2.489,2.489h8.791l-1.1306,2.54371a1.86672,1.86672,0,0,0,.42872,3.67869h9.95584a1.86672,1.86672,0,0,0,.42872-3.67869l-1.13061-2.54371h8.791a2.489,2.489,0,0,0,2.489-2.489V25.492h4.35568a1.86672,1.86672,0,0,0,1.86672-1.86672V3.09138A1.86672,1.86672,0,0,0,36.85537,1.22466ZM19.43266,2.46914H36.85537a.62224.62224,0,0,1,.62224.62224v3.1112H18.81042V3.09138A.62224.62224,0,0,1,19.43266,2.46914Zm2.489,34.84544H11.96578a.62224.62224,0,0,1,0-1.24448h9.95584a.62224.62224,0,1,1,0,1.24448Zm-.95763-2.489H12.92341l1.10572-2.489h5.82914Zm9.04674-3.73344H17.56594v-.62224a.62224.62224,0,0,0-1.24448,0v.62224H3.87666A1.24448,1.24448,0,0,1,2.63218,29.8477V27.981h28.623V29.8477A1.24448,1.24448,0,0,1,30.01073,31.09218Zm1.24448-4.35568H2.63218V11.1805A1.24448,1.24448,0,0,1,3.87666,9.936H17.56594V23.6253A1.86672,1.86672,0,0,0,19.43266,25.492H31.25521Zm5.60016-2.489H19.43266a.62224.62224,0,0,1-.62224-.62224V7.44706H37.47761V23.6253A.62224.62224,0,0,1,36.85537,24.24754Z"/><circle id="Oval" class="cls-1" cx="20.67714" cy="4.33586" r="0.62224"/><circle class="cls-1" cx="23.1661" cy="4.33586" r="0.62224"/><circle class="cls-1" cx="25.65506" cy="4.33586" r="0.62224"/><path class="cls-1" d="M36.2014,9.11715c0-.00809-.00934-.01369-.01245-.02115a.60385.60385,0,0,0-.06222-.11387.6378.6378,0,0,0-.06222-.09272.69439.69439,0,0,0-.089-.06907.66373.66373,0,0,0-.1033-.06906.65205.65205,0,0,0-.09956-.028.59508.59508,0,0,0-.13564-.02676c-.00809,0-.01494-.005-.023-.005H20.67714c-.00809,0-.01494.00436-.023.005a.59508.59508,0,0,0-.13564.02676.65205.65205,0,0,0-.09956.028.66316.66316,0,0,0-.10329.06906.69379.69379,0,0,0-.089.06907.63861.63861,0,0,0-.06222.09272.60385.60385,0,0,0-.06222.11387c-.00311.00746-.00934.01306-.01245.02115a.6696.6696,0,0,0-.01244.09956.63675.63675,0,0,0-.0224.09707V14.2917a.63637.63637,0,0,0,.01929.09707.6696.6696,0,0,0,.01244.09956c.00311.00933.00933.01618.01307.02489a.54406.54406,0,0,0,.03422.06222.60366.60366,0,0,0,.08338.12445.5418.5418,0,0,0,.05414.05289.60493.60493,0,0,0,.12444.08338.61276.61276,0,0,0,.06223.03173.62212.62212,0,0,0,.219.04605H35.61089a.6221.6221,0,0,0,.21841-.04418.61361.61361,0,0,0,.06222-.03173.60473.60473,0,0,0,.12445-.08338.54506.54506,0,0,0,.05414-.05289.60393.60393,0,0,0,.08338-.12445.5442.5442,0,0,0,.03422-.06223c.00373-.00871.01-.01555.01307-.02489a.66931.66931,0,0,0,.01244-.09955.63771.63771,0,0,0,.01991-.09894V9.31378a.63637.63637,0,0,0-.01929-.09707A.6696.6696,0,0,0,36.2014,9.11715Zm-14.902,1.05968,4.87774,1.62591-4.87774,1.62591ZM24.51076,9.936h7.26651L28.144,11.1469ZM28.144,12.45858l3.63326,1.21088H24.51076Zm1.9669-.65584,4.87774-1.62591v3.25182Z"/><path class="cls-1" d="M20.67714,17.4029h6.84464a.62224.62224,0,0,0,0-1.24448H20.67714a.62224.62224,0,1,0,0,1.24448Z"/><path class="cls-1" d="M35.61089,16.15842H30.01073a.62224.62224,0,0,0,0,1.24448h5.60016a.62224.62224,0,0,0,0-1.24448Z"/><path class="cls-1" d="M35.61089,18.64738H20.67714a.62224.62224,0,1,0,0,1.24448H35.61089a.62224.62224,0,0,0,0-1.24448Z"/><path class="cls-1" d="M25.03282,21.13634H20.67714a.62224.62224,0,1,0,0,1.24448h4.35568a.62224.62224,0,0,0,0-1.24448Z"/><path class="cls-1" d="M35.61089,21.13634H28.144a.62224.62224,0,0,0,0,1.24448h7.46688a.62224.62224,0,0,0,0-1.24448Z"/><path class="cls-1" d="M10.7213,11.1805H5.12114a.62224.62224,0,1,0,0,1.24448H10.7213a.62224.62224,0,1,0,0-1.24448Z"/><path class="cls-1" d="M14.45474,11.1805H13.21026a.62224.62224,0,1,0,0,1.24448h1.24448a.62224.62224,0,0,0,0-1.24448Z"/></g></svg>