<?xml version="1.0" encoding="utf-8"?>
<!-- Generator: Adobe Illustrator 18.1.1, SVG Export Plug-In . SVG Version: 6.00 Build 0)  -->
<svg version="1.1" id="Layer_1" xmlns="http://www.w3.org/2000/svg" xmlns:xlink="http://www.w3.org/1999/xlink" x="0px" y="0px"
	 viewBox="0 0 612 792" enable-background="new 0 0 612 792" xml:space="preserve">
<path fill="#F2F4FA" d="M601,162.8c0-37.3-25.1-62.4-62.4-62.4c-156.1,0-311.5,0-467.6,0c-36.7,0-62.4,25.1-62.4,62.4
	c0,56.9,0,114.4,0,171.4c0,36.7,25.1,62.4,62.4,62.4c42.8,0,85.1,0,127.9,0c2.4,0,4.3,0,7.3,0c0,12.9,0,24.5,0,36.7
	c0,9.8,3.1,17.1,12.2,20.8c9.2,3.7,16.5,0.6,23.3-6.1c15.3-15.9,31.2-31.2,47.1-47.1c3.1-3.7,6.7-4.3,11-4.3c79.6,0,159.1,0,238.7,0
	c37.3,0,62.4-25.1,62.4-62.4C601,276.7,601,219.7,601,162.8z M225.8,317.7c0,11-9.2,19.6-19.6,19.6c-11,0-19.6-8.6-19.6-19.6
	c0-15.9,0-32.4,0-49c-13.5,0-26.3,0-39.8,0c0,15.3,0,30,0,45.3c0,2.4,0,5.5-0.6,8c-1.8,9.8-11.6,16.5-21.4,15.3
	c-9.8-1.2-17.7-9.2-17.7-19.6c0-33.7,0-66.7,0-100.4c0-3.1,0.6-5.5,1.2-8.6c5.5-30,32.4-51.4,63-49c29.4,1.8,53.9,26.9,54.5,56.3
	C226.4,249.7,225.8,284,225.8,317.7z M357.4,312.8c-6.1,6.1-11.6,12.9-18.4,18.4c-4.3,3.1-9.8,6.1-15.3,6.1c-19,0.6-37.9,0.6-57.5,0
	c-12.2,0-20.8-8.6-20.8-20.8c0-22.6,0-45.9,0-68.5c0-22,0-44.1,0-66.1c0-14.1,8-22,22-22c18.4,0,36.7,0,55.1,0
	c6.7,0,12.9,2.4,17.7,7.3c5.5,6.1,11.6,11.6,17.1,17.7c4.3,4.3,6.7,9.8,6.7,15.9c0,31.8,0,64.3,0,96.1
	C364.1,303,362.3,307.9,357.4,312.8z M501.8,290.1c-4.3,26.9-25.7,46.5-52,47.1c-15.3,0.6-30.6,0-45.9,0c-11.6,0-20.2-9.2-20.2-19.6
	c0-11,8.6-19.6,20.2-19.6c14.1,0,28.2,0,41.6,0c9.8,0,16.5-6.1,16.5-15.3c0-8.6-6.7-14.7-16.5-14.7c-13.5,0-25.7-1.2-37.3-8.6
	c-20.2-12.9-29.4-37.3-23.3-60c6.1-23.3,26.9-39.2,50.2-39.8c7.3,0,14.7,0,22,0l0,0c6.7,0,14.1,0,20.8,0c13.5,0,22.6,8,22.6,19.6
	c0,12.2-9.2,19.6-23.3,20.2c-12.9,0-25.7,0-38.6,0c-10.4,0-17.1,6.1-17.1,14.7s6.7,14.1,16.5,15.3c9.2,0.6,18.4,0.6,26.3,3.7
	C490.8,240.6,506.1,266.3,501.8,290.1z"/>
<path fill="#F2F4FA" d="M225.8,563.7c0-21.4,0-42.8,0-64.3c0-20.2-12.2-28.8-30.6-21.4c-28.8,11.6-57.5,23.3-86.3,34.3
	c-3.1,1.2-7.3,1.8-10.4,1.8c-22.6,0-45.3,0-67.9,0c-13.5,0-21.4,8-21.4,21.4c0,31.8,0,63,0,94.9c0,14.7,8,22.6,21.4,22.6
	c6.1,0,11.6,0,17.7,0c0,6.7,0,12.2,0,17.7c0,12.2,8.6,21.4,19.6,21.4c11.6,0,19.6-9.2,19.6-21.4c0-6.1,0-11.6,0-19.6
	c9.2,1.8,17.1,2.4,24.5,5.5c27.5,10.4,55.1,22,83.2,33c4.3,1.8,9.8,3.1,14.1,2.4c9.8-1.2,16.5-9.8,16.5-20.8c0-22.6,0-44.7,0-67.3
	c13.5-3.1,19.6-9.8,19.6-20.2C245.4,573.5,238.7,566.7,225.8,563.7z M87.5,613.3c-12.9,0-25.7,0-38.6,0c0-19.6,0-39.2,0-58.8
	c12.9,0,25.7,0,38.6,0C87.5,574.1,87.5,593.1,87.5,613.3z"/>
<path fill="#F2F4FA" d="M285.8,297.5c0-33,0-65.5,0-98.5c9.8,0,19.6-1.2,28.8,0.6c3.7,0.6,9.8,6.7,9.8,10.4
	c0.6,25.7,0.6,51.4,0,77.1c0,3.7-6.1,9.8-9.8,10.4C304.8,298.7,295.6,297.5,285.8,297.5z"/>
<path fill="#F2F4FA" d="M147.5,228.3c-1.2-18.4,5.5-29.4,19.6-29.4c13.5,0,20.8,10.4,19.6,29.4C173.2,228.3,160.3,228.3,147.5,228.3
	z"/>
</svg>
