<?xml version="1.0" encoding="utf-8"?>
<!-- Generator: Adobe Illustrator 25.4.1, SVG Export Plug-In . SVG Version: 6.00 Build 0)  -->
<svg version="1.1" id="Layer_1" xmlns="http://www.w3.org/2000/svg" xmlns:xlink="http://www.w3.org/1999/xlink" x="0px" y="0px"
	 viewBox="0 0 100 100" style="enable-background:new 0 0 100 100;" xml:space="preserve">
<style type="text/css">
	.st0{fill:#E20031;}
</style>
<path class="st0" d="M98.2,11.9c0-6.1-4.1-10.2-10.2-10.2c-25.5,0-50.9,0-76.4,0c-6,0-10.2,4.1-10.2,10.2c0,9.3,0,18.7,0,28
	c0,6,4.1,10.2,10.2,10.2c7,0,13.9,0,20.9,0c0.4,0,0.7,0,1.2,0c0,2.1,0,4,0,6c0,1.6,0.5,2.8,2,3.4c1.5,0.6,2.7,0.1,3.8-1
	c2.5-2.6,5.1-5.1,7.7-7.7c0.5-0.6,1.1-0.7,1.8-0.7c13,0,26,0,39,0c6.1,0,10.2-4.1,10.2-10.2C98.2,30.5,98.2,21.2,98.2,11.9z
	 M36.9,37.2c0,1.8-1.5,3.2-3.2,3.2c-1.8,0-3.2-1.4-3.2-3.2c0-2.6,0-5.3,0-8c-2.2,0-4.3,0-6.5,0c0,2.5,0,4.9,0,7.4
	c0,0.4,0,0.9-0.1,1.3c-0.3,1.6-1.9,2.7-3.5,2.5c-1.6-0.2-2.9-1.5-2.9-3.2c0-5.5,0-10.9,0-16.4c0-0.5,0.1-0.9,0.2-1.4
	C18.6,14.5,23,11,28,11.4c4.8,0.3,8.8,4.4,8.9,9.2C37,26.1,36.9,31.7,36.9,37.2z M58.4,36.4c-1,1-1.9,2.1-3,3c-0.7,0.5-1.6,1-2.5,1
	c-3.1,0.1-6.2,0.1-9.4,0c-2,0-3.4-1.4-3.4-3.4c0-3.7,0-7.5,0-11.2c0-3.6,0-7.2,0-10.8c0-2.3,1.3-3.6,3.6-3.6c3,0,6,0,9,0
	c1.1,0,2.1,0.4,2.9,1.2c0.9,1,1.9,1.9,2.8,2.9c0.7,0.7,1.1,1.6,1.1,2.6c0,5.2,0,10.5,0,15.7C59.5,34.8,59.2,35.6,58.4,36.4z
	 M82,32.7c-0.7,4.4-4.2,7.6-8.5,7.7c-2.5,0.1-5,0-7.5,0c-1.9,0-3.3-1.5-3.3-3.2c0-1.8,1.4-3.2,3.3-3.2c2.3,0,4.6,0,6.8,0
	c1.6,0,2.7-1,2.7-2.5c0-1.4-1.1-2.4-2.7-2.4c-2.2,0-4.2-0.2-6.1-1.4c-3.3-2.1-4.8-6.1-3.8-9.8c1-3.8,4.4-6.4,8.2-6.5
	c1.2,0,2.4,0,3.6,0c0,0,0,0,0,0c1.1,0,2.3,0,3.4,0c2.2,0,3.7,1.3,3.7,3.2c0,2-1.5,3.2-3.8,3.3c-2.1,0-4.2,0-6.3,0
	c-1.7,0-2.8,1-2.8,2.4c0,1.4,1.1,2.3,2.7,2.5c1.5,0.1,3,0.1,4.3,0.6C80.2,24.6,82.7,28.8,82,32.7z"/>
<path class="st0" d="M36.9,77.4c0-3.5,0-7,0-10.5c0-3.3-2-4.7-5-3.5c-4.7,1.9-9.4,3.8-14.1,5.6c-0.5,0.2-1.2,0.3-1.7,0.3
	c-3.7,0-7.4,0-11.1,0c-2.2,0-3.5,1.3-3.5,3.5c0,5.2,0,10.3,0,15.5C1.5,90.7,2.8,92,5,92c1,0,1.9,0,2.9,0c0,1.1,0,2,0,2.9
	c0,2,1.4,3.5,3.2,3.5c1.9,0,3.2-1.5,3.2-3.5c0-1,0-1.9,0-3.2c1.5,0.3,2.8,0.4,4,0.9c4.5,1.7,9,3.6,13.6,5.4c0.7,0.3,1.6,0.5,2.3,0.4
	c1.6-0.2,2.7-1.6,2.7-3.4c0-3.7,0-7.3,0-11c2.2-0.5,3.2-1.6,3.2-3.3C40.1,79,39,77.9,36.9,77.4z M14.3,85.5c-2.1,0-4.2,0-6.3,0
	c0-3.2,0-6.4,0-9.6c2.1,0,4.2,0,6.3,0C14.3,79.1,14.3,82.2,14.3,85.5z"/>
<path class="st0" d="M46.7,33.9c0-5.4,0-10.7,0-16.1c1.6,0,3.2-0.2,4.7,0.1C52,18,53,19,53,19.6c0.1,4.2,0.1,8.4,0,12.6
	c0,0.6-1,1.6-1.6,1.7C49.8,34.1,48.3,33.9,46.7,33.9z"/>
<path class="st0" d="M24.1,22.6c-0.2-3,0.9-4.8,3.2-4.8c2.2,0,3.4,1.7,3.2,4.8C28.3,22.6,26.2,22.6,24.1,22.6z"/>
</svg>
