<?xml version="1.0" encoding="utf-8"?>
<!-- Generator: Adobe Illustrator 18.1.1, SVG Export Plug-In . SVG Version: 6.00 Build 0)  -->
<svg version="1.1" id="Layer_1" xmlns="http://www.w3.org/2000/svg" xmlns:xlink="http://www.w3.org/1999/xlink" x="0px" y="0px"
	 viewBox="0 0 612 792" enable-background="new 0 0 612 792" xml:space="preserve">
<path fill="#F2F4FA" d="M506.1,695.3c-3.1,0-5.5,0-8,0c-101.6,0-202.6,0-304.2,0c-14.1,0-26.9-3.1-39.8-9.2
	c-40.4-20.8-81.4-41-122.4-61.2c-16.5-8.6-23.3-23.9-16.5-38.6c6.7-14.7,25.7-21.4,42.2-13.5c25.7,12.2,51.4,25.1,76.5,37.9
	c9.8,4.9,19.6,9.2,28.8,14.1c9.8,5.5,20.2,8,31.8,7.3c39.2-0.6,78.3,0,118.1,0c3.1,0,5.5,0,8.6-1.2c4.9-1.8,6.7-6.1,6.1-11
	c-1.2-5.5-4.3-8.6-9.8-8.6c-8.6,0-17.1,0-25.7,0c-22,0-44.7,0-66.7,0c-19.6,0-33.7-13.5-33.7-31.8s14.1-31.2,33.7-31.2
	c28.2,0,55.7,0,83.8,0c4.3,0,9.8-1.2,13.5-3.7c17.7-9.8,35.5-20.2,56.3-24.5c45.9-9.2,87.5,1.2,123.6,30.6c1.2,1.2,3.1,3.7,3.1,4.9
	C506.1,602.2,506.1,648.1,506.1,695.3z"/>
<path fill="#F2F4FA" d="M160.3,97.3c28.8,0,52.6,23.9,52,52.6c0,28.8-23.9,52-53.2,52c-28.8,0-52-23.9-52-52.6
	C107.7,121.2,131.6,97.3,160.3,97.3z"/>
<path fill="#F2F4FA" d="M507.3,393.6c-25.1,25.1-51.4,51.4-77.7,77.7c-4.3-4.9-8.6-9.8-12.9-14.1c25.1-25.1,51.4-51.4,77.7-77.7
	C498.2,383.8,503.1,388.7,507.3,393.6z"/>
<path fill="#F2F4FA" d="M548.4,213c0-14.1,0-27.5,0-41.6c11.6,0,22.6-0.6,34.3,0c10.4,0.6,18.4,11,18.4,21.4
	c-0.6,10.4-8.6,19-19,20.2c-1.2,0-3.1,0-4.3,0C567.9,213,558.1,213,548.4,213z"/>
<path fill="#F2F4FA" d="M523.9,376.4c-4.9-4.9-9.2-9.2-13.5-13.5c6.7-6.7,13.5-13.5,20.2-20.2c4.3,4.3,9.2,9.2,13.5,13.5
	C537.3,363,530.6,369.7,523.9,376.4z"/>
<path fill="#F2F4FA" d="M474.3,150.6c0,6.7,0,13.5,0,20.2c-6.1-0.6-9.8-3.7-9.8-9.8C463.9,155.5,467.6,151.8,474.3,150.6z"/>
<path fill="#F2F4FA" d="M526.9,177.5c0-1.8,0-3.7,0-6.1c-5.5,0-10.4,0-15.3,0c-4.9-0.6-7.3,0.6-10.4,5.5
	c-6.7,12.9-21.4,18.4-35.5,14.1c-13.5-3.7-22.6-16.5-22.6-30c0-14.1,9.8-26.9,23.3-30c14.1-4.3,28.2,1.8,35.5,14.1
	c1.2,1.8,3.1,4.9,4.9,4.9c6.7,0.6,12.9,0,19.6,0c0-14.1,0-28.2,0-42.2c-3.1,0-4.9,0-7.3,0c-52.6,0-105.9,0-158.5,0
	c-5.5,0-8.6,1.2-12.2,4.9c-94.9,94.9-189.1,189.7-283.4,284c-1.2,1.2-3.1,3.1-4.3,4.9c0.6,1.2,1.2,1.8,1.8,2.4
	c42.8,42.8,86.3,86.3,129.1,129.1c2.4,2.4,4.3,1.8,7.3,0.6c8.6-2.4,17.7-5.5,26.3-6.1c17.1-1.2,34.3,0,50.8-0.6
	c3.1,0,7.3-1.8,9.8-3.7c78.9-78.9,157.9-157.9,237.5-237.5c2.4-2.4,3.7-6.1,3.7-9.8C527.5,243.6,526.9,210.6,526.9,177.5z
	 M230.1,290.1c8.6,8.6,16.5,16.5,25.1,25.1c-4.3,3.7-9.2,8.6-12.9,11.6c-8-8-15.9-15.9-24.5-24.5
	C221.5,299.3,225.8,294.4,230.1,290.1z M91.8,405.2c20.2-20.2,41-41,61.8-61.8c3.7,3.7,8,8.6,12.2,12.9c-20.2,20.2-41,41-62.4,62.4
	C99.8,414.4,95.5,409.5,91.8,405.2z M122.4,436.4c20.8-20.8,41.6-41,62.4-62.4c3.7,4.3,8.6,9.2,12.2,13.5
	c-20.2,19.6-40.4,40.4-61.8,61.2C131.6,445.6,126.7,440.7,122.4,436.4z M154.2,468.2c20.8-20.8,41.6-41.6,62.4-62.4
	c4.3,4.3,8.6,8.6,12.9,12.9c-20.8,20.8-41.6,41.6-62.4,62.4C162.8,477.4,157.9,472.5,154.2,468.2z M198.3,512.9
	c-3.7-4.3-8.6-9.2-12.2-13.5c20.2-20.2,41-41,61.8-61.8c3.7,3.7,8.6,8.6,12.9,12.2C239.9,471.3,219.1,492.1,198.3,512.9z
	 M261.3,512.9c-4.3-4.3-8.6-9.2-12.2-13.5c9.8-9.8,20.2-20.2,30.6-30.6c3.7,3.7,8,8.6,12.2,12.9
	C282.1,492.1,271.7,502.5,261.3,512.9z M279.1,428.4c-27.5-27.5-55.1-55.1-83.2-83.2c3.7-3.7,8.6-8.6,12.2-12.9
	c28.2,28.2,55.7,55.7,83.8,83.8C288.3,419.9,283.4,424.2,279.1,428.4z M321.3,407c-21.4-21.4-42.8-42.8-64.9-64.9
	c3.7-3.7,8.6-8,12.2-11.6c21.4,21.4,42.8,42.8,64.9,64.9C329.9,399.1,325.6,403.3,321.3,407z M444.9,314c-1.8,1.2-3.7,3.7-4.3,5.5
	c-3.7,18.4-20.2,30.6-39.2,27.5c-3.7-0.6-6.1,0.6-8.6,2.4c-14.1,12.9-33.7,12.2-47.7,0c-1.8-1.8-5.5-2.4-8-2.4
	c-19.6,2.4-35.5-9.2-39.2-28.2c-0.6-1.8-2.4-4.3-3.7-4.9c-18.4-10.4-23.9-26.9-15.3-45.9c0.6-1.8,0.6-4.9-0.6-6.1
	c-8-17.7-2.4-35.5,15.3-45.3c1.8-1.2,4.3-3.7,4.3-6.1c3.1-16.5,17.1-28.2,34.9-27.5c6.1,3.1,11-1.2,15.9-5.5
	c12.9-9.8,31.2-8.6,43.5,3.1c2.4,2.4,4.9,3.1,8.6,2.4c19-2.4,34.9,9.2,39.2,27.5c0.6,1.8,2.4,4.3,4.3,5.5
	c17.7,9.2,23.3,27.5,15.3,45.9c-0.6,1.8-0.6,4.9,0,6.7C468.8,287.1,462.7,304.8,444.9,314z"/>
<path fill="#F2F4FA" d="M527.5,527.6c0,56.3,0,111.4,0,167.1c24.5,0,48.3,0,72.8,0c0-55.7,0-111.4,0-167.1
	C575.9,527.6,552,527.6,527.5,527.6z M564.3,664.1c-8.6,0-15.9-6.7-15.9-15.3c0-8.6,7.3-15.9,15.9-15.9s15.9,7.3,15.9,15.9
	C579.6,656.7,572.8,663.4,564.3,664.1z"/>
<path fill="#F2F4FA" d="M405.8,326.8c-1.2-0.6-3.7-1.2-6.1-2.4c-8-3.7-12.9-2.4-16.5,5.5c-2.4,5.5-6.7,8.6-12.2,8.6
	c-6.1,0-10.4-3.1-12.9-9.2c-3.7-7.3-9.2-9.2-15.9-5.5c-5.5,3.1-11,3.7-16.5,0c-5.5-3.7-5.5-9.2-4.3-14.7c1.2-7.3-2.4-12.2-9.8-12.9
	c-6.1-0.6-11-3.1-12.9-9.2c-2.4-6.1,0.6-10.4,4.9-14.1c6.1-4.9,6.1-11.6,0-16.5c-4.3-3.7-7.3-8-5.5-13.5c1.8-6.1,6.7-8.6,12.9-9.2
	c8.6-0.6,11.6-5.5,10.4-13.5c-1.2-5.5-0.6-10.4,4.3-14.1c5.5-3.7,10.4-3.1,15.9,0c8,4.3,12.9,2.4,16.5-5.5c2.4-5.5,6.7-8,12.2-8.6
	c6.1,0,10.4,2.4,12.9,8.6c3.7,8,9.2,9.8,17.1,5.5c5.5-3.1,11-3.1,15.9,0.6s5.5,8.6,4.3,14.1c-1.8,8.6,1.8,12.9,10.4,13.5
	c6.1,0.6,10.4,3.1,12.2,8.6c1.8,6.1-0.6,10.4-4.9,14.1c-6.1,4.9-6.1,11.6,0,16.5c4.3,3.7,7.3,8,5.5,13.5c-1.8,6.1-6.7,8.6-12.9,9.2
	c-8.6,0.6-11.6,4.9-10.4,13.5C421.1,320.1,416.2,326.8,405.8,326.8z"/>
</svg>
