<?xml version="1.0" encoding="utf-8"?>
<!-- Generator: Adobe Illustrator 25.4.1, SVG Export Plug-In . SVG Version: 6.00 Build 0)  -->
<svg version="1.1" id="Layer_1" xmlns="http://www.w3.org/2000/svg" xmlns:xlink="http://www.w3.org/1999/xlink" x="0px" y="0px"
	 viewBox="0 0 100 100" style="enable-background:new 0 0 100 100;" xml:space="preserve">
<style type="text/css">
	.st0{fill:#E20031;}
</style>
<path class="st0" d="M82.7,98.9c-0.5,0-0.9,0-1.3,0c-16.6,0-33.1,0-49.7,0c-2.3,0-4.4-0.5-6.5-1.5c-6.6-3.4-13.3-6.7-20-10
	c-2.7-1.4-3.8-3.9-2.7-6.3c1.1-2.4,4.2-3.5,6.9-2.2c4.2,2,8.4,4.1,12.5,6.2c1.6,0.8,3.2,1.5,4.7,2.3c1.6,0.9,3.3,1.3,5.2,1.2
	c6.4-0.1,12.8,0,19.3,0c0.5,0,0.9,0,1.4-0.2c0.8-0.3,1.1-1,1-1.8c-0.2-0.9-0.7-1.4-1.6-1.4c-1.4,0-2.8,0-4.2,0c-3.6,0-7.3,0-10.9,0
	c-3.2,0-5.5-2.2-5.5-5.2c0-3,2.3-5.1,5.5-5.1c4.6,0,9.1,0,13.7,0c0.7,0,1.6-0.2,2.2-0.6c2.9-1.6,5.8-3.3,9.2-4
	c7.5-1.5,14.3,0.2,20.2,5c0.2,0.2,0.5,0.6,0.5,0.8C82.7,83.7,82.7,91.2,82.7,98.9z"/>
<path class="st0" d="M26.2,1.2c4.7,0,8.6,3.9,8.5,8.6c0,4.7-3.9,8.5-8.7,8.5c-4.7,0-8.5-3.9-8.5-8.6C17.6,5.1,21.5,1.2,26.2,1.2z"/>
<path class="st0" d="M82.9,49.6c-4.1,4.1-8.4,8.4-12.7,12.7c-0.7-0.8-1.4-1.6-2.1-2.3c4.1-4.1,8.4-8.4,12.7-12.7
	C81.4,48,82.2,48.8,82.9,49.6z"/>
<path class="st0" d="M89.6,20.1c0-2.3,0-4.5,0-6.8c1.9,0,3.7-0.1,5.6,0c1.7,0.1,3,1.8,3,3.5c-0.1,1.7-1.4,3.1-3.1,3.3
	c-0.2,0-0.5,0-0.7,0C92.8,20.1,91.2,20.1,89.6,20.1z"/>
<path class="st0" d="M85.6,46.8c-0.8-0.8-1.5-1.5-2.2-2.2c1.1-1.1,2.2-2.2,3.3-3.3c0.7,0.7,1.5,1.5,2.2,2.2
	C87.8,44.6,86.7,45.7,85.6,46.8z"/>
<path class="st0" d="M77.5,9.9c0,1.1,0,2.2,0,3.3c-1-0.1-1.6-0.6-1.6-1.6C75.8,10.7,76.4,10.1,77.5,9.9z"/>
<path class="st0" d="M86.1,14.3c0-0.3,0-0.6,0-1c-0.9,0-1.7,0-2.5,0c-0.8-0.1-1.2,0.1-1.7,0.9c-1.1,2.1-3.5,3-5.8,2.3
	c-2.2-0.6-3.7-2.7-3.7-4.9c0-2.3,1.6-4.4,3.8-4.9C78.5,6,80.8,7,82,9c0.2,0.3,0.5,0.8,0.8,0.8c1.1,0.1,2.1,0,3.2,0
	c0-2.3,0-4.6,0-6.9c-0.5,0-0.8,0-1.2,0c-8.6,0-17.3,0-25.9,0c-0.9,0-1.4,0.2-2,0.8C41.4,19.2,26,34.7,10.6,50.1
	c-0.2,0.2-0.5,0.5-0.7,0.8c0.1,0.2,0.2,0.3,0.3,0.4c7,7,14.1,14.1,21.1,21.1c0.4,0.4,0.7,0.3,1.2,0.1c1.4-0.4,2.9-0.9,4.3-1
	c2.8-0.2,5.6,0,8.3-0.1c0.5,0,1.2-0.3,1.6-0.6C59.6,57.9,72.5,45,85.5,32c0.4-0.4,0.6-1,0.6-1.6C86.2,25.1,86.1,19.7,86.1,14.3z
	 M37.6,32.7c1.4,1.4,2.7,2.7,4.1,4.1c-0.7,0.6-1.5,1.4-2.1,1.9c-1.3-1.3-2.6-2.6-4-4C36.2,34.2,36.9,33.4,37.6,32.7z M15,51.5
	c3.3-3.3,6.7-6.7,10.1-10.1c0.6,0.6,1.3,1.4,2,2.1c-3.3,3.3-6.7,6.7-10.2,10.2C16.3,53,15.6,52.2,15,51.5z M20,56.6
	c3.4-3.4,6.8-6.7,10.2-10.2c0.6,0.7,1.4,1.5,2,2.2c-3.3,3.2-6.6,6.6-10.1,10C21.5,58.1,20.7,57.3,20,56.6z M25.2,61.8
	c3.4-3.4,6.8-6.8,10.2-10.2c0.7,0.7,1.4,1.4,2.1,2.1c-3.4,3.4-6.8,6.8-10.2,10.2C26.6,63.3,25.8,62.5,25.2,61.8z M32.4,69.1
	c-0.6-0.7-1.4-1.5-2-2.2c3.3-3.3,6.7-6.7,10.1-10.1c0.6,0.6,1.4,1.4,2.1,2C39.2,62.3,35.8,65.7,32.4,69.1z M42.7,69.1
	c-0.7-0.7-1.4-1.5-2-2.2c1.6-1.6,3.3-3.3,5-5c0.6,0.6,1.3,1.4,2,2.1C46.1,65.7,44.4,67.4,42.7,69.1z M45.6,55.3
	c-4.5-4.5-9-9-13.6-13.6c0.6-0.6,1.4-1.4,2-2.1c4.6,4.6,9.1,9.1,13.7,13.7C47.1,53.9,46.3,54.6,45.6,55.3z M52.5,51.8
	c-3.5-3.5-7-7-10.6-10.6c0.6-0.6,1.4-1.3,2-1.9c3.5,3.5,7,7,10.6,10.6C53.9,50.5,53.2,51.2,52.5,51.8z M72.7,36.6
	c-0.3,0.2-0.6,0.6-0.7,0.9c-0.6,3-3.3,5-6.4,4.5c-0.6-0.1-1,0.1-1.4,0.4c-2.3,2.1-5.5,2-7.8,0c-0.3-0.3-0.9-0.4-1.3-0.4
	c-3.2,0.4-5.8-1.5-6.4-4.6c-0.1-0.3-0.4-0.7-0.6-0.8c-3-1.7-3.9-4.4-2.5-7.5c0.1-0.3,0.1-0.8-0.1-1c-1.3-2.9-0.4-5.8,2.5-7.4
	c0.3-0.2,0.7-0.6,0.7-1c0.5-2.7,2.8-4.6,5.7-4.5c1,0.5,1.8-0.2,2.6-0.9c2.1-1.6,5.1-1.4,7.1,0.5c0.4,0.4,0.8,0.5,1.4,0.4
	c3.1-0.4,5.7,1.5,6.4,4.5c0.1,0.3,0.4,0.7,0.7,0.9c2.9,1.5,3.8,4.5,2.5,7.5c-0.1,0.3-0.1,0.8,0,1.1C76.6,32.2,75.6,35.1,72.7,36.6z"
	/>
<path class="st0" d="M86.2,71.5c0,9.2,0,18.2,0,27.3c4,0,7.9,0,11.9,0c0-9.1,0-18.2,0-27.3C94.1,71.5,90.2,71.5,86.2,71.5z
	 M92.2,93.8c-1.4,0-2.6-1.1-2.6-2.5c0-1.4,1.2-2.6,2.6-2.6c1.4,0,2.6,1.2,2.6,2.6C94.7,92.6,93.6,93.7,92.2,93.8z"/>
<path class="st0" d="M66.3,38.7c-0.2-0.1-0.6-0.2-1-0.4c-1.3-0.6-2.1-0.4-2.7,0.9c-0.4,0.9-1.1,1.4-2,1.4c-1,0-1.7-0.5-2.1-1.5
	c-0.6-1.2-1.5-1.5-2.6-0.9c-0.9,0.5-1.8,0.6-2.7,0c-0.9-0.6-0.9-1.5-0.7-2.4c0.2-1.2-0.4-2-1.6-2.1c-1-0.1-1.8-0.5-2.1-1.5
	c-0.4-1,0.1-1.7,0.8-2.3c1-0.8,1-1.9,0-2.7c-0.7-0.6-1.2-1.3-0.9-2.2c0.3-1,1.1-1.4,2.1-1.5c1.4-0.1,1.9-0.9,1.7-2.2
	c-0.2-0.9-0.1-1.7,0.7-2.3c0.9-0.6,1.7-0.5,2.6,0c1.3,0.7,2.1,0.4,2.7-0.9c0.4-0.9,1.1-1.3,2-1.4c1,0,1.7,0.4,2.1,1.4
	c0.6,1.3,1.5,1.6,2.8,0.9c0.9-0.5,1.8-0.5,2.6,0.1c0.8,0.6,0.9,1.4,0.7,2.3c-0.3,1.4,0.3,2.1,1.7,2.2c1,0.1,1.7,0.5,2,1.4
	c0.3,1-0.1,1.7-0.8,2.3c-1,0.8-1,1.9,0,2.7c0.7,0.6,1.2,1.3,0.9,2.2c-0.3,1-1.1,1.4-2.1,1.5c-1.4,0.1-1.9,0.8-1.7,2.2
	C68.8,37.6,68,38.7,66.3,38.7z"/>
</svg>
