<?xml version="1.0" encoding="utf-8"?>
<!-- Generator: Adobe Illustrator 18.1.1, SVG Export Plug-In . SVG Version: 6.00 Build 0)  -->
<svg version="1.1" id="Layer_1" xmlns="http://www.w3.org/2000/svg" xmlns:xlink="http://www.w3.org/1999/xlink" x="0px" y="0px"
	 viewBox="0 0 612 792" enable-background="new 0 0 612 792" xml:space="preserve">
<g>
	<path fill="#F2F4FA" d="M398.4,690.4c22-22,43.5-44.1,65.5-66.1c1.8-1.8,3.7-3.1,4.9-3.7c-8.6-8.6-16.5-16.5-25.1-25.1
		c-22,22.6-45.3,45.3-68.5,68.5l-1.2-0.6c1.8-9.2,3.1-17.7,4.9-26.9c4.3-24.5,9.2-49,13.5-73.4c0.6-4.3,2.4-5.5,6.1-6.7
		c28.2-8,55.7-15.9,83.8-23.9c1.8-0.6,3.7-1.2,5.5-1.8c-12.2-12.2-24.5-24.5-36.1-36.1c9.2-9.2,16.5-17.1,24.5-25.1
		c39.2,40.4,78.3,79.6,117.5,118.7c-8,8-15.9,15.3-23.9,23.9c-11-11.6-23.3-23.3-36.1-36.7c-1.2,3.7-1.8,5.5-2.4,8
		c-8,27.5-15.9,55.1-23.3,82.6c-1.2,4.3-3.1,5.5-7.3,6.7c-33,5.5-64.9,11-97.3,17.1c-0.6,0-1.2,0.6-1.8,0.6
		C400.2,690.4,399.6,690.4,398.4,690.4z"/>
	<path fill="#F2F4FA" d="M16.5,102.2c58.1,0,115.7,0,175,0c-2.4,1.2-3.1,1.8-4.3,2.4c-31.8,12.2-63.6,24.5-95.5,36.1
		c-5.5,1.8-6.7,4.3-6.7,9.8c0,137.7,0,275.4,0,413.1c0,2.4,0,4.3,0,7.3c-22.6,0-45.3,0-68.5,0C16.5,415,16.5,258.9,16.5,102.2z"/>
	<path fill="#F2F4FA" d="M119.3,622.4c0-42.8,0-85.1,0-128.5c5.5,1.8,11,3.1,16.5,5.5c22.6,8.6,41.6,22.6,58.1,40.4
		c16.5,17.1,31.8,35.5,47.7,53.9c8.6,9.8,17.7,19,26.3,29.4C219.1,622.4,169.5,622.4,119.3,622.4z"/>
	<path fill="#F2F4FA" d="M179.9,141.4c33.7-12.9,66.7-25.7,100.4-39.2c0,13.5,0,26.3,0,39.8c-33,0-66.7,0-99.8,0L179.9,141.4z"/>
	<path fill="#F2F4FA" d="M119.3,177.5c0,94.2,0,187.9,0,281.5c41,10.4,64.9,22.6,94.9,52c17.1,17.1,33,36.1,49.6,54.5
		c15.9,17.7,31.2,36.1,50.8,49.6c9.8,6.7,20.8,9.8,32.4,7.3c0.6-2.4,1.2-4.9,1.2-6.7c4.9-26.3,9.8-53.2,14.7-79.6
		c0.6-3.7,1.8-5.5,5.5-6.1c4.9-1.2,9.8-2.4,14.7-4.3c0-116.3,0-232.6,0-348.8C294.4,177.5,206.9,177.5,119.3,177.5z M343.3,412.5
		c0,1.8,0,3.1,0,6.1c-61.8-26.3-123-28.2-184.2,0.6c0-2.4-0.6-4.3-0.6-6.1c0-33.7,0-66.7,0-100.4c0-4.3,1.2-6.1,5.5-7.3
		c12.9-3.7,25.7-8,37.9-11.6c-6.1-21.4-5.5-38.6,3.1-52c3.7-6.1,9.2-11.6,15.9-16.5c19-12.9,44.1-12.2,62.4,1.2
		c20.2,15.3,26.3,38.6,16.5,67.3c12.9,3.7,25.7,8,37.9,11.6c4.3,1.2,5.5,3.1,5.5,7.3C343.3,345.8,343.3,379.5,343.3,412.5z"/>
	<path fill="#F2F4FA" d="M309.1,332.4c0,12.9,0,25.1,0,37.9c-38.6-9.2-77.1-9.2-115.7,0c0-12.9,0-25.1,0-37.9
		C231.3,321.3,269.9,321.3,309.1,332.4z"/>
	<path fill="#F2F4FA" d="M270.5,269.9c0,10.4-8.6,19.6-19,19.6c-11,0-19.6-8.6-19.6-19.6c0-11,9.2-19.6,19.6-19.6
		C261.9,251,270.5,259.5,270.5,269.9z"/>
</g>
</svg>
