<?xml version="1.0" encoding="utf-8"?>
<!-- Generator: Adobe Illustrator 25.4.1, SVG Export Plug-In . SVG Version: 6.00 Build 0)  -->
<svg version="1.1" id="Layer_1" xmlns="http://www.w3.org/2000/svg" xmlns:xlink="http://www.w3.org/1999/xlink" x="0px" y="0px"
	 viewBox="0 0 100 100" style="enable-background:new 0 0 100 100;" xml:space="preserve">
<style type="text/css">
	.st0{fill:#E20031;}
</style>
<g>
	<path class="st0" d="M65.1,98.1c3.6-3.6,7.1-7.2,10.7-10.8c0.3-0.3,0.6-0.5,0.8-0.6c-1.4-1.4-2.7-2.7-4.1-4.1
		c-3.6,3.7-7.4,7.4-11.2,11.2l-0.2-0.1c0.3-1.5,0.5-2.9,0.8-4.4c0.7-4,1.5-8,2.2-12c0.1-0.7,0.4-0.9,1-1.1c4.6-1.3,9.1-2.6,13.7-3.9
		c0.3-0.1,0.6-0.2,0.9-0.3c-2-2-4-4-5.9-5.9c1.5-1.5,2.7-2.8,4-4.1C84.2,68.6,90.6,75,97,81.4c-1.3,1.3-2.6,2.5-3.9,3.9
		c-1.8-1.9-3.8-3.8-5.9-6c-0.2,0.6-0.3,0.9-0.4,1.3c-1.3,4.5-2.6,9-3.8,13.5c-0.2,0.7-0.5,0.9-1.2,1.1C76.4,96.1,71.2,97,65.9,98
		c-0.1,0-0.2,0.1-0.3,0.1C65.4,98.1,65.3,98.1,65.1,98.1z"/>
	<path class="st0" d="M2.7,2c9.5,0,18.9,0,28.6,0c-0.4,0.2-0.5,0.3-0.7,0.4c-5.2,2-10.4,4-15.6,5.9c-0.9,0.3-1.1,0.7-1.1,1.6
		c0,22.5,0,45,0,67.5c0,0.4,0,0.7,0,1.2c-3.7,0-7.4,0-11.2,0C2.7,53.1,2.7,27.6,2.7,2z"/>
	<path class="st0" d="M19.5,87c0-7,0-13.9,0-21c0.9,0.3,1.8,0.5,2.7,0.9c3.7,1.4,6.8,3.7,9.5,6.6c2.7,2.8,5.2,5.8,7.8,8.8
		c1.4,1.6,2.9,3.1,4.3,4.8C35.8,87,27.7,87,19.5,87z"/>
	<path class="st0" d="M29.4,8.4C34.9,6.3,40.3,4.2,45.8,2c0,2.2,0,4.3,0,6.5c-5.4,0-10.9,0-16.3,0L29.4,8.4z"/>
	<path class="st0" d="M19.5,14.3c0,15.4,0,30.7,0,46C26.2,62,30.1,64,35,68.8c2.8,2.8,5.4,5.9,8.1,8.9c2.6,2.9,5.1,5.9,8.3,8.1
		c1.6,1.1,3.4,1.6,5.3,1.2c0.1-0.4,0.2-0.8,0.2-1.1c0.8-4.3,1.6-8.7,2.4-13c0.1-0.6,0.3-0.9,0.9-1c0.8-0.2,1.6-0.4,2.4-0.7
		c0-19,0-38,0-57C48.1,14.3,33.8,14.3,19.5,14.3z M56.1,52.7c0,0.3,0,0.5,0,1C46,49.4,36,49.1,26,53.8c0-0.4-0.1-0.7-0.1-1
		c0-5.5,0-10.9,0-16.4c0-0.7,0.2-1,0.9-1.2c2.1-0.6,4.2-1.3,6.2-1.9c-1-3.5-0.9-6.3,0.5-8.5c0.6-1,1.5-1.9,2.6-2.7
		c3.1-2.1,7.2-2,10.2,0.2c3.3,2.5,4.3,6.3,2.7,11c2.1,0.6,4.2,1.3,6.2,1.9c0.7,0.2,0.9,0.5,0.9,1.2C56.1,41.8,56.1,47.3,56.1,52.7z"
		/>
	<path class="st0" d="M50.5,39.6c0,2.1,0,4.1,0,6.2c-6.3-1.5-12.6-1.5-18.9,0c0-2.1,0-4.1,0-6.2C37.8,37.8,44.1,37.8,50.5,39.6z"/>
	<path class="st0" d="M44.2,29.4c0,1.7-1.4,3.2-3.1,3.2c-1.8,0-3.2-1.4-3.2-3.2c0-1.8,1.5-3.2,3.2-3.2
		C42.8,26.3,44.2,27.7,44.2,29.4z"/>
</g>
</svg>
