<?xml version="1.0" encoding="utf-8"?>
<!-- Generator: Adobe Illustrator 25.4.1, SVG Export Plug-In . SVG Version: 6.00 Build 0)  -->
<svg version="1.1" id="Layer_1" xmlns="http://www.w3.org/2000/svg" xmlns:xlink="http://www.w3.org/1999/xlink" x="0px" y="0px"
	 viewBox="0 0 100 100" style="enable-background:new 0 0 100 100;" xml:space="preserve">
<style type="text/css">
	.st0{fill:#E20031;}
</style>
<path class="st0" d="M1.7,17.9c1.1-1.5,2-1.6,3.3-0.2c1.6,1.6,3.2,3.2,4.7,4.7c1.3,1.4,2.9,2,4.8,1.7c1.4-0.2,2.7-0.4,4.1-0.6
	c2.5-0.4,4.2-2,4.6-4.6c0.2-1.4,0.4-2.7,0.6-4.1c0.2-1.8-0.2-3.4-1.6-4.7c-1.7-1.7-3.3-3.4-5-5c-0.7-0.6-1-1.4-0.6-2.2
	c0.4-0.8,1.1-1,2-0.9c9.4,0.5,16.4,9.7,14.2,19c-0.6,2.7-0.1,4.8,1.9,6.7c2.3,2.1,4.5,4.4,6.6,6.6c-2.4,2.7-4.8,5.2-7.2,7.9
	c-0.1-0.1-0.3-0.3-0.5-0.5c-2.3-2.3-4.6-4.5-6.8-6.8c-1.6-1.7-3.5-2.2-5.8-1.7c-9.1,2.1-17.7-3.6-19.3-12.8c0-0.2-0.1-0.3-0.2-0.4
	C1.7,19.2,1.7,18.6,1.7,17.9z"/>
<path class="st0" d="M62,58.8C55.3,52,48.7,45.3,42.1,38.5c2.7-2.4,5.3-4.8,7.9-7c8.9-7.7,18.1-15,28-21.5c4.1-2.7,8.4-5.4,13.1-7.1
	c1.3-0.5,2.8-0.7,4.2-0.9c1.6-0.2,2.6,0.6,2.7,2.3c0,1.1-0.1,2.2-0.4,3.2c-1.3,4.5-3.6,8.5-6.1,12.5c-6.8,11.1-14.7,21.4-23,31.4
	C66.4,53.8,64.2,56.2,62,58.8z"/>
<path class="st0" d="M36.1,76.1c0.8,0.8,1.5,1.5,2.1,2.2c0.2,0.2,0.2,0.6,0.2,1c-0.2,6.4-3.2,11.2-8.6,14.5
	c-5.7,3.5-11.9,4.6-18.5,4.5c-1.1,0-2.2-0.1-3.2-0.2c-1.6-0.2-2.3-1.5-1.3-2.9c1.6-2.3,1.8-4.6,1.1-7.3c-0.7-2.6-1.4-5.3-1.8-8
	c-0.8-6,1.8-10.6,6.4-14.2c2.7-2.2,5.9-3.2,9.4-3.3c1.2,0,1.5,1.1,2.4,1.6c-1.2,0.5-2.3,0.9-3.4,1.4c-3.6,1.7-6.4,4.2-8.5,7.6
	c-0.7,1.1-0.5,2,0.3,2.6c0.9,0.6,1.8,0.3,2.5-0.7c1.8-2.6,4-4.9,6.9-6.3c1-0.5,2.1-0.8,3.2-1.2c1.4-0.5,2.5-0.1,3.3,1.4
	c-1.1,1.1-2.3,2.3-3.5,3.4c-1.9,1.9-3.7,3.7-5.6,5.6c-0.9,0.9-1,1.9-0.3,2.7c0.8,0.8,1.7,0.7,2.7-0.2c2.8-2.8,5.6-5.6,8.4-8.4
	c0.2-0.2,0.4-0.6,0.7-1c0.5,0.6,1,1,1.2,1.4c0.2,0.4,0.5,0.9,0.5,1.3c-0.4,4.9-2.7,8.7-6.5,11.6c-1.4,1-2.9,1.8-4.4,2.6
	c-1.1,0.6-1.6,1.5-1.1,2.5c0.5,0.9,1.4,1.2,2.5,0.7c5.4-2.5,9.8-6.2,11.9-12.1C35.5,78.1,35.7,77.2,36.1,76.1z"/>
<path class="st0" d="M58.7,66.6c2.6-2.5,5.1-5,7.7-7.4c2,2,4.1,4,6,6.1c1.7,1.8,3.7,2.4,6.2,1.8c9.2-2.2,18.2,4.2,19.2,13.6
	c0,0.3,0,0.5,0,0.8c0.1,0.9-0.3,1.5-1.1,1.8c-0.8,0.3-1.4,0.1-2-0.5c-1.5-1.5-3.1-3-4.6-4.6c-1.7-1.8-3.6-2.5-6-2
	c-1.1,0.2-2.2,0.3-3.3,0.5c-2.5,0.4-4.2,2-4.6,4.6c-0.2,1.4-0.4,2.7-0.6,4.1c-0.2,1.9,0.3,3.5,1.6,4.8c1.6,1.6,3.3,3.3,4.9,4.9
	c0.7,0.6,1,1.4,0.6,2.2c-0.4,0.8-1.1,1-2,0.9c-7.7-0.4-14.3-7-14.5-14.7c-0.1-1.7,0.2-3.4,0.5-5c0.4-2.1,0-3.8-1.5-5.3
	C63,70.9,60.8,68.7,58.7,66.6z"/>
<path class="st0" d="M39.8,41c6.6,6.8,13.2,13.4,19.7,20.1c-3,2.6-6.3,4.7-9.8,6.4c-0.9,0.4-1.7,0.8-2.6,1.1c-0.3,0.1-0.8,0-1-0.2
	c-4.5-4.6-9-9.2-13.5-13.8c-0.2-0.2-0.3-0.6-0.2-0.8C34.1,49.3,36.5,45,39.8,41z"/>
<path class="st0" d="M27.4,55.1c0.4,0.2,1.2,0.5,1.7,1c5.3,5.3,10.6,10.7,15.8,16.1c1.2,1.2,1.1,2.9,0,4.1c-1.1,1.1-2.8,1.1-4-0.1
	c-5.3-5.3-10.5-10.7-15.7-16c-0.9-0.9-1.1-2.1-0.6-3.3C25,55.7,25.9,55.2,27.4,55.1z"/>
</svg>
