<?xml version="1.0" encoding="utf-8"?>
<!-- Generator: Adobe Illustrator 18.1.1, SVG Export Plug-In . SVG Version: 6.00 Build 0)  -->
<svg version="1.1" id="Layer_1" xmlns="http://www.w3.org/2000/svg" xmlns:xlink="http://www.w3.org/1999/xlink" x="0px" y="0px"
	 viewBox="0 0 612 792" enable-background="new 0 0 612 792" xml:space="preserve">
<path fill="#F2F4FA" d="M10.4,199.5c6.7-9.2,12.2-9.8,20.2-1.2c9.8,9.8,19.6,19.6,28.8,28.8c8,8.6,17.7,12.2,29.4,10.4
	c8.6-1.2,16.5-2.4,25.1-3.7c15.3-2.4,25.7-12.2,28.2-28.2c1.2-8.6,2.4-16.5,3.7-25.1c1.2-11-1.2-20.8-9.8-28.8
	c-10.4-10.4-20.2-20.8-30.6-30.6c-4.3-3.7-6.1-8.6-3.7-13.5c2.4-4.9,6.7-6.1,12.2-5.5c57.5,3.1,100.4,59.4,86.9,116.3
	c-3.7,16.5-0.6,29.4,11.6,41c14.1,12.9,27.5,26.9,40.4,40.4c-14.7,16.5-29.4,31.8-44.1,48.3c-0.6-0.6-1.8-1.8-3.1-3.1
	c-14.1-14.1-28.2-27.5-41.6-41.6c-9.8-10.4-21.4-13.5-35.5-10.4c-55.7,12.9-108.3-22-118.1-78.3c0-1.2-0.6-1.8-1.2-2.4
	C10.4,207.5,10.4,203.8,10.4,199.5z"/>
<path fill="#F2F4FA" d="M379.4,449.9c-41-41.6-81.4-82.6-121.8-124.2c16.5-14.7,32.4-29.4,48.3-42.8
	c54.5-47.1,110.8-91.8,171.4-131.6c25.1-16.5,51.4-33,80.2-43.5c8-3.1,17.1-4.3,25.7-5.5c9.8-1.2,15.9,3.7,16.5,14.1
	c0,6.7-0.6,13.5-2.4,19.6c-8,27.5-22,52-37.3,76.5c-41.6,67.9-90,131-140.8,192.2C406.4,419.3,392.9,433.9,379.4,449.9z"/>
<path fill="#F2F4FA" d="M220.9,555.7c4.9,4.9,9.2,9.2,12.9,13.5c1.2,1.2,1.2,3.7,1.2,6.1c-1.2,39.2-19.6,68.5-52.6,88.7
	c-34.9,21.4-72.8,28.2-113.2,27.5c-6.7,0-13.5-0.6-19.6-1.2c-9.8-1.2-14.1-9.2-8-17.7c9.8-14.1,11-28.2,6.7-44.7
	c-4.3-15.9-8.6-32.4-11-49c-4.9-36.7,11-64.9,39.2-86.9c16.5-13.5,36.1-19.6,57.5-20.2c7.3,0,9.2,6.7,14.7,9.8
	c-7.3,3.1-14.1,5.5-20.8,8.6c-22,10.4-39.2,25.7-52,46.5c-4.3,6.7-3.1,12.2,1.8,15.9c5.5,3.7,11,1.8,15.3-4.3
	c11-15.9,24.5-30,42.2-38.6c6.1-3.1,12.9-4.9,19.6-7.3c8.6-3.1,15.3-0.6,20.2,8.6c-6.7,6.7-14.1,14.1-21.4,20.8
	c-11.6,11.6-22.6,22.6-34.3,34.3c-5.5,5.5-6.1,11.6-1.8,16.5c4.9,4.9,10.4,4.3,16.5-1.2c17.1-17.1,34.3-34.3,51.4-51.4
	c1.2-1.2,2.4-3.7,4.3-6.1c3.1,3.7,6.1,6.1,7.3,8.6c1.2,2.4,3.1,5.5,3.1,8c-2.4,30-16.5,53.2-39.8,71c-8.6,6.1-17.7,11-26.9,15.9
	c-6.7,3.7-9.8,9.2-6.7,15.3c3.1,5.5,8.6,7.3,15.3,4.3c33-15.3,60-37.9,72.8-74.1C217.3,568,218.5,562.5,220.9,555.7z"/>
<path fill="#F2F4FA" d="M359.2,497.6c15.9-15.3,31.2-30.6,47.1-45.3c12.2,12.2,25.1,24.5,36.7,37.3c10.4,11,22.6,14.7,37.9,11
	c56.3-13.5,111.4,25.7,117.5,83.2c0,1.8,0,3.1,0,4.9c0.6,5.5-1.8,9.2-6.7,11c-4.9,1.8-8.6,0.6-12.2-3.1c-9.2-9.2-19-18.4-28.2-28.2
	c-10.4-11-22-15.3-36.7-12.2c-6.7,1.2-13.5,1.8-20.2,3.1c-15.3,2.4-25.7,12.2-28.2,28.2c-1.2,8.6-2.4,16.5-3.7,25.1
	c-1.2,11.6,1.8,21.4,9.8,29.4c9.8,9.8,20.2,20.2,30,30c4.3,3.7,6.1,8.6,3.7,13.5c-2.4,4.9-6.7,6.1-12.2,5.5
	c-47.1-2.4-87.5-42.8-88.7-90c-0.6-10.4,1.2-20.8,3.1-30.6c2.4-12.9,0-23.3-9.2-32.4C385.6,523.9,372.1,510.4,359.2,497.6z"/>
<path fill="#F2F4FA" d="M243.6,340.9c40.4,41.6,80.8,82,120.6,123c-18.4,15.9-38.6,28.8-60,39.2c-5.5,2.4-10.4,4.9-15.9,6.7
	c-1.8,0.6-4.9,0-6.1-1.2c-27.5-28.2-55.1-56.3-82.6-84.5c-1.2-1.2-1.8-3.7-1.2-4.9C208.7,391.7,223.4,365.4,243.6,340.9z"/>
<path fill="#F2F4FA" d="M167.7,427.2c2.4,1.2,7.3,3.1,10.4,6.1c32.4,32.4,64.9,65.5,96.7,98.5c7.3,7.3,6.7,17.7,0,25.1
	c-6.7,6.7-17.1,6.7-24.5-0.6c-32.4-32.4-64.3-65.5-96.1-97.9c-5.5-5.5-6.7-12.9-3.7-20.2C153,430.9,158.5,427.8,167.7,427.2z"/>
</svg>
