<?xml version="1.0" encoding="utf-8"?>
<!-- Generator: Adobe Illustrator 18.1.1, SVG Export Plug-In . SVG Version: 6.00 Build 0)  -->
<svg version="1.1" id="Layer_1" xmlns="http://www.w3.org/2000/svg" xmlns:xlink="http://www.w3.org/1999/xlink" x="0px" y="0px"
	 viewBox="-230 322 150 150" enable-background="new -230 322 150 150" xml:space="preserve">
<title>Exceptional Workforce</title>
<g id="Exceptional_Workforce">
	<path fill="#FF0030" d="M-120,445l-11-9c-0.7-0.5-1.6-0.6-2.3-0.2c-3.2,1.8-6.6,3.2-10.1,4.2c-0.8,0.2-1.4,0.9-1.5,1.8l-1.4,14.2
		h-16.9l-1.4-14.2c-0.1-0.8-0.7-1.6-1.5-1.8c-3.5-1-6.9-2.4-10.1-4.2c-0.7-0.4-1.7-0.4-2.3,0.2l-11,9l-4.9-4.9l-2.9,2.9l6.3,6.3
		c0.7,0.7,1.9,0.8,2.8,0.1l11.4-9.3c2.7,1.4,5.5,2.6,8.5,3.5l1.5,14.7c0.1,1.1,1,1.9,2.1,1.9h20.6c1.1,0,1.9-0.8,2.1-1.9l1.5-14.7
		c2.9-0.9,5.8-2.1,8.5-3.5l11.4,9.3c0.8,0.7,2,0.6,2.8-0.1l6.3-6.3l-2.9-2.9L-120,445z"/>
	<path fill="#FF0030" d="M-94.9,385.8l-14.7-1.5c-0.9-2.9-2.1-5.8-3.5-8.5l9.3-11.4c0.7-0.8,0.6-2-0.1-2.8l-14.6-14.6
		c-0.7-0.7-1.9-0.8-2.8-0.1l-11.4,9.3c-2.7-1.4-5.5-2.6-8.5-3.5l-1.5-14.7c-0.1-1.1-1-1.9-2.1-1.9h-20.6c-1.1,0-2,0.8-2.1,1.9
		l-1.5,14.7c-2.9,0.9-5.8,2.1-8.5,3.5l-11.4-9.3c-0.8-0.7-2-0.6-2.8,0.1l-14.6,14.6c-0.7,0.7-0.8,1.9-0.1,2.8l9.3,11.4
		c-1.4,2.7-2.6,5.5-3.5,8.5l-14.7,1.5c-1.1,0.1-1.9,1-1.9,2.1v20.6c0,1.1,0.8,1.9,1.9,2.1l16,1.6l0.4-4.1l-14.2-1.4v-16.9l14.2-1.4
		c0.8-0.1,1.6-0.7,1.8-1.5c1-3.5,2.4-6.9,4.2-10.1c0.4-0.7,0.4-1.7-0.2-2.3l-9-11l12-12l11,9c0.7,0.5,1.6,0.6,2.3,0.2
		c3.2-1.8,6.6-3.2,10.1-4.2c0.8-0.2,1.4-0.9,1.5-1.8l1.4-14.2h16.9l1.4,14.2c0.1,0.8,0.7,1.6,1.5,1.8c3.5,1,6.9,2.4,10.1,4.2
		c0.7,0.4,1.7,0.4,2.3-0.2l11-9l12,12l-9,11c-0.5,0.7-0.6,1.6-0.2,2.3c1.8,3.2,3.2,6.6,4.2,10.1c0.2,0.8,0.9,1.4,1.8,1.5l14.2,1.4
		v16.9l-14.2,1.4l0.4,4.1l16-1.6c1.1-0.1,1.9-1,1.9-2.1v-20.6C-93,386.8-93.8,385.9-94.9,385.8z"/>
	<path fill="#FF0030" d="M-148.7,420.9h4.1v4.1h-4.1V420.9z"/>
	<path fill="#FF0030" d="M-121.7,408.7c-0.8-0.1-1.5-0.2-2.3-0.2h-8.3c-3.4,0-6.7,1.2-9.3,3.4c-2.6-2.2-5.9-3.4-9.3-3.4h-8.3
		c-0.8,0-1.5,0.1-2.3,0.2c-2.6,0.4-5,1.5-7,3.2c-2.6-2.2-5.9-3.4-9.2-3.4h-8.3c-0.8,0-1.5,0.1-2.3,0.2c-7,1.1-12.2,7.2-12.1,14.3
		v6.2c0,2.3,1.8,4.1,4.1,4.1h82.6c2.3,0,4.1-1.8,4.1-4.1V423C-109.5,415.9-114.6,409.8-121.7,408.7z M-125,412.6l-3.1,7.1l-3.1-7.1
		H-125z M-151.9,412.6l-3.1,7.1l-3.1-7.1H-151.9z M-178.7,412.6l-3.1,7.1l-3.1-7.1H-178.7z M-196.2,423c0-4.5,2.9-8.4,7.1-9.8
		l5.3,12.3v3.7h-12.4V423z M-179.7,429.1v-3.7l5.3-12.3c1.2,0.4,2.3,1,3.3,1.8c-1.6,2.4-2.4,5.1-2.4,8v6.2H-179.7z M-169.4,429.1
		V423c0-4.5,2.9-8.4,7.1-9.8l5.3,12.3v3.7L-169.4,429.1z M-152.9,429.1v-3.7l5.3-12.3c4.3,1.4,7.2,5.3,7.1,9.8v6.2H-152.9z
		 M-138.7,415c1-0.8,2.1-1.4,3.3-1.8l5.3,12.3v3.7h-6.2V423C-136.3,420.1-137.2,417.3-138.7,415z M-113.6,429.1H-126v-3.7l5.3-12.3
		c4.3,1.4,7.2,5.3,7.1,9.8L-113.6,429.1z"/>
	<path fill="#FF0030" d="M-144.6,398.2v-4.1c1.1,0,2.1-0.9,2.1-2.1v-2.1c0-5.7-4.6-10.3-10.3-10.3h-4.1c-5.7,0-10.3,4.6-10.3,10.3
		v2.1c0,1.1,0.9,2.1,2.1,2.1v4.1c0,5.7,4.6,10.3,10.3,10.3C-149.2,408.5-144.6,403.9-144.6,398.2
		C-144.6,398.2-144.6,398.2-144.6,398.2z M-157,383.7h4.1c3.4,0,6.2,2.8,6.2,6.2h-7.8l-3.7-1.8c-0.8-0.4-1.8-0.2-2.4,0.4l-1.5,1.5
		h-1.2C-163.2,386.5-160.4,383.7-157,383.7z M-154.9,404.4c-3.4,0-6.2-2.8-6.2-6.2v-4.1c0.5,0,1.1-0.2,1.5-0.6l1-1l2.8,1.4
		c0.3,0.1,0.6,0.2,0.9,0.2h6.2v4.1C-148.7,401.6-151.5,404.4-154.9,404.4z"/>
	<path fill="#FF0030" d="M-117.8,398.2v-4.1c1.1,0,2.1-0.9,2.1-2.1v-2.1c0-5.7-4.6-10.3-10.3-10.3h-4.1c-5.7,0-10.3,4.6-10.3,10.3
		v2.1c0,1.1,0.9,2.1,2.1,2.1v4.1c0,5.7,4.6,10.3,10.3,10.3C-122.4,408.5-117.8,403.9-117.8,398.2
		C-117.8,398.2-117.8,398.2-117.8,398.2z M-130.2,383.7h4.1c3.4,0,6.2,2.8,6.2,6.2h-7.8l-3.7-1.8c-0.8-0.4-1.8-0.2-2.4,0.4l-1.5,1.5
		h-1.2C-136.3,386.5-133.6,383.7-130.2,383.7z M-128.1,404.4c-3.4,0-6.2-2.8-6.2-6.2v-4.1c0.5,0,1.1-0.2,1.5-0.6l1-1l2.8,1.4
		c0.3,0.1,0.6,0.2,0.9,0.2h6.2v4.1C-121.9,401.6-124.7,404.4-128.1,404.4z"/>
	<path fill="#FF0030" d="M-171.4,398.2v-4.1c1.1,0,2.1-0.9,2.1-2.1v-2.1c0-5.7-4.6-10.3-10.3-10.3h-4.1c-5.7,0-10.3,4.6-10.3,10.3
		v2.1c0,1.1,0.9,2.1,2.1,2.1v4.1c0,5.7,4.6,10.3,10.3,10.3C-176.1,408.5-171.4,403.9-171.4,398.2z M-183.8,383.7h4.1
		c3.4,0,6.2,2.8,6.2,6.2h-7.8l-3.7-1.8c-0.8-0.4-1.8-0.2-2.4,0.4l-1.5,1.5h-1.2C-190,386.5-187.2,383.7-183.8,383.7z M-181.8,404.4
		c-3.4,0-6.2-2.8-6.2-6.2v-4.1c0.5,0,1.1-0.2,1.5-0.6l1-1l2.8,1.4c0.3,0.1,0.6,0.2,0.9,0.2h6.2v4.1
		C-175.6,401.6-178.3,404.4-181.8,404.4z"/>
	<path fill="#FF0030" d="M-133.7,378.5l3-2.8c-12.4-13.4-33.3-14.2-46.7-1.8c-0.6,0.6-1.2,1.2-1.8,1.8l3,2.8
		c10.9-11.7,29.1-12.4,40.8-1.5C-134.7,377.5-134.2,378-133.7,378.5z"/>
</g>
</svg>
