<?xml version="1.0" encoding="utf-8"?>
<!-- Generator: Adobe Illustrator 18.1.1, SVG Export Plug-In . SVG Version: 6.00 Build 0)  -->
<svg version="1.1" id="Layer_1" xmlns="http://www.w3.org/2000/svg" xmlns:xlink="http://www.w3.org/1999/xlink" x="0px" y="0px"
	 viewBox="0 0 612 792" enable-background="new 0 0 612 792" xml:space="preserve">
<g>
	<path fill="#F2F4FA" d="M593,94.9c10.4,4.9,13.5,12.9,12.9,23.9c-0.6,20.8,0,41,0,61.8c0,13.5-6.7,20.2-20.2,20.2
		c-22.6,0-44.7,0-67.3,0c-12.9,0-19.6-6.7-19.6-19.6c0-4.9,0-9.8,0-15.3c-23.3,0-47.1,0-71,0c5.5,4.3,11,7.3,15.9,11.6
		c49,37.9,77.7,88.1,86.9,149.3c1.8,11.6,3.7,19.6,15.9,26.3c21.4,11.6,28.2,39.2,19.6,62.4c-8,21.4-32.4,35.5-55.1,32.4
		c-23.3-3.1-42.2-20.2-45.9-41.6c-4.3-24.5,6.7-46.5,29.4-58.1c2.4-1.2,3.7-2.4,3.7-5.5c-6.1-55.1-30-100.4-73.4-135.3
		c-20.2-16.5-43.5-27.5-68.5-34.9c-3.1-0.6-4.3,0-6.1,2.4c-22,33.7-67.3,33.7-89.4,0c-1.8-3.1-3.7-3.1-6.7-2.4
		c-74.1,20.2-130.4,84.5-140.1,160.3c-1.2,8-1.2,13.5,8,18.4c19.6,11,27.5,31.8,23.9,54.5c-3.7,19.6-20.8,37.3-40.4,41
		c-22.6,4.3-41-3.1-54.5-21.4c-20.2-25.1-9.8-63,19.6-75.9c4.9-2.4,6.7-4.9,7.3-10.4c5.5-57.5,29.4-107.1,71.6-146.9
		c9.8-9.2,20.8-17.1,31.8-26.3c-22.6,0-45.9,0-69.8,0c0,4.9,0,10.4,0,15.3c0,12.9-7.3,19.6-19.6,19.6c-21.4,0-42.2-0.6-63.6,0
		c-11,0-19-3.1-23.9-12.9c0-26.9,0-53.2,0-80.2c3.7-4.3,8-8.6,12.2-12.9c26.9,0,53.9,0,81.4,0c16.5,6.7,12.2,22,12.9,35.5
		c2.4,0,4.9,0,6.7,0c42.8,0,86.3,0,129.1,0c5.5,0,9.8-0.6,11.6-6.7c1.2-3.7,3.7-6.1,6.1-9.2c8.6-11,20.2-15.9,33-19.6
		c4.9,0,9.2,0,14.1,0c1.2,0.6,1.8,1.2,2.4,1.2c18.4,3.7,31.2,14.1,39.2,31.2c0.6,1.8,4.3,3.1,6.7,3.1c44.7,0,88.7,0,133.4,0
		c1.8,0,3.7,0,5.5,0c0.6-13.5-3.7-28.2,12.9-35.5C539.2,94.9,566.1,94.9,593,94.9z"/>
	<path fill="#F2F4FA" d="M287,250.3c0,32.4,0,63,0,93.6c0,22.6,0,45.9,0,68.5c0,3.1-0.6,4.9-4.3,6.7c-20.2,9.2-33,30-31.2,50.8
		c2.4,24.5,17.1,42.2,40.4,48.3c24.5,6.1,53.2-8.6,61.8-32.4c9.2-26.3-1.2-54.5-26.3-66.1c-4.3-1.8-5.5-4.3-5.5-9.2
		c0-50.8,0-102.2,0-153c0-1.8,0-3.7,0-6.7c1.8,1.8,2.4,3.1,3.1,3.7c45.3,66.7,89.4,133.4,134,200.1c6.7,10.4,6.7,17.7-1.2,25.7
		c-31.2,32.4-50.2,70.4-59.4,114.4c0,1.2-0.6,1.8-0.6,3.1c-1.8-0.6-3.1-0.6-4.3-1.2c-12.2-1.8-25.1-5.5-37.3-6.1
		c-33.7-0.6-67.3-0.6-101,0c-14.1,0.6-27.5,3.7-42.2,5.5c-1.2-5.5-3.1-12.9-4.9-20.2c-9.8-35.5-27.5-66.7-53.2-93.6
		c-10.4-11-10.4-17.1-2.4-30c43.5-65.5,87.5-131,131-196.5C284,254.6,285.2,253.4,287,250.3z"/>
	<path fill="#F2F4FA" d="M304.8,697.7c-33,0-66.1,0-99.1,0c-3.1,0-6.7,0-9.8-1.2c-9.2-3.1-13.5-12.9-10.4-22
		c10.4-28.8,36.1-48.3,66.7-48.3c34.9-0.6,70.4-0.6,105.3,0c30.6,0.6,55.1,18.4,66.1,47.7c4.3,11.6-2.4,23.3-15.3,23.9
		c-1.8,0-3.7,0-6.1,0C370.3,697.7,337.2,697.7,304.8,697.7z"/>
	<path fill="#F2F4FA" d="M322.5,467c0,9.8-8,17.7-17.7,17.7s-17.7-8-17.7-17.7c0-9.8,8-17.7,17.7-17.7
		C314,449.2,322.5,457.2,322.5,467z"/>
</g>
</svg>
