<?xml version="1.0" encoding="utf-8"?>
<!-- Generator: Adobe Illustrator 25.4.1, SVG Export Plug-In . SVG Version: 6.00 Build 0)  -->
<svg version="1.1" id="Layer_1" xmlns="http://www.w3.org/2000/svg" xmlns:xlink="http://www.w3.org/1999/xlink" x="0px" y="0px"
	 viewBox="0 0 100 100" style="enable-background:new 0 0 100 100;" xml:space="preserve">
<style type="text/css">
	.st0{fill:#E20031;}
</style>
<g>
	<path class="st0" d="M96.9,0.8c1.7,0.8,2.2,2.1,2.1,3.9c-0.1,3.4,0,6.7,0,10.1c0,2.2-1.1,3.3-3.3,3.3c-3.7,0-7.3,0-11,0
		c-2.1,0-3.2-1.1-3.2-3.2c0-0.8,0-1.6,0-2.5c-3.8,0-7.7,0-11.6,0c0.9,0.7,1.8,1.2,2.6,1.9c8,6.2,12.7,14.4,14.2,24.4
		c0.3,1.9,0.6,3.2,2.6,4.3c3.5,1.9,4.6,6.4,3.2,10.2c-1.3,3.5-5.3,5.8-9,5.3c-3.8-0.5-6.9-3.3-7.5-6.8c-0.7-4,1.1-7.6,4.8-9.5
		c0.4-0.2,0.6-0.4,0.6-0.9c-1-9-4.9-16.4-12-22.1c-3.3-2.7-7.1-4.5-11.2-5.7c-0.5-0.1-0.7,0-1,0.4c-3.6,5.5-11,5.5-14.6,0
		c-0.3-0.5-0.6-0.5-1.1-0.4c-12.1,3.3-21.3,13.8-22.9,26.2c-0.2,1.3-0.2,2.2,1.3,3c3.2,1.8,4.5,5.2,3.9,8.9
		c-0.6,3.2-3.4,6.1-6.6,6.7c-3.7,0.7-6.7-0.5-8.9-3.5C5,50.7,6.7,44.5,11.5,42.4c0.8-0.4,1.1-0.8,1.2-1.7c0.9-9.4,4.8-17.5,11.7-24
		c1.6-1.5,3.4-2.8,5.2-4.3c-3.7,0-7.5,0-11.4,0c0,0.8,0,1.7,0,2.5c0,2.1-1.2,3.2-3.2,3.2c-3.5,0-6.9-0.1-10.4,0
		c-1.8,0-3.1-0.5-3.9-2.1c0-4.4,0-8.7,0-13.1C1.3,2.2,2,1.5,2.7,0.8c4.4,0,8.8,0,13.3,0c2.7,1.1,2,3.6,2.1,5.8c0.4,0,0.8,0,1.1,0
		c7,0,14.1,0,21.1,0c0.9,0,1.6-0.1,1.9-1.1c0.2-0.6,0.6-1,1-1.5c1.4-1.8,3.3-2.6,5.4-3.2c0.8,0,1.5,0,2.3,0C51.1,0.9,51.2,1,51.3,1
		c3,0.6,5.1,2.3,6.4,5.1c0.1,0.3,0.7,0.5,1.1,0.5c7.3,0,14.5,0,21.8,0c0.3,0,0.6,0,0.9,0c0.1-2.2-0.6-4.6,2.1-5.8
		C88.1,0.8,92.5,0.8,96.9,0.8z"/>
	<path class="st0" d="M46.9,26.2c0,5.3,0,10.3,0,15.3c0,3.7,0,7.5,0,11.2c0,0.5-0.1,0.8-0.7,1.1c-3.3,1.5-5.4,4.9-5.1,8.3
		c0.4,4,2.8,6.9,6.6,7.9c4,1,8.7-1.4,10.1-5.3c1.5-4.3-0.2-8.9-4.3-10.8c-0.7-0.3-0.9-0.7-0.9-1.5c0-8.3,0-16.7,0-25
		c0-0.3,0-0.6,0-1.1c0.3,0.3,0.4,0.5,0.5,0.6C60.5,37.8,67.7,48.7,75,59.6c1.1,1.7,1.1,2.9-0.2,4.2c-5.1,5.3-8.2,11.5-9.7,18.7
		c0,0.2-0.1,0.3-0.1,0.5c-0.3-0.1-0.5-0.1-0.7-0.2c-2-0.3-4.1-0.9-6.1-1c-5.5-0.1-11-0.1-16.5,0c-2.3,0.1-4.5,0.6-6.9,0.9
		c-0.2-0.9-0.5-2.1-0.8-3.3c-1.6-5.8-4.5-10.9-8.7-15.3c-1.7-1.8-1.7-2.8-0.4-4.9c7.1-10.7,14.3-21.4,21.4-32.1
		C46.4,26.9,46.6,26.7,46.9,26.2z"/>
	<path class="st0" d="M49.8,99.3c-5.4,0-10.8,0-16.2,0c-0.5,0-1.1,0-1.6-0.2c-1.5-0.5-2.2-2.1-1.7-3.6c1.7-4.7,5.9-7.9,10.9-7.9
		c5.7-0.1,11.5-0.1,17.2,0c5,0.1,9,3,10.8,7.8c0.7,1.9-0.4,3.8-2.5,3.9c-0.3,0-0.6,0-1,0C60.5,99.3,55.1,99.3,49.8,99.3z"/>
	<path class="st0" d="M52.7,61.6c0,1.6-1.3,2.9-2.9,2.9c-1.6,0-2.9-1.3-2.9-2.9c0-1.6,1.3-2.9,2.9-2.9C51.3,58.7,52.7,60,52.7,61.6z
		"/>
</g>
</svg>
