<?xml version="1.0" encoding="utf-8"?>
<!-- Generator: Adobe Illustrator 18.1.1, SVG Export Plug-In . SVG Version: 6.00 Build 0)  -->
<svg version="1.1" id="Layer_1" xmlns="http://www.w3.org/2000/svg" xmlns:xlink="http://www.w3.org/1999/xlink" x="0px" y="0px"
	 viewBox="-230 322 150 150" enable-background="new -230 322 150 150" xml:space="preserve">
<title>Marketing-Driven ROI</title>
<g id="Marketing-Driven_ROI">
	<path fill="#FE214F" d="M-149.6,434.9h-3.8c-1,0-1.9-0.9-1.9-1.9c0-1,0.8-1.9,1.9-1.9h7.6v-3.8h-3.8v-3.8h-3.8v3.8
		c-3.1,0-5.7,2.5-5.7,5.7s2.5,5.7,5.7,5.7h3.8c1,0,1.9,0.9,1.9,1.9c0,1-0.8,1.9-1.9,1.9h-7.6v3.8h3.8v3.8h3.8v-3.8
		c3.1,0,5.7-2.5,5.7-5.7S-146.5,434.9-149.6,434.9z"/>
	<path fill="#FE214F" d="M-144.5,383.2l-2.7-2.7l-2.4,2.4v-12.5h-3.8V383l-2.4-2.4l-2.7,2.7l7,7L-144.5,383.2z"/>
	<path fill="#FE214F" d="M-151.5,416c-11.5,0-20.8,9.3-20.8,20.8c0,11.5,9.3,20.8,20.8,20.8c11.5,0,20.8-9.3,20.8-20.8v0
		C-130.7,425.3-140,416-151.5,416C-151.5,416-151.5,416-151.5,416z M-151.5,453.9c-9.4,0-17-7.6-17-17c0-9.4,7.6-17,17-17
		c9.4,0,17,7.6,17,17c0,0,0,0,0,0C-134.5,446.2-142.1,453.9-151.5,453.9C-151.5,453.9-151.5,453.9-151.5,453.9z"/>
	<path fill="#FE214F" d="M-144.8,339.9l-2.1-3.2l-4.6,3.1l-4.6-3.1l-2.1,3.2l6.7,4.5L-144.8,339.9z"/>
	<path fill="#FE214F" d="M-144.8,350.3l-2.1-3.2l-4.6,3.1l-4.6-3.1l-2.1,3.2l6.7,4.5L-144.8,350.3z"/>
	<path fill="#FE214F" d="M-120.2,339.9l-2.1-3.2l-4.6,3.1l-4.6-3.1l-2.1,3.2l6.7,4.5L-120.2,339.9z"/>
	<path fill="#FE214F" d="M-120.2,350.3l-2.1-3.2l-4.6,3.1l-4.6-3.1l-2.1,3.2l6.7,4.5L-120.2,350.3z"/>
	<path fill="#FE214F" d="M-169.4,339.9l-2.1-3.2l-4.6,3.1l-4.6-3.1l-2.1,3.2l6.7,4.5L-169.4,339.9z"/>
	<path fill="#FE214F" d="M-169.4,350.3l-2.1-3.2l-4.6,3.1l-4.6-3.1l-2.1,3.2l6.7,4.5L-169.4,350.3z"/>
	<path fill="#FE214F" d="M-161,412.7l18.9-4.7v-12.1l24.6-24.6v-12.1h-68.2v12.1l24.6,24.6V412.7z M-181.8,369.8V363h60.6v6.8
		l-24.6,24.6V405l-11.4,2.8v-13.5L-181.8,369.8z"/>
	<path fill="#FE214F" d="M-109.8,412.2h3.8v45.5h-3.8V412.2z"/>
	<path fill="#FE214F" d="M-117.4,419.8h3.8v37.9h-3.8L-117.4,419.8z"/>
	<path fill="#FE214F" d="M-197,412.2h3.8v45.5h-3.8V412.2z"/>
	<path fill="#FE214F" d="M-189.4,419.8h3.8v37.9h-3.8V419.8z"/>
	<path fill="#FE214F" d="M-125,427.4h3.8v30.3h-3.8V427.4z"/>
	<path fill="#FE214F" d="M-181.8,427.4h3.8v30.3h-3.8V427.4z"/>
	<path fill="#FE214F" d="M-181.8,419.8h3.8v3.8h-3.8V419.8z"/>
	<path fill="#FE214F" d="M-189.4,412.2h3.8v3.8h-3.8V412.2z"/>
	<path fill="#FE214F" d="M-197,404.6h3.8v3.8h-3.8V404.6z"/>
	<path fill="#FE214F" d="M-125,419.8h3.8v3.8h-3.8V419.8z"/>
	<path fill="#FE214F" d="M-117.4,412.2h3.8v3.8h-3.8L-117.4,412.2z"/>
	<path fill="#FE214F" d="M-109.8,404.6h3.8v3.8h-3.8V404.6z"/>
</g>
</svg>
