<?xml version="1.0" encoding="utf-8"?>
<!-- Generator: Adobe Illustrator 18.1.1, SVG Export Plug-In . SVG Version: 6.00 Build 0)  -->
<svg version="1.1" id="Layer_1" xmlns="http://www.w3.org/2000/svg" xmlns:xlink="http://www.w3.org/1999/xlink" x="0px" y="0px"
	 viewBox="-230 322 150 150" enable-background="new -230 322 150 150" xml:space="preserve">
<title>Marketing Automation</title>
<g id="Marketing_Automation">
	<path fill="#FE214F" d="M-127.7,386.6c-2.7,0-4.9,1.9-5.4,4.6c-5.4,5.3-12.7,8.2-20.3,8.2h-3.5c-5,0-9.1,4.1-9.1,9.1
		c0,4.5,3.3,8.3,7.7,9l3.7,12.9h10.5v-11.3c4.1,1.4,7.9,3.6,11,6.7c0.5,3,3.3,5,6.3,4.5c2.6-0.4,4.6-2.7,4.6-5.4v-32.8
		C-122.2,389.1-124.7,386.6-127.7,386.6z M-151.4,402.9c6.6-0.4,13-2.8,18.2-6.8v24.8c-5.2-4.1-11.6-6.5-18.2-6.8L-151.4,402.9z
		 M-162.3,408.5c0-3,2.5-5.5,5.5-5.5h1.8V414h-1.8C-159.9,414-162.3,411.5-162.3,408.5z M-147.8,426.7h-4.1l-2.6-9.1h1.1
		c1.9,0,3.8,0.2,5.6,0.5L-147.8,426.7L-147.8,426.7z M-125.9,424.9c0,1-0.8,1.8-1.8,1.8c-1,0-1.8-0.8-1.8-1.8v-32.8
		c0-1,0.8-1.8,1.8-1.8c1,0,1.8,0.8,1.8,1.8L-125.9,424.9z"/>
	<path fill="#FE214F" d="M-144.1,375.7c-18.1,0-32.8,14.7-32.8,32.8s14.7,32.8,32.8,32.8s32.8-14.7,32.8-32.8l0,0
		C-111.3,390.4-126,375.7-144.1,375.7z M-144.1,437.7c-16.1,0-29.2-13.1-29.2-29.2c0-16.1,13.1-29.2,29.2-29.2s29.2,13.1,29.2,29.2
		l0,0C-115,424.6-128,437.7-144.1,437.7z"/>
	<path fill="#FE214F" d="M-105.4,398.2c-0.9-3.4-2.3-6.8-4.1-9.8l2.4-4.7l-12.2-12.2l-4.7,2.4c-3.1-1.8-6.4-3.2-9.8-4.1l-1.7-5
		h-17.2l-1.7,5c-3.4,0.9-6.8,2.3-9.8,4.1l-4.7-2.4l-12.2,12.2l2.4,4.7c-1.8,3.1-3.2,6.4-4.1,9.8l-5,1.7v17.2l5,1.7
		c0.9,3.4,2.3,6.8,4.1,9.8l-2.4,4.7l12.2,12.2l4.7-2.4c3.1,1.8,6.4,3.2,9.8,4.1l1.7,5h17.2l1.7-5c3.4-0.9,6.8-2.3,9.8-4.1l4.7,2.4
		l12.2-12.2l-2.4-4.7c1.8-3.1,3.2-6.4,4.1-9.8l5-1.7v-17.2L-105.4,398.2z M-104,414.5l-4.4,1.5l-0.2,1c-0.9,3.8-2.4,7.3-4.4,10.6
		l-0.5,0.9l2.1,4.2l-8.5,8.5l-4.2-2.1l-0.9,0.5c-3.3,2-6.9,3.5-10.6,4.4l-1,0.2l-1.5,4.4h-12l-1.5-4.4l-1-0.2
		c-3.8-0.9-7.3-2.4-10.6-4.4l-0.9-0.5l-4.2,2.1l-8.5-8.5l2.1-4.2l-0.5-0.9c-2-3.3-3.5-6.9-4.4-10.6l-0.2-1l-4.4-1.5v-12l4.4-1.5
		l0.2-1c0.9-3.8,2.4-7.4,4.4-10.6l0.5-0.9l-2.1-4.2l8.5-8.5l4.2,2.1l0.9-0.5c3.3-2,6.9-3.5,10.6-4.4l1-0.2l1.5-4.4h12l1.5,4.4l1,0.2
		c3.8,0.9,7.3,2.4,10.6,4.4l0.9,0.5l4.2-2.1l8.5,8.5l-2.1,4.2l0.5,0.9c2,3.3,3.5,6.9,4.4,10.6l0.2,1l4.4,1.5L-104,414.5z"/>
	<path fill="#FE214F" d="M-187.9,426.7c0-4-3.3-7.3-7.3-7.3c-1,0-2.1,0.2-3,0.7c-9.6-14.4-10.5-32.8-2.6-48.1h27.5v-23.2
		c9.5-3,19.8-3,29.3,0c-0.7,3.9,1.8,7.7,5.7,8.4c0.5,0.1,1,0.1,1.4,0.1c2,0,4-0.9,5.3-2.3c5.4,3.8,9.9,8.7,13.4,14.3l3.1-1.9
		c-3.8-6.2-8.8-11.5-14.8-15.6c0.1-0.6,0.2-1.1,0.2-1.7c0-4-3.2-7.3-7.2-7.3c-2.2,0-4.3,1-5.7,2.7c-10-3.3-20.8-3.5-30.9-0.5v-5.8
		h-40.1V372h8.6c-3.2,6.8-4.9,14.3-4.9,21.9c0,10.2,3,20.1,8.7,28.5c-0.9,1.2-1.4,2.8-1.4,4.3c0,4,3.3,7.3,7.3,7.3
		c1.3,0,2.6-0.4,3.7-1c2.6,2.2,5.3,4.1,8.3,5.7l1.8-3.2c-2.6-1.5-5.1-3.1-7.4-5.1C-188.2,429.3-187.9,428-187.9,426.7L-187.9,426.7z
		 M-136.8,346.5c2,0,3.6,1.6,3.6,3.6s-1.6,3.6-3.6,3.6s-3.6-1.6-3.6-3.6C-140.5,348.1-138.8,346.5-136.8,346.5z M-187.1,358.9
		l10.2-12.7v20.3L-187.1,358.9z M-190.6,357.5h-5.5l-11.7-14.6h28.9L-190.6,357.5z M-199.6,358.9l-10.2,7.6v-20.3L-199.6,358.9z
		 M-196.4,361.1h6.1l9.7,7.3h-25.5L-196.4,361.1z M-198.8,426.7c0-2,1.6-3.6,3.6-3.6s3.6,1.6,3.6,3.6c0,2-1.6,3.6-3.6,3.6
		c0,0,0,0,0,0C-197.2,430.4-198.8,428.8-198.8,426.7z"/>
</g>
</svg>
