<svg xmlns="http://www.w3.org/2000/svg" width="150" height="150" viewBox="0 0 150 150"><defs><style>.cls-1{fill:#fff;}</style></defs><title>Marketing-Driven ROI</title><g id="Marketing-Driven_ROI" data-name="Marketing-Driven ROI"><path class="cls-1" d="M80.38275,112.93147H76.59514a1.89381,1.89381,0,0,1,0-3.78761h7.57522v-3.78761H80.38275v-3.78761H76.59514v3.78761a5.68141,5.68141,0,0,0,0,11.36282h3.78761a1.89381,1.89381,0,0,1,0,3.78761H72.80753v3.78761h3.78761v3.78761h3.78761v-3.78761a5.68141,5.68141,0,0,0,0-11.36282Z"/><path class="cls-1" d="M85.50934,61.24392l-2.678-2.678L80.38275,61.0146V48.54212H76.59514V61.0146L74.14651,58.566l-2.678,2.678,7.0204,7.0204Z"/><path class="cls-1" d="M78.489,93.99342a20.83185,20.83185,0,1,0,20.83184,20.83185A20.83169,20.83169,0,0,0,78.489,93.99342Zm0,37.87609a17.04424,17.04424,0,1,1,17.04423-17.04424A17.0439,17.0439,0,0,1,78.489,131.86951Z"/><path class="cls-1" d="M85.22175,17.92315,83.119,14.77174l-4.63,3.08668-4.63-3.08668-2.10279,3.15141L78.489,22.41169Z"/><path class="cls-1" d="M85.22175,28.33908,83.119,25.18767l-4.63,3.08668-4.63-3.08668-2.10279,3.15141L78.489,32.82761Z"/><path class="cls-1" d="M109.84121,17.92315l-2.10279-3.15141-4.63,3.08668-4.63-3.08668-2.10279,3.15141,6.73281,4.48854Z"/><path class="cls-1" d="M109.84121,28.33908l-2.10279-3.15141-4.63,3.08668-4.63-3.08668-2.10279,3.15141,6.73281,4.48853Z"/><path class="cls-1" d="M60.6023,17.92315l-2.10279-3.15141-4.63,3.08668-4.63-3.08668-2.10279,3.15141,6.73281,4.48854Z"/><path class="cls-1" d="M60.6023,28.33908l-2.10279-3.15141-4.63,3.08668-4.63-3.08668-2.10279,3.15141,6.73281,4.48853Z"/><path class="cls-1" d="M69.01992,90.73752,87.958,86.003V73.94573l24.61945-24.61946v-12.147H44.40047v12.147L69.01992,73.94573ZM48.18808,47.758V40.9669h60.60173V47.758L84.17036,72.37742V83.04487l-11.36283,2.8407V72.37742Z"/><path class="cls-1" d="M120.15264,90.20581h3.78761v45.45131h-3.78761Z"/><path class="cls-1" d="M112.57742,97.781H116.365v37.87609h-3.78761Z"/><path class="cls-1" d="M33.03764,90.20581h3.78761v45.45131H33.03764Z"/><path class="cls-1" d="M40.61286,97.781h3.78761v37.87609H40.61286Z"/><path class="cls-1" d="M105.00221,105.35625h3.7876v30.30087h-3.7876Z"/><path class="cls-1" d="M48.18808,105.35625h3.78761v30.30087H48.18808Z"/><path class="cls-1" d="M48.18808,97.781h3.78761v3.78761H48.18808Z"/><path class="cls-1" d="M40.61286,90.20581h3.78761v3.78761H40.61286Z"/><path class="cls-1" d="M33.03764,82.6306h3.78761v3.78761H33.03764Z"/><path class="cls-1" d="M105.00221,97.781h3.7876v3.78761h-3.7876Z"/><path class="cls-1" d="M112.57742,90.20581H116.365v3.78761h-3.78761Z"/><path class="cls-1" d="M120.15264,82.6306h3.78761v3.78761h-3.78761Z"/></g></svg>