<svg xmlns="http://www.w3.org/2000/svg" width="150" height="150" viewBox="0 0 150 150"><defs><style>.cls-1{fill:#fff;}</style></defs><title>Monitor ORM</title><g id="Monitor_ORM" data-name="Monitor ORM"><path class="cls-1" d="M121.96417,20.105H85.83782a2.24388,2.24388,0,0,0,0,4.48775h36.12635a6.73925,6.73925,0,0,1,6.73161,6.73161v51.437H84.7123a27.07112,27.07112,0,1,0-45.10991-4.65537L34.77492,82.9334H22.785V31.32434a6.73925,6.73925,0,0,1,6.73161-6.73161H65.643a2.24388,2.24388,0,1,0,0-4.48775H29.51663A11.2321,11.2321,0,0,0,18.29727,31.32434V92.35767a11.2653,11.2653,0,0,0,1.54222,5.67183,8.27435,8.27435,0,0,0,12.58385,10.66042l5.11289-5.11289H59.23806L57.14633,111.655H54.648a7.18039,7.18039,0,0,0,0,14.36078H96.8328a7.18039,7.18039,0,1,0,0-14.36078H94.33447L92.24273,103.577h29.72144a11.2321,11.2321,0,0,0,11.21936-11.21936V31.32434A11.2321,11.2321,0,0,0,121.96417,20.105ZM63.68026,43.14237A22.58817,22.58817,0,1,1,41.0921,65.73053,22.61358,22.61358,0,0,1,63.68026,43.14237ZM30.28718,87.42115l-7.13641,7.13641a6.7208,6.7208,0,0,1-.36576-2.19989V87.42115Zm-1.03712,18.09548a3.787,3.787,0,1,1-5.35568-5.35567l18.159-18.159A27.30032,27.30032,0,0,0,47.409,87.35765Zm70.27538,13.31872a2.69565,2.69565,0,0,1-2.69265,2.69265H54.648a2.69265,2.69265,0,0,1,0-5.3853h42.1848A2.69565,2.69565,0,0,1,99.52544,118.83535ZM89.69862,111.655H61.78216l2.09151-8.07794H87.60711Zm32.26554-12.56568H42.024l9.28087-9.28088A27.02575,27.02575,0,0,0,80.09305,87.249h48.60272v5.10862a6.73927,6.73927,0,0,1-6.73162,6.73162Z"/><path class="cls-1" d="M63.68026,77.47339A19.847,19.847,0,0,0,81.3245,66.76877a2.244,2.244,0,0,0,0-2.07648,19.89385,19.89385,0,0,0-35.2887,0,2.244,2.244,0,0,0,0,2.07648A19.8471,19.8471,0,0,0,63.68026,77.47339Zm0-15.408a3.66514,3.66514,0,1,1-3.66514,3.66514A3.66918,3.66918,0,0,1,63.68026,62.06539Zm13.07257,3.66514a15.36859,15.36859,0,0,1-8.0537,6.41793,8.13842,8.13842,0,0,0,0-12.83585A15.36862,15.36862,0,0,1,76.75283,65.73053ZM58.66139,59.31261a8.1384,8.1384,0,0,0,0,12.83585,15.36714,15.36714,0,0,1-8.05393-6.41793A15.36993,15.36993,0,0,1,58.66139,59.31261Z"/><path class="cls-1" d="M96.24849,47.73984a2.24383,2.24383,0,0,0,2.24387,2.24387h22.57426a2.24387,2.24387,0,1,0,0-4.48774H98.49236A2.244,2.244,0,0,0,96.24849,47.73984Z"/><path class="cls-1" d="M121.06662,39.21312a2.24387,2.24387,0,1,0,0-4.48774h-12.99a2.24387,2.24387,0,0,0,0,4.48774Z"/><path class="cls-1" d="M98.30253,34.72605a2.24854,2.24854,0,1,0,1.58642.65746A2.25989,2.25989,0,0,0,98.30253,34.72605Z"/><path class="cls-1" d="M122.65281,60.09751a2.2419,2.2419,0,1,0-1.58619.65768A2.26051,2.26051,0,0,0,122.65281,60.09751Z"/><path class="cls-1" d="M109.77994,60.755a2.24507,2.24507,0,1,0-1.58642-.65768A2.25918,2.25918,0,0,0,109.77994,60.755Z"/><path class="cls-1" d="M100.07968,60.09751a2.24488,2.24488,0,1,0-1.58642.65768A2.25812,2.25812,0,0,0,100.07968,60.09751Z"/><path class="cls-1" d="M98.49236,71.52488h7.20373a2.24387,2.24387,0,1,0,0-4.48774H98.49236a2.24387,2.24387,0,0,0,0,4.48774Z"/><path class="cls-1" d="M113.32526,69.281a2.244,2.244,0,0,0,2.24387,2.24387h7.39132a2.24387,2.24387,0,0,0,0-4.48774h-7.39132A2.24411,2.24411,0,0,0,113.32526,69.281Z"/><path class="cls-1" d="M75.7404,24.59273a2.24507,2.24507,0,1,0-1.58642-.65768A2.2592,2.2592,0,0,0,75.7404,24.59273Z"/></g></svg>