<?xml version="1.0" encoding="utf-8"?>
<!-- Generator: Adobe Illustrator 18.1.1, SVG Export Plug-In . SVG Version: 6.00 Build 0)  -->
<svg version="1.1" id="Layer_1" xmlns="http://www.w3.org/2000/svg" xmlns:xlink="http://www.w3.org/1999/xlink" x="0px" y="0px"
	 viewBox="-230 322 150 150" enable-background="new -230 322 150 150" xml:space="preserve">
<title>Monitor ORM</title>
<g id="Monitor_ORM">
	<path fill="#FE214F" d="M-108,342.1h-36.1c-1.2,0-2.2,1-2.2,2.2c0,1.2,1,2.2,2.2,2.2h36.1c3.7,0,6.7,3,6.7,6.7v51.4h-44
		c9.4-11.6,7.6-28.7-4-38.1c-11.6-9.4-28.7-7.6-38.1,4c-6.8,8.3-7.9,19.9-3,29.4l-4.8,4.8h-12v-51.6c0-3.7,3-6.7,6.7-6.7h36.1
		c1.2,0,2.2-1,2.2-2.2c0-1.2-1-2.2-2.2-2.2c0,0,0,0,0,0h-36.1c-6.2,0-11.2,5-11.2,11.2v61c0,2,0.5,4,1.5,5.7
		c-2.7,3.7-1.8,8.9,1.9,11.5c3.3,2.4,7.8,2,10.7-0.9l5.1-5.1h21.7l-2.1,8.1h-2.5c-4,0-7.2,3.2-7.2,7.2c0,4,3.2,7.2,7.2,7.2h42.2
		c4,0,7.2-3.2,7.2-7.2c0-4-3.2-7.2-7.2-7.2c0,0,0,0,0,0h-2.5l-2.1-8.1h29.7c6.2,0,11.2-5,11.2-11.2v-61
		C-96.8,347.1-101.8,342.1-108,342.1z M-166.3,365.1c12.5,0,22.6,10.1,22.6,22.6s-10.1,22.6-22.6,22.6c-12.5,0-22.6-10.1-22.6-22.6
		c0,0,0,0,0,0C-188.9,375.3-178.8,365.2-166.3,365.1z M-199.7,409.4l-7.1,7.1c-0.2-0.7-0.4-1.5-0.4-2.2v-4.9H-199.7z M-200.7,427.5
		c-1.5,1.5-3.9,1.5-5.4,0c-1.5-1.5-1.5-3.9,0-5.4l18.2-18.2c1.5,2,3.3,3.8,5.4,5.4L-200.7,427.5z M-130.5,440.8
		c0,1.5-1.2,2.7-2.7,2.7h-42.2c-1.5,0-2.7-1.2-2.7-2.7c0-1.5,1.2-2.7,2.7-2.7h42.2C-131.7,438.1-130.5,439.3-130.5,440.8z
		 M-140.3,433.7h-27.9l2.1-8.1h23.7L-140.3,433.7z M-108,421.1H-188l9.3-9.3c9.3,4.8,20.5,3.8,28.8-2.6h48.6v5.1
		C-101.3,418.1-104.3,421.1-108,421.1L-108,421.1z"/>
	<path fill="#FE214F" d="M-166.3,399.5c7.4,0,14.2-4.1,17.6-10.7c0.3-0.7,0.3-1.4,0-2.1c-5.1-9.7-17.1-13.5-26.8-8.5
		c-3.6,1.9-6.6,4.8-8.5,8.5c-0.3,0.7-0.3,1.4,0,2.1C-180.5,395.4-173.7,399.5-166.3,399.5z M-166.3,384.1c2,0,3.7,1.6,3.7,3.7
		s-1.6,3.7-3.7,3.7s-3.7-1.6-3.7-3.7C-170,385.7-168.3,384.1-166.3,384.1z M-153.2,387.7c-1.9,3-4.7,5.3-8.1,6.4
		c3.5-2.8,4.2-7.9,1.4-11.4c-0.4-0.5-0.9-1-1.4-1.4C-158,382.5-155.1,384.7-153.2,387.7z M-171.3,381.3c-3.5,2.8-4.2,7.9-1.4,11.4
		c0.4,0.5,0.9,1,1.4,1.4c-3.3-1.1-6.2-3.4-8.1-6.4C-177.5,384.7-174.7,382.5-171.3,381.3z"/>
	<path fill="#FE214F" d="M-133.8,369.7c0,1.2,1,2.2,2.2,2.2c0,0,0,0,0,0h22.6c1.2,0,2.2-1,2.2-2.2c0-1.2-1-2.2-2.2-2.2c0,0,0,0,0,0
		h-22.6C-132.7,367.5-133.8,368.5-133.8,369.7z"/>
	<path fill="#FE214F" d="M-108.9,361.2c1.2,0,2.2-1,2.2-2.2s-1-2.2-2.2-2.2c0,0,0,0,0,0h-13c-1.2,0-2.2,1-2.2,2.2
		c0,1.2,1,2.2,2.2,2.2H-108.9z"/>
	<path fill="#FE214F" d="M-131.7,356.7c-1.2,0-2.2,1-2.3,2.2s1,2.2,2.2,2.3c1.2,0,2.2-1,2.3-2.2c0-0.6-0.2-1.2-0.7-1.6
		C-130.5,357-131.1,356.7-131.7,356.7z"/>
	<path fill="#FE214F" d="M-107.3,382.1c0.9-0.9,0.9-2.3,0-3.2c-0.9-0.9-2.3-0.9-3.2,0c-0.9,0.9-0.9,2.3,0,3.2c0.4,0.4,1,0.7,1.6,0.7
		C-108.3,382.8-107.8,382.5-107.3,382.1z"/>
	<path fill="#FE214F" d="M-120.2,382.8c1.2,0,2.2-1,2.2-2.2c0-1.2-1-2.2-2.2-2.2c-1.2,0-2.2,1-2.2,2.2c0,0.6,0.2,1.2,0.7,1.6
		C-121.4,382.5-120.8,382.8-120.2,382.8z"/>
	<path fill="#FE214F" d="M-129.9,382.1c0.9-0.9,0.9-2.3,0-3.2s-2.3-0.9-3.2,0c-0.9,0.9-0.9,2.3,0,3.2c0.4,0.4,1,0.7,1.6,0.7
		C-130.9,382.8-130.3,382.5-129.9,382.1z"/>
	<path fill="#FE214F" d="M-131.5,393.5h7.2c1.2,0,2.2-1,2.2-2.2s-1-2.2-2.2-2.2c0,0,0,0,0,0h-7.2c-1.2,0-2.2,1-2.2,2.2
		C-133.7,392.5-132.7,393.5-131.5,393.5z"/>
	<path fill="#FE214F" d="M-116.7,391.3c0,1.2,1,2.2,2.2,2.2h7.4c1.2,0,2.2-1,2.2-2.2c0-1.2-1-2.2-2.2-2.2h-7.4
		C-115.7,389-116.7,390-116.7,391.3z"/>
	<path fill="#FE214F" d="M-154.3,346.6c1.2,0,2.2-1,2.2-2.2c0-1.2-1-2.2-2.2-2.2c-1.2,0-2.2,1-2.2,2.2c0,0.6,0.2,1.2,0.7,1.6
		C-155.4,346.4-154.9,346.6-154.3,346.6z"/>
</g>
</svg>
