<?xml version="1.0" encoding="utf-8"?>
<!-- Generator: Adobe Illustrator 18.1.1, SVG Export Plug-In . SVG Version: 6.00 Build 0)  -->
<svg version="1.1" id="Layer_1" xmlns="http://www.w3.org/2000/svg" xmlns:xlink="http://www.w3.org/1999/xlink" x="0px" y="0px"
	 viewBox="-230 322 150 150" enable-background="new -230 322 150 150" xml:space="preserve">
<title>Speedy Output</title>
<g id="Speedy_Output">
	<path fill="#FF0030" d="M-138.5,436c18.8,0,34-15.2,34-34s-15.2-34-34-34s-34,15.2-34,34c0,0,0,0,0,0
		C-172.5,420.8-157.3,436-138.5,436z M-163.9,400.2h-5c0.4-6.8,3.1-13.2,7.6-18.3l3.5,3.5c0.7,0.7,1.9,0.7,2.6,0
		c0.7-0.7,0.7-1.9,0-2.6l-3.5-3.5c5.1-4.5,11.5-7.2,18.3-7.6v5c0,1,0.8,1.8,1.8,1.8s1.8-0.8,1.8-1.8v-5c6.8,0.4,13.2,3.1,18.3,7.6
		l-3.5,3.5c-0.7,0.7-0.7,1.9,0,2.6c0.7,0.7,1.9,0.7,2.6,0l3.5-3.5c4.5,5.1,7.2,11.5,7.6,18.3h-5c-1,0-1.8,0.8-1.8,1.8
		c0,1,0.8,1.8,1.8,1.8h5c-0.4,6.8-3.1,13.2-7.6,18.3l-3.5-3.5c-0.7-0.7-1.9-0.7-2.6,0c-0.7,0.7-0.7,1.9,0,2.6c0,0,0,0,0,0l3.5,3.5
		c-5.1,4.5-11.5,7.2-18.3,7.6v-5c0-1-0.8-1.8-1.8-1.8s-1.8,0.8-1.8,1.8v5c-6.8-0.4-13.2-3.1-18.3-7.6l3.5-3.5c0.7-0.7,0.7-1.9,0-2.6
		c-0.7-0.7-1.9-0.7-2.6,0l-3.5,3.5c-4.5-5.1-7.2-11.5-7.6-18.3h5c1,0,1.8-0.8,1.8-1.8S-162.8,400.2-163.9,400.2
		C-163.9,400.2-163.9,400.2-163.9,400.2L-163.9,400.2z"/>
	<path fill="#FF0030" d="M-116.4,437c-19.4,12.2-44.9,6.4-57.1-13c-9.3-14.7-8.4-33.6,2.2-47.4c0.6-0.8,0.5-1.9-0.3-2.6
		s-1.9-0.5-2.6,0.3c0,0,0,0,0,0c-6.1,7.9-9.4,17.6-9.4,27.5c0,24.9,20.2,45.1,45.1,45.1c8.5,0,16.8-2.4,24-6.9
		c0.9-0.5,1.1-1.7,0.6-2.5C-114.5,436.8-115.6,436.5-116.4,437L-116.4,437L-116.4,437z"/>
	<path fill="#FF0030" d="M-127.5,358.3v-6.9c0-1.9-1.5-3.4-3.4-3.4h-15.1c-1.9,0-3.4,1.5-3.4,3.4v6.9c-7.3,1.8-14,5.5-19.6,10.6
		c-0.7,0.7-0.8,1.8-0.1,2.6c0.7,0.7,1.8,0.8,2.6,0.1c16.8-15.5,43-14.4,58.5,2.4c15.5,16.8,14.4,43-2.4,58.5
		c-0.1,0.1-0.2,0.2-0.4,0.3c-0.7,0.7-0.8,1.8-0.1,2.6s1.8,0.8,2.6,0.1c18.5-16.6,20-45.2,3.4-63.7
		C-111,365.2-118.9,360.4-127.5,358.3L-127.5,358.3z M-145.9,357.5v-5.9h14.7v5.9C-136.1,356.7-141,356.7-145.9,357.5L-145.9,357.5z
		"/>
	<path fill="#FF0030" d="M-138.5,403.3c0.7,0,1.3-0.4,1.6-0.9l6.3-6.3c0.7-0.7,0.7-1.9,0-2.6c-0.7-0.7-1.9-0.7-2.6,0l-3.5,3.5v-8.9
		c0-1-0.8-1.8-1.8-1.8s-1.8,0.8-1.8,1.8v13.4C-140.4,402.4-139.5,403.3-138.5,403.3L-138.5,403.3z"/>
	<path fill="#FF0030" d="M-190.2,402.4c0-1-0.8-1.8-1.8-1.8h-23.2c-1,0-1.8,0.8-1.8,1.8c0,1,0.8,1.8,1.8,1.8h23.2
		C-191.1,404.2-190.2,403.4-190.2,402.4C-190.2,402.4-190.2,402.4-190.2,402.4z"/>
	<path fill="#FF0030" d="M-208,393.6h18.4c1,0,1.8-0.8,1.8-1.8c0-1-0.8-1.8-1.8-1.8c0,0,0,0,0,0H-208c-1,0-1.8,0.8-1.8,1.8
		C-209.9,392.8-209.1,393.6-208,393.6C-208,393.6-208,393.6-208,393.6z"/>
	<path fill="#FF0030" d="M-187.2,379.4h-15.1c-1,0-1.8,0.8-1.8,1.8c0,1,0.8,1.8,1.8,1.8c0,0,0,0,0,0h15.1c1,0,1.8-0.8,1.8-1.8
		C-185.4,380.2-186.2,379.4-187.2,379.4C-187.2,379.4-187.2,379.4-187.2,379.4z"/>
	<path fill="#FF0030" d="M-187.8,412.2c0-1-0.8-1.8-1.8-1.8H-208c-1,0-1.8,0.8-1.8,1.8c0,1,0.8,1.8,1.8,1.8c0,0,0,0,0,0h18.4
		C-188.6,414-187.8,413.2-187.8,412.2z"/>
	<path fill="#FF0030" d="M-187.2,421h-15.1c-1,0-1.8,0.8-1.8,1.8c0,1,0.8,1.8,1.8,1.8h15.1c1,0,1.8-0.8,1.8-1.8
		C-185.4,421.8-186.2,421-187.2,421z"/>
</g>
</svg>
