<?xml version="1.0" encoding="utf-8"?>
<!-- Generator: Adobe Illustrator 25.4.1, SVG Export Plug-In . SVG Version: 6.00 Build 0)  -->
<svg version="1.1" id="Layer_1" xmlns="http://www.w3.org/2000/svg" xmlns:xlink="http://www.w3.org/1999/xlink" x="0px" y="0px"
	 viewBox="0 0 100 100" style="enable-background:new 0 0 100 100;" xml:space="preserve">
<style type="text/css">
	.st0{fill:#E20031;}
</style>
<path class="st0" d="M40.8,6.6c0-0.9,0-1.9,0-2.8c0-1.3,0.7-2.1,1.9-2.3c4.8-0.8,9.6-0.8,14.4,0c1.3,0.2,1.9,1,1.9,2.4
	c0,1.8,0,3.6,0,5.4c0,1.2,0.4,1.8,1.6,2.2c3.7,1.1,7.2,2.7,10.4,5c1.1,0.7,2,0.7,2.9-0.2c1.3-1.1,2.7-2.2,4.1-3.2
	c1.3-1,2.1-1,3.3,0.1c3.4,3.2,6.3,6.8,8.6,10.8c0.7,1.3,0.6,2.2-0.6,3.2c-1.4,1.2-2.9,2.3-4.4,3.5c-0.8,0.6-1,1.4-0.6,2.4
	c1.5,3.7,2.4,7.6,2.6,11.6c0.1,1.1,0.8,1.7,1.8,1.9c1.7,0.4,3.5,0.7,5.2,1.2c1.6,0.4,2.2,1.2,2,2.8c-0.4,4.5-1.3,8.9-3,13.1
	c-0.7,1.7-1.4,2.1-3.2,1.7c-1.7-0.4-3.5-0.8-5.2-1.2c-1-0.3-1.8,0.1-2.3,1c-2,3.5-4.4,6.6-7.4,9.3c-0.8,0.7-0.9,1.5-0.4,2.4
	c0.8,1.6,1.6,3.3,2.4,4.9c0.7,1.5,0.5,2.4-1,3.3c-1.2,0.7-2.5,1.5-3.7,2.1c-1.7,0.8-3.1-0.1-3.1-1.9c0-0.6,0-1.2,0-1.8
	c-0.1-2.9-1.4-5-4.1-6.2c-0.7-0.3-0.8-0.6-0.9-1.3c-0.2-1.9,0.4-3,2.1-4C76.2,65.1,81.3,52.7,78.8,41c-2.6-12.2-12.5-21.5-24.6-23.3
	C35.6,14.9,19,30,20.3,48.6c0.7,10.2,5.6,18.1,14.3,23.5c1,0.6,1.8,3.3,1.2,4.3c-0.1,0.2-0.5,0.3-0.8,0.4c-2.7,1.3-4.1,3.4-4.1,6.3
	c0,0.6,0,1.2,0,1.8c-0.1,1.6-1.4,2.5-2.8,1.9c-1.6-0.7-3.1-1.5-4.6-2.4c-1-0.6-1.1-1.7-0.6-2.7c0.8-1.7,1.6-3.3,2.4-5
	c0.5-1,0.4-1.9-0.5-2.7c-2.9-2.6-5.3-5.7-7.3-9.1c-0.6-1-1.3-1.3-2.5-1c-1.8,0.5-3.5,0.8-5.3,1.2c-1.4,0.3-2.3-0.1-2.8-1.4
	c-1.8-4.4-2.8-9-3.1-13.7c-0.1-1.4,0.5-2.1,1.9-2.5c1.8-0.4,3.5-0.8,5.3-1.2c1.2-0.2,1.8-0.9,1.8-2.2c0.2-3.8,1-7.4,2.5-10.9
	c0.5-1.3,0.3-2.2-0.8-3c-1.4-1-2.7-2.1-4.1-3.2c-1.2-1-1.4-1.9-0.6-3.2c2.3-4,5.2-7.6,8.6-10.8c1.1-1.1,2-1.1,3.2-0.1
	c1.4,1.1,2.9,2.2,4.3,3.4c0.9,0.7,1.8,0.8,2.7,0.1c3.2-2.3,6.7-3.9,10.5-5c1.1-0.3,1.6-1,1.6-2.2C40.7,8.4,40.8,7.5,40.8,6.6z"/>
<path class="st0" d="M42.7,96.1c2.2,0,4.1,0,6.1,0c1,0,1.7-0.4,1.9-1.4c0.2-1.1-0.6-1.8-2-1.8c-3.4,0-6.8,0-10.3,0
	c-3,0-4.2-1.2-4.2-4.1c0-1.9,0-3.7,0-5.6c0-2.1,1.3-3.4,3.4-3.4c8.1,0,16.3,0,24.4,0c2,0,3.3,1.4,3.4,3.3c0,2.1,0,4.2,0,6.3
	c0,2-1.3,3.3-3.3,3.4c-1,0.1-2,0-3,0c-1.1,0-1.7,0.5-1.9,1.7c-0.6,3.5-2.2,4.9-5.8,4.9c-1.4,0-2.9,0.1-4.3,0
	C45.1,99.2,43.7,98.2,42.7,96.1z"/>
<path class="st0" d="M46.9,20.8c-15.1,1.5-26,16.2-22.9,31.1c1.6,7.7,5.8,13.6,12.5,17.6c1.8,1.1,2.7,2.5,2.6,4.7c0,0.7,0,1.4,0,2.2
	c7.2,0,14.2,0,21.4,0c0-0.4,0-0.7,0-1c-0.4-3,0.9-4.8,3.5-6.4c7.2-4.5,11.2-11.2,12-19.6C77.5,32.7,63.6,19.1,46.9,20.8z M49.8,67.4
	c-1.4,0-2.5-1.1-2.5-2.5c0-1.3,1-2.4,2.4-2.4c1.4,0,2.5,1,2.5,2.4C52.3,66.3,51.2,67.3,49.8,67.4z M58.2,47
	c-1.2,1.3-2.5,2.5-3.9,3.6c-2,1.6-3,3.5-2.9,6c0,0.4,0,0.8,0,1.2c-0.1,0.9-0.7,1.4-1.6,1.4c-0.9,0-1.5-0.5-1.6-1.4
	c-0.1-0.5,0-1,0-1.6c0-3.3,1.4-5.9,3.9-8.1c1.4-1.2,2.7-2.5,4-3.9c1.1-1.2,1.2-2.7,0.8-4.2c-1.1-4-5.1-6.3-9.1-5.2
	c-3.9,1.1-6.3,5.2-5.2,9.1c0.1,0.2,0.1,0.4,0.2,0.6c0.4,1,0.1,1.8-0.9,2.2c-0.9,0.4-1.8-0.1-2.2-1.2c-1.2-3.7-0.7-7.2,1.7-10.2
	c2.8-3.5,7.5-4.9,11.8-3.5c4.3,1.5,7.2,5.5,7.2,9.9C60.5,43.9,59.5,45.6,58.2,47z"/>
</svg>
