<?xml version="1.0" encoding="utf-8"?>
<!-- Generator: Adobe Illustrator 18.1.1, SVG Export Plug-In . SVG Version: 6.00 Build 0)  -->
<svg version="1.1" id="Layer_1" xmlns="http://www.w3.org/2000/svg" xmlns:xlink="http://www.w3.org/1999/xlink" x="0px" y="0px"
	 viewBox="0 0 612 792" enable-background="new 0 0 612 792" xml:space="preserve">
<path fill="#F2F4FA" d="M249.7,130.4c0-5.5,0-11.6,0-17.1c0-8,4.3-12.9,11.6-14.1c29.4-4.9,58.8-4.9,88.1,0
	c8,1.2,11.6,6.1,11.6,14.7c0,11,0,22,0,33c0,7.3,2.4,11,9.8,13.5c22.6,6.7,44.1,16.5,63.6,30.6c6.7,4.3,12.2,4.3,17.7-1.2
	c8-6.7,16.5-13.5,25.1-19.6c8-6.1,12.9-6.1,20.2,0.6c20.8,19.6,38.6,41.6,52.6,66.1c4.3,8,3.7,13.5-3.7,19.6
	c-8.6,7.3-17.7,14.1-26.9,21.4c-4.9,3.7-6.1,8.6-3.7,14.7c9.2,22.6,14.7,46.5,15.9,71c0.6,6.7,4.9,10.4,11,11.6
	c10.4,2.4,21.4,4.3,31.8,7.3c9.8,2.4,13.5,7.3,12.2,17.1c-2.4,27.5-8,54.5-18.4,80.2c-4.3,10.4-8.6,12.9-19.6,10.4
	c-10.4-2.4-21.4-4.9-31.8-7.3c-6.1-1.8-11,0.6-14.1,6.1c-12.2,21.4-26.9,40.4-45.3,56.9c-4.9,4.3-5.5,9.2-2.4,14.7
	c4.9,9.8,9.8,20.2,14.7,30c4.3,9.2,3.1,14.7-6.1,20.2c-7.3,4.3-15.3,9.2-22.6,12.9c-10.4,4.9-19-0.6-19-11.6c0-3.7,0-7.3,0-11
	c-0.6-17.7-8.6-30.6-25.1-37.9c-4.3-1.8-4.9-3.7-5.5-8c-1.2-11.6,2.4-18.4,12.9-24.5c61.8-42.2,93-118.1,77.7-189.7
	c-15.9-74.7-76.5-131.6-150.6-142.6c-113.8-17.1-215.4,75.3-207.5,189.1c4.3,62.4,34.3,110.8,87.5,143.8c6.1,3.7,11,20.2,7.3,26.3
	c-0.6,1.2-3.1,1.8-4.9,2.4c-16.5,8-25.1,20.8-25.1,38.6c0,3.7,0,7.3,0,11c-0.6,9.8-8.6,15.3-17.1,11.6c-9.8-4.3-19-9.2-28.2-14.7
	c-6.1-3.7-6.7-10.4-3.7-16.5c4.9-10.4,9.8-20.2,14.7-30.6c3.1-6.1,2.4-11.6-3.1-16.5C134,527,119.3,508,107.1,487.2
	c-3.7-6.1-8-8-15.3-6.1c-11,3.1-21.4,4.9-32.4,7.3c-8.6,1.8-14.1-0.6-17.1-8.6c-11-26.9-17.1-55.1-19-83.8
	c-0.6-8.6,3.1-12.9,11.6-15.3c11-2.4,21.4-4.9,32.4-7.3c7.3-1.2,11-5.5,11-13.5c1.2-23.3,6.1-45.3,15.3-66.7
	c3.1-8,1.8-13.5-4.9-18.4c-8.6-6.1-16.5-12.9-25.1-19.6c-7.3-6.1-8.6-11.6-3.7-19.6c14.1-24.5,31.8-46.5,52.6-66.1
	c6.7-6.7,12.2-6.7,19.6-0.6c8.6,6.7,17.7,13.5,26.3,20.8c5.5,4.3,11,4.9,16.5,0.6c19.6-14.1,41-23.9,64.3-30.6
	c6.7-1.8,9.8-6.1,9.8-13.5C249.1,141.4,249.7,135.9,249.7,130.4z"/>
<path fill="#F2F4FA" d="M261.3,678.1c13.5,0,25.1,0,37.3,0c6.1,0,10.4-2.4,11.6-8.6c1.2-6.7-3.7-11-12.2-11c-20.8,0-41.6,0-63,0
	c-18.4,0-25.7-7.3-25.7-25.1c0-11.6,0-22.6,0-34.3c0-12.9,8-20.8,20.8-20.8c49.6,0,99.8,0,149.3,0c12.2,0,20.2,8.6,20.8,20.2
	c0,12.9,0,25.7,0,38.6c0,12.2-8,20.2-20.2,20.8c-6.1,0.6-12.2,0-18.4,0c-6.7,0-10.4,3.1-11.6,10.4c-3.7,21.4-13.5,30-35.5,30
	c-8.6,0-17.7,0.6-26.3,0C276,697.1,267.4,691,261.3,678.1z"/>
<path fill="#F2F4FA" d="M287,217.3c-92.4,9.2-159.1,99.1-140.1,190.3c9.8,47.1,35.5,83.2,76.5,107.7c11,6.7,16.5,15.3,15.9,28.8
	c0,4.3,0,8.6,0,13.5c44.1,0,86.9,0,131,0c0-2.4,0-4.3,0-6.1c-2.4-18.4,5.5-29.4,21.4-39.2c44.1-27.5,68.5-68.5,73.4-120
	C474.3,290.1,389.2,206.9,287,217.3z M304.8,502.5c-8.6,0-15.3-6.7-15.3-15.3c0-8,6.1-14.7,14.7-14.7c8.6,0,15.3,6.1,15.3,14.7
	C320.1,495.8,313.3,501.9,304.8,502.5z M356.2,377.6c-7.3,8-15.3,15.3-23.9,22c-12.2,9.8-18.4,21.4-17.7,36.7c0,2.4,0,4.9,0,7.3
	c-0.6,5.5-4.3,8.6-9.8,8.6c-5.5,0-9.2-3.1-9.8-8.6c-0.6-3.1,0-6.1,0-9.8c0-20.2,8.6-36.1,23.9-49.6c8.6-7.3,16.5-15.3,24.5-23.9
	c6.7-7.3,7.3-16.5,4.9-25.7c-6.7-24.5-31.2-38.6-55.7-31.8c-23.9,6.7-38.6,31.8-31.8,55.7c0.6,1.2,0.6,2.4,1.2,3.7
	c2.4,6.1,0.6,11-5.5,13.5c-5.5,2.4-11-0.6-13.5-7.3c-7.3-22.6-4.3-44.1,10.4-62.4c17.1-21.4,45.9-30,72.2-21.4
	c26.3,9.2,44.1,33.7,44.1,60.6C370.3,358.7,364.1,369.1,356.2,377.6z"/>
</svg>
