<?xml version="1.0" encoding="utf-8"?>
<!-- Generator: Adobe Illustrator 18.1.1, SVG Export Plug-In . SVG Version: 6.00 Build 0)  -->
<svg version="1.1" id="Layer_1" xmlns="http://www.w3.org/2000/svg" xmlns:xlink="http://www.w3.org/1999/xlink" x="0px" y="0px"
	 viewBox="-230 322 150 150" enable-background="new -230 322 150 150" xml:space="preserve">
<title>Timely and Up-to-date</title>
<g id="Timely_and_Up-to-date">
	<path fill="#FCF5F7" d="M-94.6,403.1c-2-20.2-16.7-36.8-36.5-41.2v-5.9c4.2-1.1,6.8-5.3,5.8-9.6c-0.9-3.5-4-6-7.7-6h-16.8
		c-4.4,0-7.9,3.5-7.9,7.9c0,3.6,2.5,6.8,6,7.7v5.9c-8.7,1.9-16.6,6.3-22.9,12.6c-1.4,1.4-2.7,2.9-4,4.5c-0.1,0-0.1,0-0.2,0h-16.6
		c-1.3,0-2.3,1-2.3,2.3c0,1.3,1,2.3,2.3,2.3h13.6c-1.7,2.8-3.1,5.8-4.1,8.9h-25.3c-1.3,0-2.3,1-2.3,2.3c0,1.3,1,2.3,2.3,2.3h24
		c-0.7,2.9-1.1,5.9-1.2,8.9h-10.3c-1.3,0-2.3,1-2.3,2.3c0,1.3,1,2.3,2.3,2.3c0,0,0,0,0,0h10.4c0.2,3,0.7,6,1.5,8.9h-15.1
		c-1.3,0-2.3,1-2.3,2.3c0,1.3,1,2.3,2.3,2.3c0,0,0,0,0,0h16.6c6.3,16.7,21.5,28.3,39.3,30.1c1.5,0.2,3.1,0.2,4.6,0.2
		c9.1,0,18-2.6,25.7-7.6c1.1-0.7,1.4-2.1,0.7-3.2s-2.1-1.4-3.2-0.7c0,0,0,0,0,0c-19.6,12.7-45.8,7.2-58.6-12.4
		c-12.7-19.6-7.2-45.8,12.4-58.6c19.6-12.7,45.8-7.2,58.6,12.4c9.1,14,9.1,32.1,0,46.1c-0.7,1.1-0.4,2.5,0.7,3.2s2.5,0.4,3.2-0.7
		C-96.1,424.4-93.5,413.8-94.6,403.1z M-153,348.4c0-1.8,1.5-3.3,3.3-3.3h16.8c1.8,0,3.3,1.5,3.3,3.3c0,1.8-1.5,3.3-3.3,3.3
		c0,0,0,0,0,0h-16.8C-151.6,351.6-153,350.2-153,348.4z M-147,361.2v-4.9h11.3v4.9C-139.5,360.7-143.3,360.7-147,361.2z"/>
	<path fill="#FCF5F7" d="M-109.8,437.1c-1.3,0-2.3,1-2.3,2.3c0,1.3,1,2.3,2.3,2.3c1.3,0,2.3-1,2.3-2.3c0-0.6-0.2-1.2-0.7-1.6
		C-108.6,437.3-109.2,437.1-109.8,437.1z"/>
	<path fill="#FCF5F7" d="M-141.4,371.7c-19.9,0-36.1,16.2-36.1,36.1c0,19.9,16.2,36.1,36.1,36.1c19.9,0,36.1-16.2,36.1-36.1
		c0,0,0,0,0,0C-105.3,387.9-121.4,371.7-141.4,371.7z M-141.4,439.3c-17.4,0-31.4-14.1-31.4-31.4c0-17.4,14.1-31.4,31.4-31.4
		c17.4,0,31.4,14.1,31.4,31.4C-109.9,425.2-124,439.2-141.4,439.3z"/>
	<path fill="#FCF5F7" d="M-126.6,389.8l-11.5,11.5c-2-1-4.4-1-6.4,0l-5.2-5.2c-0.9-0.9-2.4-0.9-3.3,0c-0.9,0.9-0.9,2.4,0,3.3
		l5.2,5.2c-1.8,3.6-0.3,7.9,3.3,9.7s7.9,0.3,9.7-3.3c1-2,1-4.4,0-6.4l11.2-11.2l0,0l0.3-0.3c0.9-0.9,0.9-2.4,0-3.3
		S-125.7,388.9-126.6,389.8z M-141.4,410.4c-1.4,0-2.6-1.2-2.6-2.6c0-1.4,1.2-2.6,2.6-2.6c1.4,0,2.6,1.2,2.6,2.6c0,0,0,0,0,0
		C-138.8,409.2-139.9,410.4-141.4,410.4z"/>
	<path fill="#FCF5F7" d="M-116.5,405.5h-2.2c-1.3,0-2.3,1-2.3,2.3c0,1.3,1,2.3,2.3,2.3c0,0,0,0,0,0h2.2c1.3,0,2.3-1,2.3-2.3
		C-114.2,406.6-115.2,405.5-116.5,405.5z"/>
	<path fill="#FCF5F7" d="M-164.1,405.5h-2.2c-1.3,0-2.3,1-2.3,2.3c0,1.3,1,2.3,2.3,2.3h2.2c1.3,0,2.3-1,2.3-2.3
		S-162.8,405.5-164.1,405.5C-164.1,405.5-164.1,405.5-164.1,405.5z"/>
	<path fill="#FCF5F7" d="M-141.3,387.4c1.3,0,2.3-1,2.3-2.3v-2.2c0-1.3-1-2.3-2.3-2.3c-1.3,0-2.3,1-2.3,2.3v2.2
		C-143.7,386.4-142.6,387.4-141.3,387.4z"/>
	<path fill="#FCF5F7" d="M-141.4,428.2c-1.3,0-2.3,1-2.3,2.3v2.2c0,1.3,1,2.3,2.3,2.3s2.3-1,2.3-2.3c0,0,0,0,0,0v-2.2
		C-139.1,429.3-140.1,428.2-141.4,428.2z"/>
	<path fill="#FCF5F7" d="M-211.2,419.8c-1.3,0-2.3,1-2.3,2.3c0,1.3,1,2.3,2.3,2.3c1.3,0,2.3-1,2.3-2.3c0-0.6-0.2-1.2-0.7-1.6
		C-210,420.1-210.6,419.9-211.2,419.8z"/>
</g>
</svg>
