<?xml version="1.0" encoding="utf-8"?>
<!-- Generator: Adobe Illustrator 18.1.1, SVG Export Plug-In . SVG Version: 6.00 Build 0)  -->
<svg version="1.1" id="Layer_1" xmlns="http://www.w3.org/2000/svg" xmlns:xlink="http://www.w3.org/1999/xlink" x="0px" y="0px"
	 viewBox="-230 322 150 150" enable-background="new -230 322 150 150" xml:space="preserve">
<title>Understanding  Business</title>
<g id="Understanding_Business">
	<path fill="#FF0030" d="M-162.7,383l6.2,15.5c0.4,1,1.5,1.4,2.4,1.1c0.5-0.2,0.9-0.6,1.1-1.1l6.2-15.5
		c10.6-4.4,15.6-16.5,11.2-27.1c-4.4-10.6-16.5-15.6-27.1-11.2c-10.6,4.4-15.6,16.5-11.2,27.1C-171.8,376.9-167.7,380.9-162.7,383
		L-162.7,383z M-154.7,347c9.4,0,16.9,7.6,16.9,17c0,7.1-4.4,13.4-11.1,15.8c-0.5,0.2-0.9,0.6-1.1,1.1l-4.7,11.9l-4.7-11.9
		c-0.2-0.5-0.6-0.9-1.1-1.1c-8.8-3.2-13.3-13-10-21.8C-168.1,351.4-161.8,347-154.7,347L-154.7,347z"/>
	<path fill="#FF0030" d="M-167.9,422.3c0,7.3,5.9,13.2,13.2,13.2s13.2-5.9,13.2-13.2s-5.9-13.2-13.2-13.2l0,0
		C-162,409.1-167.9,415-167.9,422.3C-167.9,422.3-167.9,422.3-167.9,422.3z M-145.3,422.3c0,5.2-4.2,9.4-9.4,9.4
		c-5.2,0-9.4-4.2-9.4-9.4c0-0.6,0.1-1.1,0.2-1.7c5.9-2.8,12.6-2.8,18.5,0C-145.4,421.1-145.3,421.7-145.3,422.3z M-154.7,414.7
		c-2.2,0-4.5,0.3-6.6,0.9c3.7-3.6,9.5-3.6,13.2,0C-150.3,415-152.5,414.8-154.7,414.7L-154.7,414.7z"/>
	<path fill="#FF0030" d="M-188.6,403.5c-7.3,0-13.2,5.9-13.2,13.2s5.9,13.2,13.2,13.2s13.2-5.9,13.2-13.2v0
		C-175.4,409.4-181.3,403.5-188.6,403.5C-188.6,403.5-188.6,403.5-188.6,403.5z M-188.6,407.2c2.5,0,4.9,1,6.6,2.7
		c-4.3-1.1-8.9-1.1-13.2,0C-193.4,408.2-191.1,407.2-188.6,407.2L-188.6,407.2z M-188.6,426c-5.2,0-9.4-4.2-9.4-9.4
		c0-0.6,0.1-1.1,0.2-1.7c5.9-2.8,12.6-2.8,18.5,0c0.1,0.6,0.2,1.1,0.2,1.7C-179.2,421.8-183.4,426-188.6,426
		C-188.6,426-188.6,426-188.6,426L-188.6,426z"/>
	<path fill="#FF0030" d="M-120.9,429.8c7.3,0,13.2-5.9,13.2-13.2c0-7.3-5.9-13.2-13.2-13.2c-7.3,0-13.2,5.9-13.2,13.2c0,0,0,0,0,0
		C-134,423.9-128.1,429.8-120.9,429.8z M-120.9,407.2c2.5,0,4.9,1,6.6,2.7c-4.3-1.1-8.9-1.1-13.2,0
		C-125.7,408.2-123.3,407.2-120.9,407.2L-120.9,407.2z M-130.1,414.9c5.9-2.8,12.6-2.8,18.5,0c0.1,0.6,0.2,1.1,0.2,1.7
		c0,5.2-4.2,9.4-9.4,9.4c-5.2,0-9.4-4.2-9.4-9.4c0,0,0,0,0,0C-130.3,416.1-130.2,415.5-130.1,414.9L-130.1,414.9z"/>
	<path fill="#FF0030" d="M-117.1,431.7h-7.5c-5.5,0-10.8,2.2-14.6,6.1c-0.7,0.7-1.3,1.4-1.9,2.1c-3-1.6-6.4-2.5-9.8-2.5h-7.5
		c-3.5,0-6.9,0.9-9.9,2.5c-3.9-5.2-10-8.2-16.4-8.2h-7.5c-11.4,0-20.7,9.3-20.7,20.7c0,1,0.8,1.9,1.9,1.9c0,0,0,0,0,0h32.4
		c-0.2,1.2-0.4,2.5-0.4,3.8c0,1,0.8,1.9,1.9,1.9l0,0h45.2c1,0,1.9-0.8,1.9-1.9l0,0c0-1.3-0.1-2.5-0.4-3.8h32.4c1,0,1.9-0.8,1.9-1.9
		l0,0C-96.4,441-105.7,431.7-117.1,431.7z M-209.2,450.5c1-8.6,8.3-15.1,16.9-15.1h0.2l-1.9,2.7c-0.3,0.5-0.4,1-0.2,1.5l3,10.8
		L-209.2,450.5z M-188.5,445.5l-1.7-6l1.6-2.6l1.7,2.6L-188.5,445.5z M-177.8,450.5h-8.3l3.1-10.8c0.1-0.5,0.1-1.1-0.2-1.5l-1.9-2.7
		h0.2c5.2,0,10.1,2.4,13.3,6.5C-174.3,444.2-176.5,447.2-177.8,450.5L-177.8,450.5z M-175.3,456.2c1-8.6,8.2-15.1,16.8-15.1h0.2
		l-1.9,2.7c-0.3,0.5-0.4,1-0.2,1.5l3.1,10.8L-175.3,456.2z M-154.7,451.2l-1.7-6l1.7-2.6l1.7,2.6L-154.7,451.2z M-152.2,456.2
		l3.1-10.8c0.1-0.5,0.1-1.1-0.2-1.5l-1.9-2.7h0.2c8.6,0,15.9,6.5,16.8,15.1H-152.2z M-131.7,450.5c-1.3-3.3-3.5-6.3-6.2-8.5
		c0.4-0.5,0.9-1.1,1.4-1.5c3.2-3.2,7.5-5,12-5h0.2l-1.9,2.7c-0.3,0.5-0.4,1-0.2,1.5l3.1,10.8L-131.7,450.5z M-120.9,445.5l-1.7-6
		l1.7-2.6l1.7,2.6L-120.9,445.5z M-118.4,450.5l3.1-10.8c0.1-0.5,0.1-1.1-0.2-1.5l-1.9-2.7h0.2c8.6,0,15.9,6.5,16.8,15.1H-118.4z"/>
	<path fill="#FF0030" d="M-98.3,369.6h-30.1c-1,0-1.9,0.8-1.9,1.9v18.8c0,1,0.8,1.9,1.9,1.9h7.2l-1.5,5.1c-0.3,1,0.4,2.1,1.4,2.3
		c0.6,0.1,1.2,0,1.7-0.4l8.2-7.1h13.2c1,0,1.9-0.8,1.9-1.9v-18.8C-96.4,370.4-97.2,369.6-98.3,369.6L-98.3,369.6z M-100.2,388.4
		h-11.9c-0.4,0-0.9,0.2-1.2,0.5l-4,3.4l0.4-1.5c0.3-1-0.3-2-1.3-2.3c-0.2,0-0.3-0.1-0.5-0.1h-7.8v-15.1h26.3L-100.2,388.4z"/>
	<path fill="#FF0030" d="M-122.7,379h3.8v3.8h-3.8V379z"/>
	<path fill="#FF0030" d="M-115.2,379h3.8v3.8h-3.8V379z"/>
	<path fill="#FF0030" d="M-107.7,379h3.8v3.8h-3.8V379z"/>
	<path fill="#FF0030" d="M-211.2,392.2h13.2l8.3,7.1c0.8,0.7,2,0.5,2.7-0.3c0.4-0.5,0.5-1.1,0.4-1.7l-1.5-5.1h7.2
		c1,0,1.9-0.8,1.9-1.9v-18.8c0-1-0.8-1.9-1.9-1.9h-30.1c-1,0-1.9,0.8-1.9,1.9v18.8C-213.1,391.3-212.2,392.2-211.2,392.2
		C-211.2,392.2-211.2,392.2-211.2,392.2z M-209.3,373.3h26.3v15.1h-7.8c-1,0-1.9,0.8-1.9,1.9c0,0.2,0,0.3,0.1,0.5l0.4,1.5l-4-3.4
		c-0.4-0.3-0.8-0.5-1.3-0.5h-11.9L-209.3,373.3z"/>
	<path fill="#FF0030" d="M-190.5,379h3.8v3.8h-3.8V379z"/>
	<path fill="#FF0030" d="M-198,379h3.8v3.8h-3.8V379z"/>
	<path fill="#FF0030" d="M-205.6,379h3.8v3.8h-3.8V379z"/>
	<path fill="#FF0030" d="M-157.5,373.3h0.3c0.5-0.1,1-0.4,1.3-0.8l10.3-15.1l-3.1-2.2l-9.2,13.4l-3.2-2.5l-2.3,2.9l4.7,3.8
		C-158.4,373.2-158,373.3-157.5,373.3L-157.5,373.3z"/>
</g>
</svg>
