<svg xmlns="http://www.w3.org/2000/svg" width="150" height="150" viewBox="0 0 150 150"><defs><style>.cls-1{fill:#fff;}</style></defs><title>Access To Top SEO Tools</title><g id="Access_To_Top_SEO_Tools" data-name="Access To Top SEO Tools"><path class="cls-1" d="M126.09209,30.39365a39.91232,39.91232,0,0,0-56.4043-2.13211l3.39262,3.65689a34.92329,34.92329,0,1,1,0,51.2224l-3.39262,3.65689a39.91227,39.91227,0,0,0,56.4043-56.40407Z"/><path class="cls-1" d="M96.82318,27.5955v4.989a24.94528,24.94528,0,1,1,0,49.89056v4.989a29.93425,29.93425,0,1,0,0-59.8685Z"/><path class="cls-1" d="M106.80134,107.42008H86.84525a2.49468,2.49468,0,0,0-2.4946,2.4946V124.8818a12.47253,12.47253,0,0,0,24.94506,0V109.91468A2.49433,2.49433,0,0,0,106.80134,107.42008Zm-2.4946,17.46172a7.48356,7.48356,0,1,1-14.96712,0V112.40928h14.96712Z"/><rect class="cls-1" x="89.33962" y="94.94756" width="4.98896" height="14.96712"/><rect class="cls-1" x="99.31778" y="94.94756" width="4.98896" height="14.96712"/><rect class="cls-1" x="31.96572" y="27.5955" width="64.85746" height="4.98896"/><rect class="cls-1" x="31.96572" y="82.47503" width="64.85746" height="4.98896"/><rect class="cls-1" x="16.9986" y="27.5955" width="9.97816" height="4.98896"/><rect class="cls-1" x="16.9986" y="82.47503" width="9.97816" height="4.98896"/><path class="cls-1" d="M31.96572,55.03515h-4.989a4.989,4.989,0,1,1,0-9.97792h4.989a4.98893,4.98893,0,0,1,4.989,4.989h4.989A9.97826,9.97826,0,0,0,31.96549,40.068H26.97676a9.97816,9.97816,0,0,0,0,19.95632h4.989a4.989,4.989,0,1,1,0,9.97793h-4.989a4.98893,4.98893,0,0,1-4.989-4.989H16.9986a9.97826,9.97826,0,0,0,9.97816,9.97816h4.989a9.97816,9.97816,0,0,0,0-19.95632Z"/><path class="cls-1" d="M74.37249,45.05722V40.068H51.92181a2.49466,2.49466,0,0,0-2.4946,2.4946V72.49687a2.49466,2.49466,0,0,0,2.4946,2.4946H74.37249v-4.989H54.41641V45.05722Z"/><rect class="cls-1" x="51.92181" y="55.03515" width="19.95608" height="4.98896"/><path class="cls-1" d="M89.33962,40.068A12.47253,12.47253,0,0,0,76.86709,52.54055v9.97816a12.47253,12.47253,0,0,0,24.94506,0V52.54055A12.47224,12.47224,0,0,0,89.33962,40.068Zm7.48356,22.45068a7.48356,7.48356,0,0,1-14.96712,0V52.54055a7.48356,7.48356,0,0,1,14.96712,0Z"/><rect class="cls-1" x="109.29594" y="50.04619" width="4.98896" height="14.96712"/></g></svg>