<svg xmlns="http://www.w3.org/2000/svg" width="150" height="150" viewBox="0 0 150 150"><defs><style>.cls-1{fill:#fff;}</style></defs><title>Amplified In-Bound Leads</title><g id="Amplified_In-Bound_Leads" data-name="Amplified In-Bound Leads"><path class="cls-1" d="M70.363,44.30291h.01254A10.32041,10.32041,0,1,0,70.363,23.66209h-.00448A10.32041,10.32041,0,0,0,70.363,44.30291Zm.00448-16.97134h.00358a6.65093,6.65093,0,1,1,.00358,13.30186h-.00716l-.00448-.03315a6.63447,6.63447,0,0,1,.00448-13.26871Z"/><path class="cls-1" d="M94.35169,37.652h.14065a10.206,10.206,0,0,0-.138-20.41148H94.3499A10.20574,10.20574,0,1,0,94.35169,37.652Zm.00806-16.742h.00269a6.59453,6.59453,0,0,1,6.60255,6.59807,6.44364,6.44364,0,0,1-6.50042,6.47445h-.11019A6.53626,6.53626,0,0,1,94.35885,20.91Z"/><path class="cls-1" d="M31.80213,68.6132h22.0966v4.83321a1.87354,1.87354,0,0,0,1.89566,1.81772h29.1453a1.754,1.754,0,0,0,1.755-1.81772V68.6132h22.32594a1.6918,1.6918,0,0,0,1.755-1.74246V53.422a14.09031,14.09031,0,0,0-14.1395-14.16458H92.31448A14.42715,14.42715,0,0,0,79.2993,47.46532,14.20649,14.20649,0,0,0,72.54087,45.679h-4.327a14.23461,14.23461,0,0,0-6.74321,1.77561,14.32794,14.32794,0,0,0-12.96143-8.1972H44.22066A14.09178,14.09178,0,0,0,30.04712,53.37806V66.87074a1.6918,1.6918,0,0,0,1.755,1.74246ZM92.31448,42.92685h4.30376a10.42172,10.42172,0,0,1,10.48793,10.49242V64.94372H86.6947V59.99763a14.14625,14.14625,0,0,0-4.11831-10.08569c-.09228-.09227-.16663-.12273-.2607-.21142A10.789,10.789,0,0,1,92.31448,42.92685Zm-24.098,6.42159h4.32077a10.42813,10.42813,0,0,1,7.44019,3.13285,10.54828,10.54828,0,0,1,3.04775,7.51365V71.59465h-25.457V59.95642A10.67209,10.67209,0,0,1,68.21651,49.34844ZM33.7166,53.38164A10.42157,10.42157,0,0,1,44.22424,42.92685h4.28047a10.61665,10.61665,0,0,1,9.89218,6.754A14.07045,14.07045,0,0,0,53.89873,59.9385v5.00522H33.7166Z"/><path class="cls-1" d="M46.37075,37.652h.00537a10.244,10.244,0,0,0,10.27472-10.1941v.00359a10.2457,10.2457,0,0,0-10.28009-10.221h-.00448A10.20609,10.20609,0,1,0,46.37075,37.652ZM41.69969,22.82355A6.54271,6.54271,0,0,1,46.37612,20.91h.00358a6.54258,6.54258,0,0,1,4.66659,1.9091,6.42629,6.42629,0,0,1,1.93507,4.59939,6.58962,6.58962,0,0,1-6.60524,6.564h-.00448a6.561,6.561,0,0,1-6.60255-6.5488A6.42111,6.42111,0,0,1,41.69969,22.82355Z"/><path class="cls-1" d="M91.54224,93.21018a1.811,1.811,0,0,0-1.29721-.516h-.0018L80.03481,92.6843a1.82452,1.82452,0,0,0-1.832,1.82041l-.03225,16.32183a7.79757,7.79757,0,0,1-7.75375,7.78331h-.00985a7.74851,7.74851,0,0,1-7.70627-7.76808l.01882-9.1522c.00627-.0645.00895-.129.00895-.1935,0-.05465-.00358-.11109-.00806-.16574l.01254-6.79606a1.83368,1.83368,0,0,0-1.83474-1.84011h-.00447l-10.20753.03045a1.83006,1.83006,0,0,0-1.824,1.83116l-.009,6.9618v.00448l-.02329,9.3233a21.48127,21.48127,0,0,0,21.51429,21.525h.06719a21.70192,21.70192,0,0,0,21.64508-21.62358l.01165-8.48478a1.64407,1.64407,0,0,0,0-.37536l.01075-7.38913A1.80087,1.80087,0,0,0,91.54224,93.21018ZM88.4076,96.32153l-.00538,3.92838-6.54163.01255.00806-3.93287Zm-29.34777.04838-.00627,3.295-6.538.01254.00717-3.28873Zm11.3417,32.331H70.346a17.817,17.817,0,0,1-17.85288-17.85914l.01523-7.49932,6.53805-.00985-.01523,7.48409a11.41837,11.41837,0,0,0,11.37575,11.46264h.01433A11.47664,11.47664,0,0,0,81.84,110.82654l.01344-6.87579,6.54343-.0233-.00986,6.81667A18.024,18.024,0,0,1,70.40153,128.70091Z"/><path class="cls-1" d="M55.10726,88.79533A1.871,1.871,0,0,0,56.942,86.92476l.01881-6.38754a1.826,1.826,0,0,0-1.82847-1.833h-.00627a1.81238,1.81238,0,0,0-1.83474,1.80159l-.01971,6.42159A1.85815,1.85815,0,0,0,55.101,88.79533Z"/><path class="cls-1" d="M63.15664,92.19784,67.67451,87.68a1.83455,1.83455,0,1,0-2.59444-2.59444l-4.51876,4.51787a1.83486,1.83486,0,0,0,2.59533,2.59443Z"/><path class="cls-1" d="M50.75961,91.02963a1.83407,1.83407,0,0,0,0-2.59443l-4.51787-4.51787a1.83466,1.83466,0,0,0-2.59444,2.59443l4.51787,4.51787A1.83407,1.83407,0,0,0,50.75961,91.02963Z"/><path class="cls-1" d="M85.52648,88.566a1.79431,1.79431,0,0,0,1.83474-1.78278l.01075-6.32214a1.76746,1.76746,0,0,0-1.83205-1.7568h-.00358A1.78833,1.78833,0,0,0,83.7016,80.479l-.00986,6.32663A1.76905,1.76905,0,0,0,85.5238,88.566Z"/><path class="cls-1" d="M97.6664,87.06183A1.83466,1.83466,0,0,0,95.072,84.46739l-4.52772,4.52772a1.83518,1.83518,0,0,0,2.59533,2.59534Z"/><path class="cls-1" d="M80.016,91.52953a1.83458,1.83458,0,0,0,1.29721-3.132L76.79535,83.8797A1.8349,1.8349,0,0,0,74.2,86.47414L78.71878,90.992A1.82439,1.82439,0,0,0,80.016,91.52953Z"/></g></svg>