<svg xmlns="http://www.w3.org/2000/svg" width="150" height="150" viewBox="0 0 150 150"><defs><style>.cls-1{fill:#fff;}</style></defs><title>Content Optimization</title><g id="Content_Optimization" data-name="Content Optimization"><path class="cls-1" d="M106.7,33.61827a9.80892,9.80892,0,1,0,9.80893,9.80892A9.80892,9.80892,0,0,0,106.7,33.61827Zm0,15.69427a5.88535,5.88535,0,1,1,5.88536-5.88535A5.88535,5.88535,0,0,1,106.7,49.31254Z"/><path class="cls-1" d="M132.20318,35.58005H125.667l-.00662-.01569,4.622-4.62172a1.9618,1.9618,0,0,0,.00032-2.77439l-.00032-.00031L121.959,19.84482a1.96177,1.96177,0,0,0-2.7742,0l-4.622,4.62221-.0157-.00662V17.924a1.96178,1.96178,0,0,0-1.96178-1.96178H100.81462A1.96179,1.96179,0,0,0,98.85283,17.924v6.53643l-.01569.00662-4.622-4.62221a1.96178,1.96178,0,0,0-2.77421,0l-8.32336,8.32312a1.96178,1.96178,0,0,0-.00032,2.77438l.00032.00032,4.622,4.62172-.00662.01569H81.19677A1.96178,1.96178,0,0,0,79.235,37.54184v11.7707a1.96178,1.96178,0,0,0,1.96178,1.96179H87.733l.00662.01569-4.622,4.62172a1.96178,1.96178,0,0,0-.00032,2.77438l.00032.00032L91.441,67.00956a1.96178,1.96178,0,0,0,2.77421,0l4.622-4.62221.01569.00662v6.53642a1.96179,1.96179,0,0,0,1.96179,1.96178h11.77071a1.96178,1.96178,0,0,0,1.96178-1.96178V62.394l.0157-.00662,4.622,4.62221a1.96177,1.96177,0,0,0,2.7742,0l8.32337-8.32312a1.96179,1.96179,0,0,0,.00032-2.77438l-.00032-.00032-4.622-4.62172.00662-.01569h6.53618a1.96179,1.96179,0,0,0,1.96178-1.96179V37.54183a1.96178,1.96178,0,0,0-1.96178-1.96178Zm-1.96179,11.77071H124.356a1.96179,1.96179,0,0,0-1.81245,1.21091l-1.00983,2.438a1.96179,1.96179,0,0,0,.42546,2.1381l4.16144,4.16119-5.54891,5.54989-4.16094-4.16266a1.96178,1.96178,0,0,0-2.1381-.42522L111.835,59.27081a1.96177,1.96177,0,0,0-1.21141,1.81244v5.88536H102.7764V61.08325a1.96176,1.96176,0,0,0-1.21091-1.81244L99.12773,58.261a1.96178,1.96178,0,0,0-2.1381.42522l-4.16144,4.16266L87.27831,57.299l4.16143-4.16119a1.96178,1.96178,0,0,0,.42546-2.1381l-1.00983-2.438a1.96179,1.96179,0,0,0-1.81146-1.21091H83.15856V39.50362h5.88535a1.96177,1.96177,0,0,0,1.81244-1.21091l1.00983-2.438a1.96178,1.96178,0,0,0-.42546-2.1381l-4.16241-4.16119,5.54988-5.54989,4.161,4.16266a1.96179,1.96179,0,0,0,2.1381.42522l2.43776-1.00983a1.96177,1.96177,0,0,0,1.2114-1.81244V19.88577h7.84714v5.88536a1.9618,1.9618,0,0,0,1.21091,1.81244l2.43777,1.00983a1.9618,1.9618,0,0,0,2.1381-.42522l4.16143-4.16266,5.54989,5.54989-4.16242,4.16094a1.9618,1.9618,0,0,0-.42546,2.1381l1.00983,2.438a1.9618,1.9618,0,0,0,1.81245,1.21116h5.88535Z"/><path class="cls-1" d="M22.34323,133.66929H102.7764a5.892,5.892,0,0,0,5.88536-5.88535V74.81575h-3.92357v52.96819a1.964,1.964,0,0,1-1.96179,1.96178H22.34323a1.964,1.964,0,0,1-1.96179-1.96178V45.389a1.964,1.964,0,0,1,1.96179-1.96178H75.31142V39.50362H22.34323A5.892,5.892,0,0,0,16.45787,45.389v82.395A5.892,5.892,0,0,0,22.34323,133.66929Z"/><circle class="cls-1" cx="24.30501" cy="47.35076" r="1.96178"/><circle class="cls-1" cx="30.19037" cy="47.35076" r="1.96178"/><circle class="cls-1" cx="36.07572" cy="47.35076" r="1.96178"/><path class="cls-1" d="M77.2732,59.12147V55.1979H28.22858a1.96178,1.96178,0,0,0-1.96178,1.96178V72.854a1.96179,1.96179,0,0,0,1.96178,1.96179H91.00569V70.89218H30.19037V59.12147Z"/><path class="cls-1" d="M67.46428,123.86037H96.89105a1.96178,1.96178,0,0,0,1.96178-1.96179V88.54824a1.96178,1.96178,0,0,0-1.96178-1.96178H67.46428a1.96178,1.96178,0,0,0-1.96179,1.96178v33.35034A1.96179,1.96179,0,0,0,67.46428,123.86037ZM69.42606,90.51h25.5032V119.9368H69.42606Z"/><path class="cls-1" d="M26.2668,117.975H38.0375v3.92357H26.2668Z"/><path class="cls-1" d="M41.96107,117.975H59.61714v3.92357H41.96107Z"/><path class="cls-1" d="M26.2668,110.12787H45.88464v3.92357H26.2668Z"/><path class="cls-1" d="M49.80821,110.12787h9.80893v3.92357H49.80821Z"/><path class="cls-1" d="M26.2668,102.28073h5.88535v3.92357H26.2668Z"/><path class="cls-1" d="M38.0375,102.28073H59.61714v3.92357H38.0375Z"/><path class="cls-1" d="M26.2668,94.43359H47.84643v3.92357H26.2668Z"/><path class="cls-1" d="M51.77,94.43359h7.84714v3.92357H51.77Z"/><path class="cls-1" d="M26.2668,86.58646h9.80892V90.51H26.2668Z"/><path class="cls-1" d="M39.99929,86.58646H59.61714V90.51H39.99929Z"/><path class="cls-1" d="M26.2668,78.73932h3.92357v3.92357H26.2668Z"/><path class="cls-1" d="M34.11393,78.73932H65.50249v3.92357H34.11393Z"/><path class="cls-1" d="M69.42606,78.73932h27.465v3.92357h-27.465Z"/></g></svg>