<?xml version="1.0" encoding="utf-8"?>
<!-- Generator: Adobe Illustrator 18.1.1, SVG Export Plug-In . SVG Version: 6.00 Build 0)  -->
<svg version="1.1" id="Layer_1" xmlns="http://www.w3.org/2000/svg" xmlns:xlink="http://www.w3.org/1999/xlink" x="0px" y="0px"
	 viewBox="-230 322 150 150" enable-background="new -230 322 150 150" xml:space="preserve">
<title>Content Optimization</title>
<g id="Content_Optimization">
	<path fill="#E20031" d="M-123.3,355.6c-5.4,0-9.8,4.4-9.8,9.8c0,5.4,4.4,9.8,9.8,9.8s9.8-4.4,9.8-9.8
		C-113.5,360-117.9,355.6-123.3,355.6L-123.3,355.6z M-123.3,371.3c-3.3,0-5.9-2.6-5.9-5.9c0-3.3,2.6-5.9,5.9-5.9
		c3.3,0,5.9,2.6,5.9,5.9C-117.4,368.7-120,371.3-123.3,371.3C-123.3,371.3-123.3,371.3-123.3,371.3z"/>
	<path fill="#E20031" d="M-97.8,357.6h-6.5l0,0l4.6-4.6c0.8-0.8,0.8-2,0-2.8l0,0l-8.3-8.3c-0.8-0.8-2-0.8-2.8,0l-4.6,4.6l0,0v-6.5
		c0-1.1-0.9-2-2-2h-11.8c-1.1,0-2,0.9-2,2v6.5l0,0l-4.6-4.6c-0.8-0.8-2-0.8-2.8,0l-8.3,8.3c-0.8,0.8-0.8,2,0,2.8l0,0l4.6,4.6l0,0
		h-6.5c-1.1,0-2,0.9-2,2v11.8c0,1.1,0.9,2,2,2c0,0,0,0,0,0h6.5l0,0l-4.6,4.6c-0.8,0.8-0.8,2,0,2.8c0,0,0,0,0,0l0,0l8.3,8.3
		c0.8,0.8,2,0.8,2.8,0l4.6-4.6l0,0v6.5c0,1.1,0.9,2,2,2h11.8c1.1,0,2-0.9,2-2v-6.5l0,0l4.6,4.6c0.8,0.8,2,0.8,2.8,0l8.3-8.3
		c0.8-0.8,0.8-2,0-2.8l0,0l-4.6-4.6l0,0h6.5c1.1,0,2-0.9,2-2v-11.8C-95.8,358.5-96.7,357.6-97.8,357.6L-97.8,357.6z M-99.8,369.4
		h-5.9c-0.8,0-1.5,0.5-1.8,1.2l-1,2.4c-0.3,0.7-0.1,1.6,0.4,2.1l4.2,4.2l-5.5,5.5l-4.2-4.2c-0.6-0.6-1.4-0.7-2.1-0.4l-2.4,1
		c-0.7,0.3-1.2,1-1.2,1.8v5.9h-7.8v-5.9c0-0.8-0.5-1.5-1.2-1.8l-2.4-1c-0.7-0.3-1.6-0.1-2.1,0.4l-4.2,4.2l-5.5-5.5l4.2-4.2
		c0.6-0.6,0.7-1.4,0.4-2.1l-1-2.4c-0.3-0.7-1-1.2-1.8-1.2h-5.9v-7.8h5.9c0.8,0,1.5-0.5,1.8-1.2l1-2.4c0.3-0.7,0.1-1.6-0.4-2.1
		l-4.2-4.2l5.5-5.5l4.2,4.2c0.6,0.6,1.4,0.7,2.1,0.4l2.4-1c0.7-0.3,1.2-1,1.2-1.8v-5.9h7.8v5.9c0,0.8,0.5,1.5,1.2,1.8l2.4,1
		c0.7,0.3,1.6,0.1,2.1-0.4l4.2-4.2l5.5,5.5l-4.2,4.2c-0.6,0.6-0.7,1.4-0.4,2.1l1,2.4c0.3,0.7,1,1.2,1.8,1.2h5.9L-99.8,369.4z"/>
	<path fill="#E20031" d="M-207.7,455.7h80.4c3.2,0,5.9-2.6,5.9-5.9v-53h-3.9v53c0,1.1-0.9,2-2,2h-80.4c-1.1,0-2-0.9-2-2v-82.4
		c0-1.1,0.9-2,2-2h53v-3.9h-53c-3.2,0-5.9,2.6-5.9,5.9v82.4C-213.5,453-210.9,455.7-207.7,455.7z"/>
	<circle fill="#E20031" cx="-205.7" cy="369.4" r="2"/>
	<circle fill="#E20031" cx="-199.8" cy="369.4" r="2"/>
	<circle fill="#E20031" cx="-193.9" cy="369.4" r="2"/>
	<path fill="#E20031" d="M-152.7,381.1v-3.9h-49c-1.1,0-2,0.9-2,2l0,0v15.7c0,1.1,0.9,2,2,2h62.8v-3.9h-60.8v-11.8H-152.7z"/>
	<path fill="#E20031" d="M-162.5,445.9h29.4c1.1,0,2-0.9,2-2v0v-33.4c0-1.1-0.9-2-2-2h-29.4c-1.1,0-2,0.9-2,2v0v33.4
		C-164.5,445-163.6,445.9-162.5,445.9z M-160.6,412.5h25.5v29.4h-25.5V412.5z"/>
	<path fill="#E20031" d="M-203.7,440h11.8v3.9h-11.8V440z"/>
	<path fill="#E20031" d="M-188,440h17.7v3.9H-188V440z"/>
	<path fill="#E20031" d="M-203.7,432.1h19.6v3.9h-19.6V432.1z"/>
	<path fill="#E20031" d="M-180.2,432.1h9.8v3.9h-9.8V432.1z"/>
	<path fill="#E20031" d="M-203.7,424.3h5.9v3.9h-5.9V424.3z"/>
	<path fill="#E20031" d="M-192,424.3h21.6v3.9H-192V424.3z"/>
	<path fill="#E20031" d="M-203.7,416.4h21.6v3.9h-21.6V416.4z"/>
	<path fill="#E20031" d="M-178.2,416.4h7.8v3.9h-7.8V416.4z"/>
	<path fill="#E20031" d="M-203.7,408.6h9.8v3.9h-9.8V408.6z"/>
	<path fill="#E20031" d="M-190,408.6h19.6v3.9H-190V408.6z"/>
	<path fill="#E20031" d="M-203.7,400.7h3.9v3.9h-3.9V400.7z"/>
	<path fill="#E20031" d="M-195.9,400.7h31.4v3.9h-31.4V400.7z"/>
	<path fill="#E20031" d="M-160.6,400.7h27.5v3.9h-27.5L-160.6,400.7z"/>
</g>
</svg>
