<?xml version="1.0" encoding="utf-8"?>
<!-- Generator: Adobe Illustrator 23.0.1, SVG Export Plug-In . SVG Version: 6.00 Build 0)  -->
<svg version="1.1" xmlns="http://www.w3.org/2000/svg" xmlns:xlink="http://www.w3.org/1999/xlink" x="0px" y="0px"
	 viewBox="0 0 60 60" style="enable-background:new 0 0 60 60;" xml:space="preserve">
<style type="text/css">
	.st0{display:none;}
	.st1{display:inline;}
	.st2{clip-path:url(#SVGID_2_);}
	.st3{fill:#F70D39;}
	.st4{clip-path:url(#SVGID_4_);}
	.st5{clip-path:url(#SVGID_6_);}
	.st6{clip-path:url(#SVGID_8_);}
</style>
<g id="Google_Ads" class="st0">
	<g class="st1">
		<defs>
			<rect id="SVGID_1_" width="60" height="60"/>
		</defs>
		<clipPath id="SVGID_2_">
			<use xlink:href="#SVGID_1_"  style="overflow:visible;"/>
		</clipPath>
		<g class="st2">
			<path class="st3" d="M0,44.77c0.41-2.69,1.92-4.88,3.24-7.15C8.71,28.11,14.22,18.62,19.67,9.1c1.54-2.69,3.52-4.81,6.49-5.87
				c3.13-1.12,6.17-0.87,9.13,0.62c0.26,0.13,0.5,0.26,0.82,0.26c0.39-0.01,0.66,0.3,0.92,0.57C38.27,5.98,39.2,7.5,40.14,9
				c4.45,7.14,8.51,14.52,12.72,21.8c1.59,2.75,3.14,5.53,4.76,8.27c1.08,1.83,2.06,3.68,2.38,5.81c0,0.98,0,1.95,0,2.93
				c-0.03,0.13-0.07,0.26-0.09,0.4c-0.92,5.23-5.16,9.16-10.41,9.44c-4.63,0.24-8.23-1.7-10.59-5.71c-2.9-4.93-5.72-9.91-8.57-14.86
				c-0.31-0.54-0.35-0.54-0.66-0.02c-0.05,0.08-0.09,0.17-0.14,0.26c-2.82,4.89-5.6,9.79-8.47,14.65
				c-2.43,4.12-6.08,6.06-10.87,5.61c-3.4-0.32-6.16-1.87-8.21-4.63c-1.11-1.49-1.67-3.2-1.98-5.01C0,46.88,0,45.82,0,44.77z
				 M21.34,14.16c-0.17,1.16,0.32,2.31,0.89,3.43c1.68,3.31,3.58,6.5,5.44,9.71c4.54,7.84,9.07,15.69,13.63,23.51
				c1.78,3.05,5.18,4.63,8.67,4.13c6.08-0.86,9.38-7.57,6.32-12.89c-4.44-7.74-8.88-15.48-13.34-23.21
				c-2.03-3.52-3.98-7.08-6.28-10.43c-0.41-0.6-0.84-1.2-1.46-1.59c-2.12-1.33-4.4-1.98-6.92-1.47
				C24.22,6.18,21.21,9.83,21.34,14.16z M22.39,44.31c0.11-0.12,0.16-0.15,0.19-0.2c1.89-3.28,3.78-6.56,5.69-9.83
				c0.19-0.33,0.1-0.57-0.07-0.86c-1.8-3.08-3.6-6.17-5.39-9.26c-1.12-1.94-2.29-3.86-3.23-5.9c-0.33-0.72-0.51-1.49-0.76-2.36
				c-3.83,6.64-7.6,13.16-11.45,19.83c3.41-1.12,6.55-0.86,9.52,0.85C19.86,38.28,21.64,40.89,22.39,44.31z M2.59,46.36
				c0,4.8,3.84,8.68,8.6,8.68c4.89,0.01,8.67-3.9,8.75-8.89c0.06-4.36-3.62-8.4-8.84-8.47C5.49,37.61,2.44,42.58,2.59,46.36z"/>
		</g>
	</g>
</g>
<g id="Facebook_x2F_Instagram_Ads" class="st0">
	<g class="st1">
		<path class="st3" d="M60,5.86c0,16.09,0,32.19,0,48.28c-0.16,0.62-0.31,1.24-0.59,1.83c-1.08,2.23-2.87,3.52-5.27,4.03
			c-16.09,0-32.19,0-48.28,0c-2.41-0.52-4.23-1.82-5.28-4.09c-0.24-0.53-0.39-1.1-0.58-1.65C0,38.09,0,21.91,0,5.74
			C0.47,3.89,1.37,2.32,2.97,1.2C3.82,0.61,4.77,0.28,5.74,0c16.17,0,32.34,0,48.52,0c0.57,0.2,1.16,0.32,1.71,0.59
			C58.2,1.67,59.49,3.47,60,5.86z M29.94,57.96c7.46,0,14.92,0,22.38,0c0.63,0,1.25-0.03,1.86-0.18c2.34-0.58,3.77-2.53,3.77-5.21
			c0.01-10.59,0-21.17,0.01-31.76c0-0.56-0.17-0.75-0.74-0.74c-3.48,0.02-6.95,0.01-10.43,0.01c-0.17,0-0.41-0.08-0.5,0.07
			c-0.12,0.2,0.11,0.34,0.21,0.49c2.99,4.44,4.14,9.31,3.3,14.6c-1.73,10.93-12.04,18.37-22.98,16.61
			c-9.37-1.5-16.43-9.35-16.88-18.82c-0.21-4.51,0.99-8.65,3.54-12.39c0.1-0.15,0.34-0.29,0.22-0.49c-0.09-0.15-0.33-0.07-0.5-0.07
			c-3.46,0-6.91,0-10.37,0c-0.77,0-0.79,0.02-0.79,0.79c0,3.98,0,7.97,0,11.95c0,6.56,0,13.12,0,19.69c0,2.75,1.43,4.71,3.83,5.28
			c0.61,0.14,1.23,0.18,1.86,0.18C15.14,57.95,22.54,57.96,29.94,57.96z M29.99,2.04c-7.44,0-14.88,0-22.32,0
			c-0.61,0-1.21,0.04-1.8,0.18c-2.36,0.57-3.8,2.5-3.82,5.16c-0.02,3.24-0.01,6.48,0,9.73c0,0.77,0.03,0.8,0.79,0.8
			c4.06,0,8.12-0.01,12.19,0.01c0.51,0,0.87-0.16,1.24-0.5c4.54-4.17,9.9-6,16.03-5.34c4.45,0.48,8.31,2.34,11.56,5.43
			c0.27,0.26,0.54,0.41,0.92,0.41c4.18-0.01,8.36-0.01,12.54,0c0.48,0,0.66-0.17,0.65-0.65c-0.01-3.34,0.02-6.68-0.02-10.02
			c-0.03-2.23-1-3.9-3.11-4.81c-0.79-0.34-1.63-0.39-2.47-0.39C44.91,2.04,37.45,2.04,29.99,2.04z M29.97,49.9
			c9.94,0.01,17.92-7.94,17.93-17.88c0.01-9.94-7.95-17.93-17.88-17.94c-9.93-0.01-17.92,7.97-17.94,17.89
			C12.08,41.91,20.04,49.89,29.97,49.9z"/>
		<path class="st3" d="M42.96,9.98c0-0.96-0.01-1.91,0-2.87c0.02-1.89,1.28-3.16,3.16-3.16c1.91-0.01,3.82-0.01,5.74,0
			c1.86,0.01,3.16,1.2,3.22,3.07c0.06,1.99,0.06,3.98,0,5.97c-0.06,1.89-1.37,3.09-3.27,3.1c-1.87,0.01-3.75,0.02-5.62,0
			c-1.95-0.02-3.21-1.29-3.22-3.24C42.95,11.89,42.96,10.93,42.96,9.98z M52.93,9.96c0-0.9,0.01-1.8,0-2.69
			c-0.01-0.84-0.29-1.16-1.11-1.16c-1.87-0.01-3.75-0.01-5.62,0c-0.8,0.01-1.13,0.34-1.14,1.16c-0.01,1.84-0.02,3.67,0,5.51
			c0.01,0.79,0.38,1.14,1.16,1.14c1.85,0.01,3.71,0.01,5.57,0c0.81,0,1.14-0.33,1.15-1.14C52.94,11.84,52.93,10.9,52.93,9.96z"/>
		<path class="st3" d="M7.07,10.03c0,1.25,0.01,2.5,0,3.75c-0.01,0.78-0.38,1.23-1.01,1.26c-0.66,0.03-1.12-0.41-1.13-1.21
			c-0.02-2.56-0.02-5.11,0-7.67c0.01-0.75,0.47-1.22,1.08-1.21c0.64,0,1.05,0.49,1.06,1.28C7.08,7.5,7.07,8.77,7.07,10.03z"/>
		<path class="st3" d="M11.06,10.08c0,1.23,0,2.46,0,3.69c0,0.79-0.36,1.24-0.99,1.27c-0.66,0.03-1.12-0.39-1.13-1.2
			c-0.03-2.56-0.03-5.11,0-7.67c0.01-0.8,0.49-1.26,1.12-1.22c0.64,0.04,1,0.51,1.01,1.33C11.06,7.54,11.06,8.81,11.06,10.08z"/>
		<path class="st3" d="M15.04,10.05c0,1.25,0,2.49,0,3.74c0,0.81-0.4,1.26-1.07,1.24c-0.65-0.01-1.02-0.45-1.02-1.23
			c-0.01-2.53-0.01-5.07,0-7.6c0-0.79,0.42-1.27,1.07-1.25c0.62,0.02,1.01,0.48,1.02,1.24C15.05,7.48,15.04,8.77,15.04,10.05z"/>
		<path class="st3" d="M29.99,48.08c-8.83-0.01-16.08-7.27-16.07-16.1c0.01-8.84,7.26-16.08,16.1-16.07
			c8.84,0.01,16.08,7.26,16.07,16.1C46.08,40.85,38.83,48.09,29.99,48.08z M29.99,45.91c7.7,0,13.91-6.17,13.92-13.86
			c0.01-7.74-6.17-13.96-13.87-13.97c-7.72-0.01-13.95,6.19-13.95,13.89C16.08,39.7,22.27,45.91,29.99,45.91z"/>
		<path class="st3" d="M49,11.05c-0.33,0-0.66,0.02-0.99,0c-0.61-0.04-1.01-0.42-1.05-0.97c-0.04-0.57,0.3-1.01,0.9-1.1
			c0.75-0.12,1.52-0.12,2.27,0c0.61,0.09,0.93,0.52,0.9,1.1C51,10.63,50.61,11.01,50,11.05C49.67,11.07,49.33,11.05,49,11.05z"/>
		<path class="st3" d="M39.06,32.03c0,1.62,0.01,3.24,0,4.86c-0.01,1.51-0.89,2.7-2.25,3.07c-1.39,0.38-2.74-0.21-3.52-1.55
			c-0.23-0.39-1.63-0.8-2.04-0.6c-0.25,0.12-0.24,0.38-0.29,0.6c-0.45,2.12-2.29,3.63-4.43,3.67c-2.08,0.03-3.98-1.46-4.47-3.54
			c-0.08-0.36-0.18-0.75-0.12-1.1c0.1-0.58-0.11-0.86-0.6-1.16c-1.92-1.15-2.8-3.4-2.24-5.57c0.54-2.11,2.47-3.77,4.69-3.77
			c2.98,0,5.9-0.57,8.84-0.86c0.31-0.03,0.48-0.19,0.63-0.45c0.81-1.39,2.14-1.99,3.55-1.6c1.41,0.39,2.25,1.57,2.25,3.18
			C39.07,28.83,39.06,30.43,39.06,32.03z M32.91,32.04c0-1.05-0.01-2.11,0-3.16c0.01-0.45-0.16-0.65-0.63-0.59
			c-1.57,0.2-3.13,0.39-4.7,0.58c-0.33,0.04-0.49,0.21-0.49,0.54c0,1.74,0,3.47,0,5.21c0,0.27,0.1,0.45,0.39,0.49
			c1.59,0.2,3.17,0.39,4.76,0.6c0.48,0.06,0.68-0.13,0.67-0.62C32.89,34.07,32.91,33.06,32.91,32.04z M36.91,32.03
			C36.9,32.03,36.9,32.03,36.91,32.03c-0.01-1.64,0-3.28-0.01-4.92c-0.01-0.63-0.37-1.03-0.88-1.04c-0.51-0.01-0.91,0.44-0.93,1.07
			c-0.01,0.16,0,0.31,0,0.47c0,2.91,0,5.82,0,8.73c0,0.25-0.01,0.51,0.02,0.76c0.07,0.49,0.46,0.83,0.92,0.82
			c0.46-0.01,0.82-0.35,0.87-0.85c0.02-0.21,0.02-0.43,0.02-0.64C36.91,34.96,36.91,33.49,36.91,32.03z M24.92,32.03
			C24.92,32.03,24.92,32.03,24.92,32.03c0-0.56,0-1.13,0-1.69c0-1.31-0.19-1.46-1.5-1.21c-0.02,0-0.04,0.01-0.06,0.01
			c-1.57,0.35-2.54,1.89-2.22,3.52c0.29,1.45,1.87,2.49,3.37,2.24c0.33-0.06,0.4-0.25,0.4-0.53C24.92,33.59,24.92,32.81,24.92,32.03
			z M25.34,37.07c-0.23,0-0.47,0.01-0.7,0c-0.43-0.02-0.59,0.18-0.57,0.6c0.05,1.13,1.04,2.17,2.16,2.25
			c1.29,0.1,2.42-0.72,2.64-1.9c0.07-0.39-0.05-0.59-0.46-0.63C27.4,37.27,26.38,37.07,25.34,37.07z"/>
	</g>
</g>
<g id="LinkedIn_Ads" class="st0">
	<g class="st1">
		<path class="st3" d="M60,58.4c-0.48,1.1-1.27,1.61-2.49,1.59c-3.01-0.04-6.02-0.01-9.02-0.01c-1.72,0-2.57-0.87-2.57-2.64
			c0-7.22-0.01-14.45-0.01-21.67c0-3.23-2.06-4.77-4.44-5.26c-2.96-0.61-5.47,1.38-6.18,3.84c-0.23,0.79-0.32,1.59-0.32,2.4
			c0,6.99,0,13.97,0,20.96c0,1.58-0.77,2.37-2.34,2.37c-3.44,0-6.87,0-10.31,0c-1.74,0-2.5-0.77-2.5-2.54c0-9.36,0-18.72,0-28.08
			c0-2.81,0-5.62,0-8.43c0-1.78,0.76-2.62,2.51-2.64c3.05-0.04,6.09-0.03,9.14,0c1.7,0.02,2.51,0.9,2.54,2.64
			c0,0.16,0.02,0.31,0.03,0.53c0.5-0.25,0.8-0.67,1.17-0.99c2.31-1.94,4.97-2.97,7.94-3.15c2.08-0.13,4.18-0.15,6.23,0.37
			c5.7,1.46,9.7,5.96,10.54,11.86c0.02,0.16,0.06,0.31,0.09,0.46C60,39.48,60,48.94,60,58.4z M22.06,39.1c0,6,0,11.99-0.01,17.99
			c0,0.47,0.07,0.73,0.63,0.72c3.2-0.02,6.41-0.02,9.61,0c0.44,0,0.67-0.14,0.62-0.61c-0.02-0.18,0-0.36,0-0.53
			c0-6.75,0-13.5,0-20.25c0-5.33,4.21-8.81,8.66-8.19c2.3,0.32,4.18,1.4,5.44,3.42c0.86,1.39,1.05,2.96,1.06,4.56
			c0.04,6.93,0.07,13.85,0.11,20.78c0,0.82,0.01,0.82,0.82,0.82c2.71,0,5.43,0,8.14,0c0.82,0,0.82,0,0.82-0.81
			c0-8.21,0.01-16.43-0.01-24.64c0-1.32-0.08-2.65-0.45-3.94c-1.28-4.4-4.03-7.32-8.43-8.57c-1.88-0.53-3.8-0.42-5.71-0.34
			c-3.08,0.14-5.73,1.38-7.79,3.71c-1.01,1.14-2.07,2.21-3.12,3.3c-0.11,0.12-0.23,0.35-0.41,0.25c-0.16-0.09-0.09-0.33-0.09-0.5
			c0-1.7-0.02-3.4,0.01-5.11c0.01-0.59-0.19-0.74-0.74-0.73c-2.79,0.02-5.59,0.01-8.38,0.01c-0.77,0-0.78,0-0.78,0.78
			C22.06,27.18,22.06,33.14,22.06,39.1z"/>
		<path class="st3" d="M0,6.98c0.46-2.26,1.52-4.17,3.43-5.46c2.67-1.8,5.54-2.07,8.37-0.49c2.78,1.55,4.32,4,4.27,7.31
			c-0.06,4.08-3.24,7.62-7.16,8.03c-4.06,0.42-7.74-2.19-8.73-6.22C0.12,9.93,0.06,9.71,0,9.48C0,8.65,0,7.81,0,6.98z M8.05,14.22
			c2.63,0.26,5.82-2.28,5.87-5.82c0.04-3.32-2.45-6.06-5.64-6.14c-3.51-0.08-6.11,2.4-6.2,5.92C2.01,11.55,4.56,14.13,8.05,14.22z"
			/>
		<path class="st3" d="M15.04,39.21c0,5.8-0.05,11.6,0.03,17.39c0.03,2.03-1.67,3.44-3.35,3.39c-2.48-0.07-4.96-0.01-7.44-0.02
			c-2-0.01-3.36-1.36-3.36-3.39c-0.01-11.64,0-23.27,0-34.91c0-1.99,1.21-3.35,3.02-3.37c2.15-0.03,4.3-0.03,6.44-0.04
			c0.62,0,1.25-0.01,1.87,0.06c1.61,0.19,2.78,1.47,2.79,3.13C15.04,27.38,15.04,33.29,15.04,39.21z M3.07,39.05
			c0,5.8,0,11.6,0,17.4c0,1.04,0.31,1.35,1.32,1.35c2.38,0,4.77,0,7.15,0c1.14,0,1.42-0.28,1.42-1.43c0-11.46,0-22.92,0-34.38
			c0-1.17-0.36-1.54-1.5-1.54c-2.32,0-4.65,0-6.97,0c-1.12,0-1.41,0.3-1.41,1.44C3.07,27.61,3.07,33.33,3.07,39.05z"/>
	</g>
</g>
<g id="DSPs">
	<g>
		<defs>
			<rect id="SVGID_3_" width="60" height="60"/>
		</defs>
		<clipPath id="SVGID_4_">
			<use xlink:href="#SVGID_3_"  style="overflow:visible;"/>
		</clipPath>
		<g class="st4">
			<path class="st3" d="M30,33.14c9.1,0,18.21,0,27.31,0c1.15,0,1.15-0.01,1.15-1.15c0-1.61,0-3.22,0-4.82c0-0.81-0.09-0.9-0.93-0.9
				c-4.29,0-8.59,0-12.88,0c-0.29,0-0.58,0.02-0.85-0.08c-0.35-0.13-0.53-0.37-0.5-0.74c0.03-0.37,0.25-0.59,0.62-0.65
				c0.18-0.03,0.37-0.02,0.55-0.02c4.42,0,8.84,0,13.25,0c1.49,0,2.27,0.77,2.28,2.24C60,28.8,60,30.59,60,32.38
				c0,1.47-0.79,2.24-2.27,2.25c-0.72,0-1.44,0.02-2.16-0.01c-0.47-0.02-0.68,0.13-0.79,0.61c-1.49,6.57-3.01,13.13-4.52,19.69
				c-0.51,2.2-1.63,3.08-3.95,3.08c-10.87,0-21.74,0-32.61,0c-2.35,0-3.47-0.9-3.98-3.12c-1.48-6.47-2.97-12.93-4.45-19.4
				c-0.2-0.86-0.2-0.86-1.14-0.86c-0.7,0-1.4,0.01-2.1,0c-1.17-0.02-2.02-0.84-2.03-1.99c-0.02-1.95-0.02-3.9,0-5.85
				c0.01-1.19,0.85-2.01,2.06-2.01c3.49-0.01,6.99,0,10.48,0c0.89,0,0.89,0,0.89-0.9c0-0.92-0.02-1.85,0.01-2.77
				c0.01-0.45-0.15-0.59-0.61-0.59c-2.42,0.02-4.85,0.01-7.27,0.01c-1.42,0-2.22-0.77-2.22-2.16c-0.01-4.7-0.01-9.41,0-14.11
				c0-1.4,0.83-2.23,2.25-2.23C13.04,2,20.48,2,27.92,2.01c1.5,0,2.26,0.77,2.26,2.25c0,4.64-0.03,9.29,0.02,13.93
				c0.02,1.53-0.8,2.4-2.46,2.39c-2.22-0.01-4.44,0-6.66,0c-0.93,0-0.93,0-0.93,0.89c0,0.9,0.02,1.81-0.01,2.71
				c-0.01,0.45,0.17,0.59,0.62,0.59c1.73-0.02,3.45-0.01,5.18-0.01c0.31,0,0.62,0.01,0.84,0.27c0.34,0.41,0.16,1-0.39,1.14
				c-0.29,0.08-0.61,0.07-0.92,0.07c-7.6,0-15.21,0-22.81,0c-1.09,0-1.12,0.03-1.12,1.07c0,1.61,0,3.22,0,4.82
				c0,0.92,0.06,0.98,1.03,0.98C11.72,33.14,20.86,33.14,30,33.14z M30.01,34.63c-7.56,0-15.12,0.01-22.68-0.01
				c-0.6,0-0.68,0.17-0.56,0.69c1.51,6.52,3,13.04,4.5,19.57c0.26,1.13,0.89,1.63,2.09,1.63c11.09,0,22.18,0,33.28,0
				c1.18,0,1.83-0.51,2.09-1.64c1.5-6.5,2.99-13.01,4.49-19.51c0.17-0.73,0.17-0.73-0.59-0.73C45.09,34.63,37.55,34.63,30.01,34.63z
				 M16.78,3.5c-3.64,0-7.27,0-10.91,0c-0.93,0-0.99,0.06-0.99,0.95c0,4.52,0,9.05,0,13.57c0,0.98,0.09,1.08,1.08,1.08
				c7.23,0,14.47,0,21.7,0c0.89,0,1.06-0.16,1.06-1.01c0-4.52,0-9.05,0-13.57c0-0.89-0.14-1.02-1.03-1.02
				C24.06,3.5,20.42,3.5,16.78,3.5z M18.62,22.69c0-0.54-0.01-1.08,0-1.63c0.01-0.33-0.14-0.48-0.47-0.48c-0.9,0-1.81,0-2.71,0
				c-0.3,0-0.46,0.14-0.46,0.44c0,1.1,0,2.21,0,3.31c0,0.3,0.14,0.43,0.45,0.43c0.9-0.01,1.81-0.01,2.71,0
				c0.39,0.01,0.49-0.18,0.49-0.52C18.61,23.74,18.62,23.22,18.62,22.69z"/>
			<path class="st3" d="M33.87,31.99c-1.82-0.03-3.34-0.89-4.27-2.57c-0.96-1.73-0.93-3.52,0.25-5.14
				c2.54-3.51,5.13-6.99,7.76-10.44c1.67-2.2,4.76-2.6,6.98-1.01c2.23,1.58,2.81,4.58,1.2,6.81c-2.53,3.5-5.12,6.94-7.72,10.39
				C37.08,31.34,35.7,31.97,33.87,31.99z M45.15,16.88c0.02-0.47-0.05-0.9-0.22-1.32c-1.09-2.59-4.48-3-6.24-0.69
				c-2.57,3.36-5.07,6.77-7.57,10.18c-1.15,1.57-0.74,3.68,0.85,4.82c1.54,1.1,3.73,0.82,4.89-0.71c2.57-3.41,5.11-6.85,7.65-10.28
				C44.95,18.29,45.2,17.62,45.15,16.88z"/>
			<path class="st3" d="M19.69,45.01c0,1.89,0,3.78,0,5.67c0,1.17-0.64,1.84-1.84,1.88c-0.76,0.03-1.52,0.03-2.28,0
				c-1.18-0.04-1.86-0.72-1.87-1.88c-0.01-3.78-0.01-7.56,0-11.33c0-1.16,0.68-1.84,1.86-1.88c0.76-0.02,1.52-0.03,2.28,0
				c1.2,0.04,1.84,0.7,1.85,1.87C19.69,41.23,19.69,43.12,19.69,45.01z M18.15,45.07c0-1.83-0.01-3.65,0.01-5.48
				c0-0.46-0.14-0.66-0.64-0.64c-0.57,0.03-1.15,0.02-1.72,0c-0.43-0.01-0.58,0.18-0.58,0.58c0.01,0.84,0,1.69,0,2.53
				c0,2.77,0.01,5.54-0.01,8.31c0,0.45,0.08,0.74,0.64,0.7c0.51-0.03,1.03-0.04,1.54,0c0.61,0.05,0.77-0.22,0.76-0.77
				C18.14,48.56,18.15,46.82,18.15,45.07z"/>
			<path class="st3" d="M40.32,44.96c0-1.87,0-3.74,0-5.61c0-1.18,0.64-1.84,1.84-1.88c0.76-0.03,1.52-0.03,2.28,0
				c1.18,0.04,1.86,0.72,1.87,1.88c0.01,3.78,0.01,7.56,0,11.33c0,1.16-0.68,1.84-1.86,1.88c-0.76,0.03-1.52,0.03-2.28,0
				c-1.2-0.04-1.84-0.71-1.85-1.88C40.32,48.78,40.32,46.87,40.32,44.96z M44.77,45c0-1.75,0-3.49,0-5.24c0-0.79-0.01-0.79-0.84-0.8
				c-0.47,0-0.95,0.03-1.42-0.01c-0.51-0.03-0.69,0.16-0.68,0.66c0.03,1.14,0.01,2.29,0.01,3.43c0,2.43,0.02,4.86-0.01,7.29
				c-0.01,0.59,0.19,0.79,0.78,0.75c0.47-0.04,0.95-0.04,1.42,0c0.56,0.04,0.76-0.16,0.75-0.72C44.76,48.58,44.77,46.79,44.77,45z"
				/>
			<path class="st3" d="M28.56,45.02c0,1.87,0,3.74,0,5.61c0,1.24-0.66,1.91-1.92,1.94c-0.72,0.02-1.44,0.02-2.16,0
				c-1.23-0.03-1.91-0.71-1.91-1.89c-0.01-3.78-0.01-7.55,0-11.33c0-1.16,0.68-1.83,1.86-1.87c0.76-0.02,1.52-0.03,2.28,0
				c1.19,0.04,1.84,0.71,1.84,1.89C28.57,41.25,28.56,43.13,28.56,45.02z M27.02,45.01c0-1.81-0.01-3.61,0.01-5.42
				c0-0.47-0.17-0.66-0.65-0.63c-0.53,0.03-1.07,0.03-1.6,0c-0.5-0.03-0.7,0.14-0.68,0.65c0.03,1.04,0.01,2.09,0.01,3.13
				c0,2.55,0.01,5.1-0.01,7.64c0,0.51,0.16,0.74,0.71,0.7c0.47-0.03,0.95-0.04,1.41,0c0.61,0.05,0.83-0.16,0.82-0.78
				C27,48.54,27.02,46.77,27.02,45.01z"/>
			<path class="st3" d="M31.45,45.02c0-1.87,0-3.74,0-5.61c0-1.27,0.66-1.93,1.97-1.95c0.72-0.01,1.44-0.02,2.16,0
				c1.18,0.04,1.86,0.72,1.86,1.87c0.01,3.78,0.01,7.55,0,11.33c0,1.16-0.67,1.84-1.85,1.89c-0.76,0.03-1.52,0.03-2.28,0
				c-1.19-0.04-1.85-0.71-1.86-1.88C31.44,48.8,31.45,46.91,31.45,45.02z M35.9,45.08c0-1.83-0.01-3.65,0.01-5.48
				c0-0.45-0.14-0.67-0.63-0.65c-0.57,0.03-1.15,0.02-1.72,0c-0.43-0.02-0.59,0.16-0.58,0.57c0.02,0.62,0,1.24,0,1.87
				c0,2.95,0,5.9,0,8.85c0,0.82,0.01,0.83,0.87,0.83c0.45,0,0.9-0.03,1.35,0.01c0.54,0.04,0.72-0.18,0.71-0.7
				C35.89,48.62,35.9,46.85,35.9,45.08z"/>
			<path class="st3" d="M15.98,12.56c0,0.82,0,1.65,0,2.47c0,0.49-0.16,0.89-0.73,0.94c-0.48,0.04-0.78-0.32-0.8-0.93
				c-0.01-0.52-0.02-1.04,0-1.57c0.01-0.39-0.11-0.6-0.55-0.59c-1.07,0.02-2.13,0.01-3.2,0c-0.37,0-0.52,0.15-0.51,0.51
				c0.01,0.56,0,1.12,0,1.69c0,0.47-0.18,0.84-0.71,0.89c-0.44,0.05-0.8-0.33-0.81-0.88c-0.02-1.69-0.06-3.37,0.01-5.06
				c0.08-2.01,1.79-3.53,3.77-3.46c1.96,0.06,3.51,1.65,3.54,3.63C15.99,10.99,15.98,11.78,15.98,12.56z M12.26,11.39
				C12.26,11.39,12.26,11.39,12.26,11.39c0.31,0,0.61,0.01,0.92,0c1.38-0.02,1.27,0.23,1.25-1.26c-0.01-1.04-0.81-1.92-1.81-2.04
				c-1.08-0.13-2.03,0.49-2.35,1.52c-0.13,0.43-0.06,0.88-0.08,1.31c-0.02,0.33,0.13,0.48,0.47,0.47
				C11.19,11.38,11.72,11.39,12.26,11.39z"/>
			<path class="st3" d="M17.54,11.31c0-0.8,0-1.61,0-2.41c0-2.06,0.3-2.36,2.43-2.33c1.66,0.03,3.03,0.65,4,2
				c2.07,2.86,0.33,6.82-3.22,7.34c-0.53,0.08-1.06,0.12-1.59,0.1c-1.05-0.04-1.59-0.55-1.61-1.58
				C17.52,13.4,17.54,12.36,17.54,11.31C17.54,11.31,17.54,11.31,17.54,11.31z M19.07,11.27c0,0.9,0,1.81,0,2.71
				c0,0.27,0,0.5,0.39,0.54c1.52,0.18,3.21-0.77,3.69-2.17c0.8-2.29-0.98-4.46-3.45-4.3c-0.46,0.03-0.66,0.13-0.65,0.62
				C19.09,9.54,19.07,10.41,19.07,11.27z"/>
			<path class="st3" d="M34.44,28.96c-1.31,0-2.35-1.01-2.36-2.29c-0.02-1.22,1.09-2.31,2.36-2.32c1.31-0.01,2.39,1.05,2.38,2.34
				C36.81,27.98,35.77,28.96,34.44,28.96z M34.43,25.83c-0.45,0.01-0.83,0.43-0.81,0.88c0.02,0.43,0.39,0.8,0.83,0.8
				c0.46,0.01,0.84-0.38,0.84-0.84C35.28,26.21,34.88,25.82,34.43,25.83z"/>
		</g>
	</g>
</g>
<g id="Twitter_Ads" class="st0">
	<g class="st1">
		<defs>
			<rect id="SVGID_5_" width="60" height="60"/>
		</defs>
		<clipPath id="SVGID_6_">
			<use xlink:href="#SVGID_5_"  style="overflow:visible;"/>
		</clipPath>
		<g class="st5">
			<path class="st3" d="M60,12.66c-1.4,2.19-3.1,4.12-5.14,5.73c-0.51,0.4-0.69,0.83-0.7,1.48c-0.15,10.27-3.97,18.97-11.41,26.01
				c-5.02,4.76-11.09,7.49-17.92,8.49c-6,0.89-11.87,0.32-17.58-1.76c-2.3-0.84-4.48-1.94-6.55-3.24c-0.26-0.16-0.46-0.41-0.7-0.62
				c0-0.35,0-0.7,0-1.05c0.46-0.59,1.04-0.73,1.8-0.67c4.69,0.38,9.14-0.43,13.26-2.78c0.05-0.03,0.09-0.07,0.13-0.11
				c-0.03-0.22-0.23-0.2-0.36-0.24c-3.95-1.36-6.67-4-8.19-7.89c-0.45-1.15-0.29-1.59,0.8-2.17c0.01-0.17-0.14-0.22-0.24-0.3
				c-2.78-2.24-4.35-5.16-4.86-8.67c-0.08-0.54-0.09-1.09-0.08-1.64c0.01-0.97,0.83-1.51,1.75-1.17c0.2,0.07,0.39,0.16,0.7,0.3
				c-0.86-1.31-1.5-2.59-1.88-3.99c-0.97-3.51-0.51-6.84,1.22-10.01c0.5-0.91,1.47-0.99,2.17-0.17c1.43,1.69,2.97,3.26,4.7,4.64
				c0.75,0.6,1.53,1.14,2.29,1.73c0.46,0.36,0.63,0.84,0.45,1.41c-0.17,0.52-0.57,0.78-1.1,0.81c-0.41,0.02-0.74-0.19-1.07-0.42
				c-2-1.41-3.88-2.96-5.54-4.76c-0.47-0.51-0.49-0.49-0.7,0.16c-1.28,4.07,0.24,8.82,3.63,11.39c0.22,0.16,0.44,0.32,0.65,0.5
				c0.5,0.43,0.64,0.94,0.41,1.46c-0.22,0.51-0.73,0.81-1.33,0.77c-1.05-0.07-2.09-0.21-3.11-0.52c-0.57-0.18-0.64-0.11-0.48,0.46
				c1.11,4.02,3.66,6.62,7.67,7.78c0.07,0.02,0.15,0.03,0.23,0.05c0.84,0.22,1.27,0.68,1.25,1.32c-0.03,0.65-0.47,1.05-1.33,1.25
				c-0.88,0.2-1.77,0.28-2.67,0.34c-0.47,0.03-0.53,0.14-0.28,0.54c1.71,2.66,4.12,4.26,7.22,4.83c0.52,0.09,1.05,0.12,1.57,0.19
				c0.57,0.07,0.98,0.35,1.14,0.94c0.15,0.6-0.11,1.03-0.56,1.37c-1.59,1.21-3.29,2.24-5.12,3.05c-2.5,1.11-5.11,1.78-7.95,2.05
				c1.7,0.78,3.36,1.35,5.06,1.76c6.77,1.64,13.45,1.33,19.97-1.13c6.87-2.6,12.1-7.18,15.83-13.48c2.52-4.26,4.02-8.87,4.48-13.81
				c0.13-1.37,0.13-2.73,0.1-4.09c-0.01-0.68,0.22-1.2,0.77-1.61c0.93-0.68,1.8-1.43,2.66-2.31c-0.95,0.16-1.82,0.31-2.69,0.44
				c-0.72,0.11-1.25-0.16-1.48-0.75c-0.23-0.56-0.06-1.1,0.54-1.52c0.83-0.56,1.61-1.17,2.29-1.91c0.15-0.17,0.35-0.31,0.41-0.55
				c-0.15-0.18-0.29-0.03-0.42,0.02c-1.1,0.39-2.23,0.7-3.37,0.97c-0.75,0.18-1.29-0.03-1.84-0.55c-3.29-3.09-7.13-3.9-11.31-2.28
				c-3.84,1.49-6.01,4.44-6.61,8.54c-0.18,1.22-0.01,2.41,0.16,3.61c0.13,0.97-0.36,1.57-1.33,1.54c-2.45-0.07-4.85-0.49-7.21-1.13
				c-0.77-0.21-1.15-0.86-0.97-1.5c0.19-0.69,0.83-1.06,1.62-0.87c1.52,0.36,3.04,0.68,4.6,0.87c0.54,0.07,0.67-0.07,0.64-0.6
				c-0.22-3.78,1.04-7.02,3.63-9.74c4.76-5,12.81-5.33,17.96-0.74c0.32,0.29,0.61,0.32,1,0.22c1.98-0.5,3.85-1.28,5.63-2.28
				c0.32-0.18,0.66-0.36,1.05-0.32c0.77,0.09,1.27,0.82,1.05,1.58c-0.35,1.21-0.92,2.32-1.62,3.36c-0.1,0.14-0.24,0.26-0.26,0.54
				c0.48-0.19,0.93-0.35,1.37-0.54c1.06-0.44,1.34-0.39,2.11,0.43C60,12.03,60,12.34,60,12.66z"/>
			<path class="st3" d="M41.06,37.22c0.56,0.01,0.93,0.23,1.14,0.67c0.24,0.5,0.13,0.96-0.2,1.36c-0.46,0.55-0.95,1.09-1.45,1.61
				c-1.82,1.9-3.85,3.54-6.13,4.86c-0.94,0.54-1.83,0.23-2.03-0.7c-0.13-0.6,0.16-1.02,0.63-1.33c0.75-0.5,1.51-0.97,2.24-1.49
				c1.76-1.25,3.3-2.74,4.71-4.37C40.28,37.49,40.61,37.18,41.06,37.22z"/>
			<path class="st3" d="M17.23,16.97c0.7,0.02,1.28,0.62,1.25,1.29c-0.02,0.65-0.6,1.21-1.22,1.18c-0.72-0.03-1.26-0.59-1.24-1.29
				C16.03,17.49,16.59,16.95,17.23,16.97z"/>
			<path class="st3" d="M44.77,35.01c-0.01,0.66-0.61,1.24-1.25,1.22c-0.65-0.02-1.23-0.63-1.21-1.27c0.02-0.61,0.61-1.19,1.22-1.19
				C44.17,33.76,44.78,34.37,44.77,35.01z"/>
		</g>
	</g>
</g>
<g id="Bing_Ads" class="st0">
	<g class="st1">
		<defs>
			<rect id="SVGID_7_" width="60" height="60"/>
		</defs>
		<clipPath id="SVGID_8_">
			<use xlink:href="#SVGID_7_"  style="overflow:visible;"/>
		</clipPath>
		<g class="st6">
			<path class="st3" d="M8.55,0c2.67,0.88,5.33,1.76,8,2.64c1.87,0.61,3.74,1.24,5.63,1.82c0.54,0.17,0.72,0.43,0.72,0.99
				c-0.02,12.03-0.01,24.06-0.01,36.08c0,0.91,0,0.91,0.81,0.5c3.84-1.97,7.67-3.94,11.51-5.92c0.17-0.09,0.37-0.14,0.51-0.34
				c-0.17-0.19-0.42-0.18-0.62-0.23c-1.61-0.39-3.22-0.79-4.84-1.15c-0.42-0.09-0.63-0.28-0.74-0.7c-1.36-5.45-2.74-10.9-4.11-16.35
				c-0.16-0.63-0.09-0.69,0.55-0.48c3.7,1.19,7.39,2.4,11.08,3.59c4.73,1.53,9.47,3.07,14.21,4.57c0.63,0.2,0.83,0.49,0.83,1.15
				c-0.03,5.43-0.02,10.86,0,16.28c0,0.59-0.18,0.9-0.7,1.19c-9.84,5.4-19.67,10.81-29.51,16.22c-0.07,0.04-0.13,0.08-0.2,0.12
				c-0.12,0-0.23,0-0.35,0c-0.13-0.08-0.26-0.17-0.4-0.24c-3.99-2.06-7.98-4.12-11.98-6.15c-0.6-0.3-0.79-0.65-0.78-1.3
				C8.17,35.15,8.17,17.98,8.17,0.82C8.17,0.55,8.19,0.27,8.2,0C8.32,0,8.44,0,8.55,0z M10.94,27.63c0,7.73,0,15.47-0.01,23.2
				c0,0.43,0.08,0.71,0.51,0.93c3.19,1.61,6.36,3.25,9.53,4.9c0.4,0.21,0.7,0.18,1.08-0.03c8.87-4.9,17.74-9.79,26.63-14.66
				c0.48-0.26,0.64-0.57,0.64-1.11c-0.02-4.26-0.02-8.51,0-12.77c0-0.54-0.16-0.79-0.68-0.95c-6.26-2.01-12.52-4.05-18.77-6.08
				c-0.18-0.06-0.38-0.22-0.55-0.08c-0.19,0.15-0.02,0.37,0.03,0.54c0.82,3.3,1.65,6.59,2.46,9.88c0.11,0.44,0.35,0.58,0.75,0.67
				c3.53,0.83,7.06,1.67,10.59,2.52c0.16,0.04,0.42,0,0.45,0.2c0.04,0.24-0.24,0.27-0.4,0.35c-7.4,3.8-14.79,7.6-22.19,11.4
				c-0.87,0.45-0.88,0.44-0.88-0.56c0-12.81,0-25.62,0.01-38.43c0-0.61-0.16-0.89-0.76-1.08c-2.57-0.8-5.12-1.66-7.68-2.5
				c-0.75-0.25-0.75-0.25-0.75,0.57C10.94,12.24,10.94,19.94,10.94,27.63z"/>
		</g>
	</g>
</g>
</svg>
