<svg xmlns="http://www.w3.org/2000/svg" width="150" height="150" viewBox="0 0 150 150"><defs><style>.cls-1,.cls-2{fill:#fff;}.cls-2{font-size:15px;font-family:ArialRoundedMTBold, Arial Rounded MT Bold;letter-spacing:-0.05em;}</style></defs><title>E-Commerce SEO</title><g id="E-Commerce_SEO" data-name="E-Commerce SEO"><path class="cls-1" d="M70.521,127.51916h7.56746a1.89187,1.89187,0,0,0,0-3.78373H70.521a1.89187,1.89187,0,0,0,0,3.78373Z"/><path class="cls-1" d="M42.143,49.95277a1.892,1.892,0,0,0,1.89187-1.89187V36.70972h60.53963V51.84463a1.89186,1.89186,0,0,0,3.78372,0V29.14227c0-3.40535-4.36642-7.56745-9.45931-7.56745H49.7105a9.47066,9.47066,0,0,0-9.45932,9.45931V48.0609A1.892,1.892,0,0,0,42.143,49.95277Zm1.89187-18.91864a5.67554,5.67554,0,0,1,5.67559-5.67559H98.899c3.2786,0,5.67559,2.64861,5.67559,3.78373V32.926H44.03491V31.03413Z"/><path class="cls-1" d="M106.4664,104.8168a1.892,1.892,0,0,0-1.89186,1.89187V116.168H44.03491v-7.56745a1.89187,1.89187,0,0,0-3.78373,0V125.6273a9.47066,9.47066,0,0,0,9.45932,9.45931H98.899a9.47065,9.47065,0,0,0,9.45931-9.45931V106.70867A1.892,1.892,0,0,0,106.4664,104.8168Zm-1.89186,20.8105a5.67554,5.67554,0,0,1-5.67559,5.67559H49.7105a5.67554,5.67554,0,0,1-5.67559-5.67559v-5.67559h60.53963Z"/><path class="cls-1" d="M70.521,27.25041H66.73727a1.89186,1.89186,0,1,0,0,3.78372H70.521a1.89186,1.89186,0,1,0,0-3.78372Z"/><path class="cls-1" d="M81.87218,27.25041H78.08845a1.89186,1.89186,0,0,0,0,3.78372h3.78373a1.89186,1.89186,0,0,0,0-3.78372Z"/><path class="cls-1" d="M130.62549,58.20318h0a1.89183,1.89183,0,0,0-1.45674-.683H79.51113l-.96485-6.50612a5.71147,5.71147,0,0,0-5.615-4.84506H64.84541v3.78373h8.08582a1.89194,1.89194,0,0,1,1.873,1.61565L81.41434,96.188a5.71149,5.71149,0,0,0,5.61505,4.84507h4.6502a5.64151,5.64151,0,0,0,10.655,0h8.26365a5.6755,5.6755,0,1,0,0-3.78373h-8.26365a5.64151,5.64151,0,0,0-10.655,0h-4.6502a1.90519,1.90519,0,0,1-1.873-1.61565l-.6016-4.05994h38.93833a1.89187,1.89187,0,0,0,1.85781-1.54187l5.67558-30.26981A1.89253,1.89253,0,0,0,130.62549,58.20318ZM115.92572,97.24935a1.89187,1.89187,0,1,1-1.89187,1.89186A1.89194,1.89194,0,0,1,115.92572,97.24935Zm-18.91864,0a1.89187,1.89187,0,1,1-1.89186,1.89186A1.892,1.892,0,0,1,97.00708,97.24935ZM121.92292,87.79H83.99484L80.073,61.304h46.8255Z"/><path class="cls-1" d="M66.73727,78.33072A24.59423,24.59423,0,1,0,42.143,102.92494,24.59411,24.59411,0,0,0,66.73727,78.33072Zm-45.40472,0A20.8105,20.8105,0,1,1,42.143,99.14121,20.81051,20.81051,0,0,1,21.33255,78.33072Z"/><path class="cls-1" d="M44.03491,93.46562v-2.1605A7.55231,7.55231,0,0,0,42.143,76.43886a3.78373,3.78373,0,1,1,3.78373-3.78373,1.89187,1.89187,0,0,0,3.78373,0,7.56756,7.56756,0,0,0-5.67559-7.29881V63.19581a1.89187,1.89187,0,0,0-3.78373,0v2.16051A7.55231,7.55231,0,0,0,42.143,80.22258a3.78373,3.78373,0,1,1-3.78372,3.78373,1.89187,1.89187,0,1,0-3.78373,0,7.56758,7.56758,0,0,0,5.67559,7.29881v2.1605a1.89187,1.89187,0,1,0,3.78373,0Z"/><path class="cls-1" d="M85.6559,66.97954H112.142a1.89187,1.89187,0,0,0,0-3.78373H85.6559a1.89187,1.89187,0,0,0,0,3.78373Z"/><path class="cls-1" d="M117.81758,66.97954h3.78373a1.89187,1.89187,0,0,0,0-3.78373h-3.78373a1.89187,1.89187,0,0,0,0,3.78373Z"/><text class="cls-2" transform="translate(88.74711 82.33588)">SEO</text></g></svg>