<?xml version="1.0" encoding="utf-8"?>
<!-- Generator: Adobe Illustrator 18.1.1, SVG Export Plug-In . SVG Version: 6.00 Build 0)  -->
<svg version="1.1" id="Layer_1" xmlns="http://www.w3.org/2000/svg" xmlns:xlink="http://www.w3.org/1999/xlink" x="0px" y="0px"
	 viewBox="-230 322 150 150" enable-background="new -230 322 150 150" xml:space="preserve">
<title>E-Commerce SEO</title>
<g id="E-Commerce_SEO">
	<path fill="#FC4D4A" d="M-159.5,449.5h7.6c1,0,1.9-0.9,1.9-1.9c0-1-0.8-1.9-1.9-1.9h-7.6c-1,0-1.9,0.9-1.9,1.9
		C-161.4,448.7-160.5,449.5-159.5,449.5z"/>
	<path fill="#FC4D4A" d="M-187.9,372c1,0,1.9-0.8,1.9-1.9v-11.4h60.5v15.1c0,1,0.8,1.9,1.9,1.9s1.9-0.8,1.9-1.9v-22.7
		c0-3.4-4.4-7.6-9.5-7.6h-49.2c-5.2,0-9.5,4.2-9.5,9.5v17C-189.7,371.1-188.9,372-187.9,372z M-186,353c0-3.1,2.5-5.7,5.7-5.7
		c0,0,0,0,0,0h49.2c3.3,0,5.7,2.6,5.7,3.8v3.8H-186L-186,353L-186,353z"/>
	<path fill="#FC4D4A" d="M-123.5,426.8c-1,0-1.9,0.8-1.9,1.9v9.5H-186v-7.6c0-1-0.9-1.9-1.9-1.9c-1,0-1.9,0.8-1.9,1.9v17
		c0,5.2,4.2,9.5,9.5,9.5h49.2c5.2,0,9.5-4.2,9.5-9.5v-18.9C-121.6,427.7-122.5,426.8-123.5,426.8z M-125.4,447.6
		c0,3.1-2.5,5.7-5.7,5.7c0,0,0,0,0,0h-49.2c-3.1,0-5.7-2.5-5.7-5.7c0,0,0,0,0,0V442h60.5V447.6z"/>
	<path fill="#FC4D4A" d="M-159.5,349.3h-3.8c-1,0-1.9,0.8-1.9,1.9c0,1,0.8,1.9,1.9,1.9h3.8c1,0,1.9-0.8,1.9-1.9
		C-157.6,350.1-158.4,349.3-159.5,349.3z"/>
	<path fill="#FC4D4A" d="M-148.1,349.3h-3.8c-1,0-1.9,0.8-1.9,1.9c0,1,0.8,1.9,1.9,1.9h3.8c1,0,1.9-0.8,1.9-1.9
		C-146.2,350.1-147.1,349.3-148.1,349.3z"/>
	<path fill="#FC4D4A" d="M-99.4,380.2L-99.4,380.2c-0.4-0.4-0.9-0.7-1.5-0.7h-49.7l-1-6.5c-0.4-2.8-2.8-4.8-5.6-4.8h-8.1v3.8h8.1
		c0.9,0,1.7,0.7,1.9,1.6l6.6,44.6c0.4,2.8,2.8,4.8,5.6,4.8h4.7c1,2.9,4.2,4.5,7.2,3.5c1.6-0.6,2.9-1.8,3.5-3.5h8.3
		c1,3,4.3,4.5,7.2,3.5c3-1,4.5-4.3,3.5-7.2c-1-3-4.3-4.5-7.2-3.5c-1.6,0.6-2.9,1.8-3.5,3.5h-8.3c-1-2.9-4.2-4.5-7.2-3.5
		c-1.6,0.6-2.9,1.8-3.5,3.5h-4.7c-0.9,0-1.7-0.7-1.9-1.6l-0.6-4.1h38.9c0.9,0,1.7-0.6,1.9-1.5l5.7-30.3
		C-98.9,381.2-99,380.6-99.4,380.2z M-114.1,419.2c1,0,1.9,0.8,1.9,1.9c0,1-0.8,1.9-1.9,1.9c-1,0-1.9-0.8-1.9-1.9v0
		C-116,420.1-115.1,419.2-114.1,419.2z M-133,419.2c1,0,1.9,0.8,1.9,1.9c0,1-0.8,1.9-1.9,1.9s-1.9-0.8-1.9-1.9c0,0,0,0,0,0
		C-134.9,420.1-134,419.2-133,419.2z M-108.1,409.8H-146l-3.9-26.5h46.8L-108.1,409.8z"/>
	<path fill="#FC4D4A" d="M-163.3,400.3c0-13.6-11-24.6-24.6-24.6c-13.6,0-24.6,11-24.6,24.6c0,13.6,11,24.6,24.6,24.6
		C-174.3,424.9-163.3,413.9-163.3,400.3C-163.3,400.3-163.3,400.3-163.3,400.3z M-208.7,400.3c0-11.5,9.3-20.8,20.8-20.8
		s20.8,9.3,20.8,20.8c0,11.5-9.3,20.8-20.8,20.8c0,0,0,0,0,0C-199.4,421.1-208.7,411.8-208.7,400.3z"/>
	<path fill="#FC4D4A" d="M-186,415.5v-2.2c4-1,6.5-5.2,5.4-9.2c-0.9-3.3-3.9-5.7-7.3-5.7c-2.1,0-3.8-1.7-3.8-3.8s1.7-3.8,3.8-3.8
		c2.1,0,3.8,1.7,3.8,3.8l0,0c0,1,0.9,1.9,1.9,1.9c1,0,1.9-0.8,1.9-1.9c0-3.4-2.3-6.4-5.7-7.3v-2.2c0-1-0.9-1.9-1.9-1.9
		c-1,0-1.9,0.8-1.9,1.9v2.2c-4,1-6.5,5.2-5.4,9.2c0.9,3.3,3.9,5.7,7.3,5.7c2.1,0,3.8,1.7,3.8,3.8c0,2.1-1.7,3.8-3.8,3.8
		c-2.1,0-3.8-1.7-3.8-3.8c0,0,0,0,0,0c0-1-0.8-1.9-1.9-1.9c-1,0-1.9,0.8-1.9,1.9c0,0,0,0,0,0c0,3.4,2.3,6.4,5.7,7.3v2.2
		c0,1,0.8,1.9,1.9,1.9C-186.8,417.4-186,416.5-186,415.5C-186,415.5-186,415.5-186,415.5L-186,415.5z"/>
	<path fill="#FC4D4A" d="M-144.3,389h26.5c1,0,1.9-0.9,1.9-1.9c0-1-0.8-1.9-1.9-1.9h-26.5c-1,0-1.9,0.9-1.9,1.9
		C-146.2,388.1-145.4,389-144.3,389z"/>
	<path fill="#FC4D4A" d="M-112.2,389h3.8c1,0,1.9-0.9,1.9-1.9c0-1-0.8-1.9-1.9-1.9h-3.8c-1,0-1.9,0.9-1.9,1.9
		C-114.1,388.1-113.2,389-112.2,389z"/>
	<text transform="matrix(1 0 0 1 -141.2529 404.3359)" fill="#FC4D4A" font-family="'ArialMT'" font-size="12">SEO</text>
</g>
</svg>
