<?xml version="1.0" encoding="utf-8"?>
<!-- Generator: Adobe Illustrator 18.1.1, SVG Export Plug-In . SVG Version: 6.00 Build 0)  -->
<svg version="1.1" id="Ensures_Trust" xmlns="http://www.w3.org/2000/svg" xmlns:xlink="http://www.w3.org/1999/xlink" x="0px"
	 y="0px" viewBox="-230 322 150 150" enable-background="new -230 322 150 150" xml:space="preserve">
<title>Ensures Trust</title>
<path fill="#F2F4FA" d="M-216,382.5l32.5,15.3c0.3,0.2,0.7,0.2,1,0.1l11.9-1.9c6.8-1.1,13.7,1.1,18.5,6l9.9,10.1
	c1.2,1.2,1.2,3.1,0,4.2c-0.1,0.1-0.2,0.2-0.3,0.2c-1,0.8-2.5,0.8-3.6,0.1l-9.7-6.9c-1.4-1-3.2-0.9-4.5,0.3l-7.1,6.4
	c-0.7,0.7-0.8,1.8-0.1,2.5c0.7,0.7,1.8,0.8,2.5,0.1l7.1-6.4l9.7,6.9c3,2.1,7.1,1.4,9.2-1.6c1.8-2.6,1.6-6.2-0.7-8.4l-7.9-8
	c4.2-1,8.6-0.9,12.7,0.5l4.2,1.4c1.2,0.4,2.5,0.3,3.6-0.3l0,0l30.9-18c0.9-0.5,1.1-1.6,0.6-2.4c-0.5-0.9-1.6-1.1-2.4-0.6l-30.9,18
	c-0.2,0.1-0.4,0.1-0.6,0.1l-4.2-1.4c-5.4-1.8-11.3-1.8-16.7,0c-5.6-5.2-13.3-7.5-20.8-6.3l-11.3,1.8l-32-15c-0.9-0.4-2,0-2.4,0.9
	C-217.3,381-216.9,382-216,382.5z"/>
<path fill="#F2F4FA" d="M-95.1,416c-0.4-0.9-1.5-1.3-2.4-0.8l-15.7,7.7c-0.3,0.1-0.5,0.3-0.7,0.6l-1.3,1.8c-1.5,2.1-3.5,3.9-5.8,5.2
	c-0.2-0.3-0.4-0.6-0.6-0.8l-3.1-3.6c-2.3-2.6-6.3-2.9-8.9-0.6l-0.3,0.2c-1.3,1.1-2.1,2.7-2.2,4.4c0,0-0.1,0-0.1,0
	c-1.7-0.1-3.3,0.4-4.6,1.5l-0.3,0.2c-1.3,1.1-2.1,2.7-2.2,4.4c-1.7-0.1-3.4,0.4-4.7,1.5l-0.3,0.2c-1.3,1.1-2.1,2.7-2.2,4.4
	c-1.7-0.1-3.4,0.4-4.7,1.5l-0.3,0.2c-2.6,2.3-2.9,6.3-0.6,8.9c0,0,0,0,0,0l1.5,1.7l-0.6,0.5l0,0c-1.2,1.1-3,1.1-4.2-0.1
	c-1-1.1-1-2.7-0.1-3.8c0.6-0.8,0.5-1.9-0.2-2.5c-0.7-0.6-1.7-0.6-2.4,0.1l-0.2,0.2c-1.2,1.1-3,1.1-4.2-0.1c-1-1.1-1-2.7,0-3.8
	c0.6-0.7,0.6-1.9-0.2-2.5c-0.7-0.6-1.7-0.6-2.4,0l-0.1,0c-1.2,1.1-3,1.1-4.2-0.1c-1-1.1-1-2.7-0.1-3.8c0.6-0.8,0.6-1.9-0.2-2.5
	c-0.5-0.5-1.3-0.6-2-0.2c-1.2,0.6-2.6,0.3-3.5-0.7c-1-1.2-0.9-3,0.3-4.1l1.9-1.7l6-5.4c0.7-0.7,0.8-1.8,0.1-2.5
	c-0.7-0.7-1.8-0.8-2.5-0.1l-6,5.4l-1.9,1.7l0,0c-1,0.9-1.6,2-1.9,3.3l0,0c-3.3-1.8-6.2-4.3-8.5-7.2l-1-1.3c-0.2-0.2-0.4-0.4-0.6-0.5
	l-21.5-10.5c-0.9-0.4-2-0.1-2.4,0.8c-0.4,0.9-0.1,2,0.8,2.4c0,0,0,0,0,0l21.2,10.4l0.8,1c2.6,3.3,5.9,6,9.5,8.1l2.2,1.3
	c0.2,0.5,0.6,1,0.9,1.4c1.1,1.2,2.5,2,4.1,2.2c-0.2,1.9,0.4,3.8,1.7,5.2l0,0c1.4,1.3,3.2,2,5.1,1.9c0,1.6,0.6,3.2,1.7,4.4l0,0
	c1.4,1.4,3.3,2.1,5.3,1.9c0,1.6,0.7,3.1,1.7,4.2l0,0c2.5,2.5,6.6,2.6,9.2,0.2l0.6-0.6c1,0.8,2.2,1.3,3.5,1.4c0.2,0,0.3,0,0.5,0
	c1.5,0,3-0.5,4.1-1.5l0.3-0.2c1.3-1.1,2.1-2.7,2.2-4.4c0.2,0,0.4,0,0.5,0c1.5,0,3-0.5,4.1-1.5l0.3-0.2c1.3-1.1,2.1-2.7,2.2-4.4
	c0.2,0,0.4,0,0.5,0c1.5,0,3-0.5,4.1-1.5l0.3-0.2c1.3-1.1,2-2.6,2.2-4.3c0,0,0-0.1,0-0.1c0.2,0,0.3,0,0.5,0c1.5,0,3-0.5,4.1-1.5
	l0.3-0.2c1.3-1.1,2.1-2.8,2.2-4.5c3.1-1.6,5.8-3.9,7.8-6.7l1-1.4l15.3-7.5C-95,418-94.7,416.9-95.1,416C-95.1,416-95.1,416-95.1,416
	L-95.1,416z M-145.7,454.2l-0.3,0.2c-1.1,1-2.9,0.9-3.8-0.3c0,0,0,0,0,0l-3.1-3.6c-1-1.1-0.9-2.9,0.3-3.8c0,0,0,0,0,0l0.3-0.2
	c1.1-1,2.9-0.9,3.8,0.3l3.1,3.6C-144.5,451.5-144.6,453.2-145.7,454.2L-145.7,454.2z M-138.7,448.1l-0.3,0.2c-1.1,1-2.9,0.9-3.8-0.3
	l-3.1-3.6c-1-1.1-0.9-2.8,0.3-3.8l0.3-0.2c1.1-1,2.9-0.9,3.8,0.3l3.1,3.6C-137.4,445.4-137.5,447.1-138.7,448.1z M-130.7,440.1
	c0,0.7-0.4,1.4-0.9,1.9l-0.3,0.2c-1.1,1-2.9,0.9-3.8-0.3l-3.1-3.6c-1-1.1-0.9-2.9,0.3-3.8l0.3-0.2c0.5-0.4,1.1-0.7,1.8-0.7
	c0.1,0,0.1,0,0.2,0c0.7,0,1.4,0.4,1.9,0.9l3.1,3.6C-130.8,438.7-130.6,439.4-130.7,440.1L-130.7,440.1z M-124.5,435.8l-0.3,0.2
	c-1.1,1-2.9,0.9-3.8-0.3l-3.1-3.6c-1-1.1-0.9-2.9,0.3-3.8c0,0,0,0,0,0l0.3-0.2c1.1-1,2.9-0.9,3.8,0.3l3.1,3.6
	C-123.3,433.1-123.4,434.8-124.5,435.8L-124.5,435.8z"/>
<path fill="#F2F4FA" d="M-162.4,387.5l5,1.8c0.9,0.3,1.9,0.3,2.8,0l5-1.8c9.1-3.3,15.8-11.1,17.7-20.6c0.2-1-0.4-1.9-1.4-2.1
	c-1-0.2-1.9,0.4-2.1,1.4c-1.7,8.2-7.5,15-15.4,18l-5,1.8c-0.1,0-0.2,0-0.4,0l-5-1.8c-9.5-3.5-15.8-12.6-15.9-22.7v-15.6
	c0-0.4,0.3-0.8,0.7-0.9l20.4-4l20.2,4c0.4,0.1,0.7,0.4,0.7,0.9v13c0,1,0.8,1.8,1.8,1.8s1.8-0.8,1.8-1.8l0,0v-13c0-2.1-1.5-4-3.6-4.4
	l-20.5-4c-0.2,0-0.5,0-0.7,0l-20.7,4c-2.1,0.4-3.6,2.2-3.6,4.4v15.6C-180.6,373-173.4,383.4-162.4,387.5L-162.4,387.5z"/>
<path fill="#F2F4FA" d="M-155.6,344.7c-0.2,0-0.5,0-0.7,0l-15.7,3.1c-0.8,0.2-1.4,0.9-1.4,1.8v11.9c0,8.6,5.4,16.4,13.5,19.4
	l3.3,1.2c0.4,0.1,0.8,0.1,1.2,0l3.3-1.2c8.1-3,13.5-10.7,13.5-19.4v-11.9c0-0.9-0.6-1.6-1.4-1.8L-155.6,344.7z M-142.2,361.4
	c0,7.1-4.5,13.5-11.2,16l-2.7,1l-2.7-1c-6.7-2.5-11.2-8.9-11.2-16V351l13.9-2.7l13.7,2.7V361.4z"/>
<path fill="#F2F4FA" d="M-160.7,364.7c-0.7-0.7-1.9-0.6-2.5,0.1c-0.7,0.7-0.6,1.9,0.1,2.5l2.9,2.7c0.3,0.3,0.8,0.5,1.2,0.5
	c0,0,0.1,0,0.1,0c0.5,0,1-0.3,1.3-0.6l9.4-11.4c0.6-0.8,0.5-1.9-0.2-2.5c-0.8-0.6-1.9-0.5-2.5,0.2c0,0,0,0,0,0l-8.1,9.9
	L-160.7,364.7z"/>
</svg>
