<svg xmlns="http://www.w3.org/2000/svg" width="150" height="150" viewBox="0 0 150 150"><defs><style>.cls-1{fill:#fff;}</style></defs><title>Experience</title><g id="Experience"><path class="cls-1" d="M61.364,48.33175l-1.98039.71768a9.32876,9.32876,0,0,0-5.95122,6.9795l-.67194,3.52119a5.93872,5.93872,0,0,0,5.833,7.05748H75.7596a5.94042,5.94042,0,0,0,5.84876-6.98521l-.62666-3.50267a9.309,9.309,0,0,0-5.97111-7.09087l-2.09954-.76091V45.17351a1.70608,1.70608,0,0,0-.021-.255,8.41738,8.41738,0,0,0,2.409-5.8611V34.44686a8.16272,8.16272,0,0,0-16.32543,0V39.201a8.14116,8.14116,0,0,0,2.40487,5.76071,1.6999,1.6999,0,0,0-.01441.21156Zm16.24012,8.39176.62666,3.50313a2.50961,2.50961,0,0,1-2.47165,2.95011H58.593a2.50766,2.50766,0,0,1-2.46365-2.98121l.672-3.5212a5.88031,5.88031,0,0,1,3.75081-4.39943l1.29723-.47c.03248.03339.06519.067.10041.09789a7.91258,7.91258,0,0,0,10.37261.00366,1.69134,1.69134,0,0,0,.14888-.14866l1.36837.49607A5.86633,5.86633,0,0,1,77.60414,56.72351Zm-15.2-22.27665a4.72878,4.72878,0,0,1,9.30935-1.17716c-.22048.10772-.44667.2095-.67835.30213-2.10915.84439-3.8128.73232-4.29972.39109a1.71534,1.71534,0,1,0-1.96987,2.80876,5.68047,5.68047,0,0,0,3.27259.88122,11.41493,11.41493,0,0,0,3.82972-.72958v2.13362a4.96756,4.96756,0,0,1-1.488,3.52256,4.79393,4.79393,0,0,1-1.47792.99191q-.0566.02161-.11115.04689a4.4274,4.4274,0,0,1-1.74824.3131,4.75462,4.75462,0,0,1-4.63844-4.73061ZM66.97675,47.3618c.05237.00091.10429.00137.15666.00137A7.95851,7.95851,0,0,0,69.48019,47.01v2.74427a4.479,4.479,0,0,1-4.68509-.00137V47.01507A8.05147,8.05147,0,0,0,66.97675,47.3618Z"/><path class="cls-1" d="M40.14949,95.9749H93.5689a1.71532,1.71532,0,0,0,0-3.43063H40.14949a1.71532,1.71532,0,0,0,0,3.43063Z"/><path class="cls-1" d="M40.14949,105.22409H93.5689a1.71531,1.71531,0,1,0,0-3.43062H40.14949a1.71531,1.71531,0,1,0,0,3.43062Z"/><path class="cls-1" d="M40.14949,114.47283H93.5689a1.71532,1.71532,0,0,0,0-3.43063H40.14949a1.71532,1.71532,0,0,0,0,3.43063Z"/><path class="cls-1" d="M40.14949,123.722H93.5689a1.71531,1.71531,0,1,0,0-3.43062H40.14949a1.71531,1.71531,0,1,0,0,3.43062Z"/><path class="cls-1" d="M38.43418,75.76165A1.71505,1.71505,0,0,0,40.14949,77.477H93.5689a1.71531,1.71531,0,1,0,0-3.43062H40.14949A1.7152,1.7152,0,0,0,38.43418,75.76165Z"/><path class="cls-1" d="M40.14949,86.72593H93.5689a1.71531,1.71531,0,0,0,0-3.43062H40.14949a1.71531,1.71531,0,0,0,0,3.43062Z"/><path class="cls-1" d="M33.81541,95.9813a1.72172,1.72172,0,1,0-1.72172-1.72172A1.72179,1.72179,0,0,0,33.81541,95.9813Z"/><path class="cls-1" d="M33.81541,77.48337a1.72172,1.72172,0,1,0-1.72172-1.72172A1.72179,1.72179,0,0,0,33.81541,77.48337Z"/><path class="cls-1" d="M33.81541,86.73234a1.72172,1.72172,0,1,0-1.72172-1.72172A1.7218,1.7218,0,0,0,33.81541,86.73234Z"/><path class="cls-1" d="M33.81541,105.23027a1.72172,1.72172,0,1,0-1.72172-1.72172A1.7218,1.7218,0,0,0,33.81541,105.23027Z"/><path class="cls-1" d="M33.81541,114.47946a1.72172,1.72172,0,1,0-1.72172-1.72172A1.7218,1.7218,0,0,0,33.81541,114.47946Z"/><path class="cls-1" d="M33.81541,123.72842a1.72172,1.72172,0,1,0-1.72172-1.72171A1.72179,1.72179,0,0,0,33.81541,123.72842Z"/><path class="cls-1" d="M131.03041,42.73548a11.85857,11.85857,0,0,1-1.66249-2.46616,12.50188,12.50188,0,0,1-.618-3.0624c-.24953-2.01767-.53221-4.30452-2.12813-5.90022s-3.883-1.87838-5.90068-2.1279a12.50606,12.50606,0,0,1-3.06309-.618,11.84822,11.84822,0,0,1-2.46639-1.66225,12.921,12.921,0,0,0-4.09891-2.473v-.51894a8.19591,8.19591,0,0,0-8.18707-8.18638H31.44714a8.19631,8.19631,0,0,0-8.1873,8.18661v6.62088a1.71531,1.71531,0,0,0,3.43062,0V23.90684a4.76164,4.76164,0,0,1,4.75668-4.756h71.45855a4.76165,4.76165,0,0,1,4.75668,4.756V24.426a12.92518,12.92518,0,0,0-4.098,2.4728,11.86281,11.86281,0,0,1-2.46616,1.66225,12.52747,12.52747,0,0,1-3.06309.618c-2.01766.24929-4.30452.532-5.90067,2.12767-1.59616,1.59593-1.87884,3.88278-2.12836,5.90045a12.50458,12.50458,0,0,1-.618,3.0624,11.84868,11.84868,0,0,1-1.66249,2.46616c-1.28168,1.62177-2.734,3.4599-2.734,5.81308s1.45253,4.19131,2.734,5.81308A11.85843,11.85843,0,0,1,89.38812,56.828a12.50214,12.50214,0,0,1,.618,3.06264c.24952,2.01744.5322,4.30429,2.12813,5.9,1.59592,1.59592,3.883,1.87838,5.90067,2.1279.6015.07433,1.18448.14729,1.72263.24792v25.928a2.63389,2.63389,0,0,0,4.25832,2.0737l3.6463-2.855v31.31932a4.76164,4.76164,0,0,1-4.75668,4.756H31.44714a4.76164,4.76164,0,0,1-4.75668-4.756V38.08128a1.71531,1.71531,0,1,0-3.43062,0v86.551a8.19631,8.19631,0,0,0,8.1873,8.18661h71.45855a8.1963,8.1963,0,0,0,8.1873-8.18661V93.313l3.6463,2.85473a2.63537,2.63537,0,0,0,4.2606-2.07347V74.952a1.71531,1.71531,0,1,0-3.43062,0V92.46079l-4.55976-3.56991a2.637,2.637,0,0,0-3.25681-.00594l-4.56478,3.574V69.90261q.18663.14613.37622.296c1.622,1.28168,3.46036,2.73375,5.81377,2.73375,2.35318,0,4.19154-1.4523,5.81354-2.73352a11.86487,11.86487,0,0,1,2.46639-1.66248,12.52653,12.52653,0,0,1,3.06309-.618c2.01766-.24929,4.30452-.532,5.9009-2.12768,1.5957-1.59592,1.87839-3.88278,2.1279-5.90021a12.51408,12.51408,0,0,1,.6182-3.06264,11.84894,11.84894,0,0,1,1.66249-2.46616c1.28168-1.62177,2.734-3.4599,2.734-5.81308s-1.45253-4.19131-2.734-5.81308Zm-2.69167,9.49918a14.37014,14.37014,0,0,0-2.13957,3.279,15.08577,15.08577,0,0,0-.854,3.95574c-.19921,1.61148-.3872,3.13353-1.14881,3.89513-.76182.7616-2.28411.9496-3.89581,1.1488a15.09114,15.09114,0,0,0-3.9562.85377,14.36952,14.36952,0,0,0-3.279,2.13934c-1.29883,1.02576-2.5254,1.995-3.687,1.995s-2.38817-.969-3.687-1.995a14.3772,14.3772,0,0,0-3.279-2.13934c-.08279-.0343-.37005-.14363-.432-.16284a17.06375,17.06375,0,0,0-3.5244-.69093c-1.61171-.1992-3.134-.38743-3.89582-1.149-.76137-.76137-.9496-2.28342-1.1488-3.89467a15.08867,15.08867,0,0,0-.85377-3.956,14.37748,14.37748,0,0,0-2.13957-3.279c-1.02575-1.29861-1.995-2.52494-1.995-3.6861s.969-2.38748,1.995-3.68609a14.37014,14.37014,0,0,0,2.13957-3.279,15.07617,15.07617,0,0,0,.85377-3.95574c.1992-1.61148.38743-3.13353,1.149-3.89513.76182-.7616,2.28411-.9496,3.89581-1.1488a15.09114,15.09114,0,0,0,3.9562-.85377,14.3693,14.3693,0,0,0,3.279-2.13934c1.29609-1.02393,2.5206-1.99091,3.68015-1.99457l.00641.00023.00686-.00023c1.15978.00343,2.38428.97064,3.6806,1.99457a14.3772,14.3772,0,0,0,3.279,2.13934,15.08165,15.08165,0,0,0,3.95643.85377c1.61171.1992,3.134.38743,3.89559,1.149s.94982,2.28342,1.149,3.8949a15.08739,15.08739,0,0,0,.85376,3.95574,14.37815,14.37815,0,0,0,2.13957,3.279c1.02576,1.2986,1.995,2.52494,1.995,3.68609s-.969,2.38772-1.995,3.6861Z"/><path class="cls-1" d="M120.39067,43.09753l-5.8371-1.6515-3.375-5.04074a2.16695,2.16695,0,0,0-3.60079,0L104.20269,41.446l-5.83755,1.65173a2.16649,2.16649,0,0,0-1.11243,3.42445l3.75151,4.767-.23283,6.06008a2.165,2.165,0,0,0,2.9126,2.11761l5.69369-2.09451,5.69324,2.09428a2.16646,2.16646,0,0,0,2.91328-2.11647l-.23283-6.06123,3.75173-4.767a2.16695,2.16695,0,0,0-1.11244-3.42445Zm-5.62325,6.43654a2.1705,2.1705,0,0,0-.46154,1.42233l.17794,4.63912-4.35758-1.603a2.16945,2.16945,0,0,0-1.49644-.00023l-4.358,1.60324.17816-4.64072a2.17343,2.17343,0,0,0-.46267-1.42188L101.116,45.88457l4.46874-1.26408a2.16976,2.16976,0,0,0,1.20964-.87938l2.58326-3.85831,2.583,3.85785a2.17226,2.17226,0,0,0,1.21079.88007l4.46781,1.26384Z"/></g></svg>