<?xml version="1.0" encoding="utf-8"?>
<!-- Generator: Adobe Illustrator 18.1.1, SVG Export Plug-In . SVG Version: 6.00 Build 0)  -->
<svg version="1.1" id="Layer_1" xmlns="http://www.w3.org/2000/svg" xmlns:xlink="http://www.w3.org/1999/xlink" x="0px" y="0px"
	 viewBox="0 0 200 200" enable-background="new 0 0 200 200" xml:space="preserve">
<g id="Google_Ads" display="none">
	<g display="inline">
		<g>
			<defs>
				<rect id="SVGID_1_" width="200" height="200"/>
			</defs>
			<clipPath id="SVGID_2_">
				<use xlink:href="#SVGID_1_"  overflow="visible"/>
			</clipPath>
			<g clip-path="url(#SVGID_2_)">
				<path fill="#F70D39" d="M0,149.2c1.4-9,6.4-16.3,10.8-23.8C29,93.7,47.4,62.1,65.6,30.3c5.1-9,11.7-16,21.6-19.6
					c10.4-3.7,20.6-2.9,30.4,2.1c0.9,0.4,1.7,0.9,2.7,0.9c1.3,0,2.2,1,3.1,1.9c4.1,4.3,7.2,9.4,10.4,14.4
					c14.8,23.8,28.4,48.4,42.4,72.7c5.3,9.2,10.5,18.4,15.9,27.6c3.6,6.1,6.9,12.3,7.9,19.4c0,3.3,0,6.5,0,9.8
					c-0.1,0.4-0.2,0.9-0.3,1.3c-3.1,17.4-17.2,30.5-34.7,31.5c-15.4,0.8-27.4-5.7-35.3-19c-9.7-16.4-19.1-33-28.6-49.5
					c-1-1.8-1.2-1.8-2.2-0.1c-0.2,0.3-0.3,0.6-0.5,0.9c-9.4,16.3-18.7,32.6-28.2,48.8C62.1,187,50,193.4,34,191.9
					c-11.3-1.1-20.5-6.2-27.4-15.4c-3.7-5-5.6-10.7-6.6-16.7C0,156.3,0,152.7,0,149.2z M71.1,47.2c-0.6,3.9,1.1,7.7,3,11.4
					C79.7,69.7,86,80.3,92.2,91c15.1,26.1,30.2,52.3,45.4,78.4c5.9,10.2,17.3,15.4,28.9,13.8c20.3-2.9,31.3-25.2,21.1-43
					c-14.8-25.8-29.6-51.6-44.5-77.4c-6.8-11.7-13.3-23.6-20.9-34.8c-1.4-2-2.8-4-4.9-5.3c-7.1-4.4-14.7-6.6-23.1-4.9
					C80.7,20.6,70.7,32.8,71.1,47.2z M74.6,147.7c0.4-0.4,0.5-0.5,0.6-0.7c6.3-10.9,12.6-21.9,19-32.8c0.6-1.1,0.3-1.9-0.2-2.9
					c-6-10.3-12-20.6-18-30.9c-3.7-6.5-7.6-12.9-10.8-19.7c-1.1-2.4-1.7-5-2.5-7.9C50,75.1,37.4,96.9,24.6,119.1
					c11.4-3.7,21.8-2.9,31.7,2.8C66.2,127.6,72.1,136.3,74.6,147.7z M8.6,154.5c0,16,12.8,28.9,28.7,28.9c16.3,0,28.9-13,29.2-29.6
					c0.2-14.5-12.1-28-29.5-28.2C18.3,125.4,8.1,141.9,8.6,154.5z"/>
			</g>
		</g>
	</g>
</g>
<g id="Facebook_x2F_Instagram_Ads">
	<g>
		<path fill="#FFFFFF" d="M200,19.5c0,53.6,0,107.3,0,160.9c-0.5,2.1-1,4.1-2,6.1c-3.6,7.4-9.6,11.7-17.6,13.4
			c-53.6,0-107.3,0-160.9,0c-8-1.7-14.1-6.1-17.6-13.6c-0.8-1.8-1.3-3.7-1.9-5.5C0,127,0,73,0,19.1C1.6,13,4.6,7.7,9.9,4
			c2.8-2,6-3.1,9.2-4C73,0,126.9,0,180.9,0c1.9,0.7,3.9,1.1,5.7,2C194,5.6,198.3,11.6,200,19.5z M99.8,193.2c24.9,0,49.7,0,74.6,0
			c2.1,0,4.2-0.1,6.2-0.6c7.8-1.9,12.6-8.4,12.6-17.4c0-35.3,0-70.6,0-105.9c0-1.9-0.6-2.5-2.5-2.5c-11.6,0.1-23.2,0-34.8,0
			c-0.6,0-1.4-0.3-1.7,0.2c-0.4,0.7,0.4,1.1,0.7,1.6c10,14.8,13.8,31,11,48.7c-5.8,36.4-40.1,61.2-76.6,55.4
			c-31.2-5-54.8-31.2-56.3-62.7c-0.7-15,3.3-28.8,11.8-41.3c0.3-0.5,1.1-1,0.7-1.6c-0.3-0.5-1.1-0.2-1.7-0.2c-11.5,0-23,0-34.6,0
			c-2.6,0-2.6,0.1-2.6,2.6c0,13.3,0,26.6,0,39.8c0,21.9,0,43.7,0,65.6c0,9.2,4.8,15.7,12.8,17.6c2,0.5,4.1,0.6,6.2,0.6
			C50.5,193.2,75.1,193.2,99.8,193.2z M100,6.8c-24.8,0-49.6,0-74.4,0c-2,0-4,0.1-6,0.6C11.7,9.3,6.9,15.7,6.8,24.6
			c-0.1,10.8,0,21.6,0,32.4c0,2.6,0.1,2.7,2.6,2.7c13.5,0,27.1,0,40.6,0c1.7,0,2.9-0.5,4.1-1.7c15.1-13.9,33-20,53.4-17.8
			c14.8,1.6,27.7,7.8,38.5,18.1c0.9,0.9,1.8,1.4,3.1,1.4c13.9,0,27.9,0,41.8,0c1.6,0,2.2-0.6,2.2-2.2c0-11.1,0.1-22.3-0.1-33.4
			c-0.1-7.4-3.3-13-10.4-16c-2.6-1.1-5.4-1.3-8.2-1.3C149.7,6.8,124.8,6.8,100,6.8z M99.9,166.3c33.1,0,59.7-26.5,59.8-59.6
			c0-33.1-26.5-59.8-59.6-59.8c-33.1,0-59.7,26.6-59.8,59.6C40.3,139.7,66.8,166.3,99.9,166.3z"/>
		<path fill="#FFFFFF" d="M143.2,33.3c0-3.2,0-6.4,0-9.6c0.1-6.3,4.3-10.5,10.5-10.5c6.4,0,12.7,0,19.1,0c6.2,0,10.5,4,10.7,10.2
			c0.2,6.6,0.2,13.3,0,19.9c-0.2,6.3-4.6,10.3-10.9,10.3c-6.2,0-12.5,0.1-18.7,0c-6.5-0.1-10.7-4.3-10.7-10.8
			C143.2,39.6,143.2,36.4,143.2,33.3z M176.4,33.2c0-3,0-6,0-9c0-2.8-1-3.9-3.7-3.9c-6.2,0-12.5,0-18.7,0c-2.7,0-3.8,1.1-3.8,3.9
			c0,6.1-0.1,12.2,0,18.4c0,2.6,1.3,3.8,3.9,3.8c6.2,0,12.4,0,18.6,0c2.7,0,3.8-1.1,3.8-3.8C176.5,39.5,176.4,36.3,176.4,33.2z"/>
		<path fill="#FFFFFF" d="M23.6,33.4c0,4.2,0,8.3,0,12.5c0,2.6-1.3,4.1-3.4,4.2c-2.2,0.1-3.7-1.4-3.8-4c-0.1-8.5-0.1-17,0-25.6
			c0-2.5,1.6-4.1,3.6-4c2.1,0,3.5,1.6,3.5,4.3C23.6,25,23.6,29.2,23.6,33.4z"/>
		<path fill="#FFFFFF" d="M36.9,33.6c0,4.1,0,8.2,0,12.3c0,2.6-1.2,4.1-3.3,4.2c-2.2,0.1-3.7-1.3-3.8-4c-0.1-8.5-0.1-17,0-25.6
			c0-2.7,1.6-4.2,3.7-4.1c2.1,0.1,3.3,1.7,3.4,4.4C36.9,25.1,36.9,29.4,36.9,33.6z"/>
		<path fill="#FFFFFF" d="M50.1,33.5c0,4.2,0,8.3,0,12.5c0,2.7-1.3,4.2-3.6,4.1c-2.2,0-3.4-1.5-3.4-4.1c0-8.4,0-16.9,0-25.3
			c0-2.6,1.4-4.2,3.6-4.2c2.1,0.1,3.4,1.6,3.4,4.1C50.2,24.9,50.1,29.2,50.1,33.5z"/>
		<path fill="#FFFFFF" d="M100,160.3c-29.4,0-53.6-24.2-53.6-53.7c0-29.5,24.2-53.6,53.7-53.6c29.5,0,53.6,24.2,53.6,53.7
			S129.4,160.3,100,160.3z M100,153c25.7,0,46.4-20.6,46.4-46.2c0-25.8-20.6-46.5-46.2-46.6c-25.7,0-46.5,20.6-46.5,46.3
			C53.6,132.3,74.2,153,100,153z"/>
		<path fill="#FFFFFF" d="M163.3,36.8c-1.1,0-2.2,0.1-3.3,0c-2-0.1-3.4-1.4-3.5-3.2c-0.1-1.9,1-3.4,3-3.7c2.5-0.4,5.1-0.4,7.6,0
			c2,0.3,3.1,1.7,3,3.7c-0.1,1.8-1.4,3.1-3.4,3.2C165.6,36.9,164.4,36.8,163.3,36.8z"/>
		<path fill="#FFFFFF" d="M130.2,106.8c0,5.4,0,10.8,0,16.2c0,5-3,9-7.5,10.2c-4.6,1.3-9.1-0.7-11.7-5.2c-0.8-1.3-5.4-2.7-6.8-2
			c-0.8,0.4-0.8,1.3-1,2c-1.5,7.1-7.6,12.1-14.8,12.2c-6.9,0.1-13.3-4.9-14.9-11.8c-0.3-1.2-0.6-2.5-0.4-3.7c0.3-1.9-0.4-2.9-2-3.9
			c-6.4-3.8-9.3-11.3-7.5-18.6c1.8-7,8.2-12.6,15.6-12.6c9.9,0,19.7-1.9,29.5-2.9c1-0.1,1.6-0.6,2.1-1.5c2.7-4.6,7.1-6.6,11.8-5.3
			c4.7,1.3,7.5,5.2,7.5,10.6C130.2,96.1,130.2,101.4,130.2,106.8z M109.7,106.8c0-3.5,0-7,0-10.5c0-1.5-0.5-2.2-2.1-2
			c-5.2,0.7-10.4,1.3-15.7,1.9c-1.1,0.1-1.6,0.7-1.6,1.8c0,5.8,0,11.6,0,17.4c0,0.9,0.3,1.5,1.3,1.6c5.3,0.7,10.6,1.3,15.9,2
			c1.6,0.2,2.3-0.4,2.2-2.1C109.6,113.6,109.7,110.2,109.7,106.8z M123,106.8C123,106.8,123,106.8,123,106.8c0-5.5,0-10.9,0-16.4
			c0-2.1-1.2-3.4-2.9-3.5c-1.7,0-3,1.5-3.1,3.6c0,0.5,0,1,0,1.6c0,9.7,0,19.4,0,29.1c0,0.8,0,1.7,0.1,2.5c0.2,1.6,1.5,2.8,3.1,2.7
			c1.5,0,2.7-1.2,2.9-2.8c0.1-0.7,0.1-1.4,0.1-2.1C123,116.5,123,111.6,123,106.8z M83.1,106.8L83.1,106.8c0-1.9,0-3.8,0-5.6
			c0-4.4-0.6-4.9-5-4c-0.1,0-0.1,0-0.2,0c-5.2,1.2-8.5,6.3-7.4,11.7c1,4.8,6.2,8.3,11.2,7.5c1.1-0.2,1.3-0.8,1.3-1.8
			C83.1,112,83.1,109.4,83.1,106.8z M84.5,123.6c-0.8,0-1.6,0-2.3,0c-1.4-0.1-2,0.6-1.9,2c0.2,3.8,3.5,7.2,7.2,7.5
			c4.3,0.3,8.1-2.4,8.8-6.3c0.2-1.3-0.2-2-1.5-2.1C91.3,124.2,87.9,123.6,84.5,123.6z"/>
	</g>
</g>
<g id="LinkedIn_Ads" display="none">
	<g display="inline">
		<path fill="#F70D39" d="M200,194.7c-1.6,3.7-4.2,5.4-8.3,5.3c-10-0.1-20.1,0-30.1,0c-5.7,0-8.6-2.9-8.6-8.8c0-24.1,0-48.2,0-72.2
			c0-10.8-6.9-15.9-14.8-17.5c-9.9-2-18.2,4.6-20.6,12.8c-0.8,2.6-1.1,5.3-1.1,8c0,23.3,0,46.6,0,69.9c0,5.3-2.6,7.9-7.8,7.9
			c-11.5,0-22.9,0-34.4,0c-5.8,0-8.3-2.6-8.3-8.5c0-31.2,0-62.4,0-93.6c0-9.4,0-18.7,0-28.1c0-5.9,2.5-8.7,8.4-8.8
			c10.2-0.1,20.3-0.1,30.5,0c5.7,0.1,8.4,3,8.5,8.8c0,0.5,0.1,1,0.1,1.8c1.7-0.8,2.7-2.2,3.9-3.3c7.7-6.5,16.6-9.9,26.5-10.5
			c6.9-0.4,13.9-0.5,20.8,1.2c19,4.9,32.3,19.9,35.1,39.5c0.1,0.5,0.2,1,0.3,1.5C200,131.6,200,163.1,200,194.7z M73.5,130.3
			c0,20,0,40,0,60c0,1.6,0.2,2.4,2.1,2.4c10.7-0.1,21.4-0.1,32,0c1.5,0,2.2-0.5,2.1-2c-0.1-0.6,0-1.2,0-1.8c0-22.5,0-45,0-67.5
			c0-17.8,14-29.4,28.9-27.3c7.7,1.1,13.9,4.7,18.1,11.4c2.9,4.6,3.5,9.9,3.5,15.2c0.1,23.1,0.2,46.2,0.4,69.3c0,2.7,0,2.7,2.7,2.7
			c9,0,18.1,0,27.1,0c2.7,0,2.7,0,2.7-2.7c0-27.4,0-54.8,0-82.1c0-4.4-0.3-8.8-1.5-13.1c-4.3-14.7-13.4-24.4-28.1-28.6
			c-6.3-1.8-12.7-1.4-19-1.1c-10.3,0.5-19.1,4.6-26,12.4c-3.4,3.8-6.9,7.4-10.4,11c-0.4,0.4-0.8,1.2-1.4,0.8
			c-0.5-0.3-0.3-1.1-0.3-1.7c0-5.7-0.1-11.3,0-17c0-2-0.6-2.5-2.5-2.4c-9.3,0.1-18.6,0-27.9,0c-2.6,0-2.6,0-2.6,2.6
			C73.5,90.6,73.5,110.5,73.5,130.3z"/>
		<path fill="#F70D39" d="M0,23.3C1.5,15.7,5.1,9.4,11.4,5.1c8.9-6,18.5-6.9,27.9-1.6c9.3,5.2,14.4,13.3,14.2,24.4
			c-0.2,13.6-10.8,25.4-23.9,26.8C16.2,56,3.9,47.3,0.6,33.8c-0.2-0.7-0.4-1.5-0.6-2.2C0,28.8,0,26,0,23.3z M26.8,47.4
			c8.8,0.9,19.4-7.6,19.6-19.4c0.1-11.1-8.2-20.2-18.8-20.5c-11.7-0.3-20.4,8-20.7,19.7C6.7,38.5,15.2,47.1,26.8,47.4z"/>
		<path fill="#F70D39" d="M50.1,130.7c0,19.3-0.2,38.7,0.1,58c0.1,6.8-5.6,11.5-11.2,11.3c-8.3-0.2-16.5,0-24.8-0.1
			c-6.7,0-11.2-4.5-11.2-11.3c0-38.8,0-77.6,0-116.4c0-6.6,4-11.2,10.1-11.2c7.2-0.1,14.3-0.1,21.5-0.1c2.1,0,4.2,0,6.2,0.2
			c5.4,0.6,9.3,4.9,9.3,10.4C50.1,91.3,50.1,111,50.1,130.7z M10.2,130.2c0,19.3,0,38.7,0,58c0,3.5,1,4.5,4.4,4.5
			c7.9,0,15.9,0,23.8,0c3.8,0,4.7-0.9,4.7-4.8c0-38.2,0-76.4,0-114.6c0-3.9-1.2-5.1-5-5.1c-7.7,0-15.5,0-23.2,0
			c-3.7,0-4.7,1-4.7,4.8C10.2,92,10.2,111.1,10.2,130.2z"/>
	</g>
</g>
<g id="DSPs" display="none">
	<g display="inline">
		<g>
			<defs>
				<rect id="SVGID_3_" width="200" height="200"/>
			</defs>
			<clipPath id="SVGID_4_">
				<use xlink:href="#SVGID_3_"  overflow="visible"/>
			</clipPath>
			<g clip-path="url(#SVGID_4_)">
				<path fill="#F70D39" d="M100,110.5c30.3,0,60.7,0,91,0c3.8,0,3.8,0,3.8-3.8c0-5.4,0-10.7,0-16.1c0-2.7-0.3-3-3.1-3
					c-14.3,0-28.6,0-42.9,0c-1,0-1.9,0.1-2.8-0.3c-1.2-0.4-1.8-1.2-1.7-2.5c0.1-1.2,0.8-2,2.1-2.2c0.6-0.1,1.2-0.1,1.8-0.1
					c14.7,0,29.5,0,44.2,0c5,0,7.6,2.6,7.6,7.5c0,5.9,0,11.9,0,17.9c0,4.9-2.6,7.5-7.6,7.5c-2.4,0-4.8,0.1-7.2,0
					c-1.6-0.1-2.3,0.4-2.6,2c-5,21.9-10,43.8-15.1,65.6c-1.7,7.3-5.4,10.3-13.2,10.3c-36.2,0-72.5,0-108.7,0
					c-7.8,0-11.6-3-13.3-10.4c-4.9-21.6-9.9-43.1-14.8-64.7c-0.7-2.9-0.7-2.9-3.8-2.9c-2.3,0-4.7,0-7,0c-3.9-0.1-6.7-2.8-6.8-6.6
					c-0.1-6.5-0.1-13,0-19.5c0-4,2.8-6.7,6.9-6.7c11.6,0,23.3,0,34.9,0c3,0,3,0,3-3c0-3.1-0.1-6.2,0-9.2c0-1.5-0.5-2-2-2
					c-8.1,0.1-16.2,0-24.2,0c-4.7,0-7.4-2.6-7.4-7.2c0-15.7,0-31.4,0-47c0-4.7,2.8-7.4,7.5-7.4c24.8-0.1,49.6-0.1,74.4,0
					c5,0,7.5,2.6,7.5,7.5c0,15.5-0.1,31,0.1,46.4c0.1,5.1-2.7,8-8.2,8c-7.4,0-14.8,0-22.2,0c-3.1,0-3.1,0-3.1,3c0,3,0.1,6,0,9
					c0,1.5,0.6,2,2.1,2c5.8-0.1,11.5,0,17.3,0c1,0,2.1,0,2.8,0.9c1.1,1.4,0.5,3.3-1.3,3.8c-1,0.3-2,0.2-3.1,0.2c-25.3,0-50.7,0-76,0
					c-3.6,0-3.7,0.1-3.7,3.6c0,5.4,0,10.7,0,16.1c0,3.1,0.2,3.3,3.4,3.3C39.1,110.5,69.5,110.5,100,110.5z M100,115.4
					c-25.2,0-50.4,0-75.6,0c-2,0-2.3,0.6-1.9,2.3c5,21.7,10,43.5,15,65.2c0.9,3.8,3,5.4,7,5.4c37,0,73.9,0,110.9,0
					c3.9,0,6.1-1.7,7-5.5c5-21.7,10-43.4,15-65c0.6-2.4,0.6-2.4-2-2.4C150.3,115.4,125.2,115.4,100,115.4z M55.9,11.7
					c-12.1,0-24.2,0-36.4,0c-3.1,0-3.3,0.2-3.3,3.2c0,15.1,0,30.2,0,45.2c0,3.3,0.3,3.6,3.6,3.6c24.1,0,48.2,0,72.3,0
					c3,0,3.5-0.5,3.5-3.4c0-15.1,0-30.2,0-45.2c0-3-0.5-3.4-3.4-3.4C80.2,11.7,68.1,11.7,55.9,11.7z M62.1,75.6c0-1.8,0-3.6,0-5.4
					c0-1.1-0.5-1.6-1.6-1.6c-3,0-6,0-9,0c-1,0-1.5,0.5-1.5,1.5c0,3.7,0,7.4,0,11c0,1,0.5,1.4,1.5,1.4c3,0,6,0,9,0
					c1.3,0,1.6-0.6,1.6-1.7C62,79.1,62.1,77.4,62.1,75.6z"/>
				<path fill="#F70D39" d="M112.9,106.6c-6.1-0.1-11.1-3-14.2-8.6c-3.2-5.8-3.1-11.7,0.8-17.1c8.5-11.7,17.1-23.3,25.9-34.8
					c5.6-7.3,15.9-8.7,23.3-3.4c7.4,5.3,9.4,15.3,4,22.7c-8.4,11.7-17.1,23.1-25.7,34.6C123.6,104.5,119,106.6,112.9,106.6z
					 M150.5,56.3c0.1-1.6-0.2-3-0.7-4.4c-3.6-8.6-14.9-10-20.8-2.3c-8.6,11.2-16.9,22.6-25.2,33.9c-3.8,5.2-2.5,12.3,2.8,16.1
					c5.1,3.7,12.4,2.7,16.3-2.4c8.6-11.4,17-22.8,25.5-34.3C149.8,61,150.7,58.7,150.5,56.3z"/>
				<path fill="#F70D39" d="M65.6,150c0,6.3,0,12.6,0,18.9c0,3.9-2.1,6.1-6.1,6.3c-2.5,0.1-5.1,0.1-7.6,0c-3.9-0.1-6.2-2.4-6.2-6.3
					c0-12.6,0-25.2,0-37.8c0-3.9,2.3-6.1,6.2-6.3c2.5-0.1,5.1-0.1,7.6,0c4,0.1,6.1,2.3,6.2,6.2C65.6,137.4,65.6,143.7,65.6,150z
					 M60.5,150.2c0-6.1,0-12.2,0-18.3c0-1.5-0.5-2.2-2.1-2.1c-1.9,0.1-3.8,0.1-5.7,0c-1.4,0-1.9,0.6-1.9,1.9c0,2.8,0,5.6,0,8.4
					c0,9.2,0,18.5,0,27.7c0,1.5,0.3,2.5,2.1,2.3c1.7-0.1,3.4-0.1,5.1,0c2,0.2,2.6-0.7,2.5-2.6C60.5,161.9,60.5,156.1,60.5,150.2z"/>
				<path fill="#F70D39" d="M134.4,149.9c0-6.2,0-12.5,0-18.7c0-3.9,2.1-6.1,6.1-6.3c2.5-0.1,5.1-0.1,7.6,0c3.9,0.1,6.2,2.4,6.2,6.3
					c0,12.6,0,25.2,0,37.8c0,3.9-2.3,6.1-6.2,6.3c-2.5,0.1-5.1,0.1-7.6,0c-4-0.1-6.1-2.4-6.2-6.3
					C134.4,162.6,134.4,156.2,134.4,149.9z M149.2,150c0-5.8,0-11.6,0-17.5c0-2.6,0-2.6-2.8-2.7c-1.6,0-3.2,0.1-4.7,0
					c-1.7-0.1-2.3,0.5-2.3,2.2c0.1,3.8,0,7.6,0,11.4c0,8.1,0.1,16.2,0,24.3c0,2,0.6,2.6,2.6,2.5c1.6-0.1,3.2-0.1,4.7,0
					c1.9,0.1,2.5-0.5,2.5-2.4C149.2,161.9,149.2,156,149.2,150z"/>
				<path fill="#F70D39" d="M95.2,150.1c0,6.2,0,12.5,0,18.7c0,4.1-2.2,6.4-6.4,6.5c-2.4,0.1-4.8,0.1-7.2,0
					c-4.1-0.1-6.4-2.4-6.4-6.3c0-12.6,0-25.2,0-37.8c0-3.9,2.3-6.1,6.2-6.2c2.5-0.1,5.1-0.1,7.6,0c4,0.1,6.1,2.4,6.1,6.3
					C95.2,137.5,95.2,143.8,95.2,150.1z M90.1,150c0-6,0-12,0-18.1c0-1.6-0.6-2.2-2.2-2.1c-1.8,0.1-3.6,0.1-5.3,0
					c-1.7-0.1-2.3,0.5-2.3,2.2c0.1,3.5,0,7,0,10.4c0,8.5,0,17,0,25.5c0,1.7,0.5,2.5,2.4,2.3c1.6-0.1,3.2-0.1,4.7,0
					c2,0.2,2.8-0.5,2.7-2.6C90,161.8,90.1,155.9,90.1,150z"/>
				<path fill="#F70D39" d="M104.8,150.1c0-6.2,0-12.5,0-18.7c0-4.2,2.2-6.4,6.6-6.5c2.4,0,4.8-0.1,7.2,0c3.9,0.1,6.2,2.4,6.2,6.2
					c0,12.6,0,25.2,0,37.8c0,3.9-2.2,6.1-6.2,6.3c-2.5,0.1-5.1,0.1-7.6,0c-4-0.1-6.2-2.4-6.2-6.3
					C104.8,162.7,104.8,156.4,104.8,150.1z M119.7,150.3c0-6.1,0-12.2,0-18.3c0-1.5-0.5-2.2-2.1-2.2c-1.9,0.1-3.8,0.1-5.7,0
					c-1.4-0.1-2,0.5-1.9,1.9c0.1,2.1,0,4.1,0,6.2c0,9.8,0,19.7,0,29.5c0,2.7,0,2.8,2.9,2.8c1.5,0,3-0.1,4.5,0
					c1.8,0.1,2.4-0.6,2.4-2.3C119.6,162.1,119.7,156.2,119.7,150.3z"/>
				<path fill="#F70D39" d="M53.3,41.9c0,2.7,0,5.5,0,8.2c0,1.6-0.5,3-2.4,3.1c-1.6,0.1-2.6-1.1-2.7-3.1c0-1.7-0.1-3.5,0-5.2
					c0-1.3-0.4-2-1.8-2c-3.6,0.1-7.1,0-10.7,0c-1.2,0-1.7,0.5-1.7,1.7c0,1.9,0,3.7,0,5.6c0,1.6-0.6,2.8-2.4,3
					c-1.5,0.2-2.7-1.1-2.7-2.9c-0.1-5.6-0.2-11.2,0-16.9c0.3-6.7,6-11.8,12.6-11.5C48,22.1,53.2,27.4,53.3,34
					C53.3,36.6,53.3,39.3,53.3,41.9z M40.9,38L40.9,38c1,0,2,0,3.1,0c4.6-0.1,4.2,0.8,4.2-4.2c0-3.5-2.7-6.4-6-6.8
					c-3.6-0.4-6.8,1.6-7.8,5.1C33.8,33.5,34,35,34,36.4c-0.1,1.1,0.4,1.6,1.6,1.6C37.3,37.9,39.1,38,40.9,38z"/>
				<path fill="#F70D39" d="M58.5,37.7c0-2.7,0-5.4,0-8c0-6.9,1-7.9,8.1-7.8c5.5,0.1,10.1,2.2,13.3,6.7C86.8,38.1,81,51.3,69.2,53
					c-1.8,0.3-3.5,0.4-5.3,0.3c-3.5-0.1-5.3-1.8-5.4-5.3C58.4,44.7,58.5,41.2,58.5,37.7L58.5,37.7z M63.6,37.6c0,3,0,6,0,9
					c0,0.9,0,1.7,1.3,1.8c5.1,0.6,10.7-2.6,12.3-7.2c2.7-7.6-3.3-14.9-11.5-14.3c-1.5,0.1-2.2,0.4-2.2,2.1
					C63.6,31.8,63.6,34.7,63.6,37.6z"/>
				<path fill="#F70D39" d="M114.8,96.5c-4.4,0-7.8-3.4-7.9-7.6c-0.1-4.1,3.6-7.7,7.9-7.7c4.4,0,8,3.5,7.9,7.8
					S119.2,96.5,114.8,96.5z M114.8,86.1c-1.5,0-2.8,1.4-2.7,2.9c0.1,1.4,1.3,2.7,2.8,2.7c1.5,0,2.8-1.3,2.8-2.8
					C117.6,87.4,116.3,86.1,114.8,86.1z"/>
			</g>
		</g>
	</g>
</g>
<g id="Twitter_Ads" display="none">
	<g display="inline">
		<g>
			<defs>
				<rect id="SVGID_5_" width="200" height="200"/>
			</defs>
			<clipPath id="SVGID_6_">
				<use xlink:href="#SVGID_5_"  overflow="visible"/>
			</clipPath>
			<g clip-path="url(#SVGID_6_)">
				<path fill="#F70D39" d="M200,42.2c-4.7,7.3-10.3,13.7-17.1,19.1c-1.7,1.3-2.3,2.8-2.3,4.9c-0.5,34.2-13.2,63.2-38,86.7
					c-16.7,15.9-37,25-59.7,28.3c-20,3-39.6,1.1-58.6-5.9c-7.7-2.8-14.9-6.5-21.8-10.8c-0.9-0.5-1.5-1.4-2.3-2.1c0-1.2,0-2.3,0-3.5
					c1.5-2,3.5-2.4,6-2.2c15.6,1.3,30.5-1.4,44.2-9.3c0.2-0.1,0.3-0.2,0.4-0.4c-0.1-0.7-0.8-0.7-1.2-0.8
					C36.3,141.8,27.2,133,22.1,120c-1.5-3.8-1-5.3,2.7-7.2c0-0.6-0.5-0.7-0.8-1c-9.3-7.5-14.5-17.2-16.2-28.9
					c-0.3-1.8-0.3-3.6-0.3-5.5c0-3.2,2.8-5,5.8-3.9c0.7,0.2,1.3,0.5,2.3,1c-2.9-4.4-5-8.6-6.3-13.3c-3.2-11.7-1.7-22.8,4.1-33.4
					c1.7-3,4.9-3.3,7.2-0.6c4.8,5.6,9.9,10.9,15.7,15.5c2.5,2,5.1,3.8,7.6,5.8c1.5,1.2,2.1,2.8,1.5,4.7c-0.6,1.7-1.9,2.6-3.7,2.7
					c-1.4,0.1-2.5-0.6-3.6-1.4c-6.7-4.7-12.9-9.9-18.5-15.9c-1.6-1.7-1.6-1.6-2.3,0.5c-4.3,13.6,0.8,29.4,12.1,38
					c0.7,0.5,1.5,1.1,2.2,1.7c1.7,1.4,2.1,3.1,1.4,4.9c-0.7,1.7-2.4,2.7-4.4,2.6c-3.5-0.2-7-0.7-10.4-1.7c-1.9-0.6-2.1-0.4-1.6,1.5
					c3.7,13.4,12.2,22.1,25.6,25.9c0.2,0.1,0.5,0.1,0.8,0.2c2.8,0.7,4.2,2.3,4.2,4.4c-0.1,2.2-1.6,3.5-4.4,4.2
					c-2.9,0.7-5.9,0.9-8.9,1.1c-1.6,0.1-1.8,0.5-0.9,1.8c5.7,8.9,13.7,14.2,24.1,16.1c1.7,0.3,3.5,0.4,5.2,0.6
					c1.9,0.2,3.3,1.2,3.8,3.1c0.5,2-0.4,3.4-1.9,4.6c-5.3,4-11,7.5-17.1,10.2c-8.3,3.7-17,5.9-26.5,6.8c5.7,2.6,11.2,4.5,16.9,5.9
					c22.6,5.5,44.8,4.4,66.6-3.8c22.9-8.7,40.3-23.9,52.8-44.9c8.4-14.2,13.4-29.6,14.9-46c0.4-4.6,0.4-9.1,0.3-13.6
					c0-2.3,0.7-4,2.6-5.4c3.1-2.3,6-4.8,8.9-7.7c-3.2,0.5-6.1,1-9,1.5c-2.4,0.4-4.2-0.5-4.9-2.5c-0.8-1.9-0.2-3.7,1.8-5.1
					c2.8-1.9,5.4-3.9,7.6-6.4c0.5-0.6,1.2-1,1.4-1.8c-0.5-0.6-1-0.1-1.4,0.1c-3.7,1.3-7.4,2.3-11.2,3.2c-2.5,0.6-4.3-0.1-6.1-1.8
					c-11-10.3-23.8-13-37.7-7.6c-12.8,5-20,14.8-22,28.5c-0.6,4.1,0,8,0.5,12c0.4,3.2-1.2,5.2-4.4,5.1c-8.2-0.2-16.2-1.6-24-3.8
					c-2.6-0.7-3.8-2.9-3.2-5c0.6-2.3,2.8-3.5,5.4-2.9c5.1,1.2,10.1,2.3,15.3,2.9c1.8,0.2,2.2-0.2,2.1-2
					c-0.7-12.6,3.5-23.4,12.1-32.5c15.9-16.7,42.7-17.8,59.9-2.5c1.1,1,2,1.1,3.3,0.7c6.6-1.7,12.8-4.3,18.8-7.6
					c1.1-0.6,2.2-1.2,3.5-1.1c2.6,0.3,4.2,2.7,3.5,5.3c-1.2,4-3.1,7.7-5.4,11.2c-0.3,0.5-0.8,0.9-0.9,1.8c1.6-0.6,3.1-1.2,4.6-1.8
					c3.5-1.5,4.5-1.3,7,1.4C200,40.1,200,41.1,200,42.2z"/>
				<path fill="#F70D39" d="M136.9,124.1c1.9,0,3.1,0.8,3.8,2.2c0.8,1.7,0.4,3.2-0.7,4.5c-1.5,1.8-3.2,3.6-4.8,5.4
					c-6.1,6.3-12.8,11.8-20.4,16.2c-3.1,1.8-6.1,0.8-6.8-2.3c-0.4-2,0.5-3.4,2.1-4.4c2.5-1.7,5-3.2,7.5-5c5.9-4.2,11-9.1,15.7-14.6
					C134.3,125,135.4,123.9,136.9,124.1z"/>
				<path fill="#F70D39" d="M57.4,56.6c2.3,0.1,4.3,2.1,4.2,4.3c-0.1,2.2-2,4-4.1,3.9c-2.4-0.1-4.2-2-4.1-4.3
					C53.4,58.3,55.3,56.5,57.4,56.6z"/>
				<path fill="#F70D39" d="M149.2,116.7c0,2.2-2,4.1-4.2,4.1c-2.2-0.1-4.1-2.1-4-4.2c0.1-2,2-4,4.1-4
					C147.2,112.5,149.3,114.6,149.2,116.7z"/>
			</g>
		</g>
	</g>
</g>
<g id="Bing_Ads" display="none">
	<g display="inline">
		<g>
			<defs>
				<rect id="SVGID_7_" width="200" height="200"/>
			</defs>
			<clipPath id="SVGID_8_">
				<use xlink:href="#SVGID_7_"  overflow="visible"/>
			</clipPath>
			<g clip-path="url(#SVGID_8_)">
				<path fill="#F70D39" d="M28.5,0c8.9,2.9,17.8,5.9,26.7,8.8c6.2,2,12.5,4.1,18.8,6.1c1.8,0.6,2.4,1.4,2.4,3.3
					c-0.1,40.1,0,80.2,0,120.3c0,3,0,3,2.7,1.7c12.8-6.6,25.6-13.1,38.4-19.7c0.6-0.3,1.2-0.5,1.7-1.1c-0.6-0.6-1.4-0.6-2.1-0.8
					c-5.4-1.3-10.7-2.6-16.1-3.8c-1.4-0.3-2.1-0.9-2.5-2.3C93.9,94.1,89.3,76,84.7,57.8c-0.5-2.1-0.3-2.3,1.8-1.6
					c12.3,4,24.6,8,36.9,12c15.8,5.1,31.6,10.2,47.4,15.2c2.1,0.7,2.8,1.6,2.8,3.8c-0.1,18.1-0.1,36.2,0,54.3c0,2-0.6,3-2.3,4
					c-32.8,18-65.6,36-98.4,54.1c-0.2,0.1-0.4,0.3-0.7,0.4c-0.4,0-0.8,0-1.2,0c-0.4-0.3-0.9-0.6-1.3-0.8
					c-13.3-6.9-26.6-13.7-39.9-20.5c-2-1-2.6-2.2-2.6-4.3c0-57.1,0-114.4,0-171.6c0-0.9,0.1-1.8,0.1-2.7C27.7,0,28.1,0,28.5,0z
					 M36.5,92.1c0,25.8,0,51.6,0,77.3c0,1.4,0.3,2.4,1.7,3.1c10.6,5.4,21.2,10.8,31.8,16.3c1.3,0.7,2.3,0.6,3.6-0.1
					c29.6-16.3,59.1-32.6,88.8-48.9c1.6-0.9,2.1-1.9,2.1-3.7c-0.1-14.2-0.1-28.4,0-42.6c0-1.8-0.5-2.6-2.3-3.2
					c-20.9-6.7-41.7-13.5-62.6-20.3c-0.6-0.2-1.3-0.7-1.8-0.3c-0.6,0.5-0.1,1.2,0.1,1.8c2.7,11,5.5,22,8.2,32.9
					c0.4,1.5,1.2,1.9,2.5,2.2c11.8,2.8,23.5,5.6,35.3,8.4c0.5,0.1,1.4,0,1.5,0.7c0.1,0.8-0.8,0.9-1.3,1.2
					c-24.7,12.7-49.3,25.3-74,38c-2.9,1.5-2.9,1.5-2.9-1.9c0-42.7,0-85.4,0-128.1c0-2-0.5-3-2.5-3.6C56,18.9,47.5,16,39,13.2
					c-2.5-0.8-2.5-0.8-2.5,1.9C36.5,40.8,36.5,66.5,36.5,92.1z"/>
			</g>
		</g>
	</g>
</g>
</svg>
