<?xml version="1.0" encoding="utf-8"?>
<!-- Generator: Adobe Illustrator 18.1.1, SVG Export Plug-In . SVG Version: 6.00 Build 0)  -->
<svg version="1.1" id="Focuses_On_Quality_Traffic" xmlns="http://www.w3.org/2000/svg" xmlns:xlink="http://www.w3.org/1999/xlink"
	 x="0px" y="0px" viewBox="-230 322 150 150" enable-background="new -230 322 150 150" xml:space="preserve">
<title>Focuses On Quality Traffic</title>
<g id="Page-1">
	<path id="Shape" fill="#E20031" d="M-198.6,357.3c3.3,0,5.9-2.7,5.9-5.9c0-3.3-2.7-5.9-5.9-5.9s-5.9,2.7-5.9,5.9c0,0,0,0,0,0
		C-204.5,354.7-201.8,357.3-198.6,357.3z M-198.6,349.4c1.1,0,2,0.9,2,2s-0.9,2-2,2s-2-0.9-2-2c0,0,0,0,0,0
		C-200.5,350.3-199.7,349.4-198.6,349.4z"/>
	<path fill="#E20031" d="M-182.8,357.3c3.3,0,5.9-2.7,5.9-5.9c0-3.3-2.7-5.9-5.9-5.9c-3.3,0-5.9,2.7-5.9,5.9l0,0
		C-188.7,354.7-186,357.3-182.8,357.3C-182.8,357.3-182.8,357.3-182.8,357.3z M-182.8,349.4c1.1,0,2,0.9,2,2s-0.9,2-2,2s-2-0.9-2-2
		c0,0,0,0,0,0C-184.7,350.3-183.8,349.4-182.8,349.4z"/>
	<path fill="#E20031" d="M-147.2,357.3h19.8c3.3,0,5.9-2.6,5.9-5.9c0-3.3-2.6-5.9-5.9-5.9c0,0,0,0,0,0h-19.8c-3.3,0-5.9,2.6-5.9,5.9
		C-153.1,354.7-150.5,357.3-147.2,357.3C-147.2,357.3-147.2,357.3-147.2,357.3z M-147.2,349.4h19.8c1.1,0,2,0.9,2,2c0,1.1-0.9,2-2,2
		c0,0,0,0,0,0h-19.8c-1.1,0-2-0.9-2-2C-149.1,350.3-148.3,349.4-147.2,349.4C-147.2,349.4-147.2,349.4-147.2,349.4z"/>
	<path fill="#E20031" d="M-119.5,387c-3.3,0-5.9,2.7-5.9,5.9s2.7,5.9,5.9,5.9s5.9-2.7,5.9-5.9S-116.2,387-119.5,387L-119.5,387z
		 M-119.5,394.9c-1.1,0-2-0.9-2-2s0.9-2,2-2c1.1,0,2,0.9,2,2C-117.5,394-118.4,394.9-119.5,394.9
		C-119.5,394.9-119.5,394.9-119.5,394.9L-119.5,394.9z"/>
	<path fill="#E20031" d="M-119.5,402.8c-3.3,0-5.9,2.7-5.9,5.9s2.7,5.9,5.9,5.9s5.9-2.7,5.9-5.9
		C-113.6,405.5-116.2,402.8-119.5,402.8C-119.5,402.8-119.5,402.8-119.5,402.8z M-119.5,410.7c-1.1,0-2-0.9-2-2s0.9-2,2-2
		c1.1,0,2,0.9,2,2c0,0,0,0,0,0C-117.5,409.8-118.4,410.7-119.5,410.7C-119.5,410.7-119.5,410.7-119.5,410.7z"/>
	<path fill="#E20031" d="M-119.5,418.6c-3.3,0-5.9,2.7-5.9,5.9s2.7,5.9,5.9,5.9s5.9-2.7,5.9-5.9S-116.2,418.6-119.5,418.6
		C-119.5,418.6-119.5,418.6-119.5,418.6z M-119.5,426.5c-1.1,0-2-0.9-2-2c0-1.1,0.9-2,2-2c1.1,0,2,0.9,2,2S-118.4,426.5-119.5,426.5
		C-119.5,426.5-119.5,426.5-119.5,426.5z"/>
	<path fill="#E20031" d="M-101.7,398.9c4.4,0,7.9-3.5,7.9-7.9c0-2.2-1.8-4-4-4h-5.9v-2c0-3.3-2.7-5.9-5.9-5.9h-4v-33.6
		c0-4.4-3.5-7.9-7.9-7.9h-83c-4.4,0-7.9,3.5-7.9,7.9v94.9c0,4.4,3.5,7.9,7.9,7.9c0,0,0,0,0,0h77.1v4c0,2.2,1.8,4,4,4h7.9
		c2.2,0,4-1.8,4-4v-13.8h2c3.3,0,5.9-2.7,5.9-5.9v-2h2c4.4,0,7.9-3.5,7.9-7.9c0,0,0,0,0,0c0-2.2-1.8-4-4-4h-5.9v-4h2
		c4.4,0,7.9-3.5,7.9-7.9c0-2.2-1.8-4-4-4h-5.9v-4H-101.7z M-97.7,391c0,2.2-1.8,4-4,4l0,0h-2v-4H-97.7z M-204.5,341.5h83
		c2.2,0,4,1.8,4,4v15.8h-91v-15.8C-208.5,343.3-206.7,341.5-204.5,341.5L-204.5,341.5z M-204.5,444.3c-2.2,0-4-1.8-4-4l0,0v-75.1h91
		v13.8h-11.9c-3.3,0-5.9,2.7-5.9,5.9v2h-5.9c-2.2,0-4,1.8-4,4c0,4.4,3.5,7.9,7.9,7.9h2v4h-5.9c-2.2,0-4,1.8-4,4
		c0,4.4,3.5,7.9,7.9,7.9c0,0,0,0,0,0h2v4h-5.9c-2.2,0-4,1.8-4,4c0,4.4,3.5,7.9,7.9,7.9c0,0,0,0,0,0h2v2c0,3.3,2.7,5.9,5.9,5.9h2v5.9
		L-204.5,444.3z M-135.3,426.5h-2c-2.2,0-4-1.8-4-4c0,0,0,0,0,0h5.9V426.5z M-135.3,410.7h-2c-2.2,0-4-1.8-4-4h5.9V410.7z
		 M-135.3,394.9h-2c-2.2,0-4-1.8-4-4c0,0,0,0,0,0h5.9V394.9z M-115.5,452.2h-7.9v-13.8h7.9V452.2z M-107.6,432.5c0,1.1-0.9,2-2,2h0
		h-19.8c-1.1,0-2-0.9-2-2V385c0-1.1,0.9-2,2-2l0,0h19.8c1.1,0,2,0.9,2,2c0,0,0,0,0,0L-107.6,432.5z M-97.7,422.6c0,2.2-1.8,4-4,4
		l0,0h-2v-4H-97.7z M-97.7,406.8c0,2.2-1.8,4-4,4h-2v-4L-97.7,406.8z"/>
	<path fill="#E20031" d="M-202.5,400.8h47.5c1.1,0,2-0.9,2-2s-0.9-2-2-2c0,0,0,0,0,0h-2v-19.8c0-3.3-2.7-5.9-5.9-5.9
		c-3.3,0-5.9,2.7-5.9,5.9v4.3c-1.4-0.5-2.8-0.5-4.2,0.1c-0.8-3.1-4-5-7.1-4.2c-0.2,0.1-0.4,0.1-0.6,0.2v-2.3c0-3.3-2.7-5.9-5.9-5.9
		c-3.3,0-5.9,2.7-5.9,5.9v0.4c-0.6-0.2-1.3-0.4-2-0.4c-3.3,0-5.9,2.7-5.9,5.9v15.8h-2c-1.1,0-2,0.9-2,2S-203.6,400.8-202.5,400.8z
		 M-165,377.1c0-1.1,0.9-2,2-2s2,0.9,2,2l0,0v19.8h-4V377.1z M-170.9,385c1.1,0,2,0.9,2,2v9.9h-4V387
		C-172.9,385.9-172,385-170.9,385L-170.9,385z M-178.8,381.1c1.1,0,2,0.9,2,2v13.8h-4V383C-180.8,382-179.9,381.1-178.8,381.1
		L-178.8,381.1z M-188.7,375.1c0-1.1,0.9-2,2-2s2,0.9,2,2v21.7h-4L-188.7,375.1z M-196.6,381.1c0-1.1,0.9-2,2-2s2,0.9,2,2v15.8h-4
		L-196.6,381.1z"/>
	<path fill="#E20031" d="M-166.9,408.7c1.1,0,2-0.9,2-2s-0.9-2-2-2l0,0h-35.6c-1.1,0-2,0.9-2,2s0.9,2,2,2H-166.9z"/>
	<path fill="#E20031" d="M-155.1,404.8h-4c-1.1,0-2,0.9-2,2s0.9,2,2,2h4c1.1,0,2-0.9,2-2S-154,404.8-155.1,404.8L-155.1,404.8z"/>
	<path fill="#E20031" d="M-151.1,416.7h-21.7c-1.1,0-2,0.9-2,2s0.9,2,2,2h21.7c1.1,0,2-0.9,2-2S-150,416.7-151.1,416.7z"/>
	<path fill="#E20031" d="M-172.9,428.5h4c1.1,0,2-0.9,2-2s-0.9-2-2-2h-4c-1.1,0-2,0.9-2,2S-174,428.5-172.9,428.5z"/>
	<path fill="#E20031" d="M-151.1,424.6h-9.9c-1.1,0-2,0.9-2,2s0.9,2,2,2h9.9c1.1,0,2-0.9,2-2S-150,424.6-151.1,424.6z"/>
	<path fill="#E20031" d="M-163,432.5h-9.9c-1.1,0-2,0.9-2,2c0,1.1,0.9,2,2,2c0,0,0,0,0,0h9.9c1.1,0,2-0.9,2-2
		C-161,433.4-161.9,432.5-163,432.5C-163,432.5-163,432.5-163,432.5z"/>
	<path fill="#E20031" d="M-190.7,414.7c-6.6,0-11.9,5.3-11.9,11.9c0,6.6,5.3,11.9,11.9,11.9s11.9-5.3,11.9-11.9
		C-178.8,420-184.1,414.7-190.7,414.7C-190.7,414.7-190.7,414.7-190.7,414.7z M-183,424.6h-5.7v-5.7
		C-185.9,419.6-183.8,421.8-183,424.6z M-192.6,418.9v6.2l-5.9,2c0-0.2-0.1-0.3-0.1-0.5C-198.6,422.9-196.1,419.8-192.6,418.9z
		 M-190.7,434.5c-2.7,0-5.2-1.4-6.6-3.6l6.9-2.3h7.3C-183.9,432-187.1,434.4-190.7,434.5L-190.7,434.5z"/>
</g>
</svg>
