<svg xmlns="http://www.w3.org/2000/svg" width="150" height="150" viewBox="0 0 150 150"><defs><style>.cls-1,.cls-2{fill:#fff;}.cls-2{font-size:11.16994px;font-family:ArialRoundedMTBold, Arial Rounded MT Bold;letter-spacing:-0.05001em;}</style></defs><title>Global SEO</title><g id="Global_SEO" data-name="Global SEO"><path class="cls-1" d="M88.31706,41.23606a1.69635,1.69635,0,0,0-2.81122,1.89933,13.78277,13.78277,0,1,1-4.86662-4.41994,1.69615,1.69615,0,1,0,1.61934-2.98085,17.18961,17.18961,0,1,0,6.0585,5.50146Z"/><path class="cls-1" d="M115.00429,32.84648a57.91831,57.91831,0,0,0-96.336,57.82967,1.69617,1.69617,0,0,0,3.24524-.98812,54.44577,54.44577,0,0,1-2.32747-14.205H31.75617a74.31855,74.31855,0,0,0,5.527,27.02987,56.23888,56.23888,0,0,0-6.96384,3.80432,54.54779,54.54779,0,0,1-5.86785-9.92479A1.69639,1.69639,0,0,0,21.365,97.80125a57.90516,57.90516,0,1,0,93.63925-64.95478Zm2.80467,73.47123a56.23587,56.23587,0,0,0-6.96452-3.805,74.31731,74.31731,0,0,0,5.527-27.02964h12.16948A54.04371,54.04371,0,0,1,117.809,106.31771ZM30.31958,41.25529a56.17436,56.17436,0,0,0,6.97062,3.78939A74.30826,74.30826,0,0,0,31.7564,72.0906H19.58692A54.042,54.042,0,0,1,30.31958,41.25529Zm10.09894,5.13055a77.27282,77.27282,0,0,0,9.0579,2.95936c-.03008.49734-.04727.9983-.04727,1.5031A24.64658,24.64658,0,0,0,61.602,72.0906H35.15A71.04247,71.04247,0,0,1,40.41852,46.38584Zm33.64541,71.58185a4.09138,4.09138,0,0,1-4.0868-4.0868V111.472H78.151v2.40889a4.09187,4.09187,0,0,1-4.087,4.0868Zm4.0868-21.07517c-.00181.01922-.005.038-.00611.05767a1.70549,1.70549,0,0,0,.00611.2481v10.88124h-8.1736V89.64235H78.151v7.25017Zm-4.0868-21.40945c.59662,0,1.18782-.02261,1.774-.06445v3.54649H72.28989V75.41862c.58622.04184,1.17741.06445,1.774.06445Zm0-3.39247A21.24231,21.24231,0,1,1,95.30624,50.84829,21.26633,21.26633,0,0,1,74.06393,72.0906ZM75.76017,26.273V19.33584c12.70322.76625,23.8484,10.091,30.55781,23.95289a73.71312,73.71312,0,0,1-8.10869,2.66377A24.68485,24.68485,0,0,0,75.76017,26.273Zm-3.39248,0A24.68484,24.68484,0,0,0,49.91857,45.9525a73.71312,73.71312,0,0,1-8.10869-2.66377c6.70941-13.86164,17.85459-23.18642,30.55781-23.95289ZM69.97713,83.81883a1.46279,1.46279,0,0,1,1.46125-1.46125H76.6897A1.4628,1.4628,0,0,1,78.151,83.81883v2.43082H69.97713Zm2.39056,37.3448v7.074c-12.70119-.76624-23.84478-10.08808-30.55442-23.9461A85.58835,85.58835,0,0,1,66.58466,98.8579v15.02277a7.4905,7.4905,0,0,0,5.783,7.283Zm3.39248,0a7.49071,7.49071,0,0,0,5.783-7.283V98.85789a85.59639,85.59639,0,0,1,24.77161,5.43338c-6.70986,13.85825-17.85345,23.18009-30.55464,23.94634Zm5.783-25.70884V83.81906a4.85042,4.85042,0,0,0-2.313-4.12774V75.48307H97.372a1.69624,1.69624,0,1,0,0-3.39247H86.52561A24.6463,24.6463,0,0,0,98.69848,50.84829c0-.5048-.01718-1.00553-.04727-1.50309a77.35706,77.35706,0,0,0,9.0579-2.95937,71.04257,71.04257,0,0,1,5.26851,25.70477h-8.21317a1.69624,1.69624,0,1,0,0,3.39247h8.21317a71.04829,71.04829,0,0,1-5.26014,25.68487A87.92139,87.92139,0,0,0,81.5432,95.45479ZM116.37146,72.0906a74.313,74.313,0,0,0-5.5338-27.04592,56.1619,56.1619,0,0,0,6.97085-3.78939A54.04135,54.04135,0,0,1,128.54094,72.0906Zm-3.7661-36.84519q1.61548,1.6155,3.07494,3.34181a53.06769,53.06769,0,0,1-6.232,3.36307,58.651,58.651,0,0,0-5.27959-8.898,47.24887,47.24887,0,0,0-9.11648-9.59866,54.4268,54.4268,0,0,1,17.5531,11.79178Zm-77.08286,0a54.42984,54.42984,0,0,1,17.55311-11.792,47.24833,47.24833,0,0,0-9.11648,9.59866,58.69776,58.69776,0,0,0-5.2796,8.898,53.06544,53.06544,0,0,1-6.232-3.36308Q33.90939,36.86465,35.5225,35.24541ZM35.15,75.48307H68.89742v4.208a4.85044,4.85044,0,0,0-2.313,4.12774V95.45456a87.928,87.928,0,0,0-26.17451,5.71337A71.05684,71.05684,0,0,1,35.15,75.48307Zm9.06627,43.91828a54.74918,54.74918,0,0,1-11.77369-10.414,52.74948,52.74948,0,0,1,6.2383-3.36127,58.65273,58.65273,0,0,0,5.27824,8.89529,47.27122,47.27122,0,0,0,9.07418,9.56452A54.293,54.293,0,0,1,44.21628,119.40135Zm68.38908-7.07308a54.42313,54.42313,0,0,1-17.55311,11.79179,47.2492,47.2492,0,0,0,9.11648-9.59867,58.66676,58.66676,0,0,0,5.27824-8.89551,52.72351,52.72351,0,0,1,6.23468,3.359q-1.4625,1.72338-3.07629,3.3434Z"/><text class="cls-2" transform="translate(63.72314 54.57373)">SEO</text></g></svg>