<svg xmlns="http://www.w3.org/2000/svg" width="150" height="150" viewBox="0 0 150 150"><defs><style>.cls-1{fill:#fff;}</style></defs><title>Global Presence</title><g id="Global_Presence" data-name="Global Presence"><path class="cls-1" d="M132.1373,48.93667V44.82858A13.63423,13.63423,0,0,0,126.468,33.73316a8.76229,8.76229,0,0,0,.77123-3.599V26.86858a8.8169,8.8169,0,1,0-17.6338,0v3.26554c0,.10126.00434.20161.00777.302A58.51956,58.51956,0,0,0,22.33633,104.7628a8.78246,8.78246,0,0,0-2.33566,5.96967V113.998a8.76215,8.76215,0,0,0,.771,3.599,13.63091,13.63091,0,0,0-5.66932,11.09565v4.10808a2.28578,2.28578,0,0,0,2.28583,2.28583h22.8583a2.28578,2.28578,0,0,0,2.28583-2.28583V128.6927A13.81981,13.81981,0,0,0,42.264,125.986a58.53026,58.53026,0,0,0,84.10711-74.76355h3.4804a2.28578,2.28578,0,0,0,2.28583-2.28583ZM114.17708,26.86858a4.24513,4.24513,0,1,1,8.49026,0v3.26554a4.24513,4.24513,0,0,1-8.49025,0ZM127.51376,78.855a53.73647,53.73647,0,0,1-14.00459,33.99462,58.32819,58.32819,0,0,0-6.58136-5.30518A79.81206,79.81206,0,0,0,112.82159,78.855ZM33.72869,40.29052c1.29743,1.20829,2.65476,2.36126,4.05689,3.44772a8.83122,8.83122,0,0,0-.15156,1.61905v3.26553a8.76024,8.76024,0,0,0,.771,3.59881,13.63122,13.63122,0,0,0-5.66932,11.09565V67.4256a2.28441,2.28441,0,0,0,1.92147,2.254c-.12024,1.52808-.20093,3.06622-.24116,4.60366H19.72592A53.73848,53.73848,0,0,1,33.72869,40.29052Zm16.263-3.00518c5.84829-8.472,13.42307-13.59177,21.34256-14.42313V51.37428A53.65462,53.65462,0,0,1,55.26783,48.205V45.35752A8.82868,8.82868,0,0,0,49.99168,37.28534Zm-3.54075,3.82693a4.24985,4.24985,0,0,1,4.245,4.245v3.26553a4.24513,4.24513,0,0,1-8.49026,0V45.35729A4.25005,4.25005,0,0,1,46.45093,41.11227ZM41.30529,55.77564a8.78807,8.78807,0,0,0,10.29378-.0016,9.09408,9.09408,0,0,1,3.99517,7.54347v1.82226H37.30761V63.31751A9.23147,9.23147,0,0,1,41.30529,55.77564Zm-2.0625,13.93579H57.88007A2.28578,2.28578,0,0,0,60.1659,67.4256V63.31751a13.6274,13.6274,0,0,0-4.49394-10.145A58.17244,58.17244,0,0,0,71.334,55.94845v18.3351H38.99021C39.03226,72.75547,39.1173,71.22785,39.24279,69.71143Zm36.66288-46.854C84.131,23.69631,91.847,29.04813,97.8366,38.1455a54.61456,54.61456,0,0,1,3.28268,5.73423,54.43055,54.43055,0,0,1-25.21362,7.49409ZM44.9201,36.6764A8.81366,8.81366,0,0,0,39.838,39.53505q-1.48739-1.19492-2.8886-2.49246a54.08756,54.08756,0,0,1,16.23876-10.3971A47.21783,47.21783,0,0,0,44.9201,36.6764ZM34.42038,78.855c.037,1.40579.10423,2.81889.20846,4.22444A2.286,2.286,0,0,0,36.906,85.19633q.08536,0,.17143-.00641a2.28569,2.28569,0,0,0,2.11051-2.44858c-.09578-1.29332-.15841-2.593-.19452-3.88637H71.334V97.1903a58.29654,58.29654,0,0,0-27.09577,7.85731q-.55031-1.36293-1.05331-2.78506a2.28582,2.28582,0,0,0-4.31153,1.52009q.67958,1.92694,1.44556,3.754-1.40853.97651-2.76265,2.04194a8.81664,8.81664,0,0,0-11.351-7.26779,53.891,53.891,0,0,1-6.481-23.45582Zm68.58883,26.20247a58.71231,58.71231,0,0,0-6.99556-3.46075q-1.2892-.53386-2.59578-1.00348h11.215q-.74027,2.28629-1.62362,4.46422ZM71.334,130.282c-9.98176-1.02862-19.158-8.752-25.22024-21.03694A53.74278,53.74278,0,0,1,71.334,101.76448Zm4.57166-.00114V101.76471a53.51773,53.51773,0,0,1,25.22619,7.46894,54.65673,54.65673,0,0,1-3.29525,5.75937c-5.98956,9.09715-13.70561,14.449-21.93094,15.28786Zm27.43019-34.2591H85.04922V94.19952a9.23206,9.23206,0,0,1,3.99769-7.54186,8.7876,8.7876,0,0,0,10.29377-.00183,9.09465,9.09465,0,0,1,3.99518,7.54347ZM98.43778,79.50484a4.24513,4.24513,0,0,1-8.49025,0V76.23931a4.24513,4.24513,0,0,1,8.49025,0Zm-12.2909,3.599a13.6312,13.6312,0,0,0-5.66932,11.09564v3.34532q-2.27154-.26643-4.57189-.35408V78.85521h9.47v.64986a8.76565,8.76565,0,0,0,.77124,3.5988ZM24.57234,113.998v-3.26554a4.24513,4.24513,0,1,1,8.49026,0V113.998a4.24513,4.24513,0,1,1-8.49026,0Zm12.91128,1.61288a54.28226,54.28226,0,0,1,4.78082-3.84888,50.29293,50.29293,0,0,0,10.96078,14.76417A53.82,53.82,0,0,1,37.2875,116.44q.1176-.407.19612-.82908Zm64.17147,1.8961a58.7465,58.7465,0,0,0,3.32519-5.75229,54.45246,54.45246,0,0,1,5.30815,4.34239,54.08178,54.08178,0,0,1-16.19555,10.37858A47.06156,47.06156,0,0,0,101.65509,117.507Zm5.55868-27.62768a13.6396,13.6396,0,0,0-4.97557-6.7752,8.76227,8.76227,0,0,0,.77124-3.599v-.64986h5.23935A81.72231,81.72231,0,0,1,107.21377,89.87931Zm-4.42583-15.596a8.81472,8.81472,0,0,0-17.19081,0H75.90567V55.9496a59.03631,59.03631,0,0,0,27.09943-7.87834,75.4711,75.4711,0,0,1,5.24346,26.21206Zm2.39966-33.06338c-.07086.0512-.1408.10355-.21189.15453a58.78775,58.78775,0,0,0-3.32063-5.74315,47.054,47.054,0,0,0-7.58484-8.98971,53.824,53.824,0,0,1,14.39844,8.75381,13.59538,13.59538,0,0,0-3.28108,5.82452ZM37.96067,130.515H19.674V128.6927a9.23265,9.23265,0,0,1,3.99768-7.54187A8.78758,8.78758,0,0,0,33.9655,121.149a9.09418,9.09418,0,0,1,3.99517,7.5437Zm89.55491-56.23164H112.82136a82.29865,82.29865,0,0,0-3.816-23.06082h12.242A53.95906,53.95906,0,0,1,127.51558,74.28332Zm.05006-27.63248H109.279V44.82858a9.23265,9.23265,0,0,1,3.99769-7.54187,8.7876,8.7876,0,0,0,10.29377-.00183,9.09417,9.09417,0,0,1,3.99517,7.54369Z"/><path class="cls-1" d="M38.30354,95.38815a2.28583,2.28583,0,0,0,0-4.57166h-.0016a2.28583,2.28583,0,0,0,.0016,4.57166Z"/></g></svg>