<?xml version="1.0" encoding="utf-8"?>
<!-- Generator: Adobe Illustrator 18.1.1, SVG Export Plug-In . SVG Version: 6.00 Build 0)  -->
<svg version="1.1" id="Layer_1" xmlns="http://www.w3.org/2000/svg" xmlns:xlink="http://www.w3.org/1999/xlink" x="0px" y="0px"
	 viewBox="-230 322 150 150" enable-background="new -230 322 150 150" xml:space="preserve">
<title>Global SEO</title>
<g id="Global_SEO">
	<path fill="#FC4D4A" d="M-141.7,363.2c-0.5-0.8-1.6-1-2.4-0.5c-0.8,0.5-1,1.6-0.5,2.4c4.3,6.3,2.6,14.9-3.7,19.1
		c-6.3,4.3-14.9,2.6-19.1-3.7c-4.3-6.3-2.6-14.9,3.7-19.1c4.3-2.9,9.8-3.1,14.3-0.7c0.8,0.4,1.9,0.1,2.3-0.7s0.1-1.9-0.7-2.3l0,0
		c-8.3-4.5-18.8-1.4-23.3,6.9c-4.5,8.3-1.4,18.8,6.9,23.3c8.3,4.5,18.8,1.4,23.3-6.9C-137.8,375.4-138.1,368.5-141.7,363.2z"/>
	<path fill="#FC4D4A" d="M-115,354.8c-22.6-22.6-59.3-22.6-81.9,0.1c-15.1,15.1-20.6,37.3-14.4,57.8c0.3,0.9,1.2,1.4,2.1,1.1
		c0.9-0.3,1.4-1.2,1.1-2.1c-1.4-4.6-2.2-9.4-2.3-14.2h12.2c0.1,9.3,2,18.4,5.5,27c-2.4,1.1-4.7,2.4-7,3.8c-2.3-3.1-4.3-6.4-5.9-9.9
		c-0.4-0.9-1.4-1.2-2.2-0.8s-1.2,1.4-0.8,2.2c13.3,29.1,47.6,41.9,76.7,28.7c29.1-13.3,41.9-47.6,28.7-76.7
		C-106.1,365.5-110.1,359.7-115,354.8L-115,354.8z M-112.2,428.3c-2.2-1.4-4.6-2.7-7-3.8c3.5-8.6,5.4-17.8,5.5-27h12.2
		C-101.8,408.6-105.5,419.4-112.2,428.3L-112.2,428.3z M-199.7,363.3c2.2,1.4,4.6,2.7,7,3.8c-3.5,8.6-5.4,17.8-5.5,27h-12.2
		C-210.1,383-206.4,372.2-199.7,363.3z M-189.6,368.4c3,1.2,6,2.2,9.1,3c0,0.5,0,1,0,1.5c0,8.7,4.6,16.8,12.2,21.2h-26.5
		C-194.7,385.3-192.9,376.6-189.6,368.4z M-155.9,440c-2.3,0-4.1-1.8-4.1-4.1v-2.4h8.2v2.4C-151.9,438.1-153.7,440-155.9,440
		L-155.9,440z M-151.8,418.9C-151.9,418.9-151.9,418.9-151.8,418.9c0,0.1,0,0.2,0,0.3v10.9h-8.2v-18.4h8.2L-151.8,418.9
		L-151.8,418.9z M-155.9,397.5c0.6,0,1.2,0,1.8-0.1v3.5h-3.5v-3.5C-157.1,397.5-156.5,397.5-155.9,397.5L-155.9,397.5z
		 M-155.9,394.1c-11.7,0-21.2-9.5-21.2-21.2c0-11.7,9.5-21.2,21.2-21.2c11.7,0,21.2,9.5,21.2,21.2c0,0,0,0,0,0
		C-134.7,384.6-144.2,394.1-155.9,394.1z M-154.2,348.3v-6.9c12.7,0.8,23.8,10.1,30.6,24c-2.6,1-5.4,1.9-8.1,2.7
		C-134,357.1-143.2,349.1-154.2,348.3z M-157.6,348.3c-11.1,0.8-20.2,8.8-22.4,19.7c-2.8-0.7-5.5-1.6-8.1-2.7
		c6.7-13.9,17.9-23.2,30.6-24V348.3z M-160,405.8c0-0.8,0.7-1.5,1.5-1.5h5.3c0.8,0,1.5,0.7,1.5,1.5v2.4h-8.2V405.8z M-157.6,443.2
		v7.1c-12.7-0.8-23.8-10.1-30.6-23.9c7.9-3,16.3-4.9,24.8-5.4v15C-163.4,439.4-161,442.4-157.6,443.2L-157.6,443.2z M-154.2,443.2
		c3.4-0.8,5.8-3.8,5.8-7.3v-15c8.5,0.6,16.8,2.4,24.8,5.4c-6.7,13.9-17.9,23.2-30.6,23.9L-154.2,443.2z M-148.5,417.5v-11.6
		c0-1.7-0.9-3.2-2.3-4.1v-4.2h18.1c0.9,0,1.7-0.8,1.7-1.7s-0.8-1.7-1.7-1.7c0,0,0,0,0,0h-10.8c7.5-4.4,12.2-12.5,12.2-21.2
		c0-0.5,0-1,0-1.5c3.1-0.8,6.1-1.8,9.1-3c3.3,8.2,5.1,16.9,5.3,25.7h-8.2c-0.9,0-1.7,0.8-1.7,1.7c0,0.9,0.8,1.7,1.7,1.7c0,0,0,0,0,0
		h8.2c-0.1,8.8-1.9,17.5-5.3,25.7C-130.7,419.9-139.5,418-148.5,417.5L-148.5,417.5z M-113.6,394.1c-0.1-9.3-2-18.5-5.5-27
		c2.4-1.1,4.7-2.4,7-3.8c6.7,8.9,10.4,19.7,10.7,30.8H-113.6z M-117.4,357.2c1.1,1.1,2.1,2.2,3.1,3.3c-2,1.3-4.1,2.4-6.2,3.4
		c-1.5-3.1-3.3-6.1-5.3-8.9c-2.6-3.6-5.6-6.8-9.1-9.6C-128.4,348.2-122.4,352.2-117.4,357.2L-117.4,357.2z M-194.5,357.2
		c5-5,11-9,17.6-11.8c-3.5,2.8-6.5,6-9.1,9.6c-2,2.8-3.8,5.8-5.3,8.9c-2.1-1-4.2-2.1-6.2-3.4C-196.6,359.4-195.6,358.3-194.5,357.2z
		 M-194.9,397.5h33.7v4.2c-1.4,0.9-2.3,2.4-2.3,4.1v11.6c-9,0.6-17.8,2.5-26.2,5.7C-192.9,415-194.7,406.3-194.9,397.5z
		 M-185.8,441.4c-4.4-2.9-8.4-6.4-11.8-10.4c2-1.3,4.1-2.4,6.2-3.4c1.5,3.1,3.3,6.1,5.3,8.9c2.6,3.6,5.6,6.8,9.1,9.6
		C-180,444.8-183,443.2-185.8,441.4L-185.8,441.4z M-117.4,434.3c-5,5-11,9-17.6,11.8c3.5-2.8,6.5-6,9.1-9.6c2-2.8,3.8-5.8,5.3-8.9
		c2.2,1,4.2,2.1,6.2,3.4C-115.3,432.1-116.3,433.2-117.4,434.3z"/>
	<text transform="matrix(1 0 0 1 -166.2769 376.5737)" fill="#FC4D4A" font-family="'ArialMT'" font-size="12">SEO</text>
</g>
</svg>
