<?xml version="1.0" encoding="utf-8"?>
<!-- Generator: Adobe Illustrator 18.1.1, SVG Export Plug-In . SVG Version: 6.00 Build 0)  -->
<svg version="1.1" id="Growth_In_Sales" xmlns="http://www.w3.org/2000/svg" xmlns:xlink="http://www.w3.org/1999/xlink" x="0px"
	 y="0px" viewBox="-230 322 150 150" enable-background="new -230 322 150 150" xml:space="preserve">
<title>Growth In Sales</title>
<path fill="#F2F4FA" d="M-153.4,410.7v-4.2c3-1,4.5-4.3,3.5-7.3c-0.8-2.3-3-3.8-5.4-3.8c-1.1,0-1.9-0.9-1.9-1.9
	c0-1.1,0.9-1.9,1.9-1.9c1.1,0,1.9,0.9,1.9,1.9h3.8c0-2.4-1.5-4.6-3.8-5.4v-4.2h-3.8v4.2c-3,1-4.5,4.3-3.5,7.3c0.8,2.3,3,3.8,5.4,3.8
	c1.1,0,1.9,0.9,1.9,1.9c0,1.1-0.9,1.9-1.9,1.9c-1.1,0-1.9-0.9-1.9-1.9h-3.8c0,2.4,1.5,4.6,3.8,5.4v4.2H-153.4z"/>
<path fill="#F2F4FA" d="M-96.3,425.9v-57.1h-53.2v-7.6h11.3l-17-24.2l-17,24.2h11.3v7.6h-53.2v57.1h53.2v4.5l-11.4,5.7v21.6
	l15.9-9.1c0.4,0.1,0.8,0.1,1.2,0.1c0.4,0,0.8,0,1.2-0.1l15.9,9.1v-21.6l-11.4-5.7v-4.5H-96.3z M-109.5,422.1
	c0.8-4.8,4.6-8.5,9.3-9.3v9.3H-109.5z M-100.1,382c-4.8-0.8-8.5-4.6-9.3-9.3h9.3V382z M-113.3,372.7c0.9,6.9,6.3,12.3,13.2,13.2V409
	c-6.9,0.9-12.3,6.3-13.2,13.2h-36.3v-4.6c11.1-3.1,17.6-14.7,14.4-25.8c-2-7-7.4-12.5-14.4-14.4v-4.6L-113.3,372.7z M-172.4,397.4
	c0-9.5,7.7-17.1,17.1-17.1s17.1,7.7,17.1,17.1c0,9.5-7.7,17.1-17.1,17.1c0,0,0,0,0,0C-164.7,414.5-172.4,406.9-172.4,397.4z
	 M-164.9,357.5l9.7-13.8l9.7,13.8h-7.8v19.1c-0.6-0.1-1.3-0.1-1.9-0.1s-1.3,0-1.9,0.1v-19.1H-164.9z M-201.1,372.7
	c-0.8,4.8-4.6,8.5-9.3,9.3v-9.3H-201.1z M-210.4,412.8c4.8,0.8,8.5,4.6,9.3,9.3h-9.3V412.8z M-197.3,422.1
	c-0.9-6.9-6.3-12.3-13.2-13.2v-23.1c6.9-0.9,12.3-6.3,13.2-13.2h36.3v4.6c-11.1,3.1-17.6,14.7-14.4,25.8c2,7,7.4,12.5,14.4,14.4v4.6
	H-197.3z M-168.6,438.5l7.6-3.8v8.3c0,1.1,0.3,2.3,1,3.2l-8.6,4.9L-168.6,438.5z M-157.2,443.1v-24.8c0.6,0.1,1.3,0.1,1.9,0.1
	s1.3,0,1.9-0.1v24.8c0,1.1-0.9,1.9-1.9,1.9C-156.3,445-157.2,444.1-157.2,443.1z M-142,438.5v12.7l-8.6-4.9c0.7-0.9,1-2.1,1-3.2
	v-8.3L-142,438.5z"/>
</svg>
