<?xml version="1.0" encoding="utf-8"?>
<!-- Generator: Adobe Illustrator 18.1.1, SVG Export Plug-In . SVG Version: 6.00 Build 0)  -->
<svg version="1.1" id="Improves_Your_Website_Ranking"
	 xmlns="http://www.w3.org/2000/svg" xmlns:xlink="http://www.w3.org/1999/xlink" x="0px" y="0px" viewBox="-230 322 150 150"
	 enable-background="new -230 322 150 150" xml:space="preserve">
<title>Improves Your Website Ranking</title>
<g id="Page_rank_badge">
	<path fill="#FFFFFF" d="M-109.8,341.6h-94.4c-2.9,0-5.2,2.3-5.2,5.2l0,0v80.4c0,2.9,2.3,5.2,5.2,5.2h35v12.2c0,1,0.8,1.7,1.7,1.7
		c0.3,0,0.7-0.1,1-0.3l9.6-6.4l9.5,6.3c0.8,0.5,1.9,0.3,2.4-0.5c0.2-0.3,0.3-0.6,0.3-1v-12.2h35c2.9,0,5.2-2.3,5.2-5.2v-80.4
		C-104.6,343.9-106.9,341.6-109.8,341.6L-109.8,341.6z M-179,405.1c-0.5-1.4-1.4-2.6-2.5-3.6c-0.8-0.8-1.7-1.7-1.7-2.3
		c0-0.6,1-1.5,1.7-2.3c1.1-1,2-2.2,2.5-3.6c0.3-1.5,0.1-3.1-0.4-4.5c-0.3-1-0.6-2.3-0.3-2.7s1.6-0.8,2.6-1.1c1.5-0.3,2.9-0.9,4-1.9
		c1-1.2,1.6-2.6,1.9-4c0.3-1,0.6-2.3,1.1-2.6c0.5-0.3,1.8,0.1,2.7,0.3c1.4,0.5,3,0.7,4.5,0.4c1.4-0.5,2.6-1.4,3.6-2.5
		c0.8-0.8,1.7-1.7,2.3-1.7s1.5,1,2.3,1.7c1,1.1,2.2,2,3.6,2.5c1.5,0.3,3.1,0.1,4.5-0.4c1-0.3,2.3-0.6,2.7-0.3
		c0.4,0.3,0.8,1.6,1.1,2.6c0.3,1.5,0.9,2.9,1.9,4c1.2,1,2.6,1.6,4.1,1.9c1,0.3,2.3,0.6,2.6,1.1s-0.1,1.8-0.3,2.7
		c-0.5,1.4-0.7,3-0.4,4.5c0.5,1.4,1.4,2.6,2.5,3.6c0.8,0.8,1.7,1.7,1.7,2.3s-1,1.5-1.7,2.3c-1.1,1-2,2.2-2.5,3.6
		c-0.3,1.5-0.1,3.1,0.4,4.5c0.3,1,0.6,2.3,0.3,2.7c-0.3,0.4-1.6,0.8-2.6,1.1c-1.5,0.3-2.9,0.9-4.1,1.9c-1,1.2-1.6,2.6-1.9,4.1
		c-0.3,1-0.6,2.3-1.1,2.6c-0.4,0.3-1.8-0.1-2.7-0.3c-1.4-0.5-3-0.7-4.5-0.4c-1.4,0.5-2.6,1.4-3.6,2.5c-0.8,0.8-1.7,1.7-2.3,1.7
		s-1.5-1-2.3-1.7c-1-1.1-2.2-2-3.6-2.5c-0.4-0.1-0.9-0.2-1.3-0.2c-1.1,0.1-2.2,0.2-3.2,0.6c-1,0.3-2.3,0.6-2.7,0.3s-0.8-1.6-1.1-2.6
		c-0.3-1.5-0.9-2.9-1.9-4c-1.2-1-2.6-1.6-4-1.9c-1-0.3-2.3-0.6-2.6-1.1c-0.3-0.5,0.1-1.8,0.3-2.7
		C-178.8,408.2-178.7,406.6-179,405.1z M-156,436.3c-0.6-0.4-1.4-0.4-1.9,0l-7.9,5.2v-16.7c0.6-0.2,1.3-0.3,2-0.2
		c0.8,0.4,1.5,1,2,1.6c1.2,1.5,2.9,2.5,4.8,2.8c1.9-0.2,3.6-1.2,4.8-2.8c0.6-0.7,1.2-1.2,2-1.6c0.7-0.1,1.3,0,2,0.2v16.6L-156,436.3
		z M-108,427.2c0,1-0.8,1.7-1.7,1.7h-35v-3.4c0.9,0.1,1.8-0.1,2.6-0.5c1.5-1.1,2.5-2.8,2.7-4.7c0.2-0.9,0.5-1.7,1-2.5
		c0.8-0.5,1.6-0.8,2.5-1c1.9-0.2,3.6-1.2,4.7-2.7c0.7-1.7,0.7-3.7,0-5.4c-0.3-0.9-0.4-1.8-0.4-2.7c0.4-0.8,1-1.5,1.6-2
		c1.5-1.2,2.5-2.9,2.7-4.8c-0.2-1.9-1.2-3.6-2.8-4.8c-0.7-0.6-1.2-1.2-1.6-2c0-0.9,0.1-1.8,0.4-2.7c0.7-1.7,0.7-3.7,0-5.4
		c-1.1-1.5-2.8-2.5-4.7-2.7c-0.9-0.2-1.7-0.5-2.5-1c-0.5-0.8-0.8-1.6-1-2.5c-0.2-1.9-1.2-3.6-2.7-4.7c-1.7-0.7-3.7-0.7-5.4,0
		c-0.9,0.3-1.8,0.4-2.7,0.4c-0.8-0.4-1.5-1-2-1.6c-1.2-1.5-2.9-2.5-4.8-2.7c-1.9,0.2-3.6,1.2-4.8,2.8c-0.6,0.7-1.2,1.2-2,1.6
		c-0.9,0-1.8-0.1-2.7-0.4c-1.7-0.7-3.7-0.7-5.4,0c-1.5,1.1-2.5,2.8-2.7,4.7c-0.2,0.9-0.5,1.7-1,2.5c-0.8,0.5-1.6,0.8-2.5,1
		c-1.9,0.2-3.6,1.2-4.7,2.7c-0.7,1.7-0.7,3.7,0,5.4c0.3,0.9,0.4,1.8,0.4,2.7c-0.4,0.8-1,1.5-1.6,2c-1.5,1.2-2.5,2.9-2.8,4.8
		c0.2,1.9,1.2,3.6,2.8,4.8c0.7,0.6,1.2,1.2,1.6,2c0,0.9-0.1,1.8-0.4,2.7c-0.7,1.7-0.7,3.7,0,5.4c1.1,1.5,2.8,2.5,4.7,2.7
		c0.9,0.2,1.7,0.5,2.5,1c0.5,0.8,0.8,1.6,1,2.5c0.2,1.9,1.2,3.6,2.7,4.7c0.8,0.4,1.7,0.6,2.6,0.5v3.4h-35c-1,0-1.7-0.8-1.7-1.7
		v-64.7h97.9L-108,427.2z M-206,359v-12.2c0-1,0.8-1.7,1.7-1.7h94.4c1,0,1.7,0.8,1.7,1.7V359H-206z"/>
	<path fill="#FFFFFF" d="M-116.8,346.8h-49c-2.9,0-5.2,2.4-5.2,5.3c0,2.9,2.3,5.2,5.2,5.2h49c2.9,0,5.2-2.4,5.2-5.3
		C-111.6,349.1-113.9,346.8-116.8,346.8z M-116.8,353.8h-49c-1,0-1.7-0.8-1.7-1.8c0-1,0.8-1.7,1.7-1.7h49c1,0,1.8,0.8,1.8,1.7
		C-115,353-115.8,353.8-116.8,353.8C-116.8,353.8-116.8,353.8-116.8,353.8z"/>
	<circle fill="#FFFFFF" cx="-199" cy="352" r="3.5"/>
	<circle fill="#FFFFFF" cx="-188.5" cy="352" r="3.5"/>
	<circle fill="#FFFFFF" cx="-178" cy="352" r="3.5"/>
	<path fill="#FFFFFF" d="M-122,399.2c0,1,0.8,1.7,1.7,1.7l0,0h7c1,0,1.7-0.8,1.7-1.7c0-1-0.8-1.7-1.7-1.7h-7
		C-121.3,397.5-122,398.3-122,399.2z"/>
	<path fill="#FFFFFF" d="M-124.3,386.1c0.3,0,0.6-0.1,0.9-0.2l6.1-3.5c0.8-0.5,1.1-1.6,0.6-2.4c-0.5-0.8-1.5-1.1-2.4-0.6l-6.1,3.5
		c-0.8,0.5-1.1,1.6-0.6,2.4C-125.5,385.8-124.9,386.1-124.3,386.1z"/>
	<path fill="#FFFFFF" d="M-125.1,415.6l6.1,3.5c0.8,0.5,1.9,0.2,2.4-0.7c0.5-0.8,0.2-1.9-0.6-2.4l-6.1-3.5c-0.8-0.5-1.9-0.2-2.4,0.6
		C-126.3,414-126,415.1-125.1,415.6L-125.1,415.6L-125.1,415.6z"/>
	<path fill="#FFFFFF" d="M-200.7,401h7c1,0,1.7-0.8,1.7-1.7c0-1-0.8-1.7-1.7-1.7h-7c-1,0-1.7,0.8-1.7,1.7
		C-202.5,400.2-201.7,401-200.7,401L-200.7,401z"/>
	<path fill="#FFFFFF" d="M-196.7,382.4l6.1,3.5c0.8,0.5,1.9,0.2,2.4-0.6c0.5-0.8,0.2-1.9-0.6-2.4c0,0,0,0,0,0l0,0l-6.1-3.5
		c-0.8-0.5-1.9-0.2-2.4,0.6C-197.8,380.8-197.5,381.9-196.7,382.4L-196.7,382.4L-196.7,382.4z"/>
	<path fill="#FFFFFF" d="M-190.6,412.6l-6.1,3.5c-0.8,0.5-1.1,1.5-0.7,2.4s1.5,1.1,2.4,0.7c0,0,0,0,0,0l0,0l6.1-3.5
		c0.8-0.5,1.1-1.5,0.7-2.4S-189.7,412.1-190.6,412.6C-190.6,412.6-190.6,412.6-190.6,412.6L-190.6,412.6z"/>
	<path fill="#FFFFFF" d="M-157,418.5c10.6,0,19.2-8.6,19.2-19.2c0-10.6-8.6-19.2-19.2-19.2c-10.6,0-19.2,8.6-19.2,19.2
		C-176.2,409.9-167.6,418.5-157,418.5z M-157,383.5c8.7,0,15.7,7,15.7,15.7c0,8.7-7,15.7-15.7,15.7s-15.7-7-15.7-15.7l0,0
		C-172.7,390.6-165.7,383.5-157,383.5z"/>
	<path fill="#FFFFFF" d="M-161.3,395.5l2.5-1.7V408c0,1,0.8,1.7,1.7,1.7s1.7-0.8,1.7-1.7v-17.5c0-1-0.8-1.7-1.7-1.7
		c-0.3,0-0.7,0.1-1,0.3l-5.2,3.5c-0.8,0.5-1,1.6-0.5,2.4S-162.1,396-161.3,395.5z"/>
</g>
</svg>
