<svg xmlns="http://www.w3.org/2000/svg" width="150" height="150" viewBox="0 0 150 150"><defs><style>.cls-1{fill:#fff;}</style></defs><title>Improved Rankings</title><g id="Improved_Rankings" data-name="Improved Rankings"><path class="cls-1" d="M21.4668,134.70866h78.78266a5.90928,5.90928,0,0,0,5.90908-5.90908V105.16505a5.90985,5.90985,0,0,0-5.90908-5.90908H21.4668a5.90929,5.90929,0,0,0-5.90909,5.90908v23.63453A5.90871,5.90871,0,0,0,21.4668,134.70866Zm-1.97-29.54361a1.97028,1.97028,0,0,1,1.97-1.97h78.78266a1.97008,1.97008,0,0,1,1.96909,1.97v23.63453a1.9695,1.9695,0,0,1-1.96909,1.97H21.4668a1.96969,1.96969,0,0,1-1.97-1.97Z"/><path class="cls-1" d="M21.4668,93.34778h78.78266a5.90928,5.90928,0,0,0,5.90908-5.90908V63.80417a5.90928,5.90928,0,0,0-5.90908-5.90908H21.4668a5.90871,5.90871,0,0,0-5.90909,5.90908V87.4387A5.90871,5.90871,0,0,0,21.4668,93.34778Zm-1.97-29.54361a1.96969,1.96969,0,0,1,1.97-1.97h78.78266a1.9695,1.9695,0,0,1,1.96909,1.97V87.4387a1.96951,1.96951,0,0,1-1.96909,1.97H21.4668a1.9697,1.9697,0,0,1-1.97-1.97Z"/><path class="cls-1" d="M127.82308,16.53421H49.04041a5.90929,5.90929,0,0,0-5.90908,5.90909V46.07782a5.90986,5.90986,0,0,0,5.90908,5.90909h78.78267a5.90929,5.90929,0,0,0,5.90908-5.90909V22.4433A5.90871,5.90871,0,0,0,127.82308,16.53421Zm1.97,29.54361a1.97027,1.97027,0,0,1-1.97,1.97H49.04041a1.97008,1.97008,0,0,1-1.96909-1.97V22.4433a1.9695,1.9695,0,0,1,1.96909-1.97h78.78267a1.96969,1.96969,0,0,1,1.97,1.97Z"/><path class="cls-1" d="M119.9449,83.49961a1.96951,1.96951,0,0,0,1.97-1.96909V64.61922l.577.577a1.96962,1.96962,0,0,0,2.785-2.785l-3.93909-3.93909a1.97683,1.97683,0,0,0-2.78955,0l-3.93908,3.93909a1.96962,1.96962,0,0,0,2.785,2.785l.58153-.577v16.9113A1.96931,1.96931,0,0,0,119.9449,83.49961Z"/><path class="cls-1" d="M29.345,42.13874a1.96951,1.96951,0,0,0,1.9691-1.97V23.25834l.577.577a1.96962,1.96962,0,0,0,2.785-2.785L30.737,17.11124a1.97491,1.97491,0,0,0-2.78684.0018l-3.93909,3.93909A1.96961,1.96961,0,0,0,26.798,23.83536l.577-.577v16.9104A1.9697,1.9697,0,0,0,29.345,42.13874Z"/><path class="cls-1" d="M98.70682,30.47835l-5.61065-1.24781-3.1006-4.04638a2.0395,2.0395,0,0,0-3.12765,0l-3.0997,4.04638-5.61155,1.24781a1.96987,1.96987,0,0,0-.98455,3.29174l3.51353,3.62984-.30293,4.609a1.96865,1.96865,0,0,0,2.57587,2.00245l5.47361-1.78607,5.47541,1.78607a1.96936,1.96936,0,0,0,2.57587-2.00245l-.30294-4.609,3.51354-3.62984a1.96988,1.96988,0,0,0-.98455-3.29174Zm-5.96588,4.80823a1.96763,1.96763,0,0,0-.55088,1.50116l.17131,2.57587-3.31879-1.081a1.97482,1.97482,0,0,0-1.22077,0l-3.31878,1.081.1713-2.57587a1.97172,1.97172,0,0,0-.55178-1.50116l-1.67427-1.72746,2.8734-.64014a1.963,1.963,0,0,0,1.14052-.72489l1.97-2.57406,1.96909,2.57406a1.9688,1.9688,0,0,0,1.13692.72489l2.87339.64014Z"/><path class="cls-1" d="M74.64494,24.41239H52.9795a1.96955,1.96955,0,0,0,0,3.93909H74.64494a1.96955,1.96955,0,1,0,0-3.93909Z"/><path class="cls-1" d="M74.64494,40.16874H52.9795a1.96955,1.96955,0,0,0,0,3.93909H74.64494a1.96955,1.96955,0,1,0,0-3.93909Z"/><path class="cls-1" d="M52.9795,36.22965H68.73585a1.96954,1.96954,0,1,0,0-3.93908H52.9795a1.96954,1.96954,0,0,0,0,3.93908Z"/><path class="cls-1" d="M123.884,24.41239H102.21855a1.96955,1.96955,0,0,0,0,3.93909H123.884a1.96955,1.96955,0,1,0,0-3.93909Z"/><path class="cls-1" d="M123.884,40.16874H102.21855a1.96955,1.96955,0,0,0,0,3.93909H123.884a1.96955,1.96955,0,1,0,0-3.93909Z"/><path class="cls-1" d="M123.884,32.29057H108.12764a1.96954,1.96954,0,0,0,0,3.93908H123.884a1.96954,1.96954,0,1,0,0-3.93908Z"/><path class="cls-1" d="M27.375,85.46961H39.19224a3.939,3.939,0,0,0,3.93909-3.93909V69.71235a3.939,3.939,0,0,0-3.93909-3.93908H27.375a3.939,3.939,0,0,0-3.93909,3.93908V81.53052A3.939,3.939,0,0,0,27.375,85.46961Zm0-15.75726H39.19224V81.53052H27.375Z"/><path class="cls-1" d="M27.375,118.95231H62.82767a3.939,3.939,0,0,0,3.93909-3.93909v-3.93909a3.939,3.939,0,0,0-3.93909-3.93909H27.375a3.939,3.939,0,0,0-3.93909,3.93909v3.93909A3.939,3.939,0,0,0,27.375,118.95231Zm0-7.87818H62.82767v3.93909H27.375Z"/><path class="cls-1" d="M74.64494,118.95231H94.34038a3.939,3.939,0,0,0,3.93909-3.93909v-3.93909a3.939,3.939,0,0,0-3.93909-3.93909H74.64494a3.939,3.939,0,0,0-3.93909,3.93909v3.93909A3.939,3.939,0,0,0,74.64494,118.95231Zm0-7.87818H94.34038v3.93909H74.64494Z"/><path class="cls-1" d="M49.04041,69.71235h47.27a1.96954,1.96954,0,0,0,0-3.93908h-47.27a1.96954,1.96954,0,0,0,0,3.93908Z"/><path class="cls-1" d="M49.04041,77.59143h47.27a1.97,1.97,0,0,0,0-3.94h-47.27a1.97,1.97,0,0,0,0,3.94Z"/><path class="cls-1" d="M49.04041,85.46961h47.27a1.96955,1.96955,0,0,0,0-3.93909h-47.27a1.96955,1.96955,0,0,0,0,3.93909Z"/><path class="cls-1" d="M25.40588,126.83049H64.79677a1.96955,1.96955,0,1,0,0-3.93909H25.40588a1.96955,1.96955,0,1,0,0,3.93909Z"/><path class="cls-1" d="M72.67494,126.83049H96.31037a1.96955,1.96955,0,0,0,0-3.93909H72.67494a1.96955,1.96955,0,0,0,0,3.93909Z"/></g></svg>