<svg xmlns="http://www.w3.org/2000/svg" width="150" height="150" viewBox="0 0 150 150"><defs><style>.cls-1{fill:#fff;}</style></defs><title>Increasing Sales</title><g id="Increasing_Sales" data-name="Increasing Sales"><path class="cls-1" d="M131.99946,130.80274H120.59209V61.065a1.76408,1.76408,0,0,0-1.76411-1.7641H100.01185a1.76408,1.76408,0,0,0-1.7641,1.7641v69.73771H84.84129V81.76286a1.76408,1.76408,0,0,0-1.76411-1.7641H64.26105a1.76408,1.76408,0,0,0-1.7641,1.7641v49.03988H49.09049V91.17093a1.76408,1.76408,0,0,0-1.7641-1.76411H28.51027a1.76407,1.76407,0,0,0-1.7641,1.76411V130.8025H15.33879a1.76411,1.76411,0,0,0,0,3.52821H131.99947a1.764,1.764,0,1,0,0-3.528Zm-86.43716,0H30.27413V92.935H45.5623v37.86771Zm35.751,0H66.02516V83.527H81.31332Zm35.7508,0H101.776V62.82913h15.28817v67.97361Z"/><path class="cls-1" d="M128.13159,15.52565a5.52464,5.52464,0,0,0-4.34418-1.34086L108.73446,16.0665a5.52712,5.52712,0,0,0,1.37114,10.96887l1.22818-.15328a133.41652,133.41652,0,0,1-55.9606,38.05668c-19.35252,6.93785-34.41533,7.53129-34.562,7.53622a5.52723,5.52723,0,0,0,.17066,11.05175c.05587,0,.112-.00071.16948-.00258.66973-.02019,16.63724-.584,37.67382-8.07988A148.24386,148.24386,0,0,0,91.89886,58.81736a1.76407,1.76407,0,0,0-1.97161-2.92584A144.68717,144.68717,0,0,1,57.64081,72.121C37.12114,79.43257,21.691,79.97812,21.04565,79.9976l-.06385.00093a1.9992,1.9992,0,0,1-.05963-3.99745c.154-.00493,15.64662-.57347,35.64164-7.74138,16.75109-6.005,40.82032-18.26636,60.35876-42.57738a1.77852,1.77852,0,0,0-1.59344-2.85543l-5.66015.70752a1.99929,1.99929,0,1,1-.49648-3.96764l15.05342-1.88171a2.01931,2.01931,0,0,1,2.24673,1.98382v15.053a1.99931,1.99931,0,0,1-3.99862,0V30.15841a1.7643,1.7643,0,0,0-3.13078-1.1155A136.3899,136.3899,0,0,1,97.04539,50.75554a1.76415,1.76415,0,0,0,2.15566,2.79322,139.80991,139.80991,0,0,0,19.75064-18.57787,5.52738,5.52738,0,0,0,11.04917-.24859V19.66935A5.53111,5.53111,0,0,0,128.13159,15.52565Z"/></g></svg>