<?xml version="1.0" encoding="utf-8"?>
<!-- Generator: Adobe Illustrator 18.1.1, SVG Export Plug-In . SVG Version: 6.00 Build 0)  -->
<svg version="1.1" id="Internationalize_Your_Business"
	 xmlns="http://www.w3.org/2000/svg" xmlns:xlink="http://www.w3.org/1999/xlink" x="0px" y="0px" viewBox="-230 322 150 150"
	 enable-background="new -230 322 150 150" xml:space="preserve">
<title>Internationalize Your Business</title>
<path fill="#E60030" d="M-99.3,428.7v-6.4c0-9.8-7.9-17.7-17.7-17.7c0,0,0,0,0,0h-1.7c-4.6,0-9.1,1.8-12.4,5.1
	c1.4-3.4,2.1-7,2.1-10.6c0-0.9-0.1-1.9-0.1-2.8l11.2-11.2c1.1,0.7,2.4,1,3.7,1c4.1,0,7.4-3.3,7.4-7.4c0-4.1-3.3-7.4-7.4-7.4
	c-4.1,0-7.4,3.3-7.4,7.4c0,0,0,0,0,0c0,1.3,0.4,2.6,1,3.7l-9.4,9.4c-1.1-4.1-3.1-7.9-5.9-11.1l15.3-15.3c5,3.6,12,2.4,15.5-2.6
	s2.4-12-2.6-15.5c-5-3.6-12-2.4-15.5,2.6c-2.7,3.9-2.7,9,0,12.9l-15.3,15.3c-3.2-2.8-7-4.8-11.1-5.9l9.4-9.4c1.1,0.7,2.4,1,3.7,1
	c4.1,0,7.4-3.3,7.4-7.4c0-4.1-3.3-7.4-7.4-7.4c-4.1,0-7.4,3.3-7.4,7.4l0,0c0,1.3,0.4,2.6,1,3.7l-11.2,11.2c-0.9-0.1-1.9-0.1-2.8-0.1
	c-9.1,0-17.6,4.4-22.7,11.8c-2.3-3.9-6.2-6.7-10.6-7.8v-1.8c3.2-1.8,5.3-5.2,5.5-8.8c2.4-2.6,3.7-6,3.7-9.6c0-3.1-1-6.1-2.9-8.6
	c-2.3-3-5.8-4.8-9.6-4.8c-3.2,0-6.2,1.3-8.5,3.5l-0.2,0.2h-0.3c-4.5,0-8.2,3.7-8.2,8.2v1.4c0,3.6,1.3,7,3.7,9.7
	c0.3,3.7,2.3,7,5.5,8.9v1.8c-7.6,1.8-12.9,8.6-13,16.4v1.9h30.2c-0.4,1.8-0.6,3.7-0.6,5.6c0,0.9,0,1.9,0.1,2.8l-11.2,11.2
	c-1.1-0.7-2.4-1-3.7-1c-4.1,0-7.4,3.3-7.4,7.4s3.3,7.4,7.4,7.4c4.1,0,7.4-3.3,7.4-7.4l0,0c0-1.3-0.4-2.6-1-3.7l9.4-9.4
	c1.1,4.1,3.1,7.9,5.9,11.1l-15.3,15.3c-5-3.6-12-2.4-15.5,2.6c-3.6,5-2.4,12,2.6,15.5c5,3.6,12,2.4,15.5-2.6c2.7-3.9,2.7-9,0-12.9
	L-175,420c3.2,2.8,7,4.8,11.1,5.9l-9.4,9.4c-1.1-0.7-2.4-1-3.7-1c-4.1,0-7.4,3.3-7.4,7.4s3.3,7.4,7.4,7.4c4.1,0,7.4-3.3,7.4-7.4l0,0
	c0-1.3-0.4-2.6-1-3.7l11.2-11.2c0.9,0.1,1.9,0.1,2.8,0.1c8.2,0,15.9-3.6,21.2-9.8c-0.5,1.7-0.8,3.5-0.8,5.3v6.4
	c0,5.1,1.9,10,5.3,13.7c-3.4,3.2-5.3,7.6-5.3,12.2v1.9h37v-1.9c0-4.6-1.9-9-5.3-12.2C-101.2,438.7-99.3,433.8-99.3,428.7
	L-99.3,428.7z M-114.1,375c2,0,3.7,1.7,3.7,3.7c0,2-1.7,3.7-3.7,3.7c-2,0-3.7-1.7-3.7-3.7c0,0,0,0,0,0
	C-117.8,376.7-116.2,375-114.1,375z M-136.4,352.8c2,0,3.7,1.7,3.7,3.7s-1.7,3.7-3.7,3.7c-2,0-3.7-1.7-3.7-3.7l0,0
	C-140.1,354.5-138.4,352.8-136.4,352.8L-136.4,352.8z M-199.3,423.2c-2,0-3.7-1.7-3.7-3.7c0-2,1.7-3.7,3.7-3.7c2,0,3.7,1.7,3.7,3.7
	l0,0C-195.6,421.5-197.3,423.2-199.3,423.2z M-177.1,445.4c-2,0-3.7-1.7-3.7-3.7c0-2,1.7-3.7,3.7-3.7c2,0,3.7,1.7,3.7,3.7l0,0
	C-173.4,443.8-175.1,445.4-177.1,445.4L-177.1,445.4z M-134.5,408.4h-10.3c1.5-6.1,1.5-12.4,0-18.5h10.3
	C-132,395.8-132,402.5-134.5,408.4z M-166,399.1c0-3.1,0.4-6.2,1.2-9.3h16.1c1.6,6.1,1.6,12.4,0,18.5h-16.1
	C-165.6,405.4-166,402.2-166,399.1z M-114.1,349.1c4.1,0,7.4,3.3,7.4,7.4c0,4.1-3.3,7.4-7.4,7.4c-4.1,0-7.4-3.3-7.4-7.4c0,0,0,0,0,0
	C-121.5,352.4-118.2,349.1-114.1,349.1L-114.1,349.1z M-136.5,386.2h-9.4c-1-3-2.4-5.9-4-8.6l-1.2-1.9
	C-145.1,377.2-139.8,380.9-136.5,386.2z M-155.9,375.1l2.8,4.5c1.3,2.1,2.4,4.3,3.2,6.6h-13.8c0.9-2.3,1.9-4.5,3.2-6.6l2.8-4.5
	c0.3,0,0.6,0,0.8,0C-156.4,375-156.2,375.1-155.9,375.1z M-162.3,375.7l-1.2,1.9c-1.7,2.7-3,5.6-4,8.6h-9.5
	C-173.7,380.9-168.4,377.2-162.3,375.7z M-180.9,389.9h-9.4l-1.5-9l0.9-1.9C-185.7,380.3-181.7,384.5-180.9,389.9z M-204,355.7
	c-1,0.6-1.7,1.5-2.2,2.6c-0.3-1.1-0.5-2.2-0.5-3.3v-1.4c0-2.5,2-4.5,4.5-4.5c0,0,0,0,0,0h1.9l1.3-1.3c1.5-1.6,3.7-2.4,5.9-2.4
	c2.6,0,5.1,1.3,6.7,3.4c1.4,1.8,2.1,4,2.1,6.3c0,1.2-0.2,2.3-0.6,3.4c-0.7-1.3-1.8-2.3-3.2-2.7l-3.3-1.1c-2.4-0.8-4-3-4-5.6h-3.7
	c0,1.2,0.2,2.3,0.6,3.4L-204,355.7z M-203,360.5c0-0.7,0.3-1.3,0.9-1.6l5.4-3.2c1.1,1.2,2.4,2,4,2.5l3.3,1.1c0.8,0.3,1.3,1,1.3,1.8
	v2.9c0,4.1-3.3,7.4-7.4,7.4c-4.1,0-7.4-3.3-7.4-7.4L-203,360.5z M-195.6,375c0.6,0,1.2-0.1,1.9-0.2v1.6l-1.1,2.3h-1.4l-1.1-2.3v-1.6
	C-196.9,375-196.2,375-195.6,375z M-200.3,379l0.9,1.9l-1.5,9h-9.4C-209.5,384.6-205.5,380.3-200.3,379z M-197.1,389.9l1.2-7.4h0.6
	l1.2,7.4L-197.1,389.9L-197.1,389.9z M-180.1,393.6h3v-1.9c0-0.6,0-1.2-0.1-1.9h8.6c-1.5,6.1-1.5,12.4,0,18.5h-10.3
	C-180.9,403.7-181.3,398.5-180.1,393.6z M-199.3,449.1c-4.1,0-7.4-3.3-7.4-7.4c0-4.1,3.3-7.4,7.4-7.4c4.1,0,7.4,3.3,7.4,7.4l0,0
	C-191.9,445.8-195.2,449.1-199.3,449.1z M-177,412.1h9.4c1,3,2.4,5.9,4,8.6l1.2,1.9C-168.4,421-173.6,417.3-177,412.1z
	 M-157.6,423.1l-2.8-4.5c-1.3-2.1-2.4-4.3-3.2-6.6h13.8c-0.9,2.3-1.9,4.5-3.2,6.6l-2.8,4.5c-0.3,0-0.6,0-0.9,0
	C-157,423.2-157.3,423.2-157.6,423.1z M-151.1,422.5l1.2-1.9c1.7-2.7,3-5.6,4-8.6h9.4C-139.8,417.3-145.1,421-151.1,422.5z
	 M-103.2,452.8h-29.4c0.7-4.5,3.7-8.4,7.9-10.2l0.4,1.5c0.9,3.5,4.5,5.7,8,4.8c2.4-0.6,4.2-2.4,4.8-4.8l0.4-1.5
	C-106.8,444.4-103.8,448.3-103.2,452.8L-103.2,452.8z M-117.8,434.3c-4.1,0-7.4-3.3-7.4-7.4v-3.5c0-0.6,0.3-1.3,0.9-1.6l6.5-3.9
	l6.5,3.9c0.6,0.3,0.9,0.9,0.9,1.6v3.5C-110.4,431-113.8,434.3-117.8,434.3L-117.8,434.3z M-117.8,438c0.6,0,1.2-0.1,1.9-0.2v2
	l0.1,1.6l1.2,0.2l-0.4,1.6c-0.4,1.5-2,2.5-3.5,2.1c-1-0.3-1.8-1.1-2.1-2.1l-0.4-1.6l1.3-0.2v-3.6C-119.1,437.9-118.5,438-117.8,438
	L-117.8,438z M-112.3,438.3v-1.8c3.4-2,5.6-5.6,5.6-9.6v-3.5c0-2-1-3.8-2.7-4.8l-8.4-5l-8.4,5c-1.7,1-2.7,2.8-2.7,4.8v3.5
	c0,4,2.1,7.6,5.6,9.6v1.8c-1.6,0.4-3.2,1-4.7,1.9c-2.9-3.1-4.6-7.2-4.6-11.5v-6.4c0-7.7,6.2-14,14-14c0,0,0,0,0,0h1.7
	c7.7,0,14,6.2,14,13.9c0,0,0,0,0,0v6.4c0,4.3-1.7,8.4-4.6,11.5C-109.1,439.4-110.7,438.7-112.3,438.3L-112.3,438.3z"/>
</svg>
