<svg xmlns="http://www.w3.org/2000/svg" width="150" height="150" viewBox="0 0 150 150"><defs><style>.cls-1{fill:#fff;}</style></defs><title>Keyword Analysis</title><g id="Keyword_Analysis" data-name="Keyword Analysis"><path class="cls-1" d="M100.71848,133.66929H26.71192a9.55281,9.55281,0,0,1-9.45144-9.62977v-4.45823a1.68481,1.68481,0,0,1,1.78329-1.78329H93.22865a1.78329,1.78329,0,0,1,0,3.56658H20.82706v2.67494a5.9766,5.9766,0,0,0,5.88486,6.06319h74.00656a1.78329,1.78329,0,0,1,0,3.56658Z"/><path class="cls-1" d="M108.38662,46.46639a1.68481,1.68481,0,0,1-1.78329-1.78329v-12.483a1.78329,1.78329,0,0,1,3.56658,0v12.483A1.68481,1.68481,0,0,1,108.38662,46.46639Z"/><path class="cls-1" d="M100.71848,133.66929h-.35666a9.28791,9.28791,0,0,1-9.09478-9.27311v-3.0316H30.10018a1.6848,1.6848,0,0,1-1.78329-1.78329V32.20006a12.55833,12.55833,0,0,1,12.483-12.66136h78.28645a1.78329,1.78329,0,0,1,0,3.56658H40.79992a8.98167,8.98167,0,0,0-8.91645,9.09478V117.798H93.05033a1.68481,1.68481,0,0,1,1.78329,1.78329v4.81489a5.71217,5.71217,0,0,0,5.5282,5.70653h.35666a6.18292,6.18292,0,0,0,5.88485-6.41984v-3.38826a1.78329,1.78329,0,0,1,3.56658,0v3.38826A9.75328,9.75328,0,0,1,100.71848,133.66929Z"/><path class="cls-1" d="M129.60778,33.98336H108.565a1.68481,1.68481,0,0,1-1.78329-1.7833,12.29976,12.29976,0,0,1,12.3047-12.66136,12.52351,12.52351,0,0,1,12.30471,12.66136,1.68481,1.68481,0,0,1-1.78329,1.7833Zm-19.08121-3.56659h17.1196a8.79114,8.79114,0,0,0-8.5598-7.31149,8.62732,8.62732,0,0,0-8.55979,7.31149Z"/><path class="cls-1" d="M101.25346,37.37161h-12.483a1.78329,1.78329,0,1,1,0-3.56658h12.483a1.78329,1.78329,0,0,1,0,3.56658Z"/><path class="cls-1" d="M76.644,37.37161H37.41166a1.78329,1.78329,0,0,1,0-3.56658H76.644a1.78329,1.78329,0,1,1,0,3.56658Z"/><path class="cls-1" d="M53.99627,49.14132H37.41167a1.78329,1.78329,0,0,1,0-3.56658h16.5846a1.78329,1.78329,0,0,1,0,3.56658Z"/><path class="cls-1" d="M46.14979,61.08937H37.41166a1.78329,1.78329,0,0,1,0-3.56658h8.73813a1.78329,1.78329,0,0,1,0,3.56658Z"/><path class="cls-1" d="M42.93987,72.85909H37.41166a1.7833,1.7833,0,0,1,0-3.56659h5.52821a1.7833,1.7833,0,0,1,0,3.56659Z"/><path class="cls-1" d="M43.65318,84.6288H37.41167a1.78329,1.78329,0,0,1,0-3.56658h6.24151a1.78329,1.78329,0,0,1,0,3.56658Z"/><path class="cls-1" d="M47.93308,96.39852H37.41167a1.78329,1.78329,0,1,1,0-3.56658H47.93308a1.78329,1.78329,0,1,1,0,3.56658Z"/><path class="cls-1" d="M58.09783,108.16824H37.41166a1.78329,1.78329,0,0,1,0-3.56658H58.09783a1.78329,1.78329,0,0,1,0,3.56658Z"/><path class="cls-1" d="M126.39786,127.07112a8.49211,8.49211,0,0,1-6.06319-2.49661l-15.87128-15.87129a1.76537,1.76537,0,1,1,2.49661-2.4966l15.87129,15.87128a5.30178,5.30178,0,0,0,3.56658,1.42663,5.04508,5.04508,0,0,0,3.56658-1.605,4.84529,4.84529,0,0,0,0-6.95484L114.09316,99.07345a1.76537,1.76537,0,1,1,2.49661-2.49661l15.87129,15.87129a8.50388,8.50388,0,0,1,0,12.12638,9.503,9.503,0,0,1-6.06319,2.49661Z"/><path class="cls-1" d="M82.70724,109.59487A34.50679,34.50679,0,1,1,117.12475,74.999,34.62859,34.62859,0,0,1,82.70724,109.59487Zm0-65.44676A30.94022,30.94022,0,1,0,113.55817,74.999,31.0142,31.0142,0,0,0,82.70724,44.14811Z"/><path class="cls-1" d="M84.3122,80.70556H79.319a1.78329,1.78329,0,1,1,0-3.56658h4.63655l2.13995-1.605a2.95582,2.95582,0,0,1,3.74491,0l1.42663,1.07,1.24831-1.07a2.9558,2.9558,0,0,1,3.7449,0l1.42663,1.07,1.24831-1.07a2.95582,2.95582,0,0,1,3.74491,0l.17832.17833,1.07.89165.89165-1.07-1.42663-1.605H79.67564a1.78329,1.78329,0,0,1,0-3.56658h23.89609a3.29019,3.29019,0,0,1,2.13995.89165l1.96162,2.13995a2.93678,2.93678,0,0,1,.17832,3.7449l-.17832.17833-1.605,1.78329a3.51922,3.51922,0,0,1-4.10156.535l-.17833-.17832-1.07-.89165-1.24831,1.07a2.95578,2.95578,0,0,1-3.7449,0l-1.42663-1.07-1.24831,1.07a2.95579,2.95579,0,0,1-3.74491,0l-1.42663-1.07-1.78329,1.24831A1.88953,1.88953,0,0,1,84.3122,80.70556Z"/><path class="cls-1" d="M69.33257,87.48207a12.483,12.483,0,1,1,12.483-12.483A12.40621,12.40621,0,0,1,69.33257,87.48207Zm0-21.39949A8.91645,8.91645,0,1,0,78.249,74.999,8.82984,8.82984,0,0,0,69.33257,66.08258Z"/><path class="cls-1" d="M66.65763,79.45726A4.45823,4.45823,0,1,1,71.11586,74.999,4.41492,4.41492,0,0,1,66.65763,79.45726Zm0-5.34987a.89165.89165,0,1,0,.89165.89164A1.14537,1.14537,0,0,0,66.65763,74.10739Z"/></g></svg>