<?xml version="1.0" encoding="utf-8"?>
<!-- Generator: Adobe Illustrator 18.1.1, SVG Export Plug-In . SVG Version: 6.00 Build 0)  -->
<svg version="1.1" id="Layer_1" xmlns="http://www.w3.org/2000/svg" xmlns:xlink="http://www.w3.org/1999/xlink" x="0px" y="0px"
	 viewBox="-230 322 150 150" enable-background="new -230 322 150 150" xml:space="preserve">
<title>Keyword Analysis</title>
<g id="Keyword_Analysis">
	<path fill="#E20031" d="M-129.3,455.7h-74c-5.3-0.1-9.5-4.4-9.5-9.6v-4.5c-0.1-0.9,0.7-1.7,1.6-1.8c0.1,0,0.1,0,0.2,0h74.2
		c1,0,1.8,0.8,1.8,1.8c0,1-0.8,1.8-1.8,1.8h-72.4v2.7c0,3.3,2.6,6,5.9,6.1h74c1,0,1.8,0.8,1.8,1.8
		C-127.5,454.9-128.3,455.7-129.3,455.7z"/>
	<path fill="#E20031" d="M-121.6,368.5c-0.9,0.1-1.7-0.7-1.8-1.6c0-0.1,0-0.1,0-0.2v-12.5c0-1,0.8-1.8,1.8-1.8c1,0,1.8,0.8,1.8,1.8
		v12.5c0.1,0.9-0.7,1.7-1.6,1.8C-121.5,368.5-121.5,368.5-121.6,368.5z"/>
	<path fill="#E20031" d="M-129.3,455.7h-0.4c-5-0.1-9.1-4.2-9.1-9.3v-3h-61.2c-0.9,0.1-1.7-0.7-1.8-1.6c0-0.1,0-0.1,0-0.2v-87.4
		c-0.1-6.9,5.5-12.6,12.5-12.7c0,0,0,0,0,0h78.3c1,0,1.8,0.8,1.8,1.8c0,1-0.8,1.8-1.8,1.8h-78.3c-5,0-9,4.1-8.9,9c0,0,0,0,0,0v85.6
		h61.2c0.9-0.1,1.7,0.7,1.8,1.6c0,0.1,0,0.1,0,0.2v4.8c0,3.1,2.4,5.6,5.5,5.7h0.4c3.4-0.2,6-3,5.9-6.4v-3.4c0-1,0.8-1.8,1.8-1.8
		c1,0,1.8,0.8,1.8,1.8v3.4C-119.7,451-123.9,455.5-129.3,455.7z"/>
	<path fill="#E20031" d="M-100.4,356h-21c-0.9,0.1-1.7-0.7-1.8-1.6c0-0.1,0-0.1,0-0.2c-0.2-6.8,5.1-12.5,11.9-12.7
		c0.1,0,0.2,0,0.4,0c6.9,0.1,12.4,5.8,12.3,12.7c0.1,0.9-0.7,1.7-1.6,1.8C-100.3,356-100.3,356-100.4,356L-100.4,356z M-119.5,352.4
		h17.1c-0.7-4.2-4.3-7.3-8.6-7.3C-115.2,345.1-118.8,348.2-119.5,352.4z"/>
	<path fill="#E20031" d="M-128.7,359.4h-12.5c-1,0-1.8-0.8-1.8-1.8s0.8-1.8,1.8-1.8h12.5c1,0,1.8,0.8,1.8,1.8
		S-127.8,359.4-128.7,359.4z"/>
	<path fill="#E20031" d="M-153.4,359.4h-39.2c-1,0-1.8-0.8-1.8-1.8s0.8-1.8,1.8-1.8h39.2c1,0,1.8,0.8,1.8,1.8
		S-152.4,359.4-153.4,359.4z"/>
	<path fill="#E20031" d="M-176,371.1h-16.6c-1,0-1.8-0.8-1.8-1.8s0.8-1.8,1.8-1.8h16.6c1,0,1.8,0.8,1.8,1.8S-175,371.1-176,371.1z"
		/>
	<path fill="#E20031" d="M-183.9,383.1h-8.7c-1,0-1.8-0.8-1.8-1.8c0-1,0.8-1.8,1.8-1.8h8.7c1,0,1.8,0.8,1.8,1.8
		C-182.1,382.3-182.9,383.1-183.9,383.1z"/>
	<path fill="#E20031" d="M-187.1,394.9h-5.5c-1,0-1.8-0.8-1.8-1.8c0-1,0.8-1.8,1.8-1.8h5.5c1,0,1.8,0.8,1.8,1.8
		C-185.3,394.1-186.1,394.9-187.1,394.9z"/>
	<path fill="#E20031" d="M-186.3,406.6h-6.2c-1,0-1.8-0.8-1.8-1.8c0-1,0.8-1.8,1.8-1.8h6.2c1,0,1.8,0.8,1.8,1.8
		C-184.6,405.8-185.4,406.6-186.3,406.6z"/>
	<path fill="#E20031" d="M-182.1,418.4h-10.5c-1,0-1.8-0.8-1.8-1.8c0-1,0.8-1.8,1.8-1.8h10.5c1,0,1.8,0.8,1.8,1.8
		C-180.3,417.6-181.1,418.4-182.1,418.4z"/>
	<path fill="#E20031" d="M-171.9,430.2h-20.7c-1,0-1.8-0.8-1.8-1.8c0-1,0.8-1.8,1.8-1.8h20.7c1,0,1.8,0.8,1.8,1.8
		C-170.1,429.4-170.9,430.2-171.9,430.2L-171.9,430.2z"/>
	<path fill="#E20031" d="M-103.6,449.1c-2.3,0-4.5-0.9-6.1-2.5l-15.9-15.9c-0.7-0.7-0.7-1.8,0-2.5c0.7-0.7,1.8-0.7,2.5,0
		c0,0,0,0,0,0l15.9,15.9c1,0.9,2.2,1.4,3.6,1.4c1.4,0,2.6-0.6,3.6-1.6c1.9-1.9,2-4.9,0.1-6.9c0,0-0.1-0.1-0.1-0.1l-15.9-15.9
		c-0.7-0.7-0.7-1.8,0-2.5s1.8-0.7,2.5,0l0,0l15.9,15.9c3.3,3.3,3.4,8.7,0.1,12c0,0-0.1,0.1-0.1,0.1
		C-99.2,448.1-101.3,449-103.6,449.1L-103.6,449.1z"/>
	<path fill="#E20031" d="M-147.3,431.6c-19.1,0-34.5-15.4-34.6-34.4c0-19.1,15.4-34.5,34.4-34.6c19.1,0,34.5,15.4,34.6,34.4
		C-112.9,416-128.3,431.5-147.3,431.6z M-147.3,366.1c-17.1,0-31,13.8-31,30.9c0,17.1,13.8,31,30.9,31c17.1,0,31-13.8,31-30.9
		c0-0.1,0-0.1,0-0.2C-116.5,380-130.3,366.2-147.3,366.1z"/>
	<path fill="#E20031" d="M-145.7,402.7h-5c-1,0-1.8-0.8-1.8-1.8s0.8-1.8,1.8-1.8h4.6l2.1-1.6c1.1-0.9,2.7-0.9,3.7,0l1.4,1.1l1.2-1.1
		c1.1-0.9,2.7-0.9,3.7,0l1.4,1.1l1.2-1.1c1.1-0.9,2.7-0.9,3.7,0l0.2,0.2l1.1,0.9l0.9-1.1l-1.4-1.6h-23.7c-1,0-1.8-0.8-1.8-1.8
		s0.8-1.8,1.8-1.8h23.9c0.8,0,1.6,0.3,2.1,0.9l2,2.1c1,1,1,2.6,0.2,3.7l-0.2,0.2l-1.6,1.8c-1.1,1-2.8,1.3-4.1,0.5l-0.2-0.2l-1.1-0.9
		l-1.2,1.1c-1.1,0.9-2.7,0.9-3.7,0l-1.4-1.1l-1.2,1.1c-1.1,0.9-2.7,0.9-3.7,0l-1.4-1.1l-1.8,1.2C-144.3,402.4-145,402.8-145.7,402.7
		z"/>
	<path fill="#E20031" d="M-160.7,409.5c-6.9,0-12.5-5.6-12.5-12.5c0-6.9,5.6-12.5,12.5-12.5s12.5,5.6,12.5,12.5
		c0,6.9-5.5,12.4-12.3,12.5C-160.6,409.5-160.6,409.5-160.7,409.5z M-160.7,388.1c-4.9,0-8.9,4-8.9,8.9c0,4.9,4,8.9,8.9,8.9
		c4.9,0,8.9-4,8.9-8.9c0,0,0,0,0,0c0-4.9-3.9-8.9-8.7-8.9C-160.6,388.1-160.6,388.1-160.7,388.1z"/>
	<path fill="#E20031" d="M-163.3,401.5c-2.5,0-4.5-2-4.5-4.5s2-4.5,4.5-4.5s4.5,2,4.5,4.5C-158.9,399.4-160.8,401.4-163.3,401.5
		C-163.3,401.5-163.3,401.5-163.3,401.5z M-163.3,396.1c-0.5,0-0.9,0.4-0.9,0.9c0,0.5,0.4,0.9,0.9,0.9c0.5,0,0.9-0.4,0.9-0.9
		c0,0,0,0,0,0C-162.5,396.6-162.9,396.2-163.3,396.1z"/>
</g>
</svg>
