<?xml version="1.0" encoding="utf-8"?>
<!-- Generator: Adobe Illustrator 18.1.1, SVG Export Plug-In . SVG Version: 6.00 Build 0)  -->
<svg version="1.1" id="Layer_1" xmlns="http://www.w3.org/2000/svg" xmlns:xlink="http://www.w3.org/1999/xlink" x="0px" y="0px"
	 viewBox="-230 322 150 150" enable-background="new -230 322 150 150" xml:space="preserve">
<title>Local SEO</title>
<g id="Local_SEO">
	<path fill="#FC4D4A" d="M-102.4,387.6h-24c2.6-6.4,4.3-12.1,4.3-16.1c0-16.8-13.6-30.4-30.4-30.4c-16.8,0-30.4,13.6-30.4,30.4
		c0,0,0,0,0,0c0,4,1.7,9.7,4.3,16.1h-9.7v-8.9c0-3-2.4-5.4-5.4-5.4h-3.6c-5.9,0-10.7,4.8-10.7,10.7v57.2c0,5.9,4.8,10.7,10.7,10.7
		h94.8c3,0,5.4-2.4,5.4-5.4V393C-97.1,390-99.5,387.6-102.4,387.6z M-137.7,421.1l27.4,27.4h-7.5l-26.4-26.4c1.8-3.1,3.9-6.6,6-10.4
		l20.4-20.4h7.5l-27.4,27.4C-138.4,419.2-138.4,420.4-137.7,421.1C-137.7,421.1-137.7,421.1-137.7,421.1z M-159.5,424.3l-24.1,24.1
		h-9.4c2.3-2.4,6.1-6.3,12.5-13l17.1-17.9C-162.1,420-160.7,422.3-159.5,424.3z M-157.6,427.5c2,3.3,3.4,5.5,3.6,5.8
		c0.5,0.8,1.6,1.1,2.5,0.6c0.2-0.1,0.4-0.3,0.6-0.6c0.3-0.5,2.2-3.5,5-8.1l23.2,23.2h-55.8L-157.6,427.5z M-122.8,391.2l-9.7,9.7
		c1.6-3.3,3.2-6.5,4.6-9.7H-122.8z M-152.5,344.7c14.8,0,26.8,12,26.8,26.8c0,13.1-21,47.9-26.8,57.4c-5.9-9.5-26.8-44.4-26.8-57.4
		C-179.3,356.7-167.3,344.7-152.5,344.7L-152.5,344.7z M-204.4,384c0-4,3.2-7.2,7.2-7.2h3.6c1,0,1.8,0.8,1.8,1.8v50.1
		c0,1-0.8,1.8-1.8,1.8h-3.6c-2.6,0-5.2,1-7.2,2.7V384z M-204.4,441.3c0-4,3.2-7.2,7.2-7.2h3.6c3,0,5.4-2.4,5.4-5.4v-37.6h11.2
		c3.4,7.6,7.7,15.9,11.7,23l-17.9,18.7c-6.7,7.1-12.9,13.5-14.7,15.4C-201.6,448-204.4,444.9-204.4,441.3z M-100.6,446.6
		c0,1-0.8,1.8-1.8,1.8h-2.8l-28.6-28.6l28.6-28.6h2.8c1,0,1.8,0.8,1.8,1.8L-100.6,446.6z"/>
	<path fill="#FC4D4A" d="M-129.2,371.5c0-12.8-10.4-23.3-23.3-23.3c-12.8,0-23.3,10.4-23.3,23.3c0,12.8,10.4,23.3,23.3,23.3h0
		C-139.7,394.8-129.3,384.3-129.2,371.5z M-172.2,371.5c0-10.9,8.8-19.7,19.7-19.7c10.9,0,19.7,8.8,19.7,19.7
		c0,10.9-8.8,19.7-19.7,19.7C-163.4,391.2-172.2,382.4-172.2,371.5L-172.2,371.5z"/>
	<path fill="#FC4D4A" d="M-168.6,366.1v5.4c0,1,0.8,1.8,1.8,1.8c0,0,0,0,0,0h3.6v1.8h-5.4v3.6h7.2c1,0,1.8-0.8,1.8-1.8c0,0,0,0,0,0
		v-5.4c0-1-0.8-1.8-1.8-1.8c0,0,0,0,0,0h-3.6v-1.8h5.4v-3.6h-7.2C-167.8,364.4-168.6,365.2-168.6,366.1
		C-168.6,366.1-168.6,366.1-168.6,366.1z"/>
	<path fill="#FC4D4A" d="M-148.9,375.1h-5.4v-1.8h3.6v-3.6h-3.6v-1.8h5.4v-3.6h-7.2c-1,0-1.8,0.8-1.8,1.8c0,0,0,0,0,0v10.7
		c0,1,0.8,1.8,1.8,1.8c0,0,0,0,0,0h7.2V375.1z"/>
	<path fill="#FC4D4A" d="M-145.3,378.7h7.2c1,0,1.8-0.8,1.8-1.8c0,0,0,0,0,0v-10.7c0-1-0.8-1.8-1.8-1.8c0,0,0,0,0,0h-7.2
		c-1,0-1.8,0.8-1.8,1.8c0,0,0,0,0,0v10.7C-147.1,377.9-146.3,378.7-145.3,378.7C-145.4,378.7-145.3,378.7-145.3,378.7z
		 M-143.6,367.9h3.6v7.2h-3.6L-143.6,367.9z"/>
</g>
</svg>
