<svg xmlns="http://www.w3.org/2000/svg" width="150" height="150" viewBox="0 0 150 150"><defs><style>.cls-1{fill:#fff;}</style></defs><title>Local SEO</title><g id="Local_SEO" data-name="Local SEO"><path class="cls-1" d="M127.586,65.61033H103.59843c2.59393-6.36138,4.3095-12.08592,4.3095-16.10024a30.41158,30.41158,0,1,0-60.82315,0c0,4.01432,1.71557,9.73886,4.3095,16.10024H41.718V56.66575A5.37331,5.37331,0,0,0,36.35128,51.299H32.77345A10.74431,10.74431,0,0,0,22.04,62.0325v57.24532a10.74431,10.74431,0,0,0,10.7335,10.7335H127.586a5.37331,5.37331,0,0,0,5.36675-5.36675V70.97708A5.37331,5.37331,0,0,0,127.586,65.61033ZM92.33183,99.07559l27.3579,27.35789h-7.46336L85.84343,100.05054c1.82112-3.09482,3.86048-6.644,5.95351-10.433l20.42942-20.42942h7.46336L92.33183,96.54606a1.78691,1.78691,0,0,0,0,2.52953Zm-21.85161,3.22183L46.34417,126.43348H36.90406c2.32559-2.38462,6.10736-6.34528,12.47053-13.01078L66.49631,95.48523c1.424,2.48481,2.76924,4.77641,3.98392,6.81219Zm1.898,3.161c2,3.297,3.36674,5.4544,3.60825,5.83365a1.7882,1.7882,0,0,0,3.01969,0c.29339-.45975,2.22184-3.50627,4.95351-8.06622l23.20761,23.20761H51.40322Zm34.78906-36.27028-9.6852,9.68519c1.63865-3.25225,3.19679-6.517,4.59215-9.68519Zm-29.671-46.51182A26.86421,26.86421,0,0,1,104.3301,49.51008c0,13.05909-20.96253,47.93222-26.83375,57.44211-5.87122-9.50989-26.83374-44.383-26.83374-57.4421A26.8642,26.8642,0,0,1,77.49635,22.67634ZM25.61778,62.0325a7.16287,7.16287,0,0,1,7.15567-7.15567h3.57783a1.78957,1.78957,0,0,1,1.78891,1.78892V106.7554a1.78957,1.78957,0,0,1-1.78891,1.78892H32.77345a10.69794,10.69794,0,0,0-7.15567,2.73883Zm0,57.24532a7.16287,7.16287,0,0,1,7.15567-7.15567h3.57783A5.3733,5.3733,0,0,0,41.718,106.7554V69.18816h11.2004c3.36853,7.64941,7.71381,15.88916,11.73529,23.04661L46.78781,110.9522c-6.74421,7.06622-12.85157,13.46518-14.71025,15.41151A7.14012,7.14012,0,0,1,25.61778,119.27782Zm103.75714,5.36675a1.78956,1.78956,0,0,1-1.78891,1.78891h-2.83722L96.12613,97.81082l28.62266-28.62266H127.586a1.78957,1.78957,0,0,1,1.78891,1.78892Z"/><path class="cls-1" d="M100.75226,49.51009A23.25591,23.25591,0,1,0,77.49635,72.766,23.28276,23.28276,0,0,0,100.75226,49.51009Zm-42.934,0A19.67808,19.67808,0,1,1,77.49635,69.18816,19.70133,19.70133,0,0,1,57.81828,49.51009Z"/><path class="cls-1" d="M61.39611,44.14334v5.36675A1.78727,1.78727,0,0,0,63.185,51.299h3.57784v1.78892H61.39611v3.57783h7.15566a1.78729,1.78729,0,0,0,1.78892-1.78891V49.51009a1.78729,1.78729,0,0,0-1.78892-1.78892H64.97394V45.93225h5.36675V42.35442H63.185A1.78728,1.78728,0,0,0,61.39611,44.14334Z"/><path class="cls-1" d="M81.07419,53.08792H75.70744V51.299h3.57783V47.72117H75.70744V45.93225h5.36675V42.35442H73.91852a1.78728,1.78728,0,0,0-1.78891,1.78892v10.7335a1.78728,1.78728,0,0,0,1.78891,1.78891h7.15567Z"/><path class="cls-1" d="M84.652,56.66575h7.15566a1.78728,1.78728,0,0,0,1.78892-1.78891V44.14334a1.78728,1.78728,0,0,0-1.78892-1.78892H84.652a1.78729,1.78729,0,0,0-1.78892,1.78892v10.7335A1.78729,1.78729,0,0,0,84.652,56.66575Zm1.78891-10.7335h3.57784v7.15567H86.44093Z"/></g></svg>