<?xml version="1.0" encoding="utf-8"?>
<!-- Generator: Adobe Illustrator 18.1.1, SVG Export Plug-In . SVG Version: 6.00 Build 0)  -->
<svg version="1.1" id="Layer_1" xmlns="http://www.w3.org/2000/svg" xmlns:xlink="http://www.w3.org/1999/xlink" x="0px" y="0px"
	 viewBox="0 0 200 200" enable-background="new 0 0 200 200" xml:space="preserve">
<g id="Develop_a_Logo_Design_Brief">
	<g>
		<path fill="#FFFFFF" d="M160.9,0c0.3,0,0.5,0,0.8,0c3.1,0.4,5.5,2,7.7,4.3c2.2,2.3,4.5,4.5,6.7,6.8c4.7,4.8,4.7,9.9,0,14.7
			c-4.3,4.3-8.6,8.6-12.8,12.8c-0.5,0.5-1.2,0.8-1.2,1.7c0.7,0.4,1.4,0.2,2.1,0.2c5.7,0,11.4,0,17.2,0c4.2,0,5.2,1,5.2,5.2
			c0,18.1,0,36.3,0,54.4c0,0.7-0.3,1.5,0.4,2.5c2.4-2.5,4.8-4.9,7.1-7.3c2.3-2.3,3.6-2.3,6-0.1c0,34.4,0,68.7,0,103.1
			c0,1.3-0.3,1.6-1.6,1.6c-33.8,0-67.7,0-101.5,0c-3.4-1.5-3.8-3.6-1.2-6.3c4.4-4.5,8.9-8.9,13.4-13.4c0.6-0.6,1.9-1.2,1.6-2
			c-0.3-0.9-1.6-0.4-2.5-0.4c-28.9,0-57.8,0-86.6,0c-3.7,0-7.2-1-10.4-2.9c-6.2-3.6-9.7-9.1-11.1-16c0-43.6,0-87.2,0-130.8
			C2.5,15.6,12.3,9.4,21.1,8.7c3.6-0.3,5.2,0.8,5.2,4.5c0,8.1,0,16.3,0,24.4c0,3,0,3,2.9,3c28.4,0,56.9,0,85.3,0
			c1.8,0,3.2-0.6,4.5-1.9c11.4-11.5,22.9-22.9,34.3-34.4C155.4,2.1,157.8,0.4,160.9,0z M77.5,113.6c0,0.1,0,0.2,0.1,0.3
			c0.7,0,1.4,0,2.1,0c17.3,0,34.6,0,51.9,0c0.8,0,1.6,0,2.3,0.1c1.7,0.2,2.8,1.2,2.8,2.9s-0.9,2.9-2.6,3.1c-1.3,0.2-2.6,0.2-3.9,0.2
			c-24.9,0-49.7,0-74.6,0c-1,0-2.1,0-3.1-0.1c-2.1-0.3-3.2-1.4-3.2-3.2c0.1-1.8,1.3-2.9,3.4-3c2.3-0.1,4.6-0.1,6.8,0
			c1.7,0.1,2.5-0.6,3.1-2.2c2.8-8.1,5.7-16.1,8.5-24.1c0.4-1.3,1-2.4,2-3.3c4.1-4,8.1-8.1,12.2-12.1c0.4-0.4,0.9-0.8,1.4-1.1
			c1.4-0.8,2.8-0.7,3.9,0.5c1.1,1.1,1.2,2.5,0.3,3.8c-0.4,0.6-1,1.2-1.5,1.8c-2.9,2.9-5.8,5.8-8.7,8.7c-1.2,1.1-1.4,1.9-0.1,3.2
			c3.5,3.3,6.9,6.8,10.2,10.2c1.1,1.1,1.8,1.1,2.9,0c19.2-19.3,38.4-38.5,57.7-57.7c1.1-1.1,1-1.7,0-2.7c-3.3-3.2-6.5-6.5-9.8-9.8
			c-2-2-2-2-3.9,0c-12.2,12.2-24.4,24.4-36.6,36.6c-0.6,0.6-1.3,1.3-2,1.8c-1.4,1.1-2.8,1-4.1-0.1c-1.2-1.1-1.3-2.7-0.2-4.2
			c0.5-0.6,1-1.2,1.6-1.7c4.1-4.1,8.2-8.2,12.3-12.3c0.5-0.5,1.2-0.8,1.2-1.7c-0.7-0.3-1.4-0.2-2.1-0.2c-26.2,0-52.5,0-78.7,0
			c-2.8,0-2.8,0-2.8,2.9c0,17.1,0,34.2,0,51.4c0,1,0,2-0.2,2.9c-0.4,1.5-1.4,2.3-3,2.3c-1.6,0-2.5-0.8-3-2.3
			c-0.3-1.2-0.3-2.3-0.3-3.5c0-27.2,0-54.4,0-81.6c0-0.7,0-1.3,0-2c0-1.2-0.5-1.7-1.7-1.3c-1.4,0.4-2.8,1-4,1.8
			C8.2,21.4,6,27,6,33.7c0,25.5,0,51,0,76.5c0,9.2,0,18.5,0,27.7c0,0.6-0.3,1.5,0.3,1.8c0.8,0.4,1.2-0.5,1.7-1
			c2.9-2.5,6.1-4.2,9.8-4.9c1.6-0.3,2.1-1.1,2-2.5c-0.1-0.9,0-1.8,0-2.7c0-4.4,0-8.7,0.1-13.1c0.1-2.2,1.4-3.5,3.2-3.5
			c1.7,0,3.1,1.3,3.1,3.3c0.1,7,0.1,13.9,0,20.9c0,2.1-1.3,3.1-3.4,3.3c-1.1,0.1-2.2,0.2-3.3,0.4C10,142,4,151.9,7,160.7
			c2.3,6.8,8.3,10.9,16.1,10.9c30.9,0,61.8,0,92.7,0c1.3,0,2.2-0.5,3.1-1.3c3.1-3.1,6.2-6.2,9.2-9.3c2.5-2.4,4.1-2.8,5.7-1.3
			c1.5,1.6,1.2,3.3-1.2,5.7c-8.7,8.7-17.4,17.4-26.1,26.1c-0.5,0.5-1.2,0.9-1.3,1.7c0.7,0.5,1.5,0.2,2.3,0.2c27.7,0,55.5,0,83.2,0
			c0.5,0,0.9,0,1.4,0c1.2,0.1,1.8-0.5,1.8-1.7c0-3.3,0-6.6,0-10c0-1.2-0.5-1.8-1.8-1.8c-1.3,0-2.6,0-3.9-0.2
			c-1.7-0.2-2.6-1.4-2.7-3.1c0-1.6,1.2-2.8,3-3.1c0.5-0.1,1-0.1,1.6-0.1c4,0,3.8,0.3,3.8-3.8c0-5.1,0.4-4.5-4.3-4.5
			c-0.2,0-0.4,0-0.6,0c-2.1-0.2-3.4-1.3-3.5-3c-0.1-1.8,1.2-3.1,3.4-3.3c1-0.1,2.1-0.1,3.1-0.1c1.3,0,1.9-0.6,1.8-1.9
			c0-1.6,0-3.1,0-4.7c0-1.2-0.4-1.8-1.7-1.8c-1.2,0-2.3,0-3.5,0c-1.9-0.1-3.1-1.4-3.1-3.1c0-1.7,1.2-2.9,3.2-3c1.2-0.1,2.3,0,3.5,0
			c1.1,0,1.7-0.5,1.6-1.7c0-1.6,0-3.3,0-4.9c0-1.4-0.6-1.8-1.9-1.8c-1.3,0-2.6,0.1-3.9-0.2c-1.6-0.4-2.5-1.4-2.5-3
			c0-1.7,1-2.8,2.7-3c1-0.2,2.1-0.2,3.1-0.1c1.9,0.2,2.5-0.5,2.5-2.4c-0.1-6.8,0-13.7,0-20.5c0-0.5,0.2-1.2-0.3-1.7
			c-0.8,0.3-1.2,1-1.8,1.5c-15.9,15.9-31.9,31.8-47.8,47.8c-0.6,0.6-1.3,1.3-2.1,1.8c-1.3,0.8-2.7,0.7-3.8-0.4
			c-1.1-1.1-1.3-2.6-0.4-3.9c0.5-0.8,1.2-1.4,1.8-2c12.9-12.9,25.8-25.8,38.7-38.7c1.1-0.8,1.7-1.9,1.7-3.4c0-19.3,0-38.7,0-58
			c0-2.4-0.1-2.5-2.6-2.5c-6.6,0-13.1,0.1-19.7,0c-2,0-3.4,0.6-4.8,2c-18.9,19-37.8,37.8-56.7,56.8c-1.4,1.4-3,2.4-4.9,3.1
			C86.7,110.3,82.1,112,77.5,113.6z M161.1,6.5c-0.3,0.1-0.9,0.2-1.3,0.5c-2,1.5-3.6,3.4-5.3,5.2c-0.7,0.8-0.1,1.4,0.4,2
			c3.6,3.6,7.2,7.2,10.7,10.8c0.8,0.8,1.4,1,2.3,0.1c1.3-1.4,2.7-2.7,4-4c1.8-1.9,1.8-3.2,0-5.1c-2.7-2.8-5.4-5.4-8.1-8.1
			C163.1,7.1,162.3,6.6,161.1,6.5z M149.1,17.9c-0.4,0-0.7,0.3-1.1,0.6c-0.9,0.9-1.7,1.8-2.6,2.6c-1.1,1-1,1.7,0,2.7
			c2.7,2.6,5.4,5.3,8,8c3.9,3.9,3.9,3.9,7.7,0c0.9-0.9,0.9-1.5,0-2.4c-3.6-3.5-7.1-7.1-10.6-10.6C150.2,18.4,149.8,18,149.1,17.9z
			 M86.1,103.3c-0.1-0.2-0.3-0.4-0.5-0.6c-2.9-2.9-5.8-5.8-8.7-8.7c-0.8-0.8-1.2-0.4-1.4,0.4c-0.6,1.8-1.3,3.5-1.9,5.3
			c-0.6,1.9,4.2,6.8,6.1,6.2c1.9-0.6,3.7-1.3,5.5-1.9C85.6,104,86,103.9,86.1,103.3z"/>
		<path fill="#FFFFFF" d="M159.7,179c-5,0-10,0-15,0c-1.6,0-3-0.3-3.7-1.9c-0.8-1.7,0.1-3,1.3-4.2c10.2-10.2,20.4-20.4,30.6-30.7
			c1.2-1.2,2.5-2,4.2-1.3c1.7,0.7,2,2.2,2,3.9c0,10,0,19.9,0,29.9c0,3.1-1.1,4.2-4.2,4.2C169.7,179,164.7,179,159.7,179z
			 M172.2,152.2c-0.2,0.1-0.4,0.1-0.4,0.2c-6.4,6.3-12.7,12.7-19,19c-0.3,0.3-0.7,0.5-0.5,1c0.3,0.5,0.8,0.3,1.2,0.3
			c5.7,0,11.3,0,17,0c1.7,0,2.1-0.8,2.1-2.3c0-5.6,0-11.2,0-16.8C172.6,153.1,172.7,152.7,172.2,152.2z"/>
	</g>
</g>
<g id="Research" display="none">
	<g display="inline">
		<g>
			<defs>
				<rect id="SVGID_1_" width="200" height="200"/>
			</defs>
			<clipPath id="SVGID_2_">
				<use xlink:href="#SVGID_1_"  overflow="visible"/>
			</clipPath>
			<g clip-path="url(#SVGID_2_)">
				<path fill="#F70D39" d="M200,53.9c0,38.9,0,77.9,0,116.8c-0.9,2.1-2.5,3.2-4.8,3.5c-0.7,0.1-1.5,0.1-1.9,0.8
					c-1.6,2.8-4.3,4.7-6.6,6.9c-2.9,2.7-6.2,2.5-9-0.3c-1.8-1.9-3.6-3.8-5.3-5.7c-0.9-1.1-2-1.5-3.4-1.5c-16.8,0-33.6,0-50.4,0
					c-1.2,0-2.3,0.3-3.1,1.2c-1.6,1.6-3.6,2.4-5.8,2.4c-6.4,0-12.9,0-19.3,0c-2,0-4-0.5-5.4-2c-1.3-1.3-2.7-1.6-4.4-1.6
					c-19.3,0-38.7,0-58,0c-5.5,0-10.9,0-16.4,0c-2.7,0-5-0.8-6.2-3.5c0-38.9,0-77.9,0-116.8c1.1-2.4,3.1-3.4,5.6-3.5
					c0.8,0,1.6,0,2.3,0c2.4,0,2.5-0.2,2.6-2.6c0-2.7-0.1-5.3,0-8c0.1-3.9,2-5.7,5.8-5.8c1.6-0.1,3.1-0.1,4.7,0
					c1.3,0,1.9-0.5,1.9-1.9c0-2.1,0-4.2,0-6.2c0.1-4.3,1.9-6.4,6.2-7.1c9.2-1.5,18.3-2.1,27.6-1.3c15.2,1.3,29.1,5.9,41.7,14.6
					c1.1,0.8,1.9,0.9,3.1,0c3.5-2.6,7.3-4.7,11.3-6.6c14-6.6,28.7-9,44-8.3c4.9,0.2,9.7,0.8,14.5,1.7c3.9,0.7,5.6,2.8,5.7,6.7
					c0,1.5,0,3,0,4.5c0,3.9,0,3.9,3.8,3.9c0.5,0,0.9,0,1.4,0c4.8,0.1,7.2,2.4,7.3,7.2c0,2.4,0,4.8,0,7.2c0,1.4,0.6,2.1,2,2
					c1,0,2,0,2.9,0C196.9,50.5,198.9,51.5,200,53.9z M29.4,83.5c0,15.6,0,31.1,0,46.7c0,3.3,0,6.6,0,10c0,1.6,0.7,2.1,2.2,1.8
					c2.1-0.3,4.1-0.6,6.2-0.8c8.9-1.1,17.8-0.7,26.6,0.7c11,1.8,21.2,5.6,30.7,11.4c1.3,0.8,1.7,0.5,1.7-1c0-3.6,0-7.2,0-10.7
					c0-0.8-0.3-1.5-0.8-2.2c-1.7-2-3.2-4.1-4.5-6.4c-0.3-0.5-0.6-1.1-1.3-1c-1.6,0.2-2.8-0.7-4.1-1.4c-12.6-7.2-26.2-9.6-40.5-9.2
					c-2.9,0.1-5.7,0.4-8.6,0.5c-1.8,0-3.1-1.1-3.3-2.7s0.8-2.9,2.6-3.4c0.6-0.2,1.3-0.2,1.9-0.3c6.5-0.6,13-0.7,19.5-0.1
					c9.1,0.9,17.8,3,26.1,6.8c1.2,0.5,2.6,2,3.4,1.3c1-0.8-0.3-2.5-0.4-3.8c0-0.2-0.1-0.4-0.1-0.6c0.6-4.5-2.3-6.4-5.9-7.7
					c-0.4-0.1-0.7-0.3-1.1-0.5c-12.4-5.4-25.5-6.6-38.8-5.8c-1.5,0.1-3,0.4-4.5,0.3c-1.6-0.2-2.7-1.1-2.8-2.7
					c-0.1-1.6,0.7-2.7,2.3-3.2c0.6-0.2,1.3-0.3,1.9-0.4c8.3-0.9,16.5-0.8,24.7,0.5c7.8,1.2,15.4,3.4,22.5,6.9
					c1.1,0.6,1.7,0.3,1.9-0.9c0.2-1.2,0.4-2.3,0.8-3.4c0.4-1.2,0.1-1.9-1-2.6c-3.5-2.1-7.1-3.8-10.9-5.2c-6.1-2.2-12.4-3.4-18.8-4.1
					c-2.4-0.3-3.6-1.7-3.3-3.7c0.3-1.8,1.8-2.8,4-2.5c11,1.2,21.6,3.9,31.2,9.7c1.3,0.8,1.9,0.4,2.6-0.8c1.1-2.1,2.5-4.1,4.1-5.9
					c0.9-1,1.2-2.1,1.2-3.4c0-14.3,0-28.5,0-42.8c0-1.7-0.6-2.8-1.9-3.7c-5-3.5-10.4-6.3-16-8.4C64,23.1,48.6,22.3,33,24.6
					c-3.6,0.5-3.6,0.2-3.6,4.1C29.4,46.9,29.4,65.2,29.4,83.5z M124.2,72c12.1-0.4,22.3,3,30.9,10.9c0.8,0.7,1.7,0.9,2.7,1
					c1.8,0.1,3.6,0.2,5.4,0.5c1.7,0.2,2.9,1.2,3,3c0.1,1.7-0.9,2.9-2.6,3.1c-2,0.3-1.3,1.1-0.7,2.2c8.5,14.9,6.9,33.2-4,46.4
					c-0.4,0.5-1,0.8-0.8,1.6c3.1,0.3,6.1,0.6,9.1,1c3.3,0.4,3.3,0.5,3.3-2.8c0-30.5,0-61.1,0-91.6c0-6.7,0-13.4,0-20.1
					c0-1.4-0.4-2.3-2-2.5c-10.2-1.6-20.4-1.9-30.7-0.4c-11.7,1.8-22.5,5.9-32.3,12.4c-1.7,1.2-2.5,2.5-2.5,4.6
					c0.1,11.9,0,23.8,0.1,35.7c0,0.7-0.4,1.6,0.4,1.9c0.6,0.3,1.1-0.5,1.7-0.8c1-0.6,2.1-1,2.8-1.7c1-1.1-0.7-2-0.7-3.1
					c0-2.5,0.2-5-0.2-7.4c-0.8-5.4,1.4-8.8,6.4-10.8c2.6-1,4.3-1.1,5.3,0.7c1,1.8,0.2,3.5-2.2,4.9c-0.1,0.1-0.2,0.1-0.3,0.2
					c-2.2,0.7-3,2.3-2.7,4.5c0.1,0.5,0,1,0,1.6c0,2.4,0.1,2.4,2.3,1.4c10.1-4.7,20.8-6.9,31.9-7.2c3.4-0.1,6.8,0,10.2,0
					c1.3,0,1.9-0.5,1.9-1.8c0-1.4-0.1-2.7,0-4.1c0.1-1.5-0.6-2-2.1-2.1c-8.9-0.4-17.8,0-26.6,2.1c-0.7,0.2-1.4,0.2-2.1,0.2
					c-1.5,0-2.5-0.8-2.9-2.2c-0.4-1.5,0.1-2.7,1.5-3.5c0.6-0.3,1.3-0.5,2-0.7c10.5-2.6,21.1-3.1,31.8-2.1c2.8,0.3,4.4,1.6,4.7,4.4
					c0.3,4,0.4,8.1,0,12.1c-0.3,3-2.3,4.5-5.3,4.2c-6.8-0.7-13.6-0.7-20.4,0.2C135.2,68.8,129.9,70,124.2,72z M89.8,157.7
					c-3.2-2.1-6.1-3.3-9-4.5c-12.6-5.1-25.7-6.8-39.2-5.9c-4.2,0.3-8.2,1.2-12.4,1.4c-3.6,0.2-5.9-2-6.2-5.6c-0.1-0.9,0-1.8,0-2.7
					c0-32.1,0-64.2,0-96.3c0-0.7,0-1.4,0-2.1c0-0.5-0.1-1-0.5-1.2c-1.6-0.6-3.2-0.5-4.8-0.1c-1.2,0.3-0.7,1.7-0.7,2.6
					c0,37.2,0,74.4,0,111.7c0,2.8,0,2.8,2.8,2.8c22.6,0,45.2,0,67.7,0C88.1,157.7,88.7,157.7,89.8,157.7z M164.7,167.8
					c-1.8-2.9-3.8-4.1-7.1-4.1c-46.3,0.1-92.7,0-139,0.1c-7.4,0-8.1-2.4-8.1-8.2c0-32,0-64.1,0-96.1c0-1.5,0.2-3-2.1-2.9
					C6.2,56.8,6,56.9,6,59.4c0,35.1,0,70.2,0,105.3c0,3.2,0,3.2,3.3,3.2c24,0,48,0,72.1,0c2.7,0,5.2,0.6,7.1,2.6
					c0.7,0.7,1.5,1,2.5,1c6.1,0,12.2,0,18.4,0c0.9,0,1.7-0.2,2.3-0.9c2-2.1,4.4-2.7,7.2-2.7c14.5,0,28.9,0,43.4,0
					C162.9,167.8,163.6,167.8,164.7,167.8z M127.4,147.6c19.1,0,34.6-15.3,34.6-34.2c0-19.5-15.4-35.1-34.6-35.1
					c-19.2,0-34.7,15.4-34.8,34.5C92.6,132.3,107.9,147.6,127.4,147.6z M183.1,99c0-18.4,0-36.8,0-55.2c0-0.7,0-1.3,0-2
					c0-0.5-0.1-1.2-0.7-1.3c-1.5-0.3-3.2-0.5-4.6,0.1c-1.2,0.5-0.7,2-0.7,3c0,32.4,0,64.8,0,97.2c0,2.9-0.3,5.5-3,7.1
					c-0.5,0.3-0.7,0.7-0.2,1.1c2.6,2.8,5.1,5.5,7.8,8.2c0.7,0.7,1.4,0.2,1.5-0.7c0.1-0.6,0-1.3,0-1.9
					C183.1,136.1,183.1,117.5,183.1,99z M194,112.3c0-5.2,0-10.4,0-15.6c0-12.5,0-25,0-37.5c0-1.7-0.4-2.5-2.3-2.5
					c-1.9,0-2.3,0.9-2.2,2.5c0.1,1.4,0,2.7,0,4.1c0,30.8,0,61.6,0,92.3c0,1.8,0.2,3.9-1.1,5.2c-1.8,2-1.1,3.2,0.5,4.6
					c0.4,0.3,0.7,0.7,1.1,1.1c0.8,1,1.9,1.5,3.1,1.1c1.3-0.4,0.8-1.6,0.8-2.5C194,147.5,194,129.9,194,112.3z M110.2,157.7
					c15.1,0,29.7,0,44.2,0c1.2,0,1.4-0.5,1.3-1.6c-0.2-1.7,0.1-3.2,1.3-4.6c0.4-0.5,0.5-1,0.2-1.6c-1.6-3-5.1-3.9-8.2-2.1
					c-8.9,5.4-18.4,7.3-28.6,5.6c-0.8-0.1-1.5-0.2-2.3,0.2C115.6,154.8,113,155.8,110.2,157.7z M166.7,151.3
					c-0.2,0.1-0.6,0.3-0.9,0.6c-0.8,0.7-1.6,1.5-2.5,2.2c-1.1,0.9-1.1,1.7-0.1,2.7c5.3,5.7,10.6,11.4,15.9,17.1
					c3.2,3.5,3.2,3.5,6.6,0c0.9-0.9,0.9-1.5,0.1-2.4c-6-6.5-12-13-18.1-19.4C167.6,151.8,167.4,151.4,166.7,151.3z M103.2,149.8
					c0,1,0,1.9,0,2.7c0,1.2,0.4,1.6,1.5,0.9c1.4-0.8,2.8-1.6,4.2-2.4c0.8-0.5,0.9-0.9,0-1.3s-1.7-0.9-2.6-1.4
					c-1-0.5-1.9-1.9-2.8-1.4C102.7,147.4,103.4,149,103.2,149.8z"/>
				<path fill="#F70D39" d="M48.6,46.7c13.7,0.2,26.8,2.7,39.1,9.2c3.6,1.9,5.4,4.3,5,8.5c-0.2,2.4,0,4.9-0.1,7.4
					c-0.1,4.7-3.3,6.7-7.3,4.4c-10.3-5.6-21.4-8.2-33.1-8.7c-4.4-0.2-8.7,0.1-13,0.3c-3.2,0.2-5.3-1.2-5.5-4.4
					c-0.2-3.9-0.2-7.8,0-11.7c0.1-2.9,1.8-4.4,4.8-4.6C41.8,46.9,45.2,46.6,48.6,46.7z M48.8,53.2c-1.2,0-2.3,0-3.5,0
					c-6,0.3-5.2-0.7-5.3,5.4c0,2.7,0.1,2.8,2.7,2.7c8.5-0.3,17,0,25.4,1.9c5.6,1.3,11,3,16.2,5.5c0.6,0.3,1.4,1.1,1.8-0.2
					c1.1-3.3-0.2-6.2-3.3-7.8C72.2,55.2,60.7,53.1,48.8,53.2z"/>
				<path fill="#F70D39" d="M41.4,83.9c0.9,0,1.3,0,1.8,0C45,84,46,85,46.2,86.7c0.1,1.6-0.8,2.9-2.3,3.1c-2.3,0.4-4.6,0.7-7,0.7
					c-1.7,0.1-3-1.3-3.2-2.9c-0.1-1.6,1-2.9,2.7-3.3c0.2,0,0.4-0.1,0.6-0.1C38.6,84.1,40.2,84,41.4,83.9z"/>
				<path fill="#F70D39" d="M158,113.1c0,17-13.7,30.7-30.6,30.8c-16.9,0-30.9-13.9-30.9-30.8c0-17,13.9-30.7,30.9-30.7
					C144.4,82.3,158,96,158,113.1z M127.2,88.7c-13.8,0.2-24.4,11-24.3,24.9c0.1,13.4,11.3,24,25.2,23.8c13-0.1,23.9-11.5,23.7-24.6
					C151.6,99.3,140.6,88.5,127.2,88.7z"/>
			</g>
		</g>
	</g>
</g>
<g id="Ideate" display="none">
	<g display="inline">
		<path fill="#F70D39" d="M88,200c-4.8-1.5-8.6-4.2-10.7-8.8c-1.1-2.4-1.2-4.9-1.3-7.4c-0.1-1-0.3-1.7-1.1-2.4
			c-4.6-3.4-6.5-8.1-6.5-13.6c0-4.4-0.3-8.9,0-13.3c0.5-7.3-2.4-13-7.4-18.1c-5-5.1-9.9-10.3-13.3-16.6c-6.7-12.5-9-25.6-6.3-39.5
			c0.4-2.1,1.9-3.2,3.5-3c1.9,0.2,2.9,1.7,2.8,3.9c0,0.4-0.1,0.8-0.1,1.2c-0.6,3.3-0.8,6.6-0.7,9.9c0.3,13.7,5.2,25.5,14.8,35.5
			c2.4,2.5,4.8,4.9,7,7.5c2.4,2.9,4.3,6.1,5.3,9.8c0.3,1.2,0.9,1.7,2.2,1.7c16.2,0,32.5,0,48.7,0c1,0,1.8-0.1,2.1-1.3
			c1.5-6.6,5.7-11.7,10.4-16.4c8.3-8.3,13.6-18.1,15.4-29.6c4.5-28.4-14.8-54.8-42.7-60c-23.5-4.3-46.7,7-57.5,27.8
			c-1.5,2.9-3,3.7-5,2.8c-1.9-0.9-2.3-2.8-0.7-5.6c10-18.4,25.5-29.4,46.9-31.9c29.1-3.4,56.3,15.2,63.8,42.5
			c5.9,21.4,1,40.4-14.2,56.9c-1.6,1.7-3.2,3.5-4.8,5.2c-4.8,5.2-6.3,11.4-5.7,18.3c0.4,4.9,0.4,9.9-0.1,14.8
			c-0.4,4.4-2.5,7.9-6,10.7c-0.8,0.6-1.4,1.3-1.4,2.4c0.1,8.3-3.8,13.9-12,16.4C104.8,200,96.4,200,88,200z M100.8,153.2
			c-7.9,0-15.9,0-23.8,0c-1.6,0-2.2,0.5-2.1,2c0.1,1.6,0.1,3.3,0,4.9c-0.2,1.9,0.6,2.4,2.5,2.4c8.5-0.1,17.1,0,25.7,0c1,0,2,0,3,0.3
			c1.6,0.4,2.5,1.6,2.4,3.1c-0.1,1.6-1.1,2.6-2.8,2.9c-0.7,0.1-1.3,0.1-2,0.1c-8.9,0-17.8,0-26.7,0c-2.2,0-2.3,0.2-1.8,2.3
			c1.1,4,4.5,6.9,8.8,7c11.1,0.1,22.2,0.1,33.3,0c4.5,0,8.1-3.4,8.9-7.6c0.2-1.1-0.1-1.6-1.3-1.6c-1.7,0-3.3,0-5,0
			c-2.4,0-3.8-1.3-3.8-3.1c0-1.7,1.4-3,3.6-3.2c1.4-0.1,2.8-0.1,4.2,0c1.8,0.1,2.6-0.4,2.4-2.3c-0.2-1.5-0.1-3.1,0-4.7
			c0.1-1.8-0.5-2.4-2.4-2.4C116.3,153.3,108.5,153.2,100.8,153.2z M99.7,194c3.7,0,6.6,0.1,9.5,0c5.2-0.1,8.7-3.1,9.4-7.7
			c0.2-1.3-0.2-1.8-1.6-1.8c-11,0-21.9,0-32.9,0c-1.5,0-1.8,0.6-1.6,1.9c0.7,4,3.3,6.7,7.5,7.4C93.5,194.3,97,193.8,99.7,194z"/>
		<path fill="#F70D39" d="M101.6,0c1.3,1.2,1.7,2.7,1.7,4.4c-0.1,5.7,0,11.3,0,17c0,0.5,0,0.9,0,1.4c-0.2,1.8-1.5,3.1-3.2,3.1
			c-1.7,0-3.1-1.2-3.2-3.1c-0.1-2.7-0.1-5.3-0.1-8c0-3.4,0.1-6.9,0-10.3c0-1.7,0.4-3.2,1.7-4.4C99.5,0,100.5,0,101.6,0z"/>
		<path fill="#F70D39" d="M76.9,85.4c3.2,0,5.7,1.1,7.6,3.1c3.3,3.4,6.6,6.9,9.7,10.4c1.2,1.3,1.7,1,2.7-0.1
			c5.8-7.3,11.6-14.6,17.4-21.9c3.8-4.8,9.6-5.8,14.1-2.6c4.3,3.1,5.5,8.7,2.5,13c-2,2.8-4.2,5.4-6.3,8c-1.2,1.5-3.1,1.7-4.5,0.7
			c-1.5-1.1-1.8-2.9-0.6-4.5c1.7-2.3,3.5-4.4,5.3-6.7c1.6-2,1.6-4.1,0-5.4c-1.6-1.2-3.8-0.7-5.3,1.3c-6.7,8.4-13.4,16.8-20,25.1
			c-2.5,3.2-4.4,3.2-7.1,0.3c-4-4.3-7.9-8.6-12-12.9c-1.6-1.7-3.8-2-5.3-0.7c-1.4,1.3-1.4,3.3,0.2,5.1c6,6.5,12,12.9,18.1,19.4
			c2.1,2.3,4,2.2,6-0.2c3.6-4.4,7.2-8.9,10.7-13.4c0.5-0.6,1-1.2,1.7-1.7c1.2-0.9,2.6-0.7,3.7,0.2c1.1,0.9,1.4,2,1,3.3
			c-0.2,0.5-0.5,1.1-0.9,1.5c-3.9,4.9-7.7,9.8-11.7,14.6c-3.6,4.3-10.5,4.8-14.4,0.8c-6.7-7-13.3-14.1-19.7-21.3
			c-2.7-3-3-6.7-1.1-10.2C70.3,87.3,73.3,85.5,76.9,85.4z"/>
		<path fill="#F70D39" d="M31.6,27.5c1,0.1,1.8,0.5,2.5,1.1c4.6,4.5,9.2,8.9,13.7,13.4c1.7,1.7,1.7,3.5,0.3,4.8
			c-1.4,1.3-3.2,1.2-5-0.4c-4.6-4.4-9.1-8.8-13.6-13.3c-1.1-1.1-1.6-2.4-0.9-3.9C29.2,28,30.3,27.5,31.6,27.5z"/>
		<path fill="#F70D39" d="M154,47.7c-2.3-0.1-3.8-2.5-2.8-4.5c0.3-0.6,0.8-1.1,1.2-1.5c4.3-4.2,8.7-8.5,13-12.7
			c0.8-0.7,1.6-1.4,2.7-1.5c1.3-0.1,2.4,0.5,3,1.6c0.8,1.4,0.5,2.7-0.6,3.8c-1.7,1.8-3.6,3.5-5.3,5.3c-2.8,2.7-5.6,5.4-8.4,8.1
			C156.2,47.1,155.3,47.7,154,47.7z"/>
		<path fill="#F70D39" d="M49.1,149.9c0,1.1-0.5,1.9-1.3,2.6c-4.5,4.4-9.1,8.9-13.6,13.2c-1.7,1.7-3.6,1.7-5,0.4
			c-1.4-1.3-1.3-3.2,0.4-4.8c4.5-4.4,9.1-8.9,13.6-13.2c1-1,2.3-1.6,3.8-1C48.4,147.6,49,148.6,49.1,149.9z"/>
		<path fill="#F70D39" d="M171.7,164c-0.1,2.3-2.5,3.7-4.6,2.7c-0.6-0.3-1.2-0.8-1.7-1.3c-4.3-4.2-8.6-8.4-12.9-12.6
			c-0.5-0.5-1-1-1.3-1.7c-0.5-1.3-0.2-2.5,0.8-3.4c1-0.9,2.2-1.3,3.5-0.6c0.6,0.3,1.2,0.8,1.7,1.3c4.3,4.2,8.6,8.4,12.9,12.5
			C170.9,161.8,171.7,162.7,171.7,164z"/>
		<path fill="#F70D39" d="M13.6,94.1c3.1,0,6.1,0,9.2,0c2.4,0.1,3.8,1.3,3.9,3.1c0.1,1.9-1.5,3.3-3.9,3.3c-6.3,0-12.7,0-19,0
			c-2.4,0-3.7-1.2-3.7-3.2c0-1.9,1.4-3.1,3.7-3.2C7,94,10.3,94.1,13.6,94.1z"/>
		<path fill="#F70D39" d="M186.6,100.5c-3.1,0-6.1,0-9.2,0c-2.5,0-4-1.2-4-3.2c0-1.9,1.5-3.2,4-3.2c6.3,0,12.6,0,18.8,0
			c2.5,0,3.9,1.3,3.9,3.2c0,1.9-1.4,3.1-3.8,3.1C193,100.5,189.8,100.5,186.6,100.5z"/>
	</g>
</g>
<g id="Digitize__x26__Sketch" display="none">
	<g display="inline">
		<path fill="#F70D39" d="M0,54.3c1.7-5.2,4.9-8.9,10.4-10.4c1.1-0.3,2.2-0.3,3.3-0.3c46.3,0,92.6,0,138.9,0c2.3,0,2.7,0.5,2.4,2.8
			c-0.1,0.9-0.5,1.4-1.5,1.4c-0.7,0-1.4,0-2.1,0c-45.2,0-90.4,0-135.5,0c-1.1,0-2.2,0-3.3,0.2c-5.2,0.9-8.2,4.4-8.5,9.6
			c0,0.5,0,1,0,1.6c0,41.8,0,83.6,0,125.4c0,0.8,0,1.7,0.1,2.5c0.8,5.4,4.4,8.7,9.9,8.9c0.5,0,1,0,1.6,0c56.2,0,112.5,0,168.7,0
			c1,0,2,0,2.9-0.2c5.3-0.9,8.4-4.4,8.6-9.7c0-0.5,0-1,0-1.6c0-41.7,0-83.5,0-125.2c0-1,0-2-0.2-2.9c-0.9-5.2-4.3-8.3-9.6-8.6
			c-6.4-0.4-6.4-0.4-9,5.4c-0.7,1.5-1.3,3.1-2.1,4.6c-0.6,1.2-0.2,1.5,1,1.4c2,0,3.9,0,5.9,0c1.8,0,2.7,0.8,2.6,2.6
			c0,0.5,0,0.9,0,1.4c0,39.1,0,78.2,0,117.4c0,3.7-0.2,3.9-4,3.9c-48.5,0-97,0-145.5,0c-3.6,0-3.9-0.3-3.9-3.9
			c0-39.2,0-78.4,0-117.6c0-3.6,0.3-3.8,3.9-3.8c38.8,0,77.6,0,116.4,0c1.9,0,2.9-0.6,3.6-2.3c7.4-16.5,15-32.9,22.4-49.4
			c1.5-3.3,3.4-6.1,6.9-7.5c1.7,0,3.4,0,5.1,0c5,2.3,7,5.3,6.7,9.8c-0.1,2-1.1,3.7-1.9,5.5c-4,8.8-8,17.6-12,26.4
			c-0.7,1.6-0.3,1.9,1.3,1.9c1.9,0,3.9-0.2,5.8,0.3c5.6,1.4,8.9,5.1,10.6,10.4c0,45.1,0,90.1,0,135.2c-1.7,5.4-5.2,8.9-10.5,10.5
			c-59.6,0-119.3,0-178.9,0c-5.4-1.7-8.9-5.2-10.6-10.6C0,144.4,0,99.3,0,54.3z M107.7,180.3c23.2,0,46.5,0,69.7,0
			c2.9,0,2.9,0,2.9-2.8c0-37.1,0-74.2,0-111.3c0-0.4,0-0.8,0-1.2c0.1-1.2-0.4-1.6-1.6-1.6c-2.1,0.1-4.3,0-6.4,0
			c-3.2,0-4-1.2-2.6-4.1c4.3-9.5,8.6-19,12.9-28.4c3-6.5,6-13,8.8-19.6c1.3-2.9,0.2-5.6-2.4-6.7c-2.6-1.2-5.2-0.1-6.6,2.7
			c-0.2,0.4-0.4,0.8-0.6,1.2C174.9,23.7,168,38.9,161.2,54c-5.7,12.4-11.3,24.9-17,37.3c-0.6,1.3-0.6,1.9,0.9,2.5
			c1.8,0.7,3.6,1.5,5.3,2.4c1.7,1,2.3,0.4,3-1.2c3.7-8.4,7.6-16.7,11.3-25.1c0.8-1.7,1.6-1.8,3.1-1.1c1.6,0.7,1.5,1.5,0.9,2.9
			c-3.1,6.7-6.1,13.5-9.2,20.2c-2.2,4.7-3.8,9.7-8.1,13.1c-3.1,2.5-5.9,5.5-8.8,8.3c-2.9,2.9-4.1,6.4-3.5,10.5
			c0.4,2.8,1.8,5.3,3,7.8c2,4.3,3.3,8.8,2.5,13.6c-2.2,13.1-12.4,24.2-27.9,22.4c-14.4-1.7-29.2-15.5-23.4-35c2-6.8,5.3-13,8.5-19.2
			c2.1-4.2,4.3-8.3,5.6-12.9c0.7-2.5,1.3-5,0.9-7.7c-0.8-5.7-4.3-9.3-9.2-11.6C88.5,76.3,78,77.1,68,83c-5.4,3.2-8.4,8.1-9.4,14.4
			c-0.8,4.9,0.3,9.6,2,14.1c1.6,4.2,3.4,8.3,5,12.5c3.5,9.4,2.7,18.4-2.4,27c-0.6,1.1-1.3,1.4-2.3,0.6c-0.9-0.7-2.5-0.9-1.5-2.7
			c0.8-1.5,1.6-3,2.2-4.5c3.1-7.5,1.8-14.8-1.3-22c-1.8-4.3-3.8-8.6-5.1-13.1c-4.1-14.2,1.9-26.8,15.4-32.6
			c3.7-1.6,7.7-2.4,11.7-2.8c8.1-0.6,15.6,0.9,22.2,5.6c6.8,4.8,9.4,11.4,7.7,19.6c-1.3,6.2-4.2,11.7-7.1,17.3
			c-2.8,5.6-5.7,11.1-7.5,17.1c-1.2,3.9-1.6,7.9-0.8,12c2.3,10.7,12.2,18.2,23.9,18c12.9-0.2,23.1-14.5,18.8-26.8
			c-0.9-2.7-2.2-5.3-3.4-7.9c-2.1-4.8-2-9.6,0.3-14.3c0.6-1.1,0.9-2.3,0.9-3.6c0.1-3.2,0.2-6.4,0.5-9.5c0.4-4,0.3-8.1,2.2-12
			c3.8-7.7,7.3-15.7,10.8-23.6c1.2-2.5,1.1-2.6-1.5-2.6c-37.2,0-74.3,0-111.5,0c-2.6,0-2.6,0-2.6,2.6c0,37.2,0,74.5,0,111.7
			c0,2.6,0,2.6,2.7,2.6C61.2,180.3,84.5,180.3,107.7,180.3z M141.9,107.6c0.3,0.2,0.5,0.4,0.8,0.5c2-2.2,3.9-4.3,5.9-6.5
			c0.6-0.7,0.8-1.1-0.2-1.6c-1.5-0.7-3.1-1.4-4.6-2.1c-0.8-0.4-1.3-0.1-1.3,0.7C142.3,101.6,142.1,104.6,141.9,107.6z"/>
		<path fill="#F70D39" d="M25.5,88.7c0,3.2,0,6.4,0,9.6c0,4.7-3.4,8.1-7.9,8.1c-4.6,0-8-3.4-8-8c0-6.5,0-13,0-19.5
			c0-4.5,3.4-7.9,7.9-7.9c4.6,0,7.9,3.4,8,8C25.6,82.2,25.5,85.5,25.5,88.7z M13.8,82c0,1.1,0.1,1.9,0,2.7c-0.1,1.3,0.4,1.9,1.8,1.9
			c1.4-0.1,2.9,0,4.3,0c0.7,0,1.4,0,1.4-0.9c0-2.5,0.3-5.1-0.2-7.6c-0.4-1.8-1.8-2.8-3.5-2.8c-1.8,0-3,1-3.5,2.9
			C13.7,79.5,13.9,80.9,13.8,82z M21.3,95.4c0-1-0.1-1.9,0-2.7c0.1-1.5-0.5-2-1.9-1.9c-1.4,0.1-2.9,0-4.3,0c-0.6,0-1.3,0.1-1.3,0.9
			c0,2.6-0.4,5.2,0.3,7.8c0.4,1.7,1.8,2.6,3.4,2.7c1.7,0,2.9-0.9,3.5-2.6C21.5,98,21.3,96.6,21.3,95.4z"/>
		<path fill="#F70D39" d="M25.5,155.1c0,3.2,0,6.5,0,9.7c-0.1,4.5-3.4,7.9-7.9,7.9c-4.6,0-8-3.4-8-8c0-6.5,0-13,0-19.5
			c0-4.5,3.4-7.9,7.9-7.9c4.6,0,8,3.4,8,8C25.6,148.6,25.5,151.9,25.5,155.1z M13.8,148.2c0,1.1,0.1,2,0,2.9
			c-0.1,1.3,0.4,1.9,1.8,1.8c1.4-0.1,2.9,0,4.3,0c0.7,0,1.4,0,1.4-0.9c0-2.5,0.3-5.1-0.2-7.6c-0.4-1.8-1.8-2.8-3.5-2.8
			c-1.8,0-3,1.1-3.5,2.9C13.7,145.8,13.9,147.1,13.8,148.2z M13.8,161.5c0,1-0.1,2,0,2.9c0.2,2.4,1.7,4,3.7,4.1
			c2.1,0,3.7-1.6,3.8-4.2c0.1-1.9,0-3.8,0-5.7c0-1.1-0.4-1.6-1.5-1.5c-0.6,0-1.2,0-1.8,0C13.8,157.2,13.8,157.2,13.8,161.5z"/>
		<path fill="#F70D39" d="M17.5,131.8c-5.5,0-9.8-4.3-9.8-9.9c0-5.7,4.3-9.9,10-9.9c5.5,0,9.8,4.4,9.8,10
			C27.5,127.5,23.1,131.8,17.5,131.8z M23.3,121.8c0-2.9-2.8-5.6-5.7-5.6s-5.6,2.7-5.7,5.6c0,3,2.8,5.8,5.8,5.7
			C20.6,127.5,23.3,124.7,23.3,121.8z"/>
	</g>
</g>
<g id="Delivery__x26__Support" display="none">
	<g display="inline">
		<path fill="#F70D39" d="M200,141.8c0,2.1,0,4.2,0,6.2c-0.8,2.3-1.7,4.6-3.4,6.5c-11.2,13.3-22.4,26.7-33.6,40
			c-1.9,2.3-4,4.3-6.8,5.4c-29.4,0-58.8,0-88.3,0c-15.3-2.9-30.6-5.8-45.9-8.7c-1.2-0.2-1.7,0.2-1.8,1.4c0,1.2,0,2.3-0.1,3.5
			c-0.1,1.7-0.7,3-2.3,3.8c-5.5,0-11.1,0-16.6,0c-1.1,0-1.4-0.2-1.4-1.4c0-23.4,0-46.7,0-70.1c0.9-1.2,2-2.1,3.6-2.1
			c4.3,0,8.6,0,12.9,0c1.7,0,3,0.9,3.5,2.6c0.8,2.5,0.8,2.5,3.4,2c12.3-2.4,24.5-1.7,36.3,2.8c7.4,2.8,14.8,5.7,22.2,8.5
			c1.6,0.6,3.2,0.9,4.9,0.9c12.9,0,25.9,0,38.8,0c4.4,0,8,1.9,10.7,5.2c4.1,4.8,4.7,10.2,2.5,16.1c-0.3,0.7-1.3,1.7,0.4,1.8
			c5,0.4,9.5-0.2,12.8-4.7c4.5-6,9.2-11.8,13.9-17.6c0.3-0.4,0.9-0.8,0.8-1.5c-0.5-0.2-0.9,0-1.3,0.1c-17.7,3.8-36.2-4-45.6-19.5
			c-1.4-2.2-2.8-2.9-5.3-2.9c-28,0.1-56.1,0.1-84.1,0c-1,0-2.1,0-3.1-0.1c-2.9-0.2-4-1.3-4.2-4.2c-0.1-0.9-0.1-1.8-0.1-2.7
			c0-15.6,0-31.1,0-46.7c0-20.2,0-40.5,0-60.7c0-2.2,0.1-4.3,2-5.9c50,0,100,0,150,0c1.8,1.5,2,3.5,2,5.7c0,17.6,0,35.3,0,52.9
			c0,2,0.6,3.3,2.4,4.4c6.1,3.5,10.8,8.5,14.5,14.4c3.3,5.3,5,11.1,6.1,17.1c0,3.5,0,7,0,10.5c-0.7,3.9-1.5,7.8-3.1,11.5
			c-1.9,4.4-4.3,8.4-7.5,12c-0.5,0.5-1.6,1.3,0,1.9C195.1,132.3,198.3,136.3,200,141.8z M30.2,59.8c0,16.9,0,33.8,0,50.8
			c0,2.5,0.1,2.5,2.5,2.5c26.7,0,53.4,0,80,0c2.2,0,2.3-0.1,1.7-2.2c-1.4-5.3-1.7-10.7-1.1-16.2c3.2-26,28.8-43.5,54-36.8
			c2.3,0.6,2.3,0.5,2.3-1.7c0-15.6,0-31.1,0-46.7c0-2.6-0.1-2.6-2.6-2.6c-14.5,0-29,0-43.5,0c-3.3,0-3.3,0-3.3,3.2
			c0,10.4,0,20.8,0,31.2c0,4.5-1.2,5.7-5.7,5.7c-4.7,0-9.4,0-14.1,0c-5.4,0-10.8,0-16.2,0c-3.1,0-4.4-1.3-4.6-4.3
			c-0.1-0.9-0.1-1.8-0.1-2.7c0-10,0-20,0-30.1c0-2.9-0.1-3-2.9-3c-14.6,0-29.2,0-43.7,0c-2.8,0-2.8,0-2.8,2.8
			C30.2,26.4,30.2,43.1,30.2,59.8z M111.7,193.2c13.2,0,26.4,0,39.6,0c2.5,0,4.3-0.8,5.9-2.7c4.7-5.8,9.5-11.4,14.3-17.1
			c6.5-7.7,13-15.4,19.5-23.2c4.1-4.9,1.7-11.9-4.6-13.1c-3.3-0.6-6,0.3-8.1,3c-7,8.9-14.1,17.8-21.1,26.6
			c-3.7,4.7-8.5,6.9-14.4,6.9c-12,0-24,0-35.9,0c-3.8,0-3.8,0-3.8-3.9c0-3.3,0-3.3,3.4-3.3c6.3,0,12.6,0,18.9-0.1
			c3.2,0,5.4-1.7,6.8-4.4c1.4-2.7,1.1-5.4-0.5-8c-1.9-3-4.9-3.7-8.1-3.7c-12.9,0-25.8,0-38.7,0c-1.7,0-3.2-0.3-4.8-0.9
			c-7.5-2.9-15-5.8-22.6-8.7c-11.2-4.3-22.7-4.8-34.3-2.2c-2.9,0.6-2.9,0.7-2.9,3.6c0,13,0,25.9,0,38.9c0,2.8,0,2.9,2.8,3.4
			c11.6,2.2,23.2,4.2,34.7,6.6c8.3,1.7,16.5,2.6,25,2.4C92.5,193,102.1,193.2,111.7,193.2z M156.6,136.3c20.2,0,36.3-16.1,36.5-36.3
			c0.1-20-16.2-36.3-36.4-36.4c-20.2-0.1-36.3,16-36.4,36.3C120.3,120.1,136.4,136.3,156.6,136.3z M113.2,23.3c0-4.7,0-9.5,0-14.2
			c0-1.6-0.5-2.3-2.2-2.3c-7.3,0.1-14.6,0.1-21.8,0c-1.7,0-2.3,0.6-2.3,2.3c0.1,9.5,0.1,19,0,28.5c0,1.6,0.5,2.2,2.1,2.2
			c7.3-0.1,14.7-0.1,22,0c1.6,0,2.2-0.6,2.2-2.2C113.1,32.8,113.2,28.1,113.2,23.3z M13.2,163.5c0-9.2,0-18.3,0-27.5
			c0-1.8-0.6-2.5-2.4-2.4c-0.5,0-0.9,0-1.4,0c-2.5,0-2.6,0.1-2.6,2.7c0,18.1,0,36.1,0,54.2c0,2.5,0.1,2.6,2.7,2.6c0.3,0,0.7,0,1,0
			c2.7,0,2.7,0,2.7-2.8C13.2,181.4,13.2,172.4,13.2,163.5z"/>
		<path fill="#F70D39" d="M70,106.8c-9.5,0-19,0-28.5,0c-3.9,0-5-1.1-5.1-5c-0.1-5.7-0.1-11.3,0-17c0-3.9,1.2-5.1,5-5.1
			c19,0,38,0,57,0c4,0,5.2,1.3,5.2,5.4c0,5.6,0,11.2,0,16.8c0,3.7-1.2,4.9-4.9,4.9C89.1,106.8,79.6,106.8,70,106.8z M70,86.8
			c-8,0-16,0-24,0c-1.9,0-2.5,0.6-2.5,2.5c0.1,2.9,0.1,5.7,0,8.6c0,1.4,0.5,2,2,2c16.3,0,32.7,0,49,0c1.4,0,2-0.6,2-2
			c0-2.9-0.1-5.7,0-8.6c0.1-1.9-0.6-2.5-2.5-2.5C86,86.9,78,86.8,70,86.8z"/>
		<path fill="#F70D39" d="M53.4,46.9c-2,0-4,0.1-6,0c-2.9-0.1-4.1-1.5-4.2-4.3c0-1.2-0.1-2.5,0-3.7c0.1-1.5-0.5-2.2-2-2.1
			c-1.1,0.1-2.2,0-3.2-0.7c-1.6-1.2-2.1-3.6-0.5-5.1c4.4-4.6,8.9-9.1,13.5-13.5c1.4-1.4,3.3-1.4,4.8,0c4.5,4.4,9,8.9,13.4,13.4
			c1.1,1.1,1.3,2.4,0.7,3.8c-0.6,1.4-1.7,2-3.2,2.2c-3,0.3-3,0.3-3,3.3c0,6.1-0.7,6.8-6.9,6.8C55.6,47,54.5,47,53.4,46.9L53.4,46.9z
			 M53.2,39.7c3.3,0,3.3,0,3.3-3.3c0-2-0.5-4.2,1.3-5.9c0.3-0.2,0.3-0.6,0.1-0.9c-1.4-1.4-2.5-3.4-4.2-3.9c-1.7-0.6-2.6,1.9-3.9,2.9
			c-0.6,0.4-1.5,1.1-0.8,1.9c1.6,1.9,1.1,4.1,1.1,6.1C50.2,39.7,50.2,39.7,53.2,39.7z"/>
		<path fill="#F70D39" d="M136.6,119.7c-0.1-0.8,0.3-1.7,0.5-2.6c1.2-4.2,2.4-8.4,3.7-12.5c0.4-1.4,0.2-2.3-0.9-3.3
			c-2.8-2.7-5.6-5.5-8.4-8.2c-1.3-1.2-2-2.6-1.4-4.4c0.6-1.7,2.1-2.3,3.7-2.5c3.7-0.5,7.3-1,11-1.3c1.6-0.1,2.6-0.8,3.3-2.3
			c1.6-3.4,3.3-6.8,5-10.2c0.8-1.5,1.7-2.8,3.6-2.8c1.9,0,2.9,1.2,3.6,2.8c1.6,3.5,3.3,6.9,4.9,10.4c0.6,1.3,1.5,1.8,2.8,2
			c3.7,0.4,7.4,0.8,11,1.2c0.4,0,0.8,0.2,1.2,0.2c1.5,0.2,2.7,1,3.1,2.6c0.4,1.6-0.1,2.8-1.3,3.9c-2.9,2.6-5.7,5.3-8.7,7.9
			c-1.5,1.3-2,2.6-1.2,4.6c1.5,3.9,2.7,7.9,4,11.8c0.2,0.7,0.4,1.4,0.5,2.1c0.2,1.5-0.1,2.7-1.4,3.6c-1.3,0.9-2.6,0.8-3.9,0.1
			c-0.9-0.5-1.7-1-2.5-1.5c-3.5-2.3-7-4.5-10.4-6.8c-1.3-0.9-2.3-1-3.7,0c-3.7,2.6-7.6,5-11.4,7.5c-0.7,0.4-1.3,0.8-2,1.1
			C138.9,124.1,136.6,122.5,136.6,119.7z M166.1,111c0.1-0.1,0.2-0.2,0.4-0.3c-0.8-2.4-1.6-4.9-2.4-7.3c-0.7-2-0.2-3.6,1.3-4.9
			c1.6-1.4,3.1-2.8,4.6-4.2c0.4-0.4,1.4-0.7,1.1-1.4c-0.2-0.7-1.1-0.5-1.7-0.6c-1.9-0.2-3.7-0.5-5.6-0.7c-1.8-0.2-3-1.1-3.7-2.7
			c-0.9-1.9-1.8-3.8-2.7-5.6c-0.2-0.4-0.3-1-0.8-1c-0.5,0-0.6,0.6-0.8,1c-1,1.9-1.9,3.8-2.9,5.8c-0.7,1.5-1.8,2.4-3.4,2.5
			c-2.2,0.2-4.4,0.5-6.6,0.8c-0.4,0.1-1,0-1.1,0.6c0,0.3,0.3,0.7,0.6,0.9c1.5,1.5,3.1,3,4.6,4.5c1.6,1.5,2.1,3.2,1.4,5.3
			c-0.6,1.7-1,3.4-1.5,5.1c-0.2,0.8-0.7,1.6-0.4,2.7c2.4-1.6,4.7-2.9,6.9-4.5c2.2-1.6,4.2-1.5,6.4,0
			C161.9,108.4,164,109.7,166.1,111z"/>
	</g>
</g>
</svg>
