<svg xmlns="http://www.w3.org/2000/svg" width="150" height="150" viewBox="0 0 150 150"><defs><style>.cls-1{fill:#fff;}</style></defs><title>Mobile Optimization</title><g id="Mobile_Optimization" data-name="Mobile Optimization"><path class="cls-1" d="M118.18215,113.824a57.26553,57.26553,0,0,0-.01808-78.43558l3.91374-3.91374a5.4636,5.4636,0,0,0,2.37842.55666,5.55207,5.55207,0,1,0-5.55206-5.55207,5.46359,5.46359,0,0,0,.55665,2.37842l-3.91374,3.91374A57.2523,57.2523,0,0,0,45.117,26.47925H26.36973A7.41007,7.41007,0,0,0,18.967,33.882v81.43031a7.41007,7.41007,0,0,0,7.40275,7.40275H45.0935a57.309,57.309,0,0,0,62.13994.19971l6.97714,6.97713a7.085,7.085,0,1,0,10.01974-10.01974Zm6.27408-89.19542a1.85069,1.85069,0,1,1-1.85068,1.85069A1.85426,1.85426,0,0,1,124.45623,24.62856Zm-48.1179-3.70138A53.47028,53.47028,0,0,1,112.9319,35.38659l-4.60232,4.60233a5.4388,5.4388,0,0,0-5.59454.48707l-9.96281-6.97352a5.50137,5.50137,0,0,0,.2223-1.47115,5.5872,5.5872,0,1,0-2.33776,4.51015l9.96281,6.97351a5.501,5.501,0,0,0-.2223,1.47116,5.55207,5.55207,0,0,0,11.10413,0,5.46363,5.46363,0,0,0-.55665-2.37843l4.60232-4.60232a53.568,53.568,0,0,1,.01627,73.1998L103.49863,99.14137a29.35044,29.35044,0,0,0,4.20743-13.44008h18.60086V81.99991h-3.70137v-29.611H111.50141v29.611H107.8V63.493H96.6959V81.99991H92.99453v-29.611H81.89039v2.10823a30.15437,30.15437,0,0,0-3.70137-.25754V33.882a7.41008,7.41008,0,0,0-7.40276-7.40275H52.60108A53.45729,53.45729,0,0,1,76.33833,20.92718ZM107.8,44.98614a1.85069,1.85069,0,1,1-1.85069-1.85069A1.85427,1.85427,0,0,1,107.8,44.98614ZM89.29315,32.03132a1.85069,1.85069,0,1,1-1.85069-1.85069A1.85426,1.85426,0,0,1,89.29315,32.03132ZM48.672,85.70129H30.07111V67.1944H53.727a29.42916,29.42916,0,0,0-5.149,16.6562C48.578,84.47593,48.63312,85.0868,48.672,85.70129ZM78.189,57.941a26.271,26.271,0,0,1,3.70137.29459v3.72668a22.50942,22.50942,0,0,0-3.70137-.3199,22.20827,22.20827,0,1,0,22.11428,24.059h3.70138A25.89624,25.89624,0,1,1,78.189,57.941Zm18.4129,27.76033a18.70826,18.70826,0,1,1-14.71153-19.9428V81.99991H78.189v3.70138ZM85.59177,81.99991V56.09027h3.70138V81.99991Zm14.80551,0V67.1944h3.70138V81.99991Zm14.80551,0V56.09027h3.70138V81.99991ZM22.66836,33.882a3.705,3.705,0,0,1,3.70137-3.70137H70.78626A3.705,3.705,0,0,1,74.48764,33.882v7.40276H22.66836Zm0,11.10414H74.48764v9.511a29.52189,29.52189,0,0,0-17.746,8.9959H26.36973V89.40266H49.11839A29.41476,29.41476,0,0,0,50.079,93.104H26.36973v3.70138H51.60344a29.77549,29.77549,0,0,0,5.13819,7.40275H22.66836Zm3.70137,74.02754a3.705,3.705,0,0,1-3.70137-3.70137v-7.40276H60.99243a29.39066,29.39066,0,0,0,13.49521,5.29453v2.10823a3.705,3.705,0,0,1-3.70138,3.70137Zm49.9686,9.25345A53.48693,53.48693,0,0,1,52.611,122.71506H70.78626a7.41008,7.41008,0,0,0,7.40276-7.40275v-1.85069a29.384,29.384,0,0,0,15.29077-4.30141l11.06528,11.06528A53.42234,53.42234,0,0,1,76.33833,128.26713Zm42.88212,0a3.36117,3.36117,0,0,1-2.39288-.99222L96.57391,107.02126a29.81763,29.81763,0,0,0,4.78577-4.78577L121.61514,122.491a3.38405,3.38405,0,0,1-2.39469,5.77618Z"/><path class="cls-1" d="M39.32456,111.61093H57.83144v3.70138H39.32456Z"/><path class="cls-1" d="M26.36973,48.68751h3.70138v3.70138H26.36973Z"/><path class="cls-1" d="M33.77249,48.68751h3.70138v3.70138H33.77249Z"/><path class="cls-1" d="M41.17524,48.68751h3.70138v3.70138H41.17524Z"/><path class="cls-1" d="M48.578,48.68751H70.78626v3.70138H48.578Z"/><path class="cls-1" d="M26.36973,56.09027H48.578v3.70138H26.36973Z"/><path class="cls-1" d="M52.27938,56.09027h3.70137v3.70138H52.27938Z"/></g></svg>