<?xml version="1.0" encoding="utf-8"?>
<!-- Generator: Adobe Illustrator 18.1.1, SVG Export Plug-In . SVG Version: 6.00 Build 0)  -->
<svg version="1.1" id="Layer_1" xmlns="http://www.w3.org/2000/svg" xmlns:xlink="http://www.w3.org/1999/xlink" x="0px" y="0px"
	 viewBox="-230 322 150 150" enable-background="new -230 322 150 150" xml:space="preserve">
<title>Mobile Optimization</title>
<g id="Mobile_Optimization">
	<path fill="#E20031" d="M-111.8,435.8c20.7-22,20.7-56.4,0-78.4l3.9-3.9c0.7,0.4,1.6,0.6,2.4,0.6c3.1,0,5.6-2.5,5.6-5.6
		c0-3.1-2.5-5.6-5.6-5.6c-3.1,0-5.6,2.5-5.6,5.6c0,0,0,0,0,0c0,0.8,0.2,1.6,0.6,2.4l-3.9,3.9c-19.2-18.1-48.3-20.7-70.4-6.3h-18.7
		c-4.1,0-7.4,3.3-7.4,7.4v81.4c0,4.1,3.3,7.4,7.4,7.4h18.7c18.9,12.3,43.2,12.3,62.1,0.2l7,7c2.8,2.8,7.3,2.8,10,0s2.8-7.3,0-10l0,0
		L-111.8,435.8z M-105.5,346.6c1,0,1.9,0.8,1.9,1.9c0,1-0.8,1.9-1.9,1.9c-1,0-1.9-0.8-1.9-1.9c0,0,0,0,0,0
		C-107.4,347.5-106.6,346.6-105.5,346.6L-105.5,346.6z M-153.7,342.9c13.6,0,26.7,5.2,36.6,14.5l-4.6,4.6c-1.8-0.9-4-0.7-5.6,0.5
		l-10-7c0.1-0.5,0.2-1,0.2-1.5c0-3.1-2.5-5.6-5.6-5.6s-5.6,2.5-5.6,5.6s2.5,5.6,5.6,5.6c1.2,0,2.3-0.4,3.3-1l10,7
		c-0.1,0.5-0.2,1-0.2,1.5c0,3.1,2.5,5.5,5.6,5.5c3.1,0,5.5-2.5,5.5-5.5c0-0.8-0.2-1.6-0.6-2.4l4.6-4.6c19.3,20.6,19.3,52.6,0,73.2
		l-12.1-12.1c2.5-4.1,3.9-8.7,4.2-13.4h18.6V404h-3.7v-29.6h-11.1V404h-3.7v-18.5h-11.1V404h-3.7v-29.6h-11.1v2.1
		c-1.2-0.2-2.5-0.2-3.7-0.3v-20.4c0-4.1-3.3-7.4-7.4-7.4h-18.2C-170,344.8-161.9,342.9-153.7,342.9L-153.7,342.9z M-122.2,367
		c0,1-0.8,1.9-1.9,1.9c-1,0-1.9-0.8-1.9-1.9s0.8-1.9,1.9-1.9C-123,365.1-122.2,366-122.2,367z M-140.7,354c0,1-0.8,1.9-1.9,1.9
		s-1.9-0.8-1.9-1.9c0-1,0.8-1.9,1.9-1.9C-141.5,352.2-140.7,353-140.7,354z M-181.3,407.7h-18.6v-18.5h23.7
		c-3.4,4.9-5.2,10.7-5.1,16.7C-181.4,406.5-181.4,407.1-181.3,407.7z M-151.8,379.9c1.2,0,2.5,0.1,3.7,0.3v3.7
		c-1.2-0.2-2.5-0.3-3.7-0.3c-12.3,0-22.2,9.9-22.2,22.2s9.9,22.2,22.2,22.2c11.6,0,21.2-8.8,22.1-20.4h3.7c-1,14.3-13.4,25-27.7,24
		c-14.3-1-25-13.4-24-27.7C-176.7,390.4-165.4,379.9-151.8,379.9z M-133.4,407.7c-0.9,10.3-10,17.9-20.3,17s-17.9-10-17-20.3
		c0.9-10.3,10-17.9,20.3-17c0.8,0.1,1.5,0.2,2.3,0.3V404h-3.7v3.7L-133.4,407.7z M-144.4,404v-25.9h3.7V404H-144.4z M-129.6,404
		v-14.8h3.7V404H-129.6z M-114.8,404v-25.9h3.7V404H-114.8z M-207.3,355.9c0-2,1.7-3.7,3.7-3.7h44.4c2,0,3.7,1.7,3.7,3.7v7.4h-51.8
		V355.9z M-207.3,367h51.8v9.5c-6.8,0.9-13,4-17.7,9h-30.4v25.9h22.7c0.2,1.3,0.6,2.5,1,3.7h-23.7v3.7h25.2c1.3,2.7,3.1,5.2,5.1,7.4
		h-34.1V367z M-203.6,441c-2,0-3.7-1.7-3.7-3.7v-7.4h38.3c4,2.9,8.6,4.7,13.5,5.3v2.1c0,2-1.7,3.7-3.7,3.7H-203.6z M-153.7,450.3
		c-8.2,0-16.4-1.9-23.7-5.6h18.2c4.1,0,7.4-3.3,7.4-7.4v-1.9c5.4,0,10.7-1.5,15.3-4.3l11.1,11.1
		C-133.9,447.5-143.7,450.3-153.7,450.3z M-110.8,450.3c-0.9,0-1.8-0.4-2.4-1l-20.3-20.3c1.8-1.4,3.4-3,4.8-4.8l20.3,20.3
		c1.3,1.3,1.3,3.5,0,4.8C-109,449.9-109.9,450.3-110.8,450.3L-110.8,450.3z"/>
	<path fill="#E20031" d="M-190.7,433.6h18.5v3.7h-18.5V433.6z"/>
	<path fill="#E20031" d="M-203.6,370.7h3.7v3.7h-3.7V370.7z"/>
	<path fill="#E20031" d="M-196.2,370.7h3.7v3.7h-3.7V370.7z"/>
	<path fill="#E20031" d="M-188.8,370.7h3.7v3.7h-3.7V370.7z"/>
	<path fill="#E20031" d="M-181.4,370.7h22.2v3.7h-22.2V370.7z"/>
	<path fill="#E20031" d="M-203.6,378.1h22.2v3.7h-22.2V378.1z"/>
	<path fill="#E20031" d="M-177.7,378.1h3.7v3.7h-3.7V378.1z"/>
</g>
</svg>
