<svg xmlns="http://www.w3.org/2000/svg" width="150" height="150" viewBox="0 0 150 150"><defs><style>.cls-1{fill:#fff;}</style></defs><title>Off-page SEO</title><g id="Off-page_SEO" data-name="Off-page SEO"><path class="cls-1" d="M25.07639,114.1278h51.1642a1.82726,1.82726,0,0,0,0-3.65452H25.07639a1.82794,1.82794,0,0,1-1.82768-1.82768V99.5097A1.82794,1.82794,0,0,1,25.07639,97.682h51.1642a1.82727,1.82727,0,0,0,0-3.65453H25.07639a5.4824,5.4824,0,0,0-5.48221,5.48221v9.1359A5.48239,5.48239,0,0,0,25.07639,114.1278Z"/><path class="cls-1" d="M101.82227,121.43686a18.18216,18.18216,0,0,0,11.5558-4.133l12.73438,12.73438a1.82733,1.82733,0,0,0,2.58385-2.58385L115.96192,114.72a18.2618,18.2618,0,1,0-14.13965,6.71684Zm0-32.89158a14.61853,14.61853,0,1,1-14.6181,14.61895A14.61924,14.61924,0,0,1,101.82227,88.54528Z"/><path class="cls-1" d="M101.82227,114.1278a10.964,10.964,0,1,0-10.96358-10.96357A10.96407,10.96407,0,0,0,101.82227,114.1278Zm0-18.27263a7.30906,7.30906,0,1,1-7.309,7.30906A7.30962,7.30962,0,0,1,101.82227,95.85517Z"/><path class="cls-1" d="M26.90407,101.33654v5.48221a1.82726,1.82726,0,0,0,3.65452,0v-5.48221a1.82726,1.82726,0,0,0-3.65452,0Z"/><path class="cls-1" d="M26.90407,75.75486V88.54528A1.82723,1.82723,0,0,0,28.73091,90.373H50.65807a1.82741,1.82741,0,0,0,1.82768-1.82769V75.75486a5.48186,5.48186,0,0,0-5.48221-5.48221H32.38544A5.48168,5.48168,0,0,0,26.90407,75.75486Zm21.92716,0V86.71844H30.55859V75.75486a1.82723,1.82723,0,0,1,1.82685-1.82768h14.6181A1.82741,1.82741,0,0,1,48.83123,75.75486Z"/><path class="cls-1" d="M63.44933,90.373h21.928a1.82724,1.82724,0,0,0,1.82685-1.82769V62.9636a5.48222,5.48222,0,0,0-5.48137-5.48221H67.10386a5.48222,5.48222,0,0,0-5.48137,5.48221V88.54528A1.82723,1.82723,0,0,0,63.44933,90.373ZM65.277,62.9636a1.82723,1.82723,0,0,1,1.82685-1.82768H81.7228a1.82723,1.82723,0,0,1,1.82684,1.82768V86.71844H65.277Z"/><path class="cls-1" d="M96.3409,48.3455V79.40939a1.82727,1.82727,0,0,0,3.65453,0V48.3455a1.82722,1.82722,0,0,1,1.82684-1.82768h14.61894a1.82723,1.82723,0,0,1,1.82685,1.82768V88.54528a1.82727,1.82727,0,1,0,3.65453,0V48.3455a5.48168,5.48168,0,0,0-5.48138-5.48221H101.82227A5.48168,5.48168,0,0,0,96.3409,48.3455Z"/><path class="cls-1" d="M94.51322,35.55424a1.82723,1.82723,0,0,1-1.82684-1.82768,1.82727,1.82727,0,0,0-3.65453,0,5.48168,5.48168,0,0,0,5.48137,5.4822,5.62673,5.62673,0,0,0,5.48221-5.4822c0-2.95608-2.69761-4.30447-4.665-5.28982-1.5483-.7729-2.64407-1.37181-2.64407-2.01924a1.95248,1.95248,0,0,1,1.82684-1.82684A1.82722,1.82722,0,0,1,96.3409,26.4175a1.82727,1.82727,0,1,0,3.65453,0,5.48169,5.48169,0,0,0-5.48221-5.48137,5.62466,5.62466,0,0,0-5.48137,5.48137c0,2.95692,2.69677,4.3053,4.665,5.29066,1.54746.7729,2.64407,1.37181,2.64407,2.0184A1.95406,1.95406,0,0,1,94.51322,35.55424Z"/><path class="cls-1" d="M110.959,24.59066a1.82727,1.82727,0,1,0,0-3.65453h-3.65453A3.65445,3.65445,0,0,0,103.65,24.59066V35.55424a3.65445,3.65445,0,0,0,3.65453,3.65452H110.959a1.82726,1.82726,0,1,0,0-3.65452h-3.65453V31.89971H110.959a1.82727,1.82727,0,1,0,0-3.65453h-3.65453V24.59066Z"/><path class="cls-1" d="M129.23164,27.33176a6.39522,6.39522,0,1,0-12.79043,0v5.48137a6.39522,6.39522,0,1,0,12.79043,0Zm-3.65453,5.48137a2.74069,2.74069,0,1,1-5.48137,0V27.33176a2.74069,2.74069,0,1,1,5.48137,0Z"/><path class="cls-1" d="M43.349,44.691a1.8274,1.8274,0,0,0,1.82768-1.82768V27.17451l.53534.53534A1.82734,1.82734,0,0,0,48.29589,25.126l-3.65453-3.65453a1.834,1.834,0,0,0-2.588,0L38.3988,25.126a1.82734,1.82734,0,0,0,2.58385,2.58385l.53952-.53534V42.86329A1.82723,1.82723,0,0,0,43.349,44.691Z"/><path class="cls-1" d="M61.62249,52a1.82722,1.82722,0,0,0,1.82684-1.82768V36.3104l.53534.53534a1.827,1.827,0,0,0,2.58385-2.583L62.914,30.60737a1.83222,1.83222,0,0,0-2.58719,0l-3.65453,3.65536a1.827,1.827,0,0,0,2.58385,2.583l.53868-.53534V50.17234A1.82741,1.82741,0,0,0,61.62249,52Z"/><path class="cls-1" d="M22.71337,36.84574l.53534-.53534V50.17234a1.82768,1.82768,0,0,0,3.65536,0V36.3104l.53534.53534a1.827,1.827,0,0,0,2.58385-2.583l-3.65537-3.65536a1.83222,1.83222,0,0,0-2.58719,0l-3.65453,3.65536a1.82795,1.82795,0,1,0,2.5872,2.583Z"/></g></svg>