<svg xmlns="http://www.w3.org/2000/svg" width="150" height="150" viewBox="0 0 150 150"><defs><style>.cls-1,.cls-2{fill:#fff;}.cls-2{font-size:9.59999px;font-family:ArialRoundedMTBold, Arial Rounded MT Bold;}</style></defs><title>Off-Page Optimization</title><g id="Off-Page_Optimization" data-name="Off-Page Optimization"><path class="cls-1" d="M101.43211,85.56879a17.96364,17.96364,0,1,0,17.96353,17.96375,17.992,17.992,0,0,0-17.96353-17.96375Zm0,32.46324a14.49961,14.49961,0,1,1,14.49949-14.49949A14.51605,14.51605,0,0,1,101.43211,118.032Z"/><path class="cls-1" d="M131.17863,125.88059,122.159,116.6395a24.57973,24.57973,0,0,0,2.74929-20.19575l3.5467-.42538a1.73126,1.73126,0,0,0,1.50108-1.4318l2.78808-16.54189a1.73207,1.73207,0,0,0-.93021-1.83593L122.7137,71.636a49.41263,49.41263,0,0,0-1.43988-7.9892l7.02412-7.49292a1.73308,1.73308,0,0,0,.23648-2.05116l-8.34715-14.46486a1.7295,1.7295,0,0,0-1.89367-.82051l-10.05492,2.35277c-1.0108-.99464-2.07633-1.95533-3.17143-2.85921-.95284-.78726-1.94978-1.54888-2.96313-2.26455l-.10507-.07413.56649-10.25537a1.73236,1.73236,0,0,0-1.13643-1.72346L85.74169,18.28052a1.73062,1.73062,0,0,0-1.978.58935L77.57351,27.139a48.97319,48.97319,0,0,0-8.12453.024l-6.14957-8.21344a1.73015,1.73015,0,0,0-1.978-.58935L45.6338,24.07284a1.73266,1.73266,0,0,0-1.13643,1.72347l.57,10.31633a49.12967,49.12967,0,0,0-6.20893,5.242L28.87114,39.0178a1.72948,1.72948,0,0,0-1.89367.82052L18.63009,54.30294a1.73316,1.73316,0,0,0,.23648,2.05116l7.0717,7.54373A49.46082,49.46082,0,0,0,24.54342,71.897L15.5291,76.44084a1.73262,1.73262,0,0,0-.92859,1.83247l2.76313,16.53841a1.7317,1.7317,0,0,0,1.50154,1.43434l10.26345,1.23111a49.31156,49.31156,0,0,0,4.07162,7.02828l-4.03444,9.43324a1.73281,1.73281,0,0,0,.47873,2.00821l12.78873,10.73641a1.72937,1.72937,0,0,0,2.05994.12308l8.65845-5.66091a49.61511,49.61511,0,0,0,7.62686,2.76129l2.97237,9.82813a1.73172,1.73172,0,0,0,1.65719,1.23066H82.1026a1.73143,1.73143,0,0,0,1.65719-1.23066l2.99431-9.89973c.19422-.0538.38635-.11362.58034-.16973a24.49016,24.49016,0,0,0,27.05544.71012l8.96443,9.35311a5.54119,5.54119,0,1,0,7.82431-7.8481Zm-50.87131-22.34a21.0916,21.0916,0,0,1,32.881-17.49771,1.73191,1.73191,0,0,0,1.93824-2.87076,24.41109,24.41109,0,0,0-7.011-3.26127,35.02656,35.02656,0,0,0,.18359-3.53954A34.53112,34.53112,0,0,0,62.16252,43.852a1.73212,1.73212,0,0,0,1.16645,3.262,31.069,31.069,0,0,1,41.50782,29.25763c0,.94406-.04781,1.89-.13256,2.82965a24.74131,24.74131,0,0,0-3.30653-.22493,24.46734,24.46734,0,0,0-7.53125,1.18631,20.432,20.432,0,1,0-40.50787-3.791,20.28862,20.28862,0,0,0,3.94183,12.07121,1.73156,1.73156,0,1,0,2.7927-2.04794,16.96615,16.96615,0,1,1,29.74745-4.51778,24.59443,24.59443,0,0,0-10.2974,10.46552,16.98868,16.98868,0,0,1-13.9434-1.09948,1.732,1.732,0,0,0-1.67405,3.03263,20.44838,20.44838,0,0,0,13.976,2.11768,24.71453,24.71453,0,0,0-.77618,10.86318,31.49253,31.49253,0,0,1-3.337.17852A31.06943,31.06943,0,0,1,56.4963,50.5671a1.73192,1.73192,0,0,0-1.93108-2.8756,34.53407,34.53407,0,0,0,19.22327,63.20787,34.99986,34.99986,0,0,0,4.10787-.24364,24.5976,24.5976,0,0,0,6.35118,10.44543,1.72782,1.72782,0,0,0-.52814.80711l-2.90124,9.59282H66.69371l-2.88161-9.52723a1.732,1.732,0,0,0-1.23758-1.17893,46.129,46.129,0,0,1-8.81041-3.189,1.7316,1.7316,0,0,0-1.69806.11085l-8.391,5.4861-10.82-9.0836L36.7659,104.975a1.73256,1.73256,0,0,0-.19121-1.69946,45.84075,45.84075,0,0,1-4.70092-8.11367,1.73162,1.73162,0,0,0-1.37291-1.00919L20.56511,92.9608,18.2262,78.96059,26.97056,74.553a1.733,1.733,0,0,0,.948-1.426,45.9228,45.9228,0,0,1,1.61008-9.23832,1.73236,1.73236,0,0,0-.40322-1.65558l-6.85415-7.31117,7.06246-12.23818,9.68334,2.2657a1.7292,1.7292,0,0,0,1.64126-.485,45.60654,45.60654,0,0,1,7.16545-6.0505,1.73209,1.73209,0,0,0,.75447-1.52763l-.5524-9.99811L61.2986,22.05494l5.96206,7.96334a1.73048,1.73048,0,0,0,1.56874.684,45.52934,45.52934,0,0,1,9.37666-.028,1.73312,1.73312,0,0,0,1.5595-.685l5.9997-8.01368L99.03779,26.8092l-.54939,9.94407a1.732,1.732,0,0,0,.763,1.53341,45.82583,45.82583,0,0,1,7.204,6.00062,1.73061,1.73061,0,0,0,1.63248.47618l9.74338-2.28,7.06223,12.23818L118.083,61.98686a1.73352,1.73352,0,0,0-.4009,1.66481,45.85454,45.85454,0,0,1,1.66319,9.22793,1.73191,1.73191,0,0,0,.94938,1.41772l8.82287,4.433-2.36039,14.00252-3.1264.375a24.6163,24.6163,0,0,0-2.26293-3.86169,1.73179,1.73179,0,1,0-2.81487,2.01814,21.09477,21.09477,0,1,1-38.24563,12.27628Zm39.76934,15.92413,2.06179,2.11237-2.93819,2.81186-1.98789-2.07426A24.79945,24.79945,0,0,0,120.07666,119.46475Zm8.68016,11.84467a2.07483,2.07483,0,0,1-2.91764.00647l-4.24251-4.42634,2.96105-2.83357,4.1543,4.25637a2.10988,2.10988,0,0,1,.0448,2.99707Z"/><text class="cls-2" transform="translate(92.756 107.62402)">SEO</text></g></svg>