<?xml version="1.0" encoding="utf-8"?>
<!-- Generator: Adobe Illustrator 18.1.1, SVG Export Plug-In . SVG Version: 6.00 Build 0)  -->
<svg version="1.1" id="Layer_1" xmlns="http://www.w3.org/2000/svg" xmlns:xlink="http://www.w3.org/1999/xlink" x="0px" y="0px"
	 viewBox="-230 322 150 150" enable-background="new -230 322 150 150" xml:space="preserve">
<title>Off-page SEO</title>
<g id="Off-page_SEO">
	<path fill="#FC4D4A" d="M-204.9,436.1h51.2c1,0,1.8-0.8,1.8-1.8c0-1-0.8-1.8-1.8-1.8h-51.2c-1,0-1.8-0.8-1.8-1.8v-9.1
		c0-1,0.8-1.8,1.8-1.8h51.2c1,0,1.8-0.8,1.8-1.8c0-1-0.8-1.8-1.8-1.8h-51.2c-3,0-5.5,2.5-5.5,5.5v9.1
		C-210.4,433.7-208,436.1-204.9,436.1z"/>
	<path fill="#FC4D4A" d="M-128.2,443.4c4.2,0,8.3-1.5,11.6-4.1l12.7,12.7c0.7,0.7,1.9,0.7,2.6,0c0.7-0.7,0.7-1.8,0-2.5l-12.7-12.7
		c6.4-7.8,5.2-19.3-2.6-25.7s-19.3-5.2-25.7,2.6s-5.2,19.3,2.6,25.7C-136.5,442-132.4,443.4-128.2,443.4L-128.2,443.4z
		 M-128.2,410.5c8.1,0,14.6,6.5,14.6,14.6c0,8.1-6.5,14.6-14.6,14.6c-8.1,0-14.6-6.5-14.6-14.6l0,0
		C-142.8,417.1-136.3,410.5-128.2,410.5z"/>
	<path fill="#FC4D4A" d="M-128.2,436.1c6.1,0,11-4.9,11-11c0-6.1-4.9-11-11-11c-6.1,0-11,4.9-11,11c0,0,0,0,0,0
		C-139.1,431.2-134.2,436.1-128.2,436.1z M-128.2,417.9c4,0,7.3,3.3,7.3,7.3c0,4-3.3,7.3-7.3,7.3c-4,0-7.3-3.3-7.3-7.3c0,0,0,0,0,0
		C-135.5,421.1-132.2,417.9-128.2,417.9z"/>
	<path fill="#FC4D4A" d="M-203.1,423.3v5.5c0,1,0.8,1.8,1.8,1.8c1,0,1.8-0.8,1.8-1.8l0,0v-5.5c0-1-0.8-1.8-1.8-1.8
		C-202.3,421.5-203.1,422.3-203.1,423.3z"/>
	<path fill="#FC4D4A" d="M-203.1,397.8v12.8c0,1,0.8,1.8,1.8,1.8c0,0,0,0,0,0h21.9c1,0,1.8-0.8,1.8-1.8c0,0,0,0,0,0v-12.8
		c0-3-2.5-5.5-5.5-5.5c0,0,0,0,0,0h-14.6C-200.6,392.3-203.1,394.7-203.1,397.8C-203.1,397.8-203.1,397.8-203.1,397.8z
		 M-181.2,397.8v11h-18.3v-11c0-1,0.8-1.8,1.8-1.8c0,0,0,0,0,0h14.6C-182,395.9-181.2,396.7-181.2,397.8
		C-181.2,397.8-181.2,397.8-181.2,397.8z"/>
	<path fill="#FC4D4A" d="M-166.6,412.4h21.9c1,0,1.8-0.8,1.8-1.8c0,0,0,0,0,0V385c0-3-2.5-5.5-5.5-5.5h-14.6c-3,0-5.5,2.5-5.5,5.5
		v25.6C-168.4,411.6-167.6,412.4-166.6,412.4C-166.6,412.4-166.6,412.4-166.6,412.4z M-164.7,385c0-1,0.8-1.8,1.8-1.8c0,0,0,0,0,0
		h14.6c1,0,1.8,0.8,1.8,1.8c0,0,0,0,0,0v23.8h-18.3V385z"/>
	<path fill="#FC4D4A" d="M-133.7,370.3v31.1c0,1,0.8,1.8,1.8,1.8c1,0,1.8-0.8,1.8-1.8v-31.1c0-1,0.8-1.8,1.8-1.8c0,0,0,0,0,0h14.6
		c1,0,1.8,0.8,1.8,1.8c0,0,0,0,0,0v40.2c0,1,0.8,1.8,1.8,1.8c1,0,1.8-0.8,1.8-1.8c0,0,0,0,0,0v-40.2c0-3-2.5-5.5-5.5-5.5
		c0,0,0,0,0,0h-14.6C-131.2,364.9-133.7,367.3-133.7,370.3C-133.7,370.3-133.7,370.3-133.7,370.3z"/>
	<path fill="#FC4D4A" d="M-135.5,357.6c-1,0-1.8-0.8-1.8-1.8c0,0,0,0,0,0c0-1-0.8-1.8-1.8-1.8c-1,0-1.8,0.8-1.8,1.8
		c0,3,2.5,5.5,5.5,5.5c0,0,0,0,0,0c3-0.1,5.4-2.5,5.5-5.5c0-3-2.7-4.3-4.7-5.3c-1.5-0.8-2.6-1.4-2.6-2c0.1-1,0.8-1.8,1.8-1.8
		c1,0,1.8,0.8,1.8,1.8c0,0,0,0,0,0c0,1,0.8,1.8,1.8,1.8c1,0,1.8-0.8,1.8-1.8c0,0,0,0,0,0c0-3-2.5-5.5-5.5-5.5c0,0,0,0,0,0
		c-3,0.1-5.4,2.5-5.5,5.5c0,3,2.7,4.3,4.7,5.3c1.5,0.8,2.6,1.4,2.6,2C-133.7,356.7-134.5,357.5-135.5,357.6z"/>
	<path fill="#FC4D4A" d="M-119,346.6c1,0,1.8-0.8,1.8-1.8c0-1-0.8-1.8-1.8-1.8c0,0,0,0,0,0h-3.7c-2,0-3.7,1.6-3.7,3.7c0,0,0,0,0,0
		v11c0,2,1.6,3.7,3.7,3.7c0,0,0,0,0,0h3.7c1,0,1.8-0.8,1.8-1.8c0-1-0.8-1.8-1.8-1.8c0,0,0,0,0,0h-3.7v-3.7h3.7c1,0,1.8-0.8,1.8-1.8
		c0-1-0.8-1.8-1.8-1.8c0,0,0,0,0,0h-3.7v-3.7H-119z"/>
	<path fill="#FC4D4A" d="M-100.8,349.3c0-3.5-2.9-6.4-6.4-6.4c-3.5,0-6.4,2.9-6.4,6.4c0,0,0,0,0,0v5.5c0,3.5,2.9,6.4,6.4,6.4
		c3.5,0,6.4-2.9,6.4-6.4c0,0,0,0,0,0V349.3z M-104.4,354.8c0,1.5-1.2,2.7-2.7,2.7c-1.5,0-2.7-1.2-2.7-2.7c0,0,0,0,0,0v-5.5
		c0-1.5,1.2-2.7,2.7-2.7c1.5,0,2.7,1.2,2.7,2.7c0,0,0,0,0,0V354.8z"/>
	<path fill="#FC4D4A" d="M-186.7,366.7c1,0,1.8-0.8,1.8-1.8c0,0,0,0,0,0v-15.7l0.5,0.5c0.7,0.7,1.9,0.7,2.6,0c0.7-0.7,0.7-1.8,0-2.5
		l-3.7-3.7c-0.7-0.7-1.9-0.7-2.6,0l-3.7,3.7c-0.7,0.7-0.7,1.9,0,2.6c0.7,0.7,1.8,0.7,2.5,0l0.5-0.5v15.7
		C-188.5,365.9-187.7,366.7-186.7,366.7C-186.7,366.7-186.7,366.7-186.7,366.7z"/>
	<path fill="#FC4D4A" d="M-168.4,374c1,0,1.8-0.8,1.8-1.8c0,0,0,0,0,0v-13.9l0.5,0.5c0.7,0.7,1.9,0.7,2.6,0c0.7-0.7,0.7-1.8,0-2.5
		l-3.7-3.7c-0.7-0.7-1.9-0.7-2.6,0l-3.7,3.7c-0.7,0.7-0.7,1.9,0,2.6c0.7,0.7,1.8,0.7,2.5,0l0.5-0.5v13.9
		C-170.2,373.2-169.4,374-168.4,374C-168.4,374-168.4,374-168.4,374z"/>
	<path fill="#FC4D4A" d="M-207.3,358.8l0.5-0.5v13.9c0,1,0.8,1.8,1.8,1.8c1,0,1.8-0.8,1.8-1.8v-13.9l0.5,0.5c0.7,0.7,1.9,0.7,2.6,0
		c0.7-0.7,0.7-1.8,0-2.5l-3.7-3.7c-0.7-0.7-1.9-0.7-2.6,0l-3.7,3.7c-0.7,0.7-0.7,1.9,0,2.6C-209.2,359.6-208,359.6-207.3,358.8
		C-207.3,358.9-207.3,358.8-207.3,358.8z"/>
</g>
</svg>
