<?xml version="1.0" encoding="utf-8"?>
<!-- Generator: Adobe Illustrator 18.1.1, SVG Export Plug-In . SVG Version: 6.00 Build 0)  -->
<svg version="1.1" id="Layer_1" xmlns="http://www.w3.org/2000/svg" xmlns:xlink="http://www.w3.org/1999/xlink" x="0px" y="0px"
	 viewBox="-230 322 150 150" enable-background="new -230 322 150 150" xml:space="preserve">
<title>Off-Page Optimization</title>
<g id="Off-Page_Optimization">
	<path fill="#E20031" d="M-128.6,407.6c-9.9,0-18,8-18,18c0,9.9,8,18,18,18c9.9,0,18-8,18-18C-110.6,415.6-118.7,407.6-128.6,407.6z
		 M-128.6,440c-8,0-14.5-6.5-14.5-14.5c0-8,6.5-14.5,14.5-14.5s14.5,6.5,14.5,14.5c0,0,0,0,0,0C-114.1,433.5-120.6,440-128.6,440
		L-128.6,440z"/>
	<path fill="#E20031" d="M-98.8,447.9l-9-9.2c3.8-6,4.8-13.4,2.7-20.2l3.5-0.4c0.8-0.1,1.4-0.7,1.5-1.4l2.8-16.5
		c0.1-0.7-0.3-1.5-0.9-1.8l-9.1-4.6c-0.3-2.7-0.7-5.4-1.4-8l7-7.5c0.5-0.6,0.6-1.4,0.2-2.1l-8.3-14.5c-0.4-0.7-1.2-1-1.9-0.8
		l-10.1,2.4c-1-1-2.1-2-3.2-2.9c-1-0.8-1.9-1.5-3-2.3l-0.1-0.1l0.6-10.3c0-0.8-0.4-1.5-1.1-1.7l-15.7-5.7c-0.7-0.3-1.5,0-2,0.6
		l-6.2,8.3c-2.7-0.2-5.4-0.2-8.1,0l-6.1-8.2c-0.5-0.6-1.3-0.9-2-0.6l-15.7,5.7c-0.7,0.3-1.2,1-1.1,1.7l0.6,10.3
		c-2.2,1.6-4.3,3.3-6.2,5.2l-10-2.3c-0.7-0.2-1.5,0.2-1.9,0.8l-8.3,14.5c-0.4,0.7-0.3,1.5,0.2,2.1l7.1,7.5c-0.7,2.6-1.1,5.3-1.4,8
		l-9,4.5c-0.7,0.3-1.1,1.1-0.9,1.8l2.8,16.5c0.1,0.8,0.7,1.3,1.5,1.4l10.3,1.2c1.2,2.5,2.5,4.8,4.1,7l-4,9.4c-0.3,0.7-0.1,1.5,0.5,2
		l12.8,10.7c0.6,0.5,1.4,0.5,2.1,0.1l8.7-5.7c2.5,1.1,5,2.1,7.6,2.8l3,9.8c0.2,0.7,0.9,1.2,1.7,1.2h16.7c0.8,0,1.4-0.5,1.7-1.2
		l3-9.9c0.2-0.1,0.4-0.1,0.6-0.2c8.1,5.7,18.7,5.9,27.1,0.7l9,9.4c2.2,2.2,5.7,2.2,7.8,0C-96.6,453.6-96.6,450.1-98.8,447.9
		C-98.8,447.9-98.8,447.9-98.8,447.9L-98.8,447.9z M-149.7,425.5c0-11.6,9.4-21.1,21.1-21.1c4.2,0,8.3,1.3,11.8,3.6
		c0.8,0.5,1.9,0.3,2.4-0.5c0.5-0.8,0.3-1.9-0.5-2.4c-2.1-1.5-4.5-2.6-7-3.3c0.1-1.2,0.2-2.4,0.2-3.5c0-19.1-15.5-34.5-34.5-34.5
		c-4,0-7.9,0.7-11.6,2c-0.9,0.3-1.4,1.3-1,2.2c0.3,0.9,1.3,1.4,2.2,1c16.2-5.8,33.9,2.7,39.7,18.8c1.2,3.3,1.8,6.9,1.8,10.4
		c0,0.9,0,1.9-0.1,2.8c-1.1-0.1-2.2-0.2-3.3-0.2c-2.6,0-5.1,0.4-7.5,1.2c2.1-11.1-5.2-21.8-16.3-23.9c-11.1-2.1-21.8,5.2-23.9,16.3
		c-0.2,1.3-0.4,2.5-0.4,3.8c0,4.3,1.4,8.6,3.9,12.1c0.6,0.8,1.6,0.9,2.4,0.4s0.9-1.6,0.4-2.4c-5.5-7.6-3.9-18.2,3.7-23.7
		c7.6-5.5,18.2-3.9,23.7,3.7c3.3,4.5,4.2,10.3,2.4,15.5c-4.4,2.4-8,6-10.3,10.5c-4.6,1.7-9.7,1.3-13.9-1.1c-0.8-0.5-1.9-0.2-2.4,0.7
		c-0.5,0.8-0.2,1.9,0.7,2.4c4.3,2.3,9.2,3.1,14,2.1c-1.1,3.5-1.3,7.2-0.8,10.9c-1.1,0.1-2.2,0.2-3.3,0.2c-17.2,0-31.1-13.9-31-31.1
		c0-10.3,5.2-20,13.8-25.8c0.8-0.5,1-1.6,0.5-2.4c-0.5-0.8-1.6-1-2.4-0.5c-15.8,10.6-20.1,32.1-9.4,47.9
		c6.4,9.5,17.2,15.3,28.7,15.3c1.4,0,2.7-0.1,4.1-0.2c1.2,4,3.4,7.6,6.4,10.4c-0.2,0.2-0.4,0.5-0.5,0.8l-2.9,9.6h-14.1l-2.9-9.5
		c-0.2-0.6-0.6-1-1.2-1.2c-3-0.8-6-1.8-8.8-3.2c-0.5-0.3-1.2-0.2-1.7,0.1l-8.4,5.5l-10.8-9.1l3.9-9.1c0.2-0.6,0.2-1.2-0.2-1.7
		c-1.8-2.5-3.4-5.3-4.7-8.1c-0.2-0.6-0.8-0.9-1.4-1l-9.9-1.2l-2.3-14l8.7-4.4c0.5-0.3,0.9-0.8,0.9-1.4c0.2-3.1,0.8-6.2,1.6-9.2
		c0.2-0.6,0-1.2-0.4-1.7l-6.9-7.3l7.1-12.2l9.7,2.3c0.6,0.1,1.2,0,1.6-0.5c2.2-2.3,4.6-4.3,7.2-6.1c0.5-0.3,0.8-0.9,0.8-1.5l-0.6-10
		l13.3-4.8l6,8c0.4,0.5,1,0.7,1.6,0.7c3.1-0.3,6.3-0.3,9.4,0c0.6,0.1,1.2-0.2,1.6-0.7l6-8l13.3,4.8l-0.5,9.9c0,0.6,0.3,1.2,0.8,1.5
		c2.6,1.7,5,3.8,7.2,6c0.4,0.4,1,0.6,1.6,0.5l9.7-2.3l7.1,12.2l-6.8,7.3c-0.4,0.4-0.6,1.1-0.4,1.7c0.9,3,1.4,6.1,1.7,9.2
		c0,0.6,0.4,1.1,0.9,1.4l8.8,4.4l-2.4,14l-3.1,0.4c-0.6-1.4-1.4-2.6-2.3-3.9c-0.6-0.8-1.6-1-2.4-0.4c-0.8,0.6-1,1.6-0.4,2.4
		c6.8,9.5,4.6,22.6-4.9,29.4s-22.6,4.6-29.4-4.9C-148.3,434.2-149.7,429.9-149.7,425.5L-149.7,425.5z M-109.9,441.5l2.1,2.1
		l-2.9,2.8l-2-2.1C-111.8,443.4-110.8,442.5-109.9,441.5L-109.9,441.5z M-101.2,453.3c-0.8,0.8-2.1,0.8-2.9,0l-4.2-4.4l3-2.8
		l4.2,4.3C-100.4,451.1-100.4,452.5-101.2,453.3C-101.2,453.3-101.2,453.3-101.2,453.3z"/>
	<text transform="matrix(1 0 0 1 -137.244 429.624)" fill="#E20031" font-family="'ArialMT'" font-size="12">SEO</text>
</g>
</svg>
