<svg xmlns="http://www.w3.org/2000/svg" width="150" height="150" viewBox="0 0 150 150"><defs><style>.cls-1,.cls-2{fill:#fff;}.cls-2{font-size:11px;font-family:ArialRoundedMTBold, Arial Rounded MT Bold;}.cls-3{letter-spacing:-0.08798em;}.cls-4{letter-spacing:-0.02477em;}.cls-5{letter-spacing:-0.00009em;}.cls-6{font-size:21.59959px;}</style></defs><title>On Page Optimization</title><g id="On_Page_Optimization" data-name="On Page Optimization"><path class="cls-1" d="M28.38717,50.7578a5.824,5.824,0,1,0-5.82394-5.824A5.8304,5.8304,0,0,0,28.38717,50.7578Zm0-8.26034a2.43662,2.43662,0,1,1-2.43661,2.43662A2.43923,2.43923,0,0,1,28.38717,42.49746Z"/><path class="cls-1" d="M41.518,50.7578a5.82395,5.82395,0,1,0-5.82395-5.824A5.83044,5.83044,0,0,0,41.518,50.7578Zm0-8.26034a2.43662,2.43662,0,1,1-2.43662,2.43662A2.43942,2.43942,0,0,1,41.518,42.49746Z"/><path class="cls-1" d="M54.6489,50.7578a5.824,5.824,0,1,0-5.82394-5.824,5.8304,5.8304,0,0,0,5.82394,5.824Zm0-8.26034a2.43662,2.43662,0,1,1-2.43661,2.43662A2.43922,2.43922,0,0,1,54.6489,42.49746Z"/><path class="cls-1" d="M129.7157,30.65355a1.69356,1.69356,0,0,0,1.69367-1.69366v-2.2266a8.56387,8.56387,0,0,0-8.55414-8.55414H74.33063a8.56386,8.56386,0,0,0-8.55413,8.55414V32.8779H30.09212A14.31989,14.31989,0,0,0,15.78857,47.18168v66.229a14.32091,14.32091,0,0,0,14.30355,14.30582H106.237a14.32091,14.32091,0,0,0,14.30355-14.30582V73.32734h2.31468a8.56385,8.56385,0,0,0,8.55413-8.55414V35.73454a1.69367,1.69367,0,0,0-3.38733,0V64.773a5.17268,5.17268,0,0,1-5.1668,5.1668H101.06568a1.6929,1.6929,0,0,0-.93716.283L85.264,80.09861a1.54483,1.54483,0,0,1-2.39936-1.28854V71.63345A1.69355,1.69355,0,0,0,81.171,69.93979H74.33085a5.17268,5.17268,0,0,1-5.1668-5.16681V26.73329a5.17267,5.17267,0,0,1,5.1668-5.1668h48.5246a5.17268,5.17268,0,0,1,5.16681,5.1668V28.9599a1.69321,1.69321,0,0,0,1.69344,1.69366ZM74.33063,73.32711h5.14648v5.483A4.93011,4.93011,0,0,0,87.139,82.91934l14.43792-9.59223h8.80164v40.08564a4.14633,4.14633,0,0,1-4.14158,4.14157H43.88307a1.69367,1.69367,0,0,0,0,3.38733H106.237a7.53735,7.53735,0,0,0,7.5289-7.5289V73.32711h3.38733v40.08338A10.92988,10.92988,0,0,1,106.237,124.329H30.09213A10.92988,10.92988,0,0,1,19.1759,113.41049v-66.229A10.92866,10.92866,0,0,1,30.09213,36.26523H65.7765V53.152H31.4019a8.84864,8.84864,0,0,0-8.83867,8.83867v51.42189a7.53735,7.53735,0,0,0,7.5289,7.5289h7.01629a1.69366,1.69366,0,0,0,0-3.38732H30.09213a4.14633,4.14633,0,0,1-4.14157-4.14158V61.99085a5.45747,5.45747,0,0,1,5.45134-5.45134H65.7765V64.773A8.564,8.564,0,0,0,74.33063,73.32711Z"/><path class="cls-1" d="M43.31829,82.20282A1.69355,1.69355,0,0,0,45.012,83.89648H71.13548a1.69367,1.69367,0,0,0,0-3.38733H45.012A1.6937,1.6937,0,0,0,43.31829,82.20282Z"/><path class="cls-1" d="M71.13548,89.384H37.10819a1.69367,1.69367,0,1,0,0,3.38733H71.13548a1.69367,1.69367,0,0,0,0-3.38733Z"/><path class="cls-1" d="M71.13548,98.25875H37.10819a1.69367,1.69367,0,1,0,0,3.38733H71.13548a1.69367,1.69367,0,0,0,0-3.38733Z"/><path class="cls-1" d="M59.84439,107.13332H37.10819a1.69367,1.69367,0,0,0,0,3.38733h22.7362a1.69367,1.69367,0,0,0,0-3.38733Z"/><text class="cls-2" transform="translate(74.50012 39.49754)">ON <tspan class="cls-3" x="19.81982" y="0">P</tspan><tspan class="cls-4" x="26.18896" y="0">A</tspan><tspan class="cls-5" x="33.82764" y="0">GE</tspan><tspan class="cls-6"><tspan x="0" y="19.91992">SEO</tspan></tspan></text></g></svg>