<?xml version="1.0" encoding="utf-8"?>
<!-- Generator: Adobe Illustrator 18.1.1, SVG Export Plug-In . SVG Version: 6.00 Build 0)  -->
<svg version="1.1" id="Layer_1" xmlns="http://www.w3.org/2000/svg" xmlns:xlink="http://www.w3.org/1999/xlink" x="0px" y="0px"
	 viewBox="-230 322 150 150" enable-background="new -230 322 150 150" xml:space="preserve">
<title>On Page Optimization</title>
<g id="On_Page_Optimization">
	<path fill="#E20031" d="M-201.6,372.8c3.2,0,5.8-2.6,5.8-5.8c0-3.2-2.6-5.8-5.8-5.8c-3.2,0-5.8,2.6-5.8,5.8c0,0,0,0,0,0
		C-207.4,370.1-204.8,372.8-201.6,372.8z M-201.6,364.5c1.3,0,2.4,1.1,2.4,2.4c0,1.3-1.1,2.4-2.4,2.4s-2.4-1.1-2.4-2.4c0,0,0,0,0,0
		C-204,365.6-203,364.5-201.6,364.5z"/>
	<path fill="#E20031" d="M-188.5,372.8c3.2,0,5.8-2.6,5.8-5.8c0-3.2-2.6-5.8-5.8-5.8c-3.2,0-5.8,2.6-5.8,5.8
		C-194.3,370.1-191.7,372.8-188.5,372.8z M-188.5,364.5c1.3,0,2.4,1.1,2.4,2.4s-1.1,2.4-2.4,2.4s-2.4-1.1-2.4-2.4c0,0,0,0,0,0
		C-190.9,365.6-189.8,364.5-188.5,364.5z"/>
	<path fill="#E20031" d="M-175.4,372.8c3.2,0,5.8-2.6,5.8-5.8c0-3.2-2.6-5.8-5.8-5.8s-5.8,2.6-5.8,5.8c0,0,0,0,0,0
		C-181.2,370.1-178.6,372.8-175.4,372.8z M-175.4,364.5c1.3,0,2.4,1.1,2.4,2.4c0,1.3-1.1,2.4-2.4,2.4c-1.3,0-2.4-1.1-2.4-2.4
		c0,0,0,0,0,0C-177.8,365.6-176.7,364.5-175.4,364.5z"/>
	<path fill="#E20031" d="M-100.3,352.7c0.9,0,1.7-0.8,1.7-1.7c0,0,0,0,0,0v-2.2c0-4.7-3.8-8.5-8.6-8.6h-48.5c-4.7,0-8.5,3.8-8.6,8.6
		v6.1h-35.7c-7.9,0-14.3,6.4-14.3,14.3v66.2c0,7.9,6.4,14.3,14.3,14.3h76.1c7.9,0,14.3-6.4,14.3-14.3v-40.1h2.3
		c4.7,0,8.5-3.8,8.6-8.6v-29c0-0.9-0.8-1.7-1.7-1.7c-0.9,0-1.7,0.8-1.7,1.7v29c0,2.9-2.3,5.2-5.2,5.2h-21.8c-0.3,0-0.7,0.1-0.9,0.3
		l-14.9,9.9c-0.7,0.5-1.7,0.3-2.1-0.4c-0.2-0.3-0.3-0.6-0.3-0.9v-7.2c0-0.9-0.8-1.7-1.7-1.7c0,0,0,0,0,0h-6.8
		c-2.9,0-5.2-2.3-5.2-5.2v-38c0-2.9,2.3-5.2,5.2-5.2h48.5c2.9,0,5.2,2.3,5.2,5.2v2.2C-102,351.9-101.2,352.7-100.3,352.7
		C-100.3,352.7-100.3,352.7-100.3,352.7L-100.3,352.7z M-155.7,395.3h5.1v5.5c0,2.7,2.2,4.9,4.9,4.9c1,0,1.9-0.3,2.7-0.8l14.4-9.6
		h8.8v40.1c0,2.3-1.9,4.1-4.1,4.1h-62.4c-0.9,0-1.7,0.8-1.7,1.7c0,0.9,0.8,1.7,1.7,1.7h62.4c4.2,0,7.5-3.4,7.5-7.5v-40.1h3.4v40.1
		c0,6-4.9,10.9-10.9,10.9h-76.1c-6,0-10.9-4.9-10.9-10.9v-66.2c0-6,4.9-10.9,10.9-10.9h35.7v16.9h-34.4c-4.9,0-8.8,4-8.8,8.8v51.4
		c0,4.2,3.4,7.5,7.5,7.5h7c0.9,0,1.7-0.8,1.7-1.7c0-0.9-0.8-1.7-1.7-1.7h-7c-2.3,0-4.1-1.9-4.1-4.1V384c0-3,2.4-5.4,5.5-5.5h34.4
		v8.2C-164.2,391.5-160.4,395.3-155.7,395.3z"/>
	<path fill="#E20031" d="M-186.7,404.2c0,0.9,0.8,1.7,1.7,1.7c0,0,0,0,0,0h26.1c0.9,0,1.7-0.8,1.7-1.7c0-0.9-0.8-1.7-1.7-1.7H-185
		C-185.9,402.5-186.7,403.3-186.7,404.2z"/>
	<path fill="#E20031" d="M-158.9,411.4h-34c-0.9,0-1.7,0.8-1.7,1.7c0,0.9,0.8,1.7,1.7,1.7c0,0,0,0,0,0h34c0.9,0,1.7-0.8,1.7-1.7
		C-157.2,412.1-157.9,411.4-158.9,411.4z"/>
	<path fill="#E20031" d="M-158.9,420.3h-34c-0.9,0-1.7,0.8-1.7,1.7c0,0.9,0.8,1.7,1.7,1.7c0,0,0,0,0,0h34c0.9,0,1.7-0.8,1.7-1.7
		C-157.2,421-157.9,420.3-158.9,420.3z"/>
	<path fill="#E20031" d="M-170.2,429.1h-22.7c-0.9,0-1.7,0.8-1.7,1.7c0,0.9,0.8,1.7,1.7,1.7h22.7c0.9,0,1.7-0.8,1.7-1.7
		C-168.5,429.9-169.2,429.1-170.2,429.1z"/>
	<text transform="matrix(1 0 0 1 -155.4999 361.4976)" fill="#E20031" font-family="'ArialMT'" font-size="12">ON </text>
	<text transform="matrix(1 0 0 1 -135.6801 361.4976)" fill="#E20031" font-family="'ArialMT'" font-size="12">P</text>
	<text transform="matrix(1 0 0 1 -129.3109 361.4976)" fill="#E20031" font-family="'ArialMT'" font-size="12">A</text>
	<text transform="matrix(1 0 0 1 -121.6722 361.4976)" fill="#E20031" font-family="'ArialMT'" font-size="12">GE</text>
	<text transform="matrix(1 0 0 1 -155.4999 381.4175)" fill="#E20031" font-family="'ArialMT'" font-size="12">SEO</text>
</g>
</svg>
