<?xml version="1.0" encoding="utf-8"?>
<!-- Generator: Adobe Illustrator 18.1.1, SVG Export Plug-In . SVG Version: 6.00 Build 0)  -->
<svg version="1.1" id="Layer_1" xmlns="http://www.w3.org/2000/svg" xmlns:xlink="http://www.w3.org/1999/xlink" x="0px" y="0px"
	 viewBox="-230 322 150 150" enable-background="new -230 322 150 150" xml:space="preserve">
<title>On-page SEO</title>
<g id="On-page_SEO">
	<path fill="#FC4D4A" d="M-97.5,431.2h-1.6v-56.4l0.5-0.5c4.6-4.7,4.7-12.2,0-16.9l-15.8-15.8c-0.4-0.4-1-0.7-1.7-0.7h-50
		c-1.3,0-2.4,1-2.4,2.3c0,1.3,1,2.4,2.3,2.4c0,0,0,0,0,0h49l15.1,15.1c2.8,2.8,2.8,7.4,0,10.2l-15.1,15.1h-66v-42.8
		c0-1.3-1-2.4-2.3-2.4c-1.3,0-2.4,1-2.4,2.3c0,0,0,0,0,0v16.5h-14.3c-5.2,0-9.4,4.2-9.4,9.4v62.1h-1.6c-1.3,0-2.4,1.1-2.4,2.4v1.9
		c0,7.2,5.9,13.1,13.1,13.1h94.1c7.2,0,13.1-5.9,13.1-13.1v-1.9C-95.1,432.3-96.2,431.2-97.5,431.2z M-206.8,369.2
		c0-2.6,2.1-4.7,4.7-4.7h14.3v24c0,1.3,1.1,2.4,2.4,2.4h69.3c0.6,0,1.2-0.2,1.7-0.7l10.6-10.6v51.7h-4v-34.5c0-1.3-1-2.4-2.3-2.4
		c-1.3,0-2.4,1-2.4,2.3c0,0,0,0,0,0v34.5h-85.6v-57.8h4.8c1.3,0,2.4-1,2.4-2.3s-1-2.4-2.3-2.4c0,0,0,0,0,0h-7.2
		c-1.3,0-2.4,1.1-2.4,2.4v60.2h-4V369.2z M-108.2,443.9h-94.1c-4.5,0-8.2-3.5-8.4-8h110.9C-100.1,440.4-103.7,443.9-108.2,443.9z"/>
	<path fill="#FC4D4A" d="M-145,437.6h-20.6c-1.3,0-2.3,1.1-2.3,2.4c0,1.3,1.1,2.3,2.3,2.3h20.6c1.3,0,2.3-1.1,2.3-2.4
		C-142.7,438.6-143.7,437.6-145,437.6z"/>
	<path fill="#FC4D4A" d="M-112.9,358.8c-3.9,0-7.1,3.2-7.1,7.1c0,3.9,3.2,7.1,7.1,7.1c3.9,0,7.1-3.2,7.1-7.1
		C-105.8,362-109,358.8-112.9,358.8z M-112.9,368.2c-1.3,0-2.4-1.1-2.4-2.4c0-1.3,1.1-2.4,2.4-2.4c1.3,0,2.4,1.1,2.4,2.4
		c0,0,0,0,0,0C-110.5,367.2-111.6,368.2-112.9,368.2z"/>
	<path fill="#FC4D4A" d="M-134.7,354.1c-6.5,0-11.8,5.3-11.8,11.8c0,6.5,5.3,11.8,11.8,11.8c6.5,0,11.8-5.3,11.8-11.8
		C-122.9,359.4-128.2,354.1-134.7,354.1z M-134.7,372.9c-3.9,0-7.1-3.2-7.1-7.1s3.2-7.1,7.1-7.1c3.9,0,7.1,3.2,7.1,7.1
		C-127.6,369.8-130.8,372.9-134.7,372.9z"/>
	<path fill="#FC4D4A" d="M-147.6,372.9h-7.1v-4.7h4.7c1.3,0,2.4-1.1,2.4-2.4c0-1.3-1.1-2.4-2.4-2.4h-4.7v-4.7h7.1
		c1.3,0,2.4-1.1,2.4-2.4c0-1.3-1.1-2.4-2.4-2.4h-9.5c-1.3,0-2.4,1.1-2.4,2.4v18.8c0,1.3,1.1,2.4,2.4,2.4h9.5c1.3,0,2.4-1.1,2.4-2.4
		C-145.2,374-146.3,372.9-147.6,372.9z"/>
	<path fill="#FC4D4A" d="M-169.3,363.5c-1.4,0.1-2.7-0.9-2.8-2.4c0.3-1.6,1.8-2.6,3.4-2.3c1.2,0.2,2.1,1.1,2.3,2.3
		c0,1.3,1.1,2.3,2.4,2.3c1.3,0,2.3-1.1,2.3-2.3c-0.3-4.2-3.9-7.3-8-7c-3.8,0.2-6.8,3.3-7,7c0.1,4,3.5,7.2,7.5,7.1
		c1.4-0.1,2.7,0.9,2.8,2.4c-0.3,1.6-1.8,2.6-3.4,2.3c-1.2-0.2-2.1-1.1-2.3-2.3c0-1.3-1.1-2.4-2.4-2.4c-1.3,0-2.4,1.1-2.4,2.4
		c0.3,4.2,3.9,7.3,8,7c3.8-0.2,6.8-3.3,7-7C-161.9,366.6-165.2,363.4-169.3,363.5z"/>
	<path fill="#FC4D4A" d="M-123.7,401.8H-187c-1.3,0-2.4,1.1-2.4,2.4s1.1,2.4,2.4,2.4h63.3c1.3,0,2.4-1.1,2.4-2.4
		S-122.4,401.8-123.7,401.8z"/>
	<path fill="#FC4D4A" d="M-164.8,413.6H-187c-1.3,0-2.4,1.1-2.4,2.4s1.1,2.4,2.4,2.4h22.2c1.3,0,2.4-1.1,2.4-2.4
		S-163.5,413.6-164.8,413.6z"/>
	<path fill="#FC4D4A" d="M-153.6,414.3c-0.9-0.9-2.4-0.9-3.3,0s-0.9,2.4,0,3.3s2.4,0.9,3.3,0c0.4-0.4,0.7-1,0.7-1.7
		C-152.9,415.3-153.2,414.7-153.6,414.3z"/>
	<path fill="#FC4D4A" d="M-123.7,413.6h-22.6c-1.3,0-2.4,1-2.4,2.3c0,1.3,1,2.4,2.3,2.4c0,0,0,0,0,0h22.6c1.3,0,2.4-1,2.4-2.3
		C-121.3,414.6-122.4,413.6-123.7,413.6C-123.7,413.6-123.7,413.6-123.7,413.6z"/>
	<path fill="#FC4D4A" d="M-174.2,341.6c-0.9-0.9-2.4-0.9-3.3,0c-0.9,0.9-0.9,2.4,0,3.3s2.4,0.9,3.3,0c0.4-0.4,0.7-1,0.7-1.7
		C-173.5,342.7-173.7,342.1-174.2,341.6z"/>
</g>
</svg>
