<svg xmlns="http://www.w3.org/2000/svg" width="150" height="150" viewBox="0 0 150 150"><defs><style>.cls-1{fill:#fff;}</style></defs><title>On-page SEO</title><g id="On-page_SEO" data-name="On-page SEO"><path class="cls-1" d="M132.5346,109.22251h-1.64545V52.8361l.50022-.50069a11.96247,11.96247,0,0,0,.0094-16.87742L115.63368,19.64824a2.35179,2.35179,0,0,0-1.66449-.69062H63.96855a2.35065,2.35065,0,1,0,0,4.70129h49.02512l15.07611,15.1189a7.2536,7.2536,0,0,1-.00564,10.234L112.99508,64.09006H46.971V21.30827a2.35065,2.35065,0,1,0-4.70129,0V37.76563h-14.339a9.41326,9.41326,0,0,0-9.40259,9.40259v62.05429H16.88272a2.35076,2.35076,0,0,0-2.35065,2.35065v1.93928A13.11975,13.11975,0,0,0,27.63693,126.6173h94.14346a13.11975,13.11975,0,0,0,13.10486-13.10486v-1.93928A2.35075,2.35075,0,0,0,132.5346,109.22251ZM23.22947,47.16822a4.70663,4.70663,0,0,1,4.70129-4.7013h14.339V66.44071a2.35075,2.35075,0,0,0,2.35065,2.35065h69.34881a2.351,2.351,0,0,0,1.66262-.689l10.556-10.56216v51.68229h-3.9961V74.7016a2.35065,2.35065,0,1,0-4.70129,0v34.52091H31.92687V51.39656h4.81882a2.35065,2.35065,0,1,0,0-4.70129H29.57622a2.35076,2.35076,0,0,0-2.35065,2.35065v60.17659h-3.9961ZM121.78039,121.916H27.63693a8.41456,8.41456,0,0,1-8.39369-7.99221H130.17385A8.41419,8.41419,0,0,1,121.78039,121.916Z"/><path class="cls-1" d="M84.98217,115.56926H64.4154a2.35065,2.35065,0,0,0,0,4.70129H84.98217a2.35065,2.35065,0,0,0,0-4.70129Z"/><path class="cls-1" d="M117.14444,36.82255a7.05194,7.05194,0,1,0,7.05195,7.05194A7.05994,7.05994,0,0,0,117.14444,36.82255Zm0,9.40259a2.35065,2.35065,0,1,1,2.35065-2.35065A2.35331,2.35331,0,0,1,117.14444,46.22514Z"/><path class="cls-1" d="M95.33254,32.12125a11.75324,11.75324,0,1,0,11.75324,11.75324A11.76658,11.76658,0,0,0,95.33254,32.12125Zm0,18.80518a7.05194,7.05194,0,1,1,7.052-7.05194A7.05994,7.05994,0,0,1,95.33254,50.92643Z"/><path class="cls-1" d="M82.41079,50.92643H75.26294V46.22514h4.65335a2.35065,2.35065,0,0,0,0-4.7013H75.26294V36.82255h7.14785a2.35065,2.35065,0,0,0,0-4.7013h-9.4985a2.35076,2.35076,0,0,0-2.35065,2.35065V53.27708a2.35076,2.35076,0,0,0,2.35065,2.35065h9.4985a2.35065,2.35065,0,0,0,0-4.7013Z"/><path class="cls-1" d="M60.72959,41.52384a2.62667,2.62667,0,0,1-2.82947-2.35065,2.87838,2.87838,0,0,1,5.65918,0,2.35065,2.35065,0,0,0,4.7013,0,7.54715,7.54715,0,0,0-15.06178,0,7.31151,7.31151,0,0,0,7.53077,7.052,2.62676,2.62676,0,0,1,2.82971,2.35065,2.87838,2.87838,0,0,1-5.65918,0,2.35065,2.35065,0,0,0-4.7013,0,7.54715,7.54715,0,0,0,15.06178,0A7.31157,7.31157,0,0,0,60.72959,41.52384Z"/><path class="cls-1" d="M106.29385,79.83917H42.9695a2.35065,2.35065,0,0,0,0,4.7013h63.32435a2.35065,2.35065,0,0,0,0-4.7013Z"/><path class="cls-1" d="M65.22779,91.59241H42.98855a2.35065,2.35065,0,1,0,0,4.7013H65.22779a2.35065,2.35065,0,0,0,0-4.7013Z"/><path class="cls-1" d="M76.37057,92.28138a2.34916,2.34916,0,1,0,.68874,1.66191A2.36847,2.36847,0,0,0,76.37057,92.28138Z"/><path class="cls-1" d="M106.31265,91.59265H83.7194a2.35065,2.35065,0,1,0,0,4.70129h22.59325a2.35065,2.35065,0,1,0,0-4.70129Z"/><path class="cls-1" d="M55.84941,19.64636a2.34915,2.34915,0,1,0,.68874,1.66191A2.36844,2.36844,0,0,0,55.84941,19.64636Z"/></g></svg>