<svg xmlns="http://www.w3.org/2000/svg" width="150" height="150" viewBox="0 0 150 150"><defs><style>.cls-1{fill:#fff;}</style></defs><title>Schema Optimization</title><g id="Schema_Optimization" data-name="Schema Optimization"><path class="cls-1" d="M122.37529,40.81779,98.953,17.39555a1.95185,1.95185,0,0,0-1.38021-.57165h-66.363A1.95185,1.95185,0,0,0,29.258,18.77575V131.98327a1.95185,1.95185,0,0,0,1.95185,1.95185h89.78527a1.95185,1.95185,0,0,0,1.95185-1.95185V42.198A1.95185,1.95185,0,0,0,122.37529,40.81779ZM99.52469,23.488l16.75813,16.75813H99.52469Zm-66.363,106.54339V20.72761H95.621V42.198a1.95185,1.95185,0,0,0,1.95185,1.95185h21.4704v85.88156Z"/><path class="cls-1" d="M76.10244,67.5721a7.80742,7.80742,0,1,0,7.80742,7.80741A7.80741,7.80741,0,0,0,76.10244,67.5721Zm0,11.71112a3.90371,3.90371,0,1,1,3.90371-3.90371A3.9037,3.9037,0,0,1,76.10244,79.28322Z"/><path class="cls-1" d="M113.18766,48.05356H101.47654a1.95185,1.95185,0,0,0-1.95185,1.95185v8.43348l-7.52537,4.70323-4.75765-4.75764a1.95186,1.95186,0,0,0-2.76034-.00007l-.00006.00007L81.96045,60.9053l-.00244-.00122V57.81283A1.95186,1.95186,0,0,0,80.00615,55.861H78.0543V44.14985h7.80741A1.95185,1.95185,0,0,0,87.81357,42.198V30.48688A1.95186,1.95186,0,0,0,85.86171,28.535H66.34318a1.95186,1.95186,0,0,0-1.95186,1.95186V42.198a1.95185,1.95185,0,0,0,1.95186,1.95185h7.80741V55.861H72.19874a1.95186,1.95186,0,0,0-1.95186,1.95186v3.09125l-.00268.00122-2.52082-2.52082a1.95185,1.95185,0,0,0-2.76034-.00007l-.00007.00007-4.75764,4.75764-7.88818-4.92843a7.80741,7.80741,0,1,0-9.79674,5.09267q.19869.06278.40052.11488v15.862H39.01722a1.95185,1.95185,0,0,0-1.95185,1.95185V92.94619a1.95185,1.95185,0,0,0,1.95185,1.95186H50.72835a1.95186,1.95186,0,0,0,1.95185-1.95186V81.23507a1.95185,1.95185,0,0,0-1.95185-1.95185H46.82464v-15.862a7.8021,7.8021,0,0,0,3.41794-1.90062l9.02244,5.636,2.36321,2.36345-.00122.00268H58.53576a1.95185,1.95185,0,0,0-1.95185,1.95186V79.282a1.95185,1.95185,0,0,0,1.95185,1.95185H61.627l.00122.00268-2.52082,2.52082a1.95186,1.95186,0,0,0-.00007,2.76034l.00007.00007L64.963,92.37332a1.95187,1.95187,0,0,0,2.76034.00007l.00007-.00007L70.2442,89.8525h.00268v3.09369a1.95186,1.95186,0,0,0,1.95186,1.95186h7.80741A1.95186,1.95186,0,0,0,81.958,92.94619V89.85494h.00268l2.52081,2.52082a1.95187,1.95187,0,0,0,2.52205.20007l7.79814,10.02765a11.666,11.666,0,0,0-3.08442,7.9094H83.90986v-3.90371a1.95185,1.95185,0,0,0-1.95185-1.95185H70.24688a1.95185,1.95185,0,0,0-1.95185,1.95185v11.71112a1.95186,1.95186,0,0,0,1.95185,1.95186H81.958a1.95186,1.95186,0,0,0,1.95185-1.95186v-3.90371h8.47885a11.71429,11.71429,0,1,0,5.49154-14.21437L89.802,89.8142,93.09748,86.519a1.95185,1.95185,0,0,0,.00007-2.76034l-.00007-.00007-2.52082-2.52082v-.00268h3.09247A1.95185,1.95185,0,0,0,95.621,79.28322V71.4758A1.95185,1.95185,0,0,0,93.66913,69.524H90.57788v-.00268l2.3632-2.36345,6.93152-4.33214a1.94847,1.94847,0,0,0,1.60394.84271h11.71112a1.95186,1.95186,0,0,0,1.95186-1.95185V50.00541A1.95186,1.95186,0,0,0,113.18766,48.05356ZM68.295,32.43873H83.90986v7.80742H68.295ZM48.77649,90.99434H40.96908V83.18693h7.80741Zm-3.9037-31.22966a3.90371,3.90371,0,1,1,3.9037-3.90371A3.90371,3.90371,0,0,1,44.87279,59.76468Zm35.13336,56.60376H72.19874V108.561h7.80741Zm31.22966-5.85556a7.80742,7.80742,0,1,1-7.80741-7.80742A7.8074,7.8074,0,0,1,111.23581,110.51288ZM91.71727,73.42766v3.9037H89.19645a1.95188,1.95188,0,0,0-1.87085,1.39485,11.66117,11.66117,0,0,1-.82246,2.03335,1.95184,1.95184,0,0,0,.3528,2.27854l2.10068,2.10068-3.09491,3.0954L83.761,86.13325a1.95186,1.95186,0,0,0-2.27854-.3528,11.66241,11.66241,0,0,1-2.03335.82222,1.95184,1.95184,0,0,0-1.39484,1.87085v2.52082H74.15059V88.47352a1.95184,1.95184,0,0,0-1.39484-1.87085,11.662,11.662,0,0,1-2.03335-.82246,1.95184,1.95184,0,0,0-2.27854.3528l-2.10068,2.10117L63.248,85.13878l2.10069-2.10068a1.95186,1.95186,0,0,0,.35279-2.27854,11.66159,11.66159,0,0,1-.82221-2.03335,1.95187,1.95187,0,0,0-1.87086-1.39485H60.48761v-3.9037h2.52082a1.95188,1.95188,0,0,0,1.87086-1.39484,11.66117,11.66117,0,0,1,.82246-2.03335,1.95184,1.95184,0,0,0-.3528-2.27854l-2.10068-2.10069,3.09491-3.09515,2.10068,2.10068a1.95184,1.95184,0,0,0,2.27854.3528,11.6432,11.6432,0,0,1,2.03335-.82222,1.95184,1.95184,0,0,0,1.39484-1.87085V59.76468H78.0543V62.2855a1.95184,1.95184,0,0,0,1.39484,1.87085,11.64351,11.64351,0,0,1,2.03335.82222,1.95184,1.95184,0,0,0,2.27854-.3528l2.10068-2.10068,3.09516,3.09515-2.10068,2.10069a1.95184,1.95184,0,0,0-.3528,2.27854,11.66316,11.66316,0,0,1,.82221,2.03335,1.95187,1.95187,0,0,0,1.87085,1.39484Zm19.51854-13.663H103.4284V51.95727h7.80741Z"/><path class="cls-1" d="M62.43947,108.561H39.01722a1.95186,1.95186,0,0,0,0,3.90371H62.43947a1.95186,1.95186,0,0,0,0-3.90371Z"/><path class="cls-1" d="M62.43947,116.36844H39.01722a1.95186,1.95186,0,0,0,0,3.90371H62.43947a1.95186,1.95186,0,0,0,0-3.90371Z"/><path class="cls-1" d="M39.01722,104.65732h3.90371a1.95186,1.95186,0,1,0,0-3.90371H39.01722a1.95186,1.95186,0,0,0,0,3.90371Z"/><path class="cls-1" d="M62.43947,100.75361H50.72835a1.95186,1.95186,0,1,0,0,3.90371H62.43947a1.95186,1.95186,0,0,0,0-3.90371Z"/><path class="cls-1" d="M39.01722,40.24615H58.53576a1.95186,1.95186,0,0,0,0-3.90371H39.01722a1.95186,1.95186,0,0,0,0,3.90371Z"/><path class="cls-1" d="M39.01722,32.43873h3.90371a1.95186,1.95186,0,1,0,0-3.90371H39.01722a1.95186,1.95186,0,0,0,0,3.90371Z"/><path class="cls-1" d="M50.72835,32.43873h7.80741a1.95186,1.95186,0,0,0,0-3.90371H50.72835a1.95186,1.95186,0,1,0,0,3.90371Z"/></g></svg>