<?xml version="1.0" encoding="utf-8"?>
<!-- Generator: Adobe Illustrator 18.1.1, SVG Export Plug-In . SVG Version: 6.00 Build 0)  -->
<svg version="1.1" id="Layer_1" xmlns="http://www.w3.org/2000/svg" xmlns:xlink="http://www.w3.org/1999/xlink" x="0px" y="0px"
	 viewBox="-230 322 150 150" enable-background="new -230 322 150 150" xml:space="preserve">
<title>Schema Optimization</title>
<g id="Schema_Optimization">
	<path fill="#E20031" d="M-107.6,362.8l-23.4-23.4c-0.4-0.4-0.9-0.6-1.4-0.6h-66.4c-1.1,0-2,0.9-2,2V454c0,1.1,0.9,2,2,2h89.8
		c1.1,0,2-0.9,2-2v-89.8C-107.1,363.7-107.3,363.2-107.6,362.8z M-130.5,345.5l16.8,16.8h-16.8V345.5z M-196.8,452V342.7h62.5v21.5
		c0,1.1,0.9,2,2,2l0,0h21.5V452L-196.8,452z"/>
	<path fill="#E20031" d="M-153.9,389.6c-4.3,0-7.8,3.5-7.8,7.8s3.5,7.8,7.8,7.8s7.8-3.5,7.8-7.8l0,0
		C-146.1,393.1-149.6,389.6-153.9,389.6L-153.9,389.6z M-153.9,401.3c-2.2,0-3.9-1.7-3.9-3.9c0-2.2,1.7-3.9,3.9-3.9
		c2.2,0,3.9,1.7,3.9,3.9l0,0C-150,399.5-151.7,401.3-153.9,401.3C-153.9,401.3-153.9,401.3-153.9,401.3z"/>
	<path fill="#E20031" d="M-116.8,370.1h-11.7c-1.1,0-2,0.9-2,2l0,0v8.4l-7.5,4.7l-4.8-4.8c-0.8-0.8-2-0.8-2.8,0l0,0l-2.5,2.5l0,0
		v-3.1c0-1.1-0.9-2-2-2h-2v-11.7h7.8c1.1,0,2-0.9,2-2l0,0v-11.7c0-1.1-0.9-2-2-2c0,0,0,0,0,0h-19.5c-1.1,0-2,0.9-2,2v11.7
		c0,1.1,0.9,2,2,2l0,0h7.8v11.7h-2c-1.1,0-2,0.9-2,2v3.1l0,0l-2.5-2.5c-0.8-0.8-2-0.8-2.8,0c0,0,0,0,0,0l0,0l-4.8,4.8l-7.9-4.9
		c1.3-4.1-1-8.5-5.1-9.8c-4.1-1.3-8.5,1-9.8,5.1c-1.3,4.1,1,8.5,5.1,9.8c0.1,0,0.3,0.1,0.4,0.1v15.9h-3.9c-1.1,0-2,0.9-2,2l0,0v11.7
		c0,1.1,0.9,2,2,2c0,0,0,0,0,0h11.7c1.1,0,2-0.9,2-2v-11.7c0-1.1-0.9-2-2-2l0,0h-3.9v-15.9c1.3-0.3,2.5-1,3.4-1.9l9,5.6l2.4,2.4l0,0
		h-3.1c-1.1,0-2,0.9-2,2l0,0v7.8c0,1.1,0.9,2,2,2l0,0h3.1l0,0l-2.5,2.5c-0.8,0.8-0.8,2,0,2.8c0,0,0,0,0,0l0,0l5.9,5.9
		c0.8,0.8,2,0.8,2.8,0l0,0l2.5-2.5h0v3.1c0,1.1,0.9,2,2,2h7.8c1.1,0,2-0.9,2-2v-3.1h0l2.5,2.5c0.7,0.7,1.7,0.8,2.5,0.2l7.8,10
		c-2,2.2-3.1,5-3.1,7.9h-7.8v-3.9c0-1.1-0.9-2-2-2l0,0h-11.7c-1.1,0-2,0.9-2,2l0,0v11.7c0,1.1,0.9,2,2,2h11.7c1.1,0,2-0.9,2-2v-3.9
		h8.5c2.2,6.1,8.8,9.3,14.9,7.1c6.1-2.2,9.3-8.8,7.1-14.9c-2.2-6.1-8.8-9.3-14.9-7.1c-0.6,0.2-1.1,0.4-1.7,0.7l-8.1-10.4l3.3-3.3
		c0.8-0.8,0.8-2,0-2.8l0,0l-2.5-2.5v0h3.1c1.1,0,2-0.9,2-2c0,0,0,0,0,0v-7.8c0-1.1-0.9-2-2-2h-3.1v0l2.4-2.4l6.9-4.3
		c0.4,0.5,1,0.8,1.6,0.8h11.7c1.1,0,2-0.9,2-2V372C-114.9,370.9-115.7,370.1-116.8,370.1z M-161.7,354.4h15.6v7.8h-15.6V354.4z
		 M-181.2,413h-7.8v-7.8h7.8V413z M-185.1,381.8c-2.2,0-3.9-1.7-3.9-3.9c0-2.2,1.7-3.9,3.9-3.9c2.2,0,3.9,1.7,3.9,3.9c0,0,0,0,0,0
		C-181.2,380-183,381.8-185.1,381.8z M-150,438.4h-7.8v-7.8h7.8V438.4z M-118.8,432.5c0,4.3-3.5,7.8-7.8,7.8s-7.8-3.5-7.8-7.8
		s3.5-7.8,7.8-7.8h0C-122.3,424.7-118.8,428.2-118.8,432.5C-118.8,432.5-118.8,432.5-118.8,432.5z M-138.3,395.4v3.9h-2.5
		c-0.9,0-1.6,0.6-1.9,1.4c-0.2,0.7-0.5,1.4-0.8,2c-0.4,0.8-0.2,1.7,0.4,2.3l2.1,2.1l-3.1,3.1l-2.1-2.1c-0.6-0.6-1.5-0.7-2.3-0.4
		c-0.7,0.3-1.3,0.6-2,0.8c-0.8,0.2-1.4,1-1.4,1.9v2.5h-3.9v-2.5c0-0.9-0.6-1.6-1.4-1.9c-0.7-0.2-1.4-0.5-2-0.8
		c-0.8-0.4-1.7-0.2-2.3,0.4l-2.1,2.1l-3.1-3.1l2.1-2.1c0.6-0.6,0.7-1.5,0.4-2.3c-0.3-0.7-0.6-1.3-0.8-2c-0.2-0.8-1-1.4-1.9-1.4h-2.5
		v-3.9h2.5c0.9,0,1.6-0.6,1.9-1.4c0.2-0.7,0.5-1.4,0.8-2c0.4-0.8,0.2-1.7-0.4-2.3l-2.1-2.1l3.1-3.1l2.1,2.1c0.6,0.6,1.5,0.7,2.3,0.4
		c0.7-0.3,1.3-0.6,2-0.8c0.8-0.2,1.4-1,1.4-1.9v-2.5h3.9v2.5c0,0.9,0.6,1.6,1.4,1.9c0.7,0.2,1.4,0.5,2,0.8c0.8,0.4,1.7,0.2,2.3-0.4
		l2.1-2.1l3.1,3.1l-2.1,2.1c-0.6,0.6-0.7,1.5-0.4,2.3c0.3,0.7,0.6,1.3,0.8,2c0.2,0.8,1,1.4,1.9,1.4H-138.3z M-118.8,381.8h-7.8V374
		h7.8V381.8z"/>
	<path fill="#E20031" d="M-167.6,430.6H-191c-1.1,0-1.9,0.9-1.9,2c0,1.1,0.9,1.9,1.9,1.9h23.4c1.1,0,1.9-0.9,1.9-2
		C-165.6,431.4-166.5,430.6-167.6,430.6z"/>
	<path fill="#E20031" d="M-167.6,438.4H-191c-1.1,0-1.9,0.9-1.9,2c0,1.1,0.9,1.9,1.9,1.9h23.4c1.1,0,1.9-0.9,1.9-2
		C-165.6,439.2-166.5,438.4-167.6,438.4z"/>
	<path fill="#E20031" d="M-191,426.7h3.9c1.1,0,2-0.9,2-1.9c0-1.1-0.9-2-1.9-2c0,0,0,0,0,0h-3.9c-1.1,0-1.9,0.9-1.9,2
		C-192.9,425.8-192.1,426.7-191,426.7z"/>
	<path fill="#E20031" d="M-167.6,422.8h-11.7c-1.1,0-2,0.9-2,1.9c0,1.1,0.9,2,1.9,2c0,0,0,0,0,0h11.7c1.1,0,1.9-0.9,1.9-2
		C-165.6,423.6-166.5,422.8-167.6,422.8z"/>
	<path fill="#E20031" d="M-191,362.2h19.5c1.1,0,1.9-0.9,1.9-2c0-1.1-0.9-1.9-1.9-1.9H-191c-1.1,0-1.9,0.9-1.9,2
		C-192.9,361.4-192.1,362.2-191,362.2z"/>
	<path fill="#E20031" d="M-191,354.4h3.9c1.1,0,2-0.9,2-1.9c0-1.1-0.9-2-1.9-2c0,0,0,0,0,0h-3.9c-1.1,0-1.9,0.9-1.9,2
		C-192.9,353.6-192.1,354.4-191,354.4z"/>
	<path fill="#E20031" d="M-179.3,354.4h7.8c1.1,0,1.9-0.9,1.9-2c0-1.1-0.9-1.9-1.9-1.9h-7.8c-1.1,0-2,0.9-2,1.9
		C-181.2,353.6-180.4,354.4-179.3,354.4C-179.3,354.4-179.3,354.4-179.3,354.4z"/>
</g>
</svg>
