<?xml version="1.0" encoding="utf-8"?>
<!-- Generator: Adobe Illustrator 18.1.1, SVG Export Plug-In . SVG Version: 6.00 Build 0)  -->
<svg version="1.1" id="Layer_1" xmlns="http://www.w3.org/2000/svg" xmlns:xlink="http://www.w3.org/1999/xlink" x="0px" y="0px"
	 viewBox="-230 322 150 150" enable-background="new -230 322 150 150" xml:space="preserve">
<title>SEO Audit For The Website</title>
<g id="SEO_Audit_For_The_Website">
	<path fill="#E20031" d="M-106.8,359.7c-0.7-3.2-3.3-5.8-6.5-6.5c-0.7-3.2-3.3-5.8-6.5-6.5c-0.9-3.9-4.4-6.7-8.4-6.7H-167
		c-2.8,0-5.4,1.1-7.3,3c0,0,0,0,0,0.1l-14.2,14.2c-2,1.9-3,4.6-3,7.3v32.7c-3.9,8.1-3.4,17.8,1.4,25.4l-2.7,2.7
		c-2-0.7-4.2-0.2-5.7,1.3l-12.2,12.2c-2.1,2.1-2.1,5.6,0,7.8c0,0,0,0,0,0l4.8,4.8c2.1,2.1,5.6,2.1,7.8,0l5.7-5.7
		c0.6-0.6,0.7-1.7,0-2.3c-0.6-0.6-1.7-0.7-2.3,0c0,0,0,0,0,0l-5.7,5.7c-0.8,0.8-2.2,0.8-3.1,0l-4.8-4.8c-0.8-0.8-0.8-2.2,0-3.1
		l12.2-12.2c0.9-0.8,2.2-0.8,3.1,0l4.8,4.8c0.8,0.9,0.8,2.2,0,3.1l-1.8,1.8c-0.6,0.6-0.6,1.7,0,2.3s1.7,0.6,2.3,0l0,0l1.8-1.8
		c1.5-1.5,2-3.7,1.3-5.7l2.7-2.7c2.6,1.6,5.5,2.8,8.5,3.4c0.5,0.2,1.1,0.4,1.7,0.6c0.9,3.9,4.4,6.7,8.4,6.7h54.8
		c4.8,0,8.6-3.9,8.6-8.6v-64.9C-100.1,364.1-102.9,360.6-106.8,359.7z M-119.6,413.5v-63.2c1.8,0.8,3,2.5,3.2,4.5c0,0.1,0,0.2,0,0.3
		V420c0,2.9-2.4,5.3-5.3,5.3h-26c0.8-1,1.6-2.1,2.2-3.2h17.3C-123.4,422.1-119.6,418.3-119.6,413.5L-119.6,413.5z M-172.2,345.5
		c-0.1,0.4-0.1,0.8-0.1,1.2v7.2c0,2.9-2.4,5.3-5.3,5.3h-7.2c-0.4,0-0.8,0-1.2,0.1L-172.2,345.5z M-188.3,366.1
		C-188.3,366.1-188.3,366.1-188.3,366.1c0-1.9,1.5-3.5,3.4-3.5h7.2c4.8,0,8.6-3.9,8.6-8.6v-7.2c0-1.9,1.5-3.4,3.4-3.4l0,0h37.3
		c2.8,0,5.1,2.2,5.3,5c0,0.1,0,0.2,0,0.3v64.9c0,2.9-2.4,5.3-5.3,5.3h-15.6c5.6-13.4-0.8-28.7-14.1-34.3c-9.8-4.1-21.1-1.8-28.6,5.7
		c-0.6,0.6-1.2,1.2-1.7,1.9V366.1z M-184.2,392.6c8.9-8.9,23.4-8.9,32.4,0c8.9,8.9,8.9,23.4,0,32.4c-8.9,8.9-23.4,8.9-32.4,0
		c0,0,0,0,0,0c-8.9-8.9-9-23.3-0.1-32.3C-184.3,392.6-184.3,392.6-184.2,392.6z M-186.7,430.9l-3.5-3.5l2-2c0.5,0.6,1.1,1.2,1.7,1.8
		c0.6,0.6,1.2,1.2,1.8,1.7L-186.7,430.9z M-103.4,433c0,2.9-2.4,5.3-5.3,5.3h-54.8c-2.1,0-4-1.3-4.9-3.2h53.1c4.8,0,8.6-3.9,8.6-8.6
		v-47.9c0-0.9-0.7-1.7-1.7-1.7s-1.7,0.7-1.7,1.7v47.9c0,2.9-2.4,5.3-5.3,5.3h-40.4c1.7-0.9,3.2-2,4.6-3.2h29.3
		c4.8,0,8.6-3.9,8.6-8.6v-63.2c1.9,0.8,3.2,2.8,3.2,4.9V372c0,0.9,0.7,1.7,1.7,1.7s1.7-0.7,1.7-1.7v-8.7c1.9,0.8,3.2,2.8,3.2,4.9
		L-103.4,433L-103.4,433z"/>
	<path fill="#E20031" d="M-168,427.8c10.5,0,19-8.5,19-19c0-10.5-8.5-19-19-19s-19,8.5-19,19c0,5,2,9.9,5.6,13.4
		C-177.9,425.8-173.1,427.8-168,427.8z M-179.1,397.7c6.1-6.1,16.1-6.1,22.2,0c6.1,6.1,6.1,16.1,0,22.2s-16.1,6.1-22.2,0
		c0,0,0,0,0,0C-185,413.8-184.7,404-179.1,397.7L-179.1,397.7z"/>
	<path fill="#E20031" d="M-181.8,379.7c0.9,0.3,1.8-0.1,2.1-1l0.6-1.6h4.4l0.6,1.6c0.3,0.9,1.3,1.3,2.1,1s1.3-1.3,1-2.1c0,0,0,0,0,0
		l-4.1-10.9c0,0,0,0,0,0c-0.3-0.7-1-1.2-1.8-1.2h0c-0.8,0-1.5,0.5-1.8,1.2l0,0l-4.1,10.9C-183.1,378.4-182.7,379.3-181.8,379.7
		C-181.8,379.7-181.8,379.7-181.8,379.7z M-176,373.8h-1.8l0.9-2.4L-176,373.8z"/>
	<path fill="#E20031" d="M-141.9,379.8c0.9,0,1.7-0.7,1.7-1.7c0,0,0,0,0,0v-11c0-0.9-0.7-1.7-1.7-1.7c-0.9,0-1.7,0.7-1.7,1.7v11
		C-143.5,379-142.8,379.8-141.9,379.8C-141.9,379.8-141.9,379.8-141.9,379.8z"/>
	<path fill="#E20031" d="M-156.3,378.1c0,0.9,0.7,1.7,1.7,1.7h0c0.1,0,2.3,0,3.2,0c3.5-0.1,6-3.1,6-7.1c0-4.3-2.5-7.2-6.1-7.2h-3.1
		c-0.9,0-1.7,0.7-1.7,1.7c0,0,0,0,0,0c0,0,0,4.2,0,5.5C-156.3,374.1-156.3,378.1-156.3,378.1L-156.3,378.1z M-151.6,368.8
		c2.6,0,2.8,2.9,2.8,3.9c0,1.9-0.8,3.8-2.7,3.8c-0.4,0-0.9,0-1.5,0c0-1.3,0-3,0-3.9c0-0.7,0-2.5,0-3.8H-151.6z"/>
	<path fill="#E20031" d="M-167,378.9c0.9,0.6,1.9,0.8,2.9,0.8h0c0.9,0,1.8-0.2,2.6-0.6c1.8-0.8,3-2.5,3-4.5v-7.6
		c0-0.9-0.7-1.7-1.7-1.7c-0.9,0-1.7,0.7-1.7,1.7v7.6c0,0.5-0.1,1-1.2,1.5c-0.3,0.2-0.7,0.2-1.1,0.2h0c-0.4,0-0.8-0.1-1.1-0.3
		c-0.8-0.5-1-0.9-1-1.5v-7.6c0-0.9-0.7-1.7-1.7-1.7c-0.9,0-1.7,0.7-1.7,1.7v7.6C-169.5,376.4-168.5,378.1-167,378.9z"/>
	<path fill="#E20031" d="M-136,368.8h1.4v9.4c0,0.9,0.7,1.7,1.7,1.7c0.9,0,1.7-0.7,1.7-1.7v-9.4h1.4c0.9,0,1.7-0.7,1.7-1.7
		c0-0.9-0.7-1.7-1.7-1.7h-6.1c-0.9,0-1.7,0.7-1.7,1.7C-137.7,368-136.9,368.8-136,368.8L-136,368.8z"/>
	<path fill="#E20031" d="M-169.5,422.1c0.1,0,0.3,0,0.4,0c1.7-0.1,3.3-1.1,4.1-2.6l7.7-13.7c1.4-2.5,0.5-5.6-1.9-7
		c-2.5-1.4-5.6-0.5-7,1.9c0,0,0,0,0,0l-3.9,6.9l-1.1-1.4c-1.7-2.3-5-2.7-7.3-0.9c-2.3,1.7-2.7,5-0.9,7.3c0,0,0,0,0,0l5.9,7.6
		C-172.6,421.4-171.1,422.1-169.5,422.1L-169.5,422.1z M-176.5,407.9c0.8-0.6,2-0.5,2.6,0.3l2.6,3.4c0.6,0.7,1.6,0.9,2.3,0.3
		c0.2-0.1,0.3-0.3,0.4-0.5l5.1-9.1c0.5-0.9,1.6-1.2,2.5-0.7c0.9,0.5,1.2,1.6,0.7,2.5l-7.7,13.7c-0.5,0.9-1.6,1.2-2.5,0.7
		c-0.2-0.1-0.4-0.3-0.6-0.5l-5.9-7.6C-177.5,409.7-177.3,408.6-176.5,407.9L-176.5,407.9z"/>
	<text transform="matrix(1 0 0 1 -153.0153 362.2202)" fill="#E20031" font-family="'ArialMT'" font-size="12">SEO</text>
</g>
</svg>
