<svg xmlns="http://www.w3.org/2000/svg" width="150" height="150" viewBox="0 0 150 150"><defs><style>.cls-1,.cls-2{fill:#fff;}.cls-2{font-size:12px;font-family:ArialRoundedMTBold, Arial Rounded MT Bold;}</style></defs><title>SEO Audit For The Website</title><g id="SEO_Audit_For_The_Website" data-name="SEO Audit For The Website"><path class="cls-1" d="M123.21361,37.73283a8.66376,8.66376,0,0,0-6.50638-6.50483,8.66079,8.66079,0,0,0-6.50351-6.50528,8.65279,8.65279,0,0,0-8.41836-6.72113H62.97774a10.30855,10.30855,0,0,0-7.338,3.03944c-.017.01679-.03336.03424-.04971.0517L41.42355,35.2548a10.32361,10.32361,0,0,0-3.03833,7.34174V75.30563A26.30638,26.30638,0,0,0,39.786,100.72334l-2.74691,2.74692a5.49132,5.49132,0,0,0-5.66483,1.302l-12.17783,12.1796a5.48779,5.48779,0,0,0-.00023,7.76064l4.801,4.801a5.49393,5.49393,0,0,0,7.76042.00023l5.73774-5.73553a1.657,1.657,0,1,0-2.343-2.3437l-5.73774,5.73575a2.17624,2.17624,0,0,1-3.07412,0l-4.801-4.801a2.17383,2.17383,0,0,1,.00022-3.07412L33.7177,107.11505a2.17925,2.17925,0,0,1,3.07611,0l4.8003,4.80009a2.1791,2.1791,0,0,1,.00066,3.077l-1.75644,1.75645a1.65709,1.65709,0,0,0,2.34348,2.34348l1.75623-1.75645a5.49061,5.49061,0,0,0,1.30176-5.66505l2.74691-2.74691a26.06637,26.06637,0,0,0,8.47692,3.44153,8.567,8.567,0,0,0,1.65393.56008,8.65513,8.65513,0,0,0,8.41947,6.71826h54.7637a8.64513,8.64513,0,0,0,8.63423-8.63644V46.15119a8.65341,8.65341,0,0,0-6.72135-8.41837Zm-12.794,53.7591V28.269a5.33543,5.33543,0,0,1,3.17929,4.5354c.00729.10273.011.2132.011.338V97.99853a5.32627,5.32627,0,0,1-5.32017,5.32017H82.26291a26.04809,26.04809,0,0,0,2.23147-3.19033h17.291A8.64512,8.64512,0,0,0,110.41958,91.49193Zm-52.59895-67.943a6.77213,6.77213,0,0,0-.11114,1.21294v7.2421a5.32627,5.32627,0,0,1-5.32017,5.32017h-7.2421a6.7693,6.7693,0,0,0-1.218.112ZM41.69928,44.12256c.00022-.01282.002-.02541.002-.03845a3.44992,3.44992,0,0,1,3.446-3.446h7.2421a8.64394,8.64394,0,0,0,8.63422-8.63423v-7.2421a3.44993,3.44993,0,0,1,3.446-3.446l.00641-.00022h37.30944a5.32954,5.32954,0,0,1,5.30912,4.9839c.00729.10208.011.2121.011.33627V91.49193a5.32745,5.32745,0,0,1-5.32017,5.32237H86.15229A26.20386,26.20386,0,0,0,43.42834,68.22238q-.92031.92031-1.72906,1.90779ZM45.772,70.56587a22.89065,22.89065,0,1,1,.00022,32.37216A22.81651,22.81651,0,0,1,45.772,70.56587ZM43.29467,108.929l-3.51423-3.51423,1.97452-1.9743q.78576.94981,1.67338,1.84108.88883.88882,1.84085,1.67293Zm83.32646,2.07836a5.32745,5.32745,0,0,1-5.32017,5.32237H66.53726a5.3348,5.3348,0,0,1-4.87718-3.19254h53.13429a8.645,8.645,0,0,0,8.63643-8.63422V56.606a1.657,1.657,0,0,0-3.31406,0v47.897a5.3273,5.3273,0,0,1-5.32237,5.32016H74.38606a26.042,26.042,0,0,0,4.64476-3.19033h29.25871a8.644,8.644,0,0,0,8.63423-8.63423V34.77139a5.333,5.333,0,0,1,3.19276,4.87542V49.99109a1.657,1.657,0,0,0,3.31406,0v-8.7142a5.33323,5.33323,0,0,1,3.19033,4.87431v64.85611Z"/><path class="cls-1" d="M61.95789,105.7627a19.01065,19.01065,0,1,0-13.4427-5.56806A18.88679,18.88679,0,0,0,61.95789,105.7627Zm-11.099-30.11a15.6967,15.6967,0,1,1,0,22.19844A15.5933,15.5933,0,0,1,50.8589,75.65272Z"/><path class="cls-1" d="M48.1639,57.66446a1.65723,1.65723,0,0,0,2.13845-.95865l.62393-1.63825h4.36041l.61664,1.63361a1.65693,1.65693,0,1,0,3.10041-1.17008L54.90381,44.66717c-.00552-.01525-.01171-.03049-.01789-.04574a1.90037,1.90037,0,0,0-1.76308-1.18113h-.00221a1.90058,1.90058,0,0,0-1.76286,1.18489l-.0148.03756L47.20526,55.526a1.65706,1.65706,0,0,0,.95864,2.13845Zm5.87185-5.91118H52.18827l.92794-2.43627Z"/><path class="cls-1" d="M88.12592,57.77294a1.65693,1.65693,0,0,0,1.657-1.657V45.09733a1.657,1.657,0,0,0-3.31406,0V56.11591A1.65692,1.65692,0,0,0,88.12592,57.77294Z"/><path class="cls-1" d="M73.68988,56.12188a1.65725,1.65725,0,0,0,1.657,1.65106h.00618c.09435-.00044,2.32139-.00883,3.21221-.02452,3.46872-.06054,5.98652-3.06418,5.98652-7.14179,0-4.28641-2.454-7.16632-6.1067-7.16632H75.32438a1.65689,1.65689,0,0,0-1.657,1.66012c0,.00022.008,4.238.008,5.494,0,1.5322.01458,5.52741.01458,5.52741Zm4.75523-9.36752c2.59137,0,2.79265,2.94863,2.79265,3.85226,0,1.88172-.84421,3.79526-2.73034,3.82818-.35262.00619-.93722.01127-1.509.01524-.0042-1.27988-.00884-2.97536-.00884-3.85557,0-.7386-.00287-2.50653-.00486-3.84011Z"/><path class="cls-1" d="M62.99166,56.93139a5.3512,5.3512,0,0,0,2.921.84155h.00839a5.63237,5.63237,0,0,0,2.55912-.59366,4.95269,4.95269,0,0,0,2.9884-4.508V45.09734a1.657,1.657,0,0,0-3.31406,0v7.57394c0,.47546-.13831,1.03112-1.165,1.54811a2.31987,2.31987,0,0,1-1.06823.23927h-.00442a2.06186,2.06186,0,0,1-1.14092-.32013c-.80267-.5128-.96373-.93855-.96373-1.45929V45.09733a1.657,1.657,0,0,0-3.31406,0v7.58213a4.86734,4.86734,0,0,0,2.4935,4.25193Z"/><path class="cls-1" d="M93.96705,46.75436H95.3404v9.36155a1.657,1.657,0,0,0,3.31406,0V46.75436h1.39787a1.657,1.657,0,0,0,0-3.31406H93.96705a1.657,1.657,0,0,0,0,3.31406Z"/><path class="cls-1" d="M60.48579,100.14847c.12505,0,.25054-.00464.37581-.0137a5.15663,5.15663,0,0,0,4.1249-2.61324l7.74009-13.7054a5.16826,5.16826,0,1,0-9.00031-5.0831l-3.91766,6.93721-1.10889-1.43013a5.16827,5.16827,0,1,0-8.16915,6.33317l5.87119,7.5735a5.20248,5.20248,0,0,0,4.084,2.00169Zm-7.007-14.20714a1.85431,1.85431,0,0,1,2.60153.32942l2.63578,3.39978a1.657,1.657,0,0,0,2.75244-.20039l5.14319-9.107a1.85438,1.85438,0,0,1,3.22944,1.82362L62.10106,95.89212a1.85444,1.85444,0,0,1-3.08009.22426L53.15,88.54309A1.85642,1.85642,0,0,1,53.47877,85.94133Z"/><text class="cls-2" transform="translate(76.98472 40.22023)">SEO</text></g></svg>