<?xml version="1.0" encoding="utf-8"?>
<!-- Generator: Adobe Illustrator 23.0.1, SVG Export Plug-In . SVG Version: 6.00 Build 0)  -->
<svg version="1.1" xmlns="http://www.w3.org/2000/svg" xmlns:xlink="http://www.w3.org/1999/xlink" x="0px" y="0px"
	 viewBox="0 0 60 60" style="enable-background:new 0 0 60 60;" xml:space="preserve">
<style type="text/css">
	.st0{display:none;}
	.st1{display:inline;}
	.st2{fill:#F70D39;}
	.st3{clip-path:url(#SVGID_2_);}
</style>
<g id="Develop_a_Logo_Design_Brief" class="st0">
	<g class="st1">
		<path class="st2" d="M48.27,0c0.08,0,0.16,0,0.23,0c0.94,0.12,1.66,0.61,2.3,1.28c0.65,0.7,1.35,1.35,2.02,2.03
			c1.42,1.44,1.41,2.97-0.01,4.41c-1.28,1.29-2.57,2.57-3.84,3.85c-0.14,0.14-0.35,0.25-0.37,0.5c0.2,0.13,0.42,0.07,0.63,0.07
			c1.72,0.01,3.43,0,5.15,0c1.26,0,1.55,0.29,1.55,1.55c0,5.44,0,10.89,0,16.33c0,0.22-0.08,0.46,0.13,0.75
			c0.73-0.74,1.43-1.47,2.14-2.18c0.69-0.69,1.07-0.68,1.79-0.02c0,10.31,0,20.62,0.01,30.93c0,0.4-0.08,0.48-0.48,0.48
			c-10.15-0.01-20.31-0.01-30.46-0.01c-1.02-0.45-1.14-1.08-0.36-1.88c1.33-1.34,2.68-2.67,4.01-4.02c0.18-0.19,0.56-0.36,0.47-0.6
			c-0.1-0.26-0.49-0.11-0.75-0.11c-8.66-0.01-17.33-0.01-25.99-0.01c-1.12,0-2.16-0.31-3.12-0.87c-1.85-1.08-2.9-2.73-3.32-4.8
			C0,34.6,0,21.52,0,8.44C0.76,4.69,3.7,2.83,6.33,2.6c1.09-0.09,1.55,0.25,1.55,1.34c0.01,2.44,0,4.88,0,7.32
			c0,0.89,0,0.89,0.87,0.89c8.53,0,17.06,0,25.59,0.01c0.55,0,0.95-0.17,1.34-0.56c3.42-3.45,6.87-6.87,10.3-10.32
			C46.63,0.63,47.34,0.12,48.27,0z M23.26,34.08c0.01,0.03,0.01,0.06,0.02,0.09c0.21,0,0.41,0,0.62,0c5.19,0,10.39,0,15.58,0
			c0.23,0,0.47-0.01,0.7,0.02c0.51,0.06,0.83,0.36,0.85,0.88c0.02,0.52-0.26,0.86-0.78,0.94c-0.38,0.06-0.78,0.07-1.17,0.07
			c-7.46,0-14.92,0-22.38,0c-0.31,0-0.63,0-0.94-0.04c-0.64-0.08-0.97-0.42-0.95-0.97c0.02-0.54,0.39-0.87,1.02-0.89
			c0.68-0.02,1.37-0.03,2.05,0c0.52,0.03,0.76-0.17,0.93-0.66c0.83-2.42,1.7-4.82,2.55-7.24c0.13-0.38,0.31-0.71,0.59-0.99
			c1.22-1.21,2.43-2.43,3.65-3.64c0.12-0.12,0.26-0.25,0.41-0.33c0.42-0.25,0.83-0.21,1.17,0.14c0.32,0.34,0.35,0.74,0.1,1.13
			c-0.12,0.19-0.29,0.37-0.46,0.53c-0.87,0.87-1.73,1.75-2.61,2.61c-0.35,0.34-0.42,0.57-0.03,0.95c1.04,1,2.06,2.03,3.07,3.06
			c0.32,0.32,0.53,0.34,0.86,0.01c5.76-5.78,11.53-11.55,17.31-17.31c0.32-0.32,0.29-0.52-0.01-0.82c-0.99-0.97-1.96-1.96-2.95-2.94
			c-0.59-0.59-0.6-0.59-1.18-0.01c-3.66,3.66-7.32,7.32-10.98,10.97c-0.19,0.19-0.39,0.39-0.6,0.55c-0.41,0.32-0.83,0.31-1.22-0.04
			c-0.37-0.33-0.39-0.82-0.07-1.27c0.14-0.19,0.31-0.35,0.47-0.52c1.23-1.23,2.46-2.46,3.68-3.69c0.14-0.14,0.35-0.25,0.37-0.52
			c-0.2-0.1-0.42-0.06-0.62-0.06c-7.87,0-15.74,0-23.61,0c-0.84,0-0.84,0.01-0.84,0.86c0,5.14,0,10.27,0,15.41
			c0,0.29,0,0.59-0.07,0.87c-0.11,0.44-0.41,0.7-0.89,0.7c-0.47,0-0.76-0.24-0.89-0.69c-0.1-0.35-0.08-0.7-0.08-1.05
			c0-8.16,0-16.32,0-24.49c0-0.2-0.01-0.39,0-0.59c0.01-0.37-0.14-0.5-0.5-0.39C5.01,4.84,4.6,5.03,4.23,5.27
			C2.47,6.41,1.8,8.1,1.81,10.12c0,7.65,0,15.31,0,22.96c0,2.77,0,5.55,0,8.32c0,0.19-0.1,0.46,0.08,0.55
			c0.23,0.11,0.36-0.16,0.52-0.29c0.86-0.74,1.84-1.25,2.95-1.48c0.47-0.09,0.62-0.32,0.6-0.76c-0.02-0.27,0-0.55,0-0.82
			c0-1.31-0.01-2.62,0.02-3.92c0.02-0.66,0.43-1.06,0.95-1.06c0.51,0,0.94,0.4,0.94,1c0.02,2.09,0.02,4.18,0,6.27
			c-0.01,0.62-0.39,0.93-1.02,0.99C6.52,41.9,6.18,41.93,5.86,42C3,42.6,1.21,45.58,2.11,48.22c0.7,2.05,2.48,3.28,4.84,3.28
			c9.27,0.01,18.55,0,27.82,0.01c0.39,0,0.66-0.14,0.92-0.4c0.92-0.93,1.85-1.85,2.77-2.78c0.74-0.73,1.23-0.84,1.7-0.38
			c0.46,0.47,0.36,1-0.35,1.71c-2.61,2.61-5.22,5.22-7.83,7.83c-0.15,0.15-0.35,0.26-0.39,0.5c0.22,0.15,0.46,0.07,0.68,0.07
			c8.32,0,16.64,0,24.95,0c0.14,0,0.27-0.01,0.41,0c0.37,0.02,0.54-0.15,0.53-0.52c-0.01-1-0.01-1.99,0-2.99
			c0-0.37-0.16-0.53-0.53-0.54c-0.39,0-0.78-0.01-1.17-0.07c-0.52-0.07-0.79-0.41-0.8-0.93c-0.01-0.48,0.36-0.85,0.89-0.92
			c0.15-0.02,0.31-0.02,0.47-0.02c1.21,0,1.14,0.09,1.13-1.15c-0.01-1.53,0.13-1.35-1.28-1.36c-0.06,0-0.12,0-0.18-0.01
			c-0.63-0.05-1.02-0.39-1.04-0.91c-0.03-0.53,0.36-0.93,1.01-1c0.31-0.03,0.62-0.03,0.94-0.02c0.4,0.01,0.57-0.17,0.55-0.57
			c-0.01-0.47-0.01-0.94,0-1.41c0.01-0.36-0.13-0.55-0.51-0.54c-0.35,0.01-0.7,0.01-1.05-0.01c-0.57-0.04-0.94-0.42-0.93-0.93
			c0-0.51,0.37-0.87,0.95-0.91c0.35-0.02,0.7-0.01,1.05-0.01c0.34,0,0.5-0.16,0.49-0.5c-0.01-0.49-0.01-0.98,0-1.46
			c0.01-0.41-0.19-0.55-0.57-0.55c-0.39,0-0.78,0.02-1.17-0.07c-0.49-0.12-0.75-0.43-0.75-0.91c0-0.52,0.31-0.84,0.82-0.91
			c0.31-0.05,0.63-0.05,0.93-0.02c0.56,0.05,0.76-0.16,0.75-0.73c-0.03-2.05-0.01-4.1-0.01-6.15c0-0.16,0.07-0.35-0.09-0.5
			c-0.24,0.08-0.37,0.29-0.53,0.45c-4.78,4.78-9.56,9.55-14.33,14.33c-0.19,0.19-0.39,0.39-0.62,0.54c-0.39,0.24-0.8,0.21-1.13-0.12
			c-0.34-0.34-0.38-0.77-0.11-1.18c0.15-0.23,0.35-0.42,0.55-0.61c3.86-3.87,7.73-7.74,11.6-11.6C53.82,33,54,32.69,54,32.24
			c-0.01-5.8-0.01-11.6-0.01-17.4c0-0.71-0.04-0.75-0.78-0.75c-1.97,0-3.94,0.02-5.92-0.01c-0.6-0.01-1.02,0.17-1.44,0.6
			c-5.66,5.69-11.35,11.35-17.01,17.04c-0.43,0.43-0.9,0.73-1.47,0.92C26,33.09,24.63,33.59,23.26,34.08z M48.32,1.94
			c-0.1,0.04-0.27,0.07-0.39,0.16c-0.59,0.45-1.08,1.01-1.59,1.55c-0.22,0.24-0.04,0.43,0.13,0.6c1.07,1.08,2.15,2.15,3.22,3.23
			c0.23,0.24,0.42,0.3,0.68,0.02c0.38-0.42,0.8-0.8,1.19-1.21c0.54-0.57,0.55-0.96,0.01-1.52c-0.8-0.83-1.62-1.63-2.44-2.44
			C48.93,2.12,48.68,1.97,48.32,1.94z M44.74,5.36c-0.12,0.01-0.22,0.09-0.32,0.19c-0.26,0.26-0.51,0.54-0.79,0.78
			c-0.33,0.29-0.31,0.52,0,0.81c0.82,0.79,1.61,1.6,2.41,2.4c1.17,1.17,1.16,1.16,2.3-0.01c0.27-0.27,0.28-0.45,0-0.72
			c-1.07-1.05-2.13-2.12-3.19-3.18C45.05,5.52,44.94,5.4,44.74,5.36z M25.82,31c-0.04-0.05-0.08-0.11-0.14-0.17
			c-0.86-0.87-1.73-1.73-2.6-2.6c-0.25-0.25-0.35-0.12-0.43,0.13c-0.18,0.53-0.39,1.06-0.56,1.59c-0.17,0.56,1.27,2.03,1.83,1.86
			c0.56-0.17,1.1-0.38,1.65-0.58C25.69,31.2,25.81,31.17,25.82,31z"/>
		<path class="st2" d="M47.91,53.7c-1.5,0-3.01,0-4.51,0c-0.48,0-0.9-0.08-1.12-0.57c-0.23-0.52,0.03-0.9,0.38-1.25
			c3.07-3.06,6.13-6.13,9.19-9.2c0.36-0.36,0.75-0.6,1.25-0.39c0.51,0.21,0.6,0.67,0.6,1.17c0,2.99,0,5.98,0,8.96
			c0,0.94-0.34,1.27-1.27,1.27C50.92,53.71,49.42,53.71,47.91,53.7z M51.67,45.66c-0.06,0.03-0.11,0.03-0.13,0.06
			c-1.91,1.9-3.81,3.8-5.71,5.7c-0.08,0.08-0.21,0.16-0.14,0.29c0.08,0.14,0.24,0.1,0.37,0.1c1.7,0,3.39-0.01,5.09,0
			c0.5,0,0.63-0.25,0.63-0.69c-0.01-1.68,0-3.35-0.01-5.03C51.77,45.94,51.8,45.8,51.67,45.66z"/>
	</g>
</g>
<g id="Research" class="st0">
	<g class="st1">
		<defs>
			<rect id="SVGID_1_" x="0" y="0" width="60" height="60"/>
		</defs>
		<clipPath id="SVGID_2_">
			<use xlink:href="#SVGID_1_"  style="overflow:visible;"/>
		</clipPath>
		<g class="st3">
			<path class="st2" d="M60,16.17c0,11.68,0,23.36,0,35.04c-0.28,0.63-0.76,0.96-1.45,1.04c-0.21,0.02-0.44,0.03-0.57,0.24
				c-0.49,0.85-1.29,1.41-1.98,2.06c-0.88,0.82-1.86,0.76-2.69-0.1c-0.54-0.56-1.08-1.13-1.59-1.72c-0.28-0.32-0.59-0.46-1.02-0.46
				c-5.04,0.01-10.08,0.01-15.12,0c-0.37,0-0.68,0.09-0.94,0.37c-0.47,0.49-1.07,0.71-1.74,0.71c-1.93,0.01-3.87,0.01-5.8,0
				c-0.61,0-1.19-0.16-1.61-0.6c-0.38-0.4-0.8-0.48-1.31-0.48c-5.8,0.01-11.6,0.01-17.4,0.01c-1.64,0-3.28,0-4.92,0
				c-0.82,0-1.5-0.24-1.86-1.06c0-11.68,0-23.36,0-35.04c0.32-0.73,0.92-1.03,1.68-1.05c0.23-0.01,0.47-0.01,0.7-0.01
				c0.71-0.01,0.76-0.06,0.77-0.78c0.01-0.8-0.02-1.6,0.01-2.4c0.04-1.16,0.59-1.7,1.75-1.75c0.47-0.02,0.94-0.02,1.41-0.01
				c0.39,0.01,0.57-0.16,0.56-0.56c-0.01-0.62-0.01-1.25,0-1.87c0.02-1.3,0.58-1.93,1.86-2.13c2.75-0.45,5.5-0.63,8.28-0.39
				c4.55,0.4,8.74,1.76,12.51,4.37c0.34,0.24,0.58,0.27,0.93,0.01c1.05-0.78,2.2-1.42,3.38-1.98c4.19-1.98,8.62-2.69,13.21-2.5
				c1.46,0.06,2.92,0.25,4.36,0.51c1.16,0.21,1.67,0.83,1.7,2.02c0.01,0.45,0,0.9,0,1.35c0,1.16,0,1.16,1.13,1.16
				c0.14,0,0.27,0,0.41,0c1.45,0.03,2.16,0.72,2.19,2.16c0.01,0.72,0.01,1.45,0,2.17c-0.01,0.42,0.17,0.62,0.59,0.6
				c0.29-0.01,0.59,0,0.88,0.01C59.08,15.14,59.68,15.44,60,16.17z M8.82,25.06c0,4.67,0,9.33,0,14c0,1,0.01,1.99,0,2.99
				c-0.01,0.48,0.2,0.62,0.65,0.55c0.62-0.1,1.24-0.17,1.86-0.24c2.67-0.33,5.34-0.22,7.99,0.22c3.29,0.55,6.37,1.68,9.21,3.43
				c0.38,0.23,0.52,0.15,0.51-0.29c-0.01-1.07-0.01-2.15,0-3.22c0-0.25-0.08-0.46-0.23-0.65c-0.5-0.6-0.96-1.23-1.34-1.92
				c-0.08-0.15-0.18-0.32-0.4-0.29c-0.49,0.07-0.85-0.21-1.24-0.43c-3.77-2.17-7.87-2.88-12.16-2.77c-0.86,0.02-1.71,0.13-2.57,0.15
				c-0.55,0.01-0.93-0.34-0.98-0.82c-0.05-0.48,0.25-0.88,0.77-1.02c0.19-0.05,0.38-0.07,0.58-0.09c1.95-0.18,3.89-0.2,5.84-0.02
				c2.72,0.26,5.34,0.89,7.84,2.04c0.35,0.16,0.79,0.59,1.03,0.4c0.29-0.24-0.09-0.74-0.11-1.14c0-0.06-0.04-0.12-0.03-0.17
				c0.18-1.35-0.68-1.91-1.76-2.3c-0.11-0.04-0.21-0.09-0.32-0.14c-3.72-1.62-7.64-1.99-11.64-1.75c-0.45,0.03-0.89,0.13-1.34,0.08
				c-0.49-0.05-0.8-0.34-0.84-0.82c-0.04-0.49,0.21-0.82,0.68-0.97c0.18-0.06,0.38-0.09,0.57-0.11c2.48-0.26,4.95-0.23,7.41,0.15
				c2.35,0.36,4.61,1.01,6.75,2.06c0.34,0.17,0.5,0.1,0.56-0.28c0.06-0.35,0.13-0.69,0.23-1.03c0.11-0.35,0.03-0.57-0.3-0.77
				c-1.04-0.63-2.13-1.15-3.27-1.56c-1.83-0.66-3.72-1.02-5.65-1.24c-0.71-0.08-1.08-0.52-0.98-1.12c0.08-0.53,0.55-0.83,1.19-0.76
				c3.31,0.36,6.49,1.16,9.37,2.9c0.39,0.24,0.58,0.13,0.77-0.24c0.33-0.64,0.74-1.24,1.22-1.78c0.27-0.3,0.36-0.62,0.36-1.01
				c-0.01-4.28-0.01-8.55,0.01-12.83c0-0.51-0.18-0.83-0.58-1.11c-1.5-1.04-3.11-1.88-4.81-2.52c-4.48-1.68-9.09-1.94-13.78-1.25
				C8.8,7.52,8.81,7.44,8.81,8.59C8.82,14.08,8.82,19.57,8.82,25.06z M37.26,21.6c3.64-0.13,6.7,0.9,9.28,3.26
				c0.23,0.21,0.5,0.28,0.8,0.3c0.55,0.03,1.09,0.07,1.63,0.14c0.52,0.07,0.88,0.35,0.91,0.91c0.02,0.52-0.28,0.87-0.78,0.94
				c-0.59,0.09-0.4,0.32-0.21,0.65c2.54,4.48,2.07,9.96-1.19,13.93c-0.11,0.14-0.31,0.25-0.25,0.48c0.92,0.1,1.83,0.19,2.74,0.31
				c0.99,0.13,0.99,0.14,0.99-0.84c0-9.16,0-18.32,0-27.48c0-2.01-0.01-4.02,0-6.03c0-0.43-0.11-0.68-0.59-0.76
				c-3.06-0.49-6.13-0.58-9.21-0.11c-3.5,0.54-6.75,1.76-9.7,3.73c-0.52,0.35-0.74,0.74-0.74,1.39c0.03,3.57,0.01,7.15,0.02,10.72
				c0,0.2-0.11,0.48,0.13,0.58c0.19,0.09,0.34-0.14,0.51-0.23c0.29-0.17,0.63-0.29,0.84-0.52c0.3-0.34-0.21-0.6-0.2-0.94
				c0.01-0.74,0.05-1.49-0.05-2.22c-0.23-1.62,0.42-2.63,1.92-3.24c0.77-0.31,1.3-0.32,1.59,0.21c0.29,0.53,0.06,1.05-0.67,1.46
				c-0.03,0.02-0.07,0.04-0.1,0.06c-0.67,0.21-0.9,0.68-0.8,1.35c0.02,0.15,0,0.31,0,0.47c0.01,0.71,0.03,0.72,0.68,0.42
				c3.04-1.4,6.25-2.08,9.58-2.17c1.01-0.03,2.03-0.01,3.05,0.01c0.4,0.01,0.58-0.14,0.57-0.55c-0.01-0.41-0.02-0.82,0-1.23
				c0.02-0.45-0.18-0.61-0.62-0.63c-2.68-0.11-5.35-0.01-7.97,0.64c-0.21,0.05-0.42,0.07-0.64,0.07c-0.45,0-0.74-0.23-0.86-0.65
				c-0.13-0.45,0.04-0.82,0.44-1.05c0.18-0.1,0.4-0.16,0.61-0.21c3.14-0.77,6.32-0.93,9.53-0.62c0.85,0.08,1.33,0.49,1.4,1.31
				c0.1,1.21,0.11,2.42,0,3.63c-0.08,0.89-0.69,1.35-1.58,1.27c-2.05-0.2-4.09-0.2-6.13,0.06C40.56,20.64,38.97,21,37.26,21.6z
				 M26.95,47.3c-0.95-0.62-1.83-1-2.71-1.36c-3.77-1.54-7.7-2.05-11.76-1.78c-1.25,0.08-2.47,0.35-3.72,0.41
				c-1.07,0.05-1.77-0.61-1.86-1.67c-0.02-0.27-0.01-0.55-0.01-0.82c0-9.63,0-19.25,0-28.88c0-0.21,0-0.43-0.01-0.64
				c0-0.14-0.02-0.31-0.15-0.36c-0.47-0.17-0.97-0.16-1.43-0.02c-0.35,0.1-0.21,0.51-0.21,0.78c-0.01,11.17-0.01,22.33,0,33.5
				c0,0.84,0,0.84,0.85,0.84c6.77,0,13.55,0,20.32,0C26.43,47.3,26.6,47.3,26.95,47.3z M49.42,50.35c-0.54-0.86-1.14-1.22-2.12-1.22
				c-13.9,0.03-27.81,0-41.71,0.04c-2.21,0.01-2.44-0.71-2.44-2.47c0.01-9.61,0.01-19.22,0.01-28.82c0-0.44,0.07-0.89-0.62-0.86
				c-0.67,0.02-0.73,0.05-0.73,0.8c0,10.53,0,21.05,0,31.58c0,0.95,0,0.95,0.98,0.95c7.21,0,14.41,0,21.62,0
				c0.82,0,1.55,0.17,2.12,0.79c0.2,0.22,0.45,0.29,0.74,0.29c1.84,0,3.67,0,5.51,0c0.27,0,0.5-0.06,0.69-0.27
				c0.59-0.64,1.33-0.82,2.17-0.81c4.34,0.01,8.67,0.01,13.01,0.01C48.86,50.35,49.09,50.35,49.42,50.35z M38.22,44.29
				c5.72,0,10.37-4.6,10.37-10.27c0.01-5.84-4.61-10.54-10.37-10.54c-5.75-0.01-10.42,4.63-10.43,10.36
				C27.79,39.7,32.37,44.29,38.22,44.29z M54.92,29.7c0-5.52,0-11.05,0-16.57c0-0.2,0-0.39,0-0.59c0-0.16-0.04-0.35-0.21-0.38
				c-0.46-0.09-0.95-0.16-1.38,0.02c-0.37,0.16-0.2,0.59-0.2,0.9c-0.01,9.72-0.01,19.44,0,29.16c0,0.86-0.1,1.64-0.91,2.14
				c-0.14,0.09-0.2,0.21-0.07,0.34c0.77,0.83,1.54,1.66,2.33,2.46c0.2,0.2,0.41,0.06,0.44-0.22c0.02-0.19,0.01-0.39,0.01-0.58
				C54.92,40.82,54.92,35.26,54.92,29.7z M58.2,33.68c0-1.56,0-3.12,0-4.68c0-3.75-0.01-7.5,0.01-11.24c0-0.51-0.12-0.74-0.69-0.74
				c-0.58,0-0.7,0.27-0.67,0.76c0.02,0.41,0,0.82,0,1.23c0,9.23,0,18.47,0,27.7c0,0.55,0.06,1.17-0.32,1.57
				c-0.54,0.59-0.34,0.97,0.16,1.38c0.12,0.1,0.22,0.22,0.32,0.34c0.25,0.31,0.56,0.44,0.93,0.32c0.38-0.13,0.25-0.49,0.25-0.76
				C58.2,44.26,58.2,38.97,58.2,33.68z M33.05,47.3c4.54,0,8.9,0,13.27,0c0.35,0,0.43-0.15,0.4-0.47c-0.05-0.5,0.04-0.97,0.38-1.37
				c0.12-0.14,0.16-0.29,0.05-0.48c-0.49-0.9-1.54-1.18-2.45-0.63c-2.66,1.61-5.51,2.2-8.58,1.67c-0.24-0.04-0.46-0.06-0.69,0.05
				C34.68,46.43,33.91,46.74,33.05,47.3z M50.02,45.38c-0.07,0.04-0.17,0.09-0.26,0.17c-0.25,0.22-0.48,0.46-0.74,0.67
				c-0.34,0.27-0.32,0.5-0.02,0.81c1.6,1.71,3.19,3.43,4.78,5.14c0.97,1.05,0.97,1.04,1.99,0.01c0.27-0.27,0.28-0.45,0.02-0.73
				c-1.81-1.94-3.61-3.89-5.42-5.83C50.29,45.53,50.21,45.41,50.02,45.38z M30.97,44.95c0,0.31,0,0.56,0,0.82
				c-0.01,0.35,0.11,0.48,0.45,0.27c0.41-0.25,0.84-0.49,1.26-0.73c0.24-0.14,0.26-0.27,0-0.4c-0.26-0.13-0.51-0.28-0.77-0.41
				c-0.29-0.14-0.56-0.57-0.83-0.41C30.81,44.23,31.01,44.69,30.97,44.95z"/>
			<path class="st2" d="M14.58,14.02c4.11,0.05,8.05,0.81,11.72,2.76c1.08,0.57,1.62,1.3,1.5,2.55c-0.07,0.73,0,1.48-0.02,2.22
				c-0.04,1.41-0.98,2-2.2,1.33c-3.1-1.69-6.42-2.45-9.92-2.61c-1.31-0.06-2.61,0.02-3.91,0.1c-0.96,0.06-1.59-0.37-1.65-1.32
				c-0.07-1.17-0.06-2.34-0.01-3.51c0.04-0.88,0.54-1.31,1.45-1.38C12.55,14.07,13.56,13.97,14.58,14.02z M14.63,15.95
				c-0.35,0-0.7-0.01-1.05,0c-1.81,0.08-1.57-0.22-1.59,1.61c-0.01,0.81,0.02,0.83,0.82,0.8c2.56-0.08,5.1,0.01,7.61,0.58
				c1.68,0.38,3.31,0.9,4.87,1.64c0.18,0.08,0.43,0.34,0.55-0.06c0.32-1-0.05-1.87-0.98-2.34C21.65,16.57,18.21,15.94,14.63,15.95z"
				/>
			<path class="st2" d="M12.43,25.16c0.26,0,0.4-0.01,0.54,0c0.52,0.04,0.84,0.34,0.88,0.85c0.04,0.49-0.23,0.86-0.7,0.94
				c-0.69,0.12-1.39,0.2-2.09,0.22c-0.52,0.02-0.91-0.4-0.95-0.86c-0.03-0.47,0.3-0.87,0.82-1c0.06-0.01,0.12-0.02,0.17-0.03
				C11.58,25.24,12.07,25.19,12.43,25.16z"/>
			<path class="st2" d="M47.39,33.92c0,5.09-4.1,9.22-9.18,9.23c-5.07,0.01-9.26-4.18-9.26-9.25c0.01-5.09,4.16-9.21,9.28-9.21
				C43.31,24.69,47.39,28.8,47.39,33.92z M38.15,26.6c-4.15,0.05-7.33,3.3-7.29,7.47c0.04,4.02,3.39,7.19,7.57,7.14
				c3.89-0.04,7.16-3.44,7.11-7.39C45.49,29.8,42.17,26.56,38.15,26.6z"/>
		</g>
	</g>
</g>
<g id="Ideate" class="st0">
	<g class="st1">
		<path class="st2" d="M26.39,60c-1.43-0.46-2.57-1.25-3.2-2.64c-0.33-0.72-0.36-1.48-0.4-2.23c-0.02-0.29-0.08-0.52-0.33-0.71
			c-1.39-1.02-1.95-2.43-1.96-4.08c-0.01-1.33-0.1-2.66-0.01-3.98c0.15-2.18-0.73-3.91-2.22-5.43c-1.5-1.53-2.96-3.08-3.98-4.97
			c-2.02-3.74-2.7-7.68-1.89-11.85c0.12-0.62,0.56-0.96,1.06-0.89c0.56,0.07,0.88,0.51,0.83,1.16c-0.01,0.12-0.02,0.23-0.04,0.35
			c-0.19,0.98-0.24,1.97-0.22,2.97c0.09,4.1,1.57,7.65,4.43,10.66c0.71,0.75,1.44,1.47,2.09,2.26c0.72,0.88,1.28,1.84,1.59,2.93
			c0.1,0.35,0.27,0.52,0.66,0.52c4.87-0.01,9.75-0.01,14.62-0.01c0.29,0,0.54-0.02,0.63-0.39c0.46-1.99,1.72-3.5,3.13-4.92
			c2.49-2.5,4.07-5.44,4.62-8.89c1.35-8.52-4.44-16.45-12.8-17.99c-7.05-1.3-14.02,2.1-17.25,8.35c-0.44,0.86-0.91,1.12-1.51,0.84
			c-0.58-0.27-0.68-0.84-0.22-1.68c3.01-5.53,7.66-8.83,14.08-9.57c8.73-1.01,16.88,4.56,19.14,12.76
			c1.77,6.41,0.29,12.12-4.27,17.07c-0.48,0.52-0.96,1.05-1.44,1.57c-1.44,1.57-1.88,3.42-1.71,5.49c0.12,1.48,0.12,2.96-0.02,4.45
			c-0.13,1.31-0.75,2.37-1.79,3.2c-0.25,0.19-0.43,0.39-0.42,0.72c0.02,2.48-1.15,4.16-3.6,4.93C31.44,60,28.92,60,26.39,60z
			 M30.23,45.97c-2.38,0-4.77,0.01-7.15-0.01c-0.47,0-0.65,0.14-0.62,0.61c0.03,0.49,0.04,0.98,0,1.46
			c-0.05,0.58,0.19,0.73,0.76,0.73c2.56-0.02,5.13-0.01,7.7-0.01c0.3,0,0.61,0.01,0.89,0.08c0.49,0.12,0.75,0.47,0.73,0.94
			c-0.03,0.48-0.34,0.78-0.84,0.86c-0.2,0.03-0.4,0.02-0.6,0.02c-2.67,0-5.33,0-8,0c-0.66,0-0.69,0.05-0.53,0.68
			c0.32,1.21,1.35,2.08,2.65,2.09c3.33,0.02,6.65,0.03,9.98,0c1.34-0.01,2.43-1.02,2.66-2.29c0.06-0.34-0.03-0.48-0.38-0.47
			c-0.5,0.01-1,0.01-1.5,0c-0.71-0.01-1.14-0.38-1.14-0.94c0-0.52,0.42-0.9,1.09-0.95c0.42-0.03,0.84-0.04,1.26-0.01
			c0.53,0.03,0.79-0.12,0.73-0.69c-0.05-0.46-0.04-0.94,0-1.4c0.04-0.53-0.14-0.71-0.71-0.71C34.88,45.99,32.55,45.97,30.23,45.97z
			 M29.92,58.19c1.1,0,1.98,0.02,2.86,0c1.55-0.04,2.61-0.93,2.81-2.31c0.06-0.38-0.05-0.54-0.47-0.53c-3.29,0.01-6.58,0.01-9.86,0
			c-0.45,0-0.55,0.17-0.49,0.57c0.2,1.2,0.99,2,2.24,2.21C28.05,58.29,29.1,58.14,29.92,58.19z"/>
		<path class="st2" d="M30.48,0c0.4,0.36,0.52,0.8,0.51,1.32c-0.02,1.7-0.01,3.4-0.01,5.1c0,0.14,0,0.27-0.01,0.41
			C30.91,7.38,30.51,7.75,30,7.75c-0.51,0-0.94-0.37-0.97-0.93c-0.04-0.8-0.02-1.6-0.02-2.4c0-1.03,0.02-2.07-0.01-3.1
			C28.99,0.8,29.12,0.36,29.52,0C29.84,0,30.16,0,30.48,0z"/>
		<path class="st2" d="M23.07,25.62c0.97,0.01,1.71,0.32,2.29,0.94c0.98,1.03,1.97,2.06,2.9,3.13c0.35,0.4,0.52,0.31,0.8-0.04
			c1.73-2.2,3.48-4.39,5.23-6.58c1.15-1.44,2.87-1.75,4.23-0.79c1.3,0.92,1.65,2.6,0.75,3.9c-0.59,0.84-1.25,1.63-1.9,2.41
			c-0.36,0.44-0.93,0.5-1.34,0.21c-0.45-0.32-0.54-0.86-0.18-1.35c0.51-0.68,1.05-1.33,1.58-2c0.48-0.61,0.48-1.24,0-1.61
			c-0.47-0.36-1.13-0.2-1.6,0.4c-2.01,2.51-4.01,5.03-6.01,7.54c-0.76,0.96-1.31,0.97-2.13,0.08c-1.19-1.3-2.38-2.59-3.59-3.87
			c-0.49-0.52-1.15-0.6-1.59-0.21c-0.43,0.38-0.42,1,0.05,1.52c1.8,1.94,3.6,3.88,5.42,5.81c0.64,0.68,1.21,0.66,1.81-0.07
			c1.09-1.33,2.15-2.68,3.22-4.02c0.15-0.18,0.31-0.37,0.5-0.5c0.37-0.26,0.77-0.21,1.11,0.07c0.32,0.26,0.43,0.61,0.29,1
			c-0.06,0.16-0.16,0.32-0.27,0.45c-1.16,1.47-2.32,2.95-3.51,4.39c-1.07,1.3-3.14,1.44-4.32,0.23c-2.02-2.09-3.99-4.23-5.92-6.39
			c-0.81-0.9-0.89-2-0.33-3.07C21.09,26.19,21.98,25.65,23.07,25.62z"/>
		<path class="st2" d="M9.47,8.24c0.3,0.02,0.54,0.14,0.75,0.34c1.38,1.34,2.76,2.67,4.12,4.02c0.51,0.51,0.52,1.04,0.09,1.45
			c-0.43,0.4-0.97,0.37-1.49-0.13c-1.37-1.32-2.72-2.65-4.08-3.98C8.52,9.6,8.37,9.21,8.6,8.76C8.77,8.41,9.08,8.26,9.47,8.24z"/>
		<path class="st2" d="M46.21,14.31c-0.69-0.02-1.15-0.75-0.83-1.35c0.09-0.17,0.23-0.32,0.37-0.46c1.3-1.27,2.61-2.54,3.91-3.81
			c0.23-0.22,0.48-0.43,0.82-0.45c0.39-0.02,0.71,0.14,0.9,0.48c0.23,0.41,0.15,0.8-0.17,1.13c-0.52,0.54-1.07,1.06-1.6,1.58
			c-0.83,0.82-1.67,1.63-2.51,2.44C46.85,14.12,46.58,14.31,46.21,14.31z"/>
		<path class="st2" d="M14.73,44.97c-0.01,0.33-0.16,0.58-0.38,0.79c-1.36,1.33-2.72,2.66-4.09,3.97c-0.52,0.5-1.07,0.52-1.49,0.12
			c-0.42-0.4-0.4-0.95,0.11-1.45c1.35-1.33,2.72-2.66,4.08-3.97c0.31-0.3,0.68-0.49,1.14-0.3C14.51,44.29,14.69,44.59,14.73,44.97z"
			/>
		<path class="st2" d="M51.51,49.21c-0.02,0.68-0.75,1.12-1.38,0.81c-0.19-0.1-0.36-0.25-0.52-0.4c-1.29-1.25-2.58-2.51-3.87-3.77
			c-0.16-0.15-0.31-0.31-0.39-0.51c-0.16-0.39-0.07-0.74,0.23-1.02c0.3-0.28,0.66-0.38,1.05-0.18c0.19,0.1,0.37,0.24,0.52,0.39
			c1.29,1.25,2.58,2.51,3.87,3.76C51.28,48.55,51.5,48.82,51.51,49.21z"/>
		<path class="st2" d="M4.07,28.22c0.92,0,1.84-0.01,2.76,0C7.54,28.24,7.98,28.6,8,29.15c0.02,0.57-0.44,0.98-1.17,0.98
			c-1.9,0.01-3.81,0.01-5.71,0C0.41,30.13,0,29.76,0,29.18c0-0.58,0.41-0.94,1.12-0.95C2.1,28.21,3.09,28.22,4.07,28.22z"/>
		<path class="st2" d="M55.97,30.14c-0.92,0-1.84,0.01-2.76,0c-0.75-0.01-1.2-0.37-1.21-0.95c-0.01-0.57,0.45-0.96,1.19-0.97
			c1.88-0.01,3.77-0.01,5.65,0c0.75,0,1.17,0.38,1.16,0.97c-0.01,0.57-0.42,0.93-1.14,0.94C57.9,30.15,56.93,30.14,55.97,30.14z"/>
	</g>
</g>
<g id="Digitize__x26__Sketch">
	<g>
		<path class="st2" d="M0,16.29c0.52-1.57,1.48-2.68,3.13-3.11c0.33-0.08,0.66-0.09,0.99-0.09c13.89,0,27.77,0,41.66,0
			c0.68,0,0.81,0.16,0.73,0.83c-0.03,0.28-0.14,0.43-0.44,0.42c-0.21-0.01-0.43,0-0.64,0c-13.55,0-27.11,0-40.66,0
			c-0.33,0-0.67,0-0.99,0.06c-1.56,0.26-2.47,1.31-2.55,2.89c-0.01,0.16,0,0.31,0,0.47c0,12.54,0,25.08,0,37.61
			c0,0.25,0,0.51,0.03,0.76c0.24,1.63,1.33,2.6,2.98,2.66c0.16,0.01,0.31,0,0.47,0c16.87,0,33.75,0,50.62,0c0.29,0,0.59,0,0.87-0.05
			c1.58-0.26,2.51-1.32,2.59-2.92c0.01-0.16,0-0.31,0-0.47c0-12.52,0-25.04,0-37.56c0-0.29,0-0.59-0.05-0.87
			c-0.26-1.56-1.3-2.48-2.87-2.57c-1.91-0.11-1.91-0.11-2.71,1.62c-0.21,0.46-0.4,0.93-0.63,1.38c-0.18,0.36-0.05,0.44,0.29,0.43
			c0.59-0.01,1.17,0,1.76,0c0.53-0.01,0.8,0.24,0.79,0.78c0,0.14,0,0.27,0,0.41c0,11.74,0,23.47,0,35.21c0,1.12-0.07,1.18-1.2,1.18
			c-14.55,0-29.1,0-43.65,0c-1.08,0-1.17-0.08-1.17-1.16c0-11.76,0-23.51,0-35.27c0-1.07,0.08-1.15,1.18-1.15
			c11.64,0,23.28,0,34.92,0.01c0.57,0,0.86-0.17,1.09-0.7c2.22-4.95,4.49-9.88,6.71-14.83c0.45-1,1.01-1.84,2.07-2.25
			c0.51,0,1.02,0,1.52,0c1.5,0.7,2.11,1.58,2.02,2.95c-0.04,0.6-0.32,1.12-0.56,1.65c-1.2,2.64-2.39,5.29-3.61,7.93
			c-0.21,0.47-0.09,0.57,0.38,0.57c0.58-0.01,1.17-0.06,1.75,0.08c1.68,0.41,2.66,1.53,3.18,3.12c0,13.52,0,27.03,0,40.55
			c-0.5,1.61-1.55,2.66-3.16,3.16c-17.89,0-35.78,0-53.67,0C1.56,59.5,0.5,58.45,0,56.84C0,43.32,0,29.8,0,16.29z M32.31,54.1
			c6.97,0,13.94,0,20.92,0c0.87,0,0.87,0,0.87-0.85c0-11.13,0-22.26,0-33.39c0-0.12-0.01-0.24,0-0.35c0.03-0.35-0.13-0.49-0.48-0.48
			c-0.64,0.02-1.29,0.01-1.93,0c-0.97,0-1.2-0.35-0.79-1.24c1.28-2.85,2.58-5.69,3.87-8.53c0.89-1.96,1.79-3.9,2.65-5.87
			c0.38-0.86,0.06-1.67-0.72-2.02c-0.77-0.35-1.55-0.03-1.98,0.82c-0.06,0.12-0.12,0.25-0.17,0.37c-2.07,4.55-4.14,9.1-6.2,13.65
			c-1.7,3.73-3.38,7.47-5.09,11.2c-0.18,0.39-0.17,0.58,0.26,0.74c0.55,0.21,1.09,0.44,1.59,0.73c0.5,0.29,0.69,0.12,0.9-0.35
			c1.12-2.51,2.28-5.01,3.4-7.53c0.23-0.51,0.47-0.54,0.94-0.33c0.48,0.22,0.45,0.45,0.26,0.86c-0.94,2.02-1.83,4.06-2.77,6.07
			c-0.65,1.4-1.14,2.9-2.43,3.94c-0.94,0.75-1.76,1.66-2.63,2.5c-0.88,0.87-1.22,1.92-1.04,3.14c0.13,0.84,0.55,1.58,0.9,2.34
			c0.59,1.3,1,2.63,0.75,4.08c-0.67,3.92-3.73,7.27-8.38,6.72c-4.32-0.51-8.75-4.66-7.01-10.51c0.61-2.04,1.6-3.9,2.55-5.77
			c0.64-1.25,1.28-2.5,1.67-3.86c0.21-0.75,0.38-1.51,0.27-2.31c-0.24-1.7-1.3-2.8-2.75-3.48c-3.19-1.49-6.34-1.27-9.35,0.52
			c-1.61,0.96-2.53,2.44-2.82,4.32c-0.23,1.48,0.08,2.87,0.6,4.24c0.48,1.26,1.03,2.49,1.51,3.75c1.06,2.81,0.81,5.51-0.73,8.09
			c-0.19,0.32-0.39,0.41-0.69,0.17c-0.26-0.21-0.76-0.27-0.45-0.81c0.25-0.44,0.48-0.9,0.67-1.36c0.93-2.25,0.54-4.44-0.38-6.59
			c-0.55-1.29-1.14-2.57-1.53-3.92c-1.24-4.25,0.56-8.05,4.62-9.77c1.12-0.48,2.3-0.73,3.52-0.83c2.42-0.19,4.67,0.26,6.67,1.68
			c2.03,1.45,2.81,3.43,2.3,5.89c-0.39,1.86-1.26,3.52-2.12,5.19c-0.85,1.67-1.72,3.33-2.26,5.14c-0.35,1.18-0.49,2.38-0.24,3.59
			c0.69,3.22,3.66,5.45,7.16,5.4c3.88-0.05,6.92-4.36,5.63-8.03c-0.28-0.81-0.67-1.58-1.02-2.37c-0.63-1.45-0.6-2.88,0.09-4.3
			c0.17-0.34,0.27-0.69,0.28-1.07c0.04-0.95,0.06-1.91,0.15-2.86c0.11-1.21,0.08-2.42,0.66-3.59c1.15-2.32,2.18-4.71,3.25-7.08
			c0.35-0.76,0.34-0.77-0.46-0.77c-11.15,0-22.3,0-33.45,0c-0.77,0-0.77,0-0.77,0.78c0,11.17,0,22.34,0,33.51
			c0,0.79,0,0.79,0.81,0.79C18.37,54.1,25.34,54.1,32.31,54.1z M42.57,32.27c0.08,0.05,0.16,0.11,0.24,0.16
			c0.59-0.65,1.17-1.3,1.76-1.94c0.19-0.2,0.24-0.34-0.06-0.47c-0.46-0.2-0.92-0.41-1.38-0.63c-0.25-0.12-0.38-0.03-0.4,0.22
			C42.68,30.49,42.63,31.38,42.57,32.27z"/>
		<path class="st2" d="M7.66,26.62c0,0.96,0.01,1.91,0,2.87c-0.01,1.41-1.01,2.43-2.37,2.43c-1.37,0-2.39-1.01-2.4-2.4
			c-0.01-1.95-0.01-3.9,0-5.85c0.01-1.36,1.03-2.37,2.37-2.37c1.37,0,2.38,1.01,2.4,2.4C7.67,24.67,7.66,25.64,7.66,26.62z
			 M4.14,24.6c0,0.32,0.02,0.57,0,0.82c-0.03,0.39,0.11,0.58,0.53,0.56c0.43-0.03,0.86-0.01,1.29-0.01c0.2,0,0.43-0.01,0.43-0.27
			c0-0.76,0.1-1.52-0.06-2.28c-0.12-0.55-0.53-0.84-1.06-0.84c-0.54,0-0.9,0.31-1.05,0.86C4.1,23.84,4.17,24.26,4.14,24.6z
			 M6.4,28.61c0-0.31-0.02-0.57,0-0.82c0.04-0.44-0.14-0.6-0.58-0.57c-0.43,0.03-0.86,0.01-1.29,0.01c-0.19,0-0.38,0.03-0.38,0.26
			c0,0.78-0.12,1.56,0.08,2.33c0.13,0.52,0.53,0.79,1.03,0.8c0.51,0,0.88-0.28,1.04-0.79C6.45,29.41,6.38,28.98,6.4,28.61z"/>
		<path class="st2" d="M7.66,46.54c0,0.97,0.01,1.95,0,2.92c-0.02,1.36-1.03,2.37-2.37,2.38c-1.37,0-2.39-1.01-2.4-2.4
			c-0.01-1.95-0.01-3.9,0-5.85c0.01-1.36,1.03-2.37,2.36-2.38c1.37,0,2.39,1.01,2.4,2.4C7.67,44.59,7.66,45.56,7.66,46.54z
			 M4.14,44.47c0,0.33,0.02,0.61,0,0.88c-0.03,0.4,0.12,0.57,0.53,0.55c0.43-0.03,0.86-0.01,1.29-0.01c0.2,0,0.43-0.01,0.43-0.28
			c0-0.76,0.1-1.52-0.07-2.27C6.2,42.79,5.79,42.5,5.26,42.5c-0.54,0.01-0.9,0.32-1.05,0.86C4.1,43.75,4.17,44.14,4.14,44.47z
			 M4.15,48.45c0,0.29-0.02,0.59,0,0.88c0.05,0.72,0.5,1.21,1.1,1.22c0.62,0.01,1.11-0.49,1.14-1.25c0.03-0.57,0-1.13,0.01-1.7
			c0.01-0.32-0.11-0.48-0.44-0.46c-0.18,0.01-0.35,0-0.53,0C4.14,47.15,4.14,47.15,4.15,48.45z"/>
		<path class="st2" d="M5.26,39.53c-1.66,0-2.95-1.3-2.95-2.97c0-1.7,1.3-2.98,3.01-2.97c1.66,0.01,2.93,1.32,2.93,3
			C8.24,38.25,6.93,39.54,5.26,39.53z M6.98,36.55c-0.01-0.88-0.83-1.69-1.7-1.69c-0.87,0-1.69,0.81-1.71,1.69
			c-0.01,0.89,0.84,1.74,1.73,1.72C6.18,38.25,6.99,37.42,6.98,36.55z"/>
	</g>
</g>
<g id="Delivery__x26__Support" class="st0">
	<g class="st1">
		<path class="st2" d="M60,42.53c0,0.62,0,1.25,0,1.87c-0.25,0.7-0.52,1.38-1.01,1.96c-3.37,4-6.73,8-10.08,12.01
			c-0.57,0.69-1.19,1.29-2.04,1.61c-8.83,0-17.65,0-26.48,0c-4.59-0.87-9.17-1.74-13.76-2.62c-0.35-0.07-0.52,0.07-0.53,0.42
			c-0.01,0.35-0.01,0.7-0.03,1.05c-0.02,0.5-0.22,0.9-0.68,1.15c-1.66,0-3.32-0.01-4.98,0.01C0.07,60,0,59.93,0,59.58
			c0.01-7.01,0.01-14.02,0.01-21.03c0.28-0.35,0.6-0.62,1.08-0.62c1.29,0,2.58-0.01,3.86,0.01c0.52,0.01,0.89,0.26,1.06,0.77
			c0.25,0.76,0.24,0.75,1.02,0.59c3.7-0.73,7.34-0.51,10.88,0.83c2.23,0.84,4.45,1.7,6.67,2.56c0.48,0.19,0.97,0.27,1.48,0.27
			c3.88-0.01,7.77-0.01,11.65,0.01c1.31,0.01,2.39,0.57,3.22,1.55c1.22,1.44,1.42,3.07,0.74,4.82c-0.08,0.2-0.38,0.51,0.12,0.55
			c1.5,0.13,2.85-0.05,3.85-1.41c1.34-1.8,2.77-3.53,4.16-5.29c0.1-0.13,0.27-0.23,0.25-0.45c-0.14-0.07-0.27,0.01-0.4,0.04
			c-5.32,1.14-10.85-1.2-13.69-5.84c-0.41-0.66-0.84-0.87-1.58-0.87c-8.41,0.02-16.83,0.02-25.24,0.01c-0.31,0-0.63,0.01-0.94-0.02
			C7.33,36,7,35.67,6.93,34.79c-0.02-0.27-0.02-0.55-0.02-0.82c0-4.67,0-9.33,0-14c0-6.07,0-12.14,0-18.21
			C6.91,1.1,6.95,0.46,7.51,0c15,0,30,0,44.99,0c0.54,0.45,0.6,1.06,0.6,1.7c0,5.29,0.01,10.58-0.01,15.87
			c0,0.61,0.17,0.99,0.72,1.31c1.82,1.06,3.24,2.55,4.35,4.33c0.99,1.58,1.5,3.33,1.84,5.14c0,1.05,0,2.11,0,3.16
			c-0.2,1.17-0.46,2.33-0.92,3.44c-0.56,1.32-1.29,2.53-2.25,3.61c-0.15,0.16-0.47,0.4,0,0.56C58.52,39.68,59.5,40.88,60,42.53z
			 M9.07,17.95c0,5.08,0,10.15,0,15.23c0,0.74,0.02,0.76,0.76,0.76c8,0,16.01,0,24.01,0c0.66,0,0.68-0.03,0.52-0.66
			c-0.41-1.6-0.52-3.22-0.32-4.87c0.95-7.81,8.63-13.06,16.19-11.05c0.68,0.18,0.7,0.16,0.7-0.52c0-4.67,0-9.33,0-14
			c0-0.77-0.02-0.79-0.79-0.79c-4.35,0-8.71,0-13.06,0c-0.98,0-0.99,0-0.99,0.96c0,3.12,0,6.25,0,9.37c0,1.36-0.36,1.71-1.7,1.71
			c-1.41,0-2.81,0-4.22,0c-1.62,0-3.24,0.01-4.86-0.01c-0.93-0.01-1.31-0.38-1.38-1.3c-0.02-0.27-0.02-0.55-0.02-0.82
			c0-3.01,0-6.01,0-9.02c0-0.87-0.02-0.89-0.88-0.89c-4.37,0-8.75,0-13.12,0c-0.84,0-0.84,0-0.84,0.85
			C9.07,7.92,9.07,12.93,9.07,17.95z M33.52,57.95c3.96,0,7.93-0.01,11.89,0.01c0.74,0,1.29-0.24,1.77-0.82
			c1.41-1.73,2.85-3.42,4.28-5.12c1.95-2.32,3.9-4.63,5.84-6.95c1.24-1.48,0.5-3.57-1.39-3.94c-0.98-0.19-1.8,0.08-2.44,0.89
			c-2.1,2.67-4.22,5.33-6.32,7.99c-1.1,1.4-2.54,2.07-4.32,2.07c-3.59-0.01-7.19,0-10.78,0c-1.13,0-1.13,0-1.13-1.17c0-1,0-1,1.02-1
			c1.89,0,3.79,0,5.68-0.02c0.95-0.01,1.63-0.5,2.05-1.33c0.42-0.82,0.34-1.63-0.15-2.39c-0.57-0.89-1.46-1.12-2.44-1.12
			c-3.87,0-7.73-0.01-11.6,0c-0.5,0-0.96-0.08-1.43-0.26c-2.26-0.88-4.51-1.75-6.77-2.61c-3.36-1.29-6.8-1.43-10.3-0.65
			C6.11,41.71,6.1,41.73,6.1,42.6c0,3.89,0,7.77,0,11.66c0,0.85,0.01,0.86,0.85,1.01c3.47,0.65,6.95,1.27,10.41,1.97
			c2.48,0.5,4.96,0.79,7.49,0.73C27.74,57.89,30.63,57.95,33.52,57.95z M46.99,40.89c6.05,0.01,10.9-4.82,10.94-10.88
			C57.96,24,53.07,19.11,47.02,19.1c-6.07-0.02-10.9,4.8-10.91,10.88C36.09,36.04,40.93,40.88,46.99,40.89z M33.95,7
			c0-1.42-0.01-2.85,0.01-4.27c0.01-0.49-0.14-0.7-0.66-0.7c-2.18,0.02-4.37,0.02-6.55,0c-0.51,0-0.68,0.17-0.68,0.68
			c0.02,2.85,0.02,5.69,0,8.54c0,0.47,0.14,0.67,0.63,0.67c2.2-0.02,4.41-0.02,6.61,0c0.48,0,0.66-0.17,0.65-0.65
			C33.93,9.85,33.95,8.43,33.95,7z M3.95,49.04c0-2.75-0.01-5.5,0.01-8.25c0-0.54-0.18-0.76-0.71-0.71c-0.14,0.01-0.27,0-0.41,0
			c-0.75,0.01-0.78,0.04-0.78,0.8c0,5.42,0,10.84,0,16.26c0,0.75,0.04,0.79,0.8,0.79c0.1,0,0.2,0,0.29,0c0.8,0,0.81-0.01,0.81-0.83
			C3.95,54.43,3.95,51.73,3.95,49.04z"/>
		<path class="st2" d="M21,32.04c-2.85,0-5.7,0-8.55,0c-1.16,0-1.51-0.32-1.52-1.49c-0.02-1.7-0.02-3.4,0-5.1
			c0.01-1.16,0.37-1.54,1.51-1.54c5.7-0.01,11.4-0.01,17.11,0c1.2,0,1.55,0.39,1.55,1.61c0,1.68,0.01,3.36,0,5.04
			c0,1.11-0.37,1.47-1.48,1.47C26.74,32.04,23.87,32.04,21,32.04z M20.99,26.05c-2.4,0-4.8,0.01-7.2-0.01
			c-0.57-0.01-0.76,0.18-0.74,0.75c0.04,0.86,0.02,1.72,0.01,2.58c-0.01,0.43,0.16,0.59,0.59,0.59c4.9-0.01,9.8-0.01,14.69,0
			c0.43,0,0.59-0.17,0.59-0.59c-0.01-0.86-0.03-1.72,0.01-2.58c0.02-0.56-0.18-0.75-0.74-0.74C25.79,26.07,23.39,26.05,20.99,26.05z
			"/>
		<path class="st2" d="M16.03,14.08c-0.6,0-1.21,0.02-1.81-0.01c-0.86-0.04-1.23-0.44-1.25-1.29c-0.01-0.37-0.02-0.74,0-1.11
			c0.02-0.45-0.15-0.66-0.61-0.62c-0.33,0.02-0.66,0-0.95-0.21c-0.49-0.36-0.62-1.07-0.16-1.54c1.33-1.38,2.68-2.73,4.05-4.06
			c0.43-0.41,1-0.41,1.43,0.01c1.36,1.32,2.69,2.67,4.02,4.01c0.32,0.32,0.38,0.73,0.21,1.14c-0.17,0.42-0.52,0.61-0.96,0.65
			c-0.9,0.08-0.89,0.08-0.9,1c-0.01,1.83-0.22,2.04-2.07,2.04C16.69,14.09,16.36,14.09,16.03,14.08
			C16.03,14.08,16.03,14.08,16.03,14.08z M15.96,11.92c1,0,0.98,0,1-0.99c0.01-0.61-0.15-1.26,0.38-1.76
			c0.08-0.07,0.1-0.18,0.03-0.26c-0.41-0.42-0.76-1.01-1.26-1.18c-0.52-0.19-0.77,0.57-1.17,0.88c-0.17,0.13-0.45,0.32-0.23,0.57
			c0.49,0.56,0.33,1.22,0.34,1.84C15.07,11.92,15.05,11.92,15.96,11.92z"/>
		<path class="st2" d="M40.98,35.92c-0.02-0.25,0.08-0.51,0.15-0.77c0.36-1.26,0.71-2.51,1.1-3.76c0.12-0.41,0.05-0.69-0.26-0.99
			c-0.85-0.8-1.67-1.64-2.52-2.45c-0.38-0.37-0.6-0.78-0.42-1.31c0.17-0.52,0.62-0.68,1.1-0.74c1.1-0.14,2.2-0.29,3.31-0.39
			c0.49-0.04,0.78-0.23,0.98-0.68c0.48-1.03,1-2.03,1.49-3.05c0.23-0.46,0.51-0.85,1.09-0.84c0.56,0.01,0.87,0.37,1.09,0.84
			c0.49,1.04,1,2.07,1.47,3.12c0.18,0.39,0.45,0.55,0.85,0.59c1.11,0.11,2.21,0.25,3.31,0.37c0.12,0.01,0.23,0.05,0.35,0.06
			c0.46,0.07,0.8,0.3,0.93,0.77c0.13,0.47-0.04,0.84-0.38,1.16c-0.86,0.79-1.71,1.6-2.6,2.36c-0.46,0.4-0.6,0.77-0.37,1.37
			c0.44,1.17,0.81,2.36,1.2,3.55c0.07,0.2,0.13,0.41,0.16,0.62c0.07,0.44-0.03,0.82-0.41,1.09c-0.38,0.27-0.77,0.25-1.16,0.03
			c-0.26-0.14-0.5-0.3-0.75-0.46c-1.05-0.68-2.1-1.35-3.13-2.05c-0.39-0.27-0.69-0.29-1.1-0.01c-1.12,0.78-2.28,1.5-3.43,2.24
			c-0.2,0.13-0.4,0.25-0.61,0.34C41.67,37.24,40.98,36.76,40.98,35.92z M49.83,33.3c0.04-0.03,0.07-0.05,0.11-0.08
			c-0.24-0.73-0.47-1.47-0.72-2.2c-0.2-0.59-0.06-1.07,0.4-1.47c0.47-0.41,0.93-0.84,1.38-1.27c0.13-0.13,0.41-0.22,0.34-0.42
			c-0.06-0.2-0.33-0.14-0.52-0.17c-0.56-0.07-1.12-0.16-1.68-0.21c-0.55-0.05-0.89-0.34-1.11-0.82c-0.26-0.57-0.53-1.13-0.8-1.69
			c-0.06-0.12-0.08-0.3-0.25-0.29c-0.16,0.01-0.18,0.18-0.24,0.3c-0.29,0.58-0.58,1.15-0.86,1.73c-0.21,0.44-0.53,0.71-1.03,0.76
			c-0.66,0.07-1.32,0.15-1.97,0.24c-0.13,0.02-0.31,0.01-0.33,0.17c-0.01,0.08,0.1,0.2,0.18,0.27c0.46,0.45,0.92,0.91,1.39,1.34
			c0.48,0.44,0.64,0.95,0.43,1.58c-0.17,0.5-0.3,1.01-0.44,1.52c-0.07,0.24-0.21,0.48-0.11,0.82c0.73-0.47,1.42-0.88,2.06-1.34
			c0.67-0.48,1.27-0.46,1.93,0.01C48.57,32.52,49.21,32.9,49.83,33.3z"/>
	</g>
</g>
</svg>
