<?xml version="1.0" encoding="utf-8"?>
<!-- Generator: Adobe Illustrator 18.1.1, SVG Export Plug-In . SVG Version: 6.00 Build 0)  -->
<svg version="1.1" id="Layer_1" xmlns="http://www.w3.org/2000/svg" xmlns:xlink="http://www.w3.org/1999/xlink" x="0px" y="0px"
	 viewBox="0 0 200 200" enable-background="new 0 0 200 200" xml:space="preserve">
<g>
	<path fill="#FFFFFF" d="M100.1,180.6c-44.2,0.2-80.6-36.3-80.6-81c0.1-44.4,36.6-81.1,81.3-80.8c44.3,0.3,80.4,37,79.9,81.9
		C180.2,144.7,144.2,180.8,100.1,180.6z M174,99.7c-0.5-41.5-32.9-74-73.7-74c-41.1,0-73.9,32.7-73.9,74.1c0,40.8,32.2,74,73.9,73.9
		C141.2,173.6,173.4,141.2,174,99.7z"/>
	<path fill="#FFFFFF" d="M167.8,36.1c0,2.4,0,4.7,0,7.1c0,1.3-0.4,1.8-1.7,1.8c-6.1-0.1-4.9,0.7-5-4.8c-0.1-3.6,0-7.3,0-10.9
		c0-2.8,1.1-4,3.9-4c4.6,0,9.1,0,13.7,0c1.6,0,2.1,0.6,2,2.1c-0.1,5.5,0.6,4.5-4.6,4.6c-0.6,0-1.2,0-2.1,0c2.8,3.4,5.5,6.5,7.8,9.9
		c10.2,14.7,16.3,30.8,17.8,48.6c2.3,26.7-4.8,50.7-21.3,71.6c-16.3,20.7-37.8,32.7-63.7,36.8c-4,0.6-8.1,1-12.2,1
		c-1.9,0-2.4-0.7-2.3-2.5c0.2-4.7-1-4.4,4.4-4.6c42.2-1.6,78.9-32.7,86.9-75c5.8-30.6-1.9-57.7-22.3-81.1c-0.2-0.2-0.4-0.4-0.6-0.6
		C168.3,36.3,168.2,36.2,167.8,36.1z"/>
	<path fill="#FFFFFF" d="M86,7.4c-1.5,0-2.3-1.8-2.3-5.3C83.6,0.8,85.5,0,89,0c1.5,0,2,1.4,2,5.4C90.9,6.8,89.4,7.4,86,7.4z"/>
	<path fill="#FFFFFF" d="M27.4,31.4c0.2-0.9,1-1.4,1.6-2c3.5-3.5,2.6-3.3,5.8,0.1c1.9,2,1.9,2-0.2,4.1C32,36,32,36,29.3,33.6
		C28.6,33,27.8,32.4,27.4,31.4z"/>
	<path fill="#FFFFFF" d="M67,11.3c0.1,0.9-0.3,1.2-0.7,1.4c-1.3,0.5-2.6,1.1-3.9,1.6c-0.8,0.3-1.3,0-1.6-0.7
		c-0.1-0.2-0.2-0.5-0.3-0.7c-2.2-4.7-1.9-5.3,3.2-6.6c0.5-0.1,1.1-0.4,1.4,0.3C65.9,8.2,66.5,9.9,67,11.3z"/>
	<path fill="#FFFFFF" d="M20.9,50.6c-1,1.6-1.7,3.4-2.9,4.8c-0.1,0.1-0.5,0.1-0.7,0.1c-0.3-0.1-0.6-0.3-0.9-0.4
		c-4.8-2.3-5-2.9-1.7-7.3c0.4-0.5,0.7-1.1,1.4-0.7c1.5,0.9,3,1.8,4.4,2.8C20.7,50.1,20.7,50.4,20.9,50.6z"/>
	<path fill="#FFFFFF" d="M8.3,78.5C5,78.3,3,77.4,3.1,76.1c0.2-3,1.4-5.4,2.5-5.2c2.8,0.3,5.3,1.6,5.2,2.7
		C10.5,76.5,9.5,78.6,8.3,78.5z"/>
	<path fill="#FFFFFF" d="M6.7,90.8c-5.5-0.3-6-0.5-5.9-2.3c0.2-4.1,0.7-5.2,2.3-4.9c4.3,0.6,5.5,0.5,5,2.4
		C7.6,87.6,8.7,90.1,6.7,90.8z"/>
	<path fill="#FFFFFF" d="M8.2,113.8c0,1.6-1.8,2.7-5.4,2.2c-2.8-0.4-1.9-3.5-1.8-5.1c0.1-3,3.1-1.5,4.8-1.9
		C7.6,108.6,8.1,109.9,8.2,113.8z"/>
	<path fill="#FFFFFF" d="M15.1,137.6c0.1,0.8,0,1.1-0.4,1.2c-1.5,0.7-3.1,1.8-4.7,2.1c-1.9,0.3-1.6-1.8-2.1-2.8
		c-0.5-1-1.9-2.3-0.4-3.3c1.4-0.9,3.2-1.3,4.8-1.9c0.3-0.1,0.7,0,0.9,0.3C13.8,134.7,14.5,136.3,15.1,137.6z"/>
	<path fill="#FFFFFF" d="M16.1,152.4c-0.6,0.1-0.9,0-1.1-0.3c-0.9-1.5-1.9-3-2.6-4.5c-0.6-1.2,0.7-1.5,1.4-1.7
		c1.5-0.4,2.7-2.8,4.5-1.4c1.1,0.9,1.6,2.6,2.4,3.9c0.2,0.3,0.3,0.7,0,0.9C19.3,150.7,17.5,151.5,16.1,152.4z"/>
	<path fill="#FFFFFF" d="M23.1,163.2c-0.7-0.2-1-0.9-1.4-1.4c-3.6-4.7-3.3-3.2,0.9-6.6c1.4-1.2,2.2-0.8,3.2,0.6
		c2.5,3.5,2.6,3.5-0.8,6.2C24.4,162.4,23.9,163,23.1,163.2z"/>
	<path fill="#FFFFFF" d="M42,181c-0.7,0-4.9-3.3-5-3.7c-0.1-0.4,0.1-0.6,0.3-0.9c0.2-0.3,0.4-0.5,0.6-0.8c3.9-4.6,2.1-4.2,7.1-0.6
		c0.5,0.4,1,0.8,0.6,1.5c-1,1.4-2,2.8-3,4.2C42.4,180.9,42.1,180.9,42,181z"/>
	<path fill="#FFFFFF" d="M51.5,179.4c1.3,0.8,2.8,1.7,4.3,2.7c0.4,0.3,0.2,0.7,0.1,1.1c-0.7,1.4-1.4,2.7-2.2,4.1
		c-0.4,0.8-1,0.8-1.7,0.5c-0.2-0.1-0.4-0.2-0.5-0.3c-4.6-2.4-4.8-3.7-1.4-7.5C50.5,179.6,50.7,179.3,51.5,179.4z"/>
	<path fill="#FFFFFF" d="M55.9,16.7c0,0.8-0.4,1-0.8,1.3c-4,3-4.2,2.9-6.9-1.2c-1.1-1.7-0.8-2.4,0.9-3.4c3.9-2.2,3.9-2.3,6,1.6
		C55.4,15.6,55.7,16.2,55.9,16.7z"/>
	<path fill="#FFFFFF" d="M45.6,23.3c0.1,0.7-0.3,1-0.7,1.3c-5,3.6-3.2,4-7.2-0.6c-0.9-1.1-1-1.8,0.2-2.7c5.1-3.8,3.4-3.6,7,1
		C45.2,22.6,45.4,23,45.6,23.3z"/>
	<path fill="#FFFFFF" d="M15.2,61.6c-0.7,1.6-1.4,3.3-2.2,4.9c-0.2,0.4-0.7,0.3-1.1,0.1c-1.4-0.5-2.9-1.1-4.3-1.6
		c-0.7-0.3-1-0.7-0.7-1.4c0.1-0.3,0.2-0.6,0.3-0.9c1.8-4.7,3.1-5.1,7.2-2.1C14.8,60.9,15.1,61.1,15.2,61.6z"/>
	<path fill="#FFFFFF" d="M32,172.7c-0.9-0.2-1.4-1-2-1.6c-3.4-3.5-3.1-2.6,0.1-5.7c2-2,2.1-2,4.1,0.1c2.9,2.9,3,2.1,0.1,5.2
		C33.5,171.4,32.9,172.3,32,172.7z"/>
	<path fill="#FFFFFF" d="M62.4,185.1c1.3,0.6,3,1,4.3,2c1.2,0.9,0,2.1-0.4,3c-0.5,1.1-0.3,3.1-1.9,3.1c-1.8-0.1-3.9-0.8-5-2.1
		c-1.2-1.4,0.8-2.9,1.2-4.5C60.9,186,61.1,185,62.4,185.1z"/>
	<path fill="#FFFFFF" d="M91,195c-0.2,4.7-0.2,4.7-4.8,4.1c-2.5-0.3-2.7-0.5-2.2-2.8c0.9-4.8,0.1-4.5,4.8-3.8
		C91,192.7,91.1,192.8,91,195z"/>
	<path fill="#FFFFFF" d="M71,4.7c0-0.9,3.3-2.4,5.4-2.4c1,0,2.3,3,2.3,5.4c0,0.9-3.2,2.4-5.2,2.4C72.7,10.1,71.1,6.8,71,4.7z"/>
	<path fill="#FFFFFF" d="M24.1,45.2c-0.5,0-4.7-3-4.9-3.5c-0.2-0.4,0-0.8,0.2-1.1c0.9-1.2,1.9-2.4,2.8-3.7c0.4-0.6,1-0.7,1.5-0.2
		c1.2,1,2.4,1.9,3.6,2.9c0.2,0.2,0.4,0.4,0.5,0.6C28.1,41,24.8,45.2,24.1,45.2z"/>
	<path fill="#FFFFFF" d="M3.1,123.3c0-1,2.8-2.2,5.3-2.2c1,0,2.5,2.9,2.5,5.1c0,0.9-3.5,2.6-5.4,2.6C4.5,128.8,3,125.4,3.1,123.3z"
		/>
	<path fill="#FFFFFF" d="M76.5,197.2c-2.6-0.1-5.4-1.4-5.3-2.5c0.2-2.6,1.6-5.3,2.7-5.3c2.8,0.2,5,1.4,5,2.6
		C78.7,195,77.7,197.2,76.5,197.2z"/>
	<path fill="#FFFFFF" d="M7.1,99.8c0,0.5-0.1,1.1,0,1.6c0.2,1.2-0.4,1.8-1.6,1.7c-0.2,0-0.4,0-0.6,0c-1.4-0.2-3.3,1.1-4.2-0.2
		c-1-1.5-0.8-3.7-0.2-5.3c0.8-2.4,3.2-0.8,4.9-1.1c1.1-0.3,1.9,0.2,1.8,1.5C7,98.6,7,99.2,7.1,99.8L7.1,99.8z"/>
	<path fill="#FFFFFF" d="M167.8,99.7c0.3,37.4-30.4,67.9-67.5,68c-37.3,0.1-68.1-30.9-67.9-68.3c0.2-37.2,30.6-67.8,67.9-67.7
		C137.4,31.8,168.1,62.4,167.8,99.7z M100.3,38.5c-34.2,0.4-61.2,27.3-61,61.5c0.1,34.1,27,60.9,60.9,60.8
		c34.1,0,60.9-27.1,60.8-61.3C160.9,65.4,134.1,39.1,100.3,38.5z"/>
	<path fill="#FFFFFF" d="M97.1,94.3c0,3.2,0.1,6.5,0,9.7c0,1.5,0.4,2.1,2,2.1c4.6,0,4.5,0.1,4.5,4.7c0,1.6-0.7,2-2.2,2
		c-4.2,0-4.3,0.1-4.3,4.4c0,1.6-0.6,2.1-2.1,2.1c-4.5,0-4.6,0.1-4.6-4.5c0-1.5-0.5-2-2-2c-3.4,0.1-6.8,0.1-10.2,0
		c-3.4,0-4.9-2.7-3.1-5.6c5.1-8.4,10.3-16.6,15.5-25c1-1.6,2.4-2.4,4.2-1.8c1.8,0.6,2.3,2,2.3,3.8C97,87.6,97.1,90.9,97.1,94.3z
		 M90.3,96.1c-0.1,0-0.2,0-0.3-0.1c-1.8,2.9-3.6,5.8-5.4,8.7c-0.3,0.4-1,1.2,0.2,1.3c1.5,0.1,3.1,0.1,4.6,0c0.9,0,1-0.8,1-1.5
		C90.3,101.7,90.3,98.9,90.3,96.1z"/>
	<path fill="#FFFFFF" d="M59.3,112.5c3.6,0,6.8,0.1,9.9,0c1.6-0.1,2.3,0.5,2.2,2.2c-0.1,5.4,0.6,4.5-4.6,4.6c-4.8,0.1-9.5,0-14.3,0
		c-1.6,0-2.9-0.4-3.7-1.9c-0.7-1.5-0.3-2.9,0.8-4.1c4.2-5.1,8.4-10.1,12.6-15.2c1.8-2.2,2.7-4.6,2.1-7.5c-0.5-2.1-2.3-3.5-4.3-3.5
		c-2.1,0-3.7,1.4-4.4,3.4c-0.3,0.9,0.2,2.4-0.9,2.7c-1.7,0.5-3.6,0.3-5.4,0.1c-0.9-0.1-0.7-1-0.7-1.7c-0.2-4.7,2.9-9.1,7.5-10.8
		c4.5-1.7,10-0.1,12.8,3.7c3.6,4.9,3,10,0.4,15c-2,3.9-5.3,6.9-8,10.3C60.8,110.6,60.2,111.3,59.3,112.5z"/>
	<path fill="#FFFFFF" d="M138.8,80.2c3,0,6,0,9,0c3.4,0,5,2.6,3.2,5.6c-4.5,7.8-7.3,16.1-8.4,25c-0.3,2.2-0.4,4.4-0.5,6.6
		c0,1.3-0.5,1.8-1.8,1.8c-5.9-0.1-5.1,0.7-4.9-4.8c0.3-8.7,2.5-17.1,6.1-25.1c1.1-2.4,1.1-2.4-1.6-2.4c-1.9,0-3.9,0-5.8,0
		c-1.1,0-1.8,0.3-1.7,1.6c0.1,1.4-0.7,1.7-1.9,1.7c-5.8-0.1-4.7,0.7-4.8-4.7c0-1.1-0.2-2.3,0.3-3.4c0.7-1.3,1.8-1.9,3.3-1.9
		C132.5,80.2,135.6,80.2,138.8,80.2z"/>
	<path fill="#FFFFFF" d="M106.7,117.4c1.1-4.5,2.2-9,3.4-13.5c1.9-7.4,3.8-14.8,5.5-22.3c0.4-1.8,1-2.3,2.9-1.8
		c5.2,1.5,4.6,0.4,3.3,5.6c-2.6,10.8-5.4,21.5-8,32.2c-0.5,1.9-1.2,2.7-3.1,1.9c-0.9-0.4-1.9-0.5-2.9-0.8
		C107,118.7,106.5,118.3,106.7,117.4z"/>
</g>
</svg>
