<?xml version="1.0" encoding="utf-8"?>
<!-- Generator: Adobe Illustrator 23.0.1, SVG Export Plug-In . SVG Version: 6.00 Build 0)  -->
<svg version="1.1" id="Layer_1" xmlns="http://www.w3.org/2000/svg" xmlns:xlink="http://www.w3.org/1999/xlink" x="0px" y="0px"
	 viewBox="0 0 60 60" style="enable-background:new 0 0 60 60;" xml:space="preserve">
<style type="text/css">
	.st0{fill:#F70D39;}
</style>
<g>
	<path class="st0" d="M30.03,54.18C16.77,54.25,5.85,43.29,5.86,29.88C5.88,16.56,16.83,5.54,30.24,5.64
		c13.28,0.1,24.13,11.1,23.98,24.56C54.07,43.42,43.26,54.25,30.03,54.18z M52.19,29.92C52.04,17.47,42.32,7.73,30.09,7.71
		C17.76,7.7,7.93,17.51,7.93,29.95c0,12.24,9.67,22.19,22.16,22.17C42.37,52.09,52.02,42.36,52.19,29.92z"/>
	<path class="st0" d="M50.34,10.84c0,0.72-0.01,1.42,0,2.12c0.01,0.38-0.12,0.55-0.52,0.54c-1.82-0.03-1.47,0.2-1.49-1.44
		c-0.02-1.09-0.01-2.18,0-3.27c0.01-0.84,0.34-1.19,1.16-1.19c1.37-0.01,2.73,0.01,4.1-0.01c0.49-0.01,0.62,0.18,0.61,0.64
		c-0.04,1.65,0.18,1.36-1.37,1.39c-0.18,0-0.35,0-0.64,0c0.85,1.02,1.64,1.95,2.33,2.96c3.05,4.4,4.88,9.25,5.34,14.59
		c0.69,8-1.43,15.21-6.39,21.48c-4.9,6.2-11.35,9.82-19.12,11.05c-1.21,0.19-2.43,0.29-3.66,0.3c-0.57,0-0.73-0.2-0.7-0.74
		c0.07-1.42-0.3-1.31,1.33-1.37c12.66-0.49,23.66-9.8,26.07-22.49c1.74-9.17-0.58-17.3-6.69-24.33c-0.05-0.06-0.11-0.12-0.17-0.17
		C50.5,10.88,50.45,10.87,50.34,10.84z"/>
	<path class="st0" d="M25.79,2.22c-0.44-0.01-0.68-0.55-0.7-1.58C25.08,0.23,25.65,0,26.69,0c0.45,0,0.61,0.43,0.59,1.62
		C27.27,2.05,26.82,2.23,25.79,2.22z"/>
	<path class="st0" d="M8.21,9.42C8.27,9.14,8.5,8.99,8.68,8.81c1.05-1.04,0.77-0.98,1.73,0.02c0.58,0.6,0.57,0.61-0.05,1.23
		C9.6,10.81,9.6,10.81,8.8,10.09C8.59,9.89,8.33,9.72,8.21,9.42z"/>
	<path class="st0" d="M20.11,3.38c0.03,0.28-0.08,0.36-0.21,0.42c-0.39,0.16-0.78,0.32-1.16,0.49c-0.23,0.1-0.38,0.01-0.48-0.2
		c-0.03-0.07-0.07-0.15-0.1-0.22c-0.65-1.41-0.57-1.59,0.97-1.98c0.16-0.04,0.34-0.11,0.42,0.08C19.76,2.47,19.95,2.98,20.11,3.38z"
		/>
	<path class="st0" d="M6.27,15.19c-0.29,0.49-0.51,1.01-0.87,1.44c-0.04,0.04-0.15,0.04-0.22,0.02c-0.1-0.02-0.18-0.08-0.27-0.12
		c-1.45-0.7-1.49-0.87-0.52-2.18c0.11-0.15,0.22-0.32,0.43-0.2c0.45,0.26,0.89,0.54,1.32,0.83C6.2,15.02,6.22,15.11,6.27,15.19z"/>
	<path class="st0" d="M2.48,23.56C1.5,23.5,0.9,23.21,0.93,22.83c0.07-0.91,0.41-1.61,0.76-1.57c0.85,0.09,1.59,0.47,1.56,0.81
		C3.16,22.95,2.84,23.58,2.48,23.56z"/>
	<path class="st0" d="M2,27.23c-1.66-0.08-1.79-0.14-1.76-0.7c0.06-1.22,0.2-1.55,0.68-1.47c1.28,0.19,1.66,0.16,1.5,0.72
		C2.28,26.28,2.62,27.02,2,27.23z"/>
	<path class="st0" d="M2.45,34.15c0,0.47-0.53,0.8-1.62,0.65c-0.85-0.11-0.56-1.05-0.54-1.54c0.04-0.9,0.93-0.45,1.43-0.56
		C2.28,32.57,2.44,32.96,2.45,34.15z"/>
	<path class="st0" d="M4.52,41.27c0.03,0.23-0.01,0.32-0.11,0.37C3.95,41.86,3.49,42.17,3,42.26c-0.56,0.1-0.49-0.53-0.64-0.85
		c-0.14-0.3-0.56-0.7-0.13-1c0.42-0.28,0.95-0.39,1.44-0.57c0.1-0.04,0.22,0,0.26,0.1C4.15,40.42,4.36,40.9,4.52,41.27z"/>
	<path class="st0" d="M4.83,45.73c-0.18,0.04-0.27-0.01-0.33-0.1c-0.27-0.45-0.56-0.89-0.77-1.36c-0.17-0.36,0.22-0.46,0.42-0.52
		c0.46-0.13,0.82-0.84,1.35-0.41c0.33,0.27,0.48,0.78,0.71,1.18c0.05,0.09,0.09,0.21,0.01,0.28C5.79,45.21,5.26,45.46,4.83,45.73z"
		/>
	<path class="st0" d="M6.94,48.96c-0.22-0.06-0.31-0.26-0.43-0.41c-1.08-1.4-0.99-0.97,0.26-1.98c0.43-0.35,0.66-0.24,0.95,0.17
		c0.75,1.05,0.77,1.04-0.25,1.85C7.31,48.73,7.17,48.91,6.94,48.96z"/>
	<path class="st0" d="M12.61,54.29c-0.2-0.01-1.47-0.98-1.51-1.12c-0.03-0.11,0.02-0.19,0.08-0.27c0.06-0.08,0.12-0.16,0.19-0.23
		c1.16-1.37,0.62-1.27,2.14-0.17c0.15,0.11,0.31,0.24,0.17,0.44c-0.29,0.43-0.6,0.85-0.91,1.27C12.72,54.26,12.63,54.28,12.61,54.29
		z"/>
	<path class="st0" d="M15.46,53.81c0.38,0.23,0.85,0.51,1.3,0.8c0.12,0.08,0.07,0.22,0.02,0.33c-0.21,0.41-0.43,0.82-0.65,1.23
		c-0.12,0.23-0.29,0.25-0.5,0.14c-0.05-0.03-0.11-0.06-0.16-0.08c-1.38-0.71-1.45-1.1-0.41-2.25
		C15.15,53.88,15.22,53.78,15.46,53.81z"/>
	<path class="st0" d="M16.78,5c0,0.23-0.13,0.3-0.24,0.39c-1.2,0.9-1.25,0.87-2.06-0.35c-0.33-0.5-0.24-0.73,0.26-1.01
		c1.17-0.66,1.16-0.68,1.8,0.49C16.63,4.69,16.72,4.87,16.78,5z"/>
	<path class="st0" d="M13.68,6.99c0.03,0.21-0.09,0.3-0.21,0.38c-1.5,1.08-0.97,1.19-2.16-0.18c-0.28-0.32-0.31-0.54,0.07-0.82
		c1.52-1.14,1.02-1.07,2.09,0.31C13.56,6.78,13.62,6.9,13.68,6.99z"/>
	<path class="st0" d="M4.56,18.49c-0.22,0.49-0.43,0.99-0.66,1.47c-0.06,0.12-0.22,0.08-0.33,0.04c-0.43-0.15-0.86-0.32-1.29-0.48
		c-0.2-0.08-0.29-0.21-0.2-0.42c0.04-0.09,0.07-0.19,0.1-0.28c0.53-1.41,0.93-1.52,2.16-0.63C4.43,18.26,4.54,18.32,4.56,18.49z"/>
	<path class="st0" d="M9.59,51.81c-0.28-0.07-0.43-0.3-0.61-0.48C7.95,50.28,8.05,50.56,9,49.62c0.61-0.6,0.62-0.6,1.24,0.04
		c0.86,0.87,0.9,0.62,0.02,1.55C10.05,51.43,9.88,51.69,9.59,51.81z"/>
	<path class="st0" d="M18.73,55.54c0.39,0.17,0.9,0.31,1.29,0.59c0.36,0.26,0.01,0.63-0.11,0.91c-0.15,0.34-0.08,0.94-0.58,0.93
		c-0.54-0.02-1.18-0.24-1.51-0.64c-0.36-0.42,0.24-0.88,0.37-1.34C18.26,55.79,18.32,55.5,18.73,55.54z"/>
	<path class="st0" d="M27.3,58.5c-0.06,1.4-0.06,1.4-1.43,1.23c-0.74-0.09-0.8-0.14-0.67-0.85c0.26-1.44,0.04-1.35,1.43-1.15
		C27.3,57.82,27.33,57.83,27.3,58.5z"/>
	<path class="st0" d="M21.31,1.41c-0.01-0.28,0.98-0.71,1.62-0.71c0.3,0,0.68,0.89,0.69,1.63c0.01,0.28-0.96,0.73-1.55,0.72
		C21.8,3.04,21.33,2.03,21.31,1.41z"/>
	<path class="st0" d="M7.22,13.55c-0.14,0-1.4-0.9-1.46-1.04c-0.06-0.13,0-0.24,0.07-0.33c0.28-0.37,0.56-0.73,0.84-1.1
		c0.13-0.17,0.29-0.2,0.46-0.06c0.36,0.29,0.72,0.58,1.07,0.88c0.06,0.05,0.12,0.12,0.14,0.19C8.42,12.29,7.43,13.55,7.22,13.55z"/>
	<path class="st0" d="M0.92,36.98c0.01-0.3,0.85-0.65,1.59-0.67c0.31-0.01,0.74,0.88,0.75,1.54c0,0.28-1.04,0.78-1.62,0.78
		C1.35,38.64,0.91,37.62,0.92,36.98z"/>
	<path class="st0" d="M22.96,59.15c-0.79-0.03-1.62-0.42-1.6-0.75c0.06-0.78,0.48-1.6,0.81-1.58c0.84,0.06,1.51,0.42,1.49,0.79
		C23.61,58.5,23.31,59.16,22.96,59.15z"/>
	<path class="st0" d="M2.12,29.95c0,0.16-0.02,0.32,0,0.48c0.05,0.37-0.12,0.53-0.48,0.5c-0.06,0-0.12,0.01-0.18,0
		c-0.43-0.05-0.99,0.32-1.26-0.07c-0.3-0.44-0.23-1.1-0.07-1.58c0.24-0.73,0.96-0.23,1.46-0.33C1.91,28.87,2.15,29,2.12,29.4
		C2.1,29.58,2.11,29.76,2.12,29.95C2.12,29.95,2.12,29.95,2.12,29.95z"/>
	<path class="st0" d="M50.34,29.91c0.08,11.22-9.13,20.38-20.24,20.41C18.9,50.35,9.67,41.06,9.72,29.83
		C9.77,18.68,18.9,9.5,30.08,9.52C41.23,9.54,50.42,18.71,50.34,29.91z M30.09,11.56c-10.27,0.12-18.35,8.19-18.3,18.44
		c0.04,10.24,8.1,18.26,18.27,18.25c10.24-0.01,18.28-8.14,18.24-18.4C48.26,19.63,40.24,11.73,30.09,11.56z"/>
	<path class="st0" d="M29.12,28.28c0,0.97,0.02,1.94-0.01,2.9c-0.01,0.46,0.12,0.64,0.61,0.64c1.37,0,1.35,0.02,1.34,1.41
		c0,0.49-0.2,0.61-0.65,0.61c-1.26,0.01-1.28,0.02-1.29,1.31c0,0.48-0.17,0.62-0.63,0.63c-1.36,0.01-1.38,0.02-1.38-1.36
		c0-0.45-0.15-0.6-0.59-0.59c-1.02,0.02-2.05,0.02-3.07,0c-1.03-0.01-1.48-0.8-0.94-1.68c1.53-2.51,3.1-4.99,4.65-7.49
		c0.3-0.48,0.72-0.72,1.27-0.54c0.53,0.17,0.7,0.6,0.69,1.14C29.11,26.27,29.12,27.28,29.12,28.28z M27.1,28.84
		c-0.03-0.01-0.07-0.01-0.1-0.02c-0.54,0.87-1.09,1.73-1.62,2.6c-0.08,0.13-0.3,0.35,0.06,0.38c0.46,0.04,0.92,0.02,1.38,0
		c0.28-0.01,0.29-0.23,0.29-0.44C27.1,30.52,27.1,29.68,27.1,28.84z"/>
	<path class="st0" d="M17.78,33.75c1.09,0,2.03,0.02,2.97-0.01c0.49-0.02,0.68,0.14,0.66,0.65c-0.04,1.63,0.18,1.36-1.38,1.38
		c-1.43,0.02-2.85,0-4.28,0.01c-0.48,0-0.88-0.12-1.1-0.58c-0.21-0.45-0.08-0.86,0.23-1.23c1.26-1.52,2.52-3.03,3.77-4.56
		c0.53-0.65,0.81-1.39,0.63-2.24c-0.14-0.64-0.68-1.05-1.3-1.05c-0.62,0-1.12,0.41-1.33,1.03c-0.09,0.28,0.06,0.72-0.26,0.81
		c-0.52,0.15-1.08,0.1-1.61,0.02c-0.27-0.04-0.21-0.3-0.22-0.5c-0.06-1.4,0.87-2.73,2.26-3.24c1.35-0.5,3.01-0.03,3.85,1.11
		c1.07,1.46,0.91,3,0.13,4.5c-0.6,1.17-1.6,2.06-2.4,3.09C18.24,33.18,18.06,33.39,17.78,33.75z"/>
	<path class="st0" d="M41.63,24.06c0.9,0,1.81-0.01,2.71,0c1.03,0.01,1.49,0.78,0.97,1.68c-1.34,2.34-2.2,4.83-2.52,7.51
		c-0.08,0.66-0.13,1.32-0.16,1.99c-0.01,0.38-0.14,0.54-0.53,0.54c-1.77-0.03-1.53,0.22-1.47-1.44c0.1-2.62,0.75-5.13,1.82-7.53
		c0.32-0.73,0.32-0.73-0.47-0.73c-0.58,0-1.16,0.01-1.75,0c-0.34-0.01-0.55,0.1-0.51,0.48c0.04,0.42-0.2,0.5-0.56,0.5
		c-1.74-0.03-1.42,0.2-1.45-1.41c-0.01-0.34-0.07-0.69,0.1-1.01c0.2-0.4,0.54-0.57,0.98-0.57C39.74,24.07,40.69,24.06,41.63,24.06z"
		/>
	<path class="st0" d="M32.01,35.23c0.34-1.35,0.67-2.69,1.01-4.04c0.56-2.23,1.13-4.45,1.66-6.68c0.13-0.53,0.31-0.7,0.86-0.54
		c1.55,0.46,1.37,0.12,0.99,1.67c-0.79,3.23-1.61,6.44-2.39,9.67c-0.14,0.58-0.36,0.8-0.94,0.58c-0.28-0.11-0.58-0.16-0.87-0.23
		C32.09,35.6,31.95,35.49,32.01,35.23z"/>
</g>
</svg>
