<?xml version="1.0" encoding="utf-8"?>
<!-- Generator: Adobe Illustrator 18.1.1, SVG Export Plug-In . SVG Version: 6.00 Build 0)  -->
<svg version="1.1" id="Layer_1" xmlns="http://www.w3.org/2000/svg" xmlns:xlink="http://www.w3.org/1999/xlink" x="0px" y="0px"
	 viewBox="-230 322 150 150" enable-background="new -230 322 150 150" xml:space="preserve">
<title>Technical SEO</title>
<g id="Technical_SEO">
	<path fill="#FC4D4A" d="M-176.7,420.9L-176.7,420.9c-0.9-0.9-2.3-0.9-3.2-0.1c-0.9,0.9-0.8,2.2,0,3.1c0,0,0,0,0,0l0.1,0.1
		c0.9,0.8,2.2,0.8,3.1,0C-175.8,423.1-175.8,421.7-176.7,420.9z"/>
	<path fill="#FC4D4A" d="M-129.8,373.8c-13.8-13.8-36.3-13.8-50.1,0c-11.3,11.3-13.6,28.8-5.7,42.7c0.6,1,1.9,1.4,3,0.8
		c1-0.6,1.4-1.9,0.8-3l0,0c-8.5-14.9-3.4-33.8,11.4-42.4s33.8-3.4,42.4,11.4s3.4,33.8-11.4,42.4c-9.6,5.5-21.5,5.5-31.1-0.1
		c-1-0.6-2.4-0.3-3,0.8s-0.3,2.4,0.8,3c16.9,9.8,38.6,4.1,48.4-12.8C-116.1,402.8-118.4,385.2-129.8,373.8L-129.8,373.8z"/>
	<path fill="#FC4D4A" d="M-98.9,389.3c0-1.1-0.8-2-1.8-2.2l-8.1-1.3l-4.3-10.3l4.8-6.6c0.6-0.9,0.5-2.1-0.2-2.8l-13.6-13.5
		c-0.8-0.8-2-0.9-2.8-0.2l-6.6,4.8l-10.3-4.3l-1.3-8.1c-0.2-1.1-1.1-1.8-2.2-1.8h0l-19.2,0c-1.1,0-2,0.8-2.2,1.8l-1.3,8.1l-10.3,4.3
		l-6.6-4.8c-0.9-0.6-2.1-0.5-2.8,0.2l-13.5,13.6c-0.8,0.8-0.9,2-0.2,2.8l4.8,6.6l-4.3,10.3l-8.1,1.3c-1.1,0.2-1.8,1.1-1.8,2.2
		l0,19.2c0,1.1,0.8,2,1.8,2.2l8.1,1.3l4.3,10.3l-4.8,6.6c-0.6,0.9-0.5,2.1,0.2,2.8l13.6,13.5c0.8,0.8,2,0.9,2.8,0.2l6.6-4.8
		l10.3,4.3l1.3,8.1c0.2,1.1,1.1,1.8,2.2,1.8h0l19.2,0c1.1,0,2-0.8,2.2-1.8l1.3-8.1l10.3-4.3l6.6,4.8c0.9,0.6,2.1,0.5,2.8-0.2
		l13.5-13.6c0.8-0.8,0.9-2,0.2-2.8l-4.8-6.6l4.3-10.3l8.1-1.3c1.1-0.2,1.8-1.1,1.8-2.2L-98.9,389.3z M-110.6,407.7
		c-0.8,0.1-1.4,0.6-1.7,1.3l-5.2,12.6c-0.3,0.7-0.2,1.5,0.3,2.1l4.4,6.1l-10.9,10.9l-6.1-4.4c-0.6-0.4-1.4-0.5-2.1-0.2l-12.6,5.2
		c-0.7,0.3-1.2,0.9-1.3,1.7l-1.2,7.4l-15.4,0l-1.2-7.4c-0.1-0.8-0.6-1.4-1.3-1.7l-12.6-5.2c-0.7-0.3-1.5-0.2-2.1,0.3l-6.1,4.4
		l-10.9-10.9l4.4-6.1c0.4-0.6,0.5-1.4,0.2-2.1l-5.2-12.6c-0.3-0.7-0.9-1.2-1.7-1.3l-7.4-1.2l0-15.4l7.4-1.2c0.8-0.1,1.4-0.6,1.7-1.3
		l5.2-12.6c0.3-0.7,0.2-1.5-0.3-2.1l-4.4-6.1l10.9-10.9l6.1,4.4c0.6,0.4,1.4,0.5,2.1,0.2l12.6-5.2c0.7-0.3,1.2-0.9,1.3-1.7l1.2-7.4
		l15.4,0l1.2,7.4c0.1,0.8,0.6,1.4,1.3,1.7l12.6,5.2c0.7,0.3,1.5,0.2,2.1-0.3l6.1-4.4l10.9,10.9l-4.4,6.1c-0.4,0.6-0.5,1.4-0.2,2.1
		l5.2,12.6c0.3,0.7,0.9,1.2,1.7,1.3l7.4,1.2l0,15.4L-110.6,407.7z"/>
	<path fill="#FC4D4A" d="M-144.2,400.9c-2.4,0.1-4.6,1.2-6,3.1l-8.7-0.2c-2.5-3.5-7.4-4.4-10.9-1.9c-1.1,0.8-2.1,1.9-2.6,3.2
		c-0.3,0.7,0,1.5,0.7,1.9c0.2,0.1,0.4,0.1,0.6,0.1l2.9,0.1c0.6,0,1.1,0.5,1.1,1.1c0,0.6-0.5,1.1-1.1,1.1l-2.9-0.1
		c-0.8,0-1.4,0.6-1.4,1.4c0,0.2,0,0.4,0.1,0.6c1.6,4,6.2,6,10.2,4.3c1.3-0.5,2.5-1.4,3.3-2.5l8.7,0.2c2.5,3.5,7.4,4.4,10.9,1.9
		c1.2-0.8,2.1-1.9,2.7-3.2c0.3-0.7,0-1.5-0.7-1.9c-0.2-0.1-0.4-0.1-0.5-0.1l-2.9-0.1c-0.6,0-1.1-0.5-1.1-1.1s0.5-1.1,1.1-1.1
		l2.9,0.1c0.8,0,1.4-0.6,1.4-1.4c0-0.2,0-0.4-0.1-0.6C-137.9,402.8-140.9,400.8-144.2,400.9z M-140.8,404.9c-2.2,0-4,1.7-4,3.9
		c0,2.2,1.7,4,3.9,4l0,0l0.1,0c-2.2,1.7-5.4,1.3-7-0.9c-0.2-0.2-0.3-0.4-0.4-0.6c-0.2-0.4-0.7-0.7-1.2-0.7l-10.3-0.2
		c-0.5,0-1,0.3-1.2,0.7c-1.4,2.4-4.5,3.2-6.9,1.7c-0.2-0.1-0.4-0.3-0.6-0.5l0.1,0c2.2,0,4-1.7,4-3.9c0-2.2-1.7-4-3.9-4l-0.1,0
		c2.2-1.7,5.4-1.3,7,0.9c0.1,0.2,0.3,0.4,0.4,0.6c0.2,0.4,0.7,0.7,1.2,0.7l10.3,0.2c0.5,0,1-0.2,1.2-0.7c1.4-2.4,4.5-3.1,6.9-1.7
		C-141.1,404.6-140.9,404.7-140.8,404.9L-140.8,404.9z"/>
	<text transform="matrix(1 0 0 1 -174.0182 397.5)" fill="#FC4D4A" font-family="'ArialMT'" font-size="12">SEO</text>
</g>
</svg>
