<svg xmlns="http://www.w3.org/2000/svg" width="150" height="150" viewBox="0 0 150 150"><defs><style>.cls-1,.cls-2{fill:#fff;}.cls-2{font-size:19.47956px;font-family:ArialRoundedMTBold, Arial Rounded MT Bold;letter-spacing:-0.05001em;}</style></defs><title>Technical SEO</title><g id="Technical_SEO" data-name="Technical SEO"><path class="cls-1" d="M53.31808,98.87356l-.06425-.064a2.18558,2.18558,0,1,0-3.08344,3.0983l.07147.071a2.18552,2.18552,0,1,0,3.07622-3.1053Z"/><path class="cls-1" d="M100.23929,51.83149A35.41158,35.41158,0,0,0,44.502,94.52226,2.18559,2.18559,0,1,0,48.29012,92.341,31.03606,31.03606,0,1,1,59.57369,103.69a2.1857,2.1857,0,0,0-2.20352,3.7754,35.41152,35.41152,0,0,0,42.86912-55.63386Z"/><path class="cls-1" d="M131.14622,67.26462a2.1857,2.1857,0,0,0-1.84355-2.15783L121.235,63.82843l-4.28006-10.32191,4.79585-6.61229a2.18538,2.18538,0,0,0-.22424-2.829L107.97127,30.5191a2.18538,2.18538,0,0,0-2.82948-.22227l-6.606,4.79891L88.20671,30.82181,86.9229,22.75828a2.18584,2.18584,0,0,0-2.15849-1.8418h-.00087l-19.16395.00786a2.18588,2.18588,0,0,0-2.15784,1.84355l-1.27813,8.06769L51.84171,35.11563l-6.61229-4.79585a2.18544,2.18544,0,0,0-2.829.22424L28.85429,44.09929a2.18563,2.18563,0,0,0-.22227,2.82947l4.7989,6.606L29.157,63.86384l-8.06353,1.28382a2.18559,2.18559,0,0,0-1.842,2.15914l.00787,19.16373a2.1857,2.1857,0,0,0,1.84355,2.15783l8.06768,1.27836,4.28,10.3219-4.79584,6.61231a2.18537,2.18537,0,0,0,.22424,2.829l13.55527,13.5461a2.1854,2.1854,0,0,0,2.82947.22227l6.606-4.79891,10.32912,4.27393,1.28381,8.06353a2.18546,2.18546,0,0,0,2.15828,1.842h.00087l19.16373-.00809a2.18587,2.18587,0,0,0,2.15783-1.84354l1.27835-8.06769,10.32191-4.28005,6.61229,4.79585a2.18514,2.18514,0,0,0,2.829-.22424L121.551,109.63587a2.18563,2.18563,0,0,0,.22228-2.82948l-4.79891-6.606,4.27393-10.32912,8.06353-1.28381a2.18561,2.18561,0,0,0,1.842-2.15915Zm-11.793,18.48226a2.18536,2.18536,0,0,0-1.67592,1.32273L112.46791,99.6595a2.18562,2.18562,0,0,0,.25134,2.12025l4.42124,6.086-10.9083,10.91573-6.09234-4.41861a2.18673,2.18673,0,0,0-2.12047-.24982l-12.582,5.21745a2.18537,2.18537,0,0,0-1.32141,1.67679l-1.17782,7.433-15.43182.00656L66.32346,121.018a2.18535,2.18535,0,0,0-1.32272-1.67591l-12.5899-5.20936a2.18474,2.18474,0,0,0-2.12.25134l-6.086,4.42124L33.28908,107.897l4.41861-6.09235a2.18567,2.18567,0,0,0,.2496-2.12046l-5.21723-12.582a2.18538,2.18538,0,0,0-1.67679-1.3214L23.63006,84.603l-.00634-15.43183,7.42884-1.18284a2.18535,2.18535,0,0,0,1.67591-1.32272l5.20937-12.5899a2.18557,2.18557,0,0,0-.25135-2.12024l-4.42123-6.086,10.9083-10.91573,6.09234,4.41862a2.18522,2.18522,0,0,0,2.12046.24981l12.582-5.21745a2.18573,2.18573,0,0,0,1.32141-1.67679l1.17759-7.4332,15.43205-.00634,1.18284,7.42883A2.18537,2.18537,0,0,0,85.405,34.39307l12.5899,5.20936a2.1867,2.1867,0,0,0,2.12024-.25134l6.086-4.42124,10.91573,10.9083-4.41862,6.09234a2.18569,2.18569,0,0,0-.2496,2.12047l5.21724,12.582a2.18538,2.18538,0,0,0,1.67678,1.32141l7.43321,1.17781.00634,15.43183Z"/><path class="cls-1" d="M85.84077,78.90625a7.80257,7.80257,0,0,0-5.99524,3.10131l-8.74843-.15465A7.83949,7.83949,0,0,0,57.53678,83.159a1.40879,1.40879,0,0,0,1.26013,1.986l2.88845.05105a1.109,1.109,0,1,1-.0392,2.21774l-2.89851-.05134A1.40878,1.40878,0,0,0,57.416,89.29756,7.83305,7.83305,0,0,0,70.93372,91.101l8.74056.15461a7.837,7.837,0,0,0,13.57417-1.3234,1.40878,1.40878,0,0,0-1.26189-1.982l-2.8754-.05093a1.109,1.109,0,1,1,.0392-2.21773l2.86953.05072a1.40879,1.40879,0,0,0,1.33-1.93916A7.88131,7.88131,0,0,0,85.84077,78.90625Zm3.35939,3.95841a3.92667,3.92667,0,1,0-.1389,7.85211l.09731.00182a5.02522,5.02522,0,0,1-7.46763-1.54171,1.40848,1.40848,0,0,0-1.2067-.72473l-10.26138-.18139a1.409,1.409,0,0,0-1.23052.67966,5.006,5.006,0,0,1-7.51052,1.27874l.11454.002a3.92666,3.92666,0,0,0,.1389-7.8521l-.09423-.00167a5.02426,5.02426,0,0,1,7.44089,1.55578,1.40874,1.40874,0,0,0,1.20622.72364l10.26735.18149a1.40875,1.40875,0,0,0,1.22981-.67858,5.00511,5.00511,0,0,1,7.48419-1.29385Z"/><text class="cls-2" transform="translate(55.98179 75.5)">SEO</text></g></svg>