<svg xmlns="http://www.w3.org/2000/svg" width="150" height="150" viewBox="0 0 150 150"><defs><style>.cls-1{fill:#fff;}</style></defs><title>Traffic for websites</title><g id="Traffic_for_websites" data-name="Traffic for websites"><rect class="cls-1" x="61.62833" y="67.01054" width="3.77093" height="11.3128"/><rect class="cls-1" x="67.28473" y="68.896" width="3.77093" height="9.42733"/><rect class="cls-1" x="72.94113" y="65.12507" width="3.77093" height="13.19826"/><rect class="cls-1" x="89.91032" y="72.66693" width="3.77093" height="5.6564"/><rect class="cls-1" x="55.97193" y="70.78147" width="3.77093" height="7.54186"/><rect class="cls-1" x="78.59752" y="67.01054" width="3.77093" height="11.3128"/><rect class="cls-1" x="84.25392" y="68.896" width="3.77093" height="9.42733"/><path class="cls-1" d="M110.65045,93.40706a16.98828,16.98828,0,0,1,16.96919,16.96919h3.77093a20.76369,20.76369,0,0,0-20.74012-20.74012v-7.0705a4.24725,4.24725,0,0,0-4.2423-4.2423h-7.0705V70.78147h7.0705a4.24725,4.24725,0,0,0,4.2423-4.2423v-7.0705A20.74013,20.74013,0,1,0,89.9954,36.84308H84.25392V34.95762a1.88546,1.88546,0,0,0-1.88546-1.88547H67.28473a1.88547,1.88547,0,0,0-1.88547,1.88547v1.88546H59.65778A20.74389,20.74389,0,0,0,19.98923,30.4325l3.45559,1.50837A16.96919,16.96919,0,1,1,50.34924,51.33524V47.68451a8.96609,8.96609,0,0,0-4.9576-8.01323,6.56284,6.56284,0,0,0,1.18667-3.77093V32.12942a6.60643,6.60643,0,0,0-6.59913-6.59913H38.09371a6.60666,6.60666,0,0,0-6.59913,6.59913v3.77093a6.56283,6.56283,0,0,0,1.18666,3.77093,8.9661,8.9661,0,0,0-4.95759,8.01323v3.71177a16.93261,16.93261,0,0,1-5.6901-12.66773,17.10309,17.10309,0,0,1,.33938-3.396l-3.69551-.75a20.75921,20.75921,0,0,0,18.43985,24.801v7.15558a4.24726,4.24726,0,0,0,4.2423,4.2423h8.956v7.54186h-8.956a4.24726,4.24726,0,0,0-4.2423,4.2423v7.15558a20.74013,20.74013,0,1,0,22.54051,22.54051h5.74148v1.88547a1.88547,1.88547,0,0,0,1.88547,1.88546H82.36846a1.88546,1.88546,0,0,0,1.88546-1.88546v-1.88547H89.9954a20.74272,20.74272,0,0,0,40.98037,2.26044l-3.69551-.74995a16.88564,16.88564,0,0,1-5.28331,9.20862v-3.64861a8.9661,8.9661,0,0,0-4.9576-8.01323,6.56283,6.56283,0,0,0,1.18666-3.77093v-3.77094a6.60644,6.60644,0,0,0-6.59913-6.59913h-1.88546a6.60667,6.60667,0,0,0-6.59913,6.59913v3.77094A6.56283,6.56283,0,0,0,104.329,111.319a8.9661,8.9661,0,0,0-4.9576,8.01323V123.044a16.96189,16.96189,0,0,1,11.2791-29.63693Zm-3.73723,10.37006a2.83127,2.83127,0,0,1,2.8282-2.8282h1.88546a2.83126,2.83126,0,0,1,2.8282,2.8282v3.77094a2.83125,2.83125,0,0,1-2.8282,2.82819h-1.88546a2.83126,2.83126,0,0,1-2.8282-2.82819Zm-3.77093,15.5551a5.19091,5.19091,0,0,1,5.185-5.185H113.041a5.19091,5.19091,0,0,1,5.185,5.185v6.219a16.922,16.922,0,0,1-15.08372.041Zm-24.4479-24.636a1.88532,1.88532,0,0,0-.09687.59628V97.178H71.05566V95.29253a1.88559,1.88559,0,0,0-.09686-.59628l-1.058-3.17466h9.85156ZM54.55783,87.75066a.47136.47136,0,0,1-.47136-.47136V85.8652H95.56672v1.4141a.47136.47136,0,0,1-.47137.47136Zm41.00889-5.6564H54.08647V61.82551a.47137.47137,0,0,1,.47136-.47137H95.09535a.47137.47137,0,0,1,.47137.47137Zm7.57557-28.14977v-6.26a5.19092,5.19092,0,0,1,5.185-5.185H113.041a5.19092,5.19092,0,0,1,5.185,5.185V53.911A16.95316,16.95316,0,0,1,103.14229,53.94449Zm11.31279-18.04414a2.83126,2.83126,0,0,1-2.8282,2.8282h-1.88546a2.83127,2.83127,0,0,1-2.8282-2.8282V32.12942a2.83127,2.83127,0,0,1,2.8282-2.8282h1.88546a2.83126,2.83126,0,0,1,2.8282,2.8282Zm-3.80463-14.141a16.96189,16.96189,0,0,1,11.3465,29.5766V47.68451a8.96611,8.96611,0,0,0-4.9576-8.01323,6.56283,6.56283,0,0,0,1.18666-3.77093V32.12942a6.60643,6.60643,0,0,0-6.59913-6.59913h-1.88546a6.60666,6.60666,0,0,0-6.59913,6.59913v3.77093a6.56283,6.56283,0,0,0,1.18666,3.77093,8.96611,8.96611,0,0,0-4.9576,8.01323v3.71177a16.96189,16.96189,0,0,1,11.2791-29.63693ZM69.17019,36.84308H80.483V40.614H69.17019ZM35.26551,32.12942a2.83127,2.83127,0,0,1,2.8282-2.8282h1.88546a2.83127,2.83127,0,0,1,2.8282,2.8282v3.77093a2.83127,2.83127,0,0,1-2.8282,2.8282H38.09371a2.83127,2.83127,0,0,1-2.8282-2.8282ZM31.49458,47.68451a5.19092,5.19092,0,0,1,5.185-5.185h4.71366a5.19092,5.19092,0,0,1,5.185,5.185V53.911a16.95318,16.95318,0,0,1-15.08373.03346Zm9.865,19.326a.47137.47137,0,0,1-.47137-.47137V59.38359A20.77594,20.77594,0,0,0,59.65778,40.614h5.74148v1.88547A1.88548,1.88548,0,0,0,67.28473,44.385H82.36846a1.88547,1.88547,0,0,0,1.88546-1.88547V40.614H89.9954a20.78514,20.78514,0,0,0,16.88411,18.511v7.41412a.47136.47136,0,0,1-.47136.47137h-7.0705v-5.185a4.24724,4.24724,0,0,0-4.2423-4.2423H54.55783a4.24725,4.24725,0,0,0-4.2423,4.2423v5.185Zm-9.865,58.58166v-6.26a5.19091,5.19091,0,0,1,5.185-5.185h4.71366a5.19092,5.19092,0,0,1,5.185,5.185v6.22652A16.95318,16.95318,0,0,1,31.49458,125.5922Zm11.31279-18.04414a2.83126,2.83126,0,0,1-2.8282,2.82819H38.09371a2.83126,2.83126,0,0,1-2.8282-2.82819v-3.77094a2.83127,2.83127,0,0,1,2.8282-2.8282h1.88546a2.83127,2.83127,0,0,1,2.8282,2.8282Zm7.54187,15.43559v-3.65143a8.96608,8.96608,0,0,0-4.9576-8.01323,6.56284,6.56284,0,0,0,1.18667-3.77093v-3.77094A6.60645,6.60645,0,0,0,39.97918,97.178H38.09371a6.60667,6.60667,0,0,0-6.59913,6.59913v3.77094a6.56283,6.56283,0,0,0,1.18666,3.77093,8.9661,8.9661,0,0,0-4.95759,8.01323V123.044a16.9692,16.9692,0,1,1,22.62559-.06034ZM80.483,112.26172H69.17019v-3.77093H80.483Zm9.51241-3.77093H84.25392v-1.88547a1.88546,1.88546,0,0,0-1.88546-1.88546H67.28473a1.88547,1.88547,0,0,0-1.88547,1.88546v1.88547H59.65778A20.77594,20.77594,0,0,0,40.8882,89.72121V82.56563a.47137.47137,0,0,1,.47137-.47137h8.956v5.185a4.24724,4.24724,0,0,0,4.2423,4.24229h11.368l1.35895,4.07732V97.178H63.5138v3.77093H86.13939V97.178H82.36846V95.59891l1.35894-4.07732H95.09535a4.24723,4.24723,0,0,0,4.2423-4.24229v-5.185h7.0705a.47136.47136,0,0,1,.47136.47137v7.41413A20.78514,20.78514,0,0,0,89.9954,108.49079Z"/></g></svg>