<?xml version="1.0" encoding="utf-8"?>
<!-- Generator: Adobe Illustrator 18.1.1, SVG Export Plug-In . SVG Version: 6.00 Build 0)  -->
<svg version="1.1" id="Layer_1" xmlns="http://www.w3.org/2000/svg" xmlns:xlink="http://www.w3.org/1999/xlink" x="0px" y="0px"
	 viewBox="-230 322 150 150" enable-background="new -230 322 150 150" xml:space="preserve">
<title>Traffic for websites</title>
<g id="Traffic_for_websites">
	<rect x="-168.4" y="389" fill="#E20031" width="3.8" height="11.3"/>
	<rect x="-162.7" y="390.9" fill="#E20031" width="3.8" height="9.4"/>
	<rect x="-157.1" y="387.1" fill="#E20031" width="3.8" height="13.2"/>
	<rect x="-140.1" y="394.7" fill="#E20031" width="3.8" height="5.7"/>
	<rect x="-174" y="392.8" fill="#E20031" width="3.8" height="7.5"/>
	<rect x="-151.4" y="389" fill="#E20031" width="3.8" height="11.3"/>
	<rect x="-145.7" y="390.9" fill="#E20031" width="3.8" height="9.4"/>
	<path fill="#E20031" d="M-119.3,415.4c9.4,0,17,7.6,17,17h3.8c0-11.4-9.3-20.7-20.7-20.7v-7.1c0-2.3-1.9-4.2-4.2-4.2h-7.1v-7.5h7.1
		c2.3,0,4.2-1.9,4.2-4.2v-7.1c11.5,0,20.7-9.3,20.7-20.7c0-11.5-9.3-20.7-20.7-20.7c-10.7,0-19.7,8.2-20.7,18.9h-5.7V357
		c0-1-0.8-1.9-1.9-1.9l0,0h-15.1c-1,0-1.9,0.8-1.9,1.9v1.9h-5.7c-1-11.4-11.1-19.8-22.5-18.8c-7.5,0.7-14.1,5.4-17.1,12.4l3.5,1.5
		c3.7-8.6,13.7-12.5,22.3-8.8c8.6,3.7,12.5,13.7,8.8,22.3c-1,2.2-2.4,4.2-4.2,5.8v-3.7c0-3.4-1.9-6.5-5-8c0.8-1.1,1.2-2.4,1.2-3.8
		v-3.8c0-3.6-3-6.6-6.6-6.6h-1.9c-3.6,0-6.6,3-6.6,6.6v3.8c0,1.3,0.4,2.7,1.2,3.8c-3,1.5-5,4.6-5,8v3.7c-3.6-3.2-5.7-7.8-5.7-12.7
		c0-1.1,0.1-2.3,0.3-3.4l-3.7-0.8c-2.3,11.2,5,22.2,16.2,24.5c0.7,0.1,1.5,0.3,2.2,0.3v7.2c0,2.3,1.9,4.2,4.2,4.2h9v7.5h-9
		c-2.3,0-4.2,1.9-4.2,4.2v7.2c-11.4,1-19.8,11.1-18.8,22.5c1,11.4,11.1,19.8,22.5,18.8c10-0.9,17.9-8.8,18.8-18.8h5.7v1.9
		c0,1,0.8,1.9,1.9,1.9h15.1c1,0,1.9-0.8,1.9-1.9v-1.9h5.7c1,11.4,11.1,19.8,22.5,18.8c9.1-0.8,16.6-7.5,18.4-16.5l-3.7-0.7
		c-0.7,3.6-2.6,6.8-5.3,9.2v-3.6c0-3.4-1.9-6.5-5-8c0.8-1.1,1.2-2.4,1.2-3.8v-3.8c0-3.6-3-6.6-6.6-6.6h-1.9c-3.6,0-6.6,3-6.6,6.6
		v3.8c0,1.3,0.4,2.7,1.2,3.8c-3,1.5-5,4.6-5,8v3.7c-7-6.2-7.6-16.9-1.4-23.9C-128.8,417.5-124.2,415.4-119.3,415.4L-119.3,415.4z
		 M-123.1,425.8c0-1.6,1.3-2.8,2.8-2.8h1.9c1.6,0,2.8,1.3,2.8,2.8v3.8c0,1.6-1.3,2.8-2.8,2.8h-1.9c-1.6,0-2.8-1.3-2.8-2.8V425.8z
		 M-126.9,441.3c0-2.9,2.3-5.2,5.2-5.2h4.7c2.9,0,5.2,2.3,5.2,5.2v6.2c-4.7,2.4-10.3,2.4-15.1,0L-126.9,441.3z M-151.3,416.7
		c-0.1,0.2-0.1,0.4-0.1,0.6v1.9h-7.5v-1.9c0-0.2,0-0.4-0.1-0.6l-1.1-3.2h9.9L-151.3,416.7z M-175.4,409.8c-0.3,0-0.5-0.2-0.5-0.5
		v-1.4h41.5v1.4c0,0.3-0.2,0.5-0.5,0.5h0H-175.4z M-134.4,404.1h-41.5v-20.3c0-0.3,0.2-0.5,0.5-0.5h40.5c0.3,0,0.5,0.2,0.5,0.5
		V404.1z M-126.9,375.9v-6.3c0-2.9,2.3-5.2,5.2-5.2h4.7c2.9,0,5.2,2.3,5.2,5.2v6.2C-116.5,378.3-122.1,378.3-126.9,375.9z
		 M-115.5,357.9c0,1.6-1.3,2.8-2.8,2.8h-1.9c-1.6,0-2.8-1.3-2.8-2.8v-3.8c0-1.6,1.3-2.8,2.8-2.8h1.9c1.6,0,2.8,1.3,2.8,2.8V357.9z
		 M-119.3,343.8c9.4,0,17,7.6,17,17c0,4.8-2,9.4-5.6,12.6v-3.7c0-3.4-1.9-6.5-5-8c0.8-1.1,1.2-2.4,1.2-3.8v-3.8c0-3.6-3-6.6-6.6-6.6
		h-1.9c-3.6,0-6.6,3-6.6,6.6v3.8c0,1.3,0.4,2.7,1.2,3.8c-3,1.5-5,4.6-5,8v3.7c-7-6.2-7.6-16.9-1.4-23.9
		C-128.8,345.8-124.2,343.8-119.3,343.8z M-160.8,358.8h11.3v3.8h-11.3V358.8z M-194.7,354.1c0-1.6,1.3-2.8,2.8-2.8h1.9
		c1.6,0,2.8,1.3,2.8,2.8v3.8c0,1.6-1.3,2.8-2.8,2.8h-1.9c-1.6,0-2.8-1.3-2.8-2.8V354.1z M-198.5,369.7c0-2.9,2.3-5.2,5.2-5.2h4.7
		c2.9,0,5.2,2.3,5.2,5.2v6.2c-4.7,2.4-10.3,2.4-15.1,0L-198.5,369.7z M-188.6,389c-0.3,0-0.5-0.2-0.5-0.5v-7.2
		c10-0.9,17.8-8.8,18.8-18.8h5.7v1.9c0,1,0.8,1.9,1.9,1.9c0,0,0,0,0,0h15.1c1,0,1.9-0.8,1.9-1.9v-1.9h5.7
		c0.9,9.3,7.8,16.8,16.9,18.5v7.4c0,0.3-0.2,0.5-0.5,0.5h0h-7.1v-5.2c0-2.3-1.9-4.2-4.2-4.2h-40.5c-2.3,0-4.2,1.9-4.2,4.2v5.2
		H-188.6z M-198.5,447.6v-6.3c0-2.9,2.3-5.2,5.2-5.2h4.7c2.9,0,5.2,2.3,5.2,5.2v6.2C-188.2,449.9-193.7,449.9-198.5,447.6
		L-198.5,447.6z M-187.2,429.5c0,1.6-1.3,2.8-2.8,2.8h-1.9c-1.6,0-2.8-1.3-2.8-2.8v-3.8c0-1.6,1.3-2.8,2.8-2.8h1.9
		c1.6,0,2.8,1.3,2.8,2.8V429.5z M-179.7,445v-3.7c0-3.4-1.9-6.5-5-8c0.8-1.1,1.2-2.4,1.2-3.8v-3.8c0-3.6-3-6.6-6.6-6.6h-1.9
		c-3.6,0-6.6,3-6.6,6.6v3.8c0,1.3,0.4,2.7,1.2,3.8c-3,1.5-5,4.6-5,8v3.7c-7-6.2-7.6-17-1.4-24c6.2-7,17-7.6,24-1.4
		c7,6.2,7.6,17,1.4,24C-178.7,444.1-179.2,444.6-179.7,445L-179.7,445z M-149.5,434.3h-11.3v-3.8h11.3V434.3z M-140,430.5h-5.7v-1.9
		c0-1-0.8-1.9-1.9-1.9h-15.1c-1,0-1.9,0.8-1.9,1.9v1.9h-5.7c-0.9-10-8.8-17.8-18.8-18.8v-7.2c0-0.3,0.2-0.5,0.5-0.5h9v5.2
		c0,2.3,1.9,4.2,4.2,4.2h11.4l1.4,4.1v1.6h-3.8v3.8h22.6v-3.8h-3.8v-1.6l1.4-4.1h11.4c2.3,0,4.2-1.9,4.2-4.2v-5.2h7.1
		c0.3,0,0.5,0.2,0.5,0.5l0,0v7.4C-132.3,413.7-139.1,421.2-140,430.5L-140,430.5z"/>
</g>
</svg>
