<?xml version="1.0" encoding="utf-8"?>
<!-- Generator: Adobe Illustrator 18.1.1, SVG Export Plug-In . SVG Version: 6.00 Build 0)  -->
<svg version="1.1" id="Layer_1" xmlns="http://www.w3.org/2000/svg" xmlns:xlink="http://www.w3.org/1999/xlink" x="0px" y="0px"
	 viewBox="-230 322 150 150" enable-background="new -230 322 150 150" xml:space="preserve">
<title>Understand Your Business</title>
<g id="Understand_Your_Business">
	<path fill="#E20031" d="M-143.9,440.9v9.4h-16.8v-20.6h-3.7v20.6h-15v-26.6l8.8,5.3l2.2-11l9.8,2.3c4.3,1,7.3,4.8,7.3,9.1v11.7h3.7
		v-11.7c0-6.1-4.2-11.4-10.2-12.8l-14.2-3.3v-3.7c2-1.6,3.6-3.7,4.5-6.1c4.8-0.4,8.6-4.4,8.5-9.3h0.1v-18.4c0-4.2-2.6-8-6.6-9.4
		l-3.8-3c-9.2-7.3-22.6-5.9-29.9,3.3c-3,3.8-4.7,8.5-4.7,13.3v14.3h0.1c-0.1,4.9,3.7,8.9,8.5,9.3c1,2.4,2.5,4.5,4.5,6.1v3.7
		l-14.2,3.3c-6,1.4-10.2,6.7-10.2,12.8V454h71.1c2.1,0,3.7-1.7,3.7-3.7v-9.4h33.7v-3.7h-33.7C-142.2,437.1-143.9,438.8-143.9,440.9z
		 M-189.3,416.7l4.6,3.4l-4.6,2.8l-1-5.9L-189.3,416.7z M-173.3,422.9l-4.7-2.8l4.6-3.4l1.3,0.3L-173.3,422.9z M-164.1,397.9
		c-0.6,0.7-1.5,1.2-2.4,1.5c0.1-0.5,0.1-1,0.1-1.5v-9c2,0.7,3.5,2.5,3.7,4.7C-162.5,395.1-163,396.7-164.1,397.9z M-182.5,362.3
		c4,0,7.8,1.4,10.9,3.8l4.3,3.4l0.3,0.1c2.6,0.9,4.3,3.3,4.3,6v11.1c-1.4-1.1-3-1.7-4.8-1.9l-4.6-4.6l-1.3,1.3
		c-2,2.1-4.8,3.2-7.7,3.2h-13.1c-2.1,0-4.2,0.7-5.9,2v-7C-200,370.1-192.2,362.3-182.5,362.3z M-198.6,397.9
		c-1.1-1.2-1.6-2.8-1.4-4.3c0.3-2.1,1.7-3.9,3.7-4.7v9c0,0.5,0,1,0.1,1.5C-197.1,399.1-198,398.6-198.6,397.9z M-192.6,397.8v-9.4
		h11.5c3.2,0,6.4-1.1,9-3.1l2,2v10.5c0,6.2-5,11.2-11.2,11.2C-187.5,409.1-192.6,404-192.6,397.8
		C-192.6,397.8-192.6,397.8-192.6,397.8L-192.6,397.8z M-181.3,412.8c1.9,0,3.8-0.4,5.6-1.1v2l-5.6,4.2l-5.6-4.2v-2
		C-185.2,412.4-183.3,412.8-181.3,412.8L-181.3,412.8z M-211.3,429.2c0-4.4,3-8.2,7.3-9.1l10.1-2.3l1.9,11.1l8.9-5.3v26.6h-15v-20.6
		h-3.7v20.6h-9.4V429.2z"/>
	<path fill="#E20031" d="M-175.7,431.5h3.7v3.7h-3.7V431.5z"/>
	<path fill="#E20031" d="M-175.7,439h3.7v3.7h-3.7V439z"/>
	<path fill="#E20031" d="M-102.7,437.1h3.7v3.7h-3.7V437.1z"/>
	<path fill="#E20031" d="M-143.9,429.6H-99v3.7h-44.9V429.6z"/>
	<path fill="#E20031" d="M-143.9,422.2h37.4v3.7h-37.4V422.2z"/>
	<path fill="#E20031" d="M-102.7,422.2h3.7v3.7h-3.7V422.2z"/>
	<path fill="#E20031" d="M-141.1,398.3c0.6,0.3,0.9,0.9,0.9,1.6v7.3c0,6.2,5,11.2,11.2,11.2c6.2,0,11.2-5,11.2-11.2v-7.3
		c0-0.7,0.3-1.3,0.9-1.6c7.5-4.3,12.2-12.4,12.2-21.1c0-13.4-10.9-24.3-24.3-24.3c-0.3,0-0.7,0-1,0c-12.8,0.7-22.9,11.1-23.3,23.9
		C-153.4,385.7-148.7,393.9-141.1,398.3z M-136.4,403.4h15v3.7h-15V403.4z M-134.6,384.7h-1.9c-1,0-1.9-0.8-1.9-1.9
		c0-1,0.8-1.9,1.9-1.9c1,0,1.9,0.8,1.9,1.9V384.7z M-127.1,399.7h-3.7v-11.2h3.7L-127.1,399.7z M-128.9,414.7
		c-2.7,0-5.1-1.4-6.4-3.7h12.9C-123.8,413.2-126.3,414.7-128.9,414.7z M-129.8,356.7c0.3,0,0.6,0,0.9,0c11.4,0,20.6,9.2,20.6,20.6
		c0,7.4-4,14.1-10.3,17.8c-1.7,1-2.7,2.7-2.7,4.6h-1.9v-11.2h1.9c3.1,0,5.6-2.5,5.6-5.6c0-3.1-2.5-5.6-5.6-5.6
		c-3.1,0-5.6,2.5-5.6,5.6v1.9h-3.7v-1.9c0-3.1-2.5-5.6-5.6-5.6s-5.6,2.5-5.6,5.6c0,3.1,2.5,5.6,5.6,5.6c0,0,0,0,0,0h1.9v11.2h-1.9
		c-0.1-1.9-1.1-3.7-2.7-4.6c-6.5-3.7-10.5-10.7-10.3-18.2C-149.2,366-140.6,357.2-129.8,356.7z M-123.3,384.7v-1.9
		c0-1,0.8-1.9,1.9-1.9s1.9,0.8,1.9,1.9c0,1-0.8,1.9-1.9,1.9l0,0H-123.3z"/>
	<path fill="#E20031" d="M-115.8,377.2h3.7c0-6-3.2-11.6-8.4-14.6l-1.9,3.2C-118.3,368.2-115.9,372.6-115.8,377.2z"/>
	<path fill="#E20031" d="M-124.7,360.9c-1.4-0.4-2.8-0.5-4.2-0.5v3.7c1.1,0,2.2,0.1,3.3,0.4L-124.7,360.9z"/>
	<path fill="#E20031" d="M-130.8,337.9h3.7v11.2h-3.7L-130.8,337.9z"/>
	<path fill="#E20031" d="M-158.1,350.8l2.6-2.6l7.9,7.9l-2.6,2.6L-158.1,350.8z"/>
	<path fill="#E20031" d="M-110.4,356.1l7.9-7.9l2.6,2.6l-7.9,7.9L-110.4,356.1z"/>
</g>
</svg>
