<svg xmlns="http://www.w3.org/2000/svg" width="150" height="150" viewBox="0 0 150 150"><defs><style>.cls-1{fill:#fff;}</style></defs><title>Understand Your Business</title><g id="Understand_Your_Business" data-name="Understand Your Business"><path class="cls-1" d="M86.084,118.868v9.3575H69.24049V107.639h-3.743v20.5865h-14.972V101.58678l8.80007,5.27913,2.206-11.03436L71.3441,98.096a9.31733,9.31733,0,0,1,7.25389,9.11808V118.868h3.743V107.21407A13.04263,13.04263,0,0,0,72.18664,94.44894L58.01149,91.1793V87.492a15.05038,15.05038,0,0,0,4.54442-6.13812,9.16765,9.16765,0,0,0,8.50582-9.27343H71.112V53.66888a10.071,10.071,0,0,0-6.563-9.4498l-3.79783-3.03662A21.26884,21.26884,0,0,0,26.196,57.78929v14.2912h.05209a9.17112,9.17112,0,0,0,8.50674,9.27343,15.00773,15.00773,0,0,0,4.5435,6.13812V91.1793L25.12316,94.45077A13.03878,13.03878,0,0,0,14.967,107.21407V131.9685H86.084a3.7467,3.7467,0,0,0,3.743-3.743V118.868h33.687v-3.743H89.827A3.74671,3.74671,0,0,0,86.084,118.868ZM40.74123,94.68654l4.5627,3.42316-4.613,2.768-.99241-5.94988Zm15.95619,6.23955L52.004,98.1097l4.5627-3.42316,1.31773.30338Zm9.2122-25.06878a5.61266,5.61266,0,0,1-2.36405,1.51237,15.17649,15.17649,0,0,0,.08042-1.54619V66.86807a5.651,5.651,0,0,1,3.71467,4.65317A5.58272,5.58272,0,0,1,65.90962,75.85731ZM47.46328,40.265a17.59456,17.59456,0,0,1,10.94846,3.83986l4.305,3.44419.31618.10691A6.331,6.331,0,0,1,67.369,53.66888V64.73339a9.845,9.845,0,0,0-4.77013-1.941l-4.58737-4.58737-1.32321,1.32321A10.83446,10.83446,0,0,1,48.97382,62.723H35.87332A9.83066,9.83066,0,0,0,29.939,64.7535V57.78929A17.5456,17.5456,0,0,1,47.46328,40.265ZM31.39835,75.85731a5.57818,5.57818,0,0,1-1.43287-4.33242,5.6531,5.6531,0,0,1,3.7165-4.655v8.95359a15.17649,15.17649,0,0,0,.08042,1.54619A5.59023,5.59023,0,0,1,31.39835,75.85731Zm6.02663-.03382V66.466H48.97382a14.54935,14.54935,0,0,0,8.9536-3.05032L59.883,65.36941V75.82349a11.229,11.229,0,1,1-22.458,0Zm11.229,14.972a14.86913,14.86913,0,0,0,5.6145-1.10207v2.03782L48.654,95.94212l-5.61451-4.21087V89.69343A14.86914,14.86914,0,0,0,48.654,90.7955ZM18.71,107.21407A9.31733,9.31733,0,0,1,25.96387,98.096L36.046,95.77032l1.856,11.144,8.88049-5.32756V128.2255h-14.972V107.639h-3.743v20.5865H18.71Z"/><path class="cls-1" d="M54.26849,109.5105h3.743v3.743h-3.743Z"/><path class="cls-1" d="M54.26849,116.9965h3.743v3.743h-3.743Z"/><path class="cls-1" d="M127.257,115.125H131v3.743h-3.743Z"/><path class="cls-1" d="M86.084,107.639H131v3.743H86.084Z"/><path class="cls-1" d="M86.084,100.153h37.43v3.743H86.084Z"/><path class="cls-1" d="M127.257,100.153H131v3.743h-3.743Z"/><path class="cls-1" d="M88.947,76.31787a1.80583,1.80583,0,0,1,.88,1.5736V85.181a11.229,11.229,0,0,0,22.458,0V77.89147a1.82613,1.82613,0,0,1,.89828-1.58548A24.39166,24.39166,0,0,0,125.3855,55.237,24.3326,24.3326,0,0,0,100.049,30.9285,24.63512,24.63512,0,0,0,76.72832,54.792,24.34256,24.34256,0,0,0,88.947,76.31787ZM93.57,81.438h14.972v3.743H93.57Zm1.8715-18.715H93.57a1.8715,1.8715,0,1,1,1.8715-1.8715Zm7.486,14.972h-3.743V66.466h3.743ZM101.056,92.667a7.46078,7.46078,0,0,1-6.44516-3.743h12.8885A7.45553,7.45553,0,0,1,101.056,92.667Zm-.85533-58.00006q.43178-.01645.86082-.01645a20.5863,20.5863,0,0,1,20.581,20.5865,20.63746,20.63746,0,0,1-10.32706,17.82586A5.56345,5.56345,0,0,0,108.5685,77.695h-1.898V66.466h1.8715a5.6145,5.6145,0,1,0-5.6145-5.6145V62.723h-3.743v-1.8715A5.6145,5.6145,0,1,0,93.57,66.466h1.8715V77.695h-1.898A5.53989,5.53989,0,0,0,90.813,73.07381,20.59492,20.59492,0,0,1,80.47315,54.8605,20.84475,20.84475,0,0,1,100.20066,34.66694ZM106.6705,62.723v-1.8715a1.8715,1.8715,0,1,1,1.8715,1.8715Z"/><path class="cls-1" d="M114.1565,55.237h3.743a16.904,16.904,0,0,0-8.41993-14.5882l-1.87515,3.23949A13.1487,13.1487,0,0,1,114.1565,55.237Z"/><path class="cls-1" d="M105.26687,38.92533a16.83124,16.83124,0,0,0-4.21088-.53184v3.743a13.14137,13.14137,0,0,1,3.27513.41213Z"/><path class="cls-1" d="M99.18449,15.93548h3.743v11.229h-3.743Z"/><path class="cls-1" d="M71.94174,28.771l2.64642-2.64733,7.94016,7.94017-2.64641,2.64641Z"/><path class="cls-1" d="M119.58184,34.06382l7.94017-7.94017,2.64642,2.64641-7.94017,7.94017Z"/></g></svg>