<?xml version="1.0" encoding="utf-8"?>
<!-- Generator: Adobe Illustrator 23.0.1, SVG Export Plug-In . SVG Version: 6.00 Build 0)  -->
<svg version="1.1" id="Layer_1" xmlns="http://www.w3.org/2000/svg" xmlns:xlink="http://www.w3.org/1999/xlink" x="0px" y="0px"
	 viewBox="0 0 100 100" style="enable-background:new 0 0 100 100;" xml:space="preserve">
<g>
	<path d="M0,28.7c0-0.8,0-1.7,0-2.5c0.8-2.3,2.4-3.7,4.9-3.7c3.2-0.1,6.4-0.1,9.7,0c2.9,0.1,4.7,2,4.9,4.8c0.1,0.7,0.1,1.4,0.1,2
		c0,15.4,0,30.9,0,46.3c0,1.7,0,1.7,1.7,1.7c19,0,38,0,56.9,0c0.3,0,0.5,0,0.8,0c0.5,0,0.8-0.2,1-0.6c0.3-0.5,0.5-1.1,0.8-1.6
		c0.3-0.6,0.1-0.8-0.5-0.8c-0.3,0-0.6,0-0.9,0c-17.1,0-34.1,0-51.2,0c-3.2,0-5.7-2.1-5.7-5.7c0-21,0-42,0-63c0-3,1-4.5,3.7-5.6
		C49.6,0,73,0,96.5,0c1.7,0.6,2.9,1.8,3.5,3.5c0,22.4,0,44.8,0,67.2c-1.1,2.6-2.9,3.7-5.7,3.6c-2.6-0.1-5.3,0-7.9,0
		c-1.1,0-1.7,0.3-2.1,1.3c-0.6,1.3-1.3,2.5-1.9,3.9c-0.4,1-1.1,1.3-2.2,1.3c-17.7,0-35.3,0-53,0c-0.4,0-0.8-0.1-1.2,0.2
		c1.3,1.5,2.3,3.1,2.7,5c0.2,0.9,0.6,1.2,1.5,1.2c7.1,0,14.2,0,21.3,0c1,0,1.7-0.3,2.5-1c2.6-2.6,6.5-3,9.6-1.2
		c3.1,1.7,4.7,5.3,3.9,8.8c-0.8,3.4-3,5.4-6.3,6.4c-1.1,0-2.2,0-3.3,0c-4.6-1.6-6.3-3.9-6.5-8.8c0-0.7-0.3-0.7-0.8-0.7
		c-6.9,0-13.8,0-20.7,0c-0.8,0-1.1,0.4-1.2,1.1c-0.7,2.7-2.2,4.9-4.5,6.5c-1.4,1-2.9,1.5-4.5,2c-1.3,0-2.6,0-3.9,0
		c-0.4-0.1-0.8-0.2-1.2-0.3C9.8,98.3,6.4,93.9,6.4,89c0-5.3,3.1-9.7,8.1-11.2c1.5-0.5,1.5-0.5,1.5-2.1c0-0.1,0-0.2,0-0.3
		c0.1-0.8-0.2-1.1-1-1.1c-3.9-0.3-7.3-1.9-10.2-4.6c-2.6-2.5-4-5.6-4.8-9.1c0-1.6,0-3.3,0-4.9c0-0.1,0.1-0.2,0.1-0.3
		c2-8.1,6.5-12.3,14.9-13.5c0.8-0.1,1-0.5,1-1.2c0-2.3,0-4.6,0-6.9c0-1.2-0.1-1.3-1.3-1.3c-3,0-6,0-9.1,0C2.9,32.4,1,31.3,0,28.7z
		 M61.2,3.4c-2.2,0-4.4,0-6.5,0c-8.9,0-17.8,0-26.7,0c-1.5,0-1.9,0.4-2,1.9c0,0.3,0,0.5,0,0.8c0,20.7,0,41.4,0,62.1
		c0,0.5,0,0.9,0,1.4c0.1,0.8,0.6,1.2,1.3,1.3c0.4,0,0.7,0,1.1,0c21.9,0,43.9,0,65.8,0c0.4,0,0.7,0,1.1,0c0.8-0.1,1.2-0.6,1.3-1.3
		c0-0.4,0-0.7,0-1.1c0-20.9,0-41.7,0-62.6c0-2.1-0.3-2.4-2.4-2.4C83.2,3.4,72.2,3.4,61.2,3.4z M9.8,88.7c0,4.4,3.5,7.9,7.8,8
		c4.5,0,8.1-3.5,8.1-7.9c0-4.3-3.6-7.9-7.9-8C13.5,80.7,9.8,84.3,9.8,88.7z M59.7,96.6c2.6,0,4.7-2.1,4.7-4.7c0-2.6-2.1-4.7-4.7-4.7
		c-2.5,0-4.7,2.2-4.7,4.7C54.9,94.5,57.1,96.6,59.7,96.6z M6.8,55c-0.7,0-1.5,0-2.2,0c-0.5,0-0.8,0.2-0.9,0.8c-0.3,1.5-0.3,3,0,4.5
		c0.1,0.6,0.4,0.9,1,0.9c1.5,0,2.9,0,4.4,0c0.6,0,0.8-0.3,0.8-0.9c-0.2-1.5-0.2-3,0-4.5c0.1-0.6-0.1-0.9-0.7-0.8
		C8.2,55,7.5,55,6.8,55z M9.9,28.9c1.7,0,3.4,0,5.1,0c0.4,0,0.8,0,0.9-0.6c0.3-1.4-0.4-2.3-1.8-2.3c-3,0-6,0-9.1,0
		c-1.1,0-1.7,0.5-1.7,1.4c0,0.9,0.6,1.5,1.8,1.5C6.8,28.9,8.3,28.9,9.9,28.9z M16,58c0-0.7,0-1.4,0-2.1c0-0.7-0.3-1-1-1
		c-0.3,0-0.6,0-1,0c-0.5,0-0.8,0.2-0.9,0.8c-0.1,1.5-0.1,3,0,4.6c0,0.6,0.3,0.8,0.9,0.8c0.4,0,0.7,0,1.1,0c0.7,0,0.9-0.3,0.9-0.9
		C16,59.5,16,58.8,16,58z M11.4,46.2c-2.6,1.1-4.4,2.7-5.9,4.7c-0.3,0.4-0.1,0.6,0.4,0.6c1.1,0,2.3,0,3.4,0c0.5,0,0.8-0.3,0.9-0.7
		C10.5,49.3,10.9,47.9,11.4,46.2z M11.3,69.8c-0.5-1.6-0.9-3-1.2-4.5c-0.1-0.5-0.4-0.6-0.9-0.6c-1,0-2.1,0-3.1,0
		c-0.8,0-0.8,0.4-0.4,0.9c0.8,1.1,1.8,2.1,3,2.9C9.5,69,10.3,69.6,11.3,69.8z M16,45.7c-0.5,0.1-0.6,0.5-0.8,0.7
		c-0.7,1.3-1.1,2.7-1.4,4.1c-0.1,0.4-0.3,0.9,0.4,1c1.1,0.2,1.8,0,1.8-0.7C16,49.1,16,47.4,16,45.7z M15.9,70.6c0-1.9,0.1-3.6,0-5.3
		c-0.1-1-1.1-0.5-1.7-0.6c-0.7,0-0.5,0.6-0.4,0.9c0.2,0.9,0.4,1.7,0.7,2.5C14.8,69,15.1,69.8,15.9,70.6z"/>
	<path d="M61.3,19.3c3.4,0,6.8,0,10.2,0c0.9,0,1.3,0.3,1.2,1.2c0,0.1,0,0.2,0,0.3c0,2,0,2-1.9,2c-0.9,0-1.3,0.3-1.3,1.2
		c0,5.9,0,11.8,0,17.8c0,0.7,0.3,1.2,0.8,1.7c8.2,6.7,7.3,18.7-1.8,24.2c-0.5,0.3-1,0.6-1.5,0.9c-0.9,0.5-1,0.4-1.1-0.6
		c0-1.5,0-3.1,0-4.6c0-1.2,0-2.5,0-3.7c-0.1-2.4-2-4.3-4.3-4.5c-2.4-0.2-4.5,1.5-5,3.8c-0.4,2-0.1,4.1-0.2,6.1c0,1,0,2.1,0,3.1
		c0,0.5-0.1,0.8-0.7,0.5c-10.9-5.2-11.9-18.3-3.6-25.1c0.7-0.5,1-1.1,1-2c0-5.8,0-11.6,0-17.5c0-1.3,0-1.3-1.3-1.3
		c-2.1,0-1.8,0-1.8-1.9c0-1.6,0-1.6,1.6-1.6C54.8,19.3,58,19.3,61.3,19.3z M69.6,62.1c2.9-2.8,3.7-8.1,1.8-12.1
		c-1.8-3.8-6.3-7-11.9-6.2c-4.4,0.7-8.4,4.5-9.2,9.1c-0.6,3.4,0.8,8.1,2.7,9.1c0.1-1.2,0-2.4,0.2-3.6c0.7-4.1,4.3-7.1,8.6-6.8
		c4.1,0.2,7.4,3.6,7.6,7.6C69.5,60.1,69.5,61,69.6,62.1z M59.5,31.6c0-2.5,0-5.1,0-7.6c0-1.3,0-1.3-1.5-1.3c-1.4,0-1.5,0-1.5,1.3
		c0,5,0,10,0,15c0,1.9,0,1.9,1.8,1.5c0.9-0.2,1.2-0.6,1.2-1.5C59.5,36.6,59.5,34.1,59.5,31.6z M66,31.9c0-2.6,0-5.2,0-7.8
		c0-1.4,0-1.4-1.5-1.4c-1.5,0-1.5,0-1.5,1.4c0,4.7,0,9.4,0,14.2c0,2,0,1.9,1.9,2.4c0.8,0.2,1.1,0,1.1-0.8C66,37.2,66,34.6,66,31.9z"
		/>
	<path d="M82.3,6.4c2.1,0,4.2,0,6.3,0c2.8,0,4.9,2.1,5,4.7c0.1,2.8-1.9,5.1-4.7,5.2c-4.4,0.1-8.8,0.1-13.3,0c-2.8-0.1-4.9-2.4-4.8-5
		c0.1-2.7,2.2-4.8,5-4.8C78,6.4,80.1,6.4,82.3,6.4z M82.3,9.8c-2,0-4.1,0-6.1,0c-0.6,0-1.1,0.1-1.5,0.6c-0.3,0.4-0.5,0.9-0.2,1.5
		c0.4,0.7,1,0.9,1.7,0.9c4.1,0,8.1,0,12.2,0c1.2,0,1.9-0.6,1.8-1.6c0-0.9-0.7-1.4-1.9-1.4C86.3,9.8,84.3,9.8,82.3,9.8z"/>
	<path d="M84.8,25.7c2.6,0,5.2,0,7.8,0c0.8,0,1.1,0.3,1.1,1.1c0,2.6,0,5.2,0,7.8c0,0.7-0.3,1-1,1c-5.3,0-10.6,0-15.9,0
		c-0.8,0-1-0.3-1-1c0-2.6,0-5.2,0-7.8c0-0.8,0.3-1.1,1.1-1.1C79.4,25.7,82.1,25.7,84.8,25.7z M84.6,32.2c1.2,0,2.5,0,3.7,0
		c1.9,0,1.9,0,1.9-1.9c0-0.8-0.3-1.2-1.1-1.1c-2.7,0-5.3,0-8,0c-2,0-2,0-1.9,2c0,0.7,0.3,1,1,1C81.6,32.1,83.1,32.2,84.6,32.2z"/>
	<path d="M33.9,6.4c1.3,0,2.6,0,3.9,0c0.7,0,1.1,0.2,1.1,1c0,2.6,0,5.3,0,7.9c0,0.7-0.3,1-1.1,1c-2.6,0-5.2,0-7.8,0
		c-0.8,0-1.1-0.3-1.1-1.1c0-2.6,0-5.2,0-7.8c0-0.8,0.3-1.1,1.1-1C31.3,6.4,32.6,6.4,33.9,6.4z M33.8,12.8c1.5,0,1.5,0,1.5-1.4
		c0-1.5,0-1.6-1.4-1.6c-1.5,0-1.5,0-1.5,1.5C32.4,12.8,32.5,12.8,33.8,12.8z"/>
	<path d="M46.8,6.4c1.4,0,2.7,0,4.1,0c0.6,0,0.9,0.3,0.9,0.9c0,2.7,0,5.5,0,8.2c0,0.6-0.3,0.9-0.9,0.9c-2.7,0-5.4,0-8.1,0
		c-0.7,0-1-0.3-1-0.9c0-2.7,0-5.4,0-8.1c0-0.7,0.3-0.9,1-0.9C44.1,6.4,45.4,6.4,46.8,6.4z M46.8,12.8c1.4,0,1.4,0,1.4-1.5
		c0-1.5,0-1.5-1.4-1.5c-1.5,0-1.5,0-1.5,1.5C45.3,12.8,45.4,12.8,46.8,12.8z"/>
	<path d="M59.8,6.4c1.3,0,2.6,0,3.9,0c0.7,0,1,0.2,1,0.9c0,2.7,0,5.3,0,8c0,0.7-0.3,1-1,1c-2.7,0-5.3,0-8,0c-0.7,0-1-0.3-1-0.9
		c0-2.7,0-5.4,0-8.1c0-0.7,0.3-0.9,1-0.9C57,6.4,58.4,6.4,59.8,6.4z M59.7,9.8c-1.4,0-1.5,0-1.5,1.5c0,1.5,0,1.5,1.4,1.5
		c1.5,0,1.5,0,1.5-1.5C61.1,9.9,61.1,9.8,59.7,9.8z"/>
	<path d="M37.9,43.6c-2.6,0-5.2,0-7.8,0c-0.9,0-1.2-0.3-1.2-1.2c0-2.3-0.1-2.3,2.2-2.3c4.8,0,9.6,0,14.3,0c1.5,0,1.5,0,1.5,1.5
		c0,2.3,0,2-2,2C42.6,43.6,40.2,43.6,37.9,43.6z"/>
	<path d="M37.8,30.7c-2.6,0-5.2,0-7.8,0c-0.9,0-1.1-0.3-1.1-1.1c0-2.7-0.1-2.3,2.3-2.3c4.8,0,9.6,0,14.4,0c1.3,0,1.3,0.1,1.3,1.3
		c0,2.5,0.1,2.1-2.1,2.1C42.5,30.8,40.2,30.7,37.8,30.7z"/>
	<path d="M84.7,42.1c-2.6,0-5.2,0-7.8,0c-0.9,0-1.2-0.3-1.2-1.2c0.1-2.6-0.3-2.3,2.3-2.3c4.8,0,9.6,0,14.4,0c0.9,0,1.3,0.3,1.2,1.2
		c-0.1,2.5,0.3,2.2-2.2,2.2C89.2,42.1,86.9,42.1,84.7,42.1z"/>
	<path d="M86.2,45.1c2.1,0,4.2,0,6.3,0c0.8,0,1.1,0.3,1.1,1.1c-0.1,2.7,0.3,2.4-2.3,2.4c-3.7,0-7.5,0-11.2,0c-0.9,0-1.3-0.3-1.3-1.2
		c0-2.6,0-2.2,2.2-2.2C82.8,45,84.5,45,86.2,45.1z"/>
	<path d="M34.6,37.2c-1.6,0-3.2,0-4.8,0c-0.7,0-0.9-0.3-0.9-0.9c0-3.1-0.1-2.5,2.4-2.5c2.7,0,5.4,0,8.1,0c0.8,0,1.2,0.3,1.2,1.1
		c0,2.8,0.1,2.3-2.3,2.3C37,37.2,35.8,37.2,34.6,37.2C34.6,37.2,34.6,37.2,34.6,37.2z"/>
	<path d="M45.2,37.2c-1.7,0-1.7,0-1.7-1.8c0-1.7,0-1.7,1.7-1.7c1.7,0,1.7,0,1.7,1.8C46.9,37.2,46.9,37.2,45.2,37.2z"/>
	<path d="M17.6,93.6c-2.7,0-4.8-2.2-4.8-5c0-2.7,2.3-5,5-4.9c2.7,0,5,2.4,4.9,5C22.6,91.5,20.4,93.7,17.6,93.6z M19.2,88.7
		c0-0.7-0.8-1.5-1.5-1.5c-0.8,0-1.5,0.7-1.4,1.5c0,0.8,0.6,1.4,1.4,1.4C18.5,90.2,19.2,89.5,19.2,88.7z"/>
</g>
</svg>
