<?xml version="1.0" encoding="utf-8"?>
<!-- Generator: Adobe Illustrator 23.0.1, SVG Export Plug-In . SVG Version: 6.00 Build 0)  -->
<svg version="1.1" id="Layer_1" xmlns="http://www.w3.org/2000/svg" xmlns:xlink="http://www.w3.org/1999/xlink" x="0px" y="0px"
	 viewBox="0 0 100 100" style="enable-background:new 0 0 100 100;" xml:space="preserve">
<style type="text/css">
	.st0{clip-path:url(#SVGID_2_);}
</style>
<g>
	<defs>
		<rect id="SVGID_1_" width="100" height="100"/>
	</defs>
	<clipPath id="SVGID_2_">
		<use xlink:href="#SVGID_1_"  style="overflow:visible;"/>
	</clipPath>
	<g class="st0">
		<path d="M50,90.1c-15.8,0-31.5,0-47.3,0c-2.3,0-2.7-0.4-2.7-2.6c0-24.9,0-49.8,0-74.8C0,10.4,0.4,10,2.6,10c31.6,0,63.2,0,94.8,0
			c0.3,0,0.6,0,0.8,0c1.1,0.1,1.7,0.7,1.7,1.8c0,0.3,0,0.6,0,0.9c0,24.9,0,49.7,0,74.6c0,2.4-0.4,2.7-2.8,2.7
			C81.5,90.1,65.7,90.1,50,90.1z M50.1,26.8c-15,0-30.1,0-45.1,0c-1.5,0-1.5,0-1.5,1.4c0,19,0,38,0,57c0,1.4,0,1.4,1.4,1.4
			c30.1,0,60.2,0,90.3,0c1.4,0,1.4,0,1.4-1.4c0-19,0-37.9,0-56.9c0-1.4,0-1.4-1.4-1.4C80.1,26.8,65.1,26.8,50.1,26.8z M50,13.5
			c-15.1,0-30.2,0-45.2,0c-1,0-1.3,0.2-1.3,1.3c0.1,2.4,0,4.7,0,7.1c0,1.5,0,1.5,1.5,1.5c23.5,0,46.9,0,70.4,0c6.7,0,13.3,0,20,0
			c0.8,0,1.2-0.2,1.1-1.1c-0.1-2.4,0-4.9,0-7.3c0-1.5,0-1.5-1.5-1.5C80,13.5,65,13.5,50,13.5z"/>
		<path d="M50.1,33.3c10.3,0,20.5,0,30.8,0c2,0,2.5,0.5,2.5,2.4c0,14,0,27.9,0,41.9c0,1.9-0.5,2.4-2.4,2.4c-20.7,0-41.3,0-62,0
			c-1.9,0-2.4-0.5-2.4-2.3c0-14,0-28.1,0-42.1c0-1.8,0.5-2.3,2.4-2.3C29.4,33.3,39.7,33.3,50.1,33.3z M50,36.8c-9.5,0-19.1,0-28.6,0
			c-1,0-1.3,0.3-1.3,1.3c0,12.4,0,24.8,0,37.2c0,1.1,0.3,1.3,1.4,1.3c19,0,38.1,0,57.1,0c1,0,1.4-0.3,1.4-1.3c0-12.4,0-24.8,0-37.1
			c0-1.4,0-1.4-1.4-1.4C69,36.8,59.5,36.8,50,36.8z"/>
		<path d="M10.1,18.4c0,1-0.8,1.7-1.8,1.7c-1,0-1.7-0.8-1.7-1.7c0-1,0.8-1.7,1.8-1.7C9.4,16.7,10.1,17.5,10.1,18.4z"/>
		<path d="M16.8,18.4c0,1-0.7,1.8-1.7,1.8c-1,0-1.7-0.7-1.7-1.7c0-1,0.7-1.8,1.7-1.8C16,16.7,16.8,17.4,16.8,18.4z"/>
		<path d="M23.4,18.4c0,1-0.7,1.8-1.8,1.8c-1,0-1.7-0.7-1.7-1.7c0-1,0.7-1.8,1.8-1.7C22.7,16.7,23.4,17.4,23.4,18.4z"/>
		<path d="M61.7,40c0.8,0,1.3,0.5,1.7,1c3.1,3.5,6.2,6.9,9.3,10.4c1.1,1.2,2.2,2.4,3.2,3.7c1.1,1.3,1.1,2,0,3.3
			c-3.6,4-7.2,8.1-10.8,12.1c-0.7,0.8-1.4,1.6-2.1,2.3c-0.8,0.8-1.8,0.9-2.6,0.3c-0.7-0.7-0.8-1.7,0-2.6c3.1-3.5,6.2-7.1,9.4-10.6
			c0.7-0.8,1.4-1.6,2.1-2.3c0.6-0.6,0.5-1.1,0-1.7c-3.5-3.9-7.1-7.9-10.6-11.9c-0.4-0.4-0.8-0.9-1.1-1.4C59.5,41.5,60.3,40,61.7,40z
			"/>
		<path d="M40.1,41.8c0,0.7-0.4,1.2-0.9,1.6c-3,3.4-6,6.7-9,10.1c-0.7,0.8-1.4,1.6-2.1,2.3c-0.6,0.6-0.6,1,0,1.7
			c3.5,3.9,7,7.9,10.5,11.8c0.3,0.4,0.7,0.7,0.9,1.1c0.7,0.9,0.6,1.9-0.1,2.5c-0.7,0.7-1.7,0.6-2.5-0.2c-1.4-1.5-2.8-3.1-4.2-4.6
			c-2.8-3.2-5.7-6.4-8.5-9.5c-1.4-1.6-1.4-2.2,0-3.7c4-4.5,7.9-8.9,11.9-13.4c0.3-0.4,0.7-0.8,1.1-1.1c0.6-0.5,1.2-0.5,1.8-0.2
			C39.8,40.5,40.1,41,40.1,41.8z"/>
		<path d="M43.3,71.4c0.1-0.3,0.2-0.7,0.3-1c3.2-9.5,6.3-19,9.5-28.5c0.1-0.4,0.3-0.8,0.5-1.1c0.5-0.7,1.2-0.9,1.9-0.6
			c0.8,0.2,1.2,0.8,1.2,1.6c0,0.5-0.2,1-0.3,1.4c-3.2,9.5-6.3,18.9-9.5,28.4c-0.1,0.3-0.2,0.7-0.4,1c-0.4,0.8-1.2,1.1-2,0.9
			C43.6,73.1,43.2,72.4,43.3,71.4z"/>
	</g>
</g>
</svg>
