<?xml version="1.0" encoding="utf-8"?>
<!-- Generator: Adobe Illustrator 23.0.1, SVG Export Plug-In . SVG Version: 6.00 Build 0)  -->
<svg version="1.1" id="Layer_1" xmlns="http://www.w3.org/2000/svg" xmlns:xlink="http://www.w3.org/1999/xlink" x="0px" y="0px"
	 viewBox="0 0 100 100" style="enable-background:new 0 0 100 100;" xml:space="preserve">
<g>
	<path d="M81.5,75.5c2.5,2,4.2,4.4,5.1,7.4c0.6,1.9,0.7,3.9,0.3,5.9c-0.3,1.6-1.4,1.9-2.6,0.8c-2.2-2.2-4.4-4.3-6.6-6.5
		c-0.6-0.6-1.1-0.7-1.8-0.4c-1.4,0.6-3.1,0.7-4.1,1.7c-1.1,0.9-1,2.8-1.7,4.1c-0.4,0.8-0.2,1.4,0.4,2c2.1,2.1,4.2,4.2,6.2,6.3
		c0.5,0.5,1,1,0.8,1.9c-0.3,0.9-1.1,1-1.8,1.1c-7.2,1.2-14.4-4.7-14.8-12c0-0.3-0.1-0.6-0.1-0.9c0.7-2.4-0.7-4.1-2.1-5.8
		c-1.4-1.7-0.8-1.6-2.8-0.7c-1.5,0.7-1.7,0.6-2.8-0.6c-0.6-0.6-1.1-0.9-2-0.8c-0.5,0.1-1,0.1-1.4,0c-0.9-0.1-1.6,0.2-2.2,1
		c-0.6,0.9-1.6,1.3-2.3,2c-5.5,5.7-11.1,11.3-16.7,16.9c-1.3,1.3-1.8,1.3-3.1,0C21.6,95,17.7,91,13.8,87c-1.1-1.1-1.1-1.7,0-2.9
		c2.5-2.5,5-5.1,7.5-7.6c0.3-0.3,0.5-0.5,0.8-0.9c-0.4-0.3-0.8-0.2-1.1-0.2c-4.5,0-9,0-13.5,0c-4.4,0-7.6-3.2-7.6-7.6
		C0,47.8,0,27.7,0,7.6C0,3.2,3.2,0,7.6,0c28.3,0,56.6,0,84.9,0c4.3,0,7.5,3.2,7.5,7.6c0,20.1,0,40.2,0,60.3c0,4.3-3.2,7.6-7.5,7.6
		C88.8,75.5,85.1,75.5,81.5,75.5z M50.1,16.3c-15.4,0-30.8,0-46.2,0c-1,0-1.3,0.3-1.3,1.3c0,16.6,0,33.1,0,49.7c0,3.7,2,5.6,5.6,5.6
		c5.3,0,10.5,0,15.8,0c0.7,0,1.3-0.2,1.8-0.7c2.3-2.3,4.6-4.7,6.9-7c1.5-1.5,1.4-3.9-0.2-5.4c-0.7-0.6-1-1.3-0.6-2.3
		c0.3-0.7,0.6-1.5,0.9-2.2c0.2-0.5,0.2-0.9-0.3-1.3c-1.1-0.8-2.1-1.7-3.2-2.6c-0.3-0.2-0.6-0.4-1-0.3c-0.9,0.2-1.8,0.1-2.7,0.1
		c-6.7,0-13.6-6.2-12.5-15c0.1-0.7,0.2-1.5,1-1.8c0.8-0.3,1.3,0.3,1.9,0.8c2.1,2.1,4.2,4.2,6.4,6.3c0.3,0.3,0.7,0.8,1.2,0.6
		c2.7-0.9,5.9-1.3,6.1-5.2c0-0.3,0.2-0.6,0.3-0.9c0.3-0.7,0.2-1.3-0.4-1.8c-1.4-1.4-2.8-2.8-4.2-4.2c-0.8-0.8-1.6-1.6-2.4-2.4
		c-1-1.1-0.7-2.2,0.8-2.6c0.2-0.1,0.5-0.1,0.7-0.1C32.3,24,39.1,30.1,39,38.1c0,2.2,0.5,3.8,1.9,5.3c1.5,1.6,1.4,1.7,3.4,0.8
		c0.9-0.4,1.6-0.4,2.2,0.4c0.8,1,1.7,1.3,2.9,1.2c0.5-0.1,1,0,1.5,0c0.3,0,0.6,0,0.8-0.3c0.7-0.9,1.7-1.5,2.5-2.3
		c5.7-5.8,11.4-11.6,17.1-17.4c1.2-1.2,1.8-1.3,3.1,0c2.9,3,5.9,6,8.8,9c1,1.1,2.1,2.1,3.1,3.2c0.9,0.9,0.9,1.5,0,2.5
		c-0.2,0.3-0.5,0.5-0.7,0.7c-6.1,6.2-12.1,12.3-18.2,18.5c-1.5,1.5-1.5,3.9,0.2,5.4c0.7,0.6,1,1.3,0.6,2.3c-0.3,1-1.2,1.9-0.8,2.9
		c0.3,0.9,1.5,1.3,2.3,2c0.5,0.4,1,0.8,1.7,0.8c6.9,0,13.8,0,20.8,0c1.7,0,3.2-0.6,4.3-2c0.8-1.1,1-2.4,1-3.7c0-16.5,0-32.9,0-49.4
		c0-1.4,0-1.4-1.5-1.4C80.7,16.3,65.4,16.3,50.1,16.3z M49.9,13.7c14.6,0,29.3,0,43.9,0c0.9,0,1.8,0,2.8,0c0.6,0,0.9-0.2,0.9-0.8
		c0-1.8,0.1-3.5,0-5.3c-0.1-2.7-1.7-4.4-4.3-4.8c-0.5-0.1-1-0.1-1.5-0.1c-27.7,0-55.4,0-83.1,0c-0.3,0-0.5,0-0.8,0
		c-3,0.1-5,2.1-5,5.1c0,1.5,0,3,0,4.4c0,1.5,0,1.5,1.5,1.5C19.3,13.7,34.6,13.7,49.9,13.7z M57.3,48.9c0.2-0.7-0.2-1.2-1-1.4
		c-0.3-0.1-0.6-0.2-0.9-0.3c-0.7-0.4-1.3-0.3-1.8,0.4c-0.6,0.9-1.4,1.1-2.4,1c-1-0.1-2.1-0.1-3.1,0.1c-1,0.2-1.7-0.1-2.3-0.9
		c-0.5-0.7-1.1-0.8-1.8-0.4c-0.3,0.2-0.5,0.3-0.8,0.4c-0.9,0.3-1.2,0.8-1,1.7c0.2,0.9-0.1,1.5-0.8,2.1c-1,0.8-1.8,1.7-2.5,2.7
		c-0.5,0.7-1.1,1-1.9,0.8c-1-0.2-1.5,0.2-1.8,1.2c-0.1,0.3-0.2,0.5-0.3,0.8c-0.4,0.7-0.2,1.3,0.4,1.8c0.8,0.6,1.1,1.4,1,2.4
		c-0.1,1.1-0.1,2.2,0.1,3.3c0.1,0.8,0,1.5-0.7,1.9c-0.9,0.7-1.1,1.5-0.4,2.4c0.1,0.2,0.2,0.4,0.3,0.7c0.2,0.8,0.7,1,1.5,0.8
		c1-0.3,1.7,0.1,2.3,0.9c0.6,0.9,1.4,1.6,2.3,2.2c0.9,0.6,1.3,1.4,1.1,2.5c-0.2,0.8,0.2,1.2,0.9,1.4c0.3,0.1,0.7,0.2,1,0.4
		c0.8,0.5,1.4,0.3,1.9-0.5c0.6-0.8,1.3-1.1,2.3-1c1.1,0.1,2.3,0.1,3.4-0.1c0.8-0.1,1.4,0.1,1.8,0.7c0.7,1.1,1.5,1.1,2.5,0.4
		c0.1-0.1,0.3-0.2,0.5-0.2c0.9-0.2,1.1-0.8,0.9-1.6c-0.2-1,0.1-1.7,0.9-2.2c0.9-0.7,1.7-1.5,2.3-2.5c0.5-0.8,1.3-1.2,2.2-1
		c0.9,0.2,1.3-0.2,1.5-1c0.1-0.3,0.2-0.6,0.3-0.9c0.4-0.8,0.3-1.4-0.5-1.8c-0.8-0.6-1.1-1.3-1-2.3c0.1-1.1,0.1-2.2-0.1-3.3
		c-0.1-0.9,0.1-1.6,0.8-2.1c0.8-0.6,1-1.3,0.4-2.2c-0.1-0.2-0.2-0.4-0.2-0.6c-0.2-0.9-0.8-1.3-1.7-1c-0.9,0.2-1.5-0.1-2-0.8
		c-0.7-0.9-1.5-1.8-2.5-2.4C57.4,50.7,57.1,50,57.3,48.9z M84.2,85.7c0.3-3.1-2.5-7.1-5.9-8.6c-4.2-1.9-8.9-0.9-12.1,2.5
		c-3,3.2-3.5,8.3-1.4,12.2c1.7,3.1,5.6,5.6,8.1,5.2c-0.1-0.4-0.4-0.5-0.6-0.8c-1.6-1.6-3.2-3.2-4.8-4.8c-0.6-0.6-0.8-1.3-0.5-2.1
		c0.7-2,1.4-4,2.1-6.1c0.2-0.7,0.7-1.1,1.4-1.4c1.9-0.6,3.8-1.3,5.7-2c1-0.4,1.8-0.2,2.6,0.6C80.5,82.1,82.3,83.8,84.2,85.7z
		 M27,27.7c0,0.1,0,0.2,0,0.2c1.8,1.8,3.6,3.7,5.4,5.5c0.6,0.6,0.8,1.2,0.5,2.1c-0.7,2-1.4,4.1-2.1,6.2c-0.2,0.7-0.7,1.1-1.3,1.3
		c-1.3,0.5-2.6,0.9-4,1.4c-3.8,1.3-2.8,1.5-5.7-1.3c-1.3-1.3-2.6-2.6-4-3.9c-0.7,4.1,4.3,9.1,9.6,9.4c5.5,0.3,10.7-3.8,10.9-10.4
		C36.6,32.8,31.7,27.4,27,27.7z M62.5,51.7c0.7-0.1,0.8-0.4,1.1-0.7c4.8-4.8,9.5-9.7,14.3-14.5c1.7-1.7,1.7-1.7,0-3.4
		c-0.5-0.5-0.8-0.6-1.4,0c-4.9,5-9.9,10.1-14.9,15.1c-1.2,1.2-1.2,1.2,0,2.4C62,51,62.3,51.4,62.5,51.7z M22.8,92.2
		c0.4-0.1,0.5-0.4,0.8-0.6c4.8-4.9,9.6-9.7,14.3-14.6c1.6-1.6,1.5-1.6,0.1-3.2c-0.6-0.7-1-0.7-1.6,0c-4.8,4.9-9.6,9.7-14.3,14.6
		c-1.6,1.6-1.6,1.6,0.1,3.3C22.3,91.8,22.5,92.1,22.8,92.2z M27.8,77.3c0,0.5-0.3,0.9-0.7,1.1c-0.6,0.3-1.2,0.1-1.6-0.4
		c-0.7-0.9-1.2-0.7-1.9,0c-1.9,2-3.8,3.9-5.8,5.9c-1.6,1.6-1.5,1.6,0,3.2c0.6,0.7,1,0.7,1.7,0c4.2-4.3,8.4-8.6,12.6-12.8
		c2-2,1.9-2,0.8-4.6c-0.3-0.6-0.5-0.6-0.9-0.2c-1.6,1.7-3.3,3.3-4.9,5c-0.5,0.5-0.5,0.8,0,1.3C27.4,76.3,27.8,76.7,27.8,77.3z
		 M61.6,43c0,0.4-0.1,0.7-0.3,0.9c-0.6,0.6-1.4,0.6-2.2-0.3c-0.5-0.5-0.9-0.6-1.4,0c-0.2,0.2-0.4,0.4-0.6,0.6
		c-0.4,0.4-0.3,0.6,0.2,0.7c0.6,0.2,1.2,0.3,1.7,0.7c0.8,0.6,1.2,0.2,1.8-0.3c4.3-4.4,8.6-8.7,12.9-13.1c1.9-2,2-1.3-0.1-3.5
		c-0.4-0.5-0.8-0.4-1.2,0c-1,1-1.9,2-3,3c-0.6,0.6-0.6,0.9,0,1.5c1,1,1.1,1.7,0.5,2.4c-0.6,0.6-1.4,0.5-2.3-0.4c0,0-0.1-0.1-0.1-0.1
		c-0.4-0.5-0.8-0.5-1.3,0c-1.8,1.8-3.5,3.6-5.3,5.4c-0.5,0.5-0.5,0.8,0,1.3C61.2,42,61.6,42.4,61.6,43z M64.5,72.5
		c-0.9-0.3-1.5,0.1-2,0.8c-0.3,0.4-0.7,0.8-1.1,1.1c-0.7,0.5-1,1.2-0.7,2.1c0.1,0.5,0.1,1.1-0.2,1.6c-0.2,0.3-0.1,0.6,0.1,0.9
		c0.4,0.5,0.8,1,1.2,1.6c0.3,0.4,0.5,0.3,0.7-0.1c1.3-2.4,3.1-4.2,5.4-5.5c0.3-0.1,0.5-0.4,0.2-0.6C67,73.6,66.1,72.2,64.5,72.5z
		 M35.5,52.3c1.3,0.1,1.3,0.1,2.1-0.8c0.5-0.5,0.9-1,1.4-1.5c0.3-0.3,0.7-3.8,0.4-4.2c-0.4-0.5-0.8-1-1.2-1.5
		c-0.3-0.4-0.5-0.4-0.7,0.1c-1.2,2.3-3,4.1-5.3,5.3c-0.3,0.1-0.5,0.3-0.1,0.6C33.2,51.1,33.9,52.5,35.5,52.3z M30,90.7
		c0-0.5,0.3-0.9,0.7-1.2c0.6-0.3,1.1-0.2,1.5,0.3c0.6,0.8,1.1,0.5,1.6-0.1c0.1-0.2,0.3-0.3,0.5-0.5c1-1,1-1,0-1.9
		c-0.2-0.2-0.5-0.5-0.7-0.8c-0.4-1-0.8-0.6-1.3-0.1c-2,2.1-4.1,4.1-6,6.2c-1.9,1.9-2,1.3,0.1,3.4c0.5,0.5,0.8,0.5,1.3,0
		c0.9-1,1.9-2,2.9-2.9c0.5-0.4,0.4-0.8,0-1.2C30.2,91.6,30,91.2,30,90.7z M75.7,42.8c-0.4,0.1-0.6,0.4-0.8,0.7
		c-1.7,1.7-3.4,3.4-5,5.1c-0.4,0.4-1,0.8-1,1.2c-0.1,0.5,0.7,0.6,1.1,0.9c1.3,1.3,1.3,1.3,2.6,0c0,0,0.1-0.1,0.1-0.1
		c0.7-0.5,0.8-1.1,0.1-1.7c-0.6-0.5-0.6-1.2-0.1-1.8c0.5-0.6,1.3-0.7,1.8-0.1c0.8,0.9,1.4,0.6,1.9-0.2c0.1-0.1,0.2-0.2,0.3-0.3
		c1-1,1-1,0-2C76.2,43.9,75.7,43.5,75.7,42.8z M38.5,82.4c0-0.7,0.2-1.1,0.7-1.3c0.6-0.3,1.2-0.2,1.6,0.3c0.6,0.7,1,0.6,1.5-0.1
		c0.2-0.2,0.4-0.4,0.6-0.6c0.4-0.4,0.4-0.6-0.2-0.8c-0.6-0.2-1.3-0.4-1.8-0.7c-0.6-0.4-1-0.2-1.4,0.3c-1.2,1.2-2.4,2.4-3.6,3.7
		c-1,1-1,1,0,1.9c0.5,0.4,0.8,1.4,1.5,1.2c0.6-0.2,1-0.9,1.5-1.4c0,0,0-0.1,0.1-0.1c0.5-0.4,0.6-0.8,0.1-1.3
		C38.7,83,38.5,82.7,38.5,82.4z M83.6,39.1c-0.1-0.2-0.2-0.4-0.4-0.5c-0.4-0.4-0.8-0.8-1.2-1.3c-0.4-0.5-0.8-0.5-1.2,0
		c-0.9,1-1.9,2-2.9,2.9c-0.6,0.6-1.3,1.1,0,1.7c0.4,0.2,0.7,0.6,1,1c0.4,0.4,0.7,0.5,1.1,0c1-1.1,2.1-2.2,3.2-3.3
		C83.4,39.5,83.5,39.3,83.6,39.1z M67.1,51.5c-0.4-0.1-1,0.9-0.8,1.3c0.3,0.8,0.6,1.5,1,2.3c0.1,0.2,0.2,0.6,0.5,0.3
		c0.5-0.4,1-0.8,1.2-1.3c0.2-0.4-0.4-0.7-0.7-1c-0.3-0.4-0.8-0.7-1-1.3C67.2,51.7,67.1,51.6,67.1,51.5z"/>
	<path d="M8.7,40.6c0,3.1,0,6.2,0,9.3c0,0.8-0.2,1.4-1,1.6c-0.9,0.2-1.6-0.4-1.6-1.5c0-2.7,0-5.4,0-8.1c0-3.6,0-7.2,0-10.7
		c0-0.8,0.1-1.5,1-1.7c0.9-0.2,1.6,0.4,1.6,1.5C8.7,34.1,8.7,37.3,8.7,40.6z"/>
	<path d="M8.7,25.5c0,1.1-0.4,1.7-1.3,1.7c-0.8,0-1.3-0.6-1.3-1.7c0-1.1,0.4-1.7,1.3-1.7C8.3,23.8,8.7,24.4,8.7,25.5z"/>
	<path d="M7.6,11.7c-1.9,0-3.5-1.5-3.5-3.4c0-1.9,1.5-3.5,3.5-3.5c1.9,0,3.5,1.6,3.4,3.5C11.1,10.2,9.5,11.7,7.6,11.7z"/>
	<path d="M22.5,11.7c-1.9,0-3.5-1.6-3.5-3.5c0-1.9,1.6-3.5,3.5-3.5c1.9,0,3.4,1.5,3.4,3.4C26,10.1,24.5,11.7,22.5,11.7z"/>
	<path d="M15.1,4.8c1.9,0,3.5,1.5,3.5,3.5c0,1.9-1.5,3.5-3.4,3.5c-1.9,0-3.4-1.5-3.4-3.5C11.7,6.3,13.1,4.8,15.1,4.8z"/>
	<path d="M50.1,73.4c-6.2,0-11.1-5-11.1-11.2c0-6.2,5-11.3,11.3-11.3c6.2,0,11.1,5.1,11.1,11.4C61.3,68.5,56.3,73.4,50.1,73.4z
		 M58.6,62.2c0-4.8-3.8-8.7-8.5-8.6c-4.6,0-8.4,3.9-8.4,8.5c0,4.7,3.7,8.6,8.4,8.7C54.7,70.9,58.6,67,58.6,62.2z"/>
</g>
</svg>
