<?xml version="1.0" encoding="utf-8"?>
<!-- Generator: Adobe Illustrator 23.0.1, SVG Export Plug-In . SVG Version: 6.00 Build 0)  -->
<svg version="1.1" id="Layer_1" xmlns="http://www.w3.org/2000/svg" xmlns:xlink="http://www.w3.org/1999/xlink" x="0px" y="0px"
	 viewBox="0 0 100 100" style="enable-background:new 0 0 100 100;" xml:space="preserve">
<g>
	<path d="M100,45.7c-0.5,0.8-1.2,1.1-2.2,1.1c-18.5,0-37.1,0-55.6,0c-1.6,0-2.3-0.6-2.3-2.2c0-0.9,0-1.8,0-2.6c0-9.6,0-19.2,0-28.8
		c0-0.5,0-1,0.1-1.5c0.2-1.2,0.8-1.7,2-1.7c0.2,0,0.4,0,0.6,0c18.4,0,36.7,0,55.1,0c1,0,1.9,0.2,2.5,1C100,22.5,100,34.1,100,45.7z
		 M70.1,13.5c-8.5,0-17,0-25.5,0c-0.9,0-1.2,0.3-1.2,1.2c0,6.5,0,13,0,19.4c0,1,0,1.1,0.9,0.5c4-2.4,8-4.7,11.9-7.2
		c1.5-1,2.7-1,4.2,0.1c4.1,2.8,8.2,5.4,12.3,8.1c0.8,0.5,1.4,0.6,2.2,0.1c3.4-1.8,6.9-3.6,10.3-5.4c1-0.5,1.8-0.5,2.7,0.1
		c2.5,1.5,5.1,2.9,7.6,4.4c0.9,0.5,0.9,0.5,0.9-0.5c0-6.5,0-13,0-19.4c0-1.3,0-1.3-1.3-1.3C86.9,13.5,78.5,13.5,70.1,13.5z M70,43.2
		c8,0,15.9,0,23.9,0c2.7,0,2.7,0,2.7-2.7c0-0.8-0.3-1.2-1-1.6c-2.8-1.6-5.6-3.1-8.3-4.7c-0.6-0.3-1-0.3-1.5,0
		c-3.4,1.8-6.8,3.5-10.2,5.3c-1.4,0.8-2.5,0.7-3.8-0.2c-4.1-2.8-8.4-5.4-12.5-8.2c-0.7-0.5-1.3-0.5-2.1-0.1
		c-3.9,2.4-7.8,4.7-11.7,7.1c-2.6,1.6-2.1,0.7-2.1,3.8c0,1.3,0,1.3,1.4,1.3C53.2,43.2,61.6,43.2,70,43.2z"/>
	<path d="M0,87.5c0.7-0.8,1.6-1,2.5-1c2,0,4,0,6.1,0c1.3,0,1.3,0,1.3-1.3c0-10.1,0-20.2,0-30.4c0-1.6,0-1.6,1.6-1.6c2.1,0,2-0.3,2,2
		c0,9.9,0,19.8,0,29.7c0,1.6,0,1.6,1.6,1.6c20.5,0,41,0,61.5,0c0.4,0,0.8,0,1.2,0c1.6,0.1,2.3,0.7,2.3,2.4c0,1.5,0,2.9,0,4.4
		c0,1.9,1.4,3.3,3.2,3.3c1.8,0,3.1-1.3,3.2-3.2c0-1.9,0-3.7,0-5.6c0-0.9,0.2-1.2,1.2-1.2c2.9,0,2.4-0.2,2.4,2.4c0,1.4,0,2.7,0,4.1
		c0,3.4-1.6,5.7-4.9,6.9c-0.2,0.1-0.3,0.1-0.4,0.2c-26.5,0-53,0-79.5,0c-2.7-0.8-4.5-2.5-5.3-5.3C0,92.3,0,89.9,0,87.5z M40,90.1
		c-11.4,0-22.7,0-34.1,0c-2.6,0-2.6,0-2.5,2.6c0.1,2.6,1.3,3.9,3.9,3.9c0.2,0,0.5,0,0.7,0c22.6,0,45.2,0,67.9,0c0.3,0,0.5,0,0.8,0
		c0.5,0,0.6-0.2,0.4-0.7c-0.6-1.4-0.6-2.9-0.6-4.4c0-1.4,0-1.4-1.4-1.4C63.4,90.1,51.7,90.1,40,90.1z"/>
	<path d="M0,27.5c0.7-0.8,1.5-1,2.5-1c10.5,0,21.1,0,31.6,0c2,0,2.6,0.6,2.6,2.6c0,6.2,0,12.4,0,18.5c0,1.8-0.6,2.4-2.4,2.4
		c-10.7,0-21.4,0-32.1,0c-1,0-1.7-0.2-2.2-1.1C0,41.9,0,34.7,0,27.5z M18.3,46.6c4.6,0,9.1,0,13.7,0c1,0,1.3-0.2,1.3-1.2
		c-0.1-4.7,0-9.4,0-14c0-0.9-0.3-1.2-1.2-1.2c-9.1,0-18.3,0-27.4,0c-0.9,0-1.2,0.2-1.2,1.1c0,4.7,0,9.4,0,14.1
		c0,0.9,0.3,1.2,1.2,1.2C9.1,46.6,13.7,46.6,18.3,46.6z"/>
	<path d="M100,82.4c-0.6,0.8-1.4,1-2.4,1c-10.1,0-20.2,0-30.3,0c-1.8,0-2.5-0.6-2.5-2.5c0-6.2,0-12.4,0-18.6c0-1.8,0.7-2.4,2.5-2.4
		c10.1,0,20.2,0,30.3,0c1,0,1.8,0.2,2.4,1C100,68.1,100,75.3,100,82.4z M82.5,79.9c4.3,0,8.6,0,12.9,0c0.8,0,1.2-0.2,1.2-1.1
		c0-4.7,0-9.4,0-14.2c0-0.9-0.3-1.1-1.1-1.1c-8.7,0-17.3,0-26,0c-0.9,0-1.1,0.3-1.1,1.1c0,4.7,0,9.4,0,14.1c0,1,0.3,1.2,1.2,1.2
		C73.9,79.8,78.2,79.9,82.5,79.9z"/>
	<path d="M84.8,0c2.6,0.8,4.4,2.4,5.1,5.1c0.4,1.5,0.3,1.7-1.3,1.7c-0.3,0-0.7,0-1,0c-0.7,0-1-0.2-1.2-0.9c-0.3-1.3-1.2-2.1-2.5-2.4
		c-0.6-0.1-1.3-0.1-1.9-0.1c-21.3,0-42.6,0-63.9,0c-0.4,0-0.8,0-1.2,0c-2.3,0.2-3.4,1.4-3.4,3.7c0,5,0,10,0,15c0,1.3,0,1.4-1.4,1.4
		c-2.5,0-2.2,0.2-2.2-2.2c0-4.4,0.1-8.9,0-13.3c-0.1-4.2,1.7-6.9,5.4-8C38.4,0,61.6,0,84.8,0z"/>
	<path d="M39.2,53.3c6.7,0,13.4,0,20.1,0c2,0,2.5,0.5,2.5,2.5c0,6.2,0,12.4,0,18.6c0,1.9-0.6,2.5-2.5,2.5c-13.4,0-26.8,0-40.1,0
		c-1.9,0-2.6-0.6-2.6-2.6c0-6.2,0-12.3,0-18.5c0-1.9,0.6-2.5,2.5-2.5C25.8,53.3,32.5,53.3,39.2,53.3z M39.1,73.2c6,0,11.9,0,17.9,0
		c1,0,1.3-0.3,1.3-1.3c0-4.6,0-9.2,0-13.9c0-1-0.3-1.3-1.3-1.3c-11.8,0-23.7,0-35.5,0c-1,0-1.3,0.4-1.3,1.3c0,4.6,0,9.2,0,13.9
		c0,1,0.3,1.3,1.3,1.2C27.3,73.2,33.2,73.2,39.1,73.2z"/>
	<path d="M26.7,13.2c3,0,5.9,0,8.9,0c1,0,1.3,0.3,1.3,1.3c-0.1,2.6,0.3,2.3-2.3,2.3c-5.5,0-11,0-16.6,0c-1.4,0-1.4,0-1.4-1.3
		c0-2.6-0.3-2.2,2.2-2.3C21.4,13.2,24,13.2,26.7,13.2z"/>
	<path d="M90.1,53.4c0,0.8,0,1.6,0,2.4c0,0.2,0.1,0.5,0,0.6c-0.8,0.9-1.8,0.3-2.7,0.4c-0.5,0.1-0.8-0.2-0.8-0.8c0-1.7,0-3.5,0-5.2
		c0-0.6,0.2-0.8,0.8-0.8c3.4,0.1,2.7-0.4,2.8,2.6C90.1,52.8,90.1,53.1,90.1,53.4z"/>
	<path d="M25,6.6c0.2,0,0.5,0,0.7,0c0.9-0.1,1.1,0.3,1.1,1.1c-0.1,2.8,0.4,2.4-2.5,2.5c-0.8,0-1.2-0.3-1.1-1.1c0-0.2,0-0.4,0-0.6
		C23.2,6.6,23.2,6.6,25,6.6z"/>
	<path d="M18.4,6.6c0.3,0,0.6,0,0.9,0c0.6,0,0.8,0.2,0.8,0.8c0,0.1,0,0.1,0,0.2c0.1,2.6-0.2,2.9-2.9,2.6c-0.5-0.1-0.7-0.2-0.7-0.7
		c0-0.3,0-0.6,0-1C16.6,6.4,16.4,6.6,18.4,6.6z"/>
	<path d="M31.7,6.6c1.9,0,1.8-0.2,1.8,1.9c0,1.7,0,1.7-1.8,1.7c-1.8,0-1.8,0-1.8-1.9C29.9,6.6,29.9,6.6,31.7,6.6z"/>
	<path d="M85.1,22.6c-0.1,3.4-2.7,5.9-6.2,5.8c-3.1-0.1-5.7-2.8-5.7-5.9c0.1-3.3,2.8-6,6.1-5.9C82.5,16.6,85.1,19.3,85.1,22.6z
		 M79.2,20.2c-1.3,0-2.4,1-2.4,2.3c0,1.3,1,2.4,2.3,2.5c1.2,0,2.4-1.1,2.5-2.3C81.6,21.4,80.5,20.2,79.2,20.2z"/>
	<path d="M21.5,34.3c0,0.1-0.1,0.3-0.1,0.5c-0.9,2.8-1.9,5.5-2.8,8.3c-0.2,0.7-0.6,0.9-1.3,0.6c-2.4-0.8-2.4-0.8-1.6-3.2
		c0.8-2.3,1.5-4.6,2.3-6.8c0.2-0.7,0.6-0.9,1.3-0.6c0.6,0.2,1.2,0.4,1.8,0.6C21.3,33.7,21.6,33.8,21.5,34.3z"/>
	<path d="M6.6,38.3c0-0.6,0.3-1,0.6-1.4c0.9-0.9,1.8-1.8,2.7-2.8c0.4-0.4,0.7-0.4,1.1,0c0.1,0.1,0.2,0.2,0.3,0.3
		c1.6,1.6,1.7,1.6,0.1,3.3c-0.4,0.4-0.4,0.7,0,1.1c1.5,1.7,1.5,1.6-0.1,3.3c-0.7,0.7-1.1,0.8-1.8,0c-0.7-0.8-1.5-1.5-2.2-2.3
		C6.9,39.4,6.6,39,6.6,38.3z"/>
	<path d="M30.1,38.4c0,0.5-0.3,0.9-0.6,1.3c-0.9,0.9-1.8,1.8-2.7,2.8c-0.4,0.4-0.7,0.4-1.1,0c-0.4-0.5-0.9-0.9-1.4-1.4
		c-0.5-0.4-0.4-0.7,0-1.1c0.5-0.5,1.3-0.9,1.3-1.6c0-0.7-0.9-1.1-1.3-1.6c-0.4-0.4-0.4-0.7,0-1.1c1.8-2,1.8-2.1,3.7-0.1
		c0.5,0.5,1,1,1.4,1.5C29.8,37.3,30.1,37.8,30.1,38.4z"/>
	<path d="M85.9,66.6c2.1,0,4.3,0,6.4,0c0.8,0,1.1,0.3,1.1,1.1c-0.1,2.9,0.4,2.5-2.4,2.5c-3.8,0-7.6,0-11.4,0c-1.3,0-1.3,0-1.3-1.3
		c0-2.7-0.4-2.3,2.3-2.3C82.4,66.5,84.2,66.6,85.9,66.6z"/>
	<path d="M85.8,76.8c-2.2,0-4.4,0-6.5,0c-0.8,0-1.1-0.3-1.1-1.1c0.1-3-0.4-2.5,2.5-2.5c3.8,0,7.7,0,11.5,0c0.9,0,1.2,0.3,1.2,1.2
		c-0.1,2.8,0.4,2.4-2.4,2.4C89.3,76.8,87.6,76.8,85.8,76.8z"/>
	<path d="M75.1,68.5c0,0.3,0.1,0.7,0,1c-0.3,1.3-1.4,0.6-2.1,0.7c-0.5,0.1-1.3,0.3-1.4-0.7c0-0.2,0-0.4,0-0.6c0-2.6-0.4-2.2,2.3-2.3
		c1,0,1.3,0.3,1.2,1.2C75,68,75.1,68.2,75.1,68.5C75.1,68.5,75.1,68.5,75.1,68.5z"/>
	<path d="M75.1,75c0,1.8,0.2,1.8-1.8,1.8c-0.3,0-0.6,0-0.9,0c-0.5,0-0.8-0.2-0.8-0.8c0-0.2,0-0.4,0-0.6c0-2.5-0.4-2.2,2.3-2.3
		c0.9,0,1.3,0.2,1.2,1.2C75,74.6,75.1,74.8,75.1,75z"/>
	<path d="M33.3,70.1c-3,0-6,0-9,0c-0.8,0-1.2-0.3-1.1-1.1c0.1-2.9-0.3-2.5,2.4-2.5c5.5,0,11,0,16.6,0c1,0,1.3,0.3,1.3,1.3
		c-0.1,2.6,0.4,2.3-2.3,2.3C38.5,70.2,35.9,70.1,33.3,70.1z"/>
	<path d="M40.9,63.5c-2.2,0-4.4,0-6.5,0c-0.8,0-1.2-0.3-1.2-1.1c0-2.9-0.2-2.4,2.4-2.5c3.9,0,7.8,0,11.7,0c0.9,0,1.2,0.3,1.2,1.2
		c-0.1,2.8,0.3,2.4-2.4,2.4C44.4,63.5,42.6,63.5,40.9,63.5z"/>
	<path d="M50.9,70.1c-1.1,0-2.3,0-3.4,0c-0.6,0-0.9-0.3-0.9-0.9c0.1-3.2-0.4-2.7,2.5-2.7c1.7,0,3.3,0,5,0c0.8,0,1,0.3,1,1
		c-0.1,3,0.4,2.5-2.5,2.6C52,70.2,51.5,70.1,50.9,70.1C50.9,70.1,50.9,70.1,50.9,70.1z"/>
	<path d="M26.6,63.5c-0.8,0-1.7,0-2.5,0c-0.6,0-0.9-0.3-0.9-0.9c0-3.3-0.4-2.6,2.5-2.7c1.2,0,2.3,0,3.5,0c0.6,0,0.9,0.3,0.9,0.9
		c0,3.2,0.4,2.7-2.5,2.7C27.3,63.5,26.9,63.5,26.6,63.5C26.6,63.5,26.6,63.5,26.6,63.5z"/>
	<path d="M55.1,61.7c0,0.2,0,0.5,0,0.7c0.1,0.9-0.3,1.1-1.1,1.1c-2.8-0.1-2.4,0.3-2.5-2.5c0-0.9,0.3-1.2,1.1-1.1c0.2,0,0.5,0,0.7,0
		C55.1,59.9,55.1,59.9,55.1,61.7z"/>
</g>
</svg>
