<?xml version="1.0" encoding="utf-8"?>
<!-- Generator: Adobe Illustrator 23.0.1, SVG Export Plug-In . SVG Version: 6.00 Build 0)  -->
<svg version="1.1" id="Layer_1" xmlns="http://www.w3.org/2000/svg" xmlns:xlink="http://www.w3.org/1999/xlink" x="0px" y="0px"
	 viewBox="0 0 100 100" style="enable-background:new 0 0 100 100;" xml:space="preserve">
<g>
	<path d="M53.1,100c-3.3-0.9-5.5-2.9-6.2-6.3c-0.1-0.5-0.1-1-0.1-1.6c0-20.8,0-41.6,0-62.4c0-4.5,3.4-7.9,7.9-7.9
		c10.4,0,20.8,0,31.2,0c4.4,0,7.9,3.4,7.9,7.9c0,15.6,0,31.1,0,46.7c0,0.4-0.2,1,0.2,1.2c0.4,0.2,0.8-0.3,1.1-0.6
		c1.3-1.1,1.7-2.5,1.7-4.1c0-5,0-10,0-14.9c0-16.3,0-32.7,0-49c0-0.4,0-0.8,0-1.2c-0.2-2.7-2-4.4-4.8-4.5c-0.4,0-0.8,0-1.2,0
		c-22.9,0-45.8,0-68.6,0c-0.4,0-0.7,0-1.1,0c-0.6,0-0.9-0.2-0.9-0.9c0-0.8,0-1.6,0.1-2.3c24.5,0,49,0,73.4,0c3.3,0.9,5.4,3,6.3,6.3
		c0,22.9,0,45.8,0,68.8c-0.8,3-2.6,5.1-5.6,6c-0.6,0.2-0.5,0.6-0.5,1.1c0,3.3,0,6.6,0,9.9c0,0.5,0,1.1-0.1,1.6
		c-0.7,3.4-2.9,5.4-6.2,6.3C76,100,64.6,100,53.1,100z M90.6,60.3c0-8.8,0-17.5,0-26.3c0-0.8-0.2-1.2-1.1-1.1
		c-1.9,0.1-3.7,0.1-5.6,0c-0.8,0-1.2,0.2-1.4,1c-0.8,2.7-2.2,3.7-5,3.7c-4.7,0-9.4,0-14.2,0c-3,0-4.3-0.9-5.2-3.8
		c-0.2-0.7-0.6-0.9-1.2-0.9c-1.9,0-3.7,0.1-5.6,0c-1,0-1.2,0.3-1.2,1.3c0,17.3,0,34.7,0,52c0,1,0.3,1.3,1.3,1.3c12.7,0,25.3,0,38,0
		c1.3,0,1.3,0,1.3-1.3C90.6,77.5,90.6,68.9,90.6,60.3z M70.4,25.1c-5.1,0-10.2,0-15.2,0c-2.5,0-4.4,1.4-4.9,3.4
		c-0.3,1-0.2,1.1,0.9,1.1c2.2,0,4.4,0,6.5,0c3,0,3,0,3.5,2.9c0.3,1.4,0.7,1.8,2.2,1.8c4.2,0,8.5,0,12.7,0c3,0,3,0,3.5-3
		c0.2-1.3,0.7-1.7,2-1.7c2.6,0,5.1,0,7.7,0c1.3,0,1.4-0.1,1-1.4c-0.6-2-2.4-3.2-4.8-3.2C80.5,25.1,75.4,25.1,70.4,25.1z M70.3,90.7
		c-3.4,0-6.8,0-10.3,0c-3,0-6.1,0-9.1,0c-0.7,0-0.9,0.2-0.9,0.9c-0.1,3.1,1.8,5.2,4.8,5.2c10.3,0,20.6,0,30.9,0c2.9,0,4.7-2,4.8-4.8
		c0-1.2,0-1.3-1.2-1.3C83,90.7,76.7,90.7,70.3,90.7z"/>
	<path d="M10.9,0c0.3,3.1,0.3,3.1-2.7,3.2c-3.1,0.1-5,2-5,5.2c0,18.6,0,37.3,0,55.9c0,1,0.3,1.2,1.2,1.2c12.7,0,25.3,0,38,0
		c1.4,0,1.4,0,1.4,1.4c0,2,0.2,1.8-1.8,1.8c-12.5,0-24.9,0-37.4,0c-1.4,0-1.4,0-1.4,1.4c0,0.9,0,1.9,0,2.8c0,3.1,2,5,5,5
		c3.7,0,7.5,0,11.2,0c7.6,0,15.3,0,22.9,0c1.4,0,1.4,0,1.4,1.4c0,2.1,0.2,1.9-1.9,1.9c-2.2,0-4.5,0-6.7,0c-0.8,0-1.2,0.2-1.3,1
		c-0.5,2-0.5,2,1.6,2c2.4,0,4.8,0,7.2,0c0.8,0,1.2,0.2,1.1,1.1c-0.1,2.6,0.3,2.2-2.2,2.2c-3.3,0-6.6,0-9.9,0c-1.4,0-2,0.6-2.1,2
		c0,0.8,0.3,1,1,1c3.9,0,7.7,0,11.6,0c1.4,0,1.4,0,1.4,1.4c0,2,0.2,1.8-1.8,1.8c-4.5,0-8.9,0-13.4,0c-1.6,0-2.1-0.5-2.1-2.1
		c0-0.9,0-1.8,0-2.6c0-2,0.9-3.4,2.7-4.3c0.6-0.3,1.6-2.4,1.4-3.1c-0.1-0.2-0.2-0.3-0.4-0.3c-0.3,0-0.6,0-0.9,0
		c-6.8,0-13.6-0.1-20.4,0C4.2,81.5,0.9,78.8,0,75C0,52.1,0,29.2,0,6.3C0.9,3,3,0.9,6.3,0C7.8,0,9.4,0,10.9,0z"/>
	<path d="M17.2,0c0,0.3,0.1,0.6,0.1,1c0,2.3-0.4,2.6-2.7,2.2C14.1,3.1,14,2.9,14,2.5c0-0.8,0-1.7,0.1-2.5C15.1,0,16.1,0,17.2,0z"/>
	<path d="M15,9c0.8,0,1.3,0.6,1.8,1c0.9,0.9,2.3,0.9,3.2,0c0.2-0.2,0.2-0.5,0.2-0.7c0-0.5,0-1,0-1.6c0.1-0.9,0.6-1.5,1.6-1.5
		c2.1,0,4.2,0,6.3,0c1,0,1.5,0.6,1.6,1.6c0,0.2,0,0.5,0,0.7c-0.2,1.1,0.3,1.7,1.3,2.1c0.9,0.3,1.4,0.2,2-0.5c1.5-1.6,2.1-1.5,3.7,0
		c1.2,1.2,2.3,2.3,3.4,3.5c1,1.1,1,1.9,0,2.9c-1.3,1.3-1.3,1.6-0.4,3.3c0.2,0.4,0.6,0.5,1,0.4c3-0.2,3.1,0.7,3,3.2c0,1.5,0,3,0,4.5
		c0,1.3-0.6,1.8-1.9,1.9c-0.1,0-0.2,0-0.3,0c-1.7,0-2.2,0.4-2.5,2.1c-0.1,0.5,0.2,0.7,0.5,1c1.9,2,1.9,2.3-0.1,4.3
		c-1.1,1.1-2.1,2.1-3.2,3.2c-1,1-1.8,1-2.9,0c-0.1-0.1-0.1-0.1-0.2-0.2c-1-1-2.2-1-3.3-0.1c-0.2,0.2-0.3,0.4-0.3,0.7
		c0,0.4,0,0.8,0,1.2c0,1.5-0.5,2-2,2c-1.9,0-3.7,0-5.6,0c-1.4,0-1.9-0.6-1.9-2c0-0.1,0-0.2,0-0.3c0-1.4-0.8-2.3-2.2-2.4
		c-0.3,0-0.5,0.1-0.7,0.3c-0.3,0.3-0.7,0.7-1,1c-0.8,0.7-1.7,0.8-2.4,0c-1.5-1.4-2.9-2.9-4.3-4.3c-0.8-0.8-0.7-1.6,0-2.4
		c0.1-0.1,0.2-0.2,0.3-0.3c1.2-1.3,1.3-1.7,0.4-3.3c-0.3-0.4-0.6-0.4-1-0.4c-2.9,0.2-3-0.7-3-3c0-1.6,0-3.1,0-4.7
		c0-1.2,0.6-1.8,1.8-1.8c0.1,0,0.2,0,0.3,0c1.8,0,2.1-0.3,2.5-2.1c0.1-0.5-0.2-0.7-0.4-1c-2-2.1-1.9-2.3,0.1-4.3
		c1.1-1.1,2.1-2.1,3.2-3.2C14,9.3,14.5,9,15,9z M15,13.2c-0.4,0.1-0.7,0.5-1,0.8c-1.2,1.2-1.1,1-0.1,2.1c0.9,0.9,0.9,1.5,0.3,2.6
		c-0.5,0.9-0.9,1.7-1.2,2.7c-0.6,2-0.7,2.1-2.8,2.1c-0.3,0-0.7-0.1-0.8,0.2c-0.3,0.8-0.2,1.7-0.1,2.5c0.1,0.6,0.8,0.3,1.2,0.3
		c1.5,0,1.9,0.3,2.3,1.7c0.3,0.9,0.6,1.7,1,2.5c1,2,1,2-0.5,3.6c-0.4,0.4-0.5,0.7,0,1.1c0.2,0.2,0.4,0.4,0.6,0.5C15,37,15,37,16,36
		c0.9-0.9,1.6-1,2.7-0.4c0.9,0.5,1.8,0.9,2.8,1.2c1.9,0.6,2,0.7,2,2.6c0,0.3-0.1,0.8,0.2,0.9c0.8,0.3,1.7,0.2,2.5,0.1
		c0.6-0.1,0.3-0.8,0.3-1.2c0-1.5,0.3-1.9,1.7-2.3c0.9-0.3,1.7-0.6,2.5-1c1.9-1,2-1,3.6,0.5c0.4,0.4,0.7,0.5,1.1,0
		c0.2-0.2,0.4-0.4,0.6-0.6C37,35,37,35,36,34c-0.9-1-1-1.6-0.4-2.7c0.5-0.9,0.9-1.7,1.2-2.7c0.6-2,0.7-2.1,2.8-2.1
		c0.3,0,0.7,0.1,0.8-0.2c0.3-0.8,0.2-1.7,0.1-2.5c-0.1-0.6-0.8-0.3-1.2-0.3c-1.5,0-1.9-0.3-2.3-1.7c-0.3-0.9-0.6-1.7-1-2.5
		c-1-2-1-2,0.5-3.6c0.4-0.4,0.5-0.7,0-1.1c-0.2-0.1-0.3-0.3-0.5-0.5c-1-1-1-1-2-0.1c-1,0.9-1.6,1-2.8,0.3c-0.9-0.5-1.8-0.9-2.8-1.2
		c-1.8-0.5-1.9-0.7-1.9-2.6c0-0.3,0.1-0.8-0.2-0.9c-0.8-0.3-1.7-0.2-2.5-0.1c-0.6,0.1-0.3,0.8-0.3,1.2c0,1.5-0.3,1.9-1.7,2.3
		c-1,0.3-2,0.7-2.9,1.2c-1.4,0.8-1.9,0.7-3.1-0.4C15.6,13.6,15.4,13.3,15,13.2z"/>
	<path d="M23.4,60.5c0-0.8,0-1.7,0-2.5c0-1.2,0.6-1.7,1.7-1.8c0.1,0,0.2,0,0.3,0c1.9,0,2.1-0.2,2.6-2c0.2-0.5-0.1-0.8-0.4-1.1
		c-1.9-2-1.9-2.3,0-4.3c1-1,2.1-2.1,3.1-3.1c1.1-1.1,2-1.2,3.1,0c0.8,0.9,1.5,1.2,2.7,0.6c0.7-0.4,1-0.7,1-1.5
		c0-2.5,0.2-2.7,2.7-2.7c1.4,0,2.9,0,4.3,0c0.7,0,0.9,0.2,0.9,0.9c-0.1,2.8,0.3,2.3-2.3,2.4c-0.1,0-0.2,0-0.3,0c-2,0-2,0-2.1,1.9
		c-0.1,0.8-0.5,1.3-1.3,1.5c-1.3,0.4-2.6,0.9-3.9,1.6c-0.9,0.5-1.7,0.1-2.4-0.6c-0.9-0.9-0.9-0.9-1.8,0c-1.1,1.1-1.1,1.1,0,2.2
		c0.7,0.7,0.8,1.5,0.3,2.4c-0.6,1.1-1.1,2.2-1.4,3.4c-0.4,1.3-0.8,1.5-2.1,1.5c-1.4,0-1.4,0-1.4,1.4c0,0.7,0,1.5,0,2.2
		c0,0.2,0.1,0.4,0,0.6c-0.7,0.9-1.7,0.3-2.5,0.4c-0.6,0.1-0.7-0.3-0.7-0.8C23.4,62.4,23.4,61.4,23.4,60.5z"/>
	<path d="M75.8,9.4c-3.1,0-6.1,0-9.2,0c-0.8,0-1.1-0.2-1.1-1.1c0.1-2.6-0.3-2.2,2.2-2.2c5.7,0,11.3,0,17,0c1,0,1.3,0.3,1.3,1.3
		c-0.1,2.3,0.2,2-2,2C81.3,9.5,78.5,9.4,75.8,9.4z"/>
	<path d="M36.2,61c-2,0-2.1-0.1-1.7-1.9c0.7-3.1,3.3-5.4,6.4-5.9c1.2-0.2,1.3-0.1,1.3,1.2c0,0.1,0,0.2,0,0.3c0,1.6,0,1.5-1.5,2
		c-1.5,0.5-2.7,1.5-3,3.1C37.6,60.8,37.1,61.2,36.2,61z"/>
	<path d="M17.1,75.1c-1.3,0-2.5,0-3.8,0c-0.6,0-0.9-0.2-0.9-0.8c0-2.9-0.3-2.4,2.3-2.4c2.1,0,4.2,0,6.2,0c0.7,0,1,0.2,1,0.9
		c-0.1,2.8,0.3,2.3-2.2,2.3C18.9,75.1,18,75.1,17.1,75.1z"/>
	<path d="M89,7.7c0-1.6,0-1.6,1.7-1.6c1.6,0,1.6,0,1.6,1.7c0,1.6,0,1.6-1.8,1.6C89,9.4,89,9.4,89,7.7z"/>
	<path d="M9.4,73.4c0,1.8,0.2,1.7-1.7,1.7c-1.6,0-1.6,0-1.6-1.7c0-1.6,0-1.6,1.7-1.6C9.4,71.8,9.4,71.8,9.4,73.4z"/>
	<path d="M87.6,60.9c0,9.5-7.7,17.2-17.1,17.3c-9.7,0-17.4-7.6-17.4-17.2c0-9.7,7.6-17.3,17.3-17.3C79.9,43.7,87.6,51.3,87.6,60.9z
		 M70.3,74.9c7.9-0.2,14-6.1,14-14.1C84.2,52.8,78,47,70.3,47c-8.2,0-14,6.4-14,14.1C56.5,69,62.6,74.7,70.3,74.9z"/>
	<path d="M70.2,31.3c-1.8,0-3.5,0-5.3,0c-0.7,0-1-0.2-1-1c0.1-2.8-0.3-2.3,2.2-2.3c3.1,0,6.2,0,9.4,0c0.8,0,1.1,0.3,1.1,1.1
		c-0.1,2.6,0.3,2.2-2.1,2.2C73.1,31.3,71.6,31.3,70.2,31.3z"/>
	<path d="M70.2,95.4c-1.8,0-3.5,0-5.3,0c-0.7,0-1-0.2-1-1c0.1-2.7-0.3-2.3,2.2-2.3c3.1,0,6.2,0,9.3,0c0.9,0,1.2,0.3,1.2,1.2
		c-0.1,2.5,0.3,2.1-2.1,2.1C73.1,95.4,71.6,95.4,70.2,95.4z"/>
	<path d="M25,17.1c4.4,0,7.9,3.4,7.9,7.8c0,4.5-3.4,8-7.9,8c-4.5,0-7.9-3.4-7.9-7.9C17.1,20.6,20.6,17.1,25,17.1z M29.6,25
		c0-2.4-2-4.5-4.5-4.6c-2.5-0.1-4.7,2.1-4.7,4.6c0,2.5,2.1,4.6,4.6,4.6C27.5,29.6,29.6,27.5,29.6,25z"/>
	<path d="M82.9,56.3c0,0.5-0.2,0.9-0.6,1.3c-4.6,4.6-9.1,9.2-13.7,13.7c-0.9,0.9-1.8,0.9-2.7,0c-2.5-2.5-4.9-4.9-7.4-7.4
		c-1-1-0.9-1.8,0-2.8c1.4-1.4,2.8-2.8,4.2-4.2c1-1,1.8-0.9,2.8,0c0.6,0.5,1,1.6,1.8,1.5c0.6-0.1,1.2-1,1.7-1.5c2-2,4-4,6.1-6.1
		c1.1-1.1,1.9-1.1,3.1,0c1.4,1.4,2.7,2.7,4.1,4.1C82.6,55.2,82.9,55.7,82.9,56.3z M78.7,56.3c0-0.3-0.2-0.4-0.3-0.5
		c-0.4-0.4-0.9-0.8-1.2-1.3c-0.5-0.6-0.8-0.5-1.3,0c-2.4,2.4-4.8,4.8-7.2,7.2c-1.1,1.1-1.9,1.1-2.9,0c-1.8-1.7-1.8-1.7-3.5,0.2
		c-0.4,0.4-0.4,0.7,0,1c1.5,1.5,3,2.9,4.4,4.4c0.4,0.4,0.7,0.4,1.1,0c3.5-3.6,7.1-7.1,10.6-10.6C78.5,56.7,78.6,56.5,78.7,56.3z"/>
</g>
</svg>
