<?xml version="1.0" encoding="utf-8"?>
<!-- Generator: Adobe Illustrator 23.0.1, SVG Export Plug-In . SVG Version: 6.00 Build 0)  -->
<svg version="1.1" xmlns="http://www.w3.org/2000/svg" xmlns:xlink="http://www.w3.org/1999/xlink" x="0px" y="0px"
	 viewBox="0 0 62 62" style="enable-background:new 0 0 62 62;" xml:space="preserve">
<style type="text/css">
	.st0{display:none;}
	.st1{display:inline;}
	.st2{clip-path:url(#SVGID_2_);}
	.st3{fill:#FFFFFF;}
	.st4{clip-path:url(#SVGID_4_);}
	.st5{clip-path:url(#SVGID_6_);}
	.st6{clip-path:url(#SVGID_8_);}
</style>
<g id="Improves_Website_Traffic" class="st0">
	<g class="st1">
		<defs>
			<rect id="SVGID_1_" x="0" width="62" height="62"/>
		</defs>
		<clipPath id="SVGID_2_">
			<use xlink:href="#SVGID_1_"  style="overflow:visible;"/>
		</clipPath>
		<g class="st2">
			<path class="st3" d="M30.97,2.08c8.51,0,17.01,0.05,25.52-0.03c3.08-0.03,5.53,2.43,5.51,5.51c-0.07,11.51-0.03,23.03-0.03,34.54
				c0,3.27-2.18,5.44-5.46,5.44c-9.52,0-19.03,0-28.55,0c-1.17,0-1.05-0.1-1.06,1.09c0,0.62,0.01,1.25,0,1.87
				c-0.02,0.76-0.4,1.15-1.16,1.16c-1.1,0.02-2.19,0.04-3.29-0.01c-0.58-0.02-0.73,0.19-0.72,0.74c0.03,2.04,0.01,4.08,0.01,6.12
				c0,1.06-0.33,1.39-1.38,1.4c-1.22,0-2.45,0.01-3.67,0c-0.84-0.01-1.22-0.38-1.22-1.23c-0.01-2.06-0.03-4.12,0.01-6.19
				c0.01-0.63-0.14-0.88-0.82-0.85c-1.03,0.06-2.06,0.02-3.09,0.01c-0.89-0.01-1.25-0.37-1.26-1.26c-0.01-0.73-0.03-1.46,0.01-2.19
				c0.03-0.55-0.19-0.7-0.71-0.69c-1.48,0.03-2.96,0.02-4.45,0.01c-2.89-0.02-5.16-2.27-5.16-5.15C0,30.66,0,18.93,0.01,7.2
				c0-2.85,2.28-5.12,5.12-5.12C13.75,2.07,22.36,2.08,30.97,2.08z M6.12,45.33c-1.21-1.4-1.94-2.92-1.98-4.72
				c-0.02-1.06,0.32-1.4,1.36-1.41c1.4,0,2.79,0,4.19,0c0.2,0,0.51,0.08,0.57-0.17c0.13-0.54,0.13-1.12,0.01-1.66
				c-0.08-0.37-0.53-0.3-0.83-0.38c-3.06-0.87-5.31-3.73-5.31-6.77c0-0.96,0.35-1.31,1.33-1.32c1.42-0.01,2.84,0,4.25-0.01
				c0.2,0,0.5,0.07,0.55-0.19c0.1-0.55,0.13-1.12-0.01-1.66c-0.1-0.36-0.54-0.28-0.84-0.37c-3.03-0.87-5.27-3.71-5.28-6.73
				c0-1.01,0.34-1.36,1.35-1.36c1.4-0.01,2.79-0.02,4.19,0.01c0.52,0.01,0.68-0.18,0.66-0.67c-0.03-0.75-0.02-1.5,0-2.26
				c0.01-0.81,0.38-1.2,1.18-1.2c4.75-0.01,9.5-0.01,14.25,0c0.76,0,1.14,0.4,1.16,1.16c0.02,0.69,0,1.37,0,2.06
				c0,0.9,0,0.9,0.87,0.9c1.35,0,2.71-0.01,4.06,0c0.89,0.01,1.25,0.38,1.26,1.26c0.03,3-2.16,5.9-5.12,6.78
				c-1.07,0.32-1.07,0.32-1.06,1.46c0,0.06,0.01,0.13,0,0.19c-0.06,0.48,0.16,0.63,0.63,0.63c1.4-0.02,2.79-0.01,4.19-0.01
				c1.04,0,1.38,0.35,1.36,1.41c-0.03,2.9-2.13,5.66-5.02,6.6c-1.19,0.39-1.17,0.39-1.18,1.64c0,0.5,0.15,0.68,0.66,0.67
				c1.44-0.03,2.88-0.02,4.32-0.01c0.84,0.01,1.21,0.39,1.21,1.23c0,1.56-0.51,2.94-1.43,4.19c-0.17,0.23-0.41,0.41-0.5,0.73
				c0.14,0.01,0.23,0.02,0.31,0.02c8.34,0,16.67,0.01,25.01,0c2.11,0,3.33-1.3,3.33-3.49c0-9.54,0-19.08,0.01-28.62
				c0-0.61-0.15-0.81-0.79-0.81c-18.71,0.02-37.43,0.02-56.14,0c-0.6,0-0.76,0.19-0.76,0.77c0.02,9.58,0.01,19.17,0.01,28.75
				C2.16,44.29,3.7,45.62,6.12,45.33z M30.92,10.33c8.55,0,17.1,0,25.65,0c0.9,0,1.8-0.01,2.71,0c0.37,0.01,0.55-0.11,0.55-0.52
				c-0.02-0.84,0.03-1.68-0.02-2.51c-0.07-1.47-0.94-2.59-2.21-2.92c-0.46-0.12-0.93-0.15-1.4-0.15c-16.8,0-33.6,0-50.4,0
				c-0.15,0-0.3,0-0.45,0C3.45,4.3,2.22,5.53,2.16,7.42c-0.02,0.67-0.01,1.33,0,2c0,0.9,0,0.9,0.92,0.9
				C12.36,10.33,21.64,10.33,30.92,10.33z M12.47,33c0,5.26,0.01,10.53-0.01,15.79c0,0.56,0.15,0.74,0.72,0.74
				c3.61-0.02,7.22-0.03,10.83,0c0.61,0,0.76-0.19,0.76-0.77c-0.02-10.46-0.02-20.93,0-31.39c0-0.58-0.15-0.78-0.76-0.77
				c-3.59,0.03-7.18,0.03-10.76,0c-0.63,0-0.79,0.2-0.79,0.81C12.48,22.6,12.47,27.8,12.47,33z M17.63,54.72
				c0,0.58-0.01,1.16,0,1.74c0.02,1.48-0.24,1.28,1.35,1.32c0.49,0.01,0.63-0.17,0.62-0.64c-0.02-1.37,0.01-2.75-0.01-4.13
				c-0.02-1.52,0.31-1.32-1.45-1.34c-0.4-0.01-0.53,0.16-0.52,0.54C17.64,53.04,17.63,53.88,17.63,54.72z M26.91,22.52
				c0,0.62,0.01,1.14,0,1.65c-0.01,0.34,0.14,0.42,0.43,0.33c1.66-0.56,2.77-1.67,3.34-3.32c0.12-0.34-0.02-0.47-0.37-0.45
				c-0.49,0.02-0.99-0.02-1.48,0.01c-0.61,0.03-1.38-0.27-1.79,0.15C26.65,21.28,26.97,22.04,26.91,22.52z M10.31,33
				c0-0.47-0.01-0.94,0-1.42c0.01-0.37-0.11-0.55-0.51-0.55c-0.97,0.02-1.93,0.02-2.9,0c-0.44-0.01-0.46,0.21-0.34,0.52
				c0.58,1.59,1.67,2.67,3.26,3.24c0.36,0.13,0.51,0.01,0.49-0.38C10.3,33.95,10.31,33.47,10.31,33z M28.88,31.04
				c-0.49,0-0.99,0.01-1.48,0c-0.36-0.01-0.5,0.14-0.5,0.5c0.01,0.99,0.01,1.97,0,2.96c0,0.35,0.17,0.41,0.44,0.31
				c1.65-0.56,2.76-1.68,3.33-3.33c0.12-0.35-0.04-0.46-0.38-0.44C29.83,31.06,29.36,31.04,28.88,31.04z M8.37,20.73
				c-0.49,0-0.99,0.01-1.48,0c-0.31-0.01-0.42,0.09-0.36,0.42c0.26,1.34,2.04,3.12,3.38,3.37c0.26,0.05,0.41,0.02,0.41-0.3
				c-0.01-1.01-0.01-2.02,0-3.03c0-0.33-0.14-0.47-0.47-0.46C9.36,20.74,8.86,20.73,8.37,20.73z M8.36,41.36
				c-0.47,0-0.95,0.02-1.42-0.01c-0.39-0.02-0.52,0.12-0.39,0.49c0.58,1.62,1.68,2.72,3.3,3.28c0.33,0.11,0.47,0.01,0.46-0.35
				c-0.02-0.97-0.02-1.93,0-2.9c0.01-0.4-0.17-0.53-0.54-0.52C9.3,41.37,8.83,41.36,8.36,41.36z M26.91,43.15
				c0,0.62,0.01,1.14,0,1.65c-0.01,0.34,0.15,0.42,0.43,0.33c1.65-0.56,2.77-1.67,3.34-3.32c0.12-0.34-0.02-0.47-0.37-0.45
				c-0.49,0.02-0.99-0.02-1.48,0.01c-0.61,0.03-1.38-0.27-1.79,0.15C26.65,41.91,26.97,42.66,26.91,43.15z"/>
			<path class="st3" d="M37.71,26.91c-0.83-0.03-1.8-0.61-2.35-1.79c-0.56-1.2-0.4-2.36,0.44-3.38c0.83-1.01,1.95-1.29,3.2-1.03
				c0.85,0.18,1.53-0.47,1.32-1.32c-0.32-1.27,0.19-2.65,1.22-3.36c1.12-0.76,2.55-0.77,3.63-0.02c1.06,0.74,1.56,2.08,1.25,3.35
				c-0.22,0.89,0.45,1.55,1.35,1.34c0.53-0.12,1.07-0.15,1.59,0.04c0.39,0.14,0.65,0.05,0.9-0.26c0.13-0.17,0.3-0.31,0.45-0.46
				c0.64-0.6,1.12-1.1,0.92-2.21c-0.31-1.7,1.01-3.18,2.64-3.36c1.71-0.19,3.21,0.87,3.53,2.5c0.33,1.63-0.67,3.22-2.3,3.66
				c-0.57,0.15-1.15,0.15-1.71-0.04c-0.31-0.1-0.53-0.06-0.74,0.19c-0.17,0.2-0.35,0.38-0.55,0.55c-0.66,0.59-1.14,1.12-0.91,2.21
				c0.28,1.3-0.41,2.39-1.62,3.01c-1.2,0.62-2.4,0.5-3.44-0.34c-1.05-0.85-1.36-1.99-1.04-3.3c0.17-0.71-0.55-1.46-1.24-1.28
				c-0.6,0.16-1.18,0.16-1.78,0c-0.7-0.18-1.41,0.56-1.23,1.26C41.79,25,40.32,26.92,37.71,26.91z M48.49,22.82
				c-0.48,0.02-0.95,0.51-0.93,0.98c0.02,0.49,0.5,0.95,0.98,0.93c0.49-0.02,0.94-0.5,0.93-0.98C49.46,23.26,48.97,22.8,48.49,22.82
				z M43.34,19.58c0.48,0.02,0.96-0.44,0.98-0.93c0.02-0.48-0.44-0.97-0.93-0.98c-0.48-0.02-0.97,0.45-0.98,0.93
				C42.39,19.08,42.85,19.56,43.34,19.58z M55.66,17.62c0.02-0.48-0.44-0.97-0.93-0.99c-0.47-0.02-0.97,0.45-0.99,0.93
				c-0.02,0.48,0.44,0.97,0.93,0.98C55.16,18.56,55.64,18.11,55.66,17.62z M39.16,23.78c0-0.48-0.47-0.96-0.95-0.96
				c-0.48,0-0.96,0.48-0.96,0.96c0,0.48,0.47,0.96,0.96,0.96C38.69,24.73,39.16,24.26,39.16,23.78z"/>
			<path class="st3" d="M57.85,36.16c0,1.97,0,3.95,0,5.92c0,0.97-0.35,1.33-1.31,1.33c-1.24,0.01-2.49,0.01-3.73,0
				c-0.84-0.01-1.22-0.38-1.23-1.22c-0.01-4.03-0.01-8.07,0-12.1c0-0.81,0.38-1.19,1.18-1.2c1.29-0.01,2.58-0.01,3.86,0
				c0.84,0.01,1.22,0.38,1.23,1.22C57.85,32.13,57.85,34.15,57.85,36.16z M53.72,36.16c0,1.29-0.01,2.58,0,3.87
				c0.01,1.4-0.18,1.2,1.23,1.25c0.61,0.02,0.76-0.2,0.75-0.78c-0.03-2.71,0-5.41-0.02-8.12c-0.01-1.52,0.26-1.31-1.39-1.35
				c-0.46-0.01-0.59,0.17-0.59,0.61C53.73,33.15,53.72,34.65,53.72,36.16z"/>
			<path class="st3" d="M49.6,37.18c0,1.65,0.01,3.3,0,4.96c0,0.92-0.37,1.28-1.3,1.28c-1.22,0.01-2.45,0.01-3.67,0
				c-0.94-0.01-1.3-0.36-1.31-1.27c-0.01-3.3-0.01-6.61,0-9.91c0-0.92,0.36-1.27,1.3-1.28c1.22-0.01,2.45-0.01,3.67,0
				c0.96,0.01,1.31,0.36,1.31,1.33C49.6,33.92,49.6,35.55,49.6,37.18z M45.47,37.12c0,0.97-0.01,1.93,0,2.9
				c0.01,1.41-0.2,1.21,1.29,1.25c0.55,0.02,0.7-0.18,0.69-0.71c-0.02-2.04,0-4.08-0.01-6.12c-0.01-1.52,0.27-1.31-1.39-1.35
				c-0.46-0.01-0.6,0.17-0.59,0.61C45.49,34.84,45.47,35.98,45.47,37.12z"/>
			<path class="st3" d="M41.35,39.31c0,0.94,0.01,1.89,0,2.83c-0.01,0.89-0.37,1.26-1.24,1.27c-1.27,0.01-2.53,0.01-3.8,0
				c-0.85-0.01-1.23-0.38-1.23-1.21c-0.01-1.97-0.01-3.95,0-5.92c0-0.83,0.39-1.2,1.24-1.2c1.27-0.01,2.53-0.01,3.8,0
				c0.87,0.01,1.23,0.38,1.24,1.27C41.35,37.34,41.35,38.33,41.35,39.31z M37.22,39.19c0,0.24-0.01,0.47,0,0.71
				c0.04,1.55-0.34,1.35,1.49,1.37c0.37,0,0.49-0.16,0.49-0.51c-0.01-0.73,0.01-1.46,0-2.19c-0.02-1.52,0.27-1.32-1.39-1.34
				c-0.04,0-0.09,0-0.13,0c-0.34-0.02-0.46,0.15-0.45,0.47C37.23,38.2,37.22,38.69,37.22,39.19z"/>
			<path class="st3" d="M43.36,8.35c-3.87,0-7.73-0.01-11.6,0.01c-0.64,0-0.87-0.17-0.84-0.83C30.99,6,30.77,6.2,32.28,6.2
				c7.54-0.01,15.08,0,22.61,0c0.89,0,0.89,0,0.89,0.88c-0.01,1.44,0.16,1.27-1.27,1.27C50.79,8.36,47.08,8.35,43.36,8.35z"/>
			<path class="st3" d="M8.34,7.22c0,1.13,0,1.13-1.09,1.13c-1.07,0-1.07,0-1.07-1.09c0-1.07,0-1.07,1.09-1.07
				C8.34,6.2,8.34,6.2,8.34,7.22z"/>
			<path class="st3" d="M16.59,7.28c0,1.07,0,1.07-1.08,1.07c-1.07,0-1.07,0-1.07-1.08c0-1.08,0-1.08,1.14-1.07
				C16.59,6.2,16.59,6.2,16.59,7.28z"/>
			<path class="st3" d="M11.36,8.35c-1.05,0-1.05,0-1.04-1.11c0-1.17-0.08-1.04,1.17-1.04c0.98-0.01,0.98,0,0.98,1.17
				C12.47,8.35,12.47,8.35,11.36,8.35z"/>
			<path class="st3" d="M18.6,47.54c-2.36-0.01-4.17-1.84-4.15-4.23c0.01-2.32,1.86-4.12,4.21-4.1c2.33,0.01,4.13,1.85,4.12,4.2
				C22.77,45.73,20.94,47.55,18.6,47.54z M18.57,45.37c1.08,0.01,2.01-0.91,2.03-2c0.02-1.05-0.93-2-2.03-2
				c-0.98,0-1.94,0.94-1.97,1.93C16.58,44.38,17.51,45.36,18.57,45.37z"/>
			<path class="st3" d="M14.44,22.72c0-2.33,1.83-4.15,4.18-4.14c2.34,0,4.16,1.82,4.16,4.16c0,2.37-1.83,4.19-4.21,4.18
				C16.24,26.91,14.44,25.07,14.44,22.72z M20.61,22.7c-0.02-1.06-1.01-1.99-2.07-1.95c-1,0.04-1.93,1-1.92,1.98
				c0.01,1.1,0.95,2.05,2.01,2.02C19.71,24.71,20.63,23.77,20.61,22.7z"/>
			<path class="st3" d="M14.44,33.02c0-2.33,1.84-4.14,4.19-4.13c2.34,0,4.15,1.83,4.15,4.17c0,2.37-1.84,4.18-4.22,4.17
				C16.24,37.22,14.44,35.38,14.44,33.02z M18.6,35.06c1.09-0.02,2.01-0.95,2.01-2.03c0-1.06-0.98-2-2.06-1.97
				c-0.99,0.02-1.94,0.98-1.94,1.96C16.61,34.11,17.55,35.07,18.6,35.06z"/>
		</g>
	</g>
</g>
<g id="Adaptability" class="st0">
	<g class="st1">
		<path class="st3" d="M62,49.84c-0.33,0.47-0.8,0.62-1.36,0.62c-4.98-0.01-9.96,0-14.95-0.01c-1.11,0-1.5-0.39-1.5-1.54
			c-0.01-3.99,0-7.98,0-11.97c0-0.87-0.01-1.75,0-2.62c0.01-1.06,0.4-1.44,1.46-1.44c5,0,10,0,15.01-0.01
			c0.57,0,1.03,0.13,1.34,0.64C62,38.95,62,44.39,62,49.84z M53.09,48.37c2.04,0,4.07-0.01,6.11,0.01c0.53,0.01,0.75-0.13,0.75-0.7
			c-0.02-4.01-0.02-8.02,0-12.03c0-0.56-0.19-0.71-0.74-0.71c-4.07,0.02-8.15,0.02-12.22,0c-0.52,0-0.7,0.13-0.7,0.67
			c0.02,4.03,0.02,8.06,0,12.09c0,0.53,0.17,0.68,0.69,0.67C49.02,48.36,51.06,48.37,53.09,48.37z"/>
		<path class="st3" d="M0,49c2.64-4.62,5.28-9.24,7.93-13.86c0.3-0.52,0.59-1.04,0.9-1.55c0.56-0.92,1.49-0.93,2.04,0.01
			c1.37,2.36,2.72,4.74,4.07,7.11c1.49,2.61,2.95,5.25,4.49,7.83c0.74,1.23-0.1,1.94-1.18,1.94c-5.61-0.04-11.22-0.02-16.82-0.01
			c-0.58,0-1.08-0.12-1.42-0.62C0,49.56,0,49.28,0,49z M9.81,36.15c-0.05,0.06-0.11,0.12-0.14,0.18c-2.21,3.86-4.41,7.72-6.62,11.58
			c-0.28,0.49,0,0.47,0.35,0.47c4.3,0,8.6-0.01,12.89,0.01c0.54,0,0.57-0.11,0.31-0.55c-2.13-3.7-4.23-7.41-6.35-11.11
			C10.13,36.52,10.07,36.28,9.81,36.15z"/>
		<path class="st3" d="M31.85,0c1.85,0.38,3.54,1.1,4.88,2.45c2.52,2.54,3.34,5.57,2.25,8.93c-1.12,3.44-3.64,5.49-7.28,6.02
			c-5.1,0.75-9.76-3.1-10.08-8.13c-0.28-4.34,2.77-8.3,7.16-9.17c0.14-0.03,0.27-0.07,0.41-0.1C30.07,0,30.96,0,31.85,0z
			 M37.29,8.75c0.01-3.76-2.95-6.7-6.76-6.71c-3.78-0.01-6.81,2.94-6.85,6.65c-0.03,3.65,3.02,6.75,6.79,6.74
			C34.67,15.42,37.39,12.02,37.29,8.75z"/>
		<path class="st3" d="M8.84,62c-0.01-1.75-0.03-3.49-0.04-5.24c0-0.26,0-0.51,0-0.93c-0.37,0.34-0.64,0.58-0.9,0.83
			c-0.21,0.21-0.41,0.23-0.61,0c-0.03-0.03-0.06-0.06-0.09-0.08c-1.12-1.04-1.12-1.04-0.04-2.11c0.6-0.59,1.19-1.19,1.8-1.77
			c0.6-0.57,1.15-0.59,1.74-0.02c0.86,0.81,1.68,1.66,2.53,2.47c0.26,0.25,0.29,0.44,0.01,0.68c-0.38,0.32-0.64,0.89-1.11,0.96
			c-0.48,0.06-0.67-0.61-1.24-0.89c0,2.07,0,4.08,0,6.09C10.21,62,9.53,62,8.84,62z"/>
		<path class="st3" d="M4.8,31.74c0.47-9.73,4.88-17.25,13.74-22.1c0.73-0.4,0.73-0.38,1.1,0.35c0.56,1.1,0.55,1.1-0.51,1.69
			c-6.18,3.44-10.06,8.58-11.63,15.38c-0.46,1.97-0.67,4-0.46,6.03c0.06,0.57-0.11,0.81-0.72,0.88c-1.29,0.15-1.29,0.18-1.41-1.06
			C4.88,32.57,4.84,32.23,4.8,31.74z"/>
		<path class="st3" d="M30.92,57.23c-5.28-0.06-9.72-1.29-13.83-3.74c-0.47-0.28-0.5-0.49-0.2-0.92c0.78-1.13,0.75-1.13,1.97-0.46
			c3.2,1.77,6.62,2.78,10.3,2.98c5.04,0.27,9.68-0.9,13.94-3.55c0.5-0.31,0.78-0.31,1.1,0.22c0.8,1.28,0.92,1-0.37,1.77
			c-3.22,1.93-6.69,3.14-10.45,3.51C32.4,57.13,31.41,57.19,30.92,57.23z"/>
		<path class="st3" d="M28.53,24.62c-1.82,0.54-3.15,1.63-4.02,3.23c-1.65,3.04-0.74,6.69,2.14,8.66c0.38,0.26,0.5,0.49,0.21,0.86
			c-0.07,0.09-0.13,0.2-0.19,0.31c-0.62,1.04-0.62,1.04-1.6,0.29c-3.41-2.59-4.47-7.23-2.48-10.97c1.11-2.08,2.81-3.51,5.06-4.29
			c0.47-0.16,0.57-0.31,0.16-0.64c-0.02-0.01-0.03-0.03-0.04-0.04c-1.05-1.06-1.02-1.31,0.23-2.21c0.21-0.15,0.35-0.14,0.52,0.03
			c0.91,0.9,1.83,1.79,2.73,2.7c0.35,0.35,0.37,0.79,0.16,1.22c-0.57,1.16-1.17,2.31-1.75,3.47c-0.15,0.29-0.32,0.33-0.63,0.21
			c-1.5-0.63-1.5-0.62-0.78-2.07C28.37,25.15,28.56,24.95,28.53,24.62z"/>
		<path class="st3" d="M32.39,37.38c2.68-0.69,4.74-3.24,4.89-5.82c0.14-2.6-0.84-4.64-3-6.13c-0.32-0.22-0.37-0.43-0.16-0.73
			c0.05-0.06,0.08-0.14,0.12-0.2c0.73-1.24,0.75-1.25,1.87-0.3c2.65,2.24,3.77,5.1,3.12,8.47c-0.63,3.31-2.74,5.5-5.94,6.65
			c-0.52,0.19-0.51,0.32-0.13,0.62c0.02,0.01,0.03,0.03,0.04,0.04c1.11,1.1,1.1,1.23-0.18,2.2c-0.23,0.17-0.39,0.16-0.57-0.03
			c-0.89-0.89-1.8-1.77-2.68-2.67c-0.34-0.35-0.39-0.8-0.18-1.22c0.58-1.18,1.09-2.4,1.81-3.5c0.47-0.73,0.97,0.16,1.47,0.26
			c0.32,0.07,0.61,0.24,0.36,0.68C32.95,36.22,32.7,36.76,32.39,37.38z"/>
		<path class="st3" d="M55.06,31.04c-0.96,0.17-1.02,0.12-1.1-0.94c-0.31-3.96-1.58-7.6-3.81-10.92c-2.22-3.3-5.11-5.87-8.66-7.7
			c-0.55-0.28-0.62-0.53-0.34-1.05c0.71-1.35,0.44-1.28,1.73-0.56c7.16,4,11.45,10.03,12.95,17.98c0.15,0.8,0.22,1.61,0.27,2.42
			c0.05,0.74,0.02,0.75-0.76,0.77C55.23,31.04,55.13,31.04,55.06,31.04z"/>
		<path class="st3" d="M59.27,18.77c0.26-0.29,0.5-0.55,0.73-0.81c0.24-0.29,0.44-0.23,0.69,0.01c1.17,1.08,1.18,1.08,0.03,2.21
			c-0.58,0.58-1.16,1.16-1.76,1.72c-0.63,0.58-1.14,0.6-1.75,0.03c-0.88-0.82-1.71-1.68-2.58-2.52c-0.24-0.23-0.25-0.43,0-0.65
			c0.37-0.33,0.65-0.9,1.1-0.97c0.51-0.08,0.7,0.63,1.17,0.87C57.08,18.51,57,18.3,57,18.13c0.01-1.65,0.02-3.3,0-4.94
			c-0.01-0.53,0.19-0.69,0.71-0.69c1.64,0.02,1.41-0.12,1.42,1.35c0.01,1.41,0,2.82,0.01,4.23C59.13,18.26,59.07,18.46,59.27,18.77z
			"/>
		<path class="st3" d="M17.11,3.55c-0.3-0.21-0.58-0.4-0.85-0.61C16,2.75,16.02,2.55,16.24,2.3c1.09-1.22,1.08-1.23,2.23-0.09
			c0.61,0.6,1.23,1.2,1.83,1.81c0.54,0.56,0.57,1.07,0.03,1.63c-0.84,0.88-1.68,1.78-2.61,2.56c-0.71,0.59-0.84-0.43-1.27-0.65
			c-0.25-0.14-0.64-0.4-0.2-0.79c0.27-0.24,0.54-0.47,0.84-0.72c-0.25-0.24-0.46-0.16-0.64-0.16c-1.67-0.01-3.34-0.02-5.02,0
			c-0.52,0.01-0.71-0.16-0.7-0.68c0.04-1.61-0.16-1.4,1.42-1.41c1.39-0.01,2.78,0,4.17-0.01C16.52,3.79,16.73,3.85,17.11,3.55z"/>
	</g>
</g>
<g id="Unaffected_By_Changes_to_Google_x27_s_Algorithms" class="st0">
	<g class="st1">
		<path class="st3" d="M0,54.49C0.62,53,1.72,52.25,3.34,52.3c0.36,0.01,0.52-0.15,0.49-0.51c-0.01-0.22-0.02-0.45,0-0.66
			c0.07-0.52-0.12-0.83-0.59-1.12c-1.16-0.71-1.63-2.05-1.25-3.31c0.37-1.24,1.58-2.15,2.85-2.15c1.25,0.01,2.44,0.89,2.82,2.1
			c0.4,1.27-0.05,2.58-1.17,3.35c-0.57,0.4-0.86,1.36-0.63,2.04c0.11,0.32,0.38,0.25,0.61,0.26c1.02,0.01,1.89,0.32,2.58,1.1
			c0.55,0.63,0.7,1.4,0.73,2.19c0.01,0.45,0.2,0.6,0.63,0.59c0.85-0.02,1.69-0.02,2.54,0c0.41,0.01,0.58-0.15,0.57-0.57
			c-0.02-1.01-0.01-2.02,0-3.03c0.01-0.71,0.41-1.2,0.99-1.23c0.59-0.03,1.08,0.42,1.09,1.13c0.03,1.55,0.04,3.11,0,4.66
			c-0.02,0.76-0.45,1.11-1.22,1.12c-1.33,0.01-2.66,0.01-3.99,0c-0.41,0-0.58,0.14-0.58,0.56c0.01,1.45-0.63,2.51-1.93,3.16
			c-2.02,0-4.04,0-6.05,0C0.94,61.55,0.33,60.87,0,59.94C0,58.13,0,56.31,0,54.49z M4.87,60.05c0.63,0,1.25,0.01,1.88,0
			c0.61-0.02,0.94-0.32,0.95-0.94c0.02-1.25,0.02-2.5,0-3.75c-0.01-0.63-0.36-0.95-1.01-0.95c-1.21-0.01-2.42-0.01-3.63,0
			c-0.66,0.01-1.03,0.29-1.05,0.92c-0.04,1.27-0.04,2.54,0,3.81c0.02,0.63,0.35,0.89,0.98,0.91C3.62,60.07,4.25,60.05,4.87,60.05z
			 M5.76,47.56c0.02-0.48-0.37-0.88-0.85-0.91c-0.51-0.03-0.89,0.31-0.93,0.82c-0.04,0.5,0.31,0.9,0.81,0.93
			C5.31,48.44,5.74,48.07,5.76,47.56z"/>
		<path class="st3" d="M62,7.87c-0.65,1.31-1.71,1.94-3.16,1.93c-0.41,0-0.59,0.16-0.56,0.58c0.02,0.22,0.02,0.45,0,0.66
			c-0.05,0.47,0.12,0.76,0.54,1.02c1.24,0.78,1.71,2.24,1.21,3.53c-0.52,1.34-1.81,2.09-3.23,1.89c-1.4-0.21-2.48-1.37-2.53-2.83
			c-0.03-1.13,0.48-2.02,1.44-2.63c0.41-0.26,0.69-1.68,0.39-2.06c-0.14-0.19-0.36-0.15-0.56-0.16c-0.96-0.05-1.82-0.3-2.48-1.06
			c-0.54-0.63-0.78-1.37-0.75-2.18c0.02-0.58-0.21-0.73-0.74-0.7c-0.8,0.04-1.61,0.02-2.42,0c-0.42-0.01-0.58,0.14-0.57,0.56
			c0.02,1.05,0.01,2.1,0,3.15c-0.01,0.56-0.23,0.99-0.81,1.12c-0.63,0.14-1.21-0.24-1.24-0.92c-0.05-1.65-0.05-3.31-0.01-4.96
			c0.02-0.65,0.46-0.97,1.16-0.97c1.35-0.01,2.7-0.01,4.05,0c0.42,0.01,0.58-0.14,0.57-0.56C52.27,1.68,53.03,0.6,54.49,0
			c1.82,0,3.63,0,5.45,0c0.94,0.32,1.61,0.94,2.06,1.82C62,3.83,62,5.85,62,7.87z M60.05,4.91C60.05,4.91,60.06,4.91,60.05,4.91
			c0-0.63,0.02-1.25,0-1.88c-0.02-0.69-0.3-1.02-0.99-1.04c-1.21-0.03-2.42-0.03-3.63,0c-0.71,0.02-1.02,0.37-1.03,1.08
			c-0.01,1.19-0.01,2.38,0,3.57c0.01,0.68,0.32,1.04,0.98,1.05c1.25,0.03,2.5,0.02,3.75,0c0.58-0.01,0.89-0.34,0.91-0.92
			C60.07,6.16,60.05,5.53,60.05,4.91z M58.11,14.56c0-0.53-0.33-0.86-0.87-0.86c-0.5,0-0.88,0.38-0.88,0.87
			c0,0.48,0.4,0.87,0.89,0.88C57.73,15.45,58.11,15.06,58.11,14.56z"/>
		<path class="st3" d="M33.78,57.32c-4.04,0-7.84-0.87-11.3-3.01c-0.27-0.17-0.55-0.35-0.79-0.56c-0.4-0.34-0.51-0.76-0.26-1.25
			c0.25-0.47,0.65-0.66,1.16-0.54c1.08,0.25,2.16,0.48,3.27,0.59c4.72,0.47,9.21-0.25,13.39-2.56c5.11-2.82,8.31-7.11,9.69-12.76
			c0.28-1.16,0.43-2.34,0.45-3.53c0.01-0.48-0.16-0.66-0.63-0.63c-0.36,0.02-0.73,0.01-1.09,0c-0.48-0.01-0.86-0.2-1.07-0.65
			c-0.22-0.45-0.05-0.83,0.24-1.17c1.33-1.57,2.67-3.13,4.01-4.69c0.54-0.63,1.07-1.27,1.63-1.88c0.62-0.68,1.23-0.65,1.84,0.05
			c1.84,2.14,3.67,4.29,5.51,6.44c0.32,0.38,0.51,0.78,0.28,1.27c-0.23,0.48-0.65,0.62-1.15,0.63c-0.36,0-0.73,0.02-1.09,0
			c-0.42-0.02-0.56,0.16-0.57,0.57c-0.05,2.56-0.41,5.07-1.21,7.5c-2.92,8.82-8.97,14.08-18.1,15.82c-0.49,0.09-0.99,0.16-1.49,0.23
			C35.6,57.3,34.69,57.34,33.78,57.32z M49.86,30.91c1.45,0.17,1.64,0.39,1.64,1.74c0,0.75-0.02,1.49-0.1,2.23
			c-0.61,6.14-3.32,11.16-8.16,14.97c-4.02,3.17-8.68,4.67-13.8,4.95c0.2,0.05,0.35,0.09,0.51,0.12c2.92,0.45,5.83,0.41,8.72-0.23
			c6.65-1.48,11.51-5.25,14.42-11.45c1.58-3.37,2.2-6.94,2.14-10.64c-0.02-1.24,0.24-1.51,1.46-1.66c0.03,0,0.05-0.06,0.1-0.13
			c-1.07-1.25-2.14-2.51-3.21-3.77c-0.17-0.2-0.29-0.13-0.44,0.04C52.07,28.34,50.99,29.59,49.86,30.91z"/>
		<path class="st3" d="M27.91,4.79c4.27-0.02,7.89,0.78,11.23,2.71c0.38,0.22,0.76,0.47,1.12,0.72c0.46,0.32,0.68,0.74,0.44,1.31
			c-0.22,0.51-0.67,0.73-1.3,0.57c-2.09-0.52-4.2-0.81-6.35-0.72c-5.78,0.25-10.91,2.13-14.98,6.37c-3.34,3.48-5.14,7.67-5.34,12.51
			c-0.03,0.76,0,0.78,0.76,0.78c0.34,0,0.69-0.01,1.03,0.01c0.44,0.02,0.78,0.21,0.97,0.62c0.19,0.41,0.11,0.79-0.18,1.13
			c-1.91,2.24-3.82,4.48-5.75,6.71c-0.51,0.59-1.17,0.57-1.67-0.02c-1.9-2.2-3.78-4.41-5.67-6.62c-0.32-0.37-0.42-0.78-0.2-1.23
			c0.21-0.43,0.59-0.56,1.04-0.59c0.56-0.04,1.25,0.25,1.63-0.14c0.35-0.36,0.1-1.04,0.14-1.58c0.45-5.9,2.38-11.19,6.5-15.53
			c3.61-3.8,8.11-5.9,13.24-6.72C25.82,4.85,27.09,4.75,27.91,4.79z M32.43,7.26c-0.11-0.03-0.22-0.06-0.34-0.07
			c-2.1-0.35-4.21-0.36-6.33-0.13c-2.82,0.31-5.51,1.05-8,2.41c-5.68,3.1-8.93,7.98-10.34,14.2c-0.45,2-0.53,4.03-0.59,6.07
			c-0.03,1.01-0.25,1.28-1.24,1.41c-0.07,0.01-0.14,0.04-0.21,0.05c0.01,0.07,0,0.12,0.02,0.14c1.03,1.22,2.06,2.43,3.08,3.65
			c0.21,0.25,0.37,0.16,0.54-0.04c0.97-1.13,1.94-2.27,2.91-3.4c0.23-0.27,0.21-0.38-0.18-0.43c-0.87-0.12-1.12-0.44-1.14-1.33
			c-0.02-1.31,0.03-2.62,0.24-3.92c0.74-4.7,2.78-8.75,6.19-12.06C21.3,9.68,26.51,7.67,32.43,7.26z"/>
		<path class="st3" d="M38.46,41.94c-0.31,0.02-0.6-0.05-0.89-0.14c-1.36-0.43-2.7,0.13-3.3,1.42c-0.5,1.08-1.44,1.4-2.52,1.47
			c-0.48,0.03-0.97,0.03-1.45,0c-1.23-0.07-2.14-0.56-2.62-1.78c-0.35-0.87-1.96-1.55-2.85-1.2c-1.21,0.47-2.2,0.18-3.1-0.67
			c-0.43-0.4-0.84-0.82-1.18-1.29c-0.54-0.75-0.63-1.54-0.32-2.41c0.44-1.18-0.16-2.67-1.31-3.21c-0.81-0.38-1.3-0.98-1.44-1.88
			c-0.12-0.76-0.11-1.53-0.03-2.29c0.11-0.94,0.61-1.58,1.48-1.99c1.11-0.52,1.73-2.02,1.32-3.16c-0.35-0.96-0.23-1.82,0.41-2.61
			c0.49-0.6,1.02-1.14,1.65-1.59c0.68-0.49,1.4-0.57,2.18-0.32c1.4,0.45,2.7-0.09,3.34-1.39c0.38-0.78,0.97-1.26,1.85-1.4
			c0.97-0.15,1.93-0.16,2.89,0.03c0.81,0.16,1.38,0.63,1.72,1.38c0.57,1.23,1.92,1.84,3.22,1.41c0.92-0.3,1.74-0.17,2.49,0.44
			c0.58,0.47,1.11,0.99,1.56,1.6c0.54,0.74,0.65,1.53,0.32,2.4c-0.45,1.19,0.14,2.67,1.3,3.21c0.84,0.39,1.32,1.01,1.46,1.93
			c0.11,0.7,0.11,1.41,0.03,2.11c-0.11,1.03-0.63,1.75-1.6,2.17c-1,0.44-1.65,2.02-1.24,3.04c0.43,1.06,0.22,1.96-0.49,2.81
			c-0.42,0.5-0.86,0.96-1.38,1.35C39.51,41.7,39.04,41.97,38.46,41.94z M42.57,31.05c0.17-0.72-0.13-1.11-0.79-1.47
			c-1.6-0.87-2.6-3.47-1.99-5.16c0.21-0.59,0.08-0.96-0.32-1.33c-0.16-0.15-0.32-0.31-0.47-0.47c-0.32-0.34-0.64-0.41-1.13-0.25
			c-1.7,0.58-4.34-0.38-5.12-1.94c-0.4-0.81-0.93-1.01-1.71-0.94c-0.18,0.02-0.36,0.02-0.54,0.01c-0.48-0.04-0.74,0.16-0.96,0.62
			c-0.78,1.69-3.45,2.87-5.2,2.28c-0.6-0.2-0.99-0.1-1.37,0.34c-0.16,0.18-0.33,0.35-0.5,0.52c-0.31,0.3-0.39,0.6-0.2,1.02
			c0.78,1.69-0.58,4.79-2.15,5.41c-0.48,0.19-0.64,0.49-0.6,0.97c0.02,0.22,0.02,0.45,0,0.67c-0.05,0.53,0.16,0.82,0.65,1.08
			c1.7,0.87,2.78,3.5,2.14,5.25c-0.2,0.55-0.11,0.92,0.28,1.28c0.19,0.18,0.38,0.37,0.56,0.55c0.29,0.3,0.59,0.38,1.03,0.23
			c1.9-0.64,4.49,0.45,5.39,2.23c0.08,0.16,0.16,0.34,0.28,0.46c0.26,0.25,2.12,0.26,2.41,0.02c0.1-0.09,0.2-0.21,0.24-0.34
			c0.54-1.7,3.74-3.13,5.54-2.34c0.29,0.13,0.54,0.1,0.78-0.13c0.25-0.24,0.5-0.47,0.74-0.71c0.37-0.36,0.43-0.74,0.25-1.25
			c-0.6-1.66,0.41-4.34,1.99-5.16C42.46,32.17,42.74,31.77,42.57,31.05z"/>
		<path class="st3" d="M43.81,12.66c-0.61-0.19-1.29-0.5-1.71-1.15c-0.24-0.38-0.14-0.79,0.15-1.12c0.29-0.33,0.67-0.45,1.09-0.28
			c0.47,0.19,0.9,0.47,1.27,0.8c0.33,0.29,0.42,0.68,0.25,1.1C44.7,12.42,44.39,12.64,43.81,12.66z"/>
		<path class="st3" d="M11.41,41.69c-0.04,0.53-0.26,0.87-0.71,1.03c-0.45,0.16-0.85,0.04-1.13-0.33c-0.31-0.42-0.54-0.9-0.68-1.4
			c-0.12-0.43,0.06-0.8,0.42-1.05c0.39-0.26,0.83-0.28,1.17,0.03C11.01,40.43,11.21,41.1,11.41,41.69z"/>
		<path class="st3" d="M48.28,14.26c-0.02,0.86-0.85,1.34-1.52,0.95c-0.44-0.25-0.81-0.6-1.11-1.01c-0.31-0.42-0.3-0.88,0.06-1.27
			c0.37-0.4,0.86-0.52,1.3-0.18C47.56,13.17,48.2,13.55,48.28,14.26z"/>
		<path class="st3" d="M12.05,43.47c0.29,0.02,0.56,0.13,0.75,0.35c0.27,0.33,0.54,0.66,0.76,1.01c0.3,0.48,0.18,1.03-0.24,1.35
			c-0.41,0.31-0.93,0.3-1.32-0.08c-0.36-0.35-0.68-0.75-0.88-1.22C10.83,44.24,11.35,43.48,12.05,43.47z"/>
		<path class="st3" d="M18.11,49.42c0.53-0.01,1.71,0.77,1.91,1.22c0.18,0.4,0.09,0.76-0.19,1.06c-0.29,0.32-0.66,0.47-1.09,0.29
			c-0.46-0.2-0.9-0.46-1.27-0.8c-0.33-0.3-0.41-0.69-0.25-1.11C17.4,49.67,17.73,49.47,18.11,49.42z"/>
		<path class="st3" d="M51.08,17.6c-0.04,0.38-0.21,0.72-0.59,0.89c-0.37,0.17-0.76,0.16-1.07-0.12c-0.39-0.35-0.71-0.77-0.93-1.24
			c-0.18-0.37-0.12-0.75,0.15-1.07c0.28-0.32,0.63-0.42,1.03-0.32C50.18,15.86,51.08,17.05,51.08,17.6z"/>
		<path class="st3" d="M16.63,48.48c0.01,0.79-0.78,1.28-1.48,0.9c-0.48-0.27-0.88-0.65-1.18-1.1c-0.42-0.64,0.06-1.5,0.82-1.54
			C15.45,46.7,16.62,47.82,16.63,48.48z"/>
		<path class="st3" d="M51.84,19.34c0.05,0.01,0.19,0.03,0.32,0.09c0.58,0.26,1.19,1.65,1,2.24c-0.23,0.71-1.21,0.9-1.72,0.31
			c-0.36-0.42-0.58-0.93-0.71-1.45C50.58,19.89,51.1,19.32,51.84,19.34z"/>
		<path class="st3" d="M5.85,57.27c-0.01,0.56-0.44,1-0.99,1c-0.57,0-1.03-0.47-1.02-1.05c0.01-0.54,0.47-1.01,1-1.01
			C5.42,56.21,5.86,56.68,5.85,57.27z"/>
		<path class="st3" d="M57.23,3.84c0.58-0.01,1.05,0.45,1.04,1.02c-0.01,0.55-0.44,0.98-1,0.99c-0.57,0.01-1.02-0.4-1.04-0.95
			C56.2,4.33,56.65,3.85,57.23,3.84z"/>
		<path class="st3" d="M31.08,25.16c3.22,0.01,5.9,2.72,5.88,5.93c-0.03,3.18-2.73,5.86-5.9,5.86c-3.22,0-5.9-2.69-5.9-5.92
			C25.16,27.81,27.84,25.15,31.08,25.16z M27.26,31.06c0.01,2.14,1.66,3.79,3.8,3.78c2.12,0,3.79-1.68,3.78-3.81
			c0-2.13-1.67-3.78-3.81-3.77C28.89,27.27,27.26,28.91,27.26,31.06z"/>
	</g>
</g>
<g id="Facilitates_Brand_Development" class="st0">
	<g class="st1">
		<defs>
			<rect id="SVGID_3_" x="0" width="62" height="62"/>
		</defs>
		<clipPath id="SVGID_4_">
			<use xlink:href="#SVGID_3_"  style="overflow:visible;"/>
		</clipPath>
		<g class="st4">
			<path class="st3" d="M0,57.76c0.37-0.4,0.82-0.53,1.36-0.52c0.99,0.02,1.98-0.02,2.97,0.02c0.54,0.02,0.73-0.14,0.73-0.71
				c-0.03-3.01-0.01-6.01-0.01-9.02c0-1.6,0.85-2.48,2.45-2.49c1.98-0.02,3.96-0.02,5.93,0c1.57,0.01,2.46,0.93,2.46,2.51
				c0,2.99,0.01,5.97-0.01,8.96c0,0.58,0.16,0.81,0.75,0.76c0.5-0.04,1.01-0.03,1.51,0c0.45,0.02,0.6-0.15,0.59-0.6
				c-0.02-1.41,0-2.83-0.01-4.24c0-0.46,0.11-0.84,0.55-1.06c0.59-0.29,1.22,0.04,1.37,0.73c0.12,0.56,0.05,1.13,0.05,1.69
				c0.01,0.95,0.01,1.9,0,2.85c-0.01,0.42,0.11,0.63,0.58,0.63c1.92-0.02,3.83-0.01,5.75,0c0.42,0,0.57-0.15,0.57-0.57
				c-0.01-5.25-0.01-10.49,0-15.74c0-0.4-0.15-0.59-0.57-0.58c-1.92,0.01-3.83,0.01-5.75,0c-0.53,0-0.57,0.31-0.57,0.71
				c0,2.28,0,4.56,0,6.84c0,0.3-0.01,0.61-0.09,0.9c-0.13,0.48-0.47,0.76-0.98,0.72c-0.5-0.04-0.82-0.35-0.88-0.85
				c-0.04-0.36-0.02-0.73-0.02-1.09c0-2.24,0-4.48,0-6.72c0-1.56,0.84-2.41,2.37-2.42c2.04-0.01,4.08-0.01,6.11,0
				c1.49,0.01,2.36,0.87,2.36,2.38c0,5.19,0,10.37,0,15.56c0,0.85,0,0.85,0.87,0.85c0.48,0,0.97-0.01,1.45,0
				c0.35,0.01,0.54-0.12,0.51-0.49c-0.01-0.18,0-0.36,0-0.54c0-7.26,0-14.53,0-21.79c0-1.81,0.81-2.61,2.63-2.61
				c1.94,0,3.87,0,5.81,0c1.53,0,2.4,0.88,2.4,2.41c0,7.39,0,14.77,0,22.16c0,0.87,0,0.87,0.85,0.87c0.5,0,1.01-0.01,1.51,0
				c0.33,0.01,0.49-0.13,0.47-0.47c-0.01-0.2,0-0.4,0-0.61c0-9.42,0-18.85,0-28.27c0-1.91,0.82-2.74,2.72-2.74
				c1.88,0,3.75-0.01,5.63,0c1.64,0.01,2.5,0.87,2.5,2.5c0,2.91,0,5.81,0,8.72c0,0.37-0.02,0.73-0.33,1
				c-0.28,0.24-0.61,0.3-0.96,0.17c-0.35-0.13-0.58-0.38-0.6-0.76c-0.03-0.46-0.02-0.93-0.02-1.39c0-2.48,0-4.96,0-7.45
				c0-0.76-0.04-0.8-0.78-0.8c-1.82,0-3.63,0.02-5.45-0.01c-0.55-0.01-0.74,0.18-0.74,0.73c0.01,9.57,0.01,19.13,0,28.7
				c0,0.53,0.17,0.7,0.7,0.69c1.86-0.03,3.71-0.03,5.57,0c0.58,0.01,0.71-0.2,0.71-0.74c-0.02-5.21-0.01-10.41-0.01-15.62
				c0-0.22-0.01-0.45,0.01-0.67c0.05-0.53,0.46-0.92,0.95-0.91c0.5,0.01,0.89,0.4,0.94,0.93c0.02,0.2,0.01,0.4,0.01,0.61
				c0,5.19,0,10.37,0,15.56c0,0.82,0,0.82,0.84,0.82c0.95,0,1.9,0.02,2.85-0.01c0.54-0.01,0.99,0.11,1.36,0.52c0,0.32,0,0.65,0,0.97
				c-0.37,0.4-0.83,0.51-1.36,0.51c-19.76-0.01-39.51-0.01-59.27,0c-0.54,0-0.99-0.12-1.36-0.51C0,58.41,0,58.08,0,57.76z
				 M41.29,45.59c0-3.69-0.01-7.38,0.01-11.07c0-0.55-0.17-0.75-0.73-0.74c-1.83,0.03-3.67,0.02-5.51,0
				c-0.49-0.01-0.67,0.17-0.67,0.67c0.01,7.38,0.01,14.76,0,22.14c0,0.5,0.17,0.67,0.67,0.66c1.77-0.02,3.55-0.01,5.32-0.01
				c0.91,0,0.91,0,0.91-0.89C41.29,52.77,41.29,49.18,41.29,45.59z M13.91,52.17c0-1.47-0.02-2.95,0.01-4.42
				c0.01-0.53-0.14-0.76-0.72-0.75c-1.83,0.03-3.67,0.03-5.51,0C7.14,47,6.94,47.18,6.94,47.74c0.02,2.96,0.02,5.93,0,8.89
				c0,0.48,0.16,0.63,0.63,0.63c1.9-0.02,3.79-0.02,5.69,0c0.51,0.01,0.66-0.18,0.65-0.67C13.89,55.12,13.91,53.64,13.91,52.17z"/>
			<path class="st3" d="M9.66,32.22c0.44,0.19,0.88,0.1,1.3,0.06c6.74-0.65,13.23-2.23,19.35-5.21c5.78-2.82,10.74-6.68,14.82-11.66
				c0.49-0.59,0.94-1.21,1.42-1.81c0.48-0.61,0.92-0.69,1.57-0.26c0.59,0.39,1.16,0.79,1.75,1.19c0.2-0.23,0.12-0.46,0.1-0.66
				c-0.27-2.73-0.56-5.45-0.82-8.18c-0.04-0.41-0.23-0.39-0.52-0.31c-2.83,0.74-5.66,1.47-8.48,2.21c-0.05,0.25,0.15,0.29,0.26,0.38
				c0.44,0.32,0.9,0.62,1.34,0.94c0.73,0.52,0.82,0.93,0.37,1.7c-0.8,1.39-1.78,2.64-2.83,3.85c-0.61,0.7-1.25,1.37-1.9,2.04
				c-0.58,0.6-1.13,0.65-1.57,0.19c-0.4-0.42-0.33-1.01,0.19-1.54c1.34-1.38,2.59-2.82,3.71-4.38c0.36-0.5,0.27-0.73-0.21-1.03
				c-0.77-0.48-1.5-1.03-2.24-1.54c-0.38-0.27-0.69-0.58-0.58-1.1c0.11-0.49,0.45-0.72,0.92-0.84c3.94-1.02,7.88-2.06,11.83-3.08
				c0.93-0.24,1.41,0.08,1.52,1.08c0.24,2.16,0.44,4.33,0.65,6.5c0.18,1.84,0.36,3.69,0.56,5.53c0.05,0.5,0.01,0.94-0.45,1.22
				c-0.46,0.29-0.88,0.15-1.29-0.15c-0.74-0.53-1.5-1.02-2.23-1.57c-0.4-0.3-0.63-0.31-0.97,0.12c-4.36,5.56-9.74,9.85-16.08,12.94
				c-5.3,2.59-10.9,4.2-16.74,5.02c-1.44,0.2-2.88,0.39-4.33,0.46c-1.41,0.07-2.26-0.57-2.47-1.78c-0.19-1.08,0.49-2.02,1.8-2.42
				c3.8-1.19,7.5-2.61,11.1-4.33c4.42-2.12,8.57-4.67,12.36-7.8c0.12-0.1,0.25-0.21,0.38-0.3c0.44-0.28,1.02-0.21,1.31,0.19
				c0.32,0.43,0.32,0.9-0.07,1.26c-0.56,0.52-1.16,1-1.77,1.47c-5.7,4.42-12.06,7.61-18.82,10.06c-1.19,0.43-2.41,0.81-3.61,1.22
				C10.08,31.94,9.82,31.93,9.66,32.22z"/>
		</g>
	</g>
</g>
<g id="Gains_Rapid_Market_Entry" class="st0">
	<g class="st1">
		<path class="st3" d="M41.94,47.89c-0.78,1.62-1.73,2.21-3.38,2.09c-0.37-0.02-0.51,0.05-0.58,0.42c-0.17,0.98-0.38,1.96-0.58,2.93
			C37.07,55.03,35.92,56,34.22,56c-8.13,0-16.26,0-24.39,0c-1.7,0-2.86-0.97-3.19-2.65c-0.19-0.96-0.39-1.91-0.56-2.87
			c-0.07-0.41-0.21-0.53-0.65-0.49c-1.47,0.13-2.61-0.53-3.16-1.74c-0.58-1.27-0.32-2.82,0.84-3.59c1.13-0.75,1.2-1.53,0.8-2.71
			c-0.59-1.73-1.02-3.51-1.49-5.28C2.3,36.28,2.17,36.05,1.69,36c-0.94-0.1-1.64-0.94-1.67-1.89C0,33.38,0,32.65,0.02,31.92
			c0.03-1.11,0.84-1.92,1.94-1.96c0.46-0.02,0.92-0.04,1.37,0c0.58,0.05,0.69-0.21,0.68-0.73C3.99,26.47,4,23.71,4,20.94
			c0-0.96,0-0.96,0.94-0.96c2.79,0,5.57,0.01,8.36-0.01c0.59-0.01,0.79,0.16,0.78,0.77c-0.03,2.83,0,5.66-0.02,8.48
			c0,0.56,0.13,0.78,0.73,0.75c1.37-0.05,1.19,0.14,1.19-1.21c0.01-3.99,0.02-7.99-0.01-11.98c0-0.63,0.17-0.82,0.81-0.81
			c2.85,0.03,5.7,0.03,8.55,0c0.58-0.01,0.74,0.18,0.74,0.75c-0.02,4.16,0,8.32-0.02,12.48c0,0.6,0.16,0.8,0.77,0.77
			c1.29-0.05,1.15,0.12,1.15-1.13c0-5.34,0-10.69,0-16.03c0-0.82,0-0.82,0.83-0.82c2.81,0,5.61,0,8.42,0c0.81,0,0.81,0,0.81,0.84
			c0,0.5,0,1,0,1.5c0,0.14-0.06,0.32,0.07,0.41c0.18,0.12,0.31-0.07,0.43-0.16c1.76-1.2,3.69-1.97,5.78-2.38
			c7.92-1.53,15.96,3.97,17.41,11.92c1.39,7.6-2.81,14.72-10.15,17.18c-0.43,0.14-0.6,0.34-0.58,0.79c0.02,0.7,0.09,1.42-0.23,2.09
			c-0.1,0.21,0.02,0.34,0.17,0.47c0.78,0.67,1.08,1.53,1.07,2.55c-0.02,3.24,0,6.49-0.01,9.73c-0.01,2.62-1.94,4.81-4.43,5.05
			c-2.73,0.25-5.04-1.44-5.57-4.1c-0.07-0.34-0.07-0.7-0.07-1.05C41.94,53.89,41.94,50.96,41.94,47.89z M25.06,49.04
			c0,1.21-0.01,2.41,0,3.62c0.02,1.43-0.24,1.24,1.31,1.27c0.47,0.01,0.61-0.17,0.6-0.62c-0.02-1.41-0.01-2.83-0.01-4.24
			c0.01-1.82,1.27-3.12,3.01-3.13c1.78-0.01,3.06,1.29,3.07,3.14c0.01,1.41,0,2.83,0,4.24c0,0.22-0.07,0.47,0.22,0.59
			c0.89,0.36,1.87-0.15,2.06-1.09c0.23-1.18,0.45-2.37,0.71-3.54c0.1-0.46,0.01-0.77-0.37-1.08c-3.72-3-7.45-6-11.11-9.07
			c-0.95-0.79-1.88-1.28-3.13-1.12c-0.34,0.04-0.63,0.09-0.91,0.31c-4.06,3.31-8.12,6.62-12.19,9.92c-0.35,0.28-0.42,0.57-0.33,0.97
			c0.24,1.12,0.45,2.24,0.68,3.36c0.24,1.2,0.44,1.34,1.66,1.36c0.53,0.01,0.68-0.18,0.67-0.68c-0.03-1.43-0.02-2.87-0.01-4.3
			c0.02-1.71,1.31-3,3-3.01c1.73-0.01,3.05,1.28,3.07,3.01c0.01,1.27,0,2.54,0.01,3.8c0.01,1.31-0.16,1.13,1.16,1.18
			c0.62,0.03,0.77-0.19,0.76-0.78c-0.03-2.72-0.02-5.45-0.01-8.17c0.01-1.75,1.31-3.04,3.04-3.04c1.72,0,3.02,1.29,3.04,3.04
			C25.06,46.33,25.06,47.69,25.06,49.04z M46.95,14.08c-7.24,0.15-12.88,5.75-12.88,12.94c0.01,7.22,5.7,12.89,12.9,12.89
			c7.28,0,12.94-5.76,12.91-12.95C59.84,19.65,54.07,14.18,46.95,14.08z M44.02,52.07c0,1.5,0,2.99,0,4.49c0,0.02,0,0.04,0,0.06
			c0.01,0.63,0.1,1.24,0.42,1.8c0.65,1.14,1.95,1.68,3.26,1.36c1.3-0.31,2.2-1.46,2.21-2.96c0.03-3.18,0.01-6.36,0.01-9.53
			c0-0.88-0.38-1.25-1.26-1.26c-1.04-0.01-2.08-0.01-3.12,0c-1.21,0-1.52,0.31-1.53,1.5C44.02,49.04,44.02,50.55,44.02,52.07z
			 M18.07,29.84c1.61-1.71,3.4-2.25,5.5-1.64c0.47,0.14,0.4-0.18,0.4-0.45c0-3.01-0.01-6.02,0.01-9.03c0-0.54-0.19-0.67-0.69-0.66
			c-1.47,0.03-2.95,0.04-4.42,0c-0.62-0.02-0.82,0.15-0.81,0.79c0.03,3.41,0.01,6.81,0.01,10.22
			C18.07,29.27,18.07,29.47,18.07,29.84z M30.05,21.97c0,2.16,0,4.32,0,6.48c0,1.52,0,1.51,1.51,1.51c0.46,0,0.65-0.06,0.57-0.62
			c-0.59-4.11,0.23-7.93,2.8-11.22c0.84-1.08,1.13-2.12,1.04-3.41c-0.03-0.47-0.13-0.66-0.64-0.65c-1.54,0.03-3.08,0.03-4.61,0
			c-0.52-0.01-0.68,0.16-0.68,0.68C30.06,17.15,30.05,19.56,30.05,21.97z M6.09,25.97c0,1.12,0.01,2.25-0.01,3.37
			c-0.01,0.44,0.11,0.64,0.59,0.63c1.58-0.02,3.16-0.02,4.74,0c0.43,0,0.59-0.14,0.58-0.57c-0.02-2.25-0.02-4.49,0-6.74
			c0-0.48-0.17-0.61-0.62-0.6c-1.56,0.02-3.12,0.02-4.68,0c-0.46-0.01-0.63,0.14-0.62,0.61C6.11,23.76,6.09,24.87,6.09,25.97z
			 M39.91,47c-0.01-0.44-0.3-0.7-0.61-0.96c-3.98-3.24-7.96-6.48-11.93-9.72c-0.89-0.73-0.89-0.73-1.65,0.08
			c-0.01,0.02-0.03,0.03-0.04,0.04c-0.54,0.36-0.34,0.62,0.07,0.95c3.22,2.6,6.41,5.22,9.62,7.83c0.98,0.8,1.97,1.59,2.95,2.39
			c0.34,0.28,0.73,0.31,1.11,0.14C39.74,47.62,39.87,47.32,39.91,47z M5.09,47.85c0.41,0.05,0.7-0.29,1.01-0.55
			c3.98-3.24,7.96-6.48,11.94-9.71c0.76-0.62,0.76-0.61,0.12-1.37c-0.05-0.06-0.12-0.12-0.15-0.19c-0.23-0.46-0.46-0.42-0.85-0.1
			c-3.42,2.81-6.86,5.59-10.29,8.39c-0.79,0.64-1.58,1.28-2.36,1.94c-0.33,0.27-0.48,0.62-0.31,1.05
			C4.35,47.67,4.63,47.84,5.09,47.85z M9.6,32.04c-2.08,0-4.15-0.01-6.23,0c-1.45,0.01-1.26-0.26-1.28,1.35
			c-0.01,0.39,0.12,0.56,0.53,0.56c4.4-0.01,8.8-0.01,13.2,0c0.5,0,0.84-0.3,1.07-0.65c0.42-0.62,0.04-1.26-0.7-1.26
			C14,32.04,11.8,32.04,9.6,32.04z M13.47,36.17c-0.01-0.04-0.02-0.09-0.03-0.13c-2.86,0-5.71,0-8.57,0c-0.42,0-0.36,0.24-0.28,0.5
			c0.47,1.7,0.95,3.39,1.41,5.09c0.09,0.33,0.19,0.48,0.53,0.2C8.84,39.94,11.16,38.06,13.47,36.17z M21.99,35.94
			c1.57,0.03,2.95-1.34,2.97-2.93c0.01-1.56-1.29-2.89-2.88-2.95c-1.56-0.06-2.95,1.29-3,2.9C19.03,34.52,20.39,35.91,21.99,35.94z
			 M30.41,36.04c0.77,0.63,1.39,1.14,2.01,1.65c1.66,1.35,3.32,2.7,4.96,4.06c0.4,0.34,0.57,0.27,0.68-0.23
			c0.12-0.53,0.26-1.05,0.43-1.56c0.11-0.34,0-0.55-0.27-0.74c-1.14-0.81-2.13-1.79-3.01-2.87c-0.17-0.21-0.36-0.32-0.63-0.32
			C33.26,36.04,31.93,36.04,30.41,36.04z M22.97,49.31c0-1.27,0-2.53,0-3.8c0-0.96-0.35-1.48-0.98-1.46
			c-0.61,0.02-0.93,0.51-0.93,1.44c0,2.39-0.01,4.78,0,7.16c0.01,1.42-0.21,1.22,1.26,1.27c0.54,0.02,0.67-0.19,0.66-0.69
			C22.95,51.93,22.97,50.62,22.97,49.31z M30.61,33.95c0.5,0,0.99,0,1.49,0c1.49,0,1.48,0.01,0.93-1.38
			c-0.17-0.43-0.41-0.54-0.84-0.54c-1.45,0.02-2.9,0-4.35,0.01c-0.25,0-0.62-0.14-0.73,0.16c-0.14,0.36-0.18,0.81,0.05,1.13
			c0.25,0.34,0.58,0.63,1.09,0.62C29.04,33.93,29.83,33.95,30.61,33.95z M41.95,46.2c0.23-0.42,0.36-0.7,0.52-0.96
			c0.47-0.72,0.39-1.07,0.52-1.9c0.24-1.6-0.53-2.24-1.91-2.52c-0.02,0-0.04-0.02-0.06-0.03c-0.35-0.18-0.53-0.07-0.62,0.3
			c-0.17,0.66-0.34,1.33-0.55,1.98c-0.13,0.4-0.03,0.66,0.3,0.91C40.88,44.56,41.66,45.1,41.95,46.2z M14.99,51.31
			c0,0-0.01,0-0.01,0c0-0.77,0.03-1.54-0.01-2.3c-0.03-0.58-0.48-1-0.96-0.95c-0.55,0.05-0.84,0.41-0.91,0.95
			c-0.02,0.16-0.01,0.33-0.01,0.5c0,1.04-0.01,2.08,0,3.11c0.02,1.48-0.29,1.29,1.39,1.32c0.42,0.01,0.54-0.18,0.52-0.56
			C14.97,52.68,14.99,51.99,14.99,51.31z M30.96,51.34C30.95,51.34,30.95,51.34,30.96,51.34c-0.01-0.77,0.02-1.54-0.02-2.3
			c-0.03-0.59-0.44-0.99-0.93-0.99c-0.49-0.01-0.88,0.39-0.95,0.98c-0.02,0.16-0.01,0.33-0.01,0.5c0,1.02-0.01,2.03,0,3.05
			c0.03,1.53-0.31,1.33,1.41,1.35c0.39,0.01,0.51-0.16,0.5-0.53C30.95,52.71,30.96,52.03,30.96,51.34z M46.93,43.94
			c0.25,0,0.5,0.01,0.75,0c0.97-0.03,1.53-0.84,1.24-1.78c-0.07-0.22-0.2-0.23-0.38-0.21c-1.03,0.11-2.07,0.11-3.11,0
			c-0.21-0.02-0.35-0.02-0.41,0.24c-0.24,1.04,0.28,1.72,1.35,1.74C46.56,43.94,46.74,43.94,46.93,43.94z"/>
		<path class="st3" d="M30.37,2.1c-1.28,0-2.48-0.03-3.68,0.01c-0.58,0.02-0.76-0.18-0.74-0.75c0.05-1.55-0.16-1.34,1.31-1.34
			c2-0.01,3.99,0.02,5.99-0.01c0.58-0.01,0.8,0.14,0.79,0.76c-0.03,2.2-0.03,4.41,0,6.61c0.01,0.53-0.14,0.74-0.7,0.72
			c-1.63-0.05-1.37,0.18-1.39-1.4c-0.01-0.97,0-1.95,0-2.98C31.67,3.8,31.55,4,31.4,4.15c-3.27,3.26-6.53,6.53-9.8,9.79
			c-0.58,0.58-0.58,0.58-1.16,0.01c-1.63-1.63-3.28-3.25-4.89-4.91c-0.43-0.45-0.66-0.39-1.07,0.02c-3.06,3.09-6.15,6.15-9.2,9.24
			c-0.43,0.44-0.68,0.42-1.08-0.01c-0.93-0.98-0.95-0.96,0-1.91c3.43-3.43,6.86-6.84,10.27-10.29c0.46-0.46,0.71-0.43,1.14,0.01
			c1.65,1.7,3.35,3.36,5.02,5.04c0.26,0.26,0.43,0.37,0.75,0.05c2.93-2.95,5.88-5.89,8.82-8.83C30.24,2.32,30.28,2.24,30.37,2.1z"/>
		<path class="st3" d="M46.97,38.03c-6.14,0-11.03-4.91-11.02-11.08c0.01-6.1,4.92-10.98,11.06-10.97C53.12,15.99,58,20.9,58,27.03
			C58,33.14,53.09,38.04,46.97,38.03z M46.97,35.95c5.02-0.13,8.92-3.9,8.91-8.95c0-5-3.84-8.87-8.87-8.9
			c-4.99-0.02-8.93,3.82-8.94,8.89C38.05,32.02,41.93,35.81,46.97,35.95z"/>
		<path class="st3" d="M40.93,28.05c-0.99,0-0.99,0-0.99-1.1c0-0.99,0-0.99,1.1-0.99c0.99,0,0.99,0,0.99,1.1
			C42.03,28.05,42.03,28.05,40.93,28.05z"/>
		<path class="st3" d="M46.02,27.04c0,1.01,0,1.01-1.08,1.01c-1.13,0-1,0.08-1.01-1.14c-0.01-0.95,0-0.95,1.14-0.95
			C46.02,25.97,46.02,25.97,46.02,27.04z"/>
		<path class="st3" d="M48.93,28.05c-1,0-1,0-1-1.08c0-1,0-1,1.08-1c1,0,1,0,1,1.15C50.01,28.05,50.01,28.05,48.93,28.05z"/>
		<path class="st3" d="M51.92,26.95c0-0.99,0-0.99,1.1-0.99c0.99,0,0.99,0,0.99,1.1c0,0.99,0,0.99-1.1,0.99
			C51.92,28.05,51.92,28.05,51.92,26.95z"/>
	</g>
</g>
<g id="Provides_Controlled_Budgets" class="st0">
	<g class="st1">
		<path class="st3" d="M0.02,33.94c0-8.08,0-16.15,0-24.23c0-1.69,0.77-2.43,2.5-2.43c0.02,0,0.04,0,0.06,0
			c1.23,0,1.08,0.09,1.09-1.05C3.7,4.92,4.55,4.09,5.9,4.08c0.48-0.01,0.97-0.01,1.45,0c0.35,0.01,0.5-0.13,0.49-0.47
			c-0.01-0.47-0.01-0.95,0-1.42c0.01-1.35,0.86-2.18,2.25-2.18c7.31,0,14.62,0,21.93,0c1.41,0,2.81,0.02,4.22-0.01
			c0.75-0.01,1.34,0.24,1.85,0.76c3.07,3.09,6.15,6.18,9.24,9.27c0.48,0.48,0.69,1.04,0.69,1.72c-0.01,4.97-0.01,9.95-0.01,14.92
			c0,0.83,0,0.83,0.87,0.83c3.05,0,6.09,0,9.14,0c2.34,0,3.98,1.59,3.98,3.86c0,8.92,0,17.84,0,26.75c0,2.28-1.64,3.86-3.98,3.87
			C51.3,62,44.58,61.99,37.85,62c-1.13,0-2.11-0.3-2.91-1.1c-0.3-0.3-0.64-0.26-0.99-0.26c-7.81,0-15.63,0-23.44,0
			c-2.6,0-5.21-0.06-7.81,0.02c-1.69,0.05-2.72-0.88-2.7-2.68C0.06,49.97,0.02,41.95,0.02,33.94z M9.44,26.75
			c0,8.05,0,16.11,0,24.16c0,0.84,0.16,1.01,0.96,1.01c7.58,0,15.16,0,22.75,0.01c0.55,0,0.67-0.2,0.66-0.69
			c-0.02-1.75-0.03-3.49,0-5.24c0.01-0.51-0.16-0.68-0.68-0.67c-1.47,0.03-2.94,0.02-4.41,0c-0.63-0.01-1.03-0.39-0.93-0.89
			c0.1-0.52,0.48-0.67,0.98-0.67c1.49,0.01,2.98,0,4.47,0c0.33,0,0.57-0.04,0.57-0.46c-0.01-1.36-0.01-2.71,0-4.07
			c0-0.23-0.03-0.28-0.32-0.26c-1.05,0.06-2.1,0.06-3.15,0.05c-0.47,0-0.75-0.31-0.76-0.75c-0.01-0.47,0.28-0.78,0.78-0.79
			c0.99-0.02,1.98-0.08,2.96,0.03c0.51,0.06,0.49-0.1,0.49-0.45c-0.01-1.89-0.01-3.78,0-5.67c0.01-2.33,1.62-3.91,3.99-3.91
			c2.65-0.01,5.29-0.01,7.94,0.01c0.46,0,0.68-0.08,0.68-0.61c-0.02-4.79-0.02-9.57,0-14.36c0-0.51-0.19-0.63-0.67-0.62
			c-1.51,0.02-3.02,0.02-4.54,0c-2.86-0.03-5.24-2.36-5.26-5.17c-0.01-1.46,0-2.92,0-4.38c0-0.81,0-0.81-0.83-0.81
			c-8.15,0-16.3,0-24.45,0c-1.12,0-1.23,0.1-1.23,1.2C9.44,10.76,9.44,18.76,9.44,26.75z M48.01,39.06c-3.95,0-7.9,0.01-11.85-0.01
			c-0.54,0-0.77,0.1-0.77,0.71c0.02,6.02,0.01,12.04,0.02,18.06c0,1.66,0.96,2.6,2.66,2.61c6.6,0.01,13.19,0.01,19.79,0
			c1.76,0,2.67-0.9,2.67-2.64c0.01-6,0-12,0.01-18c0-0.56-0.15-0.74-0.74-0.74C55.86,39.07,51.94,39.06,48.01,39.06z M5.28,30.68
			c0,7.93,0,15.86,0,23.79c0,1.15,0.12,1.27,1.3,1.27c8.61,0,17.22,0,25.83,0c1.4,0,1.4,0,1.39-1.37c0-0.89,0-0.89-0.94-0.89
			c-7.54,0-15.08,0-22.62,0c-0.47,0-0.92-0.01-1.34-0.25c-0.81-0.47-1.07-1.18-1.07-2.08C7.84,36.38,7.84,21.61,7.84,6.84
			c0-1.37,0.18-1.19-1.25-1.2c-1.23-0.01-1.3,0.07-1.3,1.31C5.28,14.86,5.28,22.77,5.28,30.68z M1.63,33.96c0,7.95,0,15.9,0,23.86
			c0,1.15,0.12,1.26,1.31,1.26c10,0,20,0,29.99,0c0.17,0,0.34,0,0.5,0c0.13,0,0.29-0.01,0.32-0.14c0.11-0.46,0.12-0.95,0-1.4
			c-0.11-0.39-0.54-0.21-0.83-0.21c-8.91-0.01-17.81-0.01-26.72,0c-0.53,0-1.05-0.03-1.51-0.33c-0.78-0.51-1.02-1.23-1.02-2.12
			c0.01-15,0.01-30,0.01-45c0-0.21,0-0.41,0-0.62c0-0.18-0.05-0.31-0.25-0.38c-1.1-0.37-1.8,0.1-1.8,1.24
			C1.63,18.05,1.63,26,1.63,33.96z M47.97,37.49c3.95,0,7.9-0.01,11.85,0.01c0.54,0,0.74-0.14,0.72-0.69
			c-0.03-1.7-0.01-3.41-0.01-5.12c-0.01-1.73-0.92-2.62-2.69-2.62c-6.57,0-13.15,0-19.72,0c-1.75,0-2.7,0.93-2.7,2.62
			c-0.01,1.68,0.02,3.37-0.02,5.05c-0.01,0.61,0.2,0.75,0.79,0.75C40.11,37.48,44.04,37.49,47.97,37.49z M37.56,2.54
			c0,1.52-0.07,2.86,0.02,4.18c0.12,1.81,1.25,3.16,2.86,3.49c1.55,0.32,3.12,0.1,4.88,0.17C42.68,7.71,40.18,5.19,37.56,2.54z"/>
		<path class="st3" d="M39.09,18.32c0.03,5.98-4.96,10.96-11.01,10.99c-6.33,0.03-11.4-4.77-11.42-10.82
			c-0.02-6.2,4.86-11.05,11.18-11.13C33.97,7.3,39.06,12.26,39.09,18.32z M27.34,27.67c0.21,0.02,0.42,0.05,0.63,0.05
			c4.61-0.08,8.44-3.22,9.32-7.64c0.13-0.67,0.08-0.75-0.63-0.75c-2.81,0-5.63-0.01-8.44,0.01c-0.6,0-0.97-0.21-1.3-0.68
			c-1.62-2.35-3.27-4.68-4.89-7.03c-0.23-0.33-0.38-0.41-0.7-0.1c-2.44,2.33-3.4,5.17-2.85,8.42C19.26,24.73,23.5,27.6,27.34,27.67z
			 M27.95,8.96C26.43,9,24.99,9.31,23.62,9.95c-0.4,0.19-0.54,0.38-0.24,0.79c1.42,2.01,2.82,4.03,4.22,6.05
			c0.21,0.31,0.37,0.31,0.63,0.06c1.8-1.78,3.61-3.55,5.43-5.31c0.32-0.31,0.25-0.48-0.08-0.72C31.89,9.62,30.01,9.04,27.95,8.96z
			 M29.78,17.58c0.04,0.06,0.07,0.12,0.11,0.18c2.39,0,4.77,0,7.16,0c0.36,0,0.34-0.22,0.31-0.46c-0.16-1.65-0.78-3.13-1.76-4.48
			c-0.31-0.43-0.53-0.38-0.87-0.04c-0.98,0.99-1.98,1.95-2.98,2.92C31.1,16.34,30.44,16.96,29.78,17.58z"/>
		<path class="st3" d="M13.09,14.06c0,1.54,0,3.08,0,4.62c0,0.69-0.27,1.02-0.8,1.02c-0.53,0-0.79-0.33-0.79-1.03c0-3.1,0-6.2,0-9.3
			c0-0.67,0.29-1.04,0.8-1.04c0.5,0,0.79,0.37,0.8,1.04C13.1,10.94,13.09,12.5,13.09,14.06z"/>
		<path class="st3" d="M22.82,39.06c-1.24,0-2.48,0.01-3.72,0c-0.63,0-1-0.3-1-0.78c0-0.48,0.37-0.78,1-0.78c2.5-0.01,5-0.01,7.49,0
			c0.66,0,0.98,0.27,0.98,0.78c0,0.51-0.32,0.78-0.98,0.78C25.34,39.06,24.08,39.06,22.82,39.06z"/>
		<path class="st3" d="M23.61,45.35c-0.63,0-1.26,0.01-1.88,0c-0.62-0.01-1.02-0.32-0.97-0.79c0.05-0.54,0.4-0.77,0.94-0.77
			c1.28,0.01,2.55,0,3.83,0c0.53,0,0.9,0.2,0.93,0.77c0.02,0.5-0.32,0.78-0.96,0.8C24.86,45.35,24.24,45.35,23.61,45.35z"/>
		<path class="st3" d="M16.96,43.78c0.52,0,1.05-0.01,1.57,0c0.52,0.01,0.85,0.25,0.85,0.78c0,0.53-0.34,0.77-0.85,0.78
			c-1.05,0.01-2.1,0.01-3.15,0c-0.52,0-0.85-0.25-0.85-0.78c0-0.53,0.34-0.77,0.85-0.78C15.91,43.78,16.44,43.78,16.96,43.78z"/>
		<path class="st3" d="M15.71,39.06c-0.33-0.01-0.68,0.04-0.95-0.22c-0.31-0.3-0.32-0.81-0.01-1.11c0.33-0.33,1.55-0.34,1.89-0.01
			c0.31,0.29,0.31,0.81,0.01,1.11C16.39,39.09,16.04,39.05,15.71,39.06z"/>
		<path class="st3" d="M13.09,6.1c0,0.57-0.29,0.91-0.78,0.92c-0.51,0.01-0.82-0.34-0.82-0.94c0-0.57,0.29-0.91,0.78-0.92
			C12.79,5.15,13.1,5.51,13.09,6.1z"/>
		<path class="st3" d="M52.1,49.41c0.02-1.63,1.45-3.02,3.11-3.02c1.66,0,3.11,1.41,3.1,3.02c-0.01,1.67-1.46,3.08-3.14,3.05
			C53.5,52.44,52.08,51.02,52.1,49.41z M56.63,49.41c-0.01-0.79-0.63-1.38-1.45-1.37c-0.81,0.02-1.4,0.63-1.38,1.44
			c0.02,0.76,0.63,1.34,1.42,1.34C56.02,50.81,56.64,50.2,56.63,49.41z"/>
		<path class="st3" d="M44.92,49.45c-0.01-1.62,1.39-3.03,3.06-3.06c1.69-0.03,3.15,1.38,3.15,3.03c0,1.62-1.42,3.02-3.09,3.04
			C46.39,52.48,44.93,51.08,44.92,49.45z M48.06,48.04c-0.82-0.01-1.44,0.58-1.45,1.37c-0.01,0.79,0.61,1.4,1.42,1.4
			c0.79,0,1.39-0.58,1.41-1.35C49.46,48.66,48.87,48.05,48.06,48.04z"/>
		<path class="st3" d="M52.1,55.97c0-1.64,1.4-3.03,3.07-3.05c1.66-0.02,3.11,1.37,3.14,2.99C58.33,57.56,56.9,59,55.21,59
			C53.55,59,52.1,57.59,52.1,55.97z M55.21,54.58c-0.82,0-1.42,0.59-1.42,1.4c0,0.77,0.6,1.36,1.38,1.38
			c0.81,0.02,1.44-0.58,1.45-1.37C56.64,55.18,56.02,54.58,55.21,54.58z"/>
		<path class="st3" d="M52.1,42.89c0.01-1.63,1.43-3.02,3.1-3.03c1.65-0.01,3.11,1.4,3.11,3.01c0,1.66-1.45,3.08-3.13,3.06
			C53.52,45.91,52.09,44.5,52.1,42.89z M56.63,42.92c0.01-0.8-0.59-1.41-1.4-1.41c-0.82,0-1.43,0.59-1.43,1.39
			c0,0.77,0.59,1.36,1.37,1.38C55.98,44.3,56.61,43.71,56.63,42.92z"/>
		<path class="st3" d="M48.06,39.86c1.66,0.02,3.08,1.43,3.08,3.05c-0.01,1.62-1.44,3.02-3.1,3.03c-1.68,0.01-3.15-1.45-3.11-3.08
			C44.96,41.21,46.4,39.84,48.06,39.86z M48,41.51c-0.81,0.01-1.41,0.63-1.39,1.42c0.02,0.79,0.66,1.37,1.47,1.35
			c0.78-0.02,1.37-0.62,1.36-1.39C49.44,42.09,48.82,41.5,48,41.51z"/>
		<path class="st3" d="M44.92,55.96c0.01-1.63,1.43-3.02,3.09-3.03c1.67-0.01,3.11,1.38,3.12,3c0.01,1.66-1.44,3.08-3.12,3.07
			C46.35,58.99,44.91,57.57,44.92,55.96z M48.03,57.35c0.81,0,1.42-0.61,1.41-1.41c-0.01-0.78-0.59-1.35-1.39-1.36
			c-0.82-0.01-1.44,0.58-1.45,1.37C46.6,56.74,47.22,57.35,48.03,57.35z"/>
		<path class="st3" d="M40.85,39.86c1.67,0,3.09,1.38,3.11,3.02c0.02,1.62-1.41,3.05-3.07,3.06c-1.69,0.01-3.16-1.41-3.14-3.05
			C37.76,41.25,39.19,39.86,40.85,39.86z M42.26,42.89c0-0.8-0.61-1.39-1.43-1.38c-0.79,0.01-1.39,0.59-1.4,1.36
			c-0.01,0.79,0.6,1.41,1.41,1.41C41.65,44.29,42.26,43.69,42.26,42.89z"/>
		<path class="st3" d="M40.86,46.39c1.67,0.01,3.09,1.39,3.09,3.03c0.01,1.65-1.46,3.08-3.14,3.05c-1.67-0.03-3.07-1.43-3.07-3.06
			C37.75,47.79,39.2,46.38,40.86,46.39z M40.83,48.04c-0.81,0.01-1.42,0.62-1.4,1.42c0.02,0.76,0.63,1.35,1.41,1.35
			c0.81,0,1.43-0.6,1.42-1.4C42.26,48.6,41.66,48.03,40.83,48.04z"/>
		<path class="st3" d="M43.95,55.98C43.94,57.61,42.5,59,40.84,59c-1.68,0-3.13-1.45-3.1-3.1c0.03-1.63,1.49-3.01,3.15-2.98
			C42.57,52.95,43.97,54.35,43.95,55.98z M40.82,57.35c0.81,0.01,1.44-0.58,1.44-1.38c0.01-0.8-0.56-1.38-1.35-1.39
			c-0.83-0.02-1.46,0.55-1.48,1.34C39.41,56.71,40.01,57.34,40.82,57.35z"/>
		<path class="st3" d="M48.03,30.59c3.13,0,6.26,0,9.38,0c0.98,0,1.18,0.19,1.18,1.16c0,1.25,0.01,2.51,0,3.76
			c-0.01,0.71-0.26,0.96-0.99,0.96c-6.38,0-12.76,0-19.15,0c-0.73,0-0.98-0.25-0.99-0.97c-0.01-1.29-0.01-2.59,0-3.88
			c0-0.79,0.24-1.02,1.06-1.03C41.69,30.58,44.86,30.59,48.03,30.59z M47.96,32.15c-2.75,0-5.5,0.01-8.26-0.01
			c-0.49,0-0.7,0.13-0.66,0.63c0.04,0.47,0.04,0.95,0,1.42c-0.06,0.58,0.18,0.73,0.75,0.72c3.47-0.02,6.93-0.01,10.4-0.01
			c2.02,0,4.03-0.01,6.05,0.01c0.46,0,0.65-0.13,0.62-0.6c-0.03-0.49-0.04-0.99,0-1.48c0.05-0.56-0.18-0.7-0.72-0.69
			C53.43,32.17,50.69,32.15,47.96,32.15z"/>
	</g>
</g>
<g id="Payment_Only_For_Clicked_Ads" class="st0">
	<g class="st1">
		<defs>
			<rect id="SVGID_5_" x="0" width="62" height="62"/>
		</defs>
		<clipPath id="SVGID_6_">
			<use xlink:href="#SVGID_5_"  style="overflow:visible;"/>
		</clipPath>
		<g class="st5">
			<path class="st3" d="M7.51,62c-1.21-0.33-2.31-0.85-3.17-1.79c-1.1-1.21-1.58-2.64-1.58-4.26c0-7.67,0-15.34,0-23.01
				c0-5.69,0-11.38,0-17.07c0-0.3-0.02-0.6,0.08-0.9c0.15-0.44,0.48-0.66,0.91-0.66c0.41,0,0.72,0.22,0.88,0.62
				c0.13,0.33,0.1,0.68,0.1,1.02c0,13.34,0.01,26.68-0.01,40.02c0,1.22,0.34,2.25,1.22,3.11c0.79,0.76,1.76,1.07,2.82,1.07
				c8.52,0.01,17.03,0.02,25.55,0c2.44-0.01,4.03-1.67,4.03-4.11c0-4.9,0-9.81,0-14.71c0-0.33,0.09-0.7-0.47-0.72
				c-0.52-0.02-0.71,0.14-0.71,0.68c0.02,2.46,0.01,4.92,0.01,7.39c0,0.28,0,0.56-0.09,0.84c-0.15,0.44-0.49,0.64-0.93,0.64
				c-0.42,0-0.72-0.22-0.87-0.63c-0.1-0.27-0.1-0.55-0.1-0.84c0-2.42,0-4.84,0-7.27c0-0.8,0-0.81-0.8-0.81c-6.5,0-13,0-19.5,0
				c-2.59,0-3.92-1.33-3.92-3.91c0-7.75,0-15.5,0-23.25c0-2.55,1.34-3.89,3.88-3.89c6.5,0,13,0,19.5,0c0.84,0,0.84,0,0.84-0.83
				c0-0.93,0.01-1.86,0-2.78c-0.01-0.63-0.25-0.9-0.88-0.91c-1.35-0.02-2.7,0-4.06-0.01c-0.29,0-0.44,0.14-0.52,0.4
				c-0.13,0.4-0.27,0.8-0.42,1.2c-0.29,0.76-0.84,1.17-1.66,1.18c-4.08,0-8.15,0.01-12.23,0c-0.86,0-1.37-0.4-1.68-1.22
				c-0.58-1.55-0.58-1.55-2.25-1.55c-0.81,0-1.61,0-2.42,0c-1,0-1.19,0.2-1.19,1.21c0,12.17,0,24.34,0,36.51c0,4.36,0,8.72,0,13.08
				c0,0.97,0.21,1.18,1.16,1.18c8.33,0,16.67,0,25,0c0.93,0,1.15-0.22,1.15-1.13c0-0.75-0.01-1.49,0.01-2.24
				c0.02-0.72,0.4-1.16,0.97-1.17c0.59-0.01,0.99,0.45,1.01,1.2c0.02,0.87,0.03,1.74,0,2.6c-0.05,1.55-1.18,2.65-2.73,2.65
				c-8.6,0-17.19,0-25.79,0c-1.58,0-2.71-1.1-2.76-2.68c0-0.14,0-0.28,0-0.42c0-16.53,0-33.06,0-49.59c0-0.57,0.04-1.13,0.32-1.64
				C6.71,3.64,7.46,3.12,8.5,3.11c1.61-0.02,3.23-0.01,4.84,0c0.88,0,1.38,0.36,1.69,1.19c0.57,1.5,0.57,1.5,2.16,1.5
				c3.17,0,6.34-0.02,9.51,0.02c0.67,0.01,1.02-0.2,1.14-0.85c0.05-0.26,0.16-0.5,0.25-0.74c0.3-0.76,0.81-1.12,1.62-1.12
				c1.57-0.01,3.15-0.01,4.72,0c1.61,0.01,2.73,1.12,2.76,2.74c0.02,1.03,0.02,2.06,0,3.09c-0.01,0.43,0.12,0.62,0.58,0.62
				c0.46,0,0.6-0.18,0.59-0.61c-0.02-0.99,0-1.98-0.01-2.97c-0.01-2.44-1.59-4.06-4.04-4.11c-1.05-0.02-2.1,0-3.15,0
				c-7.41,0-14.81,0-22.22,0c-2.14,0-3.65,1.12-4.13,3.04C4.75,5.22,4.75,5.54,4.75,5.86c0,1.51,0,3.03,0,4.54
				c0,0.18,0.01,0.36-0.01,0.54c-0.07,0.6-0.43,0.95-0.97,0.96c-0.54,0-0.97-0.34-0.97-0.94c0-2.1-0.24-4.21,0.12-6.28
				C3.29,2.48,4.65,1,6.76,0.24C7.01,0.15,7.26,0.08,7.51,0c9.36,0,18.73,0,28.09,0c2.3,0.61,3.89,1.97,4.54,4.32
				c0.14,0.53,0.21,1.07,0.21,1.61c0,0.99,0.02,1.98-0.01,2.97c-0.02,0.51,0.18,0.66,0.67,0.65c1.86-0.02,3.71-0.01,5.57-0.01
				c0.2,0,0.41-0.01,0.6,0.01c0.59,0.06,0.98,0.44,1,0.95c0.02,0.53-0.39,0.94-1.01,1c-0.24,0.02-0.48,0.01-0.73,0.01
				c-10.45,0-20.91,0-31.36,0c-0.24,0-0.48-0.01-0.73,0c-0.82,0.04-1.37,0.55-1.37,1.38c-0.01,4.78,0,9.57-0.02,14.35
				c0,0.55,0.29,0.56,0.7,0.56c2.95-0.01,5.89-0.02,8.84,0c2.26,0.01,3.86,1.39,4.19,3.57c0.33,2.23-1.15,4.24-3.39,4.6
				c-0.46,0.07-0.92,0.11-1.39,0.11c-2.72-0.01-5.45,0-8.17,0c-0.77,0-0.77,0.01-0.77,0.78c0,1.24,0.47,1.72,1.71,1.72
				c13.7,0,27.4,0,41.11,0c1.21,0,1.69-0.48,1.69-1.68c0-7.91,0-15.82,0-23.73c0-1.18-0.48-1.66-1.65-1.66c-1.31-0.01-2.62,0-3.94,0
				c-0.26,0-0.52,0-0.77-0.11c-0.39-0.17-0.62-0.47-0.61-0.89c0.01-0.44,0.23-0.77,0.68-0.9c0.21-0.06,0.44-0.08,0.66-0.08
				c1.37-0.01,2.74-0.01,4.12,0c2.02,0.02,3.49,1.46,3.5,3.48c0.01,8.03,0.01,16.06,0,24.09c0,2.04-1.48,3.46-3.57,3.47
				c-4.88,0.01-9.77,0-14.65,0c-0.91,0-0.91,0-0.91,0.88c0,4.64-0.07,9.28,0.02,13.92c0.06,3.19-1.52,5.79-4.77,6.6
				C26.24,62,16.87,62,7.51,62z M18.18,29.8c-1.53,0-3.06,0.01-4.6-0.01c-0.44,0-0.62,0.14-0.61,0.59c0.02,1.05,0.02,2.1,0,3.15
				c-0.01,0.46,0.17,0.59,0.61,0.59c2.98-0.01,5.97,0,8.95-0.01c1.36-0.01,2.26-0.89,2.26-2.16c0-1.28-0.88-2.13-2.26-2.14
				C21.08,29.79,19.63,29.8,18.18,29.8z"/>
			<path class="st3" d="M21.98,14.27c1.15,0,2.3-0.01,3.45,0c1.26,0.01,1.95,0.7,1.96,1.96c0.01,1.45,0.01,2.9,0,4.36
				c-0.01,1.26-0.7,1.95-1.96,1.96c-2.34,0.01-4.68,0.01-7.02,0c-1.26-0.01-1.95-0.7-1.96-1.96c-0.01-1.45-0.01-2.9,0-4.36
				c0.01-1.26,0.7-1.94,1.96-1.96C19.6,14.26,20.79,14.27,21.98,14.27z M21.87,20.56c0.99,0,1.98-0.01,2.96,0.01
				c0.41,0.01,0.58-0.13,0.58-0.56c-0.02-1.07-0.02-2.14,0-3.2c0.01-0.42-0.17-0.56-0.57-0.56c-1.93,0.01-3.87,0.01-5.8,0
				c-0.43,0-0.62,0.13-0.61,0.59c0.02,1.05,0.02,2.1,0,3.14c-0.01,0.45,0.17,0.6,0.61,0.59C19.98,20.55,20.92,20.56,21.87,20.56z"/>
			<path class="st3" d="M48.96,35.38c-0.02,0.5-0.21,0.83-0.64,0.98c-0.45,0.15-0.83,0.01-1.11-0.38c-0.05-0.07-0.1-0.14-0.11-0.21
				c-0.16-1.01-0.81-1.22-1.7-1.08c-0.12,0.02-0.24,0.02-0.36,0c-0.84-0.13-1.39,0.1-1.63,1.02c-0.16,0.63-0.76,0.84-1.29,0.63
				c-0.5-0.2-0.71-0.72-0.49-1.32c0.84-2.24,1.7-4.48,2.55-6.72c0.19-0.5,0.55-0.81,1.09-0.81c0.51-0.01,0.88,0.28,1.06,0.75
				c0.86,2.26,1.71,4.52,2.56,6.78C48.93,35.15,48.94,35.29,48.96,35.38z M45.26,30.93c-0.2,0.51-0.34,0.87-0.47,1.22
				c-0.23,0.62-0.22,0.62,0.46,0.63c0.1,0,0.2-0.01,0.3,0c0.27,0.02,0.39-0.08,0.28-0.36C45.66,31.97,45.49,31.53,45.26,30.93z"/>
			<path class="st3" d="M36.42,31.89c0-1.07-0.01-2.14,0-3.2c0.01-0.85,0.37-1.22,1.22-1.22c0.8,0,1.61-0.08,2.41,0.11
				c1.53,0.36,2.38,1.6,2.24,3.25c-0.12,1.37-1.32,2.46-2.79,2.52c-1.1,0.05-1.1,0.05-1.1,1.18c0,0.3,0.01,0.61-0.02,0.91
				c-0.06,0.6-0.43,0.96-0.96,0.97c-0.56,0.01-0.97-0.36-0.98-1C36.41,34.23,36.43,33.06,36.42,31.89
				C36.43,31.89,36.42,31.89,36.42,31.89z M38.41,30.48c0.07,0.38-0.26,1.03,0.64,0.97c0.79-0.05,1.32-0.41,1.34-1.01
				c0.02-0.59-0.51-1-1.31-1C38.41,29.45,38.41,29.45,38.41,30.48z"/>
			<path class="st3" d="M50.36,33.87c0.26-1.25-0.21-2.27-0.96-3.24c-0.38-0.49-0.7-1.04-1.02-1.57c-0.35-0.57-0.25-1.12,0.24-1.43
				c0.46-0.3,0.98-0.19,1.36,0.35c0.39,0.54,0.74,1.1,1.09,1.67c0.23,0.36,0.39,0.32,0.59-0.01c0.31-0.52,0.65-1.02,0.98-1.52
				c0.43-0.64,0.96-0.79,1.47-0.44c0.48,0.33,0.55,0.89,0.16,1.5c-0.52,0.82-1.04,1.63-1.58,2.43c-0.25,0.37-0.37,0.74-0.36,1.18
				c0.02,0.8,0.01,1.61,0,2.42c-0.01,0.75-0.39,1.2-0.98,1.21c-0.59,0-0.97-0.45-0.99-1.2C50.35,34.76,50.36,34.32,50.36,33.87z"/>
			<path class="st3" d="M50.15,18.18c0,0.26,0.03,0.53-0.01,0.78c-0.07,0.52-0.37,0.87-0.9,0.89c-0.52,0.03-0.89-0.27-1-0.79
				c-0.12-0.58-0.1-1.17-0.01-1.74c0.09-0.54,0.53-0.9,1.02-0.83c0.55,0.07,0.87,0.4,0.91,0.96C50.17,17.69,50.15,17.94,50.15,18.18
				C50.15,18.18,50.15,18.18,50.15,18.18z"/>
			<path class="st3" d="M51.45,18.11c0-0.26-0.03-0.53,0.01-0.78c0.07-0.5,0.39-0.8,0.89-0.83c0.47-0.03,0.84,0.21,0.96,0.67
				c0.18,0.67,0.17,1.36,0,2.03c-0.12,0.47-0.5,0.69-0.97,0.66c-0.47-0.02-0.79-0.31-0.87-0.78c-0.06-0.31-0.04-0.64-0.05-0.96
				C51.43,18.11,51.44,18.11,51.45,18.11z"/>
			<path class="st3" d="M39.87,18.17c0,0.24,0.02,0.48,0,0.72c-0.05,0.56-0.41,0.94-0.9,0.97c-0.49,0.03-0.92-0.31-1.02-0.84
				c-0.1-0.56-0.1-1.13,0.01-1.68c0.1-0.55,0.52-0.89,1-0.85c0.51,0.04,0.86,0.4,0.91,0.96C39.88,17.68,39.87,17.93,39.87,18.17z"/>
			<path class="st3" d="M35.15,18.22c0,0.26,0.02,0.53-0.01,0.78c-0.05,0.49-0.46,0.88-0.93,0.85c-0.49-0.02-0.84-0.27-0.94-0.78
				c-0.12-0.6-0.12-1.2-0.01-1.8c0.1-0.53,0.45-0.82,0.98-0.79c0.52,0.03,0.85,0.35,0.9,0.88C35.17,17.66,35.15,17.94,35.15,18.22z"
				/>
			<path class="st3" d="M43.27,18.17c0,0.28,0.02,0.56-0.01,0.84c-0.05,0.49-0.46,0.86-0.93,0.86c-0.46,0-0.91-0.36-0.94-0.85
				c-0.04-0.56-0.04-1.13,0-1.68c0.04-0.53,0.49-0.9,0.99-0.85c0.52,0.06,0.85,0.35,0.88,0.9C43.28,17.64,43.27,17.91,43.27,18.17
				C43.27,18.17,43.27,18.17,43.27,18.17z"/>
			<path class="st3" d="M21.53,51.12c-1.51,0-3.03,0.02-4.54,0c-1.82-0.03-3.25-1.15-3.57-2.77c-0.45-2.26,1.07-4.23,3.42-4.28
				c3.15-0.06,6.29-0.05,9.44,0c2.03,0.03,3.51,1.56,3.52,3.5c0.02,1.96-1.52,3.49-3.61,3.54C24.63,51.15,23.08,51.12,21.53,51.12z
				 M21.58,46.04c-1.53,0-3.06-0.01-4.59,0c-1.05,0.01-1.7,0.61-1.69,1.55c0,0.94,0.65,1.54,1.7,1.54c3.04,0.01,6.09,0.01,9.13,0
				c1.04,0,1.7-0.62,1.7-1.55c0-0.93-0.66-1.54-1.71-1.54C24.6,46.04,23.09,46.04,21.58,46.04z"/>
		</g>
	</g>
</g>
<g id="Access_To_New_Talents" class="st0">
	<g class="st1">
		<path class="st3" d="M62,25.84c-0.3,1.07-0.92,1.94-1.61,2.78c-3.17,3.78-6.32,7.58-9.49,11.36c-0.25,0.29-0.32,0.57-0.28,0.96
			c0.31,3.66,0.6,7.31,0.9,10.97c0.14,1.65,0.32,3.3,0.43,4.95c0.24,3.52-3.06,6.01-6.06,4.85c-1.44-0.56-2.83-1.22-4.24-1.84
			c-3.34-1.47-6.69-2.95-10.02-4.44c-0.43-0.19-0.79-0.17-1.21,0.01c-4.62,2.05-9.26,4.05-13.87,6.13
			c-2.93,1.32-6.19-0.67-6.46-3.96c-0.1-1.23,0.15-2.47,0.24-3.7c0.2-2.68,0.45-5.35,0.67-8.02c0.14-1.65,0.25-3.3,0.41-4.95
			c0.04-0.39-0.04-0.67-0.28-0.96c-3.3-3.94-6.58-7.9-9.88-11.84C0.65,27.46,0.27,26.69,0,25.84c0-0.67,0-1.34,0-2.02
			c0.59-2.2,2.02-3.34,4.13-3.82c4.72-1.08,9.43-2.26,14.14-3.38c0.45-0.11,0.74-0.32,0.98-0.73c2.56-4.45,5.13-8.89,7.7-13.33
			c1.98-3.41,6.11-3.41,8.09,0c2.57,4.44,5.15,8.88,7.7,13.33c0.24,0.41,0.53,0.62,0.98,0.73c4.77,1.14,9.54,2.32,14.32,3.43
			c2.05,0.48,3.37,1.68,3.95,3.78C62,24.5,62,25.17,62,25.84z M12.63,57.09c-0.06,0.66,0.19,1.28,0.74,1.76
			c0.78,0.67,1.59,0.53,2.44,0.16c4.77-2.11,9.55-4.21,14.32-6.33c0.6-0.27,1.14-0.29,1.74-0.01c1.07,0.5,2.15,0.96,3.23,1.43
			c3.73,1.65,7.47,3.29,11.2,4.94c0.66,0.29,1.3,0.44,1.98,0.07c0.85-0.45,1.2-1.29,1.09-2.52c-0.2-2.17-0.39-4.34-0.57-6.52
			c-0.26-3.16-0.48-6.31-0.78-9.47c-0.07-0.79,0.11-1.36,0.6-1.94c3.44-4.1,6.86-8.21,10.28-12.32c1.19-1.43,0.62-3.2-1.14-3.62
			c-4.97-1.2-9.93-2.42-14.91-3.57c-1-0.23-1.61-0.72-2.13-1.63c-2.57-4.54-5.21-9.04-7.81-13.56c-0.42-0.73-0.95-1.25-1.81-1.28
			c-0.91-0.03-1.5,0.48-1.95,1.26c-2.67,4.63-5.36,9.24-8.01,13.88c-0.39,0.69-0.89,1.07-1.63,1.24C14.45,20.27,9.43,21.49,4.4,22.7
			c-1.98,0.48-2.51,2.17-1.18,3.77c3.44,4.12,6.87,8.25,10.32,12.37c0.4,0.47,0.55,0.98,0.47,1.62c-0.14,1.17-0.2,2.34-0.3,3.51
			c-0.19,2.24-0.38,4.47-0.57,6.71C12.97,52.78,12.8,54.89,12.63,57.09z"/>
		<path class="st3" d="M30.95,39.12c-2.76,0-5.53,0-8.29,0c-1.11,0-1.58-0.48-1.59-1.64c-0.01-1.07-0.06-2.14,0.14-3.2
			c0.47-2.46,1.78-4.29,3.92-5.44c0.5-0.27,0.48-0.41,0.13-0.83c-2.11-2.47-2.73-5.32-1.6-8.42c1.1-3.02,3.27-4.81,6.35-5.24
			c4.72-0.67,8.95,3.24,8.88,8.17c-0.03,2.09-0.72,3.95-2.11,5.48c-0.34,0.38-0.43,0.54,0.1,0.83c2.58,1.41,3.89,3.68,4.07,6.68
			c0.04,0.69,0.02,1.39,0,2.08c-0.03,1.04-0.52,1.53-1.52,1.53C36.6,39.12,33.77,39.12,30.95,39.12z M36.3,22.43
			c0-3.07-2.36-5.5-5.31-5.5c-2.94,0-5.29,2.46-5.28,5.53c0,3.06,2.36,5.5,5.31,5.5C33.96,27.95,36.3,25.5,36.3,22.43z M31,36.51
			c2.24,0,4.47-0.01,6.71,0.01c0.5,0.01,0.66-0.17,0.66-0.69c0.01-2.95-2.05-5.15-4.89-5.17c-1.67-0.01-3.35-0.02-5.02,0
			c-2.76,0.03-4.81,2.22-4.83,5.1c0,0.57,0.15,0.76,0.72,0.75C26.56,36.49,28.78,36.51,31,36.51z"/>
		<path class="st3" d="M31,49.08c-2.32,0-4.64,0.01-6.96-0.01c-1.06-0.01-1.67-1.08-1.15-1.97c0.25-0.43,0.63-0.63,1.11-0.63
			c4.66,0,9.32,0,13.98,0.01c0.78,0,1.28,0.53,1.28,1.28c0.01,0.78-0.5,1.31-1.31,1.32C35.64,49.08,33.32,49.08,31,49.08z"/>
		<path class="st3" d="M38.95,44.15c-0.77,0-1.53,0.01-2.3,0c-0.88-0.02-1.45-0.55-1.45-1.34c0-0.75,0.56-1.32,1.4-1.34
			c1.55-0.03,3.1-0.03,4.65,0c0.89,0.02,1.42,0.58,1.4,1.38c-0.02,0.8-0.56,1.28-1.47,1.3c-0.04,0-0.08,0-0.12,0
			C40.36,44.15,39.66,44.15,38.95,44.15z"/>
		<path class="st3" d="M23.07,44.15c-0.77,0-1.53,0.01-2.3,0c-0.9-0.02-1.44-0.53-1.44-1.33c0-0.78,0.52-1.33,1.37-1.34
			c1.57-0.03,3.14-0.03,4.71,0c0.83,0.02,1.39,0.62,1.37,1.36c-0.02,0.74-0.6,1.29-1.42,1.31C24.6,44.16,23.84,44.15,23.07,44.15z"
			/>
		<path class="st3" d="M29.72,42.85c-0.01-0.74,0.51-1.33,1.22-1.36c0.67-0.03,1.28,0.58,1.3,1.29c0.02,0.71-0.55,1.34-1.23,1.36
			C30.33,44.16,29.74,43.56,29.72,42.85z"/>
	</g>
</g>
<g id="Identify_Suitable_Advertising_Strategies">
	<g>
		<path class="st3" d="M0,58.97C0,40.4,0,21.84,0,3.27c0.51-1.59,1.56-2.64,3.15-3.15c18.57,0,37.14,0,55.7,0
			c1.59,0.51,2.64,1.56,3.15,3.15c0,18.57,0,37.14,0,55.7c-0.51,1.59-1.56,2.64-3.15,3.15c-18.57,0-37.14,0-55.7,0
			C1.56,61.61,0.51,60.56,0,58.97z M31.01,10.55c-9.26,0-18.52,0-27.79,0c-1.11,0-1.11,0-1.11,1.08c0,15.19,0,30.39,0,45.58
			c0,0.42-0.01,0.85,0.1,1.26c0.21,0.77,0.7,1.27,1.48,1.43C4.05,59.98,4.42,60,4.78,60c17.47,0,34.95,0,52.42,0
			c0.28,0,0.57-0.01,0.84-0.05c1.05-0.16,1.62-0.72,1.78-1.76c0.05-0.34,0.06-0.68,0.06-1.02c0-15.19,0-30.39,0-45.58
			c0-1.03,0-1.03-1.03-1.03C49.57,10.55,40.29,10.55,31.01,10.55z M30.97,8.32c9.24,0,18.49,0,27.73,0c0.2,0,0.4-0.01,0.61,0
			c0.41,0.03,0.59-0.15,0.59-0.57c-0.01-1.11,0.03-2.22-0.02-3.33c-0.06-1.38-0.79-2.09-2.17-2.18c-0.26-0.02-0.52-0.01-0.79-0.01
			c-17.28,0-34.55,0-51.83,0c-0.24,0-0.48-0.01-0.73,0c-1.45,0.07-2.22,0.84-2.24,2.3c-0.02,0.95,0,1.9,0,2.85
			c0,0.93,0,0.93,0.94,0.93C12.36,8.32,21.66,8.32,30.97,8.32z"/>
		<path class="st3" d="M24.63,16.56c1.97-0.06,4.22,0.15,6.44-0.31c2.95-0.61,5.7-1.75,8.32-3.21c0.6-0.34,1.2-0.68,1.93-0.59
			c1.26,0.16,2.1,1.1,2.16,2.44c0.03,0.62,0.01,1.25,0.01,1.88c0,0.84,0.01,0.84,0.85,0.85c1.99,0.02,3.6,1.2,4.13,3.02
			c0.77,2.69-1.14,5.22-4.06,5.39c-0.91,0.05-0.91,0.05-0.91,0.99c0,0.52,0.01,1.05-0.01,1.57c-0.07,2.14-1.92,3.2-3.78,2.15
			c-1.15-0.64-2.31-1.23-3.52-1.74c-1.1-0.46-2.23-0.84-3.36-1.19c-0.45-0.14-0.67-0.13-0.74,0.45c-0.22,1.83-1.48,2.88-3.34,2.89
			c-0.02,0-0.04,0-0.06,0c-0.52,0.03-1.12-0.18-1.54,0.09c-0.48,0.3-0.15,0.94-0.23,1.42c-0.26,1.4-1.38,2.47-2.8,2.61
			c-0.54,0.06-1.08,0.06-1.63,0.01c-1.69-0.17-2.88-1.45-2.89-3.15c-0.01-1.47-0.02-2.95,0-4.42c0.01-0.43-0.12-0.68-0.56-0.78
			c-0.21-0.05-0.46-0.14-0.59-0.29c-0.49-0.57-1.11-0.6-1.8-0.62c-2-0.06-3.23-1.37-3.25-3.37c0-0.67-0.01-1.33,0.01-2
			c0.04-1.69,1.37-3.02,3.07-3.02c0.74,0,1.41,0,1.96-0.64c0.36-0.42,0.97-0.44,1.53-0.44C21.43,16.56,22.9,16.56,24.63,16.56z
			 M41.25,21.78c0-2.12,0-4.23,0-6.35c0-0.77-0.09-0.83-0.74-0.47c-3.45,1.9-7.05,3.37-11.02,3.75c-0.33,0.03-0.51,0.2-0.51,0.55
			c0,1.71,0,3.43,0,5.14c0,0.35,0.16,0.5,0.51,0.53c0.44,0.03,0.88,0.1,1.32,0.17c3.44,0.58,6.62,1.88,9.65,3.56
			c0.68,0.38,0.79,0.32,0.79-0.46C41.26,26.05,41.25,23.91,41.25,21.78z M23.26,18.81c-0.97,0-1.94,0.01-2.9,0
			c-0.43-0.01-0.63,0.16-0.63,0.6c0.01,1.59,0.01,3.18,0,4.78c0,0.47,0.21,0.65,0.66,0.64c1.89-0.01,3.79-0.01,5.68,0
			c0.53,0,0.7-0.24,0.7-0.74c-0.01-1.53-0.02-3.06,0-4.6c0.01-0.53-0.22-0.71-0.73-0.69C25.12,18.82,24.19,18.81,23.26,18.81z
			 M24.69,29.85C24.7,29.85,24.7,29.85,24.69,29.85c0-0.75,0-1.49,0.01-2.24c0-0.37-0.15-0.57-0.54-0.56
			c-0.61,0.01-1.21,0.01-1.82,0c-0.39-0.01-0.55,0.19-0.54,0.56c0,1.51-0.01,3.03,0.02,4.54c0.01,0.6,0.35,0.92,0.95,0.98
			c0.3,0.03,0.61,0.03,0.91,0.01c0.66-0.05,1-0.38,1.02-1.04C24.71,31.34,24.69,30.6,24.69,29.85z M43.5,21.8c0,0.5,0,1.01,0,1.51
			c0,0.31,0.14,0.48,0.47,0.5c0.88,0.05,1.65-0.16,2.15-0.95c0.42-0.67,0.42-1.38,0.02-2.06c-0.47-0.8-1.22-0.99-2.08-0.95
			c-0.37,0.02-0.56,0.18-0.55,0.56C43.5,20.88,43.5,21.34,43.5,21.8z M17.51,21.92c0-0.5,0-1.01,0-1.51c0-0.23-0.04-0.43-0.31-0.52
			c-0.86-0.3-1.61,0.2-1.65,1.12c-0.02,0.5-0.01,1.01,0,1.51c0.02,0.98,0.46,1.37,1.45,1.31c0.35-0.02,0.52-0.16,0.51-0.51
			C17.51,22.84,17.51,22.38,17.51,21.92z M28.09,29c0.22,0,0.44,0.02,0.67,0c0.84-0.07,1.22-0.55,1.12-1.39
			c-0.03-0.26-0.13-0.42-0.4-0.44c-0.68-0.06-1.36-0.15-2.05-0.12c-0.36,0.01-0.48,0.18-0.5,0.53C26.83,29.01,26.83,29.01,28.09,29z
			"/>
		<path class="st3" d="M23.28,54.82c5.13,0,10.25,0,15.38,0c0.26,0,0.53-0.01,0.78,0.03c0.54,0.1,0.92,0.54,0.91,1.05
			c-0.01,0.55-0.29,0.92-0.82,1.06c-0.27,0.07-0.56,0.09-0.84,0.09c-10.29,0-20.58,0-30.88,0c-0.26,0-0.53-0.01-0.78-0.07
			c-0.58-0.13-0.92-0.59-0.88-1.13c0.04-0.54,0.45-0.95,1.03-1.02c0.24-0.03,0.48-0.02,0.73-0.02
			C13.03,54.81,18.15,54.82,23.28,54.82z"/>
		<path class="st3" d="M43.88,40.49c-3.33,0-6.66,0-9.99,0c-0.18,0-0.36,0-0.54,0c-0.83-0.01-1.34-0.4-1.38-1.05
			c-0.04-0.66,0.49-1.13,1.33-1.18c0.12-0.01,0.24-0.01,0.36-0.01c6.82,0,13.64,0,20.45,0c0.3,0,0.61,0.02,0.9,0.08
			c0.54,0.13,0.87,0.59,0.83,1.11c-0.03,0.51-0.42,0.94-0.96,1.01c-0.22,0.03-0.44,0.02-0.66,0.02
			C50.78,40.49,47.33,40.49,43.88,40.49z"/>
		<path class="st3" d="M17.58,52.92c-3.19,0-6.37,0-9.56,0c-0.34,0-0.69-0.02-1.02-0.08c-0.54-0.11-0.87-0.57-0.85-1.09
			c0.02-0.55,0.43-0.97,1-1.03c0.18-0.02,0.36-0.01,0.54-0.01c6.57,0,13.15,0,19.72,0c1.06,0,1.56,0.35,1.57,1.08
			c0.01,0.73-0.51,1.13-1.54,1.14C24.15,52.92,20.86,52.92,17.58,52.92C17.58,52.92,17.58,52.92,17.58,52.92z"/>
		<path class="st3" d="M17.58,44.61c-3.27,0-6.53,0-9.8,0c-0.22,0-0.45,0.01-0.66-0.02c-0.54-0.06-0.93-0.47-0.97-1
			c-0.04-0.55,0.32-1.02,0.88-1.13c0.31-0.06,0.64-0.07,0.96-0.07c6.37,0,12.74,0,19.11,0c0.26,0,0.53,0.01,0.78,0.04
			c0.71,0.09,1.11,0.51,1.09,1.13c-0.02,0.62-0.47,1.02-1.18,1.04c-0.64,0.01-1.29,0.01-1.94,0.01
			C23.1,44.61,20.34,44.61,17.58,44.61z"/>
		<path class="st3" d="M43.89,48.73c-3.41,0-6.82,0-10.22,0c-0.22,0-0.44,0.01-0.66-0.01c-0.6-0.05-1.03-0.5-1.04-1.06
			c0-0.55,0.44-1.02,1.02-1.08c0.18-0.02,0.36-0.01,0.54-0.01c6.92,0,13.83,0,20.75,0c1.06,0,1.57,0.35,1.57,1.07
			c0.01,0.73-0.51,1.09-1.56,1.09C50.83,48.73,47.36,48.73,43.89,48.73z"/>
		<path class="st3" d="M21.14,40.49c-2.42,0-4.84,0-7.26,0c-0.22,0-0.45,0.01-0.66-0.04c-0.53-0.13-0.85-0.49-0.87-1.03
			c-0.02-0.54,0.28-0.93,0.81-1.07c0.27-0.07,0.56-0.09,0.84-0.09c4.78-0.01,9.56,0,14.34,0c0.28,0,0.57,0.02,0.84,0.08
			c0.53,0.12,0.88,0.6,0.85,1.1c-0.03,0.51-0.42,0.95-0.96,1.02c-0.3,0.04-0.6,0.03-0.91,0.03C25.82,40.49,23.48,40.49,21.14,40.49z
			"/>
		<path class="st3" d="M47.05,50.69c2.4,0,4.8,0,7.2,0c0.2,0,0.4-0.01,0.6,0.01c0.57,0.06,0.98,0.49,1,1.03
			c0.02,0.52-0.31,0.98-0.85,1.09c-0.31,0.07-0.64,0.08-0.96,0.08c-4.7,0-9.4,0-14.1,0c-0.3,0-0.61-0.02-0.9-0.08
			c-0.54-0.12-0.87-0.56-0.85-1.09c0.02-0.55,0.42-0.97,1-1.03c0.2-0.02,0.4-0.01,0.6-0.01C42.21,50.69,44.63,50.69,47.05,50.69z"/>
		<path class="st3" d="M46.98,44.61c-2.42,0-4.84,0-7.26,0c-0.2,0-0.41,0.01-0.6-0.02c-0.54-0.08-0.91-0.5-0.93-1.03
			c-0.02-0.53,0.32-0.98,0.86-1.09c0.29-0.06,0.6-0.08,0.9-0.08c4.72,0,9.44,0,14.16,0c0.24,0,0.48,0.01,0.72,0.05
			c0.66,0.1,1.06,0.54,1.03,1.13c-0.03,0.59-0.47,1-1.13,1.03c-0.4,0.02-0.81,0.01-1.21,0.01C51.34,44.61,49.16,44.61,46.98,44.61z"
			/>
		<path class="st3" d="M11.86,46.57c1.39,0,2.78,0,4.17,0c0.16,0,0.32,0,0.48,0.01c0.66,0.04,1.07,0.45,1.08,1.06
			c0.01,0.62-0.4,1.08-1.05,1.08c-3.1,0.02-6.21,0.02-9.31,0c-0.65,0-1.09-0.46-1.09-1.05c-0.01-0.61,0.45-1.08,1.12-1.09
			C8.8,46.57,10.33,46.58,11.86,46.57C11.86,46.58,11.86,46.58,11.86,46.57z"/>
		<path class="st3" d="M24.83,48.73c-1.33,0-2.66,0.01-3.99,0c-0.79-0.01-1.26-0.42-1.25-1.08c0-0.66,0.47-1.07,1.26-1.07
			c2.64-0.01,5.28-0.01,7.92,0c0.76,0,1.27,0.45,1.27,1.08c0,0.64-0.5,1.07-1.27,1.07C27.45,48.74,26.14,48.73,24.83,48.73z"/>
		<path class="st3" d="M33.56,44.6c-0.5,0-1.01,0.02-1.51-0.01c-0.63-0.03-1.05-0.43-1.08-1c-0.04-0.61,0.33-1.08,0.99-1.15
			c1.08-0.11,2.18-0.11,3.26,0c0.65,0.06,1.06,0.57,1.01,1.14c-0.05,0.58-0.5,0.99-1.15,1.01C34.57,44.62,34.06,44.6,33.56,44.6z"/>
		<path class="st3" d="M33.63,50.7c0.48,0,0.97-0.02,1.45,0c0.65,0.03,1.1,0.45,1.14,1.03c0.04,0.57-0.37,1.07-1.03,1.13
			c-1.08,0.1-2.18,0.11-3.26-0.01c-0.66-0.07-1.02-0.55-0.97-1.16c0.04-0.57,0.46-0.95,1.1-0.99c0.04,0,0.08,0,0.12,0
			C32.67,50.7,33.15,50.7,33.63,50.7C33.63,50.7,33.63,50.7,33.63,50.7z"/>
		<path class="st3" d="M8.29,40.48c-0.36,0-0.73,0.02-1.09-0.01c-0.61-0.05-1.04-0.49-1.06-1.05c-0.02-0.54,0.33-1.01,0.92-1.1
			c0.8-0.13,1.61-0.13,2.41,0c0.58,0.1,0.94,0.57,0.91,1.11c-0.03,0.57-0.45,0.99-1.07,1.04C8.98,40.5,8.64,40.48,8.29,40.48z"/>
		<path class="st3" d="M53.73,4.2c0.99,0,1.97-0.01,2.96,0c0.74,0.01,1.21,0.42,1.22,1.05c0.02,0.61-0.39,1.09-1.1,1.12
			c-2.05,0.09-4.11,0.08-6.16,0c-0.7-0.03-1.13-0.53-1.12-1.12c0.02-0.61,0.51-1.05,1.23-1.06C51.75,4.19,52.74,4.2,53.73,4.2z"/>
		<path class="st3" d="M5.82,6.41c-0.17,0-0.22,0-0.26,0C4.6,6.39,4.08,5.99,4.08,5.27C4.09,4.56,4.6,4.2,5.59,4.19
			c0.18,0,0.36,0,0.54,0c0.66,0.03,1.11,0.43,1.16,1.01c0.04,0.57-0.36,1.04-1,1.16C6.09,6.4,5.89,6.41,5.82,6.41z"/>
		<path class="st3" d="M10.94,6.42c-0.58-0.03-1.05-0.02-1.4-0.4C9.22,5.67,9.17,5.25,9.35,4.84c0.35-0.78,1.08-0.63,1.73-0.65
			c0.57-0.02,1.04,0.13,1.28,0.7c0.25,0.59-0.08,1.26-0.71,1.43C11.39,6.4,11.11,6.4,10.94,6.42z"/>
		<path class="st3" d="M16.06,4.19c0.22,0.01,0.45-0.01,0.66,0.04c0.53,0.12,0.85,0.45,0.88,1c0.03,0.55-0.24,0.93-0.76,1.09
			c-0.49,0.15-1,0.13-1.5,0.03c-0.57-0.11-0.95-0.57-0.94-1.1c0.02-0.55,0.46-1,1.05-1.05c0.2-0.02,0.4,0,0.6,0
			C16.06,4.2,16.06,4.19,16.06,4.19z"/>
	</g>
</g>
<g id="Seamless_Across_All_Channels" class="st0">
	<g class="st1">
		<defs>
			<rect id="SVGID_7_" x="0" width="62" height="62"/>
		</defs>
		<clipPath id="SVGID_8_">
			<use xlink:href="#SVGID_7_"  style="overflow:visible;"/>
		</clipPath>
		<g class="st6">
			<path class="st3" d="M0,52.31c0.5-1.04,1.34-1.42,2.47-1.37c0.89,0.04,0.89,0.01,0.89-0.89c0-1.67,0-3.35,0-5.02
				c0-0.26-0.02-0.53,0.1-0.77c0.18-0.38,0.47-0.6,0.9-0.58c0.43,0.02,0.72,0.22,0.88,0.62c0.1,0.27,0.1,0.55,0.1,0.84
				c0,1.7,0.02,3.39-0.01,5.09c-0.01,0.54,0.14,0.74,0.71,0.74c16.63-0.01,33.26-0.01,49.89,0c0.6,0,0.74-0.21,0.74-0.77
				c-0.01-8.05-0.01-16.1-0.01-24.16c0-0.72,0.01-0.63-0.65-0.44c-1.2,0.35-1.43,1.09-1.42,2.27c0.07,5.81,0.03,11.62,0.03,17.44
				c0,0.3,0,0.61-0.05,0.9c-0.19,1.34-1.09,2.16-2.44,2.24c-0.18,0.01-0.36,0.01-0.54,0.01c-13.72,0-27.45,0-41.17,0
				c-0.1,0-0.2,0-0.3,0c-1.68-0.02-2.68-0.99-2.72-2.67c-0.03-1.09-0.01-2.18-0.01-3.27c0-6.13,0-12.27,0-18.4
				c0-0.38,0.02-0.77,0.08-1.14c0.18-1.2,1.12-2.03,2.33-2.05c1.05-0.02,2.1-0.02,3.15,0c0.44,0.01,0.63-0.14,0.6-0.59
				c-0.03-0.46-0.01-0.93,0-1.39c0.01-0.34-0.11-0.54-0.48-0.54c-2.36,0.01-4.72,0-7.08,0.01c-0.41,0-0.63,0.23-0.63,0.65
				c0,0.22-0.01,0.44-0.01,0.67c0,6.68,0,13.36,0,20.04c0,0.3,0.03,0.61-0.07,0.9c-0.16,0.47-0.49,0.76-1,0.71
				c-0.49-0.04-0.81-0.34-0.89-0.85c-0.03-0.2-0.02-0.4-0.02-0.6c0-6.86,0-13.72,0-20.58c0-1.9,1.01-2.91,2.91-2.91
				c2.18,0,4.36-0.02,6.54,0.01c0.6,0.01,0.75-0.2,0.74-0.76c-0.02-3.35-0.01-6.7-0.01-10.05c0-2.12,1.02-3.17,3.14-3.19
				c2.24-0.02,4.48-0.01,6.72-0.01c2.7,0,5.41,0,8.11,0c0.49,0,0.97,0.02,1.44,0.14c1.18,0.31,1.95,1.36,1.95,2.68
				c0.01,3.47,0.02,6.94-0.01,10.41c0,0.6,0.15,0.81,0.78,0.79c1.27-0.05,2.54-0.04,3.81,0c0.53,0.01,0.71-0.14,0.69-0.68
				c-0.04-1.6,0.35-3.12,1.02-4.56c0.22-0.47,0.58-0.73,1.11-0.62c0.46,0.1,0.73,0.43,0.78,0.9c0.03,0.29-0.13,0.54-0.23,0.81
				c-1.26,3.2-0.99,6.26,1.11,8.98c2.35,3.05,5.55,4.2,9.29,3.28c3.78-0.93,6.05-3.47,6.72-7.29c0.89-5.03-2.79-9.8-7.84-10.34
				c-2.45-0.26-4.63,0.37-6.58,1.85c-0.42,0.32-0.84,0.5-1.33,0.21c-0.38-0.22-0.48-0.58-0.42-0.99c0.04-0.32,0.26-0.53,0.5-0.73
				c4.02-3.29,10.25-3.1,14.09,0.41c1.88,1.72,3.06,3.83,3.52,6.33c0.02,0.1,0.06,0.19,0.08,0.29c0,1.01,0,2.02,0,3.03
				c-0.02,0.08-0.06,0.15-0.07,0.23c-0.37,2.28-1.36,4.25-2.97,5.91c-0.29,0.3-0.32,0.62-0.32,0.99c0,8.58,0,17.15,0,25.73
				c0,0.78,0.01,0.82,0.82,0.77c1.15-0.07,2.01,0.32,2.53,1.37c0,1.41,0,2.83,0,4.24c-0.19,0.53-0.38,1.06-0.72,1.53
				c-0.99,1.4-2.44,1.74-4.04,1.74c-17.52,0-35.05,0-52.57,0c-0.54,0-1.09-0.03-1.62-0.15C1.45,59.27,0.52,58.18,0,56.67
				C0,55.22,0,53.77,0,52.31z M30.98,46.47c6.9,0,13.8,0,20.7,0c0.9,0,0.96-0.06,0.96-0.97c0-4.28,0-8.56,0-12.83
				c0-1.8,0-3.59,0-5.39c0-0.3,0.07-0.59-0.45-0.55c-3.56,0.31-6.58-0.87-9.07-3.42c-0.29-0.3-0.59-0.43-1-0.43
				c-2.14,0.01-4.28,0.01-6.42,0.01c-0.79,0-0.79,0-0.79,0.82c0,3.39,0,6.78,0,10.17c0,2.12-1.03,3.17-3.15,3.17
				c-5.02,0.01-10.05,0.01-15.07,0c-2.07,0-3.14-1.08-3.14-3.14c0-3.41-0.01-6.82,0.01-10.23c0-0.59-0.15-0.84-0.78-0.81
				c-0.82,0.05-1.65,0.01-2.48,0.01c-0.85,0-0.93,0.09-0.93,0.94c0,7.2,0,14.41,0,21.61c0,0.97,0.06,1.03,1.03,1.03
				C17.25,46.47,24.12,46.47,30.98,46.47z M32.92,17.04c0-3.81,0-7.63,0-11.44c0-1.08-0.13-1.21-1.23-1.2
				c-1.61,0.02-1.24-0.21-1.61,1.28c-0.31,1.27-1,1.84-2.32,1.85c-2.36,0.01-4.72,0.01-7.08,0c-1.28,0-1.99-0.57-2.29-1.8
				c-0.33-1.33-0.33-1.33-1.69-1.33c-1,0-1.17,0.17-1.17,1.15c0,7.69,0,15.37,0,23.06c0,0.81,0.01,0.82,0.8,0.82
				c5.27,0,10.53,0,15.8,0c0.78,0,0.8-0.02,0.8-0.83C32.93,24.75,32.92,20.9,32.92,17.04z M30.97,57.84c8.78,0,17.55,0,26.33,0
				c0.24,0,0.49,0.01,0.73-0.01c1.21-0.09,2-0.92,2.03-2.13c0.02-0.63,0.01-1.25,0.01-1.88c0-0.89,0-0.89-0.91-0.89
				c-7.3,0-14.61,0-21.91,0c-1.33,0-1.33,0-1.36,1.33c-0.03,1.09-0.6,1.73-1.68,1.85c-1.17,0.13-2.34,0.05-3.51,0.05
				c-1.01,0-2.02,0.07-3.02-0.05c-0.58-0.07-1.02-0.35-1.32-0.85c-0.28-0.46-0.23-0.97-0.23-1.47c0-0.85,0-0.85-0.87-0.85
				c-7.4,0-14.81,0-22.21,0c-0.2,0-0.4,0.01-0.61,0c-0.41-0.03-0.59,0.12-0.57,0.56c0.03,0.56,0,1.13,0.01,1.69
				c0,1.85,0.8,2.66,2.66,2.66C13.34,57.84,22.15,57.84,30.97,57.84z M24.27,31.4c-2.7,0-5.41,0.01-8.11-0.01
				c-0.46,0-0.66,0.13-0.64,0.62c0.03,0.68,0,1.37,0.01,2.06c0.01,0.8,0.21,1.01,1,1.01c1.45,0.01,2.9,0,4.36,0
				c3.59,0,7.18,0,10.77,0c1.16,0,1.26-0.11,1.27-1.29c0-0.54-0.03-1.09,0.01-1.63c0.04-0.57-0.14-0.77-0.74-0.77
				C29.55,31.42,26.91,31.4,24.27,31.4z M38.15,20.91c0.93,0,1.85-0.01,2.78,0c0.33,0,0.44-0.08,0.29-0.42
				c-0.23-0.53-0.44-1.08-0.62-1.63c-0.11-0.32-0.28-0.46-0.61-0.46c-1.51,0.01-3.02,0.01-4.53,0c-0.43,0-0.57,0.19-0.55,0.59
				c0.02,0.44,0.02,0.89,0,1.33c-0.03,0.44,0.13,0.62,0.59,0.6C36.37,20.89,37.26,20.91,38.15,20.91z M24.24,4.4
				c-1.19,0-2.38,0-3.56,0c-0.2,0-0.47-0.09-0.51,0.26c-0.05,0.54,0.23,0.88,0.78,0.88c1.57,0.01,3.14,0,4.71,0
				c0.66,0,1.33-0.01,1.99,0c0.62,0.01,0.58-0.49,0.61-0.85c0.04-0.42-0.35-0.29-0.58-0.3C26.54,4.39,25.39,4.4,24.24,4.4z
				 M30.96,54.21c0.81,0,1.61-0.02,2.42,0.01c0.46,0.01,0.52-0.24,0.52-0.61c0-0.38-0.02-0.67-0.53-0.67
				c-1.57,0.02-3.15,0.02-4.72,0c-0.49-0.01-0.56,0.25-0.56,0.65c0,0.41,0.09,0.65,0.57,0.63C29.42,54.19,30.19,54.21,30.96,54.21z"
				/>
			<path class="st3" d="M46.8,13.4c1.08,0,1.75,0.34,2.27,0.95c0.3,0.35,0.5,0.33,0.82,0c1.11-1.14,2.23-2.27,3.38-3.38
				c0.76-0.74,1.69-1.03,2.73-0.69c1.05,0.35,1.67,1.1,1.85,2.19c0.13,0.8-0.1,1.55-0.66,2.12c-2.12,2.16-4.26,4.3-6.41,6.42
				c-0.72,0.71-1.83,0.71-2.58,0c-1.08-1.03-2.14-2.08-3.16-3.17c-0.79-0.85-0.91-1.89-0.41-2.93C45.11,13.92,45.95,13.43,46.8,13.4
				z M55.9,12.85c0-0.29-0.12-0.52-0.37-0.64c-0.27-0.13-0.56-0.12-0.79,0.09c-0.36,0.33-0.7,0.67-1.04,1.01
				c-1.09,1.08-2.16,2.18-3.26,3.25c-0.68,0.66-1.22,0.64-1.89-0.01c-0.27-0.27-0.54-0.55-0.82-0.81c-0.44-0.42-0.92-0.48-1.22-0.14
				c-0.4,0.45-0.16,0.83,0.17,1.16c0.82,0.84,1.66,1.65,2.48,2.49c0.23,0.24,0.39,0.26,0.64,0.01c1.92-1.94,3.85-3.86,5.77-5.79
				C55.74,13.31,55.9,13.12,55.9,12.85z"/>
			<path class="st3" d="M29.09,20.25c-0.77,0.01-1.47-0.67-1.49-1.45c-0.01-0.76,0.68-1.46,1.46-1.48c0.76-0.02,1.46,0.67,1.47,1.46
				C30.55,19.56,29.89,20.24,29.09,20.25z"/>
			<path class="st3" d="M25.7,18.77c0.01,0.8-0.64,1.46-1.44,1.48c-0.77,0.01-1.48-0.67-1.49-1.44c-0.01-0.77,0.67-1.47,1.45-1.49
				C24.98,17.3,25.69,18,25.7,18.77z"/>
			<path class="st3" d="M19.38,20.25c-0.78,0-1.47-0.7-1.47-1.47c0.01-0.74,0.69-1.43,1.44-1.45c0.78-0.02,1.48,0.66,1.49,1.45
				C20.86,19.55,20.17,20.25,19.38,20.25z"/>
		</g>
	</g>
</g>
</svg>
