<?xml version="1.0" encoding="utf-8"?>
<!-- Generator: Adobe Illustrator 18.1.1, SVG Export Plug-In . SVG Version: 6.00 Build 0)  -->
<svg version="1.1" id="Layer_1" xmlns="http://www.w3.org/2000/svg" xmlns:xlink="http://www.w3.org/1999/xlink" x="0px" y="0px"
	 viewBox="0 0 70 70" enable-background="new 0 0 70 70" xml:space="preserve">
<g id="Layer_1_1_" display="none">
</g>
<g id="Cost-Effective" display="none">
	<g display="inline">
		<path fill="#E11C50" d="M54.3,67.8c-2.9,0-5.9,0-8.8,0c-0.6,0-0.8-0.2-0.8-0.8c0-1.7-0.2-1.4,1.4-1.5c0.8,0,1.5,0,2.3,0
			c0.4,0,0.6-0.1,0.6-0.6c0-4.1,0-8.2,0-12.4c0-0.5-0.3-0.7-0.7-0.8c-4.2-1.8-8.3-1.8-12.4,0.2c-0.8,0.4-1.5,0.6-2.4,0.6
			c-2.3,0-4.7,0-7,0c-1.4,0-2.2,0.7-2.4,1.8c-0.2,1,0.5,2.1,1.4,2.3c0.4,0.1,0.8,0.1,1.2,0.1c2.8,0,5.6,0,8.4,0
			c0.6,0,0.8,0.2,0.8,0.8c0,1.7,0.2,1.4-1.4,1.5c-3.4,0-6.8,0-10.2,0c-0.6,0-1-0.1-1.5-0.3c-3.9-1.8-7.7-3.5-11.6-5.3
			c-1.8-0.8-3.5,0.3-3.6,1.9c-0.1,0.9,0.3,2.1,1.2,2.5c4.5,2.3,9.1,4.6,13.7,6.8c1.6,0.8,3.3,0.9,5,0.9c4.7,0,9.3,0,14,0
			c0.9,0,1,0,0.9,0.9c0,1.5,0.2,1.4-1.4,1.4c-4.8,0-9.6,0-14.3,0c-2.1,0-4.1-0.4-5.9-1.4c-4.3-2.1-8.7-4.3-13-6.5
			c-2-1-2.9-3-2.6-5.3c0.3-1.9,1.8-3.5,3.8-3.8c0.9-0.2,1.9-0.1,2.8,0.3c1,0.5,2.1,0.9,3,1.4c0.4,0.2,0.7,0.2,1-0.2
			c0.6-0.7,1.3-1.4,1.9-2c0.4-0.4,0.5-0.7,0.5-1.3c0-4.3-0.1-8.6,0-13c0.1-7,3.5-12,9.8-15.1c0.7-0.3,0.6-0.5,0.3-1
			c-0.7-1.2-1.4-2.5-2.2-3.7c-0.6-1-0.1-2.1,1.2-2.1c4.9,0,9.8,0,14.7,0c1.3,0,1.8,1.1,1.2,2c-0.8,1.3-1.5,2.6-2.3,3.9
			c-0.3,0.4-0.3,0.7,0.3,0.9c5.7,2.7,9,7.1,9.9,13.4c0,0.3,0,0.6,0,0.9c0,4,0,8.1,0,12.1c0,0.7-0.2,0.8-0.8,0.8
			c-1.6,0-1.4,0.2-1.4-1.4c0-3.4,0-6.8,0-10.2c0-3.6-1.1-6.9-3.5-9.6c-1.7-2.1-3.9-3.5-6.4-4.3c-1.4-0.5-1.6-1.1-0.9-2.3
			c0.7-1.1,1.3-2.2,2-3.3c0.2-0.4,0.2-0.5-0.3-0.5c-3.4,0-6.7,0-10,0c-0.6,0-0.5,0.2-0.3,0.6c0.7,1.1,1.4,2.3,2,3.4
			c0.6,1.1,0.3,1.8-0.8,2.1c-5.6,1.9-8.9,5.7-9.9,11.5c-0.1,0.8-0.2,1.7-0.2,2.5c0,4.3,0,8.7,0,13c0,0.8-0.2,1.4-0.8,2
			c-0.6,0.6-1.2,1.2-1.7,1.7c-0.3,0.2-0.3,0.5,0.1,0.7c1,0.5,2,0.9,3,1.4c0.5,0.2,0.5-0.1,0.4-0.4c-0.1-1.4,0.4-2.6,1.4-3.5
			c0.8-0.7,1.8-1.2,2.9-1.2c2.4,0,4.9,0,7.3,0c0.6,0,1-0.1,1.5-0.3c5-2.4,10-2.4,15,0c0.5,0.2,0.9,0.3,1.4,0.3c1.1,0,1.1,0,1.1,1.1
			c0,0.1,0,0.3,0,0.4c0,0.5,0,0.8-0.7,0.7c-0.4,0-0.4,0.3-0.4,0.6c0,1.3,0,2.7,0,4c0,2.6,0,5.1,0,7.7c0,0.6,0.2,0.7,0.7,0.7
			c3.1,0,6.3,0,9.3,0c0.6,0,0.7-0.2,0.7-0.8c0-2.4,0-4.8,0-7.2c0-0.7,0.2-0.8,0.8-0.8c1.7,0,1.4-0.2,1.4,1.4c0,2.7,0,5.5,0,8.2
			c0,1-0.4,1.4-1.4,1.4C60.2,67.8,57.2,67.8,54.3,67.8z"/>
		<path fill="#E11C50" d="M56.2,46.9c0,2.2,0,4.3,0,6.4c0,0.3,0.1,0.4,0.4,0.3c2-0.6,3.9-1.1,5.8-1.7c0.3-0.1,0.3-0.2,0.1-0.4
			c-0.1-0.1-0.3-0.2-0.4-0.3c-0.7-0.6-0.8-1-0.4-1.8c1.7-3.3,2.8-6.7,3.4-10.3c0.2-1.7,0.4-3.5,0.2-5.2c-0.1-1.1,0-1.1,1-1.2
			c1.6-0.2,1.3,0,1.4,1.3c0.2,5.4-0.9,10.5-3.3,15.3c-0.2,0.4-0.1,0.7,0.2,0.9c0.5,0.3,1,0.7,1.4,1.1c0.8,0.7,0.7,1.8-0.4,2.1
			c-3.4,1-6.9,2-10.3,2.9c-1,0.3-1.6-0.2-1.6-1.3c0-3.5,0-6.9,0-10.4c0-0.6,0.1-1.1,0.7-1.4c0.6-0.3,1,0,1.5,0.3
			c0.7,0.6,0.7,0.5,1-0.3c1.2-3.1,1.7-6.3,1.5-9.6c-0.6-11-8.4-20-19.1-22.1c-6.4-1.3-12.3,0-17.8,3.5c-1.3,0.8-1.7,0.7-2.5-0.6
			c-1-1.6-2.1-3.3-3.1-4.9c-0.6-0.9-0.5-1.5,0.4-2.1c4.3-2.9,9-4.7,14.1-5.3c10.6-1.2,19.8,1.9,27.4,9.3c4.8,4.6,7.7,10.4,9.1,16.8
			c0.2,0.8,0.1,0.9-0.7,1c-1.4,0.2-1.4,0.2-1.8-1.2C62,16.2,52.4,7.1,40.2,4.9c-7.5-1.3-14.5,0-21,3.9c-0.6,0.3-0.7,0.6-0.3,1.1
			c0.6,0.8,1.1,1.7,1.6,2.6c0.2,0.4,0.4,0.4,0.8,0.2c3.4-2.1,7-3.3,10.9-3.7c7.2-0.7,13.7,1.3,19.3,6c4.8,4,7.8,9.1,8.9,15.3
			c1,5.6,0.3,10.9-2.1,16C58,47.2,57.4,47.3,56.2,46.9z"/>
		<path fill="#E11C50" d="M13.6,23c0-2.2,0-4.3,0-6.4c0-0.3-0.1-0.4-0.5-0.3c-2,0.6-4.1,1.2-6.2,1.8c0.2,0.3,0.5,0.5,0.8,0.7
			c0.6,0.5,0.7,0.9,0.4,1.6C7.6,21.6,7,22.8,6.5,24c-0.1,0.4-0.3,0.5-0.7,0.3c-2.1-0.8-1.8-0.3-1.1-2.2c0.2-0.5,0.5-1,0.7-1.5
			c0.2-0.4,0.1-0.6-0.2-0.8c-0.5-0.4-1-0.7-1.5-1.2c-0.4-0.3-0.6-0.7-0.5-1.2c0.1-0.5,0.4-0.8,0.9-1c3.4-1,6.8-2,10.2-2.9
			c1-0.3,1.7,0.2,1.7,1.3c0,3.5,0,6.9,0,10.4c0,0.6-0.1,1.1-0.7,1.4c-0.6,0.3-1,0-1.5-0.3c-0.7-0.5-0.7-0.5-1,0.3
			c-2.7,7.5-1.9,14.6,2.3,21.3c0.4,0.6,0.3,0.8-0.2,1.2c-1.3,0.8-1.3,0.9-2.1-0.5c-2.3-3.8-3.5-7.8-3.8-12.2
			c-0.2-4.4,0.6-8.5,2.4-12.5C11.9,22.7,12.3,22.5,13.6,23z"/>
		<path fill="#E11C50" d="M36.1,33.9c0,0,0,0.1,0,0.1c0,0.6-0.1,1.2,0,1.7c0.2,0.6,0.9,0.3,1.4,0.5c2,0.8,3.1,2.7,2.8,4.9
			c-0.2,1.8-1.8,3.5-3.8,3.7c-0.5,0-0.6,0.3-0.6,0.7c0,1.6,0,1.6-1.7,1.5c-0.5,0-0.6-0.2-0.6-0.6c0-0.5,0.1-1,0-1.4
			c-0.2-0.5-0.8-0.2-1.2-0.4c-1.6-0.6-2.6-1.7-3-3.3c-0.2-0.8-0.1-1,0.8-1c0.1,0,0.3,0,0.5,0c0.6,0,1.1,0,1.1,0.8
			c0,0.3,0.3,0.6,0.5,0.8c0.3,0.3,0.7,0.7,1.2,0.5c0.4-0.1,0.1-0.7,0.1-1c0-0.9,0-1.7,0-2.6c0-0.4-0.1-0.5-0.5-0.6
			c-2.3-0.3-3.9-2.1-3.9-4.3c0-2.4,1.5-4.1,3.9-4.5c0.3,0,0.5-0.2,0.5-0.5c0-0.1,0-0.2,0-0.3c0-0.4-0.2-1.1,0.1-1.3
			c0.5-0.3,1.2-0.1,1.8-0.1c0.3,0,0.3,0.3,0.3,0.5c-0.1,1.1,0.1,1.6,1.4,1.9c1.6,0.3,2.5,1.6,2.9,3.2c0.2,0.8,0.1,1-0.8,1
			c-0.1,0-0.3,0-0.5,0c-0.6,0-1,0-1.2-0.8c-0.1-0.7-0.7-1.1-1.4-1.3c-0.3-0.1-0.5,0-0.5,0.4C36.1,32.8,36.1,33.3,36.1,33.9z
			 M33.8,33.9c0-0.6,0-1.1,0-1.6c0-0.4-0.2-0.5-0.6-0.4c-0.8,0.2-1.5,1.1-1.5,2c0,0.9,0.7,1.9,1.5,2.1c0.4,0.1,0.6,0,0.6-0.5
			C33.8,34.9,33.8,34.4,33.8,33.9z M36.1,40.4c0,0.6,0,1.1,0,1.7c0,0.4,0.1,0.4,0.5,0.4c0.8-0.1,1.6-1.1,1.6-2
			c0-0.9-0.7-1.9-1.6-2.1c-0.4,0-0.5,0-0.5,0.4C36.1,39.3,36.1,39.9,36.1,40.4z"/>
		<path fill="#E11C50" d="M2.1,34.6c-0.1-2.3,0.3-4.9,0.9-7.6c0.1-0.6,0.4-0.7,0.9-0.6c1.5,0.4,1.5,0.4,1.2,1.9
			C3.7,35.1,4.5,41.7,7.4,48C7.7,48.5,7.6,48.8,7,49c-1.4,0.7-1.4,0.7-2.1-0.7C3.1,44.1,2.1,39.7,2.1,34.6z"/>
		<path fill="#E11C50" d="M22.9,35.2c0-2.2,1-4.6,2.7-6.8c0.3-0.4,0.6-0.5,1-0.1c0.3,0.4,1,0.6,1.1,1.1c0.1,0.5-0.5,0.8-0.8,1.2
			c-1.1,1.7-1.6,3.6-1.6,5.6c0,0.7-0.2,0.9-0.9,0.9C22.7,37.1,22.9,37.4,22.9,35.2z"/>
		<path fill="#E11C50" d="M55.8,58.9c1.3,0,2.1,1,2.1,2.3c0,1.3-1,2.1-2.3,2.1c-1.3,0-2.1-1-2.1-2.3C53.5,59.8,54.5,58.9,55.8,58.9z
			"/>
		<path fill="#E11C50" d="M30.7,27.1c0,0.1,0,0.1-0.1,0.2c0,0,0,0-0.1,0.1c-0.5,0.2-0.9,0.8-1.4,0.7c-0.6-0.2-0.8-0.9-1.3-1.4
			c-0.1-0.2,0-0.3,0.1-0.5c0.2-0.1,0.4-0.3,0.6-0.4c0.4-0.2,0.8-0.8,1.3-0.5C30.2,25.7,30.4,26.5,30.7,27.1z"/>
	</g>
</g>
<g id="Expansion" display="none">
	<g display="inline">
		<path fill="#E11C50" d="M13.9,35.5c-0.1-2.9,0.5-5.6,1.7-8.3c0.3-0.7,0.3-0.7-0.5-0.7c-4.9,0.2-9.4-3.3-10.8-7.8
			c-2-6.8,2.4-13.2,8.7-14.2c6.3-1,12,3.3,12.9,9.6c0,0.5,0,1,0,1.6c0,0.7,0,0.7,0.6,0.5c2-0.8,4-1.4,6.1-1.6
			c3.7-0.4,7.2,0,10.6,1.6c7.1,3.3,11.4,8.8,12.6,16.5c0.6,3.8,0,7.5-1.5,11.1c-0.3,0.8-0.3,0.8,0.5,0.8c5.2-0.2,10.5,3.7,11.2,9.8
			c0.7,6.4-3.8,11.4-9.1,12.3c-6.3,1-12.1-3.2-13-9.6c0-0.5,0-1.1,0-1.6c0-0.5-0.1-0.7-0.6-0.4c-2,0.9-4.1,1.4-6.2,1.7
			c-3.7,0.4-7.2-0.1-10.6-1.6c-7-3.3-11.2-8.8-12.5-16.4c-0.1-0.4-0.1-0.8-0.1-1.3C13.9,36.7,13.9,36.1,13.9,35.5z M31.8,35.4
			c0.7,0,1.4,0,2,0c2.1-0.1,3.5-1.6,3.1-3.6c-0.3-1.4-1.4-2.2-3.1-2.3c-1.8-0.1-3.5-1.5-3.7-3.3c-0.1-0.6,0-1.1,0-1.7
			c0-1.6-0.7-2.8-2.1-3.5c-0.7-0.3-1.4-0.7-2.2-1.1c-0.3-0.2-0.5-0.1-0.7,0.2c-1.3,2.6-3.2,4.4-5.9,5.5c-0.3,0.1-0.5,0.3-0.7,0.6
			c-2.7,5-3.1,10.2-1.3,15.6c0.1,0.4,0.3,0.6,0.8,0.6c1.7,0,3.4,0,5.1,0c1.8,0,2.8-1,2.8-2.7c0.1-2,1.5-3.7,3.4-4.2
			C30.1,35.3,31,35.5,31.8,35.4z M27.1,18.3c0.8,0.4,1.4,0.7,2.1,1c1.4,0.8,2.4,2,2.8,3.5c0.2,0.7,0.1,1.5,0.1,2.2
			c0,1.5,0.8,2.3,2.3,2.3c2.4,0,4.9,2.3,4.8,5.4c-0.1,2.5-2.3,4.8-4.9,4.8c-1.1,0-2.2,0-3.3,0c-1.8,0-2.8,1-2.8,2.8
			c-0.1,2.4-2.1,4.3-4.4,4.3c-1.5,0-3.1,0-4.6,0c-0.5,0-0.5,0.1-0.3,0.5c1.8,2.9,4.1,5.2,7.1,7c0.3,0.2,0.6,0.2,0.8-0.1
			c0.6-0.7,1.3-1.4,1.9-2.1c0.7-0.8,1.2-1.8,1.4-2.9c0.1-0.7,0.1-1.4,0.2-2c0.4-3.4,3.8-6.5,7.2-6.5c1.7,0,3.3-0.3,4.8-1.1
			c1.7-0.9,3.5-1.1,5.4-0.8c2.3,0.3,4.1,1.5,5.6,3.3c0.1,0.1,0.2,0.4,0.4,0.3c0.2,0,0.2-0.3,0.3-0.5c0.6-2.3,0.6-4.7,0.2-7
			c-0.1-0.5-0.2-0.5-0.7-0.3c-2.2,1.4-4.7,2.2-7.4,2.2c-2.6,0-4.6-2-4.7-4.5c-0.1-2-0.9-3.5-2.7-4.4c-0.2-0.1-0.4-0.2-0.7-0.4
			c-2.8-1.4-4.4-4.8-3.4-8.1c0.1-0.5,0-0.5-0.4-0.5c-0.8,0-1.6,0.1-2.4,0.3C30,17.1,28.6,17.5,27.1,18.3z M35,54.5
			c2.9,0,6.1-0.8,9-2.3c0.4-0.2,0.7-0.5,0.9-1c1.1-2.6,3-4.6,5.6-5.7c0.7-0.3,1.1-0.7,1.4-1.4c0.6-0.9,0.4-1.6-0.2-2.4
			c-2.5-3.1-5.9-4.1-9.4-2.1c-0.6,0.3-1.3,0.5-1.9,0.7c-1,0.3-2.1,0.2-3.2,0.3c-2.9,0.3-5,2.6-5.1,5.5c0,1.9-0.7,3.6-1.9,5
			c-0.5,0.5-0.9,1-1.4,1.5c-0.4,0.4-0.4,0.6,0.2,0.7C30.8,54.1,32.9,54.4,35,54.5z M23.9,15.4c-0.1-5-3.8-8.9-8.9-9
			c-5,0-9,3.8-9,8.9c0,4.9,3.7,8.9,8.9,9C19.9,24.4,23.8,20.6,23.9,15.4z M64,55.5c-0.1-5-3.8-8.9-9-9c-5,0-9,3.8-9,9
			c0,4.9,3.8,8.9,8.9,9C60,64.5,63.9,60.7,64,55.5z M45.8,32.4c2.5,0,4.7-0.8,6.7-2.2c0.5-0.3,0.6-0.6,0.4-1.2
			c-2.8-7-7.9-11.1-15.4-12.3c-0.5-0.1-0.7,0.1-0.9,0.5c-0.8,1.7-0.5,3.8,0.8,5.2c0.6,0.7,1.4,1,2.1,1.4c2.3,1.3,3.5,3.2,3.6,5.9
			C43.1,31.3,44.3,32.4,45.8,32.4z"/>
		<path fill="#E11C50" d="M5.9,54.1c0,3.5,0,6.7,0,10c0,0.3,0.1,0.5,0.5,0.5c3.3,0,6.5,0,9.9,0c-0.6-0.6-1-1-1.5-1.5
			c-0.4-0.4-0.7-0.7-1.1-1.1c-0.3-0.2-0.3-0.5,0-0.7c2.1-2.1,4.1-4.1,6.2-6.2c0.4-0.4,0.7,0,0.8,0.2c0.2,0.4,1.2,0.5,0.7,1.3
			c-0.3,0.4-0.7,0.7-1.1,1.1c-0.3,0.3-0.2,0.4,0.1,0.6c1.2,0.7,2.3,1.4,3.6,1.9c0.5,0.2,0.6,0.4,0.4,0.9c-0.6,1.4-0.6,1.4-1.9,0.7
			c-1.2-0.6-2.4-1.3-3.5-2c-0.4-0.3-0.6-0.2-0.9,0.1c-0.4,0.4-0.8,0.8-1.3,1.3c-0.3,0.3-0.3,0.5,0,0.8c1.4,1.4,2.7,2.7,4.1,4
			c0.1,0.1,0.4,0.3,0.3,0.5c-0.1,0.3-0.4,0.1-0.6,0.1c-5.3,0-10.6,0-16,0c-0.6,0-0.8-0.2-0.8-0.8c0-5.4,0-10.7,0-16.1
			c0-0.2-0.1-0.5,0.1-0.6c0.2,0,0.3,0.2,0.4,0.3c1.4,1.4,2.7,2.7,4.1,4.1c0.3,0.3,0.5,0.3,0.8,0c0.4-0.4,0.8-0.8,1.3-1.3
			c0.3-0.3,0.3-0.6,0.1-0.9c-0.9-1.4-1.7-2.8-2.4-4.3c-0.2-0.5-0.1-0.7,0.4-0.9c1.4-0.6,1.4-0.6,2,0.7c0.5,1,1.1,2,1.6,2.9
			c0.2,0.3,0.4,0.3,0.6,0c0.3-0.3,0.7-0.7,1-1c0.3-0.3,0.5-0.3,0.8,0c1.1,1.1,1.1,1.1,0,2.2c-1.8,1.8-3.5,3.5-5.3,5.3
			c-0.4,0.4-0.6,0.4-1,0C7.7,55.8,6.9,55,5.9,54.1z"/>
		<path fill="#E11C50" d="M64,16.9c0-0.5,0-0.8,0-1.1c0-2.9,0-5.8,0-8.6c0-0.6-0.1-0.7-0.7-0.7c-3,0-6.1,0-9.1,0c-0.1,0-0.3,0-0.6,0
			c0.8,0.8,1.6,1.6,2.4,2.4c0.6,0.6,0.6,0.6,0,1.2c-1.9,1.9-3.8,3.8-5.7,5.8c-0.4,0.4-0.6,0.4-0.9,0c-1-1.1-1.1-1,0-2.1
			C50,13,50,13,49.2,12.5c-1.1-0.7-2.1-1.3-3.3-1.7c-0.4-0.2-0.6-0.4-0.3-0.8c0.8-1.8,0.4-1.5,2.1-0.8c1.2,0.6,2.4,1.2,3.5,2
			c0.3,0.2,0.6,0.2,0.8-0.1c0.4-0.5,0.8-0.9,1.3-1.3c0.3-0.3,0.3-0.5,0-0.7c-1.4-1.4-2.7-2.7-4.1-4.1c-0.1-0.1-0.4-0.3-0.3-0.5
			c0.1-0.2,0.4-0.1,0.6-0.1c5.4,0,10.7,0,16.1,0c0.6,0,0.7,0.2,0.7,0.7c0,5.4,0,10.7,0,16.1c0,0.2,0.1,0.4-0.1,0.5
			c-0.2,0.1-0.3-0.1-0.4-0.3c-1.4-1.4-2.8-2.7-4.1-4.1c-0.3-0.3-0.5-0.4-0.8,0c-0.4,0.4-0.8,0.8-1.2,1.2c-0.3,0.3-0.4,0.6-0.1,0.9
			c0.9,1.4,1.7,2.8,2.4,4.3c0.2,0.5,0.1,0.7-0.3,0.8c-1.4,0.6-1.4,0.6-2-0.7c-0.5-1-1-2-1.6-2.9c-0.2-0.3-0.4-0.4-0.7-0.1
			c-0.3,0.3-0.6,0.7-1,1c-0.7,0.7-0.9-0.3-1.3-0.6c-0.3-0.2-0.7-0.5-0.2-1c1.7-1.7,3.5-3.5,5.2-5.2c1.3-1.3,1.3-1.3,2.5,0
			C62.9,15.7,63.4,16.2,64,16.9z"/>
		<path fill="#E11C50" d="M58.8,13.2c0,0-0.1,0.1-0.2,0.2c-0.5,0.5-1,1-1.5,1.5c-0.2,0.2-0.4,0.2-0.6,0c-1.3-1.1-1.3-1.1-0.1-2.3
			c1-1,1-1,2.1,0C58.6,12.8,58.8,12.9,58.8,13.2z"/>
		<path fill="#E11C50" d="M54.7,17.1c0,0.1-0.1,0.2-0.2,0.3c-0.5,0.5-1,1-1.5,1.5c-0.2,0.2-0.4,0.2-0.6,0c-1.3-1.1-1.3-1.1-0.1-2.3
			c1-1,1-1,2.1,0C54.5,16.8,54.7,16.9,54.7,17.1z"/>
		<path fill="#E11C50" d="M16.7,55.3c-0.2,0-0.3-0.2-0.5-0.3c-1.1-1.1-1.1-1.1,0-2.1c1.1-1.1,1.4-1.1,2.3,0.2c0.1,0.1,0.2,0.3,0,0.4
			c-0.6,0.6-1.2,1.2-1.7,1.7C16.8,55.2,16.7,55.2,16.7,55.3z"/>
		<path fill="#E11C50" d="M12.6,59.3c-0.3-0.1-0.5-0.4-0.7-0.6c-0.8-0.8-0.8-0.8,0-1.7c0.3-0.3,0.6-0.6,0.8-0.8
			c0.3-0.3,0.5-0.4,0.8,0c1.1,1.1,1.1,1.1,0,2.2c-0.2,0.2-0.5,0.5-0.7,0.7C12.8,59.1,12.7,59.2,12.6,59.3z"/>
		<path fill="#E11C50" d="M43.3,9.8c-0.5-0.1-1-0.3-1.5-0.5c-0.2-0.1-0.3-0.2-0.2-0.5c0.2-0.5,0-1.4,0.5-1.5c0.7-0.2,1.4,0.1,2,0.5
			c0.5,0.4-0.1,1-0.2,1.5C43.8,9.6,43.7,9.8,43.3,9.8z"/>
		<path fill="#E11C50" d="M61.6,28.9c-0.3,0-0.4,0-0.4-0.2c0-0.1-0.1-0.3-0.1-0.5c-0.4-1.5-0.3-1.6,1.3-2c0.3,0,0.4,0,0.5,0.3
			c0,0.2,0.1,0.4,0.1,0.6c0.1,0.5,0.5,1,0.2,1.4C62.8,28.9,62.1,28.8,61.6,28.9z"/>
		<path fill="#E11C50" d="M28.4,62.2c-0.1,0.4-0.2,0.8-0.3,1.3c0,0.3-0.2,0.3-0.5,0.2c-0.5-0.1-1-0.3-1.5-0.5
			c-0.3-0.1-0.4-0.2-0.3-0.5c0.2-0.5,0.1-1.3,0.7-1.5c0.6-0.2,1.2,0.3,1.8,0.4C28.5,61.7,28.5,61.9,28.4,62.2z"/>
		<path fill="#E11C50" d="M8.3,42c0.4-0.1,0.5,0,0.6,0.2c0,0.2,0.1,0.5,0.2,0.7c0,0.4,0.5,0.8,0.1,1.1c-0.4,0.4-1.1,0.5-1.7,0.6
			c-0.2,0-0.2-0.1-0.3-0.3c-0.1-0.5-0.3-1-0.5-1.5c-0.1-0.2,0-0.5,0.3-0.5C7.5,42.2,8,42.1,8.3,42z"/>
		<path fill="#E11C50" d="M24,27.5c0,1,0,1-1.1,1c-1.2,0-1,0.1-1-1.1c0-1,0-1,1.1-1C24,26.4,24,26.4,24,27.5z"/>
		<path fill="#E11C50" d="M25.9,31.4c0-1,0-1,1.1-1c1,0,1,0,1,1.1c0,1,0,1-1.1,1C25.9,32.5,25.9,32.5,25.9,31.4z"/>
		<path fill="#E11C50" d="M21,35.5c0,1,0,1-1.1,1c-1.1,0-1,0.1-1-1.1c0-1,0-1,1.1-1C21,34.4,21,34.4,21,35.5z"/>
		<path fill="#E11C50" d="M45,40.5c1,0,1,0,1,1.1c0,1,0,1-1.1,1c-1,0-1,0-1-1.1C44,40.5,44,40.5,45,40.5z"/>
		<path fill="#E11C50" d="M39.1,44.5c0,1.1,0,1.1-1,1.1c-1.1,0-1.1,0-1.1-1.1c0-1,0-1,1.1-1C39.1,43.5,39.1,43.5,39.1,44.5z"/>
		<path fill="#E11C50" d="M42,49.6c0,1,0,1-1.1,1c-1,0-1,0-1-1.1c0-1,0-1,1.1-1C42,48.5,42,48.5,42,49.6z"/>
		<path fill="#E11C50" d="M16.8,13.4c-0.4,0-0.9,0.1-1.2-0.6c-0.1-0.3-0.5-0.5-0.9-0.3C14.3,12.6,14,13,14,13.3
			c0,0.4,0.1,0.7,0.6,0.9c0.2,0.1,0.4,0.1,0.7,0.1c1.3,0.1,2.3,1,2.7,2.2c0.3,1.2-0.1,2.7-1.2,3.3c-0.6,0.4-0.7,0.7-0.7,1.4
			c0,1.3,0.1,1.2-1.2,1.2c-0.9,0-0.9,0-0.9-0.9c0-0.2,0-0.5,0-0.7c0-0.4-0.1-0.6-0.5-0.8c-0.8-0.4-1.3-1.1-1.5-1.9
			c-0.2-0.6,0-0.7,0.6-0.7c0.3,0,0.6,0,0.9,0c0.3,0,0.6,0.1,0.7,0.4c0.2,0.4,0.6,0.6,1,0.5c0.4-0.1,0.7-0.4,0.7-0.9
			c0-0.5-0.3-0.8-0.8-0.9c-0.3,0-0.6,0-0.8-0.1c-1.1-0.2-2.1-1.3-2.3-2.4c-0.2-1.3,0.1-2.4,1.3-3.1c0.7-0.4,0.7-0.8,0.7-1.4
			c0-1.2-0.1-1.1,1.1-1.1c1,0,1,0,1,1c0,0.7,0,1.3,0.8,1.7c0.6,0.3,0.9,0.9,1.1,1.6c0.2,0.7,0.1,0.8-0.6,0.8
			C17.2,13.4,17,13.4,16.8,13.4z"/>
		<path fill="#E11C50" d="M53.2,57.5c0.4,0,0.9,0,1.2,0.6c0.1,0.3,0.6,0.4,0.9,0.3c0.4-0.1,0.7-0.4,0.7-0.8c0-0.4-0.1-0.7-0.5-0.9
			c-0.2-0.1-0.4-0.1-0.7-0.1c-1.3-0.1-2.4-1-2.7-2.3c-0.3-1.3,0.2-2.7,1.4-3.3c0.5-0.3,0.6-0.6,0.6-1.2c0-1.5-0.2-1.3,1.4-1.4
			c0.6,0,0.8,0.1,0.7,0.7c0,0.2,0,0.4,0,0.6c0,0.6,0.1,0.9,0.7,1.2c0.7,0.4,1.2,1.1,1.4,2c0.1,0.4,0,0.7-0.5,0.7c-0.3,0-0.6,0-0.8,0
			c-0.4,0-0.7,0-0.9-0.5c-0.1-0.4-0.6-0.6-1-0.4c-0.4,0.1-0.7,0.4-0.7,0.8c0,0.4,0.2,0.7,0.6,0.9c0.2,0,0.4,0.1,0.6,0.1
			c1.3,0.1,2.4,1,2.7,2.3c0.3,1.3-0.2,2.7-1.4,3.3c-0.5,0.3-0.6,0.6-0.6,1.2c0,1.5,0.2,1.3-1.4,1.4c-0.6,0-0.8-0.1-0.7-0.7
			c0-0.2,0-0.4,0-0.6c0.1-0.6-0.1-1-0.7-1.3c-0.7-0.3-1-1-1.2-1.7c-0.2-0.7-0.1-0.8,0.6-0.9C52.8,57.5,53,57.5,53.2,57.5z"/>
	</g>
</g>
<g id="Multi-Media" display="none">
	<g display="inline">
		<path fill="#E11C50" d="M23.5,67.8c-1.4-0.6-2.4-1.5-2.6-3.1c-0.1-1.5,0.7-2.9,2.1-3.5c0.5-0.2,0.6-0.4,0.6-0.9c0-1.3,0-2.7,0-4
			c0-0.4-0.1-0.7-0.5-0.9c-3.5-2.1-6.4-4.9-8.5-8.5c-0.2-0.4-0.5-0.5-0.8-0.5c-1.4,0-2.7,0-4,0c-0.4,0-0.7,0.1-0.8,0.5
			c-0.7,1.7-2.5,2.5-4.2,2s-2.8-2.2-2.4-4C2.7,43.3,4.2,42,6,42.2c1.4,0.1,2.4,0.8,2.9,2.1c0.2,0.5,0.5,0.6,1,0.6c1,0,2.1,0,3.1,0
			c0.5,0,0.6-0.1,0.4-0.6c-0.9-2.1-1.4-4.2-1.7-6.4c-0.5-4.1,0.1-8,1.6-11.9c0.3-0.7,0.3-0.7-0.5-0.7c-0.9,0-1.9,0-2.8,0
			c-0.5,0-0.8,0.1-1,0.7C8.3,27.3,7,28,5.6,28c-1.4,0-2.6-1-3.1-2.3c-0.6-1.7,0.2-3.6,1.9-4.3c1.7-0.7,3.7,0,4.5,1.7
			c0.2,0.5,0.5,0.7,1,0.7c1.3,0,2.5,0,3.8,0c0.5,0,0.7-0.1,1-0.6c2.1-3.5,4.9-6.3,8.4-8.4c0.4-0.2,0.6-0.5,0.5-0.9
			c0-1.3,0-2.6,0-3.9c0-0.5-0.1-0.7-0.6-0.9C21.7,8.4,20.9,7,21,5.6c0.1-1.4,1-2.7,2.4-3.1c1.7-0.6,3.6,0.3,4.3,2s0,3.7-1.8,4.4
			c-0.6,0.2-0.7,0.6-0.7,1.1c0,1,0,2,0,3c0,0.4,0.1,0.5,0.5,0.3c2.7-1.2,5.6-1.8,8.5-1.9c3.4-0.1,6.7,0.5,9.8,1.8
			c0.7,0.3,0.7,0.3,0.7-0.5c0-1,0-1.9,0-2.9c0-0.5-0.1-0.7-0.6-1c-1.4-0.7-2.1-1.8-2.1-3.4c0-1.5,0.8-2.5,2.2-3.1
			c1.7-0.7,3.7,0.1,4.4,1.9s0,3.8-1.7,4.5c-0.6,0.3-0.7,0.6-0.7,1.2c0,1.2,0,2.5,0,3.7c0,0.4,0.1,0.7,0.5,0.9
			c3.5,2.1,6.4,4.9,8.5,8.5c0.2,0.4,0.5,0.5,0.9,0.5c1.4,0,2.7,0,4.1,0c0.3,0,0.6,0,0.7-0.4c0.6-1.5,1.7-2.3,3.3-2.2
			c1.6,0,2.7,0.9,3.3,2.3c0,0.1,0.1,0.1,0.1,0.2c0,0.6,0,1.2,0,1.8c-0.6,1.5-1.5,2.5-3.2,2.6c-1.7,0.1-2.8-0.8-3.5-2.3
			c-0.1-0.3-0.4-0.3-0.6-0.3c-1,0-2.1,0-3.1,0c-0.8,0-0.8,0-0.5,0.7c1.5,3.8,2.1,7.7,1.6,11.9c-0.3,2.2-0.8,4.3-1.7,6.4
			c-0.2,0.5-0.1,0.6,0.4,0.6c0.9,0,1.9,0,2.9,0c0.6,0,0.8-0.1,1.1-0.7c0.6-1.4,1.8-2.1,3.3-2c1.7,0,2.7,1.1,3.3,2.6
			c0,0.6,0,1.2,0,1.8C67.3,48,66.3,49,64.7,49c-1.7,0-2.8-0.8-3.5-2.4c-0.1-0.2-0.2-0.3-0.5-0.3c-1.5,0-3,0-4.5,0
			c-0.3,0-0.5,0.2-0.6,0.5c-0.1,0.3,0.2,0.4,0.3,0.5c1.1,0.7,2.2,1.4,3.4,2.1c0.7,0.5,0.7,1.1,0,1.5c-0.5,0.3-1,0.6-1.5,0.9
			c-0.5,0.2-0.5,0.5-0.2,0.9c0.9,1.4,1.7,2.9,2.6,4.4c0.4,0.7,0.3,1.1-0.4,1.5c-0.9,0.5-1.8,1-2.7,1.6c-0.9,0.5-1.2,0.5-1.7-0.4
			c-0.8-1.4-1.7-2.8-2.5-4.3c-0.3-0.5-0.5-0.5-0.9-0.2c-0.5,0.3-1,0.6-1.5,0.9c-0.7,0.4-1.2,0.1-1.3-0.7c0-0.4-0.1-0.8-0.1-1.2
			c-0.7,0.4-1.3,0.8-1.9,1.2c-0.3,0.2-0.5,0.5-0.5,0.8c0,1.3,0,2.7,0,4c0,0.5,0.1,0.7,0.6,0.9c1.8,0.8,2.6,2.9,1.7,4.7
			c-0.5,1-1.3,1.5-2.2,1.9c-0.6,0-1.2,0-1.8,0c-1.5-0.6-2.5-1.5-2.6-3.2c-0.1-1.7,0.7-2.9,2.3-3.5c0.3-0.1,0.3-0.4,0.3-0.6
			c0-1,0-2.1,0-3.1c0-0.7,0-0.7-0.7-0.4c-3.1,1.3-6.4,1.9-9.8,1.8c-2.9-0.1-5.8-0.7-8.5-1.9c-0.5-0.2-0.6,0-0.5,0.4c0,1,0,2.1,0,3.1
			c0,0.5,0.1,0.7,0.6,0.9c1.4,0.6,2.1,1.7,2.1,3.2c0,1.8-1,2.8-2.6,3.4C24.7,67.8,24.1,67.8,23.5,67.8z M19.1,34.3
			c1.9,0,3.7,0,5.6,0c0.5,0,0.6-0.1,0.7-0.6c0.1-3.1,0.4-6.3,1-9.3c0.1-0.4,0-0.6-0.4-0.7c-2.2-0.8-4.3-1.9-6.3-3.2
			c-0.5-0.3-0.7-0.3-1.1,0.1c-3.2,3.7-5.1,8-5.5,13c0,0.7,0.1,0.8,0.7,0.8C15.5,34.3,17.3,34.3,19.1,34.3z M50.9,34.3
			c1.8,0,3.6,0,5.4,0c0.5,0,0.7-0.1,0.7-0.7c-0.1-0.5-0.1-1-0.1-1.5c-0.6-4.4-2.4-8.3-5.3-11.6c-0.3-0.4-0.6-0.4-1-0.1
			c-2,1.3-4.1,2.4-6.3,3.3c-0.4,0.1-0.5,0.3-0.4,0.7c0.7,3.1,0.9,6.2,1,9.3c0,0.5,0.2,0.7,0.7,0.7C47.2,34.3,49,34.3,50.9,34.3z
			 M19.1,35.9c-1.9,0-3.7,0-5.6,0c-0.4,0-0.6,0-0.5,0.5c0.3,4.7,1.9,8.8,4.8,12.5c0.4,0.5,0.6,0.5,1.1,0.2c2.1-1.4,4.3-2.5,6.7-3.3
			c0.6-0.2,0.6-0.4,0.5-0.9c-0.6-2.7-0.7-5.5-0.8-8.2c0-0.6-0.1-0.8-0.7-0.7C22.7,35.9,20.9,35.9,19.1,35.9z M50.9,35.9
			c-1.9,0-3.7,0-5.6,0c-0.5,0-0.7,0.1-0.7,0.6c0,1.1-0.1,2.2-0.2,3.3c-0.1,1.8-0.4,3.5-0.7,5.2c-0.1,0.4,0,0.6,0.4,0.7
			c1.3,0.4,2.6,1,3.8,1.6c0.4,0.2,0.5,0.1,0.5-0.3c0-0.8-0.1-1.6-0.1-2.5c0-0.4,0-0.8,0.4-1c0.4-0.2,0.7,0,1.1,0.1
			c1.2,0.7,2.3,1.4,3.5,2.2c0.5,0.3,0.7,0.2,1-0.2c1.5-2.9,2.4-5.9,2.7-9.2c0-0.5-0.1-0.6-0.6-0.6C54.6,35.9,52.7,35.9,50.9,35.9z
			 M35,40.5c3,0,5.3-2.3,5.3-5.3c0-3.1-2.3-5.4-5.3-5.4c-3,0-5.3,2.3-5.3,5.3S32,40.5,35,40.5z M31,56.8c-0.8-1-1.5-2-2-3
			c-1-1.9-1.7-4-2.2-6.1c-0.1-0.4-0.2-0.6-0.7-0.4c-2.2,0.8-4.3,1.8-6.3,3.1c-0.3,0.2-0.3,0.3,0,0.6C22.9,54,26.6,55.9,31,56.8z
			 M34.2,51.4c0-1.6,0-3.3,0-4.9c0-0.7-0.2-0.8-0.8-0.7c-0.4,0-0.8,0.1-1.3,0.1c-1.2,0.1-2.3,0.3-3.5,0.7c-0.3,0.1-0.5,0.1-0.4,0.6
			c0.7,2.7,1.5,5.2,3.1,7.5c0.6,0.8,1.3,1.6,2.2,2.1c0.6,0.4,0.7,0.3,0.7-0.4C34.2,54.7,34.2,53.1,34.2,51.4z M35.8,51.4
			c0,1.7,0,3.3,0,5c0,0.7,0.1,0.7,0.7,0.4c0.7-0.4,1.3-0.9,1.7-1.5c1.9-2.4,2.8-5.3,3.6-8.2c0.1-0.4-0.1-0.5-0.4-0.5
			c-1.6-0.4-3.3-0.7-4.9-0.8c-0.5,0-0.7,0.1-0.7,0.7C35.8,48.1,35.8,49.7,35.8,51.4z M39,56.7c0.1,0,0.2,0,0.3,0
			c3-0.6,5.7-1.8,8.3-3.5c0.8-0.5,1.2-1.1,1-2.1c0-0.3,0-0.7,0-1.1c0-0.4-0.1-0.7-0.5-0.9c-1.4-0.7-2.7-1.3-4.2-1.9
			c-0.5-0.2-0.7-0.1-0.7,0.4c-0.3,1.4-0.8,2.8-1.4,4.2C41.2,53.7,40.3,55.3,39,56.7z M34.2,18.5c0-1.5,0-3.1,0-4.6
			c0-0.7-0.1-0.7-0.7-0.4c-0.6,0.3-1.1,0.8-1.5,1.3c-1.8,2.2-2.8,4.8-3.5,7.5c-0.1,0.3,0,0.5,0.4,0.6c1.5,0.4,3.1,0.7,4.7,0.8
			c0.6,0,0.7-0.2,0.7-0.7C34.2,21.5,34.2,20,34.2,18.5z M35.8,18.4c0,1.5,0,3,0,4.5c0,0.7,0.2,0.8,0.8,0.7c1.5-0.1,3.1-0.4,4.6-0.8
			c0.4-0.1,0.5-0.3,0.4-0.7c-0.6-2.1-1.4-4.2-2.5-6.1c-0.7-1-1.4-2-2.5-2.6c-0.6-0.4-0.7-0.3-0.7,0.4C35.8,15.4,35.8,16.9,35.8,18.4
			z M30.9,13.5c-4,0.8-7.4,2.5-10.4,5.1c-0.4,0.3-0.2,0.5,0.1,0.7c1.7,1.1,3.5,2,5.4,2.8c0.8,0.3,0.8,0.3,1-0.5
			c0.6-2.1,1.4-4.2,2.6-6C30,14.7,30.4,14.2,30.9,13.5z M39,13.4c0.6,0.7,1.1,1.4,1.5,2c1.2,1.9,2,4,2.5,6.1
			c0.1,0.5,0.3,0.7,0.8,0.4c1.9-0.8,3.7-1.7,5.5-2.8c0.4-0.2,0.4-0.4,0-0.7C46.4,15.9,43,14.2,39,13.4z M34.2,26.7
			c0-0.3,0-0.6,0-0.9c0-0.4-0.1-0.5-0.5-0.6c-1.8-0.1-3.5-0.4-5.2-0.9c-0.4-0.1-0.6,0-0.7,0.4c-0.6,2.9-0.8,5.8-0.9,8.8
			c0,0.6,0.2,0.7,0.7,0.7c0.5,0,0.6-0.2,0.7-0.6c0.6-2.6,2.2-4.3,4.7-5.2C34.2,28,34.2,28.1,34.2,26.7z M43.1,33.4
			c0-0.7-0.1-1.4-0.1-2.1c-0.1-2.2-0.4-4.3-0.8-6.5c-0.1-0.4-0.2-0.5-0.7-0.4c-1.7,0.5-3.5,0.8-5.3,0.9c-0.4,0-0.5,0.2-0.5,0.5
			c0,0.6,0,1.2,0,1.9c0,0.4,0.1,0.5,0.5,0.6c3,0.7,4.9,2.5,5.5,5.6c0,0.3,0.2,0.4,0.5,0.5C43.1,34.3,43.1,34.3,43.1,33.4z
			 M34.2,43.1c0-1,0-1-0.5-1.1c-3-0.7-4.9-2.5-5.5-5.6c-0.1-0.6-0.5-0.4-0.9-0.5c-0.5,0-0.4,0.3-0.4,0.6c0,0.9,0,1.7,0.1,2.6
			c0.1,1.8,0.4,3.7,0.7,5.5c0,0.4,0.2,0.5,0.6,0.4c1.7-0.5,3.5-0.7,5.3-0.8c0.4,0,0.6-0.2,0.6-0.6C34.2,43.4,34.2,43.2,34.2,43.1z
			 M43.1,36.8c-0.1-0.3,0.3-0.8-0.4-0.9c-0.7-0.1-0.8,0.2-1,0.8c-0.6,2.5-2.2,4.2-4.7,5c-1.3,0.4-1.3,0.4-1.3,1.7v0
			c0,0.5,0.1,0.6,0.6,0.7c1.8,0.1,3.5,0.3,5.3,0.8c0.5,0.1,0.6-0.1,0.7-0.5C42.8,42,43,39.4,43.1,36.8z M57.2,50.4
			c-0.1-0.1-0.1-0.1-0.1-0.2c-2.2-1.4-4.4-2.8-6.6-4.2c-0.4-0.3-0.5,0-0.4,0.3c0,1.9,0.1,3.8,0.2,5.7c0,0.6,0.1,1.2,0.1,1.8
			c0,0.3,0.1,0.4,0.4,0.2C52.9,52.8,55.1,51.6,57.2,50.4z M58.1,57.5c0-0.1-0.1-0.2-0.2-0.4c-0.5-0.9-1-1.7-1.5-2.6
			c-0.9-1.6-0.9-1.6-2.5-0.5c0,0,0,0,0,0c-0.2,0.1-0.2,0.3-0.1,0.5c0.7,1.3,1.5,2.7,2.3,4c0.1,0.2,0.2,0.2,0.4,0.1
			c0.5-0.3,0.9-0.6,1.4-0.8C58.1,57.8,58.1,57.7,58.1,57.5z M5.7,47.6c1,0,1.9-0.9,1.9-1.9c0-1.1-0.9-1.9-2-1.9
			c-1,0-1.8,0.8-1.8,1.9C3.8,46.8,4.7,47.6,5.7,47.6z M66.1,45.7c0-1.1-0.8-1.9-1.9-1.9c-1,0-1.9,0.8-1.9,1.9s0.9,1.9,1.9,1.9
			C65.3,47.6,66.1,46.8,66.1,45.7z M5.7,26.4c1.1,0,1.9-0.8,1.9-1.9c0-1-0.9-1.9-1.9-1.9c-1.1,0-1.8,0.8-1.9,1.9
			C3.8,25.6,4.6,26.4,5.7,26.4z M45.5,4c-1.1,0-1.9,0.8-1.9,1.9c0,1,0.8,1.9,1.9,1.9s1.9-0.9,1.9-1.9C47.5,4.8,46.7,4,45.5,4z
			 M26.3,5.8c0-1.1-0.8-1.9-1.9-1.9c-1.1,0-1.8,0.8-1.9,1.9c0,1,0.9,1.9,1.9,1.9C25.4,7.7,26.3,6.9,26.3,5.8z M64.3,22.6
			c-1,0-1.9,0.9-1.9,1.9c0,1,0.8,1.9,1.9,1.9c1.1,0,1.9-0.8,1.9-1.9C66.1,23.4,65.3,22.6,64.3,22.6z M24.4,66.3
			c1.1,0,1.9-0.8,1.9-1.9c0-1-0.8-1.9-1.9-1.9c-1,0-1.9,0.9-1.9,1.9C22.5,65.5,23.3,66.3,24.4,66.3z M47.5,64.4c0-1-0.9-1.9-1.9-1.9
			c-1.1,0-1.9,0.9-1.9,2c0,1,0.8,1.8,1.9,1.8C46.7,66.3,47.5,65.4,47.5,64.4z"/>
		<path fill="#E11C50" d="M35,32.4c1.4,0.1,2.7,0.5,3.8,1.5c0.4,0.4,0.6,0.7,0.2,1.2c-0.3,0.4-0.8,0.4-1.2,0c-1.5-1.5-4.1-1.4-5.6,0
			c-0.4,0.4-0.8,0.5-1.3,0c-0.3-0.4-0.3-0.8,0.2-1.2C32.2,32.9,33.6,32.5,35,32.4z"/>
		<path fill="#E11C50" d="M35,35.5c0.9,0,1.7,0.3,2.4,0.8c0.4,0.3,0.6,0.7,0.2,1.2c-0.3,0.4-0.7,0.4-1.1,0.1c-1-0.7-2-0.7-2.9,0
			c-0.4,0.3-0.8,0.3-1.2-0.2c-0.3-0.4-0.1-0.8,0.2-1.1C33.3,35.7,34.1,35.5,35,35.5z"/>
	</g>
</g>
<g id="Versatility">
	<g>
		<path fill="#FFFFFF" d="M2.9,34.2c0.3-0.7,0.8-1.2,1.4-1.7c2.2-2.1,4.3-4.3,6.5-6.5c0.8-0.8,1.9-1.1,3-0.7s1.9,1.3,2,2.6
			c0.1,0.7-0.2,1.4-0.5,2c-0.6,1.5-0.6,1.5,1,1.5c1.1,0,2.3,0,3.4-0.2c0.6-0.1,1.2-0.4,1.7-0.7c0.6-0.3,1.2-0.1,1.4,0.3
			c0.3,0.5,0.1,1.1-0.4,1.4c-1.1,0.7-2.3,1.1-3.6,1.1c-1.8,0-3.6,0-5.5,0c-1,0-1.4-0.6-1.1-1.5c0.4-1.1,0.8-2.2,1.3-3.3
			c0.2-0.5,0.1-0.9-0.3-1.2c-0.4-0.2-0.8-0.1-1.1,0.2c-2.3,2.3-4.6,4.6-6.9,6.9c-0.5,0.5-0.5,0.9,0,1.5c2.2,2.3,4.5,4.5,6.8,6.8
			c0.4,0.4,0.7,0.6,1.3,0.3c0.5-0.3,0.5-0.7,0.3-1.2c-0.4-1-0.8-2.1-1.2-3.1c-0.4-1,0-1.6,1.1-1.6c1.9,0,3.7,0,5.6-0.1
			c4-0.3,7.1-2.2,9.2-5.6c1.3-2.1,3-3.5,5.5-4c1-0.2,1-0.2,0.4-1.1c-0.4-0.6-0.8-1.2-1.2-1.9c-0.2-0.5-0.5-0.5-0.9-0.4
			c-2.7,0.8-4.8,2.3-6.3,4.6c0,0.1-0.1,0.2-0.2,0.3c-0.4,0.6-1,0.8-1.5,0.5c-0.5-0.3-0.6-1-0.2-1.6c0.9-1.5,2.1-2.7,3.6-3.7
			c1.2-0.9,2.6-1.5,4-2c0.3-0.1,0.5-0.2,0.4-0.6c-0.6-2-0.4-3.9-0.4-5.9c0-1.1,0.1-1-0.9-0.6c-0.7,0.2-1.3,0.6-1.9,0.7
			c-1.3,0.2-2.4-0.4-3-1.5c-0.6-1.1-0.5-2.4,0.4-3.3c2.4-2.5,4.9-4.9,7.3-7.4c0.3-0.3,0.7-0.5,1.2-0.7c0.5,0,1,0,1.5,0
			c0.6,0.2,1.1,0.6,1.6,1c2,2.1,4.1,4.1,6.1,6.1c0.3,0.3,0.6,0.7,0.9,1c0.9,1,0.9,2.4,0.2,3.5s-2.1,1.5-3.3,1.1
			c-0.7-0.2-1.3-0.5-2-0.7c-0.3-0.1-0.4,0-0.4,0.2c0,1.4-0.1,2.9,0.1,4.3c0.4,1.8,1.4,3.1,2.9,4.1c2.2,1.4,4,3.1,5.2,5.5
			c0.1,0.1,0.1,0.3,0.2,0.5c0.2,0.6,0,1.1-0.4,1.4c-0.5,0.3-1,0.1-1.4-0.4c-0.5-0.8-0.9-1.6-1.4-2.3c-0.9-1.1-2-2.1-3.2-2.8
			c-2.2-1.3-3.5-3.2-3.9-5.7c-0.1-0.8,0-1.6,0-2.4c0-1.3,0-2.5,0-3.7c0-1,0.6-1.4,1.5-1c1.1,0.4,2.2,0.8,3.3,1.3
			c0.5,0.2,0.8,0.1,1.1-0.3c0.3-0.4,0.2-0.8-0.1-1.2c-2.3-2.3-4.7-4.7-7-7c-0.5-0.5-0.9-0.5-1.4,0c-2.3,2.3-4.7,4.7-7,7
			c-0.3,0.3-0.4,0.7-0.1,1.1c0.2,0.4,0.6,0.5,1,0.3c1-0.4,2-0.7,2.9-1.1c1.3-0.6,2-0.1,2,1.3c0,1.8-0.1,3.5,0,5.3
			c0.4,4,2.2,7,5.6,9.1c2.1,1.3,3.5,3,4.1,5.5c0.2,1,0.2,1,1.1,0.4c2.4-1.7,5-2.7,8-2.7c1,0,2,0,3,0c0.7,0,0.7,0,0.5-0.7
			c-0.2-0.5-0.4-1-0.6-1.5c-0.5-1.4,0-2.7,1.1-3.5c1.2-0.8,2.6-0.7,3.6,0.4c2.4,2.4,4.8,4.7,7.1,7.1c1.2,1.2,1.2,2.9,0,4.2
			c-2.3,2.4-4.7,4.7-7.1,7.1c-1.1,1.1-2.5,1.2-3.7,0.4c-1.2-0.7-1.6-2.1-1.1-3.5c0.2-0.6,0.5-1.2,0.7-1.8c0.1-0.2,0.1-0.4-0.2-0.4
			c-1.5,0-3.1-0.1-4.7,0.2s-2.8,1.3-3.6,2.6c-1.9,3.2-4.6,5.4-8.1,6.4c-0.3,0.1-0.4,0.2-0.3,0.6c0.2,0.7,0.3,1.4,0.4,2.2
			c0,0.8-0.3,1.3-0.9,1.4c-0.7,0-1.1-0.4-1.2-1.2c-0.1-1.5-0.5-3-1.2-4.3c-1-1.9-2.4-3.5-4.2-4.6c-2.3-1.4-3.8-3.3-4.2-6.1
			c0-0.4-0.2-0.5-0.5-0.2c-0.7,0.6-1.5,1.2-2.4,1.6c-0.4,0.2-0.4,0.4-0.3,0.8c0.8,2.9,2.6,5.2,5.1,6.7c2.2,1.4,3.6,3.3,4.1,5.8
			c0.1,0.8,0,1.6,0,2.4c0,1.2,0,2.4,0,3.6c0,1.1-0.6,1.5-1.6,1.1S30,57.3,29,56.8c-0.5-0.2-0.9-0.1-1.2,0.3
			c-0.3,0.4-0.1,0.8,0.2,1.2c2.3,2.3,4.6,4.6,6.9,6.9c0.5,0.5,0.9,0.5,1.4,0c2.3-2.3,4.6-4.6,6.9-6.9c0.4-0.4,0.5-0.8,0.2-1.3
			c-0.3-0.5-0.7-0.5-1.2-0.3c-1.1,0.4-2.1,0.8-3.2,1.2c-1,0.4-1.6,0-1.6-1.1c0-0.6,0-1.1,0-1.7c0-0.7,0.4-1,0.9-1c0.6,0,1,0.3,1,0.9
			c0,0.6,0.2,0.5,0.6,0.3c0.7-0.3,1.4-0.7,2.3-0.8c1.3-0.2,2.4,0.4,3,1.5c0.6,1.1,0.5,2.4-0.4,3.3c-2.4,2.5-4.9,4.9-7.4,7.4
			c-1,1-2.8,1-3.8,0c-2.5-2.4-5-4.9-7.4-7.4c-0.9-0.9-0.9-2.4-0.2-3.5c0.7-1.1,2.1-1.5,3.3-1.1c0.7,0.2,1.3,0.5,2,0.7
			c0.2,0.1,0.4,0.1,0.4-0.2c0-1.5,0.1-3.1-0.2-4.7c-0.4-1.5-1.3-2.8-2.6-3.5c-3.2-1.9-5.4-4.6-6.5-8.2c-0.1-0.3-0.2-0.4-0.5-0.3
			c-2.1,0.6-4.2,0.4-6.3,0.4c-0.6,0-0.7,0.1-0.4,0.7c0.3,0.7,0.6,1.4,0.7,2.1c0.2,1.3-0.3,2.5-1.5,3.1c-1.1,0.6-2.4,0.5-3.3-0.4
			c-2.8-2.4-5.3-4.9-7.7-7.3c-0.4-0.4-0.6-0.8-0.7-1.3C2.9,35.3,2.9,34.8,2.9,34.2z M54.2,37c1.1,0,2,0,2.9,0c1.1,0,1.5,0.6,1.1,1.6
			c-0.4,1-0.8,2.1-1.2,3.1c-0.2,0.5-0.2,0.9,0.3,1.2c0.5,0.3,0.9,0.1,1.3-0.2c2.3-2.3,4.5-4.5,6.8-6.8c0.6-0.6,0.6-1,0-1.5
			c-2.2-2.3-4.5-4.5-6.8-6.8c-0.4-0.4-0.8-0.5-1.3-0.2c-0.5,0.3-0.5,0.7-0.3,1.2c0.4,1.1,0.8,2.1,1.3,3.3c0.3,0.9-0.1,1.5-1,1.5
			c-0.7,0-1.5,0-2.3,0c-1.4,0-2.9,0-4.3,0.2c-3.6,0.6-6.4,2.5-8.4,5.6c-0.8,1.3-1.9,2.4-3.3,3.1c-0.3,0.1-0.6,0.3-0.9,0.3
			c-0.5,0-0.9-0.1-1-0.7c-0.2-0.5,0-0.9,0.4-1.2c0.2-0.1,0.5-0.2,0.7-0.4c2.1-1.3,3.2-3.2,3-5.7c-0.2-2.4-1.4-4.1-3.6-5
			c-2.3-0.9-4.4-0.5-6.3,1.1c-2.9,2.7-2.5,7.3,0.9,9.4c2.1,1.3,3.9,2.9,5.1,5.1c0.7,1.2,0.7,1.2,2,0.7c2.5-1,4.5-2.6,5.9-4.9
			c1.2-2.1,2.9-3.4,5.2-4C51.8,36.8,53.1,37,54.2,37z"/>
	</g>
</g>
</svg>
